<svg width="148" height="105" viewBox="0 0 148 105" fill="none" xmlns="http://www.w3.org/2000/svg">
<path d="M13.4243 77.4204L19.8043 63.3204H21.9043L28.2843 77.4204H25.6843L24.2843 74.1604H17.4043L16.0243 77.4204H13.4243ZM20.8243 66.1004L18.2843 72.1204H23.4043L20.8643 66.1004H20.8243ZM33.2495 77.6204C32.3961 77.6204 31.6428 77.4137 30.9895 77.0004C30.3495 76.5871 29.8495 76.0004 29.4895 75.2404C29.1295 74.4671 28.9495 73.5604 28.9495 72.5204C28.9495 71.4671 29.1295 70.5671 29.4895 69.8204C29.8495 69.0604 30.3495 68.4737 30.9895 68.0604C31.6428 67.6471 32.3961 67.4404 33.2495 67.4404C33.9428 67.4404 34.5695 67.5937 35.1295 67.9004C35.6895 68.2071 36.1095 68.6137 36.3895 69.1204V63.3204H38.8895V77.4204H36.4495V75.8004C36.1828 76.3604 35.7628 76.8071 35.1895 77.1404C34.6161 77.4604 33.9695 77.6204 33.2495 77.6204ZM33.9495 75.7204C34.6961 75.7204 35.2961 75.4537 35.7495 74.9204C36.2028 74.3737 36.4295 73.5737 36.4295 72.5204C36.4295 71.4537 36.2028 70.6604 35.7495 70.1404C35.2961 69.6071 34.6961 69.3404 33.9495 69.3404C33.2028 69.3404 32.6028 69.6071 32.1495 70.1404C31.6961 70.6604 31.4695 71.4537 31.4695 72.5204C31.4695 73.5737 31.6961 74.3737 32.1495 74.9204C32.6028 75.4537 33.2028 75.7204 33.9495 75.7204ZM45.2416 77.6204C44.3883 77.6204 43.635 77.4137 42.9816 77.0004C42.3416 76.5871 41.8416 76.0004 41.4816 75.2404C41.1216 74.4671 40.9416 73.5604 40.9416 72.5204C40.9416 71.4671 41.1216 70.5671 41.4816 69.8204C41.8416 69.0604 42.3416 68.4737 42.9816 68.0604C43.635 67.6471 44.3883 67.4404 45.2416 67.4404C45.935 67.4404 46.5616 67.5937 47.1216 67.9004C47.6816 68.2071 48.1016 68.6137 48.3816 69.1204V63.3204H50.8816V77.4204H48.4416V75.8004C48.175 76.3604 47.755 76.8071 47.1816 77.1404C46.6083 77.4604 45.9616 77.6204 45.2416 77.6204ZM45.9416 75.7204C46.6883 75.7204 47.2883 75.4537 47.7416 74.9204C48.195 74.3737 48.4216 73.5737 48.4216 72.5204C48.4216 71.4537 48.195 70.6604 47.7416 70.1404C47.2883 69.6071 46.6883 69.3404 45.9416 69.3404C45.195 69.3404 44.595 69.6071 44.1416 70.1404C43.6883 70.6604 43.4616 71.4537 43.4616 72.5204C43.4616 73.5737 43.6883 74.3737 44.1416 74.9204C44.595 75.4537 45.195 75.7204 45.9416 75.7204ZM63.9645 77.6204C62.8578 77.6204 61.8311 77.4804 60.8845 77.2004C59.9378 76.9071 59.1378 76.5137 58.4845 76.0204L59.2645 74.0004C59.9178 74.4671 60.6311 74.8271 61.4045 75.0804C62.1911 75.3337 63.0445 75.4604 63.9645 75.4604C65.0178 75.4604 65.7845 75.2871 66.2645 74.9404C66.7445 74.5804 66.9845 74.1204 66.9845 73.5604C66.9845 73.0937 66.8111 72.7271 66.4645 72.4604C66.1311 72.1937 65.5511 71.9737 64.7245 71.8004L62.5245 71.3404C60.0178 70.8071 58.7645 69.5204 58.7645 67.4804C58.7645 66.6004 58.9978 65.8337 59.4645 65.1804C59.9311 64.5271 60.5778 64.0204 61.4045 63.6604C62.2311 63.3004 63.1845 63.1204 64.2645 63.1204C65.2245 63.1204 66.1245 63.2671 66.9645 63.5604C67.8045 63.8404 68.5045 64.2404 69.0645 64.7604L68.2845 66.6804C67.1778 65.7471 65.8311 65.2804 64.2445 65.2804C63.3245 65.2804 62.6045 65.4737 62.0845 65.8604C61.5645 66.2471 61.3045 66.7537 61.3045 67.3804C61.3045 67.8604 61.4645 68.2471 61.7845 68.5404C62.1045 68.8204 62.6511 69.0404 63.4245 69.2004L65.6045 69.6604C66.9245 69.9404 67.9045 70.3804 68.5445 70.9804C69.1978 71.5804 69.5245 72.3804 69.5245 73.3804C69.5245 74.2204 69.2978 74.9604 68.8445 75.6004C68.3911 76.2404 67.7445 76.7404 66.9045 77.1004C66.0778 77.4471 65.0978 77.6204 63.9645 77.6204ZM75.0216 77.6204C72.6216 77.6204 71.4216 76.2737 71.4216 73.5804V67.6404H73.9216V73.6204C73.9216 74.3137 74.0616 74.8271 74.3416 75.1604C74.6216 75.4937 75.0683 75.6604 75.6816 75.6604C76.3483 75.6604 76.895 75.4337 77.3216 74.9804C77.7483 74.5137 77.9616 73.9004 77.9616 73.1404V67.6404H80.4616V77.4204H78.0216V75.9604C77.3683 77.0671 76.3683 77.6204 75.0216 77.6204ZM82.9037 65.5404V63.1004H85.7037V65.5404H82.9037ZM83.0637 77.4204V67.6404H85.5637V77.4204H83.0637ZM92.6413 77.6204C90.0547 77.6204 88.7613 76.3404 88.7613 73.7804V69.5204H86.8813V67.6404H88.7613V64.7204H91.2613V67.6404H94.2213V69.5204H91.2613V73.6404C91.2613 74.2804 91.4013 74.7604 91.6813 75.0804C91.9613 75.4004 92.4147 75.5604 93.0413 75.5604C93.228 75.5604 93.4213 75.5404 93.6213 75.5004C93.8213 75.4471 94.028 75.3937 94.2413 75.3404L94.6213 77.1804C94.3813 77.3137 94.0747 77.4204 93.7013 77.5004C93.3413 77.5804 92.988 77.6204 92.6413 77.6204ZM99.0571 77.6204C98.3504 77.6204 97.7171 77.4871 97.1571 77.2204C96.6104 76.9404 96.1771 76.5671 95.8571 76.1004C95.5504 75.6337 95.3971 75.1071 95.3971 74.5204C95.3971 73.8004 95.5838 73.2337 95.9571 72.8204C96.3304 72.3937 96.9371 72.0871 97.7771 71.9004C98.6171 71.7137 99.7438 71.6204 101.157 71.6204H101.857V71.2004C101.857 70.5337 101.71 70.0537 101.417 69.7604C101.124 69.4671 100.63 69.3204 99.9371 69.3204C99.3904 69.3204 98.8304 69.4071 98.2571 69.5804C97.6838 69.7404 97.1038 69.9937 96.5171 70.3404L95.7971 68.6404C96.1438 68.4004 96.5504 68.1937 97.0171 68.0204C97.4971 67.8337 97.9971 67.6937 98.5171 67.6004C99.0504 67.4937 99.5504 67.4404 100.017 67.4404C101.444 67.4404 102.504 67.7737 103.197 68.4404C103.89 69.0937 104.237 70.1137 104.237 71.5004V77.4204H101.897V75.8604C101.67 76.4071 101.31 76.8404 100.817 77.1604C100.324 77.4671 99.7371 77.6204 99.0571 77.6204ZM99.5771 75.9004C100.23 75.9004 100.77 75.6737 101.197 75.2204C101.637 74.7671 101.857 74.1937 101.857 73.5004V73.0604H101.177C99.9238 73.0604 99.0504 73.1604 98.5571 73.3604C98.0771 73.5471 97.8371 73.8937 97.8371 74.4004C97.8371 74.8404 97.9904 75.2004 98.2971 75.4804C98.6038 75.7604 99.0304 75.9004 99.5771 75.9004ZM112.415 77.6204C111.695 77.6204 111.048 77.4604 110.475 77.1404C109.915 76.8204 109.495 76.3871 109.215 75.8404V77.4204H106.775V63.3204H109.275V69.0804C109.568 68.5871 109.988 68.1937 110.535 67.9004C111.095 67.5937 111.721 67.4404 112.415 67.4404C113.281 67.4404 114.035 67.6471 114.675 68.0604C115.315 68.4737 115.815 69.0604 116.175 69.8204C116.535 70.5671 116.715 71.4671 116.715 72.5204C116.715 73.5604 116.535 74.4671 116.175 75.2404C115.815 76.0004 115.308 76.5871 114.655 77.0004C114.015 77.4137 113.268 77.6204 112.415 77.6204ZM111.715 75.7204C112.461 75.7204 113.061 75.4537 113.515 74.9204C113.968 74.3737 114.195 73.5737 114.195 72.5204C114.195 71.4537 113.968 70.6604 113.515 70.1404C113.061 69.6071 112.461 69.3404 111.715 69.3404C110.968 69.3404 110.368 69.6071 109.915 70.1404C109.461 70.6604 109.235 71.4537 109.235 72.5204C109.235 73.5737 109.461 74.3737 109.915 74.9204C110.368 75.4537 110.968 75.7204 111.715 75.7204ZM122.167 77.6204C121.007 77.6204 120.147 77.3071 119.587 76.6804C119.04 76.0404 118.767 75.1071 118.767 73.8804V63.3204H121.267V73.7604C121.267 74.9604 121.773 75.5604 122.787 75.5604C122.933 75.5604 123.08 75.5537 123.227 75.5404C123.373 75.5271 123.513 75.5004 123.647 75.4604L123.607 77.4404C123.127 77.5604 122.647 77.6204 122.167 77.6204ZM129.876 77.6204C128.769 77.6204 127.816 77.4137 127.016 77.0004C126.216 76.5871 125.596 76.0004 125.156 75.2404C124.729 74.4804 124.516 73.5804 124.516 72.5404C124.516 71.5271 124.723 70.6404 125.136 69.8804C125.563 69.1204 126.143 68.5271 126.876 68.1004C127.623 67.6604 128.469 67.4404 129.416 67.4404C130.803 67.4404 131.896 67.8804 132.696 68.7604C133.509 69.6404 133.916 70.8404 133.916 72.3604V73.1004H126.916C127.103 74.8471 128.103 75.7204 129.916 75.7204C130.463 75.7204 131.009 75.6404 131.556 75.4804C132.103 75.3071 132.603 75.0404 133.056 74.6804L133.756 76.3604C133.289 76.7471 132.703 77.0537 131.996 77.2804C131.289 77.5071 130.583 77.6204 129.876 77.6204ZM129.516 69.1404C128.783 69.1404 128.189 69.3671 127.736 69.8204C127.283 70.2737 127.009 70.8871 126.916 71.6604H131.836C131.783 70.8471 131.556 70.2271 131.156 69.8004C130.769 69.3604 130.223 69.1404 129.516 69.1404ZM41.7086 104.62C40.6019 104.62 39.5753 104.48 38.6286 104.2C37.6819 103.907 36.8819 103.514 36.2286 103.02L37.0086 101C37.6619 101.467 38.3753 101.827 39.1486 102.08C39.9353 102.334 40.7886 102.46 41.7086 102.46C42.7619 102.46 43.5286 102.287 44.0086 101.94C44.4886 101.58 44.7286 101.12 44.7286 100.56C44.7286 100.094 44.5553 99.7271 44.2086 99.4604C43.8753 99.1937 43.2953 98.9737 42.4686 98.8004L40.2686 98.3404C37.7619 97.8071 36.5086 96.5204 36.5086 94.4804C36.5086 93.6004 36.7419 92.8337 37.2086 92.1804C37.6753 91.5271 38.3219 91.0204 39.1486 90.6604C39.9753 90.3004 40.9286 90.1204 42.0086 90.1204C42.9686 90.1204 43.8686 90.2671 44.7086 90.5604C45.5486 90.8404 46.2486 91.2404 46.8086 91.7604L46.0286 93.6804C44.9219 92.7471 43.5753 92.2804 41.9886 92.2804C41.0686 92.2804 40.3486 92.4737 39.8286 92.8604C39.3086 93.2471 39.0486 93.7537 39.0486 94.3804C39.0486 94.8604 39.2086 95.2471 39.5286 95.5404C39.8486 95.8204 40.3953 96.0404 41.1686 96.2004L43.3486 96.6604C44.6686 96.9404 45.6486 97.3804 46.2886 97.9804C46.9419 98.5804 47.2686 99.3804 47.2686 100.38C47.2686 101.22 47.0419 101.96 46.5886 102.6C46.1353 103.24 45.4886 103.74 44.6486 104.1C43.8219 104.447 42.8419 104.62 41.7086 104.62ZM54.0458 104.62C52.9391 104.62 51.9858 104.414 51.1858 104C50.3858 103.587 49.7658 103 49.3258 102.24C48.8991 101.48 48.6858 100.58 48.6858 99.5404C48.6858 98.5271 48.8924 97.6404 49.3058 96.8804C49.7324 96.1204 50.3124 95.5271 51.0458 95.1004C51.7924 94.6604 52.6391 94.4404 53.5858 94.4404C54.9724 94.4404 56.0658 94.8804 56.8658 95.7604C57.6791 96.6404 58.0858 97.8404 58.0858 99.3604V100.1H51.0858C51.2724 101.847 52.2724 102.72 54.0858 102.72C54.6324 102.72 55.1791 102.64 55.7258 102.48C56.2724 102.307 56.7724 102.04 57.2258 101.68L57.9258 103.36C57.4591 103.747 56.8724 104.054 56.1658 104.28C55.4591 104.507 54.7524 104.62 54.0458 104.62ZM53.6858 96.1404C52.9524 96.1404 52.3591 96.3671 51.9058 96.8204C51.4524 97.2737 51.1791 97.8871 51.0858 98.6604H56.0058C55.9524 97.8471 55.7258 97.2271 55.3258 96.8004C54.9391 96.3604 54.3924 96.1404 53.6858 96.1404ZM60.0656 104.42V94.6404H62.5056V96.3604C62.9856 95.2004 64.0123 94.5604 65.5856 94.4404L66.3456 94.3804L66.5056 96.5004L65.0656 96.6404C63.4256 96.8004 62.6056 97.6404 62.6056 99.1604V104.42H60.0656ZM71.3831 104.42L67.1431 94.6404H69.8031L72.5231 101.48L75.3431 94.6404H77.8431L73.5431 104.42H71.3831ZM78.89 92.5404V90.1004H81.69V92.5404H78.89ZM79.05 104.42V94.6404H81.55V104.42H79.05ZM88.6677 104.62C87.641 104.62 86.7477 104.414 85.9877 104C85.2277 103.574 84.641 102.974 84.2277 102.2C83.8143 101.427 83.6077 100.52 83.6077 99.4804C83.6077 98.4404 83.8143 97.5471 84.2277 96.8004C84.641 96.0404 85.2277 95.4604 85.9877 95.0604C86.7477 94.6471 87.641 94.4404 88.6677 94.4404C89.2943 94.4404 89.9143 94.5404 90.5277 94.7404C91.141 94.9404 91.6477 95.2204 92.0477 95.5804L91.3077 97.3204C90.961 97.0137 90.5677 96.7804 90.1277 96.6204C89.701 96.4604 89.2877 96.3804 88.8877 96.3804C88.021 96.3804 87.3477 96.6537 86.8677 97.2004C86.401 97.7337 86.1677 98.5004 86.1677 99.5004C86.1677 100.487 86.401 101.267 86.8677 101.84C87.3477 102.4 88.021 102.68 88.8877 102.68C89.2743 102.68 89.6877 102.6 90.1277 102.44C90.5677 102.28 90.961 102.04 91.3077 101.72L92.0477 103.48C91.6477 103.827 91.1343 104.107 90.5077 104.32C89.8943 104.52 89.281 104.62 88.6677 104.62ZM98.2059 104.62C97.0993 104.62 96.1459 104.414 95.3459 104C94.5459 103.587 93.9259 103 93.4859 102.24C93.0593 101.48 92.8459 100.58 92.8459 99.5404C92.8459 98.5271 93.0526 97.6404 93.4659 96.8804C93.8926 96.1204 94.4726 95.5271 95.2059 95.1004C95.9526 94.6604 96.7993 94.4404 97.7459 94.4404C99.1326 94.4404 100.226 94.8804 101.026 95.7604C101.839 96.6404 102.246 97.8404 102.246 99.3604V100.1H95.2459C95.4326 101.847 96.4326 102.72 98.2459 102.72C98.7926 102.72 99.3393 102.64 99.8859 102.48C100.433 102.307 100.933 102.04 101.386 101.68L102.086 103.36C101.619 103.747 101.033 104.054 100.326 104.28C99.6193 104.507 98.9126 104.62 98.2059 104.62ZM97.8459 96.1404C97.1126 96.1404 96.5193 96.3671 96.0659 96.8204C95.6126 97.2737 95.3393 97.8871 95.2459 98.6604H100.166C100.113 97.8471 99.8859 97.2271 99.4859 96.8004C99.0993 96.3604 98.5526 96.1404 97.8459 96.1404ZM107.806 104.62C106.979 104.62 106.206 104.52 105.486 104.32C104.766 104.12 104.166 103.834 103.686 103.46L104.326 101.82C104.819 102.154 105.372 102.414 105.986 102.6C106.599 102.774 107.212 102.86 107.826 102.86C108.466 102.86 108.939 102.754 109.246 102.54C109.566 102.314 109.726 102.02 109.726 101.66C109.726 101.1 109.312 100.74 108.486 100.58L106.486 100.2C104.792 99.8804 103.946 99.0004 103.946 97.5604C103.946 96.9204 104.119 96.3671 104.466 95.9004C104.826 95.4337 105.319 95.0737 105.946 94.8204C106.572 94.5671 107.292 94.4404 108.106 94.4404C108.799 94.4404 109.466 94.5404 110.106 94.7404C110.746 94.9271 111.292 95.2137 111.746 95.6004L111.066 97.2404C110.679 96.9204 110.212 96.6671 109.666 96.4804C109.132 96.2937 108.619 96.2004 108.126 96.2004C107.472 96.2004 106.986 96.3137 106.666 96.5404C106.359 96.7671 106.206 97.0671 106.206 97.4404C106.206 98.0271 106.586 98.3871 107.346 98.5204L109.346 98.9004C110.212 99.0604 110.866 99.3537 111.306 99.7804C111.759 100.207 111.986 100.78 111.986 101.5C111.986 102.474 111.606 103.24 110.846 103.8C110.086 104.347 109.072 104.62 107.806 104.62Z" fill="#080808"/>
<path d="M94.7604 30.4199C94.259 26.3177 91.9202 23.5874 88.0477 22.1846C87.7451 22.0747 87.613 21.9377 87.576 21.6302C87.2055 18.5615 86.8054 15.4954 86.4498 12.4243C86.167 9.97678 84.4011 8.15783 81.9512 7.92567C81.1115 7.84664 80.2594 7.88368 79.4135 7.88862C79.1579 7.88862 79.0517 7.82441 79.0665 7.55521C79.0757 7.13941 79.03 6.72422 78.9307 6.32035C78.0996 2.40213 74.563 -0.275051 70.6201 0.0225513C68.699 0.163631 66.8966 1.00536 65.5553 2.38788C64.214 3.7704 63.4272 5.5974 63.3442 7.52187C63.327 7.84911 63.2096 7.89233 62.933 7.89233C62.2712 7.87628 61.6093 7.87751 60.9474 7.89233C58.3949 7.93926 56.4216 9.56804 56.0339 12.0822C55.6424 14.6199 55.3646 17.1748 55.046 19.7235C54.3853 25.0199 53.7889 30.3248 53.0504 35.6101C52.6343 38.5873 54.8336 41.4608 58.1702 41.4201C62.6503 41.3645 67.1316 41.4065 71.6117 41.4053C76.0152 41.4053 80.4195 41.4053 84.8247 41.4053C85.3943 41.4112 85.9635 41.3699 86.5263 41.2818C91.8017 40.3964 95.4075 35.7163 94.7604 30.4199ZM65.2916 7.47988C65.4645 4.51621 67.9565 2.11441 71.0288 1.97487C73.9295 1.84274 76.6153 4.07413 77.0352 6.95507C77.1698 7.88245 77.1698 7.88245 76.2449 7.88245H71.1671C69.337 7.88245 67.5057 7.87381 65.6757 7.8911C65.346 7.89357 65.2731 7.79848 65.2916 7.47988ZM78.638 39.4357C71.8166 39.4357 64.9948 39.4357 58.1726 39.4357C56.3809 39.4357 55.1139 38.3391 54.9781 36.6535C54.9262 36.0064 55.0843 35.3668 55.162 34.7271C55.544 31.6112 55.933 28.4972 56.329 25.3854C56.7151 22.3024 57.1024 19.2193 57.491 16.1363C57.6503 14.8693 57.7874 13.5999 57.9849 12.3378C58.0828 11.6624 58.4183 11.044 58.9312 10.5938C59.4441 10.1436 60.1007 9.89111 60.7831 9.88169C61.5068 9.8607 62.2316 9.89281 62.954 9.86564C63.2763 9.85329 63.3331 9.97184 63.3307 10.2608C63.3191 12.0629 63.3191 13.8645 63.3307 15.6658C63.3307 16.3845 63.7604 16.8019 64.405 16.7475C64.9446 16.7018 65.2879 16.2857 65.2892 15.651C65.2892 13.895 65.3052 12.1403 65.2805 10.3843C65.2743 9.9669 65.3805 9.86194 65.8004 9.86317C69.4342 9.88128 73.0684 9.88128 76.703 9.86317C77.0512 9.86317 77.1315 9.94838 77.1278 10.2917C77.108 12.0464 77.1191 13.8024 77.1179 15.5571C77.1009 15.7725 77.1339 15.9888 77.2142 16.1894C77.3058 16.3864 77.4604 16.5473 77.6536 16.6466C77.8468 16.7459 78.0677 16.7779 78.2811 16.7376C78.4877 16.7051 78.6775 16.6044 78.8203 16.4516C78.963 16.2988 79.0506 16.1026 79.069 15.8942C79.0811 15.741 79.0853 15.5873 79.0813 15.4336C79.0813 13.7048 79.0887 11.9847 79.0813 10.2596C79.0813 9.9706 79.1357 9.85082 79.458 9.8644C80.0754 9.89157 80.6928 9.87181 81.3103 9.87305C83.1342 9.87305 84.2863 10.9029 84.5086 12.7034C84.8654 15.604 85.2174 18.5072 85.5965 21.403C85.6471 21.7932 85.4471 21.7043 85.2396 21.703C81.8573 21.6894 79.0937 22.9984 77.0895 25.7151C73.9369 29.9482 74.6902 35.7644 78.7405 39.1479L79.0801 39.4344L78.638 39.4357ZM85.1396 39.4357C80.3236 39.4258 77.1019 35.6076 77.113 31.5325C77.1031 27.1982 80.6508 23.6665 85.0161 23.6615C89.306 23.6615 92.8525 27.1858 92.8834 31.4869C92.9143 35.7879 89.3529 39.4394 85.1396 39.4307V39.4357Z" fill="black"/>
<path d="M85.9866 29.503C86.0212 29.7994 85.8273 30.2748 86.0632 30.4983C86.299 30.7219 86.7658 30.549 87.1313 30.5626C87.4228 30.5737 87.7154 30.5551 88.0069 30.5737C88.1346 30.5744 88.261 30.6003 88.3788 30.6499C88.4966 30.6994 88.6035 30.7717 88.6933 30.8626C88.7831 30.9535 88.8542 31.0612 88.9024 31.1795C88.9507 31.2978 88.9751 31.4245 88.9744 31.5523C88.9736 31.6801 88.9478 31.8065 88.8982 31.9243C88.8486 32.042 88.7763 32.1489 88.6854 32.2387C88.5946 32.3286 88.4869 32.3996 88.3685 32.4479C88.2502 32.4961 88.1235 32.5205 87.9957 32.5198C87.4277 32.5433 86.8584 32.5383 86.2892 32.5198C86.0508 32.5136 85.973 32.5791 85.9817 32.8248C86.0002 33.362 85.9953 33.9004 85.9817 34.4388C85.9693 35.0562 85.5458 35.4872 84.9851 35.4798C84.4245 35.4724 84.0405 35.0575 84.0244 34.4561C83.9999 33.9649 84.002 33.4727 84.0306 32.9817C84.0639 32.5729 83.9071 32.4877 83.5367 32.5173C83.0625 32.5495 82.5833 32.5334 82.1067 32.5173C81.4806 32.505 81.0632 32.1049 81.0645 31.5295C81.0657 30.954 81.4646 30.57 82.1129 30.5576C82.6352 30.5465 83.1588 30.5428 83.6811 30.5576C83.9417 30.5663 84.0318 30.4848 84.022 30.2193C84.0034 29.7253 84.0121 29.2314 84.022 28.7436C84.022 28.0187 84.385 27.6038 84.9938 27.6001C85.6026 27.5964 85.9817 28.0286 85.9817 28.7325C85.9891 28.9758 85.9866 29.2067 85.9866 29.503Z" fill="black"/>
</svg>
