<svg width="42" height="42" viewBox="0 0 42 42" fill="none" xmlns="http://www.w3.org/2000/svg">
<path d="M41.7604 30.4199C41.259 26.3177 38.9202 23.5874 35.0477 22.1846C34.7451 22.0747 34.613 21.9377 34.576 21.6302C34.2055 18.5615 33.8054 15.4954 33.4498 12.4243C33.167 9.97678 31.4011 8.15783 28.9512 7.92567C28.1115 7.84664 27.2594 7.88368 26.4135 7.88862C26.1579 7.88862 26.0517 7.82441 26.0665 7.55521C26.0757 7.13941 26.03 6.72422 25.9307 6.32035C25.0996 2.40213 21.563 -0.275051 17.6201 0.0225513C15.699 0.163631 13.8966 1.00536 12.5553 2.38788C11.214 3.7704 10.4272 5.5974 10.3442 7.52187C10.327 7.84911 10.2096 7.89233 9.93304 7.89233C9.27115 7.87628 8.60927 7.87751 7.94738 7.89233C5.39492 7.93926 3.42161 9.56804 3.03386 12.0822C2.64241 14.6199 2.36456 17.1748 2.04597 19.7235C1.38532 25.0199 0.788879 30.3248 0.0504313 35.6101C-0.365717 38.5873 1.83358 41.4608 5.17018 41.4201C9.65026 41.3645 14.1316 41.4065 18.6117 41.4053C23.0152 41.4053 27.4195 41.4053 31.8247 41.4053C32.3943 41.4112 32.9635 41.3699 33.5263 41.2818C38.8017 40.3964 42.4075 35.7163 41.7604 30.4199ZM12.2916 7.47988C12.4645 4.51621 14.9565 2.11441 18.0288 1.97487C20.9295 1.84274 23.6153 4.07413 24.0352 6.95507C24.1698 7.88245 24.1698 7.88245 23.2449 7.88245H18.1671C16.337 7.88245 14.5057 7.87381 12.6757 7.8911C12.346 7.89357 12.2731 7.79848 12.2916 7.47988ZM25.638 39.4357C18.8166 39.4357 11.9948 39.4357 5.17264 39.4357C3.38086 39.4357 2.11389 38.3391 1.97805 36.6535C1.92619 36.0064 2.08425 35.3668 2.16205 34.7271C2.54403 31.6112 2.93301 28.4972 3.32899 25.3854C3.71509 22.3024 4.10243 19.2193 4.491 16.1363C4.6503 14.8693 4.78737 13.5999 4.98495 12.3378C5.08275 11.6624 5.41826 11.044 5.93117 10.5938C6.44407 10.1436 7.10074 9.89111 7.78314 9.88169C8.50677 9.8607 9.23164 9.89281 9.95403 9.86564C10.2763 9.85329 10.3331 9.97184 10.3307 10.2608C10.3191 12.0629 10.3191 13.8645 10.3307 15.6658C10.3307 16.3845 10.7604 16.8019 11.405 16.7475C11.9446 16.7018 12.2879 16.2857 12.2892 15.651C12.2892 13.895 12.3052 12.1403 12.2805 10.3843C12.2743 9.9669 12.3805 9.86194 12.8004 9.86317C16.4342 9.88128 20.0684 9.88128 23.703 9.86317C24.0512 9.86317 24.1315 9.94838 24.1278 10.2917C24.108 12.0464 24.1191 13.8024 24.1179 15.5571C24.1009 15.7725 24.1339 15.9888 24.2142 16.1894C24.3058 16.3864 24.4604 16.5473 24.6536 16.6466C24.8468 16.7459 25.0677 16.7779 25.2811 16.7376C25.4877 16.7051 25.6775 16.6044 25.8203 16.4516C25.963 16.2988 26.0506 16.1026 26.069 15.8942C26.0811 15.741 26.0853 15.5873 26.0813 15.4336C26.0813 13.7048 26.0887 11.9847 26.0813 10.2596C26.0813 9.9706 26.1357 9.85082 26.458 9.8644C27.0754 9.89157 27.6928 9.87181 28.3103 9.87305C30.1342 9.87305 31.2863 10.9029 31.5086 12.7034C31.8654 15.604 32.2174 18.5072 32.5965 21.403C32.6471 21.7932 32.4471 21.7043 32.2396 21.703C28.8573 21.6894 26.0937 22.9984 24.0895 25.7151C20.9369 29.9482 21.6902 35.7644 25.7405 39.1479L26.0801 39.4344L25.638 39.4357ZM32.1396 39.4357C27.3236 39.4258 24.1019 35.6076 24.113 31.5325C24.1031 27.1982 27.6508 23.6665 32.0161 23.6615C36.306 23.6615 39.8525 27.1858 39.8834 31.4869C39.9143 35.7879 36.3529 39.4394 32.1396 39.4307V39.4357Z" fill="black"/>
<path d="M32.9866 29.503C33.0212 29.7994 32.8273 30.2748 33.0632 30.4983C33.299 30.7219 33.7658 30.549 34.1313 30.5626C34.4228 30.5737 34.7154 30.5551 35.0069 30.5737C35.1346 30.5744 35.261 30.6003 35.3788 30.6499C35.4966 30.6994 35.6035 30.7717 35.6933 30.8626C35.7831 30.9535 35.8542 31.0612 35.9024 31.1795C35.9507 31.2978 35.9751 31.4245 35.9744 31.5523C35.9736 31.6801 35.9478 31.8065 35.8982 31.9243C35.8486 32.042 35.7763 32.1489 35.6854 32.2387C35.5946 32.3286 35.4869 32.3996 35.3685 32.4479C35.2502 32.4961 35.1235 32.5205 34.9957 32.5198C34.4277 32.5433 33.8584 32.5383 33.2892 32.5198C33.0508 32.5136 32.973 32.5791 32.9817 32.8248C33.0002 33.362 32.9953 33.9004 32.9817 34.4388C32.9693 35.0562 32.5458 35.4872 31.9851 35.4798C31.4245 35.4724 31.0405 35.0575 31.0244 34.4561C30.9999 33.9649 31.002 33.4727 31.0306 32.9817C31.0639 32.5729 30.9071 32.4877 30.5367 32.5173C30.0625 32.5495 29.5833 32.5334 29.1067 32.5173C28.4806 32.505 28.0632 32.1049 28.0645 31.5295C28.0657 30.954 28.4646 30.57 29.1129 30.5576C29.6352 30.5465 30.1588 30.5428 30.6811 30.5576C30.9417 30.5663 31.0318 30.4848 31.022 30.2193C31.0034 29.7253 31.0121 29.2314 31.022 28.7436C31.022 28.0187 31.385 27.6038 31.9938 27.6001C32.6026 27.5964 32.9817 28.0286 32.9817 28.7325C32.9891 28.9758 32.9866 29.2067 32.9866 29.503Z" fill="black"/>
</svg>
