<svg width="119" height="66" viewBox="0 0 119 66" fill="none" xmlns="http://www.w3.org/2000/svg">
<g clip-path="url(#clip0_4862_19810)">
<path d="M55.9525 65.3758C40.1553 65.2021 26.5357 59.6426 15.0166 48.889C14.7918 48.6795 14.5281 48.4579 14.425 48.1881C14.3286 47.9361 14.3084 47.4979 14.4599 47.3476C14.6573 47.1511 15.0668 47.0692 15.3676 47.1011C15.6521 47.1311 15.9199 47.3624 16.1849 47.5222C24.813 52.7237 34.1142 56.1012 44.0572 57.7533C50.3626 58.7996 56.7044 59.1306 63.0701 58.5536C71.7094 57.7684 80.011 55.6318 87.9369 52.092C89.4197 51.4294 90.1631 51.4523 90.6295 52.2304C91.0706 52.9657 90.7817 53.5983 89.4934 54.5739C83.3314 59.2373 76.3597 62.1263 68.875 63.8615C64.6308 64.8453 60.3269 65.385 55.9525 65.3758Z" fill="white"/>
<path d="M28.1485 43.5441L23.0489 43.5655C23.0151 43.0814 22.9605 42.6351 22.9576 42.1866C22.9356 38.6649 22.9321 35.1431 22.9055 31.6214C22.8902 29.5597 22.2024 28.874 20.1381 29.0466C19.0781 29.1354 18.0396 29.4754 16.9208 29.7166L16.9789 43.543L11.7569 43.565C11.7271 43.0798 11.6781 42.6274 11.6752 42.1743C11.6539 38.6914 11.6505 35.2084 11.6236 31.725C11.6072 29.5285 11.0014 28.9655 8.82567 29.0732C8.51639 29.0798 8.20815 29.1113 7.90397 29.1675C5.6182 29.6563 5.58001 29.7096 5.59033 32.0416C5.60448 35.4084 5.61864 38.7753 5.63279 42.1425L5.63897 43.6111L0.49325 43.6328L0.417829 25.692L4.64094 25.6743C4.78517 26.1063 4.93977 26.5695 5.13744 27.1638C5.63067 26.8987 6.06519 26.6792 6.48628 26.4358C8.1318 25.4838 9.90252 24.9461 11.8048 24.9831C13.5466 25.0177 15.0858 25.5736 16.121 27.1361C16.944 26.7076 17.7105 26.2558 18.5189 25.8999C20.2482 25.1361 22.0487 24.7439 23.9541 25.0357C26.3664 25.4051 27.9575 26.858 28.0463 29.3546C28.2115 34.0287 28.1282 38.712 28.1485 43.5441Z" fill="white"/>
<path d="M118.772 18.6232C118.101 20.5586 117.503 22.3005 116.893 24.038C114.772 30.0872 112.652 36.1367 110.533 42.1866C110.274 42.931 109.948 43.3569 109.058 43.3008C107.861 43.2251 106.651 43.2573 105.452 43.3089C104.724 43.34 104.328 43.0975 104.077 42.39C102.2 37.1136 100.29 31.8492 98.3917 26.5811C97.5669 24.2922 96.7438 22.0031 95.9224 19.7139C95.8213 19.4313 95.7509 19.1379 95.6428 18.7679L101.531 18.7432C103.423 24.9744 105.319 31.2177 107.218 37.4731L107.474 37.4429C108.288 34.6727 109.107 31.9041 109.913 29.1319C110.851 25.9065 111.767 22.6751 112.728 19.4568C112.819 19.1499 113.154 18.6918 113.39 18.6816C115.118 18.6079 116.849 18.6313 118.772 18.6232Z" fill="white"/>
<path d="M48.7239 43.4626L43.5812 43.4842L43.5056 25.4914L47.6345 25.474C47.8343 25.984 48.0394 26.5114 48.2833 27.1351C48.8332 26.8095 49.3155 26.5091 49.8117 26.2332C51.7942 25.1321 53.8942 24.567 56.1763 24.9073C58.7106 25.2854 60.2245 26.7764 60.3304 29.5642C60.4992 34.0079 60.4114 38.4598 60.425 42.9082C60.4256 43.0528 60.3468 43.1972 60.2862 43.4084L55.2148 43.4297C55.1872 42.9747 55.1435 42.5646 55.1407 42.1529C55.121 38.787 55.1171 35.4215 55.086 32.0557C55.0812 31.5224 54.9872 30.9858 54.8928 30.4585C54.7066 29.4208 53.9915 28.9395 53.0068 28.9114C52.2813 28.891 51.5212 28.9253 50.8284 29.1127C48.6588 29.6965 48.6666 29.7286 48.676 31.9518C48.69 35.2784 48.704 38.6054 48.7179 41.9327L48.7239 43.4626Z" fill="white"/>
<path d="M93.8844 18.8137L93.9021 23.0251L86.4164 23.0565L86.5015 43.3063L81.2252 43.3285L81.1402 23.115L73.6253 23.1466L73.6074 18.8989L93.8844 18.8137Z" fill="white"/>
<path d="M38.2474 25.5198L38.323 43.485L33.2679 43.5063L33.1924 25.541L38.2474 25.5198Z" fill="white"/>
<path d="M65.4406 43.3464L65.3652 25.4297L70.4131 25.4085L70.4884 43.3252L65.4406 43.3464Z" fill="white"/>
<path d="M47.2028 10.7541L44.7326 10.7644C44.7274 9.52463 44.7225 8.34203 44.7175 7.15994C44.7109 6.19293 44.7442 5.2232 44.673 4.26105C44.6246 3.59715 44.4599 2.91995 43.5542 2.9166C42.6633 2.9132 42.438 3.54708 42.4102 4.2343C42.3415 5.93316 42.341 7.6343 42.3046 9.33457C42.2947 9.7862 42.2571 10.2374 42.2245 10.7612L39.8594 10.7711C39.8091 10.3765 39.725 10.0054 39.722 9.63763C39.6998 7.04669 39.6889 4.4557 39.6893 1.86467C39.6869 1.2961 39.5815 0.592592 40.49 0.648542C41.2032 0.693052 42.2344 0.188589 42.2679 1.33735C43.0745 1.03205 43.9147 0.446655 44.7268 0.482576C45.5389 0.518498 46.3208 1.17728 47.1422 1.57587C47.6112 1.28628 48.2042 0.749434 48.899 0.526337C50.4977 0.0123414 52.096 1.00485 52.1865 2.65809C52.3239 5.12594 52.2744 7.60582 52.2423 10.0795C52.2392 10.3206 51.8351 10.7203 51.5638 10.7679C49.9084 11.0604 49.6492 10.824 49.6423 9.18162C49.6356 7.59801 49.6484 6.01126 49.6305 4.42617C49.6229 3.72327 49.6397 2.96152 48.6308 2.90701C47.8304 2.86389 47.3675 3.38792 47.3414 4.48279C47.3023 6.14475 47.3302 7.80846 47.3137 9.47084C47.3092 9.88056 47.2444 10.29 47.2028 10.7541Z" fill="white"/>
<path d="M89.2415 49.1612C87.2158 49.3664 85.2516 49.5867 83.2831 49.7482C82.8735 49.7816 82.4413 49.5949 82.0199 49.5093C82.2549 49.1058 82.3971 48.5805 82.7403 48.3191C84.3743 47.0754 86.2772 46.4171 88.2734 46.0328C90.8143 45.5434 93.3597 45.5066 95.8798 46.1714C97.3455 46.5581 97.7175 46.9627 97.6859 48.4397C97.5844 53.1803 96.1547 57.4611 93.0775 61.1358C92.9786 61.2542 92.885 61.3966 92.7552 61.4666C92.2757 61.7266 91.7839 61.9611 91.2937 62.2048C91.3074 61.6796 91.2097 61.1217 91.3531 60.6342C91.9421 58.6394 92.6459 56.6748 93.2235 54.6744C93.4992 53.7175 93.6487 52.712 93.7398 51.7175C93.8647 50.3627 93.3111 49.6846 91.965 49.4645C91.0474 49.3145 90.1179 49.2556 89.2415 49.1612Z" fill="white"/>
<path d="M34.876 4.34276C34.975 3.53877 35.0363 2.8836 34.2583 2.54512C33.4674 2.20055 32.8327 2.56183 31.9427 3.85598C31.6326 3.82 31.2918 3.78415 30.952 3.74113C30.6122 3.69811 30.279 3.64996 29.8658 3.59244C29.8226 2.44065 30.3398 1.65738 31.1951 1.12966C32.756 0.166781 34.4285 0.149026 36.0948 0.832181C37.1888 1.28122 37.5975 2.2404 37.656 3.34768C37.7033 4.23432 37.6174 5.13021 37.6938 6.01315C37.7902 7.12998 37.9916 8.23767 38.1886 9.6427C37.1145 11.142 36.7608 11.2083 35.4872 9.97334C34.5953 10.3173 33.7796 10.7846 32.9089 10.9344C31.2436 11.2208 30.1795 10.5678 29.666 9.17943C29.1431 7.76504 29.6648 6.09849 31.0002 5.34551C31.6549 4.97647 32.439 4.82044 33.18 4.62422C33.6989 4.48768 34.2427 4.44452 34.876 4.34276ZM35.0838 6.12476C33.4346 5.96924 32.658 6.34645 32.3572 7.28768C32.1423 7.96137 32.3067 8.56041 32.9116 8.89605C33.5519 9.25096 34.2137 9.00502 34.4924 8.38878C34.8045 7.69833 34.8908 6.90666 35.0838 6.12476Z" fill="white"/>
<path d="M62.4661 9.60772C61.211 11.0643 61.2054 11.0654 59.7363 9.89351C58.8736 10.2323 58.0871 10.6856 57.2455 10.8404C55.6546 11.1331 54.5424 10.4941 54.0313 9.20537C53.4696 7.79012 53.9229 6.07431 55.2029 5.31798C55.8816 4.91667 56.7025 4.73697 57.4766 4.51967C57.9909 4.37498 58.5363 4.3405 59.1112 4.24971C59.2387 3.49771 59.4089 2.80224 58.5329 2.44117C57.7442 2.11652 57.0849 2.49017 56.2747 3.75282L54.1016 3.4999C54.1808 3.08629 54.1974 2.7843 54.2982 2.51006C54.9146 0.836477 56.9826 -0.0406601 59.3295 0.358665C61.1109 0.661774 61.9653 1.74119 61.988 3.72268C61.996 4.41894 61.9544 5.11948 62.0157 5.81092C62.1179 6.96348 62.2846 8.11015 62.4661 9.60772ZM59.1683 5.77436C58.4622 5.96481 57.8728 6.02399 57.3852 6.2784C56.6363 6.66929 56.4305 7.42263 56.7271 8.16008C56.8617 8.49667 57.373 8.87561 57.7302 8.89301C58.5208 8.93209 58.99 8.32885 59.1546 7.62114C59.2698 7.119 59.1717 6.5677 59.1683 5.77334L59.1683 5.77436Z" fill="white"/>
<path d="M81.8855 0.531456L84.0652 0.522293C84.1752 0.846732 84.2815 1.1625 84.406 1.53132C84.5402 1.40765 84.6648 1.31823 84.7576 1.20341C85.5404 0.237162 86.5492 0.0423805 87.6864 0.381403C88.7974 0.712361 89.363 1.60039 89.4033 2.64236C89.5033 5.22582 89.4542 7.81502 89.4656 10.5225L86.9176 10.5332C86.9104 8.83055 86.9174 7.17946 86.8894 5.52697C86.8791 4.91399 86.7951 4.30133 86.728 3.68859C86.6688 3.1269 86.4166 2.7249 85.788 2.72192C85.0892 2.71618 84.7058 3.14384 84.5947 3.76601C84.4946 4.33297 84.4899 4.92097 84.4852 5.49979C84.4745 6.73762 84.4956 7.97584 84.4936 9.21363C84.4905 10.6553 84.4558 10.6861 82.9701 10.6698C82.6627 10.6665 82.3578 10.6346 81.9273 10.6083L81.8855 0.531456Z" fill="white"/>
<path d="M80.6495 5.9253C80.3535 6.80266 80.1604 8.029 79.5647 9.01387C77.9367 11.7042 74.1964 11.5309 72.7467 8.73603C71.7091 6.73428 71.7136 4.63109 72.645 2.58173C73.3663 0.995057 74.8125 0.171616 76.4773 0.266787C77.2966 0.319579 78.0804 0.620234 78.7239 1.12866C79.3675 1.63708 79.8403 2.3291 80.0793 3.11241C80.3219 3.91904 80.4203 4.76868 80.6495 5.9253ZM77.7284 5.66019C77.6127 4.82748 77.5226 4.10603 77.4089 3.38825C77.3063 2.73633 76.9251 2.22554 76.2552 2.38059C75.8176 2.48205 75.2487 2.89977 75.1218 3.29774C74.6277 4.81443 74.6586 6.4526 75.2095 7.94968C75.3442 8.31999 75.9121 8.7595 76.2784 8.75694C76.6446 8.75437 77.2017 8.30657 77.3323 7.93514C77.5914 7.19077 77.6177 6.36563 77.7269 5.6602L77.7284 5.66019Z" fill="white"/>
<path d="M70.9117 10.4623C68.6648 9.46795 66.3742 9.41628 63.98 10.5691C63.7105 9.3202 63.617 8.28612 64.3443 7.27975C65.4021 5.8158 66.4142 4.31884 67.595 2.62092L64.1874 2.63525L64.1784 0.493801L66.5789 0.48371C67.7428 0.478817 68.9073 0.497415 70.0705 0.462896C70.7784 0.44204 71.1316 0.756781 71.0038 1.42653C70.8985 1.97563 70.7247 2.55157 70.4255 3.01515C69.5277 4.40639 68.5538 5.74892 67.5925 7.13532C71.5008 8.28108 71.7827 8.55626 70.9117 10.4623Z" fill="white"/>
<path d="M68.016 16.9812C69.8465 17.0072 70.9288 18.0887 70.8968 19.8579C70.8664 21.5081 69.6031 22.6071 67.7966 22.5555C66.0741 22.5055 64.8629 21.351 64.8603 19.7556C64.8567 18.0463 66.0995 16.954 68.016 16.9812Z" fill="white"/>
<path d="M35.7277 17.1231C37.5263 17.1298 38.7889 18.3005 38.7501 19.9267C38.7114 21.5529 37.4074 22.7114 35.6476 22.6942C33.8505 22.6768 32.6716 21.5466 32.6865 19.85C32.7014 18.1534 33.8553 17.1156 35.7277 17.1231Z" fill="white"/>
</g>
<defs>
<clipPath id="clip0_4862_19810">
<rect width="118.388" height="65.1135" fill="white" transform="translate(0.311523 0.497559) rotate(-0.240863)"/>
</clipPath>
</defs>
</svg>
