<svg width="216" height="30" viewBox="0 0 216 30" fill="none" xmlns="http://www.w3.org/2000/svg">
<path d="M0.449626 14.0756C0.449626 12.4281 0.781014 10.989 1.44379 9.7581C2.1255 8.52723 3.06285 7.58041 4.25585 6.91763C5.46778 6.25486 6.85013 5.92347 8.40292 5.92347C10.3912 5.92347 12.0482 6.44422 13.3737 7.48573C14.7182 8.52723 15.5988 9.9948 16.0154 11.8884H10.8457C10.4102 10.6765 9.56751 10.0705 8.31771 10.0705C7.4277 10.0705 6.71758 10.4209 6.18736 11.1215C5.65714 11.8032 5.39203 12.7879 5.39203 14.0756C5.39203 15.3633 5.65714 16.3574 6.18736 17.0581C6.71758 17.7398 7.4277 18.0807 8.31771 18.0807C9.56751 18.0807 10.4102 17.4747 10.8457 16.2628H16.0154C15.5988 18.1185 14.7182 19.5766 13.3737 20.6371C12.0292 21.6975 10.3723 22.2277 8.40292 22.2277C6.85013 22.2277 5.46778 21.8963 4.25585 21.2336C3.06285 20.5708 2.1255 19.624 1.44379 18.3931C0.781014 17.1622 0.449626 15.7231 0.449626 14.0756ZM25.8283 22.2277C24.2755 22.2277 22.8742 21.8963 21.6244 21.2336C20.3935 20.5708 19.4183 19.624 18.6987 18.3931C17.9981 17.1622 17.6477 15.7231 17.6477 14.0756C17.6477 12.4471 18.0075 11.0174 18.7271 9.7865C19.4467 8.5367 20.4314 7.58041 21.6812 6.91763C22.931 6.25486 24.3323 5.92347 25.8851 5.92347C27.4379 5.92347 28.8392 6.25486 30.089 6.91763C31.3388 7.58041 32.3235 8.5367 33.043 9.7865C33.7626 11.0174 34.1224 12.4471 34.1224 14.0756C34.1224 15.7041 33.7532 17.1433 33.0146 18.3931C32.2951 19.624 31.3009 20.5708 30.0322 21.2336C28.7823 21.8963 27.3811 22.2277 25.8283 22.2277ZM25.8283 18.0238C26.7562 18.0238 27.542 17.683 28.1859 17.0013C28.8486 16.3196 29.18 15.3443 29.18 14.0756C29.18 12.8069 28.8581 11.8316 28.2143 11.1499C27.5894 10.4682 26.813 10.1274 25.8851 10.1274C24.9383 10.1274 24.1524 10.4682 23.5275 11.1499C22.9026 11.8127 22.5901 12.7879 22.5901 14.0756C22.5901 15.3443 22.8931 16.3196 23.4991 17.0013C24.124 17.683 24.9004 18.0238 25.8283 18.0238ZM35.7335 14.0756C35.7335 12.4281 36.0649 10.989 36.7277 9.7581C37.4094 8.52723 38.3467 7.58041 39.5397 6.91763C40.7516 6.25486 42.134 5.92347 43.6868 5.92347C45.6751 5.92347 47.332 6.44422 48.6576 7.48573C50.0021 8.52723 50.8826 9.9948 51.2992 11.8884H46.1296C45.694 10.6765 44.8514 10.0705 43.6016 10.0705C42.7116 10.0705 42.0014 10.4209 41.4712 11.1215C40.941 11.8032 40.6759 12.7879 40.6759 14.0756C40.6759 15.3633 40.941 16.3574 41.4712 17.0581C42.0014 17.7398 42.7116 18.0807 43.6016 18.0807C44.8514 18.0807 45.694 17.4747 46.1296 16.2628H51.2992C50.8826 18.1185 50.0021 19.5766 48.6576 20.6371C47.3131 21.6975 45.6562 22.2277 43.6868 22.2277C42.134 22.2277 40.7516 21.8963 39.5397 21.2336C38.3467 20.5708 37.4094 19.624 36.7277 18.3931C36.0649 17.1622 35.7335 15.7231 35.7335 14.0756ZM61.1121 22.2277C59.5593 22.2277 58.1581 21.8963 56.9082 21.2336C55.6774 20.5708 54.7022 19.624 53.9826 18.3931C53.2819 17.1622 52.9316 15.7231 52.9316 14.0756C52.9316 12.4471 53.2914 11.0174 54.011 9.7865C54.7306 8.5367 55.7153 7.58041 56.9651 6.91763C58.2149 6.25486 59.6162 5.92347 61.1689 5.92347C62.7217 5.92347 64.123 6.25486 65.3728 6.91763C66.6226 7.58041 67.6073 8.5367 68.3269 9.7865C69.0465 11.0174 69.4063 12.4471 69.4063 14.0756C69.4063 15.7041 69.037 17.1433 68.2985 18.3931C67.5789 19.624 66.5848 20.5708 65.316 21.2336C64.0662 21.8963 62.6649 22.2277 61.1121 22.2277ZM61.1121 18.0238C62.04 18.0238 62.8259 17.683 63.4697 17.0013C64.1325 16.3196 64.4639 15.3443 64.4639 14.0756C64.4639 12.8069 64.142 11.8316 63.4981 11.1499C62.8732 10.4682 62.0968 10.1274 61.1689 10.1274C60.2221 10.1274 59.4363 10.4682 58.8114 11.1499C58.1865 11.8127 57.874 12.7879 57.874 14.0756C57.874 15.3443 58.177 16.3196 58.783 17.0013C59.4079 17.683 60.1842 18.0238 61.1121 18.0238ZM92.2072 5.98028C94.1766 5.98028 95.7388 6.57678 96.894 7.76977C98.068 8.96277 98.6551 10.6197 98.6551 12.7406V22.0005H93.8263V13.3939C93.8263 12.3713 93.5517 11.5855 93.0025 11.0363C92.4723 10.4682 91.7338 10.1842 90.787 10.1842C89.8402 10.1842 89.0922 10.4682 88.543 11.0363C88.0128 11.5855 87.7477 12.3713 87.7477 13.3939V22.0005H82.9189V13.3939C82.9189 12.3713 82.6443 11.5855 82.0952 11.0363C81.5649 10.4682 80.8264 10.1842 79.8796 10.1842C78.9328 10.1842 78.1848 10.4682 77.6356 11.0363C77.1054 11.5855 76.8403 12.3713 76.8403 13.3939V22.0005H71.9831V6.15071H76.8403V8.13903C77.3327 7.47626 77.9765 6.95551 78.7718 6.57678C79.5672 6.17911 80.4666 5.98028 81.4703 5.98028C82.6633 5.98028 83.7237 6.23592 84.6516 6.74721C85.5984 7.25849 86.3369 7.98754 86.8671 8.93436C87.4163 8.06329 88.1643 7.35317 89.1111 6.80402C90.0579 6.25486 91.09 5.98028 92.2072 5.98028ZM101.086 14.0472C101.086 12.4187 101.389 10.989 101.995 9.7581C102.62 8.52723 103.463 7.58041 104.523 6.91763C105.584 6.25486 106.767 5.92347 108.074 5.92347C109.191 5.92347 110.166 6.15071 111 6.60518C111.852 7.05966 112.505 7.65615 112.959 8.39467V6.15071H117.817V22.0005H112.959V19.7565C112.486 20.495 111.823 21.0915 110.971 21.546C110.138 22.0005 109.163 22.2277 108.045 22.2277C106.758 22.2277 105.584 21.8963 104.523 21.2336C103.463 20.5519 102.62 19.5956 101.995 18.3647C101.389 17.1149 101.086 15.6757 101.086 14.0472ZM112.959 14.0756C112.959 12.8637 112.619 11.9074 111.937 11.2067C111.274 10.5061 110.46 10.1558 109.494 10.1558C108.528 10.1558 107.705 10.5061 107.023 11.2067C106.36 11.8884 106.029 12.8353 106.029 14.0472C106.029 15.2591 106.36 16.2249 107.023 16.9445C107.705 17.6451 108.528 17.9954 109.494 17.9954C110.46 17.9954 111.274 17.6451 111.937 16.9445C112.619 16.2438 112.959 15.2875 112.959 14.0756ZM128.193 14.104C128.193 12.5323 128.515 11.1405 129.159 9.92852C129.822 8.71659 130.712 7.77924 131.829 7.11647C132.965 6.43476 134.224 6.0939 135.607 6.0939C136.629 6.0939 137.633 6.32114 138.618 6.77561C139.621 7.21115 140.417 7.79818 141.004 8.5367V0.981068H144.27V22.0005H141.004V19.6429C140.473 20.4004 139.735 21.0253 138.788 21.5176C137.86 22.01 136.79 22.2561 135.578 22.2561C134.215 22.2561 132.965 21.9153 131.829 21.2336C130.712 20.5329 129.822 19.5672 129.159 18.3363C128.515 17.0865 128.193 15.6757 128.193 14.104ZM141.004 14.1608C141.004 13.0814 140.776 12.1441 140.322 11.3488C139.886 10.5534 139.309 9.94746 138.589 9.53086C137.87 9.11426 137.093 8.90596 136.26 8.90596C135.427 8.90596 134.651 9.11426 133.931 9.53086C133.211 9.92852 132.624 10.525 132.17 11.3204C131.734 12.0967 131.517 13.0246 131.517 14.104C131.517 15.1834 131.734 16.1302 132.17 16.9445C132.624 17.7587 133.211 18.3836 133.931 18.8192C134.669 19.2358 135.446 19.4441 136.26 19.4441C137.093 19.4441 137.87 19.2358 138.589 18.8192C139.309 18.4026 139.886 17.7966 140.322 17.0013C140.776 16.187 141.004 15.2402 141.004 14.1608ZM150.171 4.276C149.584 4.276 149.091 4.07717 148.694 3.67951C148.296 3.28184 148.097 2.7895 148.097 2.20247C148.097 1.61544 148.296 1.12309 148.694 0.725427C149.091 0.327761 149.584 0.128929 150.171 0.128929C150.739 0.128929 151.222 0.327761 151.619 0.725427C152.017 1.12309 152.216 1.61544 152.216 2.20247C152.216 2.7895 152.017 3.28184 151.619 3.67951C151.222 4.07717 150.739 4.276 150.171 4.276ZM151.761 6.34954V22.0005H148.523V6.34954H151.761ZM162.319 6.0939C163.531 6.0939 164.601 6.34007 165.528 6.83242C166.475 7.30583 167.214 7.90233 167.744 8.62191V6.34954H171.01V22.2561C171.01 23.6953 170.708 24.9735 170.102 26.0908C169.496 27.2269 168.615 28.117 167.46 28.7608C166.324 29.4046 164.96 29.7265 163.37 29.7265C161.249 29.7265 159.488 29.2247 158.086 28.2211C156.685 27.2364 155.89 25.8919 155.7 24.1876H158.91C159.156 25.0019 159.677 25.6552 160.472 26.1476C161.287 26.6588 162.252 26.9145 163.37 26.9145C164.676 26.9145 165.727 26.5168 166.523 25.7215C167.337 24.9262 167.744 23.771 167.744 22.2561V19.6429C167.195 20.3814 166.447 21.0063 165.5 21.5176C164.572 22.01 163.512 22.2561 162.319 22.2561C160.955 22.2561 159.705 21.9153 158.569 21.2336C157.452 20.5329 156.562 19.5672 155.899 18.3363C155.255 17.0865 154.933 15.6757 154.933 14.104C154.933 12.5323 155.255 11.1405 155.899 9.92852C156.562 8.71659 157.452 7.77924 158.569 7.11647C159.705 6.43476 160.955 6.0939 162.319 6.0939ZM167.744 14.1608C167.744 13.0814 167.517 12.1441 167.062 11.3488C166.627 10.5534 166.049 9.94746 165.33 9.53086C164.61 9.11426 163.834 8.90596 163 8.90596C162.167 8.90596 161.391 9.11426 160.671 9.53086C159.952 9.92852 159.365 10.525 158.91 11.3204C158.475 12.0967 158.257 13.0246 158.257 14.104C158.257 15.1834 158.475 16.1302 158.91 16.9445C159.365 17.7587 159.952 18.3836 160.671 18.8192C161.41 19.2358 162.186 19.4441 163 19.4441C163.834 19.4441 164.61 19.2358 165.33 18.8192C166.049 18.4026 166.627 17.7966 167.062 17.0013C167.517 16.187 167.744 15.2402 167.744 14.1608ZM176.911 4.276C176.324 4.276 175.832 4.07717 175.434 3.67951C175.036 3.28184 174.838 2.7895 174.838 2.20247C174.838 1.61544 175.036 1.12309 175.434 0.725427C175.832 0.327761 176.324 0.128929 176.911 0.128929C177.479 0.128929 177.962 0.327761 178.36 0.725427C178.757 1.12309 178.956 1.61544 178.956 2.20247C178.956 2.7895 178.757 3.28184 178.36 3.67951C177.962 4.07717 177.479 4.276 176.911 4.276ZM178.502 6.34954V22.0005H175.264V6.34954H178.502ZM186.531 8.99117V17.6546C186.531 18.2416 186.664 18.6677 186.929 18.9328C187.213 19.179 187.686 19.302 188.349 19.302H190.337V22.0005H187.781C186.323 22.0005 185.205 21.6596 184.429 20.9779C183.653 20.2962 183.264 19.1884 183.264 17.6546V8.99117H181.418V6.34954H183.264V2.45811H186.531V6.34954H190.337V8.99117H186.531ZM192.242 14.104C192.242 12.5323 192.564 11.1405 193.208 9.92852C193.871 8.71659 194.761 7.77924 195.878 7.11647C197.014 6.43476 198.264 6.0939 199.627 6.0939C200.858 6.0939 201.928 6.34007 202.837 6.83242C203.765 7.30583 204.504 7.90233 205.053 8.62191V6.34954H208.319V22.0005H205.053V19.6713C204.504 20.4098 203.756 21.0253 202.809 21.5176C201.862 22.01 200.783 22.2561 199.571 22.2561C198.226 22.2561 196.995 21.9153 195.878 21.2336C194.761 20.5329 193.871 19.5672 193.208 18.3363C192.564 17.0865 192.242 15.6757 192.242 14.104ZM205.053 14.1608C205.053 13.0814 204.826 12.1441 204.371 11.3488C203.936 10.5534 203.358 9.94746 202.638 9.53086C201.919 9.11426 201.142 8.90596 200.309 8.90596C199.476 8.90596 198.7 9.11426 197.98 9.53086C197.26 9.92852 196.673 10.525 196.219 11.3204C195.783 12.0967 195.566 13.0246 195.566 14.104C195.566 15.1834 195.783 16.1302 196.219 16.9445C196.673 17.7587 197.26 18.3836 197.98 18.8192C198.719 19.2358 199.495 19.4441 200.309 19.4441C201.142 19.4441 201.919 19.2358 202.638 18.8192C203.358 18.4026 203.936 17.7966 204.371 17.0013C204.826 16.187 205.053 15.2402 205.053 14.1608ZM215.811 0.981068V22.0005H212.572V0.981068H215.811Z" fill="#F5C518"/>
</svg>
