<svg width="52" height="37" viewBox="0 0 52 37" fill="none" xmlns="http://www.w3.org/2000/svg">
<path d="M26.5772 15.8365L26.785 18.8924C45.7932 29.2502 47.1077 14.3934 47.5016 9.32657C47.8935 4.25361 51.9996 0.0631709 51.9996 0.0631709C31.3735 -1.16187 26.5762 15.8365 26.5762 15.8365H26.5772ZM45.5463 5.19785C45.0073 6.67489 44.6309 8.24245 44.6864 9.82029C44.8325 13.7803 43.8944 21.8753 34.7164 20.246C31.3066 19.3974 27.8352 16.4042 27.8352 16.4042C27.8352 16.4042 34.739 3.00183 46.6469 3.01314C46.6469 3.01314 46.113 3.65909 45.5463 5.19785Z" fill="#F5C518"/>
<path d="M43.13 24.8354C41.5295 17.2805 29.1598 16.2303 26.6377 16.724C26.6377 16.724 27.6879 19.2965 27.8339 20.2068C28.2886 22.9932 27.7444 29.3797 28.5303 31.48C29.3171 33.5752 31.1984 36.6363 36.007 35.9348C40.8095 35.2385 44.4383 31.0419 43.13 24.8354ZM38.884 31.8174C36.4185 33.9517 33.3338 33.5927 31.1994 31.1262C29.0651 28.6658 29.2338 19.8529 29.2338 19.8529C29.2338 19.8529 37.3391 21.0327 39.4744 23.4982C41.6087 25.9586 41.3454 29.6831 38.885 31.8174H38.884Z" fill="#F5C518"/>
<path d="M28.3255 5.10357C28.8083 5.10357 29.1998 4.71213 29.1998 4.22927C29.1998 3.74642 28.8083 3.35498 28.3255 3.35498C27.8426 3.35498 27.4512 3.74642 27.4512 4.22927C27.4512 4.71213 27.8426 5.10357 28.3255 5.10357Z" fill="#F5C518" stroke="white" stroke-width="0.102858" stroke-miterlimit="10"/>
<path d="M25.9336 11.2398C25.9336 11.2398 29.9595 8.15307 31.3974 5.91694C32.0711 4.86984 31.7636 3.48537 30.6527 2.92377C28.8383 2.00627 27.8344 3.88549 27.8344 3.88549" fill="#F5C518"/>
<path d="M25.9336 11.2398C25.9336 11.2398 29.9595 8.15307 31.3974 5.91694C32.0711 4.86984 31.7636 3.48537 30.6527 2.92377C28.8383 2.00627 27.8344 3.88549 27.8344 3.88549" stroke="#F5C518" stroke-width="0.102858" stroke-miterlimit="10"/>
<path d="M24.1184 5.10357C24.6013 5.10357 24.9927 4.71213 24.9927 4.22927C24.9927 3.74642 24.6013 3.35498 24.1184 3.35498C23.6356 3.35498 23.2441 3.74642 23.2441 4.22927C23.2441 4.71213 23.6356 5.10357 24.1184 5.10357Z" fill="#F5C518" stroke="white" stroke-width="0.102858" stroke-miterlimit="10"/>
<path d="M26.5107 11.2398C26.5107 11.2398 22.4848 8.15307 21.0469 5.91694C20.3731 4.86984 20.6807 3.48537 21.7916 2.92377C23.606 2.00627 24.6099 3.88549 24.6099 3.88549" fill="#F5C518"/>
<path d="M26.5107 11.2398C26.5107 11.2398 22.4848 8.15307 21.0469 5.91694C20.3731 4.86984 20.6807 3.48537 21.7916 2.92377C23.606 2.00627 24.6099 3.88549 24.6099 3.88549" stroke="#F5C518" stroke-width="0.102858" stroke-miterlimit="10"/>
<path d="M26.001 30.6243C23.6415 18.3677 25.2708 13.1158 25.2708 13.1158L26.2819 12.4194L26.3323 12.8412L26.7252 13.1168C26.7252 13.1168 28.3596 18.3687 26.001 30.6253V30.6243Z" fill="#F5C518"/>
<path d="M0 0.0630746C0 0.0630746 4.1061 4.25351 4.49901 9.32545C4.89193 14.3922 6.20646 29.2501 25.2157 18.8913L25.4234 15.8353C25.4234 15.8353 20.6261 -1.16094 0 0.0630746ZM5.35274 3.01202C17.2616 3.0007 24.1645 16.4031 24.1645 16.4031C24.1645 16.4031 20.693 19.3973 17.2832 20.2449C8.10522 21.8741 7.16715 13.7792 7.31321 9.81917C7.36978 8.24029 6.99332 6.67377 6.45332 5.19672C5.88554 3.65797 5.35274 3.01202 5.35274 3.01202Z" fill="#F5C518"/>
<path d="M15.9921 35.9346C20.8007 36.6371 22.682 33.5751 23.4689 31.4798C24.2557 29.3795 23.7106 22.992 24.1652 20.2066C24.3113 19.2963 25.3615 16.7238 25.3615 16.7238C22.8394 16.2291 10.4707 17.2803 8.86919 24.8352C7.56084 31.0427 11.1886 35.2383 15.9921 35.9346ZM12.5258 23.4981C14.6601 21.0326 22.7663 19.8528 22.7663 19.8528C22.7663 19.8528 22.935 28.6656 20.8007 31.126C18.6664 33.5915 15.5827 33.9515 13.1162 31.8172C10.6558 29.6829 10.3915 25.9584 12.5268 23.4981H12.5258Z" fill="#F5C518"/>
<path d="M26.0653 13.301C26.789 13.301 27.3757 12.7143 27.3757 11.9906C27.3757 11.2669 26.789 10.6802 26.0653 10.6802C25.3416 10.6802 24.7549 11.2669 24.7549 11.9906C24.7549 12.7143 25.3416 13.301 26.0653 13.301Z" fill="#F5C518"/>
</svg>
