<svg width="29" height="22" viewBox="0 0 29 22" fill="none" xmlns="http://www.w3.org/2000/svg">
<path d="M28.9032 10.6048C26.1356 6.91462 22.8652 3.52432 19.6779 0.203195C19.2627 -0.230396 18.3402 0.0694199 18.4048 0.729032C18.5792 2.39758 18.6593 4.07466 18.6446 5.75224C18.9352 5.52621 19.2304 5.29096 19.521 5.08339C16.7534 4.42378 13.7229 4.8297 10.9046 4.89889C7.55576 4.97884 4.20696 5.08032 0.85816 5.20333C0.734798 5.20457 0.615145 5.24567 0.517052 5.32049C0.418959 5.3953 0.347685 5.49982 0.313864 5.61846C-0.0726509 7.42498 -0.102423 9.28961 0.226223 11.1075C0.327702 11.7349 1.28252 11.5688 1.30098 10.9599C1.3471 9.23942 1.43936 7.4866 1.42091 5.76607L0.85816 6.32882C3.95787 6.32882 7.05759 6.28731 10.1619 6.23196C13.0587 6.18583 16.3198 5.72455 19.152 6.42106C19.255 6.44751 19.3627 6.45032 19.467 6.42929C19.5713 6.40825 19.6694 6.36392 19.7542 6.2996C19.8389 6.23527 19.908 6.15263 19.9563 6.05784C20.0046 5.96306 20.0308 5.85859 20.033 5.75224C20.0792 4.07657 20.033 2.39962 19.8946 0.729032L18.6262 1.25488C21.6567 4.65903 24.738 8.17389 28.1698 11.1721C28.5388 11.495 29.2399 11.0568 28.9032 10.6048Z" fill="#404040"/>
<path d="M28.1697 10.7481C24.7379 13.7556 21.6566 17.2612 18.6261 20.6654L19.9038 21.1912C20.0422 19.5206 20.0884 17.8437 20.0422 16.168C20.0399 16.0617 20.0137 15.9572 19.9654 15.8624C19.9171 15.7676 19.848 15.685 19.7633 15.6206C19.6786 15.5563 19.5804 15.512 19.4761 15.491C19.3719 15.4699 19.2642 15.4727 19.1611 15.4992C16.3243 16.1957 13.0632 15.7344 10.171 15.6883C7.06825 15.636 3.967 15.6037 0.86729 15.5914L1.43003 16.1542C1.43003 14.4336 1.35623 12.6808 1.31011 10.9603C1.31011 10.3745 0.341444 10.1808 0.235353 10.8173C-0.093174 12.6353 -0.0634022 14.4999 0.322994 16.3064C0.357645 16.4242 0.429276 16.5277 0.527294 16.6016C0.625313 16.6755 0.74452 16.716 0.86729 16.7169C4.21609 16.8368 7.56489 16.9399 10.9137 17.026C13.7366 17.0952 16.7579 17.4872 19.5301 16.8369C19.2396 16.6154 18.9443 16.3756 18.6537 16.168C18.6684 17.8456 18.5883 19.5227 18.4139 21.1912C18.3493 21.8462 19.2672 22.1553 19.687 21.717C22.8743 18.3959 26.1447 15.0102 28.9123 11.3155C29.2444 10.8542 28.5525 10.4206 28.1789 10.7481H28.1697Z" fill="#404040"/>
<path d="M15.7021 14.1521C12.6116 13.903 9.45191 13.4233 6.34758 13.5155C6.25695 13.5469 6.17834 13.6057 6.12271 13.6839C6.06708 13.762 6.03718 13.8555 6.03718 13.9514C6.03718 14.0473 6.06708 14.1409 6.12271 14.219C6.17834 14.2971 6.25695 14.356 6.34758 14.3873C9.42423 14.7794 12.607 14.6134 15.7021 14.6641C16.0388 14.6641 16.0296 14.1798 15.7021 14.1521Z" fill="#404040"/>
<path d="M4.37717 14.8302C4.53895 14.817 4.69613 14.7699 4.83844 14.6918C4.94364 14.6211 5.01791 14.5129 5.04611 14.3893C5.07431 14.2657 5.05433 14.136 4.99023 14.0266C4.92613 13.9172 4.82273 13.8364 4.70111 13.8006C4.57949 13.7647 4.4488 13.7767 4.33566 13.8339C4.19061 13.9053 4.06544 14.0115 3.97125 14.1429C3.93202 14.2127 3.91162 14.2915 3.91208 14.3716C3.91253 14.4516 3.93381 14.5302 3.97384 14.5996C4.01386 14.6689 4.07124 14.7266 4.14034 14.7671C4.20945 14.8075 4.28788 14.8293 4.36794 14.8302H4.37717Z" fill="#404040"/>
<path d="M21.5874 6.48558C22.0487 6.97452 22.4823 7.49576 22.9712 7.97086C23.3727 8.46216 23.8546 8.88173 24.3965 9.21167C24.4655 9.24879 24.5447 9.26269 24.6222 9.2513C24.6997 9.23991 24.7715 9.20384 24.8269 9.14844C24.8823 9.09304 24.9183 9.02126 24.9297 8.94375C24.9411 8.86623 24.9272 8.78711 24.8901 8.71811C24.5134 8.20802 24.0534 7.76514 23.5294 7.40812C23.0035 6.96991 22.45 6.58705 21.9149 6.16269C21.6889 5.9828 21.3799 6.26879 21.5874 6.4902V6.48558Z" fill="#404040"/>
<path d="M25.3332 10.287C25.3332 10.4179 25.3852 10.5434 25.4778 10.636C25.5703 10.7286 25.6959 10.7806 25.8268 10.7806C25.9577 10.7806 26.0832 10.7286 26.1758 10.636C26.2683 10.5434 26.3203 10.4179 26.3203 10.287C26.3203 10.1561 26.2683 10.0306 26.1758 9.93801C26.0832 9.84545 25.9577 9.79346 25.8268 9.79346C25.6959 9.79346 25.5703 9.84545 25.4778 9.93801C25.3852 10.0306 25.3332 10.1561 25.3332 10.287Z" fill="#404040"/>
</svg>
