<svg width="53" height="53" viewBox="0 0 53 53" fill="none" xmlns="http://www.w3.org/2000/svg">
<path d="M40.0806 20.1941L39.4181 40.2463C39.3616 41.9636 38.6382 43.5914 37.4013 44.7841C36.1644 45.9768 34.5113 46.6405 32.7931 46.6345H20.2056C18.4884 46.6406 16.8364 45.9778 15.5996 44.7865C14.3629 43.5952 13.6387 41.9691 13.5806 40.2529L12.9181 20.1941C12.9036 19.7548 13.0642 19.3278 13.3645 19.0069C13.6649 18.6861 14.0804 18.4977 14.5197 18.4832C14.9589 18.4687 15.386 18.6293 15.7068 18.9296C16.0277 19.23 16.2161 19.6455 16.2306 20.0848L16.8931 40.142C16.9261 40.9982 17.2896 41.8083 17.9072 42.4022C18.5249 42.9961 19.3487 43.3276 20.2056 43.3269H32.7931C33.6511 43.3275 34.4758 42.9951 35.0936 42.3998C35.7115 41.8045 36.0743 40.9927 36.1056 40.1353L36.7681 20.0848C36.7826 19.6455 36.971 19.23 37.2918 18.9296C37.6127 18.6293 38.0397 18.4687 38.479 18.4832C38.9182 18.4977 39.3338 18.6861 39.6341 19.0069C39.9345 19.3278 40.0951 19.7548 40.0806 20.1941ZM42.2718 13.521C42.2718 13.9603 42.0973 14.3816 41.7867 14.6922C41.4761 15.0028 41.0548 15.1773 40.6155 15.1773H12.3848C11.9455 15.1773 11.5242 15.0028 11.2136 14.6922C10.903 14.3816 10.7285 13.9603 10.7285 13.521C10.7285 13.0818 10.903 12.6605 11.2136 12.3499C11.5242 12.0393 11.9455 11.8648 12.3848 11.8648H17.5191C18.0439 11.8662 18.5505 11.6723 18.9402 11.3209C19.3299 10.9694 19.5749 10.4856 19.6275 9.96342C19.7498 8.7386 20.3236 7.60315 21.2372 6.7783C22.1509 5.95345 23.3389 5.49828 24.5698 5.50148H28.4289C29.6598 5.49828 30.8478 5.95345 31.7614 6.7783C32.6751 7.60315 33.2489 8.7386 33.3711 9.96342C33.4237 10.4856 33.6688 10.9694 34.0585 11.3209C34.4482 11.6723 34.9547 11.8662 35.4795 11.8648H40.6139C41.0532 11.8648 41.4744 12.0393 41.785 12.3499C42.0956 12.6605 42.2701 13.0818 42.2701 13.521H42.2718ZM22.5028 11.8648H30.4992C30.2815 11.3675 30.1392 10.8405 30.0768 10.3013C30.0358 9.89304 29.8447 9.51455 29.5405 9.23916C29.2364 8.96377 28.8408 8.81107 28.4305 8.81067H24.5715C24.1611 8.81107 23.7656 8.96377 23.4614 9.23916C23.1573 9.51455 22.9662 9.89304 22.9251 10.3013C22.8623 10.8406 22.721 11.3676 22.5028 11.8648ZM24.1706 36.9586V22.8557C24.1706 22.4164 23.9961 21.9951 23.6855 21.6845C23.3749 21.3739 22.9537 21.1994 22.5144 21.1994C22.0751 21.1994 21.6539 21.3739 21.3432 21.6845C21.0326 21.9951 20.8581 22.4164 20.8581 22.8557V36.9653C20.8581 37.4045 21.0326 37.8258 21.3432 38.1364C21.6539 38.447 22.0751 38.6215 22.5144 38.6215C22.9537 38.6215 23.3749 38.447 23.6855 38.1364C23.9961 37.8258 24.1706 37.4045 24.1706 36.9653V36.9586ZM32.1438 36.9586V22.8557C32.1438 22.4164 31.9693 21.9951 31.6587 21.6845C31.3481 21.3739 30.9268 21.1994 30.4876 21.1994C30.0483 21.1994 29.627 21.3739 29.3164 21.6845C29.0058 21.9951 28.8313 22.4164 28.8313 22.8557V36.9653C28.8313 37.4045 29.0058 37.8258 29.3164 38.1364C29.627 38.447 30.0483 38.6215 30.4876 38.6215C30.9268 38.6215 31.3481 38.447 31.6587 38.1364C31.9693 37.8258 32.1438 37.4045 32.1438 36.9653V36.9586Z" fill="#080808"/>
</svg>
