<svg width="466" height="437" viewBox="0 0 466 437" fill="none" xmlns="http://www.w3.org/2000/svg">
<path d="M98.279 7.73145C103.681 14.3418 106.605 22.6302 106.549 31.1667C106.492 36.0003 105.598 41.3265 108.416 45.2553C110.546 48.2334 114.441 49.7339 116.17 52.9639C118.255 56.8469 116.48 61.7607 117.763 65.9759C119.572 71.9549 126.582 74.4634 130.74 79.1252C132.512 81.1867 133.752 83.6513 134.352 86.3031C134.951 88.9549 134.89 91.7132 134.176 94.3364C133.419 96.9486 132.049 99.3423 130.18 101.319C128.312 103.295 125.998 104.797 123.432 105.699C120.693 106.779 117.637 106.729 114.933 105.561C112.127 104.164 110.352 101.289 108.977 98.4828C106.217 92.9619 81.9682 63.1238 80.5938 57.0989" fill="#263238"/>
<path d="M80.6403 0.699074C70.721 -0.904509 61.1683 5.68164 57.0104 14.8221C52.8526 23.9625 52.7151 34.2941 52.4287 44.3738C52.1424 54.4535 51.4093 64.8997 46.2893 73.5361C43.0363 79.0226 37.9965 83.8448 37.2062 90.1561C36.496 95.8144 39.4283 101.519 38.4547 107.143C37.6071 112.045 33.873 116.306 34.0219 121.266C34.2052 127.245 40.3561 131.746 46.3237 131.907C52.2913 132.067 57.8809 128.94 62.5657 125.229C70.1984 119.169 76.3061 111.405 80.3998 102.561" fill="#263238"/>
<path d="M64.3175 24.3403C64.006 21.8451 64.1988 19.3128 64.8846 16.8936C65.5705 14.4744 66.7353 12.2176 68.3101 10.2572C69.8848 8.29678 71.8373 6.6727 74.0517 5.48135C76.2661 4.29 78.6973 3.55566 81.201 3.32189C91.2005 2.35974 100.1 9.8164 101.601 19.7586C102.918 28.4752 104.041 37.272 104.006 40.4677C103.88 50.1007 98.2791 53.8462 95.9883 54.9802C95.1643 55.2759 94.3123 55.487 93.4455 55.6101V55.6789L95.576 66.7436C96.5496 73.9941 92.5062 80.4886 85.2672 81.508C78.0282 82.5274 72.3355 76.9951 71.2244 69.7446L64.3175 24.3403Z" fill="#FFBE9D"/>
<path d="M99.6296 23.9729C99.4692 24.202 98.1978 23.5262 96.5713 23.7667C94.9448 24.0073 93.8567 24.9923 93.6505 24.8205C93.4443 24.6487 93.6505 24.3623 94.1545 23.9042C94.7808 23.294 95.5814 22.8937 96.4453 22.7588C97.2929 22.628 98.16 22.7726 98.9194 23.1711C99.4921 23.5376 99.7097 23.8813 99.6296 23.9729Z" fill="#263238"/>
<path d="M85.1296 27.5012C84.9692 27.7303 83.6978 27.043 82.0599 27.2835C80.4219 27.5241 79.3567 28.5206 79.1505 28.3488C78.9443 28.177 79.1505 27.8792 79.6545 27.4324C80.2808 26.8223 81.0814 26.422 81.9453 26.287C82.794 26.1662 83.6593 26.3144 84.4194 26.7108C84.9807 27.0659 85.2097 27.3981 85.1296 27.5012Z" fill="#263238"/>
<path d="M91.0752 36.2407C91.8945 35.8465 92.7605 35.5579 93.6524 35.3816C94.0647 35.2785 94.4427 35.1411 94.4771 34.8433C94.44 34.4248 94.2807 34.0264 94.0189 33.6978L92.3123 30.651C89.9412 26.3901 88.1658 22.8622 88.3377 22.7591C88.5095 22.656 90.6285 26.0579 92.9193 30.3189C93.5035 31.3726 94.0647 32.3806 94.5687 33.3313C94.9016 33.7971 95.0634 34.3635 95.0269 34.9349C94.9891 35.0912 94.9157 35.2366 94.8124 35.3598C94.709 35.483 94.5786 35.5806 94.4313 35.6451C94.2079 35.7428 93.9732 35.812 93.7326 35.8512C92.8676 36.0964 91.9742 36.2273 91.0752 36.2407Z" fill="#263238"/>
<path d="M93.3537 55.6212C93.3537 55.6212 87.1341 57.0529 78.5664 53.4678C78.5664 53.4678 82.2661 61.4284 93.9379 58.5992L93.3537 55.6212Z" fill="#EB996E"/>
<path d="M84.2925 23.2289C84.2009 23.6986 82.54 23.7215 80.6616 24.2369C78.7831 24.7524 77.3055 25.4854 76.9962 25.1303C76.8588 24.9585 77.0649 24.5004 77.6262 23.9849C78.3819 23.3385 79.2749 22.8727 80.2374 22.6226C81.1999 22.3726 82.2067 22.3449 83.1815 22.5417C83.9374 22.7135 84.2925 23.0113 84.2925 23.2289Z" fill="#263238"/>
<path d="M98.2903 20.3644C98.0612 20.7767 96.8814 20.5591 95.5299 20.7309C94.1783 20.9027 93.0672 21.3494 92.7465 20.9943C92.6091 20.8225 92.7465 20.4331 93.1818 20.0093C93.7824 19.4768 94.5362 19.148 95.3351 19.07C96.1241 18.975 96.9233 19.1228 97.626 19.4938C98.1758 19.8031 98.3934 20.1582 98.2903 20.3644Z" fill="#263238"/>
<path d="M81.5896 29.6086C81.6148 29.7858 81.6749 29.9563 81.7665 30.1102C81.8581 30.264 81.9794 30.3981 82.1233 30.5046C82.2671 30.6112 82.4307 30.6881 82.6046 30.7309C82.7784 30.7737 82.959 30.7816 83.1359 30.754C83.3079 30.7342 83.4742 30.6804 83.6252 30.5957C83.7763 30.511 83.9089 30.3971 84.0155 30.2607C84.1221 30.1243 84.2005 29.968 84.2461 29.801C84.2918 29.634 84.3037 29.4596 84.2813 29.2879C84.2276 28.9312 84.0346 28.6104 83.7448 28.3957C83.455 28.181 83.0919 28.0899 82.735 28.1425C82.5624 28.1608 82.3952 28.2136 82.2434 28.2978C82.0917 28.382 81.9584 28.4959 81.8515 28.6327C81.7446 28.7695 81.6664 28.9264 81.6214 29.0941C81.5764 29.2617 81.5656 29.4367 81.5896 29.6086Z" fill="#263238"/>
<path d="M96.0339 26.4816C96.0877 26.8383 96.2806 27.1591 96.5704 27.3738C96.8603 27.5885 97.2234 27.6796 97.5802 27.6271C97.7522 27.6073 97.9186 27.5534 98.0696 27.4687C98.2206 27.3841 98.3533 27.2702 98.4598 27.1338C98.5664 26.9973 98.6448 26.841 98.6904 26.674C98.7361 26.507 98.7481 26.3326 98.7257 26.1609C98.6719 25.8043 98.479 25.4834 98.1891 25.2687C97.8993 25.054 97.5362 24.963 97.1793 25.0155C97.0067 25.0338 96.8396 25.0866 96.6878 25.1709C96.536 25.2551 96.4027 25.369 96.2958 25.5058C96.189 25.6426 96.1107 25.7994 96.0657 25.9671C96.0207 26.1347 96.0099 26.3097 96.0339 26.4816Z" fill="#263238"/>
<path d="M93.6396 39.4026C93.1899 39.2626 92.7055 39.2845 92.2703 39.4645C91.8351 39.6444 91.4766 39.971 91.2571 40.3876C91.0474 40.7702 90.9623 41.2086 91.0136 41.6419C91.0649 42.0751 91.2501 42.4815 91.5434 42.8045C91.8556 43.1111 92.2666 43.2968 92.7031 43.3282C93.1395 43.3597 93.573 43.235 93.9259 42.9763C94.3677 42.574 94.6349 42.015 94.6704 41.4185C94.7482 40.8717 94.6174 40.3155 94.3039 39.8607C94.143 39.6384 93.9133 39.4752 93.6503 39.3966C93.3874 39.3179 93.1058 39.328 92.8492 39.4255" fill="#EB996E"/>
<path d="M100.329 11.912C99.4298 8.28297 97.1863 5.13066 94.052 3.09233C91.4865 1.2392 88.439 0.169002 85.2782 0.0111545C82.0976 -0.125788 78.9923 1.00266 76.6417 3.14959C74.9737 4.80289 74.0198 7.04385 73.9843 9.39212L74.1676 7.78853C73.6863 9.09334 73.6863 10.527 74.1676 11.8318C74.4311 12.5306 74.7518 13.2407 75.0267 13.9394C75.8467 15.9585 77.3678 17.6139 79.3105 18.6013C80.1904 19.0732 81.1758 19.3136 82.1741 19.3C82.6739 19.2899 83.1654 19.171 83.6145 18.9514C84.0636 18.7318 84.4593 18.4168 84.7742 18.0285C85.4854 16.7869 85.706 15.3241 85.3927 13.928C86.1443 15.3076 87.2168 16.4862 88.5197 17.3642C89.1849 17.7893 89.9762 17.9724 90.7605 17.8827C91.5449 17.793 92.2744 17.436 92.8264 16.8717C93.7657 15.7263 93.3991 13.9165 92.8264 12.4962C93.7126 13.8359 94.9539 14.9027 96.4116 15.5774C96.7952 15.7974 97.2202 15.9355 97.6599 15.9828C98.0996 16.0301 98.5443 15.9857 98.9659 15.8523C99.3029 15.6851 99.5977 15.4436 99.8278 15.146C100.058 14.8484 100.218 14.5024 100.295 14.1341C100.465 13.4044 100.476 12.6467 100.329 11.912Z" fill="#263238"/>
<path d="M92.0486 14.9592C91.9455 14.9592 91.9684 13.5961 91.5217 11.5229C91.0064 8.76802 89.6214 6.25089 87.57 4.34118C86.4426 3.3159 85.0823 2.58072 83.6069 2.19925C82.3985 1.90268 81.1402 1.87143 79.9186 2.10762C78.7927 2.37078 77.7172 2.81568 76.7344 3.42484C76.7344 3.42484 76.9291 3.13849 77.4331 2.77196C78.1564 2.26601 78.9685 1.90075 79.827 1.69527C81.1116 1.39454 82.4483 1.39454 83.7329 1.69527C85.3157 2.09041 86.7733 2.87831 87.9709 3.9861C90.1188 5.97456 91.5214 8.63827 91.9455 11.5344C92.0818 12.3906 92.1508 13.2561 92.1517 14.123C92.1658 14.4056 92.131 14.6885 92.0486 14.9592Z" fill="#455A64"/>
<path d="M197.541 148.502L153.5 131.035C153.5 131.035 130.947 101.449 131.416 100.876L115.575 118.218L138.598 149.361L191.963 161.869L201.126 159.327C199.11 149.602 197.541 148.502 197.541 148.502Z" fill="#FFBE9D"/>
<path d="M101.554 64.0975L95.5525 61.8066L69.6431 65.094V69.6756L68.8986 69.7673C63.3136 70.9547 57.9567 73.0356 53.0346 75.9296C48.424 78.7442 44.7606 82.8734 42.5153 87.7864C40.2701 92.6994 39.5456 98.1718 40.435 103.5C41.4888 110.052 43.5277 118.012 47.4679 122.617C54.9933 131.425 61.8658 120.544 61.8658 120.544C61.8658 120.544 66.5849 131.31 66.31 136.408C66.0809 140.68 64.2024 149.568 63.5953 152.34C63.5704 152.451 63.5683 152.566 63.5891 152.677C63.61 152.789 63.6534 152.895 63.7166 152.99C63.7798 153.084 63.8616 153.164 63.9569 153.226C64.0523 153.288 64.1592 153.329 64.2711 153.348L118.93 163.462L119.194 150.095L117.453 95.1153L114.99 73.7648C114.99 73.7648 115.07 63.5706 101.554 64.0975Z" fill="#F5C518"/>
<path d="M114.154 70.2139L135.001 100.327L118.221 120.761L114.154 70.2139Z" fill="#F5C518"/>
<path d="M118.656 133.579C118.581 132.932 118.555 132.282 118.576 131.631C118.576 130.28 118.576 128.504 118.507 126.34C118.406 120.529 117.989 114.729 117.259 108.964C116.4 102.206 115.083 96.1693 114.086 91.7823L112.872 86.6279C112.696 86.0045 112.566 85.369 112.482 84.7266C112.743 85.3217 112.95 85.9388 113.101 86.5707C113.456 87.7161 113.937 89.5144 114.487 91.6907C115.966 97.3421 117.091 103.08 117.854 108.872C118.591 114.661 118.95 120.492 118.931 126.328C118.931 128.619 118.874 130.383 118.805 131.631C118.811 132.283 118.761 132.935 118.656 133.579Z" fill="#263238"/>
<path d="M67.3404 87.796C67.3404 87.8876 65.7597 87.8762 63.2283 88.0022C59.9254 88.1813 56.6404 88.6063 53.4007 89.2736C50.1617 89.9533 46.9767 90.8683 43.8708 92.0111C41.4883 92.8931 40.0566 93.546 40.0107 93.4544C40.3044 93.2243 40.6281 93.0354 40.9729 92.8931C41.6029 92.5495 42.5421 92.1142 43.7219 91.6217C49.9026 89.0694 56.508 87.7017 63.194 87.5898C64.4768 87.5898 65.4848 87.5898 66.2293 87.6586C66.6046 87.6465 66.9794 87.6928 67.3404 87.796Z" fill="#FAFAFA"/>
<path d="M115.622 101.576C114.784 101.88 113.91 102.073 113.022 102.148C108.786 102.767 104.495 102.913 100.227 102.584C99.3359 102.568 98.4504 102.437 97.5928 102.194C98.4768 102.116 99.3661 102.116 100.25 102.194C101.877 102.194 104.133 102.194 106.619 102.194C109.104 102.194 111.349 101.942 112.976 101.793C113.849 101.641 114.735 101.568 115.622 101.576Z" fill="#FAFAFA"/>
<path d="M125.185 87.956C123.922 89.4148 122.41 90.6367 120.718 91.5641C119.121 92.6437 117.339 93.4202 115.46 93.8549C115.392 93.6946 117.751 92.7095 120.409 91.0143C123.066 89.3191 125.07 87.8186 125.185 87.956Z" fill="#FAFAFA"/>
<path d="M116.765 73.9936C113.152 77.2445 108.547 79.1815 103.696 79.4916C103.696 79.3084 106.846 78.8273 110.466 77.281C114.085 75.7347 116.651 73.8447 116.765 73.9936Z" fill="#FAFAFA"/>
<path d="M117.9 124.896C117.563 125.123 117.202 125.311 116.823 125.458C116.101 125.801 115.059 126.225 113.73 126.717C110.278 127.958 106.715 128.863 103.09 129.421C99.4642 129.98 95.7928 130.184 92.1279 130.028C90.719 129.97 89.5851 129.867 88.8062 129.764C88.3984 129.737 87.9949 129.664 87.6035 129.547C87.6035 129.444 89.3445 129.547 92.1852 129.615C99.4677 129.683 106.713 128.569 113.639 126.317C116.25 125.458 117.865 124.805 117.9 124.896Z" fill="#FAFAFA"/>
<path d="M118.324 140.416C118.324 140.416 118.163 140.531 117.831 140.702L116.365 141.344C115.105 141.939 113.238 142.718 110.901 143.635C108.565 144.551 105.736 145.433 102.551 146.303C95.6287 148.168 88.5232 149.27 81.3611 149.591C78.0623 149.717 75.0957 149.705 72.5987 149.591C70.1017 149.476 68.0972 149.293 66.7113 149.098L65.1191 148.881C64.9316 148.867 64.7467 148.828 64.5693 148.766C64.7553 148.737 64.9447 148.737 65.1306 148.766L66.7342 148.869C68.1201 148.984 70.1704 149.098 72.6102 149.167C75.0499 149.236 78.0623 149.167 81.3382 149.052C84.6141 148.938 88.2107 148.526 91.9562 147.907C95.7018 147.289 99.2296 146.544 102.414 145.742C105.598 144.94 108.416 144.036 110.753 143.199C113.089 142.363 114.991 141.665 116.273 141.138L117.762 140.553C117.944 140.488 118.132 140.442 118.324 140.416Z" fill="#FAFAFA"/>
<path d="M17.8592 383.92L11.6625 411.902L0.357215 432.623C0.164966 432.977 0.04734 433.366 0.0116118 433.767C-0.0241163 434.168 0.0228138 434.573 0.149497 434.955C0.276181 435.337 0.479923 435.689 0.748129 435.989C1.01634 436.29 1.3433 436.532 1.70881 436.701C2.13312 436.895 2.59792 436.986 3.06427 436.964C3.53062 436.942 3.98491 436.808 4.38908 436.575C9.63508 433.551 28.8895 422.291 29.2217 420.218C29.6226 417.824 37.7207 391.136 37.7207 391.136L17.8592 383.92Z" fill="#F5C518"/>
<g opacity="0.6">
<path d="M1.70996 436.702L29.6925 418.375L29.3947 419.52C29.1498 420.543 28.5488 421.444 27.6994 422.063C25.4086 423.701 19.0287 428.1 4.48187 436.599C4.06423 436.843 3.59254 436.981 3.10887 436.999C2.62521 437.017 2.14461 436.915 1.70996 436.702Z" fill="white"/>
</g>
<g opacity="0.6">
<path d="M26.1752 407.963C25.7711 408.131 25.4435 408.443 25.2553 408.838C25.0671 409.234 25.0317 409.685 25.1558 410.105C25.3087 410.513 25.6124 410.848 26.0044 411.039C26.3964 411.231 26.8469 411.266 27.2634 411.135C27.6961 410.956 28.0463 410.622 28.2455 410.199C28.4447 409.775 28.4784 409.292 28.3401 408.845C28.1372 408.439 27.7869 408.126 27.3609 407.971C26.935 407.815 26.4656 407.829 26.0492 408.008" fill="white"/>
</g>
<path d="M11.0551 426.095C10.593 425.065 9.94447 424.129 9.14224 423.335C8.21824 422.691 7.18046 422.228 6.08398 421.972C6.08398 421.892 6.48488 421.766 7.16068 421.834C8.04007 421.948 8.86768 422.314 9.54314 422.888C10.2238 423.44 10.7259 424.182 10.9864 425.019C11.1811 425.671 11.1238 426.095 11.0551 426.095Z" fill="#263238"/>
<path d="M8.15742 429.336C7.99707 429.428 7.32127 428.305 5.98113 427.538C5.12625 427.141 4.24621 426.8 3.34668 426.518C3.84115 426.356 4.36712 426.314 4.88102 426.396C5.39492 426.478 5.88198 426.681 6.30186 426.988C7.82526 427.87 8.31778 429.302 8.15742 429.336Z" fill="#263238"/>
<path d="M15.9112 422.223C14.9372 421.142 13.8802 420.139 12.7499 419.222C11.5045 418.463 10.2026 417.8 8.85547 417.241C10.4046 417.209 11.9146 417.729 13.1164 418.707C14.4414 419.504 15.4339 420.752 15.9112 422.223Z" fill="#263238"/>
<path d="M18.5119 413.873C18.3974 414.022 17.0114 413.003 15.0757 412.442C13.1399 411.88 11.3874 411.972 11.376 411.777C12.6509 411.447 13.9913 411.468 15.2554 411.837C16.5196 412.206 17.6606 412.909 18.5577 413.873H18.5119Z" fill="#263238"/>
<path d="M20.5396 405.705C19.4222 405.015 18.2161 404.479 16.9544 404.113C15.6546 403.936 14.3369 403.936 13.0371 404.113C13.0371 404.045 13.3922 403.77 14.1253 403.552C15.0888 403.29 16.1003 403.258 17.0788 403.456C18.0573 403.655 18.9757 404.08 19.7607 404.697C20.3449 405.247 20.5854 405.66 20.5396 405.705Z" fill="#263238"/>
<path d="M17.3788 402.567C17.3796 402.203 17.4577 401.844 17.6078 401.513C17.9324 400.568 18.4469 399.698 19.1198 398.959C19.56 398.373 20.1793 397.947 20.8837 397.745C21.1236 397.705 21.3697 397.739 21.5902 397.841C21.8107 397.943 21.9956 398.109 22.1208 398.317C22.3313 398.744 22.3762 399.234 22.2468 399.692C21.9531 400.611 21.3491 401.399 20.5384 401.921C19.7276 402.443 18.7605 402.668 17.8025 402.555C16.8579 402.421 15.9742 402.01 15.2628 401.374C14.5515 400.738 14.0442 399.905 13.805 398.982C13.7501 398.747 13.7451 398.503 13.7905 398.266C13.8359 398.03 13.9306 397.805 14.0685 397.607C14.2268 397.423 14.4397 397.293 14.6766 397.237C14.9134 397.182 15.1618 397.203 15.3857 397.298C16.0331 397.621 16.5857 398.106 16.9893 398.707C17.5964 399.501 18.0578 400.397 18.3524 401.353C18.4919 401.694 18.5582 402.061 18.5471 402.429C18.0853 401.195 17.4405 400.036 16.6342 398.993C16.2588 398.504 15.7718 398.111 15.2139 397.848C15.0912 397.795 14.9546 397.783 14.8245 397.814C14.6944 397.844 14.5778 397.917 14.4923 398.02C14.4122 398.155 14.3608 398.305 14.3411 398.46C14.3214 398.616 14.3339 398.774 14.3778 398.925C14.6167 399.702 15.0703 400.396 15.6863 400.927C16.3023 401.458 17.0557 401.804 17.8598 401.925C18.67 402.02 19.4881 401.836 20.1808 401.406C20.8735 400.975 21.3999 400.323 21.6741 399.554C21.785 399.243 21.785 398.903 21.6741 398.592C21.6091 398.475 21.509 398.381 21.3878 398.323C21.2665 398.266 21.1303 398.248 20.9983 398.272C20.4013 398.436 19.8694 398.78 19.4749 399.257C18.5962 400.235 17.8877 401.354 17.3788 402.567Z" fill="#263238"/>
<g opacity="0.3">
<path d="M17.1038 386.956L15.7637 393.371L36.0261 396.738L37.7213 391.137L17.8254 383.921L17.1038 386.956Z" fill="black"/>
</g>
<path d="M108.347 394.275L106.675 416.634C106.675 416.634 128.85 425.797 128.942 430.012L85.416 428.328L86.5614 393.37L108.347 394.275Z" fill="#F5C518"/>
<g opacity="0.6">
<path d="M93.332 414.229C92.9095 414.342 92.5433 414.606 92.3026 414.971C92.062 415.337 91.9636 415.777 92.0262 416.21C92.1226 416.636 92.3776 417.009 92.7393 417.254C93.1009 417.499 93.5422 417.597 93.9734 417.528C94.4226 417.408 94.8118 417.127 95.0657 416.738C95.3195 416.349 95.4201 415.879 95.3479 415.42C95.2032 414.985 94.8958 414.623 94.4902 414.409C94.0846 414.196 93.6121 414.148 93.1716 414.275" fill="white"/>
</g>
<g opacity="0.6">
<path d="M85.4395 428.328L85.6914 424.8L127.327 427.698C127.327 427.698 129.24 428.614 128.965 429.989L85.4395 428.328Z" fill="white"/>
</g>
<path d="M107.408 416.44C107.408 416.657 106.331 416.715 105.266 417.356C104.201 417.998 103.605 418.868 103.41 418.776C103.215 418.685 103.582 417.471 104.888 416.715C106.194 415.959 107.465 416.245 107.408 416.44Z" fill="#263238"/>
<path d="M111.898 418.535C111.898 418.752 111.005 419.073 110.249 419.943C109.493 420.814 109.253 421.753 109.035 421.742C108.817 421.73 108.737 420.516 109.699 419.451C110.661 418.386 111.898 418.305 111.898 418.535Z" fill="#263238"/>
<path d="M114.28 424.067C114.085 424.067 113.833 423.024 114.417 421.89C115.001 420.756 116.021 420.321 116.101 420.504C116.181 420.688 115.551 421.283 115.081 422.222C114.612 423.162 114.486 424.055 114.28 424.067Z" fill="#263238"/>
<path d="M107.201 411.308C107.11 411.491 106.147 411.159 104.91 411.194C103.673 411.228 102.757 411.572 102.619 411.388C102.482 411.205 103.444 410.483 104.91 410.461C106.376 410.438 107.339 411.148 107.201 411.308Z" fill="#263238"/>
<g opacity="0.3">
<path d="M108.038 398.708L107.74 402.694L86.3779 401.663L86.5268 397.059L108.038 398.708Z" fill="black"/>
</g>
<path d="M107.488 406.782C106.768 406.956 106.014 406.924 105.312 406.69C104.518 406.525 103.748 406.26 103.021 405.9C102.597 405.691 102.187 405.454 101.795 405.19C101.556 405.043 101.34 404.862 101.154 404.652C101.027 404.487 100.959 404.286 100.959 404.079C100.959 403.872 101.027 403.67 101.154 403.506C101.265 403.361 101.41 403.245 101.575 403.167C101.74 403.09 101.922 403.053 102.104 403.059C102.38 403.071 102.654 403.117 102.918 403.197C103.376 403.331 103.821 403.507 104.246 403.724C104.97 404.077 105.631 404.545 106.205 405.11C107.179 406.083 107.488 406.897 107.419 406.931C107.35 406.965 106.858 406.312 105.861 405.499C105.276 405.042 104.638 404.657 103.96 404.354C103.556 404.186 103.143 404.041 102.723 403.918C102.265 403.781 101.875 403.77 101.749 403.918C101.623 404.067 101.749 404.033 101.749 404.17C101.887 404.322 102.045 404.453 102.219 404.56C102.586 404.816 102.969 405.049 103.364 405.259C104.025 405.623 104.719 405.922 105.438 406.152C106.135 406.313 106.82 406.524 107.488 406.782Z" fill="#263238"/>
<path d="M107.201 407.081C106.82 406.439 106.648 405.695 106.708 404.951C106.713 404.145 106.844 403.345 107.097 402.58C107.262 402.131 107.465 401.698 107.705 401.285C107.833 401.002 108.032 400.756 108.283 400.572C108.534 400.387 108.827 400.27 109.136 400.231C109.332 400.244 109.52 400.312 109.678 400.428C109.836 400.543 109.958 400.702 110.03 400.884C110.129 401.141 110.191 401.411 110.213 401.686C110.288 402.172 110.288 402.666 110.213 403.152C110.06 403.962 109.71 404.721 109.194 405.363C108.3 406.508 107.407 406.68 107.384 406.611C107.361 406.543 108.071 406.119 108.77 405.054C109.171 404.446 109.433 403.758 109.537 403.038C109.595 402.62 109.595 402.196 109.537 401.778C109.48 401.32 109.32 400.93 109.148 400.976C108.976 401.022 108.552 401.297 108.357 401.663C108.134 402.03 107.939 402.413 107.773 402.809C107.508 403.5 107.339 404.225 107.269 404.962C107.12 406.245 107.315 407.081 107.201 407.081Z" fill="#263238"/>
<path d="M63.356 153.142C63.356 153.142 56.4835 153.451 51.9019 176.955C47.3202 200.459 12.3965 390.908 12.3965 390.908L37.7216 391.137L85.4397 210.069L82.2669 396.772L107.993 398.742C107.993 398.742 127.293 192.235 127.465 180.22C127.694 165.238 119.092 150.084 119.092 150.084L63.356 153.142Z" fill="#263238"/>
<path d="M98.1637 151.137C98.324 151.137 95.6896 164.595 92.2877 181.124C88.8858 197.652 85.9994 211.031 85.839 210.996C85.6787 210.962 88.3016 197.538 91.7035 181.009C95.1054 164.481 98.0377 151.102 98.1637 151.137Z" fill="#455A64"/>
<path d="M102.104 154.492C102.104 154.424 102.791 154.217 103.582 154.916C103.806 155.12 103.984 155.369 104.103 155.648C104.221 155.927 104.278 156.228 104.269 156.531C104.24 156.914 104.103 157.281 103.874 157.589C103.645 157.898 103.333 158.134 102.975 158.272C102.625 158.431 102.238 158.488 101.857 158.438C101.476 158.387 101.117 158.23 100.821 157.986C100.6 157.778 100.425 157.526 100.308 157.245C100.192 156.965 100.136 156.663 100.145 156.359C100.145 155.306 100.856 154.939 100.867 155.008C100.674 155.428 100.572 155.885 100.569 156.348C100.585 156.58 100.646 156.808 100.75 157.016C100.855 157.225 101 157.41 101.176 157.562C101.402 157.718 101.664 157.814 101.937 157.843C102.21 157.871 102.486 157.83 102.739 157.724C102.992 157.618 103.214 157.45 103.386 157.236C103.557 157.021 103.672 156.767 103.719 156.497C103.736 156.265 103.706 156.032 103.631 155.811C103.557 155.591 103.439 155.388 103.284 155.214C102.723 154.561 102.093 154.584 102.104 154.492Z" fill="#455A64"/>
<path d="M101.017 163.794C101.017 163.725 101.727 163.794 102.162 164.744C102.273 165.016 102.323 165.308 102.309 165.601C102.295 165.894 102.218 166.18 102.082 166.44C101.885 166.748 101.607 166.998 101.279 167.161C100.951 167.324 100.585 167.394 100.22 167.365C99.8551 167.335 99.505 167.207 99.2074 166.994C98.9098 166.78 98.6759 166.49 98.5309 166.153C98.4394 165.877 98.4094 165.585 98.4431 165.296C98.4767 165.007 98.5732 164.729 98.7257 164.481C99.264 163.622 99.9971 163.645 99.9742 163.714C99.9513 163.782 99.4244 163.943 99.0922 164.676C98.9242 165.087 98.9242 165.548 99.0922 165.959C99.2118 166.186 99.3869 166.379 99.6013 166.521C99.8157 166.662 100.062 166.747 100.318 166.768C100.574 166.788 100.831 166.744 101.066 166.638C101.3 166.533 101.504 166.37 101.658 166.165C101.874 165.773 101.927 165.313 101.807 164.882C101.475 164.103 100.959 163.874 101.017 163.794Z" fill="#455A64"/>
<path d="M76.7453 154.722C76.6982 155.116 76.598 155.501 76.4475 155.868C76.0897 156.916 75.6413 157.932 75.1073 158.903C73.3597 162.143 70.8356 164.899 67.7611 166.924C64.6866 168.949 61.1578 170.18 57.4908 170.506C56.3895 170.602 55.2819 170.602 54.1806 170.506C53.7925 170.494 53.4077 170.432 53.0352 170.323C53.0352 170.208 54.7647 170.403 57.5023 170.059C61.0701 169.626 64.489 168.372 67.4901 166.394C70.4911 164.417 72.9927 161.77 74.7981 158.662C76.1382 156.349 76.6422 154.688 76.7453 154.722Z" fill="#455A64"/>
<path d="M126.021 171.434C126.021 171.434 125.723 171.297 125.253 170.976C124.597 170.504 123.984 169.975 123.42 169.395C121.537 167.489 120.067 165.213 119.103 162.712C118.139 160.211 117.702 157.538 117.819 154.86C117.846 154.054 117.949 153.252 118.129 152.466C118.255 151.905 118.335 151.607 118.381 151.618C118.426 151.63 118.243 152.867 118.243 154.871C118.245 160.133 120.2 165.207 123.73 169.109C125.07 170.587 126.078 171.343 126.021 171.434Z" fill="#455A64"/>
<path d="M214.87 172.098C215.248 171.182 215.145 171.549 209.074 167.517C209.074 167.517 217.779 173.244 216.875 170.518C216.092 169.485 215.134 168.597 214.045 167.895C216.336 169.246 217.665 169.395 218.066 168.845C218.753 167.895 213.77 164.264 211.399 162.626C213.567 164.176 215.84 165.573 218.203 166.807C219.612 167.242 218.936 165.592 217.986 164.39C217.035 163.187 209.658 156.085 207.677 153.966C207.488 153.805 207.337 153.605 207.233 153.379C207.129 153.154 207.075 152.909 207.075 152.661C207.075 152.412 207.129 152.167 207.233 151.942C207.337 151.716 207.488 151.516 207.677 151.355C211.228 149.064 212.785 145.41 212.74 144.207C212.7 143.937 212.576 143.685 212.385 143.49C212.194 143.294 211.945 143.164 211.675 143.118C211.406 143.072 211.128 143.113 210.883 143.235C210.638 143.356 210.438 143.553 210.311 143.795C209.415 144.909 208.371 145.896 207.207 146.727C206.305 147.431 205.29 147.977 204.206 148.342C202.946 148.755 196.75 148.411 195.421 147.735L191.194 162.064C191.194 162.064 206.531 169.235 209.441 170.632C213.015 172.327 214.607 172.797 214.87 172.098Z" fill="#FFBE9D"/>
<path d="M206.315 165.398C206.189 165.57 208.182 167.024 210.759 168.662C213.337 170.3 215.501 171.48 215.605 171.308C215.708 171.136 213.715 169.67 211.149 168.044C208.583 166.417 206.43 165.18 206.315 165.398Z" fill="#EB996E"/>
<path d="M207.758 162.591C207.643 162.762 209.682 164.435 212.339 166.336C214.997 168.237 217.196 169.646 217.31 169.486C217.425 169.326 215.397 167.642 212.729 165.74C210.06 163.839 207.884 162.43 207.758 162.591Z" fill="#EB996E"/>
<path d="M209.281 159.75C209.167 159.911 211.068 161.537 213.531 163.37C215.993 165.202 218.112 166.554 218.204 166.394C218.296 166.233 216.429 164.607 213.966 162.774C211.503 160.941 209.407 159.59 209.281 159.75Z" fill="#EB996E"/>
<path d="M53.288 107.853L64.536 108.471C65.3327 111.612 66.398 114.677 67.7202 117.635C76.7805 101.92 83.7561 80.8555 85.5429 72.3909C85.2909 71.5585 84.9817 70.6193 84.6151 69.5731C84.3407 67.9917 84.3874 66.3712 84.7526 64.8082C85.0618 62.9297 85.5887 60.3869 85.7376 59.2186C86.2302 55.6449 86.8029 55.0722 88.0285 55.4845C89.7237 56.0343 87.3298 65.5298 88.7157 65.736C89.4717 65.8391 90.3766 62.5861 90.6515 59.9173C90.9264 57.2485 92.1176 49.0473 92.9996 48.4631C94.2939 47.6613 95.4164 48.9327 95.0957 51.5901C94.775 54.2475 94.3512 62.2997 95.76 62.4028C97.1689 62.5059 98.3143 48.8984 98.3143 48.8984C98.3143 48.8984 98.0967 45.9432 99.7232 46.0119C102.667 46.1379 100.376 60.49 100.124 61.853C99.9408 62.7923 101.476 62.9984 101.613 61.9447C101.751 60.8909 102.461 48.3257 105.45 48.4288C107.741 48.5089 103.675 60.2495 104.969 62.9755C106.263 65.7016 107.157 53.732 109.356 53.8924C110.169 53.9611 110.776 54.1215 109.276 60.8909C107.812 66.2738 106.056 71.5734 104.018 76.7663C100.582 95.5512 85.2451 155.64 61.283 144.644C47.8816 138.493 41.6162 107.99 41.6162 107.99L53.288 107.853Z" fill="#FFBE9D"/>
<path d="M104.041 76.8684C104.061 76.7265 104.099 76.5878 104.156 76.456C104.259 76.1582 104.385 75.7688 104.556 75.3106C104.934 74.2225 105.45 72.7105 106.126 70.729C106.801 68.7474 107.615 66.342 108.416 63.5014C108.829 62.0925 109.172 60.5577 109.482 58.9197C109.642 58.095 109.791 57.2474 109.894 56.3769C109.923 55.9459 109.923 55.5135 109.894 55.0826C109.894 54.6359 109.791 54.2693 109.436 54.2579C109.081 54.2464 108.829 54.464 108.577 54.842C108.349 55.2465 108.161 55.6723 108.016 56.1134C107.695 57.0183 107.443 57.9805 107.191 58.9541C106.939 59.9277 106.71 60.9471 106.412 61.978C106.282 62.5427 106.049 63.0785 105.725 63.5586C105.643 63.6527 105.536 63.7204 105.415 63.7534C105.34 63.77 105.261 63.7693 105.186 63.7515C105.111 63.7337 105.04 63.6991 104.98 63.6503C104.849 63.5296 104.74 63.386 104.66 63.2265C104.539 62.9452 104.458 62.6483 104.419 62.3445C104.367 60.0342 104.598 57.7262 105.106 55.472C105.301 54.3266 105.507 53.1812 105.656 52.0358C105.725 51.4516 105.793 50.8904 105.805 50.2718C105.816 49.6533 105.725 49.0004 105.484 48.8973C105.244 48.7942 104.66 49.1149 104.339 49.596C104.022 50.1042 103.772 50.6508 103.594 51.2225C103.204 52.419 102.909 53.6447 102.712 54.8879C102.495 56.1478 102.323 57.4307 102.174 58.7365C102.117 59.3893 102.048 60.0422 101.991 60.7066L101.899 61.7031C101.911 61.9159 101.877 62.1288 101.797 62.3268C101.718 62.5247 101.597 62.7028 101.441 62.8485C101.245 62.9918 101.008 63.0691 100.765 63.0691C100.522 63.0691 100.285 62.9918 100.089 62.8485C99.9782 62.7751 99.884 62.679 99.8129 62.5664C99.7418 62.4538 99.6955 62.3274 99.677 62.1956C99.6596 62.074 99.6596 61.9506 99.677 61.8291V61.5885L99.9862 59.5841C100.181 58.2325 100.341 56.8809 100.467 55.5064C100.593 54.1319 100.696 52.7459 100.719 51.36C100.786 49.9878 100.647 48.6133 100.307 47.2823C100.228 46.9445 100.023 46.6496 99.7342 46.4576C99.5961 46.4132 99.4474 46.4137 99.3096 46.4589C99.1717 46.5042 99.0517 46.5919 98.9668 46.7096C98.5959 47.3876 98.4439 48.1638 98.5315 48.9317C98.2795 51.6234 97.9932 54.2693 97.6038 56.8694C97.409 58.1637 97.1914 59.4581 96.8707 60.7295C96.7791 61.0387 96.6874 61.3595 96.5729 61.6802C96.464 62.0689 96.2356 62.4135 95.92 62.6652C95.7804 62.7338 95.6218 62.753 95.4699 62.7197C95.318 62.6864 95.1819 62.6026 95.0838 62.482C94.944 62.3351 94.8384 62.159 94.7746 61.9665C94.651 61.6488 94.5627 61.3185 94.5111 60.9815C94.2427 58.4889 94.2197 55.976 94.4424 53.479C94.6117 52.315 94.6768 51.1382 94.6371 49.9626C94.6 49.4608 94.3702 48.9928 93.9957 48.6568C93.9077 48.6021 93.8096 48.5658 93.7073 48.5501C93.6049 48.5343 93.5004 48.5395 93.4001 48.5652C93.2929 48.6013 93.1894 48.6473 93.0908 48.7026C92.9877 48.7942 92.9992 48.7026 92.9305 48.8973C92.5162 49.9274 92.2129 50.9987 92.0256 52.093C91.7965 53.2385 91.6018 54.2808 91.43 55.3575C91.2581 56.4342 91.0978 57.488 90.9604 58.5417C90.8229 59.5955 90.7542 60.6264 90.548 61.6573C90.37 62.6644 90.1016 63.6534 89.7462 64.6124C89.6518 64.8565 89.5408 65.0937 89.414 65.3226C89.2537 65.5402 89.162 65.8151 88.7268 65.9526C88.6154 65.973 88.5005 65.96 88.3965 65.9151C88.2925 65.8703 88.2042 65.7956 88.1426 65.7006C88.0625 65.5683 88.0008 65.4257 87.9593 65.2768C87.9079 65.0278 87.8772 64.7749 87.8677 64.5208C87.8677 62.5621 88.1312 60.7753 88.2343 59.0457C88.3089 58.2189 88.3089 57.387 88.2343 56.5602C88.2343 56.1936 88.0624 55.7584 87.8563 55.6782C87.7119 55.6074 87.5532 55.5706 87.3924 55.5706C87.2316 55.5706 87.0729 55.6074 86.9285 55.6782C86.4477 56.1945 86.1499 56.8545 86.0809 57.5567C85.9091 58.2554 85.8403 58.9655 85.7143 59.6413C85.2333 62.3445 84.7293 64.6812 84.4887 66.5825C84.3758 67.4187 84.3758 68.2663 84.4887 69.1025C84.6491 69.7897 84.8896 70.4083 85.0156 70.8893C85.1416 71.3704 85.2676 71.714 85.3478 72.0347C85.3905 72.1575 85.4211 72.2841 85.4394 72.4127C85.3708 72.3018 85.3169 72.1825 85.2791 72.0576L84.8896 70.9122C84.7293 70.4197 84.4887 69.8699 84.294 69.1139C84.1715 68.2554 84.1715 67.3838 84.294 66.5253C84.5116 64.5895 84.9698 62.2758 85.4394 59.5612C85.5654 58.8854 85.6342 58.1752 85.7831 57.4421C85.8651 57.0549 85.9683 56.6726 86.0923 56.2967C86.2069 55.8801 86.4567 55.5134 86.8025 55.2544C87.0107 55.1441 87.2427 55.0864 87.4783 55.0864C87.7139 55.0864 87.9459 55.1441 88.1541 55.2544C88.378 55.3956 88.562 55.5919 88.6884 55.8245C88.8147 56.0572 88.8792 56.3184 88.8757 56.5831C88.9559 57.4441 88.9559 58.3107 88.8757 59.1717C88.7955 60.9127 88.5206 62.734 88.5664 64.5895C88.5748 64.809 88.6016 65.0274 88.6466 65.2424C88.6466 65.46 88.807 65.5517 88.784 65.5059C88.7611 65.46 89.0017 65.3226 89.0933 65.1393C89.2063 64.9361 89.3057 64.7256 89.3911 64.5093C89.7304 63.5809 89.9797 62.622 90.1356 61.6458C90.3304 60.6493 90.3991 59.6184 90.5365 58.5532C90.674 57.4879 90.8114 56.4342 90.9832 55.346C91.1551 54.2579 91.3498 53.1697 91.5674 52.0587C91.7537 50.8983 92.0766 49.7641 92.5296 48.6797C92.6211 48.4978 92.7595 48.3436 92.9305 48.233C93.0827 48.1495 93.2441 48.0842 93.4115 48.0383C93.6036 47.9834 93.8053 47.9703 94.0029 47.9999C94.2005 48.0296 94.3894 48.1012 94.557 48.2101C94.8228 48.4211 95.0423 48.6846 95.2019 48.9841C95.3615 49.2836 95.4578 49.6128 95.4847 49.9511C95.5707 50.5743 95.5707 51.2064 95.4847 51.8296C95.4275 52.4138 95.3702 52.975 95.3358 53.6164C95.1126 56.0561 95.1356 58.512 95.4046 60.9471C95.4536 61.2363 95.5303 61.5202 95.6336 61.7947C95.668 61.9055 95.7267 62.0073 95.8055 62.0925C95.8055 62.0925 95.8055 62.0925 95.8627 62.0925C95.8627 62.356 95.8627 62.0925 95.8627 62.1956C95.8627 62.2987 95.8627 62.1956 95.8627 62.104C96.0056 61.9126 96.1177 61.7 96.1949 61.474C96.3018 61.1915 96.3934 60.8937 96.4698 60.5806C96.7791 59.3664 96.9852 58.0836 97.18 56.8007C97.5694 54.2235 97.8558 51.5776 98.0963 48.8973V48.9546C97.9944 48.0105 98.1993 47.0586 98.6804 46.24C98.8642 46.006 99.1162 45.835 99.4015 45.7509C99.6868 45.6667 99.9913 45.6735 100.273 45.7703C100.513 45.9036 100.724 46.0839 100.893 46.3003C101.062 46.5168 101.186 46.765 101.258 47.0303C101.624 48.4388 101.775 49.8948 101.704 51.3485C101.704 52.7688 101.578 54.1662 101.452 55.5522C101.326 56.9382 101.155 58.3012 100.96 59.6528C100.857 60.34 100.754 61.0044 100.651 61.6802C100.559 62.104 100.582 62.1154 100.651 62.2414C100.73 62.2951 100.824 62.3238 100.92 62.3238C101.016 62.3238 101.109 62.2951 101.189 62.2414C101.326 62.1383 101.349 61.9436 101.384 61.5656L101.464 60.5691L101.67 58.5875C101.807 57.2818 101.991 55.976 102.208 54.7046C102.42 53.4275 102.727 52.168 103.125 50.9362C103.333 50.3136 103.613 49.7177 103.961 49.1608C104.15 48.8606 104.4 48.6031 104.694 48.4048C104.857 48.2866 105.046 48.2094 105.246 48.1795C105.445 48.1496 105.649 48.1679 105.839 48.233C106.015 48.3412 106.163 48.4885 106.272 48.6633C106.381 48.8381 106.449 49.0358 106.469 49.2409C106.517 49.5632 106.536 49.889 106.527 50.2146C106.527 50.8445 106.446 51.4516 106.378 52.0587C106.217 53.2041 106 54.4182 105.793 55.5751C105.301 57.7509 105.063 59.9764 105.083 62.2071C105.116 62.4466 105.177 62.6812 105.267 62.9058C105.308 62.9871 105.358 63.0639 105.415 63.1349C105.415 63.1349 105.415 63.1348 105.415 63.0547C105.673 62.6406 105.862 62.1883 105.977 61.7145C106.275 60.718 106.515 59.7101 106.779 58.725C107.015 57.7449 107.302 56.7776 107.638 55.8271C107.796 55.3563 108.004 54.9033 108.256 54.4755C108.393 54.2423 108.571 54.0365 108.783 53.8684C108.898 53.7686 109.036 53.6978 109.184 53.6623C109.332 53.6391 109.483 53.6391 109.631 53.6623C109.787 53.6779 109.936 53.7349 110.063 53.8276C110.19 53.9202 110.29 54.045 110.352 54.1892C110.448 54.4299 110.498 54.6861 110.501 54.9451C110.51 55.4085 110.483 55.8718 110.421 56.3311C110.318 57.2245 110.146 58.0721 109.986 58.9083C109.654 60.5462 109.287 62.104 108.84 63.4899C107.981 66.3306 107.122 68.7359 106.423 70.6946C105.725 72.6533 105.129 74.1309 104.728 75.1846C104.534 75.6657 104.373 76.0437 104.259 76.3301C104.207 76.5174 104.134 76.6981 104.041 76.8684Z" fill="#EB996E"/>
<path d="M41.5127 109.146C43.689 116.832 47.9499 128.687 52.5201 141.218C52.6642 141.621 52.9249 141.973 53.2691 142.229C53.6133 142.484 54.0256 142.631 54.4538 142.652C54.8819 142.673 55.3066 142.566 55.674 142.346C56.0414 142.125 56.335 141.8 56.5176 141.412L67.7198 117.714C67.7198 117.714 65.0166 98.2415 65.2457 98.9402C65.4748 99.6389 42.1312 101.46 42.1312 101.46L41.5127 109.146Z" fill="#F5C518"/>
<path d="M66.7571 105.331C66.7571 105.423 65.3596 105.835 63.149 106.683C60.2599 107.78 57.4765 109.137 54.8333 110.738C52.1935 112.346 49.702 114.186 47.3881 116.236C45.6127 117.805 44.5932 118.882 44.5245 118.813C44.4558 118.744 44.7192 118.492 45.1545 117.977C45.7681 117.261 46.418 116.576 47.1017 115.927C49.3595 113.753 51.8484 111.832 54.524 110.2C57.2004 108.587 60.042 107.266 63.0001 106.259C63.8943 105.951 64.8042 105.691 65.7262 105.48C66.0597 105.376 66.4077 105.326 66.7571 105.331Z" fill="#FAFAFA"/>
<path d="M71.2017 111.243C70.4738 110.509 69.8426 109.685 69.3232 108.791C67.9855 106.706 66.8356 104.506 65.8869 102.217C64.9376 99.921 64.1977 97.5441 63.6763 95.1152C63.4094 94.1216 63.2746 93.0972 63.2754 92.0684C63.617 93.0287 63.8888 94.0125 64.0886 95.0121C64.7023 97.3839 65.4674 99.7139 66.3795 101.988C67.3323 104.25 68.4264 106.449 69.6554 108.574C70.2274 109.429 70.7439 110.321 71.2017 111.243Z" fill="#263238"/>
<path d="M78.6697 6.29967C76.7265 9.50248 75.5218 13.0983 75.1433 16.8253C74.7649 20.5524 75.2222 24.3169 76.482 27.845C77.6274 30.9949 79.4601 34.0989 79.1279 37.4435C78.7957 40.7882 76.1842 44.0984 77.1005 47.3972C77.6503 49.3559 79.3226 50.8335 79.9755 52.7348C80.72 55.0257 79.9755 57.4425 79.5746 59.7906C78.6583 65.7926 80.5826 71.8289 81.0522 77.8767C81.5218 83.9245 79.9068 91.0147 74.5004 93.6491C72.8624 94.4509 70.7205 94.68 69.3575 93.4544C67.6164 91.9081 68.0975 89.1133 68.5786 86.8224C73.3206 63.9141 58.6707 41.5556 62.0154 18.3724C62.5537 14.6612 64.6269 8.36142 67.2957 5.77278C69.9646 3.18414 77.3754 3.48195 79.8953 6.23095" fill="#263238"/>
<path d="M56.1045 72.7563C56.1045 72.7563 56.8032 71.9316 57.8341 70.3051C59.2807 68.008 60.294 65.4651 60.8236 62.8026C61.1692 60.9686 61.2884 59.099 61.1787 57.2359C60.9783 55.0696 60.898 52.8937 60.9381 50.7185C61.0065 49.5272 61.2259 48.3495 61.591 47.2135C62.0096 46.0433 62.5389 44.9157 63.1717 43.846C64.4546 41.6812 66.0696 39.6652 67.5587 37.5118C69.0877 35.4767 70.1513 33.1306 70.6742 30.6394C70.9281 28.2928 70.7927 25.9204 70.2733 23.618C69.8399 21.4781 69.6707 19.2931 69.7693 17.112C69.9056 15.2068 70.2907 13.3276 70.9147 11.5224C71.7897 8.90279 73.167 6.47893 74.9695 4.38641C75.4483 3.81756 75.969 3.28536 76.5273 2.79429C76.7043 2.60567 76.9044 2.44019 77.1229 2.30176C77.1229 2.30176 76.3554 3.04628 75.1413 4.59259C72.2495 8.1821 70.5586 12.5895 70.3077 17.1922C70.231 19.3376 70.4195 21.4843 70.8689 23.5836C71.4153 25.9479 71.5624 28.3869 71.3042 30.7997C70.7612 33.3605 69.6667 35.7721 68.097 37.8669C66.5965 40.0547 64.9815 42.0592 63.7215 44.1667C63.1018 45.1967 62.5876 46.2865 62.1866 47.4197C61.8243 48.5092 61.6048 49.6412 61.5338 50.7872C61.4831 52.9385 61.5443 55.091 61.717 57.2359C61.808 59.1366 61.6618 61.0412 61.2818 62.9057C60.7078 65.6046 59.6189 68.1674 58.0746 70.454C57.6565 71.0721 57.1973 71.6615 56.7001 72.218C56.5219 72.4187 56.3221 72.5992 56.1045 72.7563Z" fill="#455A64"/>
<path d="M45.2461 74.4636C45.3384 74.1965 45.4573 73.9394 45.6012 73.6962C45.8875 73.1578 46.2541 72.4477 46.7466 71.5543C47.7087 69.6872 49.1405 66.9726 50.5494 63.5363C52.2727 59.523 53.2285 55.2221 53.3671 50.8566C53.3677 49.5988 53.272 48.3428 53.0807 47.0996C52.886 45.8168 52.5882 44.5224 52.3935 43.1708C52.1553 41.7728 52.1864 40.3421 52.4851 38.9557C52.8725 37.5323 53.669 36.2539 54.776 35.2789C56.9293 33.3203 59.5294 32.0374 60.881 29.7351C62.052 27.4522 62.7421 24.9533 62.9084 22.393C63.1508 20.0459 63.6817 17.7377 64.4891 15.5205C66.3047 10.7607 69.5396 6.67406 73.7555 3.81434C74.4276 3.36193 75.1277 2.95258 75.8516 2.58875C76.096 2.44236 76.3576 2.32693 76.6305 2.24512C76.6305 2.24512 75.5996 2.79492 73.8929 4.00906C71.4875 5.7256 69.405 7.85458 67.7421 10.2974C66.5888 11.9719 65.6499 13.7843 64.9472 15.6923C64.1754 17.9147 63.6754 20.2223 63.4582 22.5648C63.1146 25.0045 62.8397 27.7306 61.3735 30.1475C59.9074 32.5643 57.2271 33.9388 55.1769 35.8745C54.132 36.7812 53.3787 37.9768 53.012 39.3108C52.7336 40.6225 52.7064 41.975 52.9318 43.2968C53.1151 44.6141 53.4014 45.9198 53.5962 47.2142C53.7943 48.4872 53.8863 49.7745 53.8711 51.0627C53.7155 55.5083 52.7084 59.8826 50.9044 63.9487C49.7328 66.6965 48.4018 69.3737 46.9184 71.9666L45.7043 73.7649C45.5767 74.0133 45.4231 74.2476 45.2461 74.4636Z" fill="#455A64"/>
<path d="M374.317 52.8759C374.317 52.8759 373.888 52.8759 373.061 52.8759C371.854 52.8042 370.643 52.8042 369.436 52.8759C364.766 53.1493 360.178 54.2251 355.873 56.056C349.049 58.9162 343.111 63.5429 338.669 69.4599C335.93 73.1545 333.893 77.3205 332.658 81.7507C329.876 92.304 331.379 103.53 336.84 112.979C338.329 115.595 340.145 118.01 342.246 120.166C344.365 122.449 346.834 124.382 349.56 125.89C352.358 127.464 355.526 128.26 358.735 128.195C362.044 128.156 365.216 126.873 367.623 124.602C368.786 123.383 369.698 121.947 370.307 120.375C370.915 118.804 371.208 117.128 371.169 115.443C371.145 111.943 370.033 108.537 367.989 105.696C363.871 99.8929 357.193 95.9973 350.085 93.8985C342.715 91.8286 334.932 91.719 327.507 93.5805C323.717 94.5665 320.063 96.0192 316.631 97.9054C313.166 99.8608 310.019 102.332 307.298 105.235C306.646 105.983 305.898 106.666 305.31 107.493L303.513 109.91C302.421 111.613 301.444 113.387 300.588 115.221C298.887 118.943 297.725 122.889 297.137 126.939C295.983 135.03 297.084 143.283 300.317 150.79C303.408 158.124 308.792 164.26 315.661 168.28C318.992 170.183 322.71 171.308 326.537 171.571C330.289 171.781 334.021 170.885 337.27 168.995C340.494 167.213 343.042 164.419 344.52 161.045C345.914 157.72 346.011 153.992 344.79 150.599C343.534 147.325 341.479 144.417 338.812 142.14C336.225 139.904 333.243 138.173 330.019 137.036C323.732 135.053 317.004 134.937 310.653 136.702C304.709 138.312 299.25 141.353 294.752 145.558C290.655 149.483 287.535 154.314 285.641 159.662C282.329 168.942 282.482 179.106 286.071 188.282C288.87 195.133 293.375 201.154 299.157 205.773C302.799 208.694 306.855 211.057 311.193 212.785C312.688 213.341 313.849 213.754 314.644 213.977L315.82 214.359C315.82 214.359 315.407 214.279 314.612 214.057C313.437 213.742 312.28 213.365 311.145 212.928C306.751 211.276 302.641 208.948 298.966 206.027C293.086 201.411 288.492 195.361 285.626 188.457C281.973 179.194 281.787 168.924 285.101 159.535C286.998 154.105 290.153 149.202 294.307 145.224C298.869 140.935 304.409 137.824 310.446 136.161C316.931 134.352 323.802 134.462 330.226 136.479C333.544 137.637 336.614 139.412 339.273 141.711C342.044 144.062 344.177 147.076 345.474 150.472C346.782 154.017 346.725 157.921 345.315 161.427C343.747 164.934 341.086 167.84 337.731 169.711C334.362 171.674 330.494 172.613 326.6 172.414C322.68 172.14 318.874 170.977 315.47 169.011C308.444 164.935 302.927 158.693 299.745 151.219C296.442 143.575 295.308 135.169 296.47 126.923C297.077 122.791 298.265 118.766 299.999 114.966C300.873 113.094 301.872 111.282 302.989 109.544L304.833 107.08C305.421 106.237 306.185 105.49 306.852 104.758C309.637 101.8 312.854 99.2809 316.393 97.2853C319.905 95.3631 323.644 93.8888 327.523 92.8968C335.09 91.0005 343.021 91.1156 350.53 93.2307C357.781 95.3931 364.57 99.3523 368.847 105.363C370.997 108.322 372.165 111.881 372.186 115.539C372.264 119.138 370.908 122.621 368.418 125.222C365.874 127.61 362.526 128.955 359.037 128.99C355.698 129.066 352.402 128.236 349.497 126.589C346.706 125.049 344.182 123.068 342.024 120.722C339.895 118.518 338.052 116.056 336.538 113.392C330.979 103.767 329.469 92.3293 332.34 81.5918C333.613 77.1102 335.699 72.9008 338.494 69.1737C343.018 63.2118 349.058 58.5721 355.984 55.738C360.325 53.9424 364.949 52.9303 369.642 52.7487C370.86 52.6684 372.082 52.6684 373.299 52.7487L374.317 52.8759Z" fill="#263238"/>
<path d="M427.409 211.974H204.472V383.919H427.409V211.974Z" fill="#F5C518"/>
<path d="M204.472 211.974L245.653 250.389H464.806L427.409 211.974H204.472Z" fill="#F5C518"/>
<path d="M204.472 211.974L427.472 211.576H427.647L427.775 211.687L464.79 249.705L465.172 250.102L465.856 250.802H464.87L245.717 250.627H245.621L204.472 211.974L245.812 250.134H245.637L464.79 249.975L464.504 250.675L464.107 250.277L427.107 212.26L427.393 212.387L204.472 211.974Z" fill="#263238"/>
<path d="M271.442 291.268C270.234 291.311 269.092 291.827 268.261 292.705C267.43 293.582 266.977 294.751 266.999 295.959C267.021 297.167 267.516 298.319 268.378 299.166C269.241 300.012 270.401 300.487 271.609 300.487C272.818 300.487 273.978 300.012 274.84 299.166C275.702 298.319 276.198 297.167 276.219 295.959C276.241 294.751 275.788 293.582 274.957 292.705C274.126 291.827 272.984 291.311 271.776 291.268" fill="#263238"/>
<path d="M324.121 291.268C322.919 291.313 321.782 291.829 320.956 292.704C320.129 293.579 319.679 294.744 319.702 295.947C319.725 297.15 320.219 298.297 321.078 299.139C321.937 299.982 323.093 300.455 324.296 300.455C325.5 300.455 326.655 299.982 327.515 299.139C328.374 298.297 328.868 297.15 328.891 295.947C328.914 294.744 328.463 293.579 327.637 292.704C326.811 291.829 325.674 291.313 324.471 291.268" fill="#263238"/>
<path d="M324.423 332.418C323.504 328.905 322.01 325.569 320.003 322.544C317.77 319.308 314.903 316.56 311.576 314.466C307.562 311.803 302.88 310.32 298.064 310.188C293.249 310.056 288.493 311.279 284.339 313.719C280.908 315.635 277.896 318.219 275.482 321.319C273.308 324.233 271.637 327.49 270.537 330.955C270.549 330.696 270.592 330.44 270.664 330.192C270.817 329.475 271.013 328.769 271.253 328.077C272.124 325.523 273.396 323.124 275.021 320.97C277.418 317.724 280.467 315.016 283.973 313.019C288.234 310.476 293.131 309.197 298.092 309.332C303.053 309.467 307.873 311.011 311.989 313.783C315.374 315.958 318.266 318.818 320.48 322.178C321.99 324.421 323.133 326.89 323.866 329.492C324.062 330.198 324.216 330.915 324.328 331.639C324.382 331.895 324.414 332.156 324.423 332.418Z" fill="#263238"/>
<path opacity="0.5" d="M204.979 213.866L244.411 263.857H427.407V250.389H245.651L204.979 213.866Z" fill="black"/>
<path d="M383.445 383.537C383.222 383.537 383.031 353.628 383.031 316.756C383.031 279.883 383.222 249.975 383.445 249.975C383.667 249.975 383.874 279.867 383.874 316.756C383.874 353.644 383.683 383.537 383.445 383.537Z" fill="#263238"/>
<path d="M418.456 344.551H398.804V366.763H418.456V344.551Z" fill="#F5F5F5"/>
<path d="M204.471 211.974L158.71 250.389H204.471V211.974Z" fill="#F5C518"/>
<g opacity="0.4">
<path d="M204.471 211.973L158.71 250.388H204.471V211.973Z" fill="black"/>
</g>
</svg>
