<svg width="112" height="49" viewBox="0 0 112 49" fill="none" xmlns="http://www.w3.org/2000/svg">
<path d="M108.469 44.7329H97.2393C98.7219 43.1797 99.7193 41.2278 100.109 39.1163C100.216 38.5449 100.557 38.6098 100.947 38.5125C107.765 36.8015 112.024 30.6297 110.807 22.9287C110.69 22.3718 110.373 21.8766 109.917 21.5359C108.037 19.874 105.919 18.5008 103.635 17.4615C97.762 14.7733 91.509 13.7928 85.1294 13.611C82.211 13.5708 79.3555 12.7575 76.8538 11.2539C74.9881 10.1263 73.1278 8.98998 71.2729 7.84501C65.3057 4.15362 58.9845 1.31608 51.9556 0.497936C40.8522 -0.800706 30.0021 0.413532 19.5415 4.46205C13.373 6.85155 7.81802 10.241 3.27927 15.1564C2.2436 16.2764 1.55857 17.429 1.7209 19.0523C1.84427 20.2535 1.7209 21.4775 1.75012 22.6917C1.75012 23.2761 1.79232 23.7729 1.00664 23.919C0.762454 23.9698 0.542894 24.1024 0.384141 24.2948C0.225387 24.4872 0.136912 24.7279 0.133303 24.9774C0.0781111 27.3604 -0.214083 29.7693 0.295634 32.1199C1.12676 35.9671 4.28571 38.4021 8.35046 38.5709C8.6946 38.5709 9.24004 38.2982 9.35042 38.8955C9.74326 41.0383 10.7952 42.8629 12.1912 44.6745C11.7691 44.6972 11.5419 44.72 11.3081 44.72C8.31151 44.72 5.31814 44.72 2.32152 44.72C0.733932 44.72 0.0651334 45.2556 0.0813664 46.4504C0.0975995 47.6451 0.730685 48.0737 2.25984 48.0737C4.76946 48.0737 7.27909 48.0737 9.78872 48.0737H108.515C110.291 48.0737 110.93 47.6419 110.946 46.4504C110.966 45.2232 110.278 44.7362 108.469 44.7329ZM46.9851 3.29001C54.949 3.54324 62.1207 6.21196 68.838 10.3384C71.0651 11.702 73.2209 13.1824 75.8571 14.507C66.2065 15.8038 56.4821 16.4751 46.7448 16.5167C46.115 16.5167 45.9267 16.3576 45.9332 15.7148C45.9624 11.874 45.9754 8.03331 45.9332 4.19257C45.9169 3.31599 46.2416 3.25754 46.9851 3.29001ZM17.9994 8.6242C25.6062 5.16007 33.6383 3.58221 41.9561 3.27703C42.5275 3.2543 42.7418 3.36794 42.7385 3.97506C42.719 7.93916 42.7125 11.9065 42.7385 15.8706C42.7385 16.5978 42.3392 16.5037 41.8879 16.4972C36.2226 16.4225 30.5702 16.1174 24.9244 15.6726C19.9268 15.2786 14.9432 14.7462 9.97376 14.0752L9.35367 13.9908C11.9752 11.8131 14.8845 10.0073 17.9994 8.6242ZM20.4084 44.7329C19.3773 44.7424 18.3545 44.5481 17.3987 44.1612C16.4429 43.7743 15.5729 43.2025 14.8387 42.4785C14.1045 41.7545 13.5205 40.8927 13.1202 39.9424C12.7199 38.9922 12.5112 37.9722 12.5061 36.9411C12.4855 35.3755 12.9309 33.8391 13.7856 32.5272C14.6402 31.2153 15.8657 30.1871 17.3061 29.5733C18.7466 28.9596 20.337 28.788 21.8752 29.0803C23.4134 29.3726 24.83 30.1156 25.9449 31.2149C27.0598 32.3143 27.8227 33.7203 28.1366 35.2542C28.4505 36.7882 28.3013 38.3808 27.7078 39.8298C27.1144 41.2787 26.1036 42.5185 24.8038 43.3916C23.5041 44.2646 21.9741 44.7315 20.4084 44.7329ZM20.4538 25.6007C15.3599 25.5455 10.8406 29.0811 9.52249 34.2399C9.31796 35.0288 9.03226 35.2431 8.24658 35.2139C5.64929 35.0808 3.66561 33.2399 3.45133 30.6459C3.41238 30.1622 3.45133 29.6719 3.45133 29.1882H3.42212C3.42212 28.7856 3.44809 28.3765 3.42212 27.974C3.38316 27.4707 3.49354 27.1558 4.07144 27.0292C4.95451 26.8279 5.27268 26.1721 5.26944 25.3052C5.26944 23.2404 5.26944 21.1756 5.26944 19.1107C5.26944 17.614 5.94798 16.9972 7.39921 17.2147C19.4495 18.9899 31.6074 19.9358 43.7872 20.0458C51.7191 20.1217 59.6496 19.7814 67.5458 19.0263C72.8216 18.5361 78.0616 17.7601 83.3178 17.1206C86.0742 16.7959 88.8858 17.3121 91.6454 17.7212C96.9276 18.5036 101.966 19.9484 106.447 23.0229C106.903 23.2932 107.275 23.6864 107.519 24.1577C107.763 24.629 107.869 25.1594 107.826 25.6884C107.781 30.12 105.271 33.8049 101.418 35.0061C100.677 35.2366 100.405 35.1879 100.203 34.3568C99.6499 31.8868 98.2736 29.6782 96.3001 28.0932C94.3266 26.5082 91.8731 25.6408 89.3419 25.6332C86.8107 25.6257 84.352 26.4784 82.3691 28.0517C80.3862 29.6249 78.9967 31.8253 78.4285 34.2919C78.2434 35.0678 77.9674 35.2301 77.2434 35.2301C62.3091 35.2106 47.3747 35.2106 32.4403 35.2301C31.6514 35.2301 31.4436 34.9314 31.2747 34.2561C29.9436 29.1362 25.5737 25.6591 20.4538 25.6007ZM28.5703 44.668C30.0063 43.1214 30.9754 41.2001 31.3657 39.126C31.4533 38.678 31.6384 38.4962 32.0831 38.5514C32.2853 38.5644 32.4881 38.5644 32.6903 38.5514C47.3779 38.5514 62.0645 38.5427 76.7499 38.5254C77.7239 38.5254 78.1395 38.7592 78.3278 39.7526C78.6687 41.5642 79.6881 43.0804 80.9251 44.6647L28.5703 44.668ZM89.1747 44.7329C87.1077 44.7025 85.1352 43.8626 83.6806 42.3938C82.2261 40.9249 81.4056 38.9442 81.3954 36.877C81.3852 34.8099 82.1861 32.8211 83.6261 31.338C85.066 29.8548 87.0302 28.9955 89.0968 28.9447C90.1464 28.9189 91.1907 29.1026 92.1684 29.4853C93.1462 29.8679 94.0378 30.4417 94.7911 31.1731C95.5444 31.9045 96.1443 32.7787 96.5556 33.7448C96.967 34.7108 97.1815 35.7491 97.1867 36.7991C97.1919 37.849 96.9876 38.8894 96.5858 39.8595C96.184 40.8295 95.5928 41.7097 94.8468 42.4485C94.1007 43.1872 93.2148 43.7698 92.2409 44.1621C91.2669 44.5543 90.2245 44.7484 89.1747 44.7329Z" fill="#080808"/>
</svg>
