<svg width="148" height="111" viewBox="0 0 148 111" fill="none" xmlns="http://www.w3.org/2000/svg">
<path d="M19.7002 82.9082V68.8082H29.0802V70.8482H22.1602V74.7282H28.6402V76.7682H22.1602V80.8682H29.0802V82.9082H19.7002ZM30.0337 82.9082L34.1338 77.8482L30.2938 73.1282H33.2138L35.5738 76.1482L37.9338 73.1282H40.8538L36.9938 77.8682L41.1137 82.9082H38.1738L35.5538 79.6082L32.9538 82.9082H30.0337ZM42.3117 86.5082V73.1282H44.7517V74.6882C45.0317 74.1549 45.4517 73.7282 46.0117 73.4082C46.5851 73.0882 47.2317 72.9282 47.9517 72.9282C48.8051 72.9282 49.5517 73.1349 50.1917 73.5482C50.8451 73.9615 51.3517 74.5482 51.7117 75.3082C52.0717 76.0549 52.2517 76.9549 52.2517 78.0082C52.2517 79.0482 52.0717 79.9549 51.7117 80.7282C51.3517 81.4882 50.8517 82.0749 50.2117 82.4882C49.5717 82.9015 48.8184 83.1082 47.9517 83.1082C47.2584 83.1082 46.6317 82.9615 46.0717 82.6682C45.5251 82.3615 45.1051 81.9549 44.8117 81.4482V86.5082H42.3117ZM47.2517 81.2082C47.9984 81.2082 48.5984 80.9415 49.0517 80.4082C49.5051 79.8615 49.7317 79.0615 49.7317 78.0082C49.7317 76.9415 49.5051 76.1482 49.0517 75.6282C48.5984 75.0949 47.9984 74.8282 47.2517 74.8282C46.5051 74.8282 45.9051 75.0949 45.4517 75.6282C44.9984 76.1482 44.7717 76.9415 44.7717 78.0082C44.7717 79.0615 44.9984 79.8615 45.4517 80.4082C45.9051 80.9415 46.5051 81.2082 47.2517 81.2082ZM57.7039 83.1082C56.5439 83.1082 55.6839 82.7949 55.1239 82.1682C54.5772 81.5282 54.3039 80.5949 54.3039 79.3682V68.8082H56.8039V79.2482C56.8039 80.4482 57.3106 81.0482 58.3239 81.0482C58.4706 81.0482 58.6172 81.0415 58.7639 81.0282C58.9106 81.0149 59.0506 80.9882 59.1839 80.9482L59.1439 82.9282C58.6639 83.0482 58.1839 83.1082 57.7039 83.1082ZM65.053 83.1082C64.0396 83.1082 63.1596 82.9015 62.413 82.4882C61.6663 82.0749 61.0863 81.4882 60.673 80.7282C60.2596 79.9549 60.053 79.0482 60.053 78.0082C60.053 76.9682 60.2596 76.0682 60.673 75.3082C61.0863 74.5482 61.6663 73.9615 62.413 73.5482C63.1596 73.1349 64.0396 72.9282 65.053 72.9282C66.0663 72.9282 66.9463 73.1349 67.693 73.5482C68.4396 73.9615 69.0196 74.5482 69.433 75.3082C69.8463 76.0682 70.053 76.9682 70.053 78.0082C70.053 79.0482 69.8463 79.9549 69.433 80.7282C69.0196 81.4882 68.4396 82.0749 67.693 82.4882C66.9463 82.9015 66.0663 83.1082 65.053 83.1082ZM65.053 81.2082C65.7996 81.2082 66.3996 80.9415 66.853 80.4082C67.3063 79.8615 67.533 79.0615 67.533 78.0082C67.533 76.9415 67.3063 76.1482 66.853 75.6282C66.3996 75.0949 65.7996 74.8282 65.053 74.8282C64.3063 74.8282 63.7063 75.0949 63.253 75.6282C62.7996 76.1482 62.573 76.9415 62.573 78.0082C62.573 79.0615 62.7996 79.8615 63.253 80.4082C63.7063 80.9415 64.3063 81.2082 65.053 81.2082ZM72.1164 82.9082V73.1282H74.5564V74.8482C75.0364 73.6882 76.0631 73.0482 77.6364 72.9282L78.3964 72.8682L78.5564 74.9882L77.1164 75.1282C75.4764 75.2882 74.6564 76.1282 74.6564 77.6482V82.9082H72.1164ZM84.6122 83.1082C83.5055 83.1082 82.5522 82.9015 81.7522 82.4882C80.9522 82.0749 80.3322 81.4882 79.8922 80.7282C79.4655 79.9682 79.2522 79.0682 79.2522 78.0282C79.2522 77.0149 79.4589 76.1282 79.8722 75.3682C80.2989 74.6082 80.8789 74.0149 81.6122 73.5882C82.3589 73.1482 83.2055 72.9282 84.1522 72.9282C85.5389 72.9282 86.6322 73.3682 87.4322 74.2482C88.2455 75.1282 88.6522 76.3282 88.6522 77.8482V78.5882H81.6522C81.8389 80.3349 82.8389 81.2082 84.6522 81.2082C85.1989 81.2082 85.7455 81.1282 86.2922 80.9682C86.8389 80.7949 87.3389 80.5282 87.7922 80.1682L88.4922 81.8482C88.0255 82.2349 87.4389 82.5415 86.7322 82.7682C86.0255 82.9949 85.3189 83.1082 84.6122 83.1082ZM84.2522 74.6282C83.5189 74.6282 82.9255 74.8549 82.4722 75.3082C82.0189 75.7615 81.7455 76.3749 81.6522 77.1482H86.5722C86.5189 76.3349 86.2922 75.7149 85.8922 75.2882C85.5055 74.8482 84.9589 74.6282 84.2522 74.6282ZM102.583 83.1082C101.223 83.1082 100.029 82.8082 99.0027 82.2082C97.9893 81.6082 97.2027 80.7682 96.6427 79.6882C96.0827 78.5949 95.8027 77.3149 95.8027 75.8482C95.8027 74.3682 96.0827 73.0882 96.6427 72.0082C97.2027 70.9282 97.9893 70.0949 99.0027 69.5082C100.016 68.9082 101.209 68.6082 102.583 68.6082C103.956 68.6082 105.149 68.9082 106.163 69.5082C107.176 70.0949 107.963 70.9282 108.523 72.0082C109.083 73.0882 109.363 74.3615 109.363 75.8282C109.363 77.3082 109.083 78.5949 108.523 79.6882C107.963 80.7682 107.176 81.6082 106.163 82.2082C105.149 82.8082 103.956 83.1082 102.583 83.1082ZM102.583 80.9082C103.876 80.9082 104.883 80.4615 105.603 79.5682C106.323 78.6749 106.683 77.4349 106.683 75.8482C106.683 74.2482 106.323 73.0082 105.603 72.1282C104.896 71.2482 103.889 70.8082 102.583 70.8082C101.289 70.8082 100.283 71.2482 99.5627 72.1282C98.8427 73.0082 98.4827 74.2482 98.4827 75.8482C98.4827 77.4349 98.8427 78.6749 99.5627 79.5682C100.283 80.4615 101.289 80.9082 102.583 80.9082ZM115.266 83.1082C112.866 83.1082 111.666 81.7615 111.666 79.0682V73.1282H114.166V79.1082C114.166 79.8015 114.306 80.3149 114.586 80.6482C114.866 80.9815 115.312 81.1482 115.926 81.1482C116.592 81.1482 117.139 80.9215 117.566 80.4682C117.992 80.0015 118.206 79.3882 118.206 78.6282V73.1282H120.706V82.9082H118.266V81.4482C117.612 82.5549 116.612 83.1082 115.266 83.1082ZM123.308 82.9082V73.1282H125.748V74.8482C126.228 73.6882 127.254 73.0482 128.828 72.9282L129.588 72.8682L129.748 74.9882L128.308 75.1282C126.668 75.2882 125.848 76.1282 125.848 77.6482V82.9082H123.308ZM41.6144 110.108C40.7877 110.108 40.0144 110.008 39.2944 109.808C38.5744 109.608 37.9744 109.322 37.4944 108.948L38.1344 107.308C38.6277 107.642 39.181 107.902 39.7944 108.088C40.4077 108.262 41.021 108.348 41.6344 108.348C42.2744 108.348 42.7477 108.242 43.0544 108.028C43.3744 107.802 43.5344 107.508 43.5344 107.148C43.5344 106.588 43.121 106.228 42.2944 106.068L40.2944 105.688C38.601 105.368 37.7544 104.488 37.7544 103.048C37.7544 102.408 37.9277 101.855 38.2744 101.388C38.6344 100.922 39.1277 100.562 39.7544 100.308C40.381 100.055 41.101 99.9282 41.9144 99.9282C42.6077 99.9282 43.2744 100.028 43.9144 100.228C44.5544 100.415 45.101 100.702 45.5544 101.088L44.8744 102.728C44.4877 102.408 44.021 102.155 43.4744 101.968C42.941 101.782 42.4277 101.688 41.9344 101.688C41.281 101.688 40.7944 101.802 40.4744 102.028C40.1677 102.255 40.0144 102.555 40.0144 102.928C40.0144 103.515 40.3944 103.875 41.1544 104.008L43.1544 104.388C44.021 104.548 44.6744 104.842 45.1144 105.268C45.5677 105.695 45.7944 106.268 45.7944 106.988C45.7944 107.962 45.4144 108.728 44.6544 109.288C43.8944 109.835 42.881 110.108 41.6144 110.108ZM52.62 110.108C51.5133 110.108 50.56 109.902 49.76 109.488C48.96 109.075 48.34 108.488 47.9 107.728C47.4733 106.968 47.26 106.068 47.26 105.028C47.26 104.015 47.4667 103.128 47.88 102.368C48.3067 101.608 48.8867 101.015 49.62 100.588C50.3667 100.148 51.2133 99.9282 52.16 99.9282C53.5467 99.9282 54.64 100.368 55.44 101.248C56.2533 102.128 56.66 103.328 56.66 104.848V105.588H49.66C49.8467 107.335 50.8467 108.208 52.66 108.208C53.2067 108.208 53.7533 108.128 54.3 107.968C54.8467 107.795 55.3467 107.528 55.8 107.168L56.5 108.848C56.0333 109.235 55.4467 109.542 54.74 109.768C54.0333 109.995 53.3267 110.108 52.62 110.108ZM52.26 101.628C51.5267 101.628 50.9333 101.855 50.48 102.308C50.0267 102.762 49.7533 103.375 49.66 104.148H54.58C54.5267 103.335 54.3 102.715 53.9 102.288C53.5133 101.848 52.9667 101.628 52.26 101.628ZM58.6398 109.908V100.128H61.0798V101.848C61.5598 100.688 62.5865 100.048 64.1598 99.9282L64.9198 99.8682L65.0798 101.988L63.6398 102.128C61.9998 102.288 61.1798 103.128 61.1798 104.648V109.908H58.6398ZM69.9573 109.908L65.7173 100.128H68.3773L71.0973 106.968L73.9173 100.128H76.4173L72.1173 109.908H69.9573ZM77.4642 98.0282V95.5882H80.2642V98.0282H77.4642ZM77.6242 109.908V100.128H80.1242V109.908H77.6242ZM87.2419 110.108C86.2152 110.108 85.3219 109.902 84.5619 109.488C83.8019 109.062 83.2152 108.462 82.8019 107.688C82.3885 106.915 82.1819 106.008 82.1819 104.968C82.1819 103.928 82.3885 103.035 82.8019 102.288C83.2152 101.528 83.8019 100.948 84.5619 100.548C85.3219 100.135 86.2152 99.9282 87.2419 99.9282C87.8685 99.9282 88.4885 100.028 89.1019 100.228C89.7152 100.428 90.2219 100.708 90.6219 101.068L89.8819 102.808C89.5352 102.502 89.1419 102.268 88.7019 102.108C88.2752 101.948 87.8619 101.868 87.4619 101.868C86.5952 101.868 85.9219 102.142 85.4419 102.688C84.9752 103.222 84.7419 103.988 84.7419 104.988C84.7419 105.975 84.9752 106.755 85.4419 107.328C85.9219 107.888 86.5952 108.168 87.4619 108.168C87.8485 108.168 88.2619 108.088 88.7019 107.928C89.1419 107.768 89.5352 107.528 89.8819 107.208L90.6219 108.968C90.2219 109.315 89.7085 109.595 89.0819 109.808C88.4685 110.008 87.8552 110.108 87.2419 110.108ZM96.7802 110.108C95.6735 110.108 94.7202 109.902 93.9202 109.488C93.1202 109.075 92.5002 108.488 92.0602 107.728C91.6335 106.968 91.4202 106.068 91.4202 105.028C91.4202 104.015 91.6268 103.128 92.0402 102.368C92.4668 101.608 93.0468 101.015 93.7802 100.588C94.5268 100.148 95.3735 99.9282 96.3202 99.9282C97.7068 99.9282 98.8002 100.368 99.6002 101.248C100.413 102.128 100.82 103.328 100.82 104.848V105.588H93.8202C94.0068 107.335 95.0068 108.208 96.8202 108.208C97.3668 108.208 97.9135 108.128 98.4602 107.968C99.0068 107.795 99.5068 107.528 99.9602 107.168L100.66 108.848C100.193 109.235 99.6068 109.542 98.9002 109.768C98.1935 109.995 97.4868 110.108 96.7802 110.108ZM96.4202 101.628C95.6868 101.628 95.0935 101.855 94.6402 102.308C94.1868 102.762 93.9135 103.375 93.8202 104.148H98.7402C98.6868 103.335 98.4602 102.715 98.0602 102.288C97.6735 101.848 97.1268 101.628 96.4202 101.628ZM106.38 110.108C105.553 110.108 104.78 110.008 104.06 109.808C103.34 109.608 102.74 109.322 102.26 108.948L102.9 107.308C103.393 107.642 103.947 107.902 104.56 108.088C105.173 108.262 105.787 108.348 106.4 108.348C107.04 108.348 107.513 108.242 107.82 108.028C108.14 107.802 108.3 107.508 108.3 107.148C108.3 106.588 107.887 106.228 107.06 106.068L105.06 105.688C103.367 105.368 102.52 104.488 102.52 103.048C102.52 102.408 102.693 101.855 103.04 101.388C103.4 100.922 103.893 100.562 104.52 100.308C105.147 100.055 105.867 99.9282 106.68 99.9282C107.373 99.9282 108.04 100.028 108.68 100.228C109.32 100.415 109.867 100.702 110.32 101.088L109.64 102.728C109.253 102.408 108.787 102.155 108.24 101.968C107.707 101.782 107.193 101.688 106.7 101.688C106.047 101.688 105.56 101.802 105.24 102.028C104.933 102.255 104.78 102.555 104.78 102.928C104.78 103.515 105.16 103.875 105.92 104.008L107.92 104.388C108.787 104.548 109.44 104.842 109.88 105.268C110.333 105.695 110.56 106.268 110.56 106.988C110.56 107.962 110.18 108.728 109.42 109.288C108.66 109.835 107.647 110.108 106.38 110.108Z" fill="#080808"/>
<g clip-path="url(#clip0_4862_20478)">
<path d="M66.3874 0.0760684C66.3113 0.087983 66.2288 0.114563 66.2041 0H66.3874C66.4176 0.0174135 66.4277 0.0348277 66.4167 0.0522413C66.4057 0.0696548 66.3993 0.0760684 66.3874 0.0760684Z" fill="#9C9C9C"/>
<path d="M66.3867 0.0760684C66.3867 0.0504064 66.3867 0.0247456 66.3867 0H66.57C66.6003 0.01833 66.6103 0.0357442 66.5993 0.0522413C66.5883 0.0687383 66.5774 0.0760684 66.5664 0.0760684H66.3867Z" fill="#848484"/>
<path d="M66.5703 0.0760684C66.5703 0.0504064 66.5703 0.0247456 66.5703 0H66.7536C66.7839 0.01833 66.7939 0.0357442 66.782 0.0522413C66.7701 0.0687383 66.7609 0.0769858 66.749 0.0769858L66.5703 0.0760684Z" fill="#6C6C6C"/>
<path d="M66.7539 0.0769858C66.7539 0.0513238 66.7539 0.0256621 66.7585 0H66.9418C66.9042 0.0870677 66.8327 0.0916499 66.7539 0.0769858Z" fill="#545454"/>
<path d="M68.2279 0.0769858C68.1491 0.0916499 68.0776 0.0861512 68.04 0H68.2233C68.2521 0.015275 68.2621 0.0317728 68.2536 0.0494919C68.2453 0.0678219 68.2371 0.0769858 68.2279 0.0769858Z" fill="#535353"/>
<path d="M68.2272 0.0769858C68.2272 0.0513238 68.2272 0.0256621 68.2227 0H68.406C68.4353 0.015275 68.4454 0.0317729 68.4362 0.0494919C68.428 0.0669054 68.4188 0.0760684 68.4096 0.0760684L68.2272 0.0769858Z" fill="#6C6C6C"/>
<path d="M68.4102 0.0760684C68.4102 0.0504064 68.4102 0.0247456 68.4102 0H68.5935C68.6228 0.015275 68.6329 0.0317729 68.6237 0.0494919C68.6145 0.0678219 68.6054 0.0760684 68.5962 0.0760684H68.4102Z" fill="#838383"/>
<path d="M68.5918 0.0760684C68.5918 0.0504064 68.5918 0.0247456 68.5918 0H68.7751C68.7513 0.116396 68.6679 0.0888995 68.5918 0.0760684Z" fill="#9B9B9B"/>
<path d="M51 15.2051C51.1146 15.2271 51.0917 15.3096 51.0761 15.3884C51.0522 15.4342 51.0266 15.4324 51 15.3884V15.2051Z" fill="#9C9C9C"/>
<path d="M51 15.3879C51.0253 15.3857 51.0508 15.3857 51.0761 15.3879V15.5712C51.0532 15.6152 51.0275 15.6171 51 15.5712V15.3879Z" fill="#848484"/>
<path d="M50.9999 15.5718C51.0253 15.5705 51.0507 15.5705 51.076 15.5718C51.076 15.6323 51.076 15.6928 51.076 15.7551C51.0522 15.8001 51.0265 15.801 50.999 15.7551L50.9999 15.5718Z" fill="#6C6C6C"/>
<path d="M51 15.7549H51.077C51.0916 15.8337 51.0871 15.9052 51 15.9382V15.7549Z" fill="#545454"/>
<path d="M51 17.0381C51.0871 17.0747 51.0916 17.1462 51.077 17.2214C51.0495 17.259 51.0238 17.2571 51 17.2214V17.0381Z" fill="#545454"/>
<path d="M51 17.2212H51.077C51.077 17.2826 51.077 17.3431 51.077 17.4045C51.0504 17.443 51.0247 17.4402 51.0009 17.4045L51 17.2212Z" fill="#6C6C6C"/>
<path d="M51 17.4043C51.0253 17.4057 51.0507 17.4057 51.0761 17.4043V17.5876C51.0495 17.6243 51.0238 17.6261 51 17.5876V17.4043Z" fill="#838383"/>
<path d="M51 17.5879H51.0761C51.0889 17.664 51.1164 17.7464 51 17.7712V17.5879Z" fill="#9B9B9B"/>
<path d="M95.8234 38.3327C92.3572 34.9147 88.9145 31.4724 85.4953 28.0055C84.5229 27.0212 84.0133 26.9974 83.2297 27.9634C83.0867 28.1412 82.9905 28.1174 82.8402 27.9634C82.3764 27.4786 81.8944 27.0102 81.4196 26.5355C80.9449 26.0607 80.9403 26.0543 81.3005 25.4879C83.8768 21.4461 84.7089 17.0561 83.4396 12.4452C81.5818 5.69698 77.0882 1.64054 70.22 0.244704C69.7993 0.15947 69.3557 0.191549 68.9561 0H68.7728C68.716 0.0614056 68.6408 0.0430737 68.5703 0.0467397H68.2431C68.1725 0.0421572 68.0973 0.0614056 68.0396 0H66.9371C66.8802 0.0614056 66.8051 0.0430737 66.7345 0.0467397H66.4073C66.3367 0.0421572 66.2607 0.0614056 66.2039 0H65.9289C65.3506 0.12831 64.7539 0.0916505 64.1729 0.220877C60.5765 1.0109 57.5282 2.72751 55.0739 5.49809C53.6617 7.08608 52.5683 8.93092 51.8533 10.932C51.4044 12.1926 51.1177 13.5052 51 14.8382V15.2048C51.0614 15.2616 51.0431 15.3367 51.0467 15.4073V15.7345C51.0467 15.8042 51.0614 15.8802 51 15.9371V17.0369C51.0614 17.0937 51.0431 17.1688 51.0467 17.2394V17.5666C51.0467 17.6372 51.0614 17.7123 51 17.7701V18.1367C51.1778 18.3108 51.1448 18.55 51.1751 18.7626C51.7781 22.995 53.7202 26.5153 57.0178 29.1952C61.2859 32.6632 66.1699 33.7328 71.5324 32.4689C73.389 32.0303 75.1447 31.2411 76.7051 30.1437C76.9755 29.9549 77.1249 29.9834 77.3412 30.218C77.8059 30.7221 78.2888 31.2133 78.7975 31.6734C79.0963 31.9428 79.1219 32.1041 78.8094 32.3974C78.0286 33.1306 78.0478 33.5247 78.8177 34.2946C82.3251 37.802 85.8472 41.2948 89.3299 44.8261C90.3381 45.848 91.4012 46.6994 92.8676 46.9066H93.7841C93.8046 46.8841 93.8321 46.8693 93.862 46.8644C95.5704 46.8003 96.7032 45.8957 97.4941 44.4384C97.7783 43.9133 97.8461 43.3542 97.9075 42.7841V41.8676C97.6994 40.4022 96.8462 39.3408 95.8234 38.3327ZM67.3605 31.1519C59.2953 31.0502 52.7505 24.4184 52.8339 16.4301C52.9256 8.21369 59.5363 1.78718 67.5804 1.84675C75.7006 1.90816 82.2261 8.54272 82.1528 16.5603C82.0713 24.6979 75.4284 31.2527 67.3605 31.1519ZM80.274 30.5718C79.7351 30.0356 79.1999 29.4967 78.6582 28.9633C78.5473 28.8542 78.4831 28.78 78.6316 28.6416C78.9744 28.3199 79.3071 27.9854 79.6315 27.6444C79.7617 27.507 79.8359 27.5354 79.9541 27.6564C80.4857 28.1998 81.0274 28.7333 81.5635 29.2722C81.6423 29.3519 81.7734 29.4234 81.6295 29.5636C81.2721 29.9155 80.9201 30.273 80.5645 30.6267C80.5263 30.6596 80.4862 30.6902 80.4445 30.7184C80.3876 30.6662 80.3262 30.6222 80.274 30.5699V30.5718ZM83.2068 35.7555C83.1536 35.8086 83.0932 35.8545 83.0299 35.9095C82.9667 35.8499 82.9117 35.8004 82.8585 35.7482C82.1253 35.015 81.3985 34.2818 80.6589 33.5541C80.4903 33.39 80.4756 33.2983 80.6589 33.1233C81.8198 31.9795 82.9728 30.8275 84.1178 29.6672C84.2773 29.5059 84.3698 29.4674 84.5486 29.6507C85.2698 30.394 86.0067 31.1226 86.7436 31.8503C86.8673 31.9731 86.9269 32.0482 86.7702 32.205C85.5741 33.3817 84.3928 34.5695 83.2068 35.7537V35.7555ZM94.4587 44.8078C93.456 45.266 92.4992 45.1331 91.624 44.4595C91.4794 44.3462 91.3422 44.2238 91.2134 44.0929C89.0095 41.8933 86.8044 39.6937 84.598 37.4941C84.3662 37.265 84.3772 37.1577 84.598 36.9378C85.7217 35.838 86.8337 34.7263 87.9341 33.6026C88.1431 33.3909 88.2494 33.3433 88.4895 33.5861C90.6891 35.8114 92.9 38.0266 95.1222 40.2317C95.7152 40.8247 96.0607 41.5084 96.0727 42.4249C96.0021 43.4761 95.498 44.3349 94.4587 44.8078Z" fill="black"/>
<path d="M67.5049 3.6675C60.4478 3.65467 54.6565 9.44605 54.6739 16.504C54.6913 23.562 60.4304 29.3066 67.4801 29.3195C74.5299 29.3323 80.3258 23.5455 80.3112 16.4884C80.2965 9.43138 74.5592 3.68033 67.5049 3.6675ZM67.4132 27.4846C61.3469 27.4205 56.4418 22.4521 56.5069 16.4362C56.5701 10.3406 61.5476 5.42535 67.5755 5.50051C73.6482 5.58207 78.5405 10.5312 78.4855 16.5517C78.4213 22.6437 73.4557 27.5497 67.4123 27.4865L67.4132 27.4846Z" fill="black"/>
<path d="M67.1454 7.33301C67.237 7.33301 67.3287 7.33301 67.4203 7.33301C67.9776 7.35225 68.3836 7.71886 68.4028 8.21835C68.4221 8.71784 68.0436 9.12202 67.479 9.15593C66.8686 9.19351 66.2637 9.24758 65.6707 9.40522C63.308 10.0468 61.662 11.5077 60.7079 13.7568C60.6547 13.8823 60.6062 14.0106 60.5457 14.1335C60.2836 14.6604 59.8244 14.8621 59.3478 14.6614C58.8712 14.4606 58.6797 13.9813 58.8666 13.4424C59.1955 12.4901 59.6832 11.6005 60.3092 10.8111C61.1314 9.77375 62.1678 8.926 63.3476 8.32574C64.5274 7.72549 65.8228 7.38687 67.1454 7.33301Z" fill="black"/>
<path d="M59.3195 16.5723C59.5567 16.5775 59.7829 16.6733 59.9518 16.8399C60.1207 17.0066 60.2194 17.2315 60.2278 17.4686C60.2202 17.7136 60.1178 17.946 59.9422 18.1169C59.7667 18.2879 59.5316 18.384 59.2865 18.3851C59.0498 18.3724 58.827 18.2691 58.6644 18.0966C58.5018 17.9241 58.4118 17.6956 58.4131 17.4585C58.4174 17.2213 58.515 16.9954 58.6846 16.8295C58.8542 16.6637 59.0823 16.5713 59.3195 16.5723Z" fill="#010101"/>
</g>
<defs>
<clipPath id="clip0_4862_20478">
<rect width="46.9066" height="46.9084" fill="white" transform="translate(51)"/>
</clipPath>
</defs>
</svg>
