<svg width="47" height="47" viewBox="0 0 47 47" fill="none" xmlns="http://www.w3.org/2000/svg">
<g clip-path="url(#clip0_4862_20480)">
<path d="M15.3874 0.0760684C15.3113 0.087983 15.2288 0.114563 15.2041 0H15.3874C15.4176 0.0174135 15.4277 0.0348277 15.4167 0.0522413C15.4057 0.0696548 15.3993 0.0760684 15.3874 0.0760684Z" fill="#9C9C9C"/>
<path d="M15.3867 0.0760684C15.3867 0.0504064 15.3867 0.0247456 15.3867 0H15.57C15.6003 0.01833 15.6103 0.0357442 15.5993 0.0522413C15.5883 0.0687383 15.5774 0.0760684 15.5664 0.0760684H15.3867Z" fill="#848484"/>
<path d="M15.5703 0.0760684C15.5703 0.0504064 15.5703 0.0247456 15.5703 0H15.7536C15.7839 0.01833 15.7939 0.0357442 15.782 0.0522413C15.7701 0.0687383 15.7609 0.0769858 15.749 0.0769858L15.5703 0.0760684Z" fill="#6C6C6C"/>
<path d="M15.7539 0.0769858C15.7539 0.0513238 15.7539 0.0256621 15.7585 0H15.9418C15.9042 0.0870677 15.8327 0.0916499 15.7539 0.0769858Z" fill="#545454"/>
<path d="M17.2279 0.0769858C17.1491 0.0916499 17.0776 0.0861512 17.04 0H17.2233C17.2521 0.015275 17.2621 0.0317728 17.2536 0.0494919C17.2453 0.0678219 17.2371 0.0769858 17.2279 0.0769858Z" fill="#535353"/>
<path d="M17.2272 0.0769858C17.2272 0.0513238 17.2272 0.0256621 17.2227 0H17.406C17.4353 0.015275 17.4454 0.0317729 17.4362 0.0494919C17.428 0.0669054 17.4188 0.0760684 17.4096 0.0760684L17.2272 0.0769858Z" fill="#6C6C6C"/>
<path d="M17.4102 0.0760684C17.4102 0.0504064 17.4102 0.0247456 17.4102 0H17.5935C17.6228 0.015275 17.6329 0.0317729 17.6237 0.0494919C17.6145 0.0678219 17.6054 0.0760684 17.5962 0.0760684H17.4102Z" fill="#838383"/>
<path d="M17.5918 0.0760684C17.5918 0.0504064 17.5918 0.0247456 17.5918 0H17.7751C17.7513 0.116396 17.6679 0.0888995 17.5918 0.0760684Z" fill="#9B9B9B"/>
<path d="M0 15.2051C0.114563 15.2271 0.0916504 15.3096 0.0760698 15.3884C0.0522408 15.4342 0.0265786 15.4324 0 15.3884V15.2051Z" fill="#9C9C9C"/>
<path d="M0 15.3879C0.0253052 15.3857 0.0507646 15.3857 0.0760698 15.3879V15.5712C0.0531573 15.6152 0.0274951 15.6171 0 15.5712V15.3879Z" fill="#848484"/>
<path d="M-6.0564e-05 15.5718C0.0252769 15.5705 0.0506718 15.5705 0.0760093 15.5718C0.0760093 15.6323 0.0760093 15.6928 0.0760093 15.7551C0.0521802 15.8001 0.0265185 15.801 -0.000976562 15.7551L-6.0564e-05 15.5718Z" fill="#6C6C6C"/>
<path d="M0 15.7549H0.0769858C0.0916499 15.8337 0.0870677 15.9052 0 15.9382V15.7549Z" fill="#545454"/>
<path d="M0 17.0381C0.0870677 17.0747 0.0916499 17.1462 0.0769858 17.2214C0.0494908 17.259 0.023829 17.2571 0 17.2214V17.0381Z" fill="#545454"/>
<path d="M0 17.2212H0.0769858C0.0769858 17.2826 0.0769858 17.3431 0.0769858 17.4045C0.0504073 17.443 0.024745 17.4402 0.000915998 17.4045L0 17.2212Z" fill="#6C6C6C"/>
<path d="M0 17.4043C0.025338 17.4057 0.0507318 17.4057 0.0760698 17.4043V17.5876C0.0494913 17.6243 0.023829 17.6261 0 17.5876V17.4043Z" fill="#838383"/>
<path d="M0 17.5879H0.0760698C0.0889009 17.664 0.116396 17.7464 0 17.7712V17.5879Z" fill="#9B9B9B"/>
<path d="M44.8234 38.3327C41.3572 34.9147 37.9145 31.4724 34.4953 28.0055C33.5229 27.0212 33.0133 26.9974 32.2297 27.9634C32.0867 28.1412 31.9905 28.1174 31.8402 27.9634C31.3764 27.4786 30.8944 27.0102 30.4196 26.5355C29.9449 26.0607 29.9403 26.0543 30.3005 25.4879C32.8768 21.4461 33.7089 17.0561 32.4396 12.4452C30.5818 5.69698 26.0882 1.64054 19.22 0.244704C18.7993 0.15947 18.3557 0.191549 17.9561 0H17.7728C17.716 0.0614056 17.6408 0.0430737 17.5703 0.0467397H17.2431C17.1725 0.0421572 17.0973 0.0614056 17.0396 0H15.9371C15.8802 0.0614056 15.8051 0.0430737 15.7345 0.0467397H15.4073C15.3367 0.0421572 15.2607 0.0614056 15.2039 0H14.9289C14.3506 0.12831 13.7539 0.0916505 13.1729 0.220877C9.57653 1.0109 6.52824 2.72751 4.07385 5.49809C2.66173 7.08608 1.56833 8.93092 0.853263 10.932C0.404377 12.1926 0.117655 13.5052 0 14.8382V15.2048C0.0614056 15.2616 0.0430751 15.3367 0.0467411 15.4073V15.7345C0.0467411 15.8042 0.0614056 15.8802 0 15.9371V17.0369C0.0614056 17.0937 0.0430751 17.1688 0.0467411 17.2394V17.5666C0.0467411 17.6372 0.0614056 17.7123 0 17.7701V18.1367C0.177801 18.3108 0.144808 18.55 0.175052 18.7626C0.778111 22.995 2.72018 26.5153 6.01775 29.1952C10.2859 32.6632 15.1699 33.7328 20.5324 32.4689C22.389 32.0303 24.1447 31.2411 25.7051 30.1437C25.9755 29.9549 26.1249 29.9834 26.3412 30.218C26.8059 30.7221 27.2888 31.2133 27.7975 31.6734C28.0963 31.9428 28.1219 32.1041 27.8094 32.3974C27.0286 33.1306 27.0478 33.5247 27.8177 34.2946C31.3251 37.802 34.8472 41.2948 38.3299 44.8261C39.3381 45.848 40.4012 46.6994 41.8676 46.9066H42.7841C42.8046 46.8841 42.8321 46.8693 42.862 46.8644C44.5704 46.8003 45.7032 45.8957 46.4941 44.4384C46.7783 43.9133 46.8461 43.3542 46.9075 42.7841V41.8676C46.6994 40.4022 45.8462 39.3408 44.8234 38.3327ZM16.3605 31.1519C8.29526 31.0502 1.75052 24.4184 1.83392 16.4301C1.92557 8.21369 8.5363 1.78718 16.5804 1.84675C24.7006 1.90816 31.2261 8.54272 31.1528 16.5603C31.0713 24.6979 24.4284 31.2527 16.3605 31.1519ZM29.274 30.5718C28.7351 30.0356 28.1999 29.4967 27.6582 28.9633C27.5473 28.8542 27.4831 28.78 27.6316 28.6416C27.9744 28.3199 28.3071 27.9854 28.6315 27.6444C28.7617 27.507 28.8359 27.5354 28.9541 27.6564C29.4857 28.1998 30.0274 28.7333 30.5635 29.2722C30.6423 29.3519 30.7734 29.4234 30.6295 29.5636C30.2721 29.9155 29.9201 30.273 29.5645 30.6267C29.5263 30.6596 29.4862 30.6902 29.4445 30.7184C29.3876 30.6662 29.3262 30.6222 29.274 30.5699V30.5718ZM32.2068 35.7555C32.1536 35.8086 32.0932 35.8545 32.0299 35.9095C31.9667 35.8499 31.9117 35.8004 31.8585 35.7482C31.1253 35.015 30.3985 34.2818 29.6589 33.5541C29.4903 33.39 29.4756 33.2983 29.6589 33.1233C30.8198 31.9795 31.9728 30.8275 33.1178 29.6672C33.2773 29.5059 33.3698 29.4674 33.5486 29.6507C34.2698 30.394 35.0067 31.1226 35.7436 31.8503C35.8673 31.9731 35.9269 32.0482 35.7702 32.205C34.5741 33.3817 33.3928 34.5695 32.2068 35.7537V35.7555ZM43.4587 44.8078C42.456 45.266 41.4992 45.1331 40.624 44.4595C40.4794 44.3462 40.3422 44.2238 40.2134 44.0929C38.0095 41.8933 35.8044 39.6937 33.598 37.4941C33.3662 37.265 33.3772 37.1577 33.598 36.9378C34.7217 35.838 35.8337 34.7263 36.9341 33.6026C37.1431 33.3909 37.2494 33.3433 37.4895 33.5861C39.6891 35.8114 41.9 38.0266 44.1222 40.2317C44.7152 40.8247 45.0607 41.5084 45.0727 42.4249C45.0021 43.4761 44.498 44.3349 43.4587 44.8078Z" fill="black"/>
<path d="M16.5049 3.6675C9.44783 3.65467 3.65645 9.44605 3.67387 16.504C3.69128 23.562 9.43042 29.3066 16.4801 29.3195C23.5299 29.3323 29.3258 23.5455 29.3112 16.4884C29.2965 9.43138 23.5592 3.68033 16.5049 3.6675ZM16.4132 27.4846C10.3469 27.4205 5.4418 22.4521 5.50687 16.4362C5.57011 10.3406 10.5476 5.42535 16.5755 5.50051C22.6482 5.58207 27.5405 10.5312 27.4855 16.5517C27.4213 22.6437 22.4557 27.5497 16.4123 27.4865L16.4132 27.4846Z" fill="black"/>
<path d="M16.1454 7.33301C16.237 7.33301 16.3287 7.33301 16.4203 7.33301C16.9776 7.35225 17.3836 7.71886 17.4028 8.21835C17.4221 8.71784 17.0436 9.12202 16.479 9.15593C15.8686 9.19351 15.2637 9.24758 14.6707 9.40522C12.308 10.0468 10.662 11.5077 9.70789 13.7568C9.65473 13.8823 9.60616 14.0106 9.54567 14.1335C9.28355 14.6604 8.82438 14.8621 8.3478 14.6614C7.87122 14.4606 7.67967 13.9813 7.86664 13.4424C8.19546 12.4901 8.68322 11.6005 9.30921 10.8111C10.1314 9.77375 11.1678 8.926 12.3476 8.32574C13.5274 7.72549 14.8228 7.38687 16.1454 7.33301Z" fill="black"/>
<path d="M8.31952 16.5723C8.55672 16.5775 8.78293 16.6733 8.9518 16.8399C9.12067 17.0066 9.21941 17.2315 9.22777 17.4686C9.22018 17.7136 9.11781 17.946 8.94223 18.1169C8.76666 18.2879 8.53158 18.384 8.28653 18.3851C8.0498 18.3724 7.82703 18.2691 7.66442 18.0966C7.50181 17.9241 7.41182 17.6956 7.4131 17.4585C7.41743 17.2213 7.51496 16.9954 7.68458 16.8295C7.8542 16.6637 8.08229 16.5713 8.31952 16.5723Z" fill="#010101"/>
</g>
<defs>
<clipPath id="clip0_4862_20480">
<rect width="46.9066" height="46.9084" fill="white"/>
</clipPath>
</defs>
</svg>
