<svg width="557" height="104" viewBox="0 0 557 104" fill="none" xmlns="http://www.w3.org/2000/svg">
<path d="M533.13 102.505C545.529 102.505 555.58 92.4544 555.58 80.0559C555.58 67.6574 545.529 57.6064 533.13 57.6064C520.732 57.6064 510.681 67.6574 510.681 80.0559C510.681 92.4544 520.732 102.505 533.13 102.505Z" stroke="#F5C518" stroke-opacity="0.3" stroke-width="1.87079" stroke-linecap="round" stroke-linejoin="round"/>
<path d="M550.528 65.8379C550.341 65.9315 550.154 65.9315 549.967 65.9315C548.938 66.2121 547.909 66.025 546.974 65.5573C546.693 65.3702 546.413 65.1831 546.132 65.2767C545.945 65.3702 545.851 65.4638 545.758 65.6508C544.635 67.0539 542.765 67.4281 541.174 66.5862C540.894 66.3992 540.52 66.2121 540.239 66.3056C539.958 66.3992 539.771 66.6798 539.584 66.9604C538.929 67.9893 538.462 69.1118 538.275 70.2343C538.088 71.4503 538.462 72.6663 539.304 73.5082C539.584 73.6952 539.771 73.8823 539.958 74.0694C540.145 74.35 540.332 74.6306 540.426 74.9112C541.268 76.5014 543.232 77.0627 544.822 76.2208C545.009 76.1273 545.197 75.9402 545.384 75.8466C545.571 75.566 545.945 75.2854 546.225 75.1919C546.88 75.0048 547.348 75.566 547.816 76.1273C548.377 76.6885 548.751 77.4368 548.751 78.2787C548.657 79.027 548.19 79.7753 548.564 80.3365C548.751 80.5236 548.938 80.7107 549.219 80.8978C550.248 81.6461 550.061 83.2363 550.061 84.4523C550.061 85.3877 550.248 86.3231 550.528 87.2585C550.902 88.4745 551.744 89.5034 552.867 90.0646C552.96 90.1582 553.054 90.1582 553.241 90.1582M534.533 57.6064C534.627 58.3548 534.346 59.1031 533.691 59.4772C533.036 59.9449 532.195 60.132 531.446 60.132C530.791 60.0385 530.137 60.0385 529.482 60.2256C528.453 60.6932 528.359 62.377 527.237 62.9382C526.956 63.0317 526.582 63.0317 526.302 63.2188C525.273 63.6865 525.366 65.1831 524.524 66.025C523.776 66.6798 522.841 66.8669 521.905 66.6798C520.97 66.4927 520.034 66.3992 519.099 66.5862C518.164 66.8669 517.415 67.8958 517.789 68.7376C518.164 69.5795 519.286 69.673 520.128 69.5795C520.97 69.486 521.999 69.3924 522.654 69.9537C523.308 70.5149 523.215 72.1051 524.057 72.7598C524.805 73.2275 525.647 73.2275 526.395 72.7598C527.143 72.2921 527.892 72.1051 528.734 72.0115C530.885 72.1051 531.727 75.0048 533.785 75.6596C534.627 75.9402 535.562 75.7531 536.31 76.0337C537.807 76.595 538.368 78.6528 537.713 80.1495C537.433 80.7107 537.152 81.2719 536.965 81.8332C536.778 82.5815 537.059 83.3298 536.872 84.0781C536.497 85.4812 534.533 86.136 534.533 87.6326C534.627 88.0068 534.627 88.4745 534.533 88.8486C534.346 89.1292 534.065 89.4099 533.785 89.5969C532.195 90.6259 530.979 92.1225 530.23 93.8998C530.137 94.1804 530.043 94.3675 530.043 94.6481C530.137 95.0222 530.23 95.3028 530.511 95.5835C530.885 96.0512 531.166 96.6124 531.166 97.2672C531.166 97.922 530.698 98.4832 530.043 98.4832C529.669 98.3896 529.295 98.109 529.108 97.8284C528.64 97.3607 528.172 96.7995 527.892 96.1447C527.705 95.3964 527.798 94.461 527.424 93.8062C527.05 93.4321 526.769 92.9644 526.395 92.5902C525.179 91 526.676 88.568 525.927 86.7908C525.273 85.2941 523.308 84.5458 523.028 82.9556C523.028 82.3009 523.028 81.7396 523.215 81.1784C523.215 79.4947 522.841 77.811 521.999 76.4079C521.812 75.9402 521.531 75.566 521.25 75.2854C520.689 74.9112 519.847 75.0048 519.286 74.6306C518.818 74.2565 518.444 73.7888 518.164 73.2275C517.789 72.4792 517.228 71.918 516.48 71.5438C515.732 71.1697 514.89 71.2632 514.235 71.6374C513.861 71.918 513.674 72.2921 513.3 72.4792C512.925 72.7598 512.364 72.8534 511.896 72.8534" stroke="#F5C518" stroke-opacity="0.3" stroke-width="1.87079" stroke-linecap="round" stroke-linejoin="round"/>
<path d="M23.6252 45.8936C36.0238 45.8936 46.0747 35.8426 46.0747 23.4441C46.0747 11.0456 36.0238 0.994629 23.6252 0.994629C11.2268 0.994629 1.17578 11.0456 1.17578 23.4441C1.17578 35.8426 11.2268 45.8936 23.6252 45.8936Z" stroke="#F5C518" stroke-opacity="0.3" stroke-width="1.87079" stroke-linecap="round" stroke-linejoin="round"/>
<path d="M41.0234 9.2261C40.8363 9.31964 40.6492 9.31964 40.4622 9.31964C39.4332 9.60026 38.4043 9.41318 37.4689 8.94548C37.1883 8.7584 36.9077 8.57132 36.627 8.66486C36.44 8.7584 36.3464 8.85194 36.2529 9.03902C35.1304 10.4421 33.2596 10.8163 31.6694 9.97442C31.3888 9.78734 31.0147 9.60026 30.7341 9.6938C30.4534 9.78734 30.2664 10.068 30.0793 10.3486C29.4245 11.3775 28.9568 12.5 28.7697 13.6225C28.5826 14.8385 28.9568 16.0545 29.7987 16.8963C30.0793 17.0834 30.2664 17.2705 30.4534 17.4576C30.6405 17.7382 30.8276 18.0188 30.9211 18.2994C31.763 19.8896 33.7273 20.4508 35.3175 19.609C35.5046 19.5154 35.6916 19.3284 35.8787 19.2348C36.0658 18.9542 36.44 18.6736 36.7206 18.58C37.3754 18.393 37.8431 18.9542 38.3108 19.5154C38.872 20.0767 39.2461 20.825 39.2461 21.6668C39.1526 22.4152 38.6849 23.1635 39.0591 23.7247C39.2461 23.9118 39.4332 24.0989 39.7138 24.286C40.7428 25.0343 40.5557 26.6244 40.5557 27.8405C40.5557 28.7758 40.7428 29.7112 41.0234 30.6466C41.3976 31.8627 42.2394 32.8916 43.3619 33.4528C43.4554 33.5464 43.549 33.5464 43.736 33.5464M25.0281 0.994629C25.1217 1.74294 24.8411 2.49126 24.1863 2.86542C23.5315 3.33312 22.6897 3.52019 21.9413 3.52019C21.2866 3.42665 20.6318 3.42666 19.977 3.61373C18.9481 4.08143 18.8545 5.76514 17.7321 6.32638C17.4515 6.41992 17.0773 6.41992 16.7967 6.607C15.7677 7.07469 15.8613 8.57133 15.0194 9.41318C14.2711 10.068 13.3357 10.255 12.4003 10.068C11.4649 9.88088 10.5295 9.78734 9.59414 9.97442C8.65874 10.255 7.91043 11.284 8.28459 12.1258C8.65874 12.9677 9.78122 13.0612 10.6231 12.9677C11.4649 12.8741 12.4939 12.7806 13.1486 13.3418C13.8034 13.9031 13.7099 15.4932 14.5517 16.148C15.3 16.6157 16.1419 16.6157 16.8902 16.148C17.6385 15.6803 18.3868 15.4932 19.2287 15.3997C21.3801 15.4932 22.222 18.393 24.2798 19.0477C25.1217 19.3284 26.0571 19.1413 26.8054 19.4219C28.302 19.9831 28.8633 22.041 28.2085 23.5376C27.9279 24.0989 27.6473 24.6601 27.4602 25.2213C27.2731 25.9697 27.5537 26.718 27.3666 27.4663C26.9925 28.8694 25.0281 29.5242 25.0281 31.0208C25.1217 31.395 25.1217 31.8627 25.0281 32.2368C24.8411 32.5174 24.5605 32.798 24.2798 32.9851C22.6897 34.0141 21.4736 35.5107 20.7253 37.2879C20.6318 37.5686 20.5383 37.7556 20.5383 38.0363C20.6318 38.4104 20.7253 38.691 21.006 38.9716C21.3801 39.4393 21.6607 40.0006 21.6607 40.6554C21.6607 41.3101 21.193 41.8714 20.5383 41.8714C20.1641 41.7778 19.7899 41.4972 19.6029 41.2166C19.1352 40.7489 18.6675 40.1877 18.3868 39.5329C18.1998 38.7846 18.2933 37.8492 17.9192 37.1944C17.545 36.8202 17.2644 36.3525 16.8902 35.9784C15.6742 34.3882 17.1708 31.9562 16.4225 30.1789C15.7677 28.6823 13.8034 27.934 13.5228 26.3438C13.5228 25.689 13.5228 25.1278 13.7099 24.5666C13.7099 22.8829 13.3357 21.1992 12.4939 19.7961C12.3068 19.3284 12.0262 18.9542 11.7455 18.6736C11.1843 18.2994 10.3425 18.393 9.78122 18.0188C9.31352 17.6447 8.93936 17.177 8.65874 16.6157C8.28459 15.8674 7.72335 15.3062 6.97503 14.932C6.22672 14.5579 5.38486 14.6514 4.73009 15.0255C4.35593 15.3062 4.16885 15.6803 3.79469 15.8674C3.42054 16.148 2.8593 16.2416 2.3916 16.2416" stroke="#F5C518" stroke-opacity="0.3" stroke-width="1.87079" stroke-linecap="round" stroke-linejoin="round"/>
</svg>
