<svg width="89" height="46" viewBox="0 0 89 46" fill="none" xmlns="http://www.w3.org/2000/svg">
<g clip-path="url(#clip0_4862_19798)">
<path d="M0.0947266 41.0824V4.99759C0.129901 4.87761 0.157008 4.75545 0.175881 4.63191C0.266813 3.75355 0.626661 2.92394 1.20696 2.25477C1.78727 1.5856 2.56016 1.10899 3.4216 0.889142C3.49352 0.864406 3.56315 0.833542 3.6297 0.796875H85.3449C85.4043 0.829975 85.4665 0.857854 85.5308 0.880198C87.1505 1.28305 88.1668 2.31396 88.6808 3.86478C88.7592 4.10098 88.8195 4.34682 88.8826 4.5844V41.4267C88.847 41.4957 88.818 41.5679 88.7959 41.6423C88.3943 43.7584 86.6608 45.1922 84.4951 45.1922C57.8265 45.1922 31.1578 45.1922 4.48918 45.1922C2.40815 45.1922 0.685041 43.8067 0.245943 41.7807C0.196692 41.5479 0.145365 41.3152 0.0947266 41.0824ZM31.1853 21.6627L31.1375 21.6593C30.8799 19.94 30.6225 18.2202 30.3654 16.5C30.0408 14.3039 29.7106 12.1092 29.4095 9.90967C29.3624 9.56948 29.2333 9.51301 28.9288 9.5137C26.1305 9.5238 23.3327 9.5238 20.5353 9.5137C20.2238 9.5137 20.1191 9.58944 20.1191 9.9131C20.1265 18.6465 20.1265 27.3803 20.1191 36.1145C20.1191 36.4141 20.1996 36.5071 20.5083 36.505C22.3118 36.4912 24.1154 36.4981 25.9189 36.4981C26.3927 36.4981 26.3948 36.4981 26.3948 36.0326C26.398 30.7989 26.401 25.5652 26.4038 20.3316V19.353H26.4232C27.2557 25.0641 28.0897 30.77 28.9253 36.4706H33.3989L35.7768 18.9302C35.79 19.0313 35.7954 19.1333 35.7927 19.2352C35.7927 24.8243 35.7951 30.4135 35.7997 36.003C35.7997 36.4981 35.7997 36.4981 36.3116 36.4981H41.9942V9.54124H32.7572C32.2328 13.5927 31.7088 17.633 31.1853 21.662V21.6627ZM44.4977 9.5378V36.4843C44.6101 36.4898 44.6912 36.4974 44.7752 36.4974C47.5603 36.4974 50.3461 36.5257 53.1312 36.4843C54.3965 36.4651 55.6763 36.4045 56.9201 36.193C58.8332 35.8673 59.9681 34.7001 60.2546 32.8187C60.4284 31.6291 60.5186 30.4288 60.5244 29.2267C60.5598 25.9337 60.5445 22.6406 60.5348 19.3475C60.5348 18.1079 60.5099 16.8684 60.4537 15.6288C60.4238 14.9677 60.3697 14.2949 60.2116 13.6552C59.7218 11.6685 58.3796 10.5095 56.4241 10.0054C54.8807 9.60666 53.2963 9.55638 51.7168 9.53297C49.4277 9.49923 47.1385 9.52058 44.8494 9.5192C44.7349 9.51989 44.6226 9.53091 44.4977 9.53711V9.5378ZM69.6823 34.678L69.7781 34.6326C69.8217 34.7128 69.8721 34.7893 69.9286 34.8612C71.4137 36.4712 73.2797 36.9402 75.3552 36.4706C77.1206 36.0718 78.3526 35.0024 78.6724 33.1465C78.8153 32.3219 78.8881 31.4869 78.8902 30.6502C78.8958 27.0692 78.8782 23.4883 78.8375 19.9074C78.8195 18.2891 77.8802 17.044 76.3562 16.4752C75.5071 16.1584 74.6262 16.0978 73.732 16.1308C72.3024 16.1797 71.044 16.6363 70.0236 17.661C69.9494 17.7354 69.8703 17.8056 69.7247 17.944V17.4317C69.7247 14.8608 69.7247 12.2898 69.7247 9.71892C69.7247 9.2651 69.7247 9.26303 69.2606 9.26303C67.2725 9.26303 65.2837 9.26992 63.295 9.25546C62.9481 9.25546 62.8434 9.34774 62.8448 9.70101C62.8579 12.9831 62.8524 16.2658 62.8524 19.5486C62.8524 24.9769 62.8524 30.4052 62.8524 35.8336C62.8524 36.2805 62.8524 36.2812 63.3116 36.2812C65.1845 36.2812 67.0575 36.277 68.9304 36.2867C69.1864 36.2867 69.2994 36.2082 69.3521 35.9575C69.4437 35.5264 69.5706 35.1036 69.6823 34.6773V34.678ZM17.8771 23.2135C17.8771 18.8296 17.8794 14.4453 17.8841 10.0605C17.8841 9.75817 17.7974 9.66727 17.4942 9.66865C15.379 9.67967 13.2635 9.67967 11.1478 9.66865C10.8446 9.66865 10.7531 9.76161 10.7538 10.0632C10.7607 18.8076 10.7607 27.5534 10.7538 36.3005C10.7538 36.6255 10.8599 36.7047 11.17 36.7026C13.2621 36.6909 15.3542 36.6882 17.4464 36.7026C17.8029 36.7026 17.8869 36.6048 17.8862 36.2598C17.8732 31.9108 17.8702 27.5618 17.8771 23.2128V23.2135Z" fill="white"/>
<path d="M51.6133 31.7602V14.2433C52.8661 14.1262 53.6506 14.4271 53.6569 15.5744C53.6569 15.929 53.7089 16.2837 53.7089 16.6383C53.7117 20.7812 53.7091 24.9241 53.7013 29.067C53.6916 29.5938 53.6434 30.1192 53.557 30.6391C53.4474 31.3698 53.0714 31.6721 52.2078 31.7575C52.026 31.7761 51.8408 31.7602 51.6133 31.7602Z" fill="white"/>
<path d="M69.7585 26.2738C69.7585 24.6802 69.755 23.0874 69.7585 21.4939C69.7632 21.2422 69.7892 20.9913 69.8362 20.744C69.9111 20.3266 70.1761 20.1159 70.6082 20.1015C71.4961 20.0712 71.9089 20.4093 71.9318 21.2956C71.9789 23.128 71.9893 24.9612 72.0053 26.7944C72.0143 27.8494 72.0205 28.9044 71.9977 29.9587C71.9838 30.6094 71.9082 31.2595 71.8714 31.9103C71.8548 32.1975 71.7112 32.3999 71.4552 32.4901C71.2084 32.5826 70.9487 32.6367 70.6852 32.6506C70.2565 32.6637 69.9915 32.4536 69.884 32.0363C69.8084 31.7609 69.7665 31.4774 69.7592 31.192C69.7474 29.5524 69.7536 27.9134 69.7536 26.2738H69.7585Z" fill="white"/>
</g>
<defs>
<clipPath id="clip0_4862_19798">
<rect width="88.7907" height="44.3953" fill="white" transform="translate(0.0947266 0.796875)"/>
</clipPath>
</defs>
</svg>
