<svg width="89" height="45" viewBox="0 0 89 45" fill="none" xmlns="http://www.w3.org/2000/svg">
<g clip-path="url(#clip0_4862_20921)">
<path d="M0 40.2855V4.20071C0.0351741 4.08074 0.0622817 3.95858 0.0811548 3.83504C0.172087 2.95668 0.531934 2.12707 1.11224 1.4579C1.69254 0.788728 2.46544 0.312118 3.32687 0.0922672C3.39879 0.0675311 3.46842 0.0366671 3.53498 0H85.2501C85.3095 0.0331002 85.3718 0.0609788 85.4361 0.0833229C87.0558 0.486178 88.072 1.51708 88.586 3.0679C88.6644 3.3041 88.7248 3.54995 88.7879 3.78753V40.6298C88.7523 40.6989 88.7233 40.771 88.7012 40.8454C88.2995 42.9616 86.566 44.3953 84.4004 44.3953C57.7317 44.3953 31.0631 44.3953 4.39445 44.3953C2.31342 44.3953 0.590315 43.0098 0.151217 40.9838C0.101966 40.751 0.0506384 40.5183 0 40.2855ZM31.0906 20.8658L31.0427 20.8624C30.7852 19.1431 30.5278 17.4233 30.2707 15.7031C29.9461 13.507 29.6159 11.3123 29.3148 9.1128C29.2676 8.77261 29.1386 8.71614 28.8341 8.71683C26.0358 8.72693 23.2379 8.72693 20.4406 8.71683C20.1291 8.71683 20.0244 8.79257 20.0244 9.11623C20.0318 17.8496 20.0318 26.5834 20.0244 35.3177C20.0244 35.6172 20.1048 35.7102 20.4135 35.7081C22.2171 35.6944 24.0207 35.7012 25.8242 35.7012C26.298 35.7012 26.3001 35.7012 26.3001 35.2357C26.3033 30.002 26.3063 24.7684 26.3091 19.5347V18.5561H26.3285C27.1609 24.2673 27.995 29.9731 28.8306 35.6737H33.3041L35.6821 18.1333C35.6953 18.2344 35.7006 18.3364 35.698 18.4384C35.698 24.0274 35.7003 29.6166 35.7049 35.2061C35.7049 35.7012 35.705 35.7012 36.2169 35.7012H41.8995V8.74437H32.6625C32.1381 12.7959 31.6141 16.8361 31.0906 20.8651V20.8658ZM44.403 8.74092V35.6875C44.5154 35.693 44.5965 35.7005 44.6804 35.7005C47.4656 35.7005 50.2514 35.7288 53.0365 35.6875C54.3017 35.6682 55.5816 35.6076 56.8253 35.3962C58.7385 35.0704 59.8734 33.9032 60.1598 32.0218C60.3337 30.8322 60.4239 29.6319 60.4297 28.4299C60.4651 25.1368 60.4498 21.8437 60.4401 18.5506C60.4401 17.3111 60.4151 16.0715 60.3589 14.832C60.3291 14.1709 60.275 13.4981 60.1168 12.8583C59.6271 10.8716 58.2848 9.7126 56.3294 9.20851C54.7859 8.80979 53.2016 8.75951 51.6221 8.7361C49.3329 8.70235 47.0438 8.7237 44.7547 8.72233C44.6402 8.72301 44.5278 8.73403 44.403 8.74023V8.74092ZM69.5876 33.8812L69.6833 33.8357C69.727 33.9159 69.7773 33.9924 69.8339 34.0643C71.319 35.6744 73.185 36.1433 75.2605 35.6737C77.0259 35.275 78.2579 34.2055 78.5777 32.3496C78.7205 31.525 78.7934 30.69 78.7955 29.8533C78.801 26.2724 78.7835 22.6914 78.7428 19.1105C78.7247 17.4922 77.7855 16.2471 76.2615 15.6783C75.4124 15.3615 74.5314 15.3009 73.6373 15.334C72.2076 15.3829 70.9493 15.8394 69.9289 16.8641C69.8547 16.9385 69.7756 17.0088 69.6299 17.1472V16.6348C69.6299 14.0639 69.6299 11.493 69.6299 8.92204C69.6299 8.46823 69.6299 8.46615 69.1659 8.46615C67.1778 8.46615 65.189 8.47305 63.2002 8.45859C62.8534 8.45859 62.7487 8.55086 62.75 8.90414C62.7632 12.1862 62.7577 15.469 62.7577 18.7517C62.7577 24.18 62.7577 29.6084 62.7577 35.0367C62.7577 35.4836 62.7577 35.4843 63.2169 35.4843C65.0898 35.4843 66.9627 35.4802 68.8357 35.4898C69.0916 35.4898 69.2047 35.4113 69.2574 35.1607C69.349 34.7296 69.4759 34.3067 69.5876 33.8805V33.8812ZM17.7824 22.4167C17.7824 18.0328 17.7847 13.6484 17.7893 9.26361C17.7893 8.96129 17.7026 8.87039 17.3995 8.87177C15.2843 8.88279 13.1688 8.88279 11.0531 8.87177C10.7499 8.87177 10.6583 8.96474 10.659 9.26636C10.666 18.0107 10.666 26.7565 10.659 35.5036C10.659 35.8286 10.7652 35.9078 11.0752 35.9058C13.1674 35.894 15.2595 35.8913 17.3517 35.9058C17.7082 35.9058 17.7921 35.808 17.7914 35.463C17.7785 31.114 17.7755 26.765 17.7824 22.416V22.4167Z" fill="#333333"/>
<path d="M51.5195 30.9633V13.4464C52.7723 13.3293 53.5569 13.6302 53.5631 14.7775C53.5631 15.1322 53.6151 15.4868 53.6151 15.8415C53.6179 19.9843 53.6154 24.1272 53.6075 28.2701C53.5978 28.7969 53.5496 29.3223 53.4632 29.8422C53.3536 30.5729 52.9776 30.8752 52.114 30.9606C51.9323 30.9792 51.7471 30.9633 51.5195 30.9633Z" fill="#333333"/>
<path d="M69.6647 25.4769C69.6647 23.8834 69.6612 22.2905 69.6647 20.697C69.6695 20.4453 69.6954 20.1945 69.7424 19.9471C69.8173 19.5298 70.0823 19.3191 70.5145 19.3046C71.4024 19.2743 71.8151 19.6124 71.838 20.4987C71.8852 22.3312 71.8956 24.1643 71.9115 25.9975C71.9205 27.0525 71.9268 28.1075 71.9039 29.1618C71.89 29.8126 71.8144 30.4626 71.7776 31.1134C71.761 31.4006 71.6174 31.603 71.3614 31.6932C71.1146 31.7857 70.8549 31.8398 70.5915 31.8537C70.1628 31.8668 69.8978 31.6567 69.7903 31.2394C69.7147 30.964 69.6728 30.6805 69.6654 30.3951C69.6536 28.7555 69.6599 27.1165 69.6599 25.4769H69.6647Z" fill="#333333"/>
</g>
<defs>
<clipPath id="clip0_4862_20921">
<rect width="88.7907" height="44.3953" fill="white"/>
</clipPath>
</defs>
</svg>
