<svg width="66" height="66" viewBox="0 0 66 66" fill="none" xmlns="http://www.w3.org/2000/svg">
<rect x="0.580078" y="0.00195312" width="64.8421" height="66" rx="4.63158" fill="white"/>
<path d="M33.5799 10.4231C27.4526 10.4231 26.6821 10.4506 24.2746 10.5551C21.8671 10.6651 20.2273 11.0336 18.7907 11.5781C17.2838 12.1303 15.9189 12.9966 14.7914 14.1163C13.6429 15.2155 12.754 16.5453 12.1864 18.0131C11.6275 19.4101 11.2465 21.0106 11.1365 23.3481C11.0292 25.6993 11.001 26.4473 11.001 32.4258C11.001 38.3988 11.0292 39.1468 11.1365 41.4926C11.2493 43.8356 11.6275 45.4333 12.1864 46.8331C12.765 48.2796 13.5355 49.5061 14.7914 50.7298C16.0445 51.9536 17.3033 52.7071 18.7879 53.2681C20.2273 53.8126 21.8643 54.1838 24.2689 54.2911C26.6792 54.3956 27.4469 54.4231 33.5799 54.4231C39.7129 54.4231 40.4778 54.3956 42.8881 54.2911C45.2899 54.1811 46.9354 53.8126 48.372 53.2681C49.8779 52.7156 51.2418 51.8493 52.3684 50.7298C53.6244 49.5061 54.3949 48.2796 54.9735 46.8331C55.5295 45.4333 55.9105 43.8356 56.0234 41.4926C56.1306 39.1468 56.1589 38.3988 56.1589 32.4231C56.1589 26.4473 56.1306 25.6993 56.0234 23.3508C55.9105 21.0106 55.5295 19.4101 54.9735 18.0131C54.406 16.5452 53.517 15.2155 52.3684 14.1163C51.2413 12.9962 49.8763 12.1299 48.3691 11.5781C46.9297 11.0336 45.2871 10.6623 42.8853 10.5551C40.475 10.4506 39.7101 10.4231 33.5743 10.4231H33.5827H33.5799ZM31.5563 14.3886H33.5827C39.6113 14.3886 40.3254 14.4078 42.7046 14.5151C44.9061 14.6113 46.1028 14.9716 46.8987 15.2713C47.9514 15.6701 48.705 16.1486 49.4953 16.9186C50.2855 17.6886 50.7738 18.4201 51.183 19.4486C51.4935 20.2213 51.8604 21.3873 51.9592 23.5323C52.0693 25.8506 52.0918 26.5463 52.0918 32.4176C52.0918 38.2888 52.0693 38.9873 51.9592 41.3056C51.8604 43.4506 51.4907 44.6138 51.183 45.3893C50.821 46.3446 50.2433 47.2083 49.4924 47.9166C48.7022 48.6866 47.9514 49.1623 46.8959 49.5611C46.1056 49.8636 44.9089 50.2211 42.7046 50.3201C40.3254 50.4246 39.6113 50.4493 33.5827 50.4493C27.5542 50.4493 26.8373 50.4246 24.458 50.3201C22.2566 50.2211 21.0627 49.8636 20.2668 49.5611C19.286 49.2089 18.3988 48.6469 17.6702 47.9166C16.9188 47.2072 16.3401 46.3427 15.9768 45.3866C15.6692 44.6138 15.2994 43.4478 15.2007 41.3028C15.0934 38.9846 15.0708 38.2888 15.0708 32.4121C15.0708 26.5381 15.0934 25.8451 15.2007 23.5268C15.3023 21.3818 15.6692 20.2158 15.9796 19.4403C16.3889 18.4146 16.88 17.6803 17.6702 16.9103C18.4605 16.1403 19.2112 15.6646 20.2668 15.2658C21.0627 14.9633 22.2566 14.6058 24.458 14.5068C26.5409 14.4133 27.3481 14.3858 31.5563 14.3831V14.3886ZM45.6343 18.0406C45.2784 18.0406 44.9261 18.1089 44.5974 18.2416C44.2687 18.3742 43.97 18.5687 43.7184 18.8138C43.4668 19.059 43.2672 19.35 43.131 19.6703C42.9949 19.9906 42.9248 20.3339 42.9248 20.6806C42.9248 21.0273 42.9949 21.3706 43.131 21.6909C43.2672 22.0112 43.4668 22.3022 43.7184 22.5474C43.97 22.7925 44.2687 22.987 44.5974 23.1196C44.9261 23.2523 45.2784 23.3206 45.6343 23.3206C46.3529 23.3206 47.042 23.0425 47.5501 22.5474C48.0583 22.0523 48.3437 21.3808 48.3437 20.6806C48.3437 19.9804 48.0583 19.3089 47.5501 18.8138C47.042 18.3187 46.3529 18.0406 45.6343 18.0406ZM33.5827 21.1261C32.0448 21.1027 30.5174 21.3777 29.0895 21.935C27.6616 22.4923 26.3618 23.3208 25.2657 24.3723C24.1695 25.4237 23.2991 26.6772 22.7049 28.0596C22.1107 29.442 21.8047 30.9257 21.8047 32.4245C21.8047 33.9232 22.1107 35.407 22.7049 36.7894C23.2991 38.1718 24.1695 39.4252 25.2657 40.4767C26.3618 41.5282 27.6616 42.3567 29.0895 42.914C30.5174 43.4713 32.0448 43.7462 33.5827 43.7228C36.6268 43.6766 39.5301 42.4659 41.6659 40.352C43.8018 38.2382 44.9989 35.3908 44.9989 32.4245C44.9989 29.4581 43.8018 26.6107 41.6659 24.4969C39.5301 22.3831 36.6268 21.1724 33.5827 21.1261ZM33.5827 25.0888C35.5791 25.0888 37.4937 25.8616 38.9053 27.237C40.317 28.6124 41.11 30.4779 41.11 32.4231C41.11 34.3683 40.317 36.2338 38.9053 37.6092C37.4937 38.9846 35.5791 39.7573 33.5827 39.7573C31.5864 39.7573 29.6718 38.9846 28.2602 37.6092C26.8485 36.2338 26.0555 34.3683 26.0555 32.4231C26.0555 30.4779 26.8485 28.6124 28.2602 27.237C29.6718 25.8616 31.5864 25.0888 33.5827 25.0888Z" fill="#080808"/>
</svg>
