<svg width="154" height="33" viewBox="0 0 154 33" fill="none" xmlns="http://www.w3.org/2000/svg">
<g clip-path="url(#clip0_4862_20967)">
<path d="M78.6918 12.6562C78.7037 15.4873 78.721 18.3184 78.7253 21.1495C78.7284 23.0069 78.4893 24.8171 77.6851 26.5213C76.3197 29.4171 74.033 31.1817 71.0146 32.0181C68.0734 32.8328 65.1561 32.7251 62.3051 31.595C61.3466 31.2151 60.4327 30.7342 59.6417 30.0501C59.3467 29.7951 59.2623 29.5338 59.4688 29.2212C59.9423 28.5058 60.4493 27.8124 60.9462 27.1131C61.1524 26.823 61.4165 26.8301 61.6688 27.0258C62.8616 27.9515 64.2678 28.2681 65.7111 28.4454C67.4517 28.6599 69.1604 28.4851 70.7694 27.7481C73.5028 26.4951 74.5389 24.4887 74.4451 21.6164C74.4405 21.4786 74.3197 21.2368 74.2401 21.2314C74.0574 21.2189 73.8256 21.2718 73.6869 21.3871C73.1803 21.8086 72.7234 22.2908 72.2124 22.7064C70.6739 23.9572 68.8929 24.5137 66.9296 24.4801C64.949 24.4466 63.08 23.9742 61.3788 22.9338C58.529 21.191 56.721 18.6767 56.1067 15.3698C55.5325 12.2791 56.0219 9.34131 57.7722 6.70777C60.0076 3.34452 63.1575 1.57849 67.1988 1.55136C69.3521 1.53661 71.2489 2.29145 72.8867 3.69777C73.2287 3.99158 73.5328 4.33149 73.8798 4.61862C74.006 4.72263 74.2182 4.79586 74.3689 4.76672C74.4745 4.74631 74.5934 4.538 74.6189 4.39755C74.711 3.88238 74.7682 3.36072 74.8352 2.84122C74.9265 2.12616 75.1354 1.93488 75.842 1.93001C76.4896 1.92538 77.1371 1.92044 77.7844 1.92184C78.4408 1.92447 78.6807 2.16581 78.6838 2.83327C78.6997 6.10669 78.7135 9.38013 78.7251 12.6536L78.6918 12.6562ZM61.4733 9.82051C61.574 9.84384 61.6834 9.84939 61.7741 9.89368C63.2461 10.6123 64.8008 11.1769 66.0907 12.2404C66.2336 12.3583 66.4034 12.4437 66.5606 12.5444C66.55 12.412 66.5032 12.3308 66.4338 12.2795C65.0002 11.2106 63.8772 9.83003 62.6988 8.50637C62.628 8.42716 62.4265 8.34057 62.403 8.36633C62.3035 8.47509 62.1715 8.63848 62.1918 8.75751C62.2402 9.03735 62.1371 9.20948 61.9029 9.26559C61.5907 9.3423 61.508 9.55044 61.4812 9.823C61.4156 10.0051 61.3529 10.1882 61.2845 10.369C61.2235 10.5302 61.159 10.6899 61.0909 10.8482C61.0287 10.9904 60.9035 11.1357 60.9176 11.2677C60.9261 11.3494 61.1399 11.4144 61.2662 11.4766C61.3159 11.5011 61.3788 11.4983 61.4357 11.5076C63.0781 11.7636 64.7127 12.051 66.2483 12.7336C66.3129 12.7625 66.3909 12.7605 66.4626 12.7729C66.3895 12.6585 66.2937 12.607 66.197 12.557C65.2667 12.0724 64.321 11.6145 63.4107 11.095C62.7401 10.7133 62.117 10.2483 61.4733 9.82051ZM73.2109 9.57094C73.1022 9.42061 73.0229 9.19159 72.8787 9.13644C72.5953 9.02993 72.3922 8.9405 72.4639 8.57906C72.4784 8.50582 72.3908 8.38771 72.3186 8.33289C72.2871 8.31021 72.1557 8.38171 72.1028 8.44054C71.8387 8.73373 71.5904 9.04112 71.3279 9.33525C70.6339 10.1124 70.0274 10.9725 69.1699 11.5935C68.8339 11.8373 68.5308 12.1268 68.2126 12.3959C68.3352 12.4016 68.4555 12.3609 68.55 12.282C69.5067 11.5443 70.5095 10.8824 71.6019 10.3634C72.1444 10.1061 72.6786 9.83137 73.2162 9.56459C72.8681 9.83058 72.5247 10.1032 72.1709 10.361C71.1796 11.0849 70.1966 11.8211 69.0433 12.2805C68.8135 12.3721 68.5946 12.4921 68.3709 12.6002C68.3856 12.6425 68.4005 12.6852 68.4155 12.7267C70.0901 11.9204 71.8772 11.5362 73.6824 11.2096C72.8384 11.5854 71.9922 11.958 71.1159 12.2341C70.2488 12.5064 69.3518 12.6809 68.4678 12.8985L68.4785 12.984C68.598 12.9835 68.7174 12.9871 68.8365 12.9825C69.644 12.9455 70.4519 12.8676 71.2582 12.8791C72.1121 12.8911 72.9644 12.9946 73.8181 13.0385C73.9539 13.0455 74.2066 12.9593 74.212 12.8984C74.2264 12.74 74.132 12.5702 74.0842 12.4041C74.0363 12.238 73.9221 12.0497 73.9658 11.913C74.1259 11.4118 73.9817 10.9185 73.5686 10.5933C73.4689 10.5149 73.3951 10.2972 73.4275 10.176C73.5031 9.89917 73.4065 9.72725 73.2109 9.57094ZM70.6349 7.13109C70.6118 7.24333 70.6092 7.36499 70.5621 7.46593C69.8823 8.92602 69.328 10.4565 68.2988 11.7306C68.168 11.8924 68.0742 12.0847 67.9634 12.2629C68.6861 11.5889 69.3211 10.8475 70.0117 10.1635C70.7076 9.47377 71.4582 8.84052 72.2091 8.16038C71.992 7.96742 71.8677 7.76962 71.5567 7.82954C71.4546 7.84929 71.2291 7.66428 71.2003 7.54022C71.1225 7.2038 70.9413 7.09781 70.6299 7.13713C70.5914 6.87151 70.4116 6.81683 70.202 6.89057C69.9314 6.98675 69.7751 6.90092 69.6352 6.66265C69.462 6.37003 68.8103 6.21089 68.5215 6.39141C68.3042 6.52696 68.151 6.49814 67.9708 6.33037C67.6675 6.04875 66.9578 6.07168 66.6821 6.36967C66.5081 6.5589 66.3306 6.58562 66.1373 6.43374C65.9317 6.2721 65.7403 6.28874 65.5359 6.42708C65.4831 6.46556 65.4197 6.48654 65.3545 6.48709C65.1321 6.46997 65.0181 6.55819 64.97 6.78395C64.9182 7.02651 64.724 7.11381 64.5214 7.0022C64.2425 6.8491 64.0675 6.94392 63.905 7.16319C63.6916 7.18753 63.5203 7.26523 63.5075 7.51333C63.4904 7.84793 63.3293 7.95314 63.0027 7.89939C62.9008 7.88239 62.7403 7.9778 62.6762 8.07057C62.6387 8.12522 62.7117 8.29977 62.7819 8.37804C62.9275 8.54121 63.1038 8.67637 63.2678 8.82267C64.2668 9.71467 65.3654 10.5014 66.1403 11.63C66.3111 11.8789 66.5323 12.0928 66.7304 12.3229L66.8398 12.248C65.5791 10.7099 64.7558 8.92412 63.9005 7.15623C64.1588 7.49316 64.4405 7.81415 64.6706 8.16957C65.2309 9.03458 65.7863 9.90437 66.3056 10.7946C66.5589 11.2278 66.7266 11.7115 66.9332 12.1716L67.0515 12.1302C66.2606 10.4229 65.8563 8.60936 65.5471 6.76726C65.9219 7.6112 66.2892 8.45929 66.556 9.33853C66.825 10.2244 66.9945 11.1408 67.2077 12.0437L67.2633 12.0375L67.2398 6.44336L67.4105 6.44043C67.6249 8.30858 67.7406 10.181 67.5313 12.075C67.7906 10.1852 68.3728 8.39667 69.0406 6.6322C68.797 8.50228 68.5175 10.3649 67.7682 12.1256C67.8886 12.0166 67.9802 11.8792 68.0347 11.7256C68.656 10.0536 69.6719 8.60758 70.6362 7.13109L70.6349 7.13109ZM61.6455 16.6114C63.1707 15.4798 64.6659 14.3004 66.4604 13.5937C65.5752 13.8363 64.7288 14.1642 63.8607 14.4169C62.9991 14.6676 62.1159 14.8421 61.2422 15.0501C61.2323 15.0134 61.2221 14.9764 61.2119 14.9393C62.0593 14.6114 62.8926 14.2391 63.7572 13.9681C64.6218 13.6971 65.5089 13.5315 66.3866 13.3194L66.3721 13.2244C66.2602 13.2249 66.146 13.212 66.036 13.2277C64.386 13.4615 62.7381 13.2853 61.0893 13.2102C60.9619 13.2044 60.7492 13.2265 60.7202 13.2963C60.6664 13.4264 60.6685 13.6304 60.7379 13.7508C60.8598 13.9622 60.8313 14.1372 60.8074 14.3676C60.7606 14.8202 60.8069 15.2924 61.2022 15.624C61.3571 15.7545 61.44 15.8814 61.3614 16.1045C61.2707 16.3583 61.3435 16.5642 61.6527 16.6063C61.5161 16.8683 61.6229 16.9961 61.8853 17.0489C62.1304 17.0979 62.2859 17.2176 62.2371 17.5055C62.1825 17.8275 62.7213 18.431 63.0516 18.3947C63.3607 18.3618 63.492 18.4743 63.5417 18.7795C63.5979 19.1277 64.2941 19.4904 64.5978 19.3427C64.8519 19.2191 64.9882 19.3347 65.0997 19.5443C65.2898 19.9034 65.9194 20.1089 66.2615 19.9028C66.492 19.7643 66.6521 19.7896 66.8365 19.9865C67.0856 20.2525 67.894 20.2102 68.1229 19.933C68.2703 19.7546 68.4145 19.7452 68.6046 19.8647C68.933 20.0715 69.7258 19.842 69.8827 19.4919C69.9824 19.2697 70.1277 19.2057 70.3533 19.2656C70.7577 19.3748 71.2763 19.0533 71.3651 18.6424C71.4117 18.4252 71.5095 18.2781 71.7617 18.2992C72.1617 18.3327 72.6713 17.8154 72.6287 17.4139C72.6052 17.1948 72.6737 17.0567 72.89 16.9912C73.3415 16.8543 73.6729 16.2621 73.5612 15.8014C73.5088 15.5855 73.5452 15.4213 73.7603 15.3041C74.0426 15.1499 74.2476 14.4968 74.0762 14.2371C73.8996 13.9692 73.9205 13.7768 74.1586 13.5715C74.2193 13.519 74.252 13.3665 74.2203 13.2944C74.1926 13.2311 74.0557 13.1839 73.9683 13.1852C73.6226 13.1907 73.2769 13.2157 72.9312 13.238C71.8023 13.3112 70.675 13.4588 69.5417 13.2858C69.1991 13.2334 68.852 13.2099 68.507 13.173C68.499 13.218 68.4907 13.263 68.4827 13.308C70.3117 13.4676 72.0168 14.0718 73.7157 14.7008C71.8989 14.4604 70.0893 14.1946 68.3877 13.4415C69.1925 13.9149 70.0319 14.2962 70.8288 14.7525C71.6258 15.2089 72.3733 15.7367 73.1434 16.2317C71.4016 15.5697 69.7131 14.8162 68.2667 13.6001L68.1576 13.744C69.6574 14.8661 70.8716 16.2631 72.0383 17.7082C70.5979 16.5668 69.1796 15.4029 68.1279 13.8484L67.9937 13.9528C69.0939 15.3601 69.915 16.9226 70.6078 18.5546C69.512 17.1511 68.5141 15.6883 67.834 14.0159C68.5422 15.7347 68.9396 17.5251 69.2685 19.3348C68.5457 17.6744 67.8973 15.9905 67.6938 14.1603L67.5584 14.1885L67.5819 19.7721L67.4649 19.7726C67.2468 17.907 67.072 16.0399 67.3156 14.148C67.0423 16.0062 66.4559 17.7605 65.8241 19.5017C66.0651 17.6633 66.3629 15.8389 67.1294 14.1228L66.9669 14.062C66.3406 15.8387 65.3066 17.3769 64.2599 18.9082C64.6218 18.0375 64.9683 17.1582 65.4081 16.3292C65.8422 15.5113 66.3706 14.7441 66.8577 13.9545L66.7608 13.8697C65.6601 15.4151 64.22 16.6031 62.7989 17.8123C63.9559 16.3644 65.0918 14.8996 66.614 13.7968C66.464 13.8244 66.3236 13.8905 66.2061 13.9886C65.2428 14.7618 64.1844 15.3786 63.0801 15.9199C62.6027 16.1541 62.1245 16.3813 61.6455 16.6114ZM66.3188 13.0472C66.3212 13.0197 66.3236 12.9921 66.3263 12.9642C66.3093 12.9494 66.2947 12.925 66.2752 12.921C66.1852 12.9014 66.0943 12.8872 66.0037 12.8721C64.9703 12.6962 63.9336 12.5472 62.9427 12.1706C62.3505 11.9456 61.7352 11.7816 61.1274 11.6004C60.8316 11.512 60.68 11.6482 60.7906 11.9281C60.8833 12.1637 60.8551 12.3318 60.7303 12.5414C60.5505 12.8415 60.6751 13.0405 61.024 13.0293C61.4955 13.0143 61.9668 12.9648 62.4383 12.9451C63.1612 12.9145 63.8875 12.8683 64.6112 12.8833C65.1815 12.8952 65.7499 12.9897 66.3188 13.0472Z" fill="#333333"/>
<path d="M129.874 8.49199C129.929 8.11732 129.972 7.82126 130.017 7.52582C130.043 7.35369 130.058 7.17718 130.101 7.01068C130.262 6.38213 130.433 6.23727 131.068 6.24633C131.665 6.2549 132.27 6.25299 132.86 6.33383C133.371 6.40296 133.546 6.65597 133.548 7.17835C133.556 10.4279 133.561 13.6776 133.561 16.9275C133.562 18.9426 133.549 20.958 133.569 22.9727C133.576 23.7064 133.373 23.9407 132.616 24.0019C131.962 24.0547 131.3 24.0267 130.641 24.0203C130.256 24.0165 130.006 23.7933 129.916 23.4322C129.845 23.1541 129.844 22.8585 129.799 22.5723C129.778 22.4409 129.727 22.3141 129.689 22.1854C129.571 22.2429 129.433 22.2774 129.339 22.3617C128.47 23.1367 127.501 23.7332 126.381 24.0591C124.026 24.7441 121.811 24.3112 119.747 23.0967C117.284 21.6476 115.824 19.4366 115.371 16.6159C114.611 11.8989 117.487 7.45652 122.047 6.26491C124.436 5.6403 126.678 5.91947 128.693 7.44077C129.087 7.735 129.434 8.09564 129.874 8.49199ZM129.65 15.1373C129.666 14.4308 129.503 13.7089 129.201 13.0167C128.042 10.3475 125.111 9.02331 122.549 10.0092C120.279 10.8823 118.858 13.3826 119.187 15.9267C119.496 18.3114 121.141 20.1929 123.287 20.6169C126.595 21.2705 129.666 18.6504 129.65 15.1373L129.65 15.1373Z" fill="#333333"/>
<path d="M31.5412 8.92147C31.6024 8.51478 31.6429 8.20731 31.6925 7.90108C31.7278 7.6833 31.7536 7.46175 31.8178 7.25177C31.9511 6.80992 32.1422 6.6615 32.6012 6.65957C33.1896 6.6571 33.7846 6.62798 34.3649 6.70315C35.0657 6.79524 35.2121 7.01638 35.2139 7.73042C35.2235 12.3663 35.232 17.0019 35.2393 21.6374C35.2404 22.2662 35.2471 22.8953 35.2425 23.5242C35.2385 24.0627 35.0811 24.3168 34.5645 24.3602C33.7733 24.4269 32.9744 24.415 32.1791 24.4079C31.8842 24.4056 31.6896 24.1882 31.614 23.9129C31.5406 23.6462 31.5211 23.3646 31.4694 23.0914C31.4373 22.9265 31.3907 22.7648 31.3504 22.6019C31.1974 22.6896 31.0402 22.7714 30.8916 22.8661C30.2116 23.3007 29.5728 23.8255 28.8474 24.159C26.8551 25.0756 24.8101 24.9647 22.8119 24.178C19.6971 22.9524 17.7965 20.6393 17.1116 17.3549C16.1247 12.623 19.017 7.8115 23.8946 6.62426C26.2122 6.06045 28.3951 6.36331 30.344 7.83263C30.6571 8.06858 30.929 8.35984 31.22 8.62536L31.5412 8.92147ZM26.1725 21.1404C26.469 21.0914 26.9395 21.0688 27.3746 20.9323C29.4517 20.2808 30.7666 18.8649 31.2015 16.7261C31.6499 14.5212 30.9329 12.6596 29.205 11.2559C27.06 9.51338 24.0747 9.76099 22.2768 11.7602C20.6898 13.527 20.3353 16.1676 21.4501 18.2765C22.4159 20.1026 23.9308 21.0811 26.1737 21.1414L26.1725 21.1404Z" fill="#333333"/>
<path d="M42.5991 8.86656C42.7222 8.75295 42.7871 8.70737 42.8337 8.64793C44.2722 6.85868 46.1942 6.25568 48.3884 6.40865C51.8885 6.65275 54.0189 9.19743 54.492 12.3488C54.5866 12.9936 54.6343 13.6446 54.6348 14.2964C54.6454 17.2672 54.6337 20.2381 54.6279 23.209C54.6261 24.1144 54.3982 24.3431 53.501 24.3498C52.9116 24.3538 52.3219 24.3601 51.7322 24.355C50.9868 24.3486 50.7674 24.1271 50.7507 23.3675C50.7406 22.9136 50.744 22.459 50.7409 22.0054C50.7233 19.3128 50.7123 16.6226 50.6846 13.9313C50.6678 12.3281 49.6083 10.8861 48.1108 10.3843C46.0678 9.69939 43.5991 11.0289 43.0575 13.1274C42.9628 13.4936 42.9503 13.8881 42.9494 14.2711C42.9438 17.044 42.9532 19.8168 42.953 22.5897C42.9569 22.9507 42.9366 23.3116 42.8921 23.6698C42.8235 24.1729 42.5776 24.3846 42.0756 24.3937C41.3473 24.4072 40.6187 24.4134 39.8906 24.4009C39.2964 24.3904 39.0722 24.1579 39.0666 23.5671C39.021 18.3012 38.9779 13.0354 38.9373 7.76971C38.9322 7.07596 39.3679 6.63728 40.0551 6.62457C40.5173 6.6165 40.9797 6.61456 41.4423 6.61874C41.9503 6.62294 42.2117 6.81127 42.3568 7.30675C42.4241 7.53868 42.4396 7.78603 42.4765 8.02664C42.514 8.28403 42.5519 8.54173 42.5991 8.86656Z" fill="#333333"/>
<path d="M140.921 8.44833C141.379 7.99561 141.724 7.58043 142.14 7.25651C143.507 6.19079 145.089 5.85879 146.781 5.99708C150.37 6.29023 152.394 8.9513 152.815 11.9274C152.931 12.7531 152.96 13.5966 152.967 14.4322C152.987 17.1001 152.979 19.7685 152.979 22.4368C152.983 22.6813 152.972 22.9258 152.947 23.169C152.892 23.646 152.689 23.8876 152.222 23.9083C151.414 23.9434 150.604 23.9449 149.796 23.9201C149.35 23.9064 149.188 23.7183 149.121 23.2694C149.093 23.0864 149.095 22.8979 149.094 22.7116C149.065 19.6474 149.044 16.5832 149.009 13.5194C148.998 12.7329 148.745 11.9692 148.286 11.3335C147.826 10.6977 147.182 10.2213 146.443 9.96979C144.425 9.29274 141.958 10.5931 141.408 12.6412C141.316 12.9847 141.293 13.3548 141.291 13.7128C141.278 16.5322 141.278 19.3517 141.271 22.1711C141.27 22.5088 141.274 22.8484 141.242 23.185C141.195 23.6819 140.933 23.9592 140.473 23.9719C139.699 23.9936 138.923 24.0003 138.149 23.9817C137.606 23.9675 137.394 23.7216 137.382 23.1613C137.37 22.5325 137.373 21.903 137.368 21.2739C137.332 16.6836 137.293 12.0931 137.252 7.50261C137.248 7.03537 137.345 6.64119 137.765 6.40056C137.929 6.30705 138.123 6.23084 138.308 6.21993C138.779 6.1926 139.256 6.20264 139.729 6.20477C140.281 6.20688 140.541 6.39143 140.695 6.9214C140.756 7.13086 140.765 7.35543 140.797 7.57356C140.836 7.8414 140.875 8.11082 140.921 8.44833Z" fill="#333333"/>
<path d="M0.049128 12.9583C0.0342376 9.41624 0.0193471 5.87418 0.00445671 2.33211C0.000908998 1.4882 0.211886 1.27316 1.04177 1.26872C1.89712 1.26512 2.75277 1.25899 3.60844 1.25793C4.3016 1.25787 4.52603 1.48025 4.52801 2.17433C4.54502 7.96496 4.56119 13.7557 4.57653 19.5465C4.57955 20.2656 4.57955 20.2663 5.30727 20.2632C8.22026 20.251 11.1339 20.2403 14.0481 20.2312C14.2509 20.2304 14.4973 20.2293 14.6459 20.339C14.8089 20.4577 14.9721 20.6984 14.9789 20.8919C15.0145 21.8811 15.0077 22.8721 14.9986 23.8624C14.9949 24.2502 14.7858 24.4528 14.3971 24.4985C14.2588 24.511 14.12 24.5157 13.9813 24.5126C9.71488 24.5305 5.44862 24.5485 1.18246 24.5664C1.10135 24.5668 1.02057 24.5671 0.939456 24.5655C0.349352 24.5519 0.167891 24.3828 0.155348 23.7921C0.140151 23.0933 0.142863 22.3941 0.13961 21.695C0.127366 18.7825 0.115121 15.8698 0.102877 12.9571L0.049128 12.9583Z" fill="#333333"/>
<path d="M95.2201 6.02457C97.5952 5.98956 99.3694 7.09594 100.783 8.90963C101.096 9.31064 101.069 9.57939 100.693 9.90916C100.224 10.323 99.75 10.7343 99.2542 11.1155C98.7767 11.4834 98.5606 11.4517 98.1501 11.0112C97.6647 10.4899 97.1741 9.97369 96.4671 9.7641C95.4798 9.4711 94.5211 9.49287 93.6549 10.131C92.7373 10.8071 92.7356 11.8243 93.7128 12.4044C94.3 12.7529 94.978 12.9636 95.6352 13.1702C96.9497 13.5835 98.2622 13.9828 99.4427 14.7325C102.256 16.5219 102.182 20.0674 100.818 21.9495C100.001 23.0772 98.8827 23.7696 97.5596 24.13C95.1814 24.7783 92.8881 24.6194 90.7347 23.3265C89.9248 22.8406 89.2554 22.1493 88.7932 21.3215C88.4854 20.7788 88.5382 20.4647 89.0153 20.0771C89.4022 19.7625 89.7948 19.4552 90.1896 19.1507C90.7564 18.7136 91.0256 18.7353 91.4597 19.3227C92.0367 20.1047 92.8033 20.6001 93.7057 20.8804C94.757 21.2074 95.7933 21.0979 96.7666 20.5888C97.6164 20.1443 97.9093 19.4508 97.6762 18.5873C97.5516 18.1253 97.2412 17.801 96.8293 17.6243C96.2551 17.3809 95.6662 17.174 95.0663 17.0048C93.796 16.6408 92.537 16.2647 91.4161 15.5243C88.9844 13.9189 88.3438 10.6463 90.0322 8.32727C90.8526 7.20016 92.0164 6.60002 93.3364 6.30049C93.9541 6.16104 94.5917 6.11401 95.2201 6.02457Z" fill="#333333"/>
<path d="M110.086 14.0483C110.091 15.4222 110.089 16.7964 110.108 18.1706C110.114 18.5985 110.131 19.0375 110.229 19.4508C110.379 20.0816 110.845 20.4125 111.494 20.4494C112.22 20.4907 112.384 20.6589 112.39 21.3837C112.395 22.0359 112.401 22.6882 112.391 23.3405C112.385 23.7951 112.167 24.0738 111.732 24.0829C109.737 24.123 107.1 23.3225 106.274 20.6367C106.089 20.0356 106.029 19.3779 106.019 18.7447C105.975 15.7284 105.968 12.7116 105.947 9.69493C105.944 9.01607 105.944 9.01638 105.254 9.01833C104.909 9.01978 104.56 9.03075 104.214 9.01668C103.648 8.9934 103.393 8.72964 103.385 8.1623C103.375 7.48653 103.372 6.81072 103.376 6.13489C103.379 5.57479 103.611 5.32513 104.174 5.29932C104.624 5.27874 105.076 5.27749 105.526 5.28922C105.828 5.29714 105.932 5.17315 105.929 4.8757C105.919 4.03751 105.944 3.19855 105.928 2.36007C105.918 1.86719 106.132 1.56091 106.582 1.41488C107.373 1.15812 108.159 0.881737 108.961 0.669284C109.74 0.463265 110.071 0.740334 110.085 1.56329C110.102 2.61148 110.091 3.65978 110.095 4.70802C110.097 5.26556 110.1 5.2665 110.663 5.26572C111.16 5.26363 111.657 5.25583 112.154 5.26293C112.744 5.27122 112.991 5.49764 113.006 6.07825C113.025 6.77659 113.026 7.47531 113.011 8.17443C112.997 8.73552 112.749 8.97035 112.186 8.98538C111.654 8.99934 111.122 8.99208 110.591 8.99716C110.141 9.00159 110.114 9.02515 110.115 9.47086C110.119 10.9969 110.126 12.5228 110.135 14.0484L110.086 14.0483Z" fill="#333333"/>
<path d="M80.9537 15.3939C80.9431 12.878 80.9325 10.362 80.922 7.8459C80.9212 7.67135 80.9189 7.49745 80.9295 7.3219C80.9657 6.7284 81.2371 6.46022 81.8299 6.45044C82.5001 6.43939 83.1706 6.43878 83.8418 6.44039C84.5742 6.44238 84.9218 6.78908 84.9224 7.53511C84.926 12.1361 84.9274 16.7371 84.9264 21.3379C84.9267 22.0254 84.935 22.7128 84.9284 23.3999C84.9235 23.9461 84.7211 24.1896 84.1922 24.208C83.3842 24.2356 82.5753 24.239 81.7657 24.2182C81.2397 24.2039 81.0469 23.9563 81.0435 23.3611C81.0285 20.7056 81.0168 18.0499 81.0084 15.394L80.9537 15.3939Z" fill="#333333"/>
<path d="M82.8719 4.13169C82.5135 4.1332 82.1552 4.14293 81.7971 4.13398C81.2155 4.119 80.9543 3.89043 80.9323 3.31587C80.9045 2.57153 80.9004 1.82636 80.9201 1.08034C80.9342 0.538888 81.191 0.311307 81.737 0.303943C82.4998 0.293133 83.2627 0.289926 84.0258 0.294321C84.6039 0.298543 84.8798 0.561263 84.8973 1.14757C84.9178 1.82256 84.9225 2.4992 84.9058 3.17498C84.8906 3.80261 84.564 4.11159 83.9467 4.12654C83.589 4.13501 83.2303 4.1305 82.8719 4.13169Z" fill="#333333"/>
</g>
<defs>
<clipPath id="clip0_4862_20967">
<rect width="152.91" height="32.1915" fill="white" transform="translate(0 0.642578) rotate(-0.240863)"/>
</clipPath>
</defs>
</svg>
