<svg width="30" height="28" viewBox="0 0 30 28" fill="none" xmlns="http://www.w3.org/2000/svg">
<path d="M29.8891 25.822L23.8622 11.2235C23.7509 10.9539 23.5621 10.7234 23.3197 10.5613C23.0772 10.3991 22.7921 10.3125 22.5005 10.3125C22.2088 10.3125 21.9237 10.3991 21.6813 10.5613C21.4389 10.7234 21.25 10.9539 21.1387 11.2235L15.1118 25.822C15.0369 26.001 14.9981 26.1931 14.9976 26.3872C14.9971 26.5813 15.0349 26.7735 15.109 26.9529C15.183 27.1323 15.2918 27.2953 15.429 27.4326C15.5662 27.5698 15.7292 27.6786 15.9086 27.7527C16.088 27.8267 16.2803 27.8646 16.4743 27.8641C16.6684 27.8637 16.8605 27.8249 17.0395 27.7499C17.2186 27.675 17.381 27.5655 17.5176 27.4275C17.6542 27.2896 17.7621 27.1261 17.8353 26.9464L19.0628 23.9738H25.9381L27.1656 26.9464C27.2769 27.2161 27.4657 27.4467 27.7082 27.6089C27.9507 27.7712 28.2359 27.8578 28.5277 27.8578C28.7698 27.8576 29.0081 27.7978 29.2216 27.6837C29.4351 27.5695 29.6171 27.4045 29.7516 27.2032C29.8862 27.002 29.969 26.7706 29.9929 26.5297C30.0168 26.2888 29.9809 26.0458 29.8884 25.822H29.8891ZM20.2796 21.0273L22.5008 15.6466L24.7221 21.0273H20.2796Z" fill="#DDB216"/>
<path d="M15.7932 19.7495C16.022 19.4333 16.1161 19.0393 16.0547 18.6538C15.9933 18.2684 15.7815 17.923 15.4657 17.6936C15.4523 17.6836 14.4612 16.9483 13.0221 15.3679C15.6773 11.7732 17.1814 7.68363 17.7948 5.75904H19.9557C20.3465 5.75904 20.7212 5.60382 20.9975 5.32754C21.2738 5.05125 21.429 4.67652 21.429 4.2858C21.429 3.89507 21.2738 3.52034 20.9975 3.24406C20.7212 2.96777 20.3465 2.81255 19.9557 2.81255H12.1877V1.47324C12.1877 1.08251 12.0325 0.707789 11.7562 0.431503C11.4799 0.155216 11.1052 0 10.7145 0C10.3238 0 9.94904 0.155216 9.67275 0.431503C9.39646 0.707789 9.24125 1.08251 9.24125 1.47324V2.81255H1.47324C1.08251 2.81255 0.707789 2.96777 0.431503 3.24406C0.155216 3.52034 0 3.89507 0 4.2858C0 4.67652 0.155216 5.05125 0.431503 5.32754C0.707789 5.60382 1.08251 5.75904 1.47324 5.75904H14.6822C14.0447 7.56376 12.8708 10.4131 11.0801 13.0154C8.97673 10.2243 8.19525 8.41824 8.18922 8.40351C8.03523 8.04764 7.74716 7.76684 7.38748 7.62199C7.0278 7.47714 6.62552 7.47992 6.26788 7.62975C5.91025 7.77957 5.6261 8.06435 5.47706 8.42231C5.32802 8.78027 5.32612 9.18256 5.47176 9.54192C5.5106 9.63434 6.44611 11.8342 9.01156 15.1623C9.07316 15.242 9.1341 15.3197 9.19504 15.3974C6.56731 18.3673 3.98914 20.2095 2.91032 20.8042C2.56728 20.9913 2.31262 21.307 2.20235 21.6819C2.09209 22.0568 2.13526 22.4601 2.32237 22.8031C2.50947 23.1462 2.82519 23.4008 3.20006 23.5111C3.57493 23.6213 3.97825 23.5782 4.32129 23.3911C4.46593 23.312 7.57581 21.5904 11.127 17.6595C12.6351 19.272 13.6717 20.0327 13.734 20.0769C13.8907 20.1908 14.0683 20.2726 14.2566 20.3177C14.445 20.3628 14.6403 20.3703 14.8316 20.3398C15.0229 20.3094 15.2062 20.2415 15.3712 20.1401C15.5362 20.0386 15.6796 19.9057 15.7932 19.7488V19.7495Z" fill="#DDB216"/>
</svg>
