<svg width="119" height="67" viewBox="0 0 119 67" fill="none" xmlns="http://www.w3.org/2000/svg">
<g clip-path="url(#clip0_4862_20896)">
<path d="M55.641 65.8782C39.8438 65.7046 26.2242 60.145 14.705 49.3915C14.4803 49.182 14.2165 48.9603 14.1135 48.6905C14.0171 48.4386 13.9968 48.0004 14.1484 47.85C14.3458 47.6536 14.7553 47.5716 15.0561 47.6036C15.3405 47.6335 15.6084 47.8649 15.8734 48.0247C24.5015 53.2261 33.8027 56.6036 43.7457 58.2558C50.0511 59.3021 56.3929 59.633 62.7586 59.0561C71.3978 58.2708 79.6995 56.1343 87.6254 52.5945C89.1082 51.9318 89.8516 51.9548 90.318 52.7329C90.759 53.4682 90.4702 54.1008 89.1818 55.0763C83.0198 59.7397 76.0481 62.6287 68.5634 64.3639C64.3193 65.3478 60.0154 65.8874 55.641 65.8782Z" fill="#333333"/>
<path d="M27.837 44.0465L22.7374 44.068C22.7036 43.5838 22.649 43.1376 22.6461 42.6891C22.6241 39.1673 22.6206 35.6456 22.594 32.1239C22.5786 30.0621 21.8908 29.3764 19.8266 29.5491C18.7666 29.6378 17.7281 29.9778 16.6092 30.219L16.6674 44.0455L11.4453 44.0674C11.4156 43.5822 11.3666 43.1298 11.3637 42.6767C11.3424 39.1938 11.339 35.7109 11.3121 32.2275C11.2957 30.0309 10.6898 29.4679 8.51414 29.5757C8.20486 29.5823 7.89662 29.6138 7.59244 29.67C5.30668 30.1587 5.26849 30.212 5.27881 32.544C5.29296 35.9108 5.30711 39.2778 5.32127 42.6449L5.32744 44.1136L0.181727 44.1352L0.106306 26.1944L4.32942 26.1767C4.47365 26.6088 4.62824 27.072 4.82592 27.6663C5.31915 27.4011 5.75367 27.1817 6.17476 26.9383C7.82028 25.9863 9.591 25.4486 11.4932 25.4855C13.2351 25.5201 14.7743 26.0761 15.8095 27.6385C16.6324 27.21 17.399 26.7583 18.2074 26.4024C19.9367 25.6385 21.7372 25.2463 23.6426 25.5382C26.0549 25.9076 27.6459 27.3604 27.7348 29.8571C27.9 34.5312 27.8167 39.2145 27.837 44.0465Z" fill="#333333"/>
<path d="M118.462 19.1256C117.79 21.061 117.192 22.803 116.583 24.5404C114.461 30.5896 112.341 36.6392 110.223 42.689C109.963 43.4334 109.637 43.8593 108.748 43.8033C107.55 43.7276 106.34 43.7598 105.141 43.8113C104.413 43.8425 104.018 43.5999 103.766 42.8924C101.89 37.6161 99.9798 32.3516 98.0812 27.0835C97.2564 24.7947 96.4332 22.5056 95.6118 20.2163C95.5108 19.9337 95.4404 19.6403 95.3323 19.2704L101.22 19.2456C103.113 25.4769 105.009 31.7202 106.908 37.9756L107.164 37.9454C107.977 35.1752 108.796 32.4065 109.603 29.6343C110.54 26.4089 111.456 23.1775 112.417 19.9592C112.509 19.6523 112.844 19.1942 113.08 19.184C114.807 19.1104 116.538 19.1337 118.462 19.1256Z" fill="#333333"/>
<path d="M48.4124 43.9651L43.2697 43.9867L43.1941 25.9938L47.3229 25.9765C47.5228 26.4865 47.7279 27.0138 47.9718 27.6376C48.5216 27.3119 49.004 27.0115 49.5002 26.7356C51.4827 25.6346 53.5827 25.0694 55.8648 25.4098C58.3991 25.7879 59.9129 27.2788 60.0189 30.0666C60.1877 34.5103 60.0999 38.9622 60.1134 43.4107C60.114 43.5552 60.0353 43.6996 59.9747 43.9108L54.9032 43.9322C54.8757 43.4771 54.832 43.0671 54.8292 42.6554C54.8094 39.2894 54.8055 35.924 54.7745 32.5581C54.7697 32.0248 54.6757 31.4883 54.5813 30.961C54.3951 29.9232 53.68 29.4419 52.6953 29.4139C51.9698 29.3934 51.2097 29.4278 50.5169 29.6151C48.3473 30.1989 48.3551 30.2311 48.3645 32.4543C48.3784 35.7809 48.3924 39.1078 48.4064 42.4351L48.4124 43.9651Z" fill="#333333"/>
<path d="M93.5719 19.3161L93.5896 23.5275L86.1039 23.559L86.189 43.8087L80.9127 43.8309L80.8277 23.6174L73.3128 23.649L73.2949 19.4014L93.5719 19.3161Z" fill="#333333"/>
<path d="M37.9359 26.0222L38.0114 43.9875L32.9564 44.0087L32.8809 26.0435L37.9359 26.0222Z" fill="#333333"/>
<path d="M65.13 43.8484L65.0547 25.9316L70.1026 25.9104L70.1779 43.8272L65.13 43.8484Z" fill="#333333"/>
<path d="M46.8913 11.2565L44.4211 11.2669C44.4159 10.0271 44.4109 8.84447 44.406 7.66238C44.3993 6.69537 44.4326 5.72564 44.3615 4.76349C44.3131 4.09959 44.1484 3.42239 43.2427 3.41904C42.3518 3.41564 42.1265 4.04953 42.0987 4.73674C42.03 6.4356 42.0295 8.13674 41.9931 9.83701C41.9832 10.2886 41.9456 10.7399 41.913 11.2636L39.5479 11.2736C39.4975 10.8789 39.4135 10.5079 39.4104 10.1401C39.3883 7.54913 39.3774 4.95814 39.3778 2.36711C39.3754 1.79854 39.27 1.09503 40.1784 1.15098C40.8917 1.19549 41.9229 0.69103 41.9564 1.83979C42.7629 1.53449 43.6032 0.949096 44.4153 0.985018C45.2274 1.02094 46.0093 1.67972 46.8306 2.07831C47.2997 1.78873 47.8927 1.25188 48.5874 1.02878C50.1861 0.514783 51.7845 1.50729 51.875 3.16053C52.0124 5.62838 51.9629 8.10826 51.9307 10.5819C51.9277 10.8231 51.5236 11.2227 51.2523 11.2704C49.5968 11.5629 49.3377 11.3264 49.3308 9.68406C49.3241 8.10045 49.3369 6.5137 49.319 4.92861C49.3114 4.22571 49.3282 3.46396 48.3193 3.40945C47.5189 3.36633 47.056 3.89036 47.0299 4.98523C46.9907 6.64719 47.0187 8.31091 47.0021 9.97328C46.9977 10.383 46.9328 10.7925 46.8913 11.2565Z" fill="#333333"/>
<path d="M88.9309 49.6637C86.9052 49.8688 84.9411 50.0891 82.9726 50.2506C82.5629 50.284 82.1308 50.0974 81.7093 50.0118C81.9443 49.6082 82.0866 49.083 82.4297 48.8215C84.0638 47.5779 85.9666 46.9196 87.9629 46.5352C90.5038 46.0458 93.0491 46.0091 95.5692 46.6738C97.0349 47.0605 97.407 47.4651 97.3753 48.9421C97.2738 53.6827 95.8441 57.9635 92.767 61.6382C92.6681 61.7566 92.5744 61.8991 92.4446 61.9691C91.9652 62.2291 91.4734 62.4636 90.9831 62.7073C90.9968 62.182 90.8992 61.6241 91.0426 61.1367C91.6315 59.1419 92.3353 57.1772 92.913 55.1769C93.1886 54.2199 93.3381 53.2144 93.4292 52.22C93.5541 50.8652 93.0006 50.187 91.6544 49.9669C90.7368 49.817 89.8073 49.7581 88.9309 49.6637Z" fill="#333333"/>
<path d="M34.5654 4.8452C34.6645 4.04121 34.7258 3.38604 33.9477 3.04756C33.1569 2.70299 32.5222 3.06428 31.6321 4.35843C31.3221 4.32244 30.9812 4.28659 30.6414 4.24357C30.3016 4.20056 29.9684 4.1524 29.5553 4.09488C29.512 2.9431 30.0292 2.15983 30.8845 1.6321C32.4455 0.669222 34.118 0.651468 35.7842 1.33462C36.8783 1.78366 37.287 2.74284 37.3454 3.85012C37.3927 4.73676 37.3068 5.63265 37.3833 6.51559C37.4797 7.63242 37.681 8.74011 37.878 10.1451C36.8039 11.6444 36.4503 11.7108 35.1767 10.4758C34.2847 10.8198 33.4691 11.287 32.5983 11.4368C30.9331 11.7232 29.8689 11.0702 29.3554 9.68187C28.8326 8.26748 29.3543 6.60093 30.6897 5.84795C31.3443 5.47891 32.1285 5.32288 32.8694 5.12666C33.3883 4.99012 33.9322 4.94696 34.5654 4.8452ZM34.7732 6.6272C33.1241 6.47168 32.3475 6.84889 32.0466 7.79012C31.8317 8.46382 31.9962 9.06285 32.601 9.39849C33.2413 9.7534 33.9032 9.50746 34.1818 8.89122C34.494 8.20077 34.5803 7.4091 34.7732 6.6272Z" fill="#333333"/>
<path d="M62.1555 10.1102C60.9004 11.5668 60.8948 11.5678 59.4258 10.396C58.563 10.7347 57.7765 11.1881 56.935 11.3428C55.3441 11.6356 54.2318 10.9966 53.7208 9.70781C53.159 8.29256 53.6123 6.57675 54.8924 5.82042C55.571 5.41911 56.3919 5.23942 57.1661 5.02211C57.6803 4.87743 58.2258 4.84294 58.8007 4.75215C58.9281 4.00015 59.0983 3.30468 58.2224 2.94362C57.4336 2.61896 56.7744 2.99261 55.9641 4.25527L53.791 4.00234C53.8702 3.58873 53.8869 3.28674 53.9877 3.0125C54.6041 1.33892 56.6721 0.461781 59.0189 0.861107C60.8004 1.16421 61.6548 2.24363 61.6774 4.22512C61.6855 4.92138 61.6438 5.62193 61.7051 6.31336C61.8073 7.46592 61.974 8.61259 62.1555 10.1102ZM58.8578 6.2768C58.1517 6.46725 57.5623 6.52643 57.0746 6.78084C56.3258 7.17173 56.1199 7.92508 56.4166 8.66252C56.5512 8.99911 57.0625 9.37806 57.4196 9.39546C58.2102 9.43453 58.6795 8.83129 58.844 8.12358C58.9592 7.62144 58.8611 7.07014 58.8578 6.27578L58.8578 6.2768Z" fill="#333333"/>
<path d="M81.574 1.03439L83.7537 1.02522C83.8636 1.34966 83.97 1.66543 84.0945 2.03425C84.2287 1.91058 84.3533 1.82116 84.446 1.70634C85.2288 0.740091 86.2377 0.54531 87.3749 0.884332C88.4858 1.21529 89.0515 2.10332 89.0918 3.14529C89.1918 5.72875 89.1427 8.31795 89.1541 11.0254L86.6061 11.0361C86.5989 9.33348 86.6058 7.68239 86.5779 6.0299C86.5676 5.41692 86.4836 4.80426 86.4165 4.19152C86.3572 3.62983 86.1051 3.22783 85.4765 3.22485C84.7777 3.21911 84.3943 3.64677 84.2832 4.26894C84.1831 4.8359 84.1784 5.4239 84.1737 6.00272C84.163 7.24055 84.1841 8.47876 84.1821 9.71656C84.1789 11.1582 84.1442 11.189 82.6586 11.1728C82.3512 11.1695 82.0462 11.1375 81.6158 11.1113L81.574 1.03439Z" fill="#333333"/>
<path d="M80.338 6.42774C80.042 7.3051 79.8489 8.53145 79.2532 9.51632C77.6252 12.2067 73.8848 12.0334 72.4351 9.23847C71.3976 7.23672 71.402 5.13353 72.3335 3.08417C73.0547 1.4975 74.501 0.674057 76.1658 0.769229C76.9851 0.82202 77.7688 1.12268 78.4124 1.6311C79.056 2.13952 79.5288 2.83154 79.7678 3.61485C80.0104 4.42148 80.1087 5.27112 80.338 6.42774ZM77.4169 6.16264C77.3012 5.32992 77.2111 4.60847 77.0974 3.89069C76.9948 3.23877 76.6136 2.72798 75.9436 2.88303C75.5061 2.98449 74.9371 3.40221 74.8102 3.80018C74.3162 5.31687 74.3471 6.95505 74.8979 8.45212C75.0327 8.82243 75.6006 9.26194 75.9668 9.25938C76.3331 9.25682 76.8901 8.80901 77.0207 8.43759C77.2799 7.69321 77.3061 6.86807 77.4154 6.16264L77.4169 6.16264Z" fill="#333333"/>
<path d="M70.6002 10.9648C68.3532 9.9704 66.0627 9.91872 63.6685 11.0716C63.3989 9.82264 63.3054 8.78856 64.0327 7.78219C65.0906 6.31824 66.1027 4.82129 67.2835 3.12336L63.8759 3.13769L63.8669 0.996243L66.2674 0.986151C67.4312 0.981259 68.5957 0.999857 69.759 0.965337C70.4668 0.944481 70.8201 1.25922 70.6923 1.92897C70.587 2.47807 70.4132 3.05401 70.114 3.51759C69.2162 4.90883 68.2423 6.25136 67.281 7.63777C71.1893 8.78352 71.4712 9.0587 70.6002 10.9648Z" fill="#333333"/>
<path d="M67.7045 17.4836C69.5349 17.5096 70.6173 18.5912 70.5853 20.3604C70.5548 22.0105 69.2916 23.1096 67.4851 23.0579C65.7626 23.0079 64.5513 21.8534 64.5487 20.258C64.5451 18.5487 65.7879 17.4564 67.7045 17.4836Z" fill="#333333"/>
<path d="M35.4162 17.6255C37.2148 17.6323 38.4773 18.8029 38.4386 20.4291C38.3998 22.0553 37.0958 23.2138 35.3361 23.1967C33.539 23.1792 32.3601 22.0491 32.375 20.3525C32.3899 18.6559 33.5438 17.6181 35.4162 17.6255Z" fill="#333333"/>
</g>
<defs>
<clipPath id="clip0_4862_20896">
<rect width="118.388" height="65.1135" fill="white" transform="translate(0 1) rotate(-0.240863)"/>
</clipPath>
</defs>
</svg>
