<svg width="74" height="60" viewBox="0 0 74 60" fill="none" xmlns="http://www.w3.org/2000/svg">
<path d="M73.942 48.3649C73.9257 47.5898 73.3131 47.1048 72.4754 47.07C71.9347 47.0468 71.394 47.07 70.7768 47.07C71.0807 46.3089 71.0784 45.6127 71.0784 44.9189C71.0784 31.6144 71.0784 18.3053 71.0784 4.9915C71.0784 1.74273 69.3334 0 66.1101 0H7.86435C4.64574 0 2.88444 1.75434 2.88444 4.98222C2.88444 18.2867 2.88444 31.5958 2.88444 44.9096C2.85358 45.6396 2.94776 46.3695 3.16291 47.0677H1.85644C0.501239 47.0677 0.0139233 47.5504 0 48.8777C0 49.5739 0 50.2701 0 50.9662C0 56.0181 3.37872 59.3991 8.42128 59.3991H31.3274C42.8141 59.3991 54.3001 59.3991 65.7852 59.3991C69.9622 59.3991 73.1414 56.7189 73.8468 52.6208C74.0975 51.2029 73.9722 49.7781 73.942 48.3649ZM5.71784 4.97061C5.71784 3.36711 6.25156 2.82178 7.83882 2.82178C27.251 2.82178 46.6663 2.82178 66.0846 2.82178C67.7252 2.82178 68.2427 3.35319 68.2427 5.01934C68.2427 18.3238 68.2427 31.6283 68.2427 44.9328C68.2427 46.5572 67.7322 47.0584 66.1217 47.0584H7.88987C6.22139 47.0584 5.73176 46.5665 5.73176 44.8864C5.72712 31.5773 5.72557 18.2689 5.72711 4.96133L5.71784 4.97061ZM42.7956 50.8479C42.596 51.4187 42.1992 51.7761 41.5796 51.7761C38.5165 51.7854 35.4549 51.7854 32.3949 51.7761C32.1465 51.7805 31.9026 51.7095 31.6954 51.5723C31.4882 51.4352 31.3275 51.2384 31.2346 51.008C30.8772 50.2584 31.0443 49.987 31.8658 49.987H36.971C38.7044 49.987 40.4379 50.0194 42.169 49.973C42.9302 49.9684 42.9951 50.2793 42.7956 50.8479ZM65.3049 56.5634H8.45144C4.81978 56.5634 2.53404 54.0386 2.81947 50.4116C2.86356 49.8663 3.1513 49.9057 3.51563 49.9104C5.04719 49.9313 6.58108 49.9684 8.11264 49.9707C14.5359 49.9707 20.9592 49.987 27.3732 49.9568C28.081 49.9568 28.2805 50.1215 28.3014 50.8386C28.3896 52.8946 30.13 54.5909 32.309 54.6443C35.4325 54.7186 38.5582 54.7278 41.6817 54.6443C43.9373 54.5793 45.5686 52.8807 45.6591 50.6297C45.687 49.973 45.9747 49.9707 46.4528 49.973C52.1242 49.9823 57.7956 49.9823 63.467 49.973C65.7876 49.973 68.0942 49.9498 70.4078 49.9011C70.9694 49.8895 71.1364 50.0426 71.1434 50.6274C71.1898 54.4262 69.1083 56.5634 65.3049 56.5634Z" fill="#080808"/>
<path d="M37.0544 6.0568C35.28 6.04825 33.5212 6.38984 31.879 7.062C30.2367 7.73415 28.7431 8.72368 27.4839 9.97391C26.2246 11.2241 25.2243 12.7105 24.5403 14.3479C23.8563 15.9853 23.5021 17.7415 23.4978 19.516C23.4978 26.8837 29.5312 32.9752 36.8665 32.9961C38.6414 33.0086 40.4015 32.6711 42.0459 32.003C43.6903 31.3348 45.1869 30.349 46.4501 29.102C47.7132 27.855 48.7182 26.3712 49.4075 24.7355C50.0968 23.0998 50.4569 21.3443 50.4672 19.5694C50.5183 12.1807 44.4756 6.09161 37.0544 6.0568ZM36.9663 30.1557C34.1713 30.1056 31.5083 28.9575 29.553 26.9597C27.5977 24.9619 26.5072 22.2748 26.5173 19.4794C26.5274 16.684 27.6372 14.0048 29.6068 12.0211C31.5764 10.0374 34.2476 8.90856 37.0428 8.87859C42.8442 8.89251 47.6129 13.7053 47.599 19.516C47.6002 20.913 47.3261 22.2965 46.7923 23.5875C46.2584 24.8784 45.4754 26.0515 44.4879 27.0397C43.5004 28.0278 42.3278 28.8116 41.0372 29.3463C39.7466 29.881 38.3633 30.156 36.9663 30.1557Z" fill="#080808"/>
<path d="M53.7392 36.8063C53.4793 36.7877 53.2171 36.8063 52.9572 36.8063C46.9957 36.8063 41.0342 36.8063 35.0751 36.8202C34.4763 36.8202 34.2072 36.6601 33.9658 36.0823C33.1304 34.0889 31.6058 32.8938 29.4431 32.6455C27.2107 32.388 25.1431 33.0957 24.201 35.0914C23.3772 36.8341 22.2656 36.9478 20.7642 36.8086C20.6198 36.7982 20.4747 36.7982 20.3303 36.8086C19.4206 36.8457 18.8034 37.4398 18.8242 38.252C18.8451 39.0642 19.4299 39.5956 20.3094 39.6211C21.0914 39.6443 21.8734 39.6606 22.6532 39.6211C23.1405 39.5956 23.3493 39.7673 23.5187 40.2221C23.9177 41.293 24.6346 42.2163 25.5732 42.8682C26.5118 43.5201 27.6273 43.8695 28.7701 43.8695C29.9129 43.8695 31.0284 43.5201 31.967 42.8682C32.9056 42.2163 33.6225 41.293 34.0215 40.2221C34.2002 39.7719 34.4021 39.6258 34.8871 39.6304C37.9827 39.6559 41.0806 39.6304 44.1693 39.6304H48.7779C50.4278 39.6304 52.0754 39.6466 53.7253 39.6165C53.914 39.6217 54.1018 39.5881 54.2769 39.5178C54.4521 39.4475 54.611 39.3419 54.7437 39.2077C54.8764 39.0735 54.9802 38.9134 55.0485 38.7374C55.1168 38.5614 55.1482 38.3733 55.1408 38.1847C55.1318 37.8179 54.9805 37.4691 54.719 37.2118C54.4574 36.9546 54.1061 36.8092 53.7392 36.8063ZM28.7748 40.9902C27.1921 40.9902 26.0156 39.7905 26.0249 38.1708C26.0215 37.8088 26.0903 37.4498 26.2273 37.1148C26.3643 36.7797 26.5668 36.4754 26.8229 36.2195C27.0789 35.9637 27.3834 35.7615 27.7186 35.6248C28.0538 35.488 28.4128 35.4195 28.7748 35.4232C29.5133 35.4232 30.2216 35.7166 30.7438 36.2388C31.266 36.7611 31.5594 37.4694 31.5594 38.2079C31.5594 38.9464 31.266 39.6547 30.7438 40.1769C30.2216 40.6992 29.5133 40.9926 28.7748 40.9926V40.9902Z" fill="#080808"/>
<path d="M42.4869 16.7383C40.2777 15.4342 38.0569 14.1517 35.8246 12.8909C33.381 11.4985 31.021 12.8909 30.9839 15.7173C30.9676 16.9866 30.9839 18.2699 30.9839 19.53C30.9839 20.79 30.963 22.1313 30.9839 23.4308C31.0349 26.125 33.4205 27.508 35.7596 26.1876C38.0183 24.9113 40.2614 23.6141 42.4892 22.2961C44.8654 20.9014 44.8608 18.1376 42.4869 16.7383ZM41.0249 19.8664C38.8219 21.1242 36.6252 22.3904 34.4346 23.6652C33.9588 23.9437 33.8335 23.7975 33.8382 23.3032C33.8498 22.0338 33.8382 20.7622 33.8382 19.4905C33.8382 18.2769 33.8498 17.0632 33.8382 15.8519C33.8382 15.3321 33.8892 15.0467 34.4972 15.404C36.66 16.6687 38.8366 17.9149 41.011 19.161C41.4287 19.4 41.5029 19.5949 41.0249 19.8664Z" fill="#080808"/>
</svg>
