<svg width="209" height="209" viewBox="0 0 209 209" fill="none" xmlns="http://www.w3.org/2000/svg">
<circle cx="104.5" cy="104.5" r="89.5" fill="white"/>
<circle cx="172.5" cy="48.5" r="32" fill="#F6CB2F" stroke="white" stroke-width="3"/>
<path d="M206.927 104.5C208.072 104.5 209.002 105.428 208.979 106.573C208.584 126.517 202.487 145.947 191.389 162.557C179.906 179.742 163.585 193.136 144.49 201.045C125.396 208.955 104.384 211.024 84.1131 206.992C63.842 202.96 45.2219 193.007 30.6073 178.393C15.9928 163.778 6.04009 145.158 2.00794 124.887C-2.02422 104.616 0.0452314 83.6045 7.95459 64.5096C15.8639 45.4147 29.258 29.094 46.4429 17.6114C63.0529 6.51296 82.4834 0.416057 102.427 0.0205484C103.572 -0.00214768 104.5 0.927961 104.5 2.07266C104.5 3.21736 103.572 4.14308 102.427 4.16672C83.3034 4.56164 64.6742 10.4152 48.7459 21.0581C32.2427 32.0852 19.38 47.7585 11.7844 66.0959C4.18875 84.4333 2.2014 104.611 6.0736 124.078C9.94581 143.545 19.5037 161.427 33.5385 175.461C47.5734 189.496 65.4549 199.054 84.9218 202.926C104.389 206.799 124.567 204.811 142.904 197.216C161.242 189.62 176.915 176.757 187.942 160.254C198.585 144.326 204.438 125.697 204.833 106.573C204.857 105.428 205.783 104.5 206.927 104.5Z" fill="#F6CB2F"/>
<path d="M64.9834 142.144C64.2581 142.144 63.5648 142.027 62.9034 141.792C62.2421 141.557 61.6821 141.227 61.2234 140.8L61.7194 139.76C62.7114 140.571 63.7941 140.976 64.9674 140.976C65.7461 140.976 66.3594 140.757 66.8074 140.32C67.2554 139.883 67.4794 139.307 67.4794 138.592C67.4794 137.856 67.2661 137.253 66.8394 136.784C66.4128 136.315 65.8261 136.08 65.0794 136.08C64.0021 136.08 63.1541 136.528 62.5354 137.424H61.5754V130.72H68.1194V131.84H62.8714V135.872C63.4901 135.253 64.3061 134.944 65.3194 134.944C66.0234 134.944 66.6368 135.093 67.1594 135.392C67.6821 135.691 68.0821 136.112 68.3594 136.656C68.6474 137.189 68.7914 137.813 68.7914 138.528C68.7914 139.232 68.6368 139.856 68.3274 140.4C68.0181 140.944 67.5754 141.371 66.9994 141.68C66.4341 141.989 65.7621 142.144 64.9834 142.144ZM74.3372 142.144C73.0465 142.144 72.0652 141.648 71.3932 140.656C70.7212 139.664 70.3852 138.229 70.3852 136.352C70.3852 134.464 70.7212 133.029 71.3932 132.048C72.0652 131.067 73.0465 130.576 74.3372 130.576C75.6385 130.576 76.6199 131.067 77.2812 132.048C77.9532 133.019 78.2892 134.448 78.2892 136.336C78.2892 138.224 77.9479 139.664 77.2652 140.656C76.5932 141.648 75.6172 142.144 74.3372 142.144ZM74.3372 141.008C75.2332 141.008 75.8945 140.629 76.3212 139.872C76.7585 139.115 76.9772 137.936 76.9772 136.336C76.9772 134.736 76.7639 133.568 76.3372 132.832C75.9105 132.085 75.2439 131.712 74.3372 131.712C73.4412 131.712 72.7745 132.085 72.3372 132.832C71.9105 133.579 71.6972 134.747 71.6972 136.336C71.6972 137.936 71.9105 139.115 72.3372 139.872C72.7745 140.629 73.4412 141.008 74.3372 141.008ZM83.9309 142.144C82.6403 142.144 81.6589 141.648 80.9869 140.656C80.3149 139.664 79.9789 138.229 79.9789 136.352C79.9789 134.464 80.3149 133.029 80.9869 132.048C81.6589 131.067 82.6403 130.576 83.9309 130.576C85.2323 130.576 86.2136 131.067 86.8749 132.048C87.5469 133.019 87.8829 134.448 87.8829 136.336C87.8829 138.224 87.5416 139.664 86.8589 140.656C86.1869 141.648 85.2109 142.144 83.9309 142.144ZM83.9309 141.008C84.8269 141.008 85.4883 140.629 85.9149 139.872C86.3523 139.115 86.5709 137.936 86.5709 136.336C86.5709 134.736 86.3576 133.568 85.9309 132.832C85.5043 132.085 84.8376 131.712 83.9309 131.712C83.0349 131.712 82.3683 132.085 81.9309 132.832C81.5043 133.579 81.2909 134.747 81.2909 136.336C81.2909 137.936 81.5043 139.115 81.9309 139.872C82.3683 140.629 83.0349 141.008 83.9309 141.008ZM96.3381 142L92.9941 134.224H94.4021L96.9781 140.528L99.5861 134.224H100.914L97.5541 142H96.3381ZM102.124 132.288V130.832H103.724V132.288H102.124ZM102.284 142V134.224H103.58V142H102.284ZM108.963 142.144C108.27 142.144 107.662 141.979 107.139 141.648C106.627 141.317 106.227 140.853 105.939 140.256C105.662 139.648 105.523 138.933 105.523 138.112C105.523 137.28 105.662 136.565 105.939 135.968C106.227 135.36 106.627 134.896 107.139 134.576C107.662 134.245 108.27 134.08 108.963 134.08C109.571 134.08 110.105 134.213 110.563 134.48C111.033 134.747 111.379 135.115 111.603 135.584V130.72H112.899V142H111.635V140.576C111.411 141.067 111.065 141.451 110.595 141.728C110.126 142.005 109.582 142.144 108.963 142.144ZM109.235 141.104C109.961 141.104 110.542 140.848 110.979 140.336C111.417 139.813 111.635 139.072 111.635 138.112C111.635 137.141 111.417 136.4 110.979 135.888C110.542 135.376 109.961 135.12 109.235 135.12C108.499 135.12 107.913 135.376 107.475 135.888C107.049 136.4 106.835 137.141 106.835 138.112C106.835 139.072 107.049 139.813 107.475 140.336C107.913 140.848 108.499 141.104 109.235 141.104ZM118.835 142.144C117.609 142.144 116.638 141.787 115.923 141.072C115.209 140.347 114.851 139.365 114.851 138.128C114.851 137.328 115.011 136.624 115.331 136.016C115.651 135.397 116.089 134.923 116.643 134.592C117.209 134.251 117.859 134.08 118.595 134.08C119.651 134.08 120.478 134.421 121.075 135.104C121.673 135.776 121.971 136.704 121.971 137.888V138.384H116.115C116.158 139.269 116.414 139.947 116.883 140.416C117.353 140.875 118.003 141.104 118.835 141.104C119.305 141.104 119.753 141.035 120.179 140.896C120.606 140.747 121.011 140.507 121.395 140.176L121.843 141.088C121.491 141.419 121.043 141.68 120.499 141.872C119.955 142.053 119.401 142.144 118.835 142.144ZM118.627 135.04C117.891 135.04 117.31 135.269 116.883 135.728C116.457 136.187 116.206 136.789 116.131 137.536H120.851C120.819 136.747 120.611 136.133 120.227 135.696C119.854 135.259 119.321 135.04 118.627 135.04ZM127.079 142.144C126.322 142.144 125.666 141.979 125.111 141.648C124.556 141.317 124.124 140.853 123.815 140.256C123.516 139.648 123.367 138.933 123.367 138.112C123.367 137.291 123.516 136.581 123.815 135.984C124.124 135.376 124.556 134.907 125.111 134.576C125.666 134.245 126.322 134.08 127.079 134.08C127.826 134.08 128.476 134.245 129.031 134.576C129.596 134.907 130.028 135.376 130.327 135.984C130.636 136.581 130.791 137.291 130.791 138.112C130.791 138.933 130.636 139.648 130.327 140.256C130.028 140.853 129.596 141.317 129.031 141.648C128.476 141.979 127.826 142.144 127.079 142.144ZM127.079 141.104C127.804 141.104 128.386 140.848 128.823 140.336C129.26 139.813 129.479 139.072 129.479 138.112C129.479 137.141 129.26 136.4 128.823 135.888C128.386 135.376 127.804 135.12 127.079 135.12C126.343 135.12 125.756 135.376 125.319 135.888C124.892 136.4 124.679 137.141 124.679 138.112C124.679 139.072 124.892 139.813 125.319 140.336C125.756 140.848 126.343 141.104 127.079 141.104ZM135.362 142.144C134.754 142.144 134.178 142.059 133.634 141.888C133.09 141.717 132.642 141.477 132.29 141.168L132.706 140.256C133.09 140.565 133.511 140.795 133.97 140.944C134.439 141.083 134.914 141.152 135.394 141.152C136.002 141.152 136.46 141.04 136.77 140.816C137.079 140.592 137.234 140.288 137.234 139.904C137.234 139.605 137.132 139.371 136.93 139.2C136.727 139.019 136.407 138.88 135.97 138.784L134.514 138.464C133.191 138.176 132.53 137.493 132.53 136.416C132.53 135.712 132.807 135.147 133.362 134.72C133.927 134.293 134.663 134.08 135.57 134.08C136.103 134.08 136.61 134.165 137.09 134.336C137.58 134.496 137.986 134.736 138.306 135.056L137.874 135.968C137.564 135.68 137.202 135.461 136.786 135.312C136.38 135.152 135.975 135.072 135.57 135.072C134.972 135.072 134.519 135.189 134.21 135.424C133.9 135.659 133.746 135.968 133.746 136.352C133.746 136.949 134.14 137.333 134.93 137.504L136.386 137.808C137.068 137.957 137.586 138.197 137.938 138.528C138.29 138.848 138.466 139.285 138.466 139.84C138.466 140.555 138.183 141.12 137.618 141.536C137.052 141.941 136.3 142.144 135.362 142.144ZM147.926 142.144C146.795 142.144 145.91 141.883 145.27 141.36C144.641 140.837 144.326 140.149 144.326 139.296C144.326 138.571 144.523 137.947 144.918 137.424C145.313 136.901 145.905 136.379 146.694 135.856L146.934 135.696C146.454 135.173 146.118 134.709 145.926 134.304C145.734 133.899 145.638 133.488 145.638 133.072C145.638 132.325 145.889 131.723 146.39 131.264C146.891 130.805 147.563 130.576 148.406 130.576C149.142 130.576 149.745 130.784 150.214 131.2C150.694 131.605 150.934 132.16 150.934 132.864C150.934 133.419 150.774 133.931 150.454 134.4C150.134 134.859 149.547 135.355 148.694 135.888L151.318 138.848C151.542 138.4 151.723 137.877 151.862 137.28C152.001 136.683 152.081 136.053 152.102 135.392H153.222C153.201 136.224 153.089 137.008 152.886 137.744C152.694 138.469 152.438 139.109 152.118 139.664L154.278 142H152.694L151.43 140.576C150.982 141.077 150.459 141.467 149.862 141.744C149.265 142.011 148.619 142.144 147.926 142.144ZM148.406 131.584C147.947 131.584 147.574 131.717 147.286 131.984C146.998 132.251 146.854 132.603 146.854 133.04C146.854 133.264 146.886 133.472 146.95 133.664C147.014 133.845 147.126 134.053 147.286 134.288C147.457 134.512 147.686 134.789 147.974 135.12C148.646 134.693 149.115 134.315 149.382 133.984C149.659 133.653 149.798 133.301 149.798 132.928C149.798 132.512 149.67 132.187 149.414 131.952C149.158 131.707 148.822 131.584 148.406 131.584ZM147.99 141.072C149.089 141.072 149.985 140.645 150.678 139.792L147.654 136.496L147.462 136.624C146.779 137.072 146.299 137.483 146.022 137.856C145.745 138.229 145.606 138.677 145.606 139.2C145.606 139.787 145.809 140.245 146.214 140.576C146.619 140.907 147.211 141.072 147.99 141.072ZM86.4006 164.144C85.7926 164.144 85.2166 164.059 84.6726 163.888C84.1286 163.717 83.6806 163.477 83.3286 163.168L83.7446 162.256C84.1286 162.565 84.55 162.795 85.0086 162.944C85.478 163.083 85.9526 163.152 86.4326 163.152C87.0406 163.152 87.4993 163.04 87.8086 162.816C88.118 162.592 88.2726 162.288 88.2726 161.904C88.2726 161.605 88.1713 161.371 87.9686 161.2C87.766 161.019 87.446 160.88 87.0086 160.784L85.5526 160.464C84.23 160.176 83.5686 159.493 83.5686 158.416C83.5686 157.712 83.846 157.147 84.4006 156.72C84.966 156.293 85.702 156.08 86.6086 156.08C87.142 156.08 87.6486 156.165 88.1286 156.336C88.6193 156.496 89.0246 156.736 89.3446 157.056L88.9126 157.968C88.6033 157.68 88.2406 157.461 87.8246 157.312C87.4193 157.152 87.014 157.072 86.6086 157.072C86.0113 157.072 85.558 157.189 85.2486 157.424C84.9393 157.659 84.7846 157.968 84.7846 158.352C84.7846 158.949 85.1793 159.333 85.9686 159.504L87.4246 159.808C88.1073 159.957 88.6246 160.197 88.9766 160.528C89.3286 160.848 89.5046 161.285 89.5046 161.84C89.5046 162.555 89.222 163.12 88.6566 163.536C88.0913 163.941 87.3393 164.144 86.4006 164.144ZM91.4798 164V152.72H92.7758V157.504C93.0318 157.035 93.3891 156.683 93.8478 156.448C94.3171 156.203 94.8398 156.08 95.4158 156.08C97.2611 156.08 98.1838 157.104 98.1838 159.152V164H96.8878V159.232C96.8878 158.507 96.7438 157.979 96.4558 157.648C96.1784 157.307 95.7304 157.136 95.1118 157.136C94.3971 157.136 93.8264 157.36 93.3998 157.808C92.9838 158.245 92.7758 158.832 92.7758 159.568V164H91.4798ZM103.806 164.144C103.048 164.144 102.392 163.979 101.838 163.648C101.283 163.317 100.851 162.853 100.542 162.256C100.243 161.648 100.094 160.933 100.094 160.112C100.094 159.291 100.243 158.581 100.542 157.984C100.851 157.376 101.283 156.907 101.838 156.576C102.392 156.245 103.048 156.08 103.806 156.08C104.552 156.08 105.203 156.245 105.758 156.576C106.323 156.907 106.755 157.376 107.054 157.984C107.363 158.581 107.518 159.291 107.518 160.112C107.518 160.933 107.363 161.648 107.054 162.256C106.755 162.853 106.323 163.317 105.758 163.648C105.203 163.979 104.552 164.144 103.806 164.144ZM103.806 163.104C104.531 163.104 105.112 162.848 105.55 162.336C105.987 161.813 106.206 161.072 106.206 160.112C106.206 159.141 105.987 158.4 105.55 157.888C105.112 157.376 104.531 157.12 103.806 157.12C103.07 157.12 102.483 157.376 102.046 157.888C101.619 158.4 101.406 159.141 101.406 160.112C101.406 161.072 101.619 161.813 102.046 162.336C102.483 162.848 103.07 163.104 103.806 163.104ZM109.464 164V156.224H110.728V157.616C111.144 156.677 111.997 156.16 113.288 156.064L113.752 156.016L113.848 157.136L113.032 157.232C112.296 157.296 111.736 157.531 111.352 157.936C110.968 158.331 110.776 158.875 110.776 159.568V164H109.464ZM118.74 164.144C117.823 164.144 117.135 163.904 116.676 163.424C116.218 162.933 115.988 162.229 115.988 161.312V157.232H114.468V156.224H115.988V153.84H117.284V156.224H119.748V157.232H117.284V161.184C117.284 161.792 117.412 162.256 117.668 162.576C117.924 162.885 118.34 163.04 118.916 163.04C119.087 163.04 119.258 163.019 119.428 162.976C119.599 162.933 119.754 162.891 119.892 162.848L120.116 163.84C119.978 163.915 119.775 163.984 119.508 164.048C119.242 164.112 118.986 164.144 118.74 164.144ZM123.838 164.144C123.23 164.144 122.654 164.059 122.11 163.888C121.566 163.717 121.118 163.477 120.766 163.168L121.182 162.256C121.566 162.565 121.987 162.795 122.446 162.944C122.915 163.083 123.39 163.152 123.87 163.152C124.478 163.152 124.937 163.04 125.246 162.816C125.555 162.592 125.71 162.288 125.71 161.904C125.71 161.605 125.609 161.371 125.406 161.2C125.203 161.019 124.883 160.88 124.446 160.784L122.99 160.464C121.667 160.176 121.006 159.493 121.006 158.416C121.006 157.712 121.283 157.147 121.838 156.72C122.403 156.293 123.139 156.08 124.046 156.08C124.579 156.08 125.086 156.165 125.566 156.336C126.057 156.496 126.462 156.736 126.782 157.056L126.35 157.968C126.041 157.68 125.678 157.461 125.262 157.312C124.857 157.152 124.451 157.072 124.046 157.072C123.449 157.072 122.995 157.189 122.686 157.424C122.377 157.659 122.222 157.968 122.222 158.352C122.222 158.949 122.617 159.333 123.406 159.504L124.862 159.808C125.545 159.957 126.062 160.197 126.414 160.528C126.766 160.848 126.942 161.285 126.942 161.84C126.942 162.555 126.659 163.12 126.094 163.536C125.529 163.941 124.777 164.144 123.838 164.144Z" fill="#3D3D3D"/>
<path d="M173.958 35.6937C173.96 35.82 173.936 35.9455 173.889 36.0627C173.842 36.1802 173.772 36.287 173.682 36.3769C173.593 36.4668 173.487 36.5379 173.369 36.586C173.253 36.6336 173.129 36.6578 173.004 36.6571C172.877 36.6593 172.752 36.6363 172.634 36.5895L172.727 36.3573L172.634 36.5895C172.516 36.5421 172.408 36.4714 172.317 36.3814C172.226 36.2915 172.155 36.1842 172.106 36.066C172.058 35.9477 172.034 35.821 172.035 35.6932C172.037 35.5655 172.064 35.4394 172.116 35.3224C172.167 35.2054 172.241 35.1 172.334 35.0124C172.427 34.9248 172.537 34.8568 172.657 34.8125C172.775 34.7687 172.902 34.7489 173.028 34.7543C173.274 34.759 173.509 34.8593 173.682 35.0341C173.857 35.2096 173.956 35.4464 173.958 35.6937ZM173.958 35.6937C173.958 35.694 173.958 35.6944 173.958 35.6947L173.708 35.6967L173.958 35.6937Z" fill="#080808" stroke="#080808" stroke-width="0.5"/>
<path d="M176.076 34.7596L176.076 34.7596C176.19 34.7501 176.304 34.7477 176.418 34.7522H187.274C188.299 34.7522 189.172 35.0296 189.846 35.5772C190.502 36.1097 190.95 36.881 191.176 37.8484C191.176 37.8487 191.176 37.8489 191.177 37.8492L191.25 37.9224V38.026V62.4269V62.5658L191.154 62.6254C191.153 62.6348 191.152 62.6457 191.151 62.6625C191.15 62.6681 191.15 62.6743 191.149 62.6813C191.146 62.7105 191.142 62.7578 191.129 62.8069L191.128 62.8078C190.67 64.4787 189.234 65.6127 187.488 65.6227L187.488 65.6227C186.096 65.629 184.705 65.6269 183.314 65.6248C182.619 65.6238 181.924 65.6227 181.229 65.6227H181.185H181.141H181.097H181.053H181.009H180.965H180.921H180.877H180.833H180.789H180.745H180.701H180.657H180.612H180.568H180.524H180.48H180.436H180.392H180.348H180.304H180.26H180.216H180.172H180.128H180.084H180.039H179.995H179.951H179.907H179.863H179.819H179.775H179.731H179.687H179.643H179.599H179.555H179.511H179.466H179.422H179.378H179.334H179.29H179.246H179.202H179.158H179.114H179.07H179.026H178.982H178.938H178.893H178.849H178.805H178.761H178.717H178.673H178.629H178.585H178.541H178.497H178.453H178.409H178.365H178.321H178.276H178.232H178.188H178.144H178.1H178.056H178.012H177.968H177.924H177.88H177.836H177.792H177.748H177.703H177.659H177.615H177.571H177.527H177.483H177.439H177.395H177.351H177.307H177.263H177.219H177.175H177.13H177.086H177.042H176.998H176.954H176.91H176.866H176.822H176.778H176.734H176.69H176.646H176.602H176.558H176.513H176.469H176.425H176.381H176.337H176.293H176.249H176.205H176.161H176.117H176.073H176.029H175.985H175.94H175.896H175.852H175.808H175.764H175.72H175.676H175.632H175.588H175.544H175.5H175.456H175.412H175.367H175.323H175.279H175.235H175.191H175.147H175.103H175.059H175.015H174.971H174.927H174.883H174.839H174.795H174.75H174.706H174.662H174.618H174.574H174.53H174.486H174.442H174.398H174.354H174.31H174.266H174.222H174.177H174.133H174.089H174.045H174.001H173.957H173.913H173.869H173.825H173.781H173.737H173.693H173.649H173.605H173.56H173.516H173.472H173.428H173.384H173.34H173.296H173.252H173.208H173.164H173.12H173.076H173.032H172.987H172.943H172.899H172.855H172.811H172.767H172.723H172.679H172.635H172.591H172.547H172.503H172.459H172.415H172.37H172.326H172.282H172.238H172.194H172.15H172.106H172.062H172.018H171.974H171.93H171.886H171.842H171.797H171.753H171.709H171.665H171.621H171.577H171.533H171.489H171.445H171.401H171.357H171.313H171.269H171.225H171.18H171.136H171.092H171.048H171.004H170.96H170.916H170.872H170.828H170.784H170.74H170.696H170.652H170.607H170.563H170.519H170.475H170.431H170.387H170.343H170.299H170.255H170.211H170.167H170.123H170.079H170.035H169.99H169.946H169.902H169.858H169.814H169.77H169.726H169.682H169.638H169.594H169.55H169.506H169.462H169.417H169.373H169.329H169.285H169.241H169.197H169.153H169.109H169.065H169.021H168.977H168.933H168.889H168.845H168.8H168.756H168.712H168.668H168.624H168.58H168.536H168.492H168.448H168.404H168.36H168.316H168.272H168.227H168.183H168.139H168.095H168.051H168.007H167.963H167.919H167.875H167.831H167.787H167.743H167.699H167.655H167.61H167.566H167.522H167.478H167.434H167.39H167.346H167.302H167.258H167.214H167.17H167.126H167.082H167.038H166.993H166.949H166.905H166.861H166.817H166.773H166.729H166.685H166.641H166.597H166.553H166.509H166.465H166.42H166.376H166.332H166.288H166.244H166.2H166.156H166.112H166.068H166.024H165.98H165.936H165.892H165.848H165.803H165.759H165.715H165.671H165.627H165.583H165.539H165.495H165.451H165.407H165.363H165.319H165.275H165.231H165.186H165.142H165.098H165.054H165.01H164.966H164.922H164.878H164.834H164.79H164.746H164.702H164.658H164.613H164.569H164.525H164.481H164.437H164.393H164.349H164.305H164.261H164.217H164.173H164.129H164.085H164.041H163.996H163.952H163.908H163.864H163.82H163.776H163.732H163.688H163.644H163.6H163.556H163.512H163.468H163.424H163.379H163.335H163.291H163.247H163.203H163.159H163.115H163.071H163.027H162.983H162.939H162.895H162.851H162.807H162.762H162.718H162.674H162.63H162.586H162.542H162.498H162.454H162.41H162.366H162.322H162.278H162.234H162.189H162.145H162.101H162.057H162.013H161.969H161.925H161.881H161.837H161.793H161.749H161.705H161.661H161.617H161.572H161.528H161.484H161.44H161.396H161.352H161.308H161.264H161.22H161.176H161.132H161.088H161.044H161H160.955H160.911H160.867H160.823H160.779H160.735H160.691H160.647H160.603H160.559H160.515H160.471H160.427H160.383H160.338H160.294H160.25H160.206H160.162H160.118H160.074H160.03H159.986H159.942H159.898H159.854H159.81H159.766H159.721H159.677H159.633H159.589H159.545H159.501H159.457H159.413H159.369H159.325H159.281H159.237H159.193H159.148H159.104H159.06H159.016H158.972H158.928H158.884H158.84H158.796H158.752H158.708H158.664C156.8 65.6227 155.321 64.515 154.87 62.7675L154.869 62.7649L154.869 62.7649C154.788 62.4375 154.749 62.1013 154.753 61.7642C154.749 54.0425 154.749 46.3208 154.753 38.5991M176.076 34.7596L156.659 38.7129C156.659 38.7128 156.659 38.7128 156.659 38.7128C156.659 38.0387 156.859 37.5316 157.199 37.1932C157.539 36.8546 158.049 36.6551 158.728 36.6551H169.696C170.005 36.6551 170.284 36.579 170.488 36.4059C170.698 36.2275 170.798 35.9725 170.792 35.6852M176.076 34.7596L176.071 34.7601M176.076 34.7596L176.071 34.7601M154.753 38.5991L155.003 38.5992M154.753 38.5991L155.003 38.5992M154.753 38.5991C154.754 36.3955 156.39 34.7503 158.596 34.7503H158.618H158.639H158.661H158.683H158.705H158.726H158.748H158.77H158.791H158.813H158.835H158.856H158.878H158.9H158.921H158.943H158.965H158.987H159.008H159.03H159.052H159.073H159.095H159.117H159.138H159.16H159.182H159.203H159.225H159.247H159.269H159.29H159.312H159.334H159.355H159.377H159.399H159.42H159.442H159.464H159.485H159.507H159.529H159.551H159.572H159.594H159.616H159.637H159.659H159.681H159.702H159.724H159.746H159.767H159.789H159.811H159.833H159.854H159.876H159.898H159.919H159.941H159.963H159.984H160.006H160.028H160.049H160.071H160.093H160.115H160.136H160.158H160.18H160.201H160.223H160.245H160.266H160.288H160.31H160.331H160.353H160.375H160.397H160.418H160.44H160.462H160.483H160.505H160.527H160.548H160.57H160.592H160.613H160.635H160.657H160.679H160.7H160.722H160.744H160.765H160.787H160.809H160.83H160.852H160.874H160.895H160.917H160.939H160.961H160.982H161.004H161.026H161.047H161.069H161.091H161.112H161.134H161.156H161.177H161.199H161.221H161.243H161.264H161.286H161.308H161.329H161.351H161.373H161.394H161.416H161.438H161.459H161.481H161.503H161.525H161.546H161.568H161.59H161.611H161.633H161.655H161.676H161.698H161.72H161.742H161.763H161.785H161.807H161.828H161.85H161.872H161.893H161.915H161.937H161.958H161.98H162.002H162.024H162.045H162.067H162.089H162.11H162.132H162.154H162.175H162.197H162.219H162.24H162.262H162.284H162.306H162.327H162.349H162.371H162.392H162.414H162.436H162.457H162.479H162.501H162.522H162.544H162.566H162.588H162.609H162.631H162.653H162.674H162.696H162.718H162.739H162.761H162.783H162.804H162.826H162.848H162.87H162.891H162.913H162.935H162.956H162.978H163H163.021H163.043H163.065H163.086H163.108H163.13H163.152H163.173H163.195H163.217H163.238H163.26H163.282H163.303H163.325H163.347H163.368H163.39H163.412H163.434H163.455H163.477H163.499H163.52H163.542H163.564H163.585H163.607H163.629H163.65H163.672H163.694H163.716H163.737H163.759H163.781H163.802H163.824H163.846H163.867H163.889H163.911H163.932H163.954H163.976H163.998H164.019H164.041H164.063H164.084H164.106H164.128H164.149H164.171H164.193H164.214H164.236H164.258H164.28H164.301H164.323H164.345H164.366H164.388H164.41H164.431H164.453H164.475H164.496H164.518H164.54H164.562H164.583H164.605H164.627H164.648H164.67H164.692H164.713H164.735H164.757H164.778H164.8H164.822H164.844H164.865H164.887H164.909H164.93H164.952H164.974H164.995H165.017H165.039H165.061H165.082H165.104H165.126H165.147H165.169H165.191H165.212H165.234H165.256H165.277H165.299H165.321H165.343H165.364H165.386H165.408H165.429H165.451H165.473H165.494H165.516H165.538H165.559H165.581H165.603H165.625H165.646H165.668H165.69H165.711H165.733H165.755H165.776H165.798H165.82H165.841H165.863H165.885H165.907H165.928H165.95H165.972H165.993H166.015H166.037H166.058H166.08H166.102H166.123H166.145H166.167H166.189H166.21H166.232H166.254H166.275H166.297H166.319H166.34H166.362H166.384H166.405H166.427H166.449H166.471H166.492H166.514H166.536H166.557H166.579H166.601H166.622H166.644H166.666H166.687H166.709H166.731H166.753H166.774H166.796H166.818H166.839H166.861H166.883H166.904H166.926H166.948H166.969H166.991H167.013H167.035H167.056H167.078H167.1H167.121H167.143H167.165H167.186H167.208H167.23H167.251H167.273H167.295H167.317H167.338H167.36H167.382H167.403H167.425H167.447H167.468H167.49H167.512H167.533H167.555H167.577H167.599H167.62H167.642H167.664H167.685H167.707H167.729H167.75H167.772H167.794H167.815H167.837H167.859H167.881H167.902H167.924H167.946H167.967H167.989H168.011H168.032H168.054H168.076H168.097H168.119H168.141H168.163H168.184H168.206H168.228H168.249H168.271H168.293H168.314H168.336H168.358H168.379H168.401H168.423H168.445H168.466H168.488H168.51H168.531H168.553H168.575H168.596H168.618H168.64H168.662H168.683H168.705H168.727H168.748H168.77H168.792H168.813H168.835H168.857H168.878H168.9H168.922H168.944H168.965H168.987H169.009H169.03H169.052H169.074H169.095H169.117H169.139H169.16H169.182H169.204H169.226H169.247H169.269H169.291H169.312H169.334H169.356H169.377H169.399H169.421H169.442H169.464H169.486H169.508H169.529H169.551H169.573H169.594H169.616H169.638H169.659H169.681H169.703C170.002 34.7503 170.273 34.824 170.474 34.9902C170.682 35.1611 170.787 35.4062 170.792 35.6852M155.003 38.5992C154.999 46.3213 154.999 54.0433 155.003 61.7654M155.003 38.5992V61.7654M170.792 35.6852C170.792 35.6854 170.792 35.6855 170.792 35.6857L170.542 35.69L170.792 35.6848C170.792 35.6849 170.792 35.6851 170.792 35.6852ZM155.003 61.7654C154.999 62.082 155.036 62.3977 155.112 62.7051C155.533 64.3363 156.907 65.3727 158.664 65.3727H181.229C181.925 65.3727 182.62 65.3738 183.315 65.3748C184.706 65.3769 186.096 65.379 187.487 65.3727C189.118 65.3633 190.458 64.3072 190.887 62.7417C190.895 62.7113 190.898 62.6781 190.901 62.6446C190.908 62.5632 190.915 62.4795 191 62.4269V38.026C190.993 38.0193 190.985 38.0139 190.976 38.0087C190.964 38.001 190.952 37.9939 190.95 37.9837C190.53 36.0593 189.232 35.0022 187.274 35.0022L155.003 61.7654ZM176.071 34.7601C175.838 34.7845 175.623 34.8939 175.466 35.0673C175.309 35.2407 175.221 35.4659 175.22 35.6999C175.219 35.9338 175.304 36.16 175.459 36.3351C175.614 36.5102 175.828 36.6218 176.061 36.6487L176.061 36.6489M176.071 34.7601L176.061 36.6489M176.061 36.6489L176.068 36.6495M176.061 36.6489L176.068 36.6495M176.068 36.6495C176.194 36.6603 176.32 36.6631 176.445 36.6579M176.068 36.6495L176.445 36.6579M189.343 61.7325V61.732C189.344 61.2509 189.343 60.7683 189.342 60.2853C189.341 59.2904 189.339 58.2938 189.353 57.3051V57.305C189.354 57.2484 189.351 57.2121 189.347 57.1895C189.321 57.1854 189.281 57.1828 189.219 57.1828C183.818 57.1872 178.417 57.1893 173.016 57.1893C173.016 57.1893 173.016 57.1893 173.016 57.1893L189.343 61.7325ZM189.343 61.7325C189.343 62.3513 189.14 62.8434 188.801 63.1803M189.343 61.7325L188.801 63.1803M176.445 36.6579H187.267C187.955 36.6579 188.466 36.8574 188.806 37.198C189.145 37.5387 189.344 38.0522 189.344 38.743C189.344 44.2156 189.347 49.6879 189.352 55.1599C189.352 55.2199 189.349 55.2582 189.345 55.2829C189.322 55.287 189.284 55.2902 189.226 55.2902C178.412 55.2808 167.597 55.2808 156.782 55.2902C156.721 55.2902 156.683 55.2875 156.657 55.2835L176.445 36.6579ZM188.801 63.1803C188.462 63.5173 187.967 63.7198 187.344 63.7198M188.801 63.1803L187.344 63.7198M187.344 63.7198H158.665M187.344 63.7198H158.665M158.665 63.7198C158.033 63.7198 157.537 63.5169 157.2 63.1775M158.665 63.7198L157.2 63.1775M157.2 63.1775C156.862 62.8379 156.659 62.3385 156.659 61.7025M157.2 63.1775L156.659 61.7025M156.659 61.7025C156.659 61.3342 156.66 60.9656 156.66 60.5969M156.659 61.7025L156.66 60.5969M156.66 60.5969C156.662 59.4897 156.663 58.381 156.652 57.2726M156.66 60.5969L156.652 57.2726M156.652 57.2726C156.652 57.2334 156.654 57.2057 156.656 57.1865L156.652 57.2726Z" fill="#080808" stroke="#080808" stroke-width="0.5"/>
<path d="M176.252 44.0373L176.252 44.0374C177.737 44.9387 177.749 46.9884 176.262 47.8905C176.261 47.8906 176.261 47.8908 176.261 47.8909L176.131 47.6771C174.897 48.4357 173.644 49.1595 172.373 49.8486L176.252 44.0373ZM176.252 44.0373C175.02 43.2912 173.773 42.5718 172.51 41.8792L172.51 41.879M176.252 44.0373L172.51 41.879M172.51 41.879C170.95 41.0262 169.185 42.1012 169.164 43.8675L172.51 41.879ZM171.661 43.5812L171.661 43.5812C171.452 43.4624 171.31 43.482 171.234 43.5273C171.157 43.5733 171.069 43.692 171.069 43.9363V43.9402V43.9441V43.948V43.9519V43.9558V43.9597V43.9636V43.9675V43.9715V43.9754V43.9793V43.9832V43.9871V43.991V43.9949V43.9988V44.0027V44.0066V44.0105V44.0144V44.0183V44.0222V44.0261V44.03V44.0339V44.0378V44.0417V44.0456V44.0495V44.0534V44.0573V44.0612V44.0651V44.0691V44.073V44.0769V44.0808V44.0847V44.0886V44.0925V44.0964V44.1003V44.1042V44.1081V44.112V44.1159V44.1198V44.1237V44.1276V44.1315V44.1354V44.1393V44.1432V44.1471V44.151V44.155V44.1589V44.1628V44.1667V44.1706V44.1745V44.1784V44.1823V44.1862V44.1901V44.194V44.1979V44.2018V44.2057V44.2096V44.2135V44.2174V44.2213V44.2252V44.2291V44.2331V44.237V44.2409V44.2448V44.2487V44.2526V44.2565V44.2604V44.2643V44.2682V44.2721V44.276V44.2799V44.2838V44.2877V44.2916V44.2955V44.2994V44.3033V44.3073V44.3112V44.3151V44.319V44.3229V44.3268V44.3307V44.3346V44.3385V44.3424V44.3463V44.3502V44.3541V44.358V44.3619V44.3658V44.3697V44.3736V44.3776V44.3815V44.3854V44.3893V44.3932V44.3971V44.401V44.4049V44.4088V44.4127V44.4166V44.4205V44.4244V44.4283V44.4322V44.4361V44.44V44.444V44.4479V44.4518V44.4557V44.4596V44.4635V44.4674V44.4713V44.4752V44.4791V44.483V44.4869V44.4908V44.4947V44.4986V44.5025V44.5065V44.5104V44.5143V44.5182V44.5221V44.526V44.5299V44.5338V44.5377V44.5416V44.5455V44.5494V44.5533V44.5572V44.5611V44.565V44.569V44.5729V44.5768V44.5807V44.5846V44.5885V44.5924V44.5963V44.6002V44.6041V44.608V44.6119V44.6158V44.6197V44.6236V44.6276V44.6315V44.6354V44.6393V44.6432V44.6471V44.651V44.6549V44.6588V44.6627V44.6666V44.6705V44.6744V44.6783V44.6822V44.6862V44.6901V44.694V44.6979V44.7018V44.7057V44.7096V44.7135V44.7174V44.7213V44.7252V44.7291V44.733V44.7369V44.7409V44.7448V44.7487V44.7526V44.7565V44.7604V44.7643V44.7682V44.7721V44.776V44.7799V44.7838V44.7877V44.7916V44.7956V44.7995V44.8034V44.8073V44.8112V44.8151V44.819V44.8229V44.8268V44.8307V44.8346V44.8385V44.8424V44.8464V44.8503V44.8542V44.8581V44.862V44.8659V44.8698V44.8737V44.8776V44.8815V44.8854V44.8893V44.8932V44.8971V44.9011V44.905V44.9089V44.9128V44.9167V44.9206V44.9245V44.9284V44.9323V44.9362V44.9401V44.944V44.9479V44.9519V44.9558V44.9597V44.9636V44.9675V44.9714V44.9753V44.9792V44.9831V44.987V44.9909V44.9948V44.9988V45.0027V45.0066V45.0105V45.0144V45.0183V45.0222V45.0261V45.03V45.0339V45.0378V45.0417V45.0456V45.0496V45.0535V45.0574V45.0613V45.0652V45.0691V45.073V45.0769V45.0808V45.0847V45.0886V45.0925V45.0965V45.1004V45.1043V45.1082V45.1121V45.116V45.1199V45.1238V45.1277V45.1316V45.1355V45.1394V45.1434V45.1473V45.1512V45.1551V45.159V45.1629V45.1668V45.1707V45.1746V45.1785V45.1824V45.1863V45.1902V45.1942V45.1981V45.202V45.2059V45.2098V45.2137V45.2176V45.2215V45.2254V45.2293V45.2332V45.2372V45.2411V45.245V45.2489V45.2528V45.2567V45.2606V45.2645V45.2684V45.2723V45.2762V45.2801V45.2841V45.288V45.2919V45.2958V45.2997V45.3036V45.3075V45.3114V45.3153V45.3192V45.3231V45.327V45.331V45.3349V45.3388V45.3427V45.3466V45.3505V45.3544V45.3583V45.3622V45.3661V45.37V45.374V45.3779V45.3818V45.3857V45.3896V45.3935V45.3974V45.4013V45.4052V45.4091V45.413V45.4169V45.4209V45.4248V45.4287V45.4326V45.4365V45.4404V45.4443V45.4482V45.4521V45.456V45.4599V45.4639V45.4678V45.4717V45.4756V45.4795V45.4834V45.4873V45.4912V45.4951V45.499V45.5029V45.5068V45.5108V45.5147V45.5186V45.5225V45.5264V45.5303V45.5342V45.5381V45.542V45.5459V45.5498V45.5538V45.5577V45.5616V45.5655V45.5694V45.5733V45.5772V45.5811V45.585V45.5889V45.5928V45.5968V45.6007V45.6046V45.6085V45.6124V45.6163V45.6202V45.6241V45.628V45.6319V45.6358V45.6398V45.6437V45.6476V45.6515V45.6554V45.6593V45.6632V45.6671V45.671V45.6749V45.6788V45.6828V45.6867V45.6906V45.6945V45.6984V45.7023V45.7062V45.7101V45.714V45.7179V45.7218V45.7257V45.7297V45.7336V45.7375V45.7414V45.7453V45.7492V45.7531V45.757V45.7609V45.7648V45.7687V45.7727V45.7766V45.7805V45.7844V45.7883V45.7922V45.7961V45.8V45.8039V45.8078V45.8117V45.8157V45.8196V45.8235V45.8274V45.8313V45.8352V45.8391V45.843V45.8469V45.8508V45.8547V45.8587V45.8626V45.8665V45.8704V45.8743V45.8782V45.8821V45.886V45.8899V45.8938V45.8977V45.9017V45.9056V45.9095V45.9134V45.9173V45.9212V45.9251V45.929V45.9329V45.9368C171.069 46.1683 171.068 46.3991 171.068 46.6296L171.661 43.5812ZM171.661 43.5812C172.836 44.2517 174.008 44.9284 175.177 45.6114L175.177 45.6115M171.661 43.5812L175.177 45.6115M175.177 45.6115C175.405 45.7448 175.464 45.8832 175.464 45.9702C175.465 46.0563 175.409 46.1931 175.183 46.3252C174.015 47.0076 172.843 47.6843 171.668 48.3554M175.177 45.6115L171.668 48.3554M171.668 48.3554C171.46 48.4741 171.316 48.4556 171.238 48.41C171.159 48.364 171.071 48.2465 171.069 48.0069L171.668 48.3554ZM169.164 48.0891C169.187 49.83 170.949 50.9138 172.492 50.0682L169.164 43.8676C169.158 44.338 169.16 44.8097 169.162 45.2792C169.163 45.5129 169.164 45.746 169.164 45.9782C169.164 46.2106 169.163 46.4438 169.162 46.6776C169.161 47.1469 169.159 47.6183 169.164 48.0885L169.164 48.0891Z" fill="#080808" stroke="#080808" stroke-width="0.5"/>
<path d="M185.471 59.5083L185.471 59.5083L185.465 59.5079C185.341 59.4994 185.217 59.4974 185.092 59.5017H176.66H168.165C168.041 59.4974 167.916 59.4994 167.792 59.5079L167.792 59.5079L167.787 59.5083C167.55 59.5296 167.331 59.6385 167.171 59.8136C167.011 59.9887 166.922 60.2173 166.922 60.4546C166.922 60.6918 167.011 60.9204 167.171 61.0955C167.331 61.2706 167.55 61.3795 167.787 61.4008L167.787 61.4008L167.79 61.4011C167.903 61.4096 168.017 61.4118 168.13 61.4074H185.128C185.241 61.4118 185.354 61.4096 185.467 61.4011L185.471 61.4008C185.707 61.3795 185.927 61.2706 186.087 61.0955L185.902 60.9269L186.087 61.0955C186.247 60.9204 186.336 60.6918 186.336 60.4546C186.336 60.2173 186.247 59.9887 186.087 59.8136L185.903 59.9817L186.087 59.8136C185.927 59.6385 185.707 59.5296 185.471 59.5083Z" fill="#080808" stroke="#080808" stroke-width="0.5"/>
<path d="M160.08 59.132C159.818 59.5176 159.677 59.9719 159.674 60.4377L162.032 62.8132C162.497 62.8134 162.953 62.6756 163.34 62.4174C163.728 62.1591 164.03 61.7918 164.21 61.3618C164.389 60.9318 164.437 60.4584 164.347 60.0013C164.257 59.5442 164.035 59.1238 163.706 58.7932C163.378 58.4625 162.96 58.2365 162.503 58.1435C162.047 58.0505 161.573 58.0948 161.142 58.2707C160.71 58.4466 160.341 58.7463 160.08 59.132ZM159.674 60.4378C159.672 60.7489 159.731 61.0573 159.848 61.3454C159.966 61.6335 160.139 61.8955 160.358 62.1164C160.577 62.3372 160.838 62.5124 161.125 62.632C161.412 62.7516 161.72 62.8132 162.031 62.8132L159.674 60.4378Z" fill="#080808" stroke="#080808" stroke-width="0.5"/>
<path d="M162.703 60.7217L162.913 60.8051C162.867 60.9212 162.799 61.0271 162.712 61.1167C162.625 61.2064 162.521 61.2781 162.407 61.3276C162.292 61.3772 162.169 61.4037 162.044 61.4056C161.792 61.4095 161.548 61.3131 161.367 61.1375M162.703 60.7217L161.367 61.1375M162.703 60.7217L162.913 60.8051C162.959 60.6889 162.982 60.5649 162.98 60.44C162.978 60.3151 162.952 60.1919 162.902 60.0772C162.853 59.9626 162.781 59.8588 162.691 59.7719C162.602 59.685 162.496 59.6165 162.38 59.5705C162.263 59.5245 162.139 59.5018 162.015 59.5037M162.703 60.7217L162.015 59.5037M161.367 61.1375C161.186 60.9619 161.082 60.7215 161.078 60.4693C161.074 60.2171 161.171 59.9737 161.346 59.7926C161.522 59.6115 161.762 59.5076 162.015 59.5037M161.367 61.1375L162.015 59.5037" fill="#080808" stroke="#080808" stroke-width="0.5"/>
<path d="M63.3806 110.4C61.5406 110.4 59.754 110.12 58.0206 109.56C56.2873 108.973 54.874 108.187 53.7806 107.2L55.4606 103.28C57.8873 105.147 60.5006 106.08 63.3006 106.08C64.9806 106.08 66.2873 105.653 67.2206 104.8C68.1806 103.92 68.6606 102.747 68.6606 101.28C68.6606 99.7867 68.2073 98.5867 67.3006 97.68C66.394 96.7467 65.154 96.28 63.5806 96.28C61.3406 96.28 59.4873 97.1733 58.0206 98.96H54.5806V81.8H71.9006V86.04H59.5806V93.68C60.994 92.6133 62.7273 92.08 64.7806 92.08C66.5673 92.08 68.114 92.4667 69.4206 93.24C70.754 93.9867 71.7806 95.04 72.5006 96.4C73.2473 97.7333 73.6206 99.2933 73.6206 101.08C73.6206 102.92 73.2073 104.547 72.3806 105.96C71.554 107.347 70.3673 108.44 68.8206 109.24C67.3006 110.013 65.4873 110.4 63.3806 110.4ZM87.125 110.4C83.7917 110.4 81.245 109.147 79.485 106.64C77.725 104.107 76.845 100.507 76.845 95.84C76.845 91.12 77.725 87.5333 79.485 85.08C81.245 82.6267 83.7917 81.4 87.125 81.4C90.485 81.4 93.0317 82.6267 94.765 85.08C96.525 87.5333 97.405 91.1067 97.405 95.8C97.405 100.493 96.525 104.107 94.765 106.64C93.005 109.147 90.4583 110.4 87.125 110.4ZM87.125 106.2C88.9383 106.2 90.2717 105.373 91.125 103.72C92.005 102.04 92.445 99.4 92.445 95.8C92.445 92.2267 92.005 89.64 91.125 88.04C90.2717 86.4133 88.9383 85.6 87.125 85.6C85.3383 85.6 84.005 86.4133 83.125 88.04C82.245 89.64 81.805 92.2267 81.805 95.8C81.805 99.4 82.245 102.04 83.125 103.72C84.005 105.373 85.3383 106.2 87.125 106.2ZM111.109 110.4C107.776 110.4 105.229 109.147 103.469 106.64C101.709 104.107 100.829 100.507 100.829 95.84C100.829 91.12 101.709 87.5333 103.469 85.08C105.229 82.6267 107.776 81.4 111.109 81.4C114.469 81.4 117.016 82.6267 118.749 85.08C120.509 87.5333 121.389 91.1067 121.389 95.8C121.389 100.493 120.509 104.107 118.749 106.64C116.989 109.147 114.443 110.4 111.109 110.4ZM111.109 106.2C112.923 106.2 114.256 105.373 115.109 103.72C115.989 102.04 116.429 99.4 116.429 95.8C116.429 92.2267 115.989 89.64 115.109 88.04C114.256 86.4133 112.923 85.6 111.109 85.6C109.323 85.6 107.989 86.4133 107.109 88.04C106.229 89.64 105.789 92.2267 105.789 95.8C105.789 99.4 106.229 102.04 107.109 103.72C107.989 105.373 109.323 106.2 111.109 106.2ZM144.035 108.4V100.28H136.115V96.76H144.035V88.88H147.715V96.76H155.635V100.28H147.715V108.4H144.035Z" fill="#080808"/>
</svg>
