<svg width="209" height="209" viewBox="0 0 209 209" fill="none" xmlns="http://www.w3.org/2000/svg">
<circle cx="104.5" cy="104.5" r="89.5" fill="white"/>
<circle cx="172.5" cy="48.5" r="32" fill="#F6CB2F" stroke="white" stroke-width="3"/>
<path d="M206.927 104.5C208.072 104.5 209.002 105.428 208.979 106.573C208.584 126.517 202.487 145.947 191.389 162.557C179.906 179.742 163.585 193.136 144.49 201.045C125.396 208.955 104.384 211.024 84.1131 206.992C63.842 202.96 45.2219 193.007 30.6073 178.393C15.9928 163.778 6.04009 145.158 2.00794 124.887C-2.02422 104.616 0.0452314 83.6045 7.95459 64.5096C15.8639 45.4147 29.258 29.094 46.4429 17.6114C63.0529 6.51296 82.4834 0.416057 102.427 0.0205484C103.572 -0.00214768 104.5 0.927961 104.5 2.07266C104.5 3.21736 103.572 4.14308 102.427 4.16672C83.3034 4.56164 64.6742 10.4152 48.7459 21.0581C32.2427 32.0852 19.38 47.7585 11.7844 66.0959C4.18875 84.4333 2.2014 104.611 6.0736 124.078C9.94581 143.545 19.5037 161.427 33.5385 175.461C47.5734 189.496 65.4549 199.054 84.9218 202.926C104.389 206.799 124.567 204.811 142.904 197.216C161.242 189.62 176.915 176.757 187.942 160.254C198.585 144.326 204.438 125.697 204.833 106.573C204.857 105.428 205.783 104.5 206.927 104.5Z" fill="#F6CB2F"/>
<path d="M37.1398 143V140.584H31.9398V139.592L37.3638 131.72H38.4678V139.464H40.1478V140.584H38.4678V143H37.1398ZM37.1398 139.464V133.88L33.2998 139.464H37.1398ZM45.7415 143.144C45.0162 143.144 44.3229 143.027 43.6615 142.792C43.0002 142.557 42.4402 142.227 41.9815 141.8L42.4775 140.76C43.4695 141.571 44.5522 141.976 45.7255 141.976C46.5042 141.976 47.1175 141.757 47.5655 141.32C48.0135 140.883 48.2375 140.307 48.2375 139.592C48.2375 138.856 48.0242 138.253 47.5975 137.784C47.1709 137.315 46.5842 137.08 45.8375 137.08C44.7602 137.08 43.9122 137.528 43.2935 138.424H42.3335V131.72H48.8775V132.84H43.6295V136.872C44.2482 136.253 45.0642 135.944 46.0775 135.944C46.7815 135.944 47.3949 136.093 47.9175 136.392C48.4402 136.691 48.8402 137.112 49.1175 137.656C49.4055 138.189 49.5495 138.813 49.5495 139.528C49.5495 140.232 49.3949 140.856 49.0855 141.4C48.7762 141.944 48.3335 142.371 47.7575 142.68C47.1922 142.989 46.5202 143.144 45.7415 143.144ZM55.0953 143.144C53.8046 143.144 52.8233 142.648 52.1513 141.656C51.4793 140.664 51.1433 139.229 51.1433 137.352C51.1433 135.464 51.4793 134.029 52.1513 133.048C52.8233 132.067 53.8046 131.576 55.0953 131.576C56.3966 131.576 57.378 132.067 58.0393 133.048C58.7113 134.019 59.0473 135.448 59.0473 137.336C59.0473 139.224 58.706 140.664 58.0233 141.656C57.3513 142.648 56.3753 143.144 55.0953 143.144ZM55.0953 142.008C55.9913 142.008 56.6526 141.629 57.0793 140.872C57.5166 140.115 57.7353 138.936 57.7353 137.336C57.7353 135.736 57.522 134.568 57.0953 133.832C56.6686 133.085 56.002 132.712 55.0953 132.712C54.1993 132.712 53.5326 133.085 53.0953 133.832C52.6686 134.579 52.4553 135.747 52.4553 137.336C52.4553 138.936 52.6686 140.115 53.0953 140.872C53.5326 141.629 54.1993 142.008 55.0953 142.008ZM64.177 142.36V138.904H60.785V137.912H64.177V134.552H65.201V137.912H68.593V138.904H65.201V142.36H64.177ZM74.8402 143V135.224H76.1042V136.536C76.3388 136.067 76.6642 135.709 77.0802 135.464C77.4962 135.208 77.9815 135.08 78.5362 135.08C79.7522 135.08 80.5308 135.608 80.8722 136.664C81.1068 136.173 81.4535 135.789 81.9122 135.512C82.3708 135.224 82.8988 135.08 83.4962 135.08C85.2242 135.08 86.0882 136.104 86.0882 138.152V143H84.7922V138.216C84.7922 137.501 84.6642 136.979 84.4082 136.648C84.1628 136.307 83.7522 136.136 83.1762 136.136C82.5468 136.136 82.0455 136.36 81.6722 136.808C81.2988 137.256 81.1122 137.853 81.1122 138.6V143H79.8162V138.216C79.8162 137.501 79.6882 136.979 79.4322 136.648C79.1868 136.307 78.7762 136.136 78.2002 136.136C77.5602 136.136 77.0535 136.36 76.6802 136.808C76.3175 137.256 76.1362 137.853 76.1362 138.6V143H74.8402ZM88.3513 133.288V131.832H89.9513V133.288H88.3513ZM88.5113 143V135.224H89.8073V143H88.5113ZM94.614 143.144C93.8247 143.144 93.2274 142.915 92.822 142.456C92.4274 141.987 92.23 141.309 92.23 140.424V131.72H93.526V140.328C93.526 141.469 93.9794 142.04 94.886 142.04C95.1527 142.04 95.3927 142.008 95.606 141.944L95.574 143.032C95.2434 143.107 94.9234 143.144 94.614 143.144ZM99.3484 143.144C98.5591 143.144 97.9618 142.915 97.5564 142.456C97.1618 141.987 96.9644 141.309 96.9644 140.424V131.72H98.2604V140.328C98.2604 141.469 98.7138 142.04 99.6204 142.04C99.8871 142.04 100.127 142.008 100.34 141.944L100.308 143.032C99.9778 143.107 99.6578 143.144 99.3484 143.144ZM101.539 133.288V131.832H103.139V133.288H101.539ZM101.699 143V135.224H102.995V143H101.699ZM108.65 143.144C107.892 143.144 107.236 142.979 106.682 142.648C106.127 142.317 105.695 141.853 105.386 141.256C105.087 140.648 104.938 139.933 104.938 139.112C104.938 138.291 105.087 137.581 105.386 136.984C105.695 136.376 106.127 135.907 106.682 135.576C107.236 135.245 107.892 135.08 108.65 135.08C109.396 135.08 110.047 135.245 110.602 135.576C111.167 135.907 111.599 136.376 111.898 136.984C112.207 137.581 112.362 138.291 112.362 139.112C112.362 139.933 112.207 140.648 111.898 141.256C111.599 141.853 111.167 142.317 110.602 142.648C110.047 142.979 109.396 143.144 108.65 143.144ZM108.65 142.104C109.375 142.104 109.956 141.848 110.394 141.336C110.831 140.813 111.05 140.072 111.05 139.112C111.05 138.141 110.831 137.4 110.394 136.888C109.956 136.376 109.375 136.12 108.65 136.12C107.914 136.12 107.327 136.376 106.89 136.888C106.463 137.4 106.25 138.141 106.25 139.112C106.25 140.072 106.463 140.813 106.89 141.336C107.327 141.848 107.914 142.104 108.65 142.104ZM114.308 143V135.224H115.572V136.552C115.828 136.061 116.191 135.693 116.66 135.448C117.13 135.203 117.658 135.08 118.244 135.08C120.09 135.08 121.012 136.104 121.012 138.152V143H119.716V138.232C119.716 137.507 119.572 136.979 119.284 136.648C119.007 136.307 118.559 136.136 117.94 136.136C117.226 136.136 116.655 136.36 116.228 136.808C115.812 137.245 115.604 137.832 115.604 138.568V143H114.308ZM130.743 143.144C129.986 143.144 129.33 142.979 128.775 142.648C128.221 142.317 127.789 141.853 127.479 141.256C127.181 140.648 127.031 139.933 127.031 139.112C127.031 138.291 127.181 137.581 127.479 136.984C127.789 136.376 128.221 135.907 128.775 135.576C129.33 135.245 129.986 135.08 130.743 135.08C131.49 135.08 132.141 135.245 132.695 135.576C133.261 135.907 133.693 136.376 133.991 136.984C134.301 137.581 134.455 138.291 134.455 139.112C134.455 139.933 134.301 140.648 133.991 141.256C133.693 141.853 133.261 142.317 132.695 142.648C132.141 142.979 131.49 143.144 130.743 143.144ZM130.743 142.104C131.469 142.104 132.05 141.848 132.487 141.336C132.925 140.813 133.143 140.072 133.143 139.112C133.143 138.141 132.925 137.4 132.487 136.888C132.05 136.376 131.469 136.12 130.743 136.12C130.007 136.12 129.421 136.376 128.983 136.888C128.557 137.4 128.343 138.141 128.343 139.112C128.343 140.072 128.557 140.813 128.983 141.336C129.421 141.848 130.007 142.104 130.743 142.104ZM136.402 143V135.224H137.666V136.616C138.082 135.677 138.935 135.16 140.226 135.064L140.69 135.016L140.786 136.136L139.97 136.232C139.234 136.296 138.674 136.531 138.29 136.936C137.906 137.331 137.714 137.875 137.714 138.568V143H136.402ZM145.483 146.024C144.811 146.024 144.176 145.933 143.579 145.752C142.992 145.581 142.469 145.32 142.011 144.968L142.443 144.024C142.923 144.365 143.397 144.611 143.867 144.76C144.347 144.909 144.864 144.984 145.419 144.984C146.955 144.984 147.723 144.195 147.723 142.616V141.24C147.499 141.731 147.147 142.12 146.667 142.408C146.197 142.685 145.659 142.824 145.051 142.824C144.336 142.824 143.717 142.659 143.195 142.328C142.672 141.997 142.267 141.544 141.979 140.968C141.701 140.381 141.563 139.704 141.563 138.936C141.563 138.168 141.701 137.496 141.979 136.92C142.267 136.333 142.672 135.88 143.195 135.56C143.717 135.24 144.336 135.08 145.051 135.08C145.659 135.08 146.197 135.219 146.667 135.496C147.147 135.773 147.499 136.152 147.723 136.632V135.224H148.987V142.44C148.987 143.635 148.688 144.531 148.091 145.128C147.504 145.725 146.635 146.024 145.483 146.024ZM145.291 141.768C146.037 141.768 146.629 141.512 147.067 141C147.504 140.488 147.723 139.8 147.723 138.936C147.723 138.072 147.504 137.389 147.067 136.888C146.629 136.376 146.037 136.12 145.291 136.12C144.555 136.12 143.968 136.376 143.531 136.888C143.093 137.389 142.875 138.072 142.875 138.936C142.875 139.8 143.093 140.488 143.531 141C143.968 141.512 144.555 141.768 145.291 141.768ZM153.866 143.144C153.332 143.144 152.852 143.043 152.426 142.84C152.01 142.627 151.679 142.339 151.434 141.976C151.188 141.613 151.066 141.208 151.066 140.76C151.066 140.195 151.21 139.747 151.498 139.416C151.796 139.085 152.282 138.851 152.954 138.712C153.636 138.563 154.564 138.488 155.738 138.488H156.25V137.992C156.25 137.331 156.111 136.856 155.834 136.568C155.567 136.269 155.135 136.12 154.538 136.12C154.068 136.12 153.615 136.189 153.178 136.328C152.74 136.456 152.292 136.669 151.834 136.968L151.386 136.024C151.791 135.736 152.282 135.507 152.858 135.336C153.444 135.165 154.004 135.08 154.538 135.08C155.54 135.08 156.282 135.325 156.762 135.816C157.252 136.307 157.498 137.069 157.498 138.104V143H156.282V141.656C156.079 142.115 155.764 142.477 155.338 142.744C154.922 143.011 154.431 143.144 153.866 143.144ZM154.074 142.168C154.714 142.168 155.236 141.949 155.642 141.512C156.047 141.064 156.25 140.499 156.25 139.816V139.336H155.754C154.89 139.336 154.207 139.379 153.706 139.464C153.215 139.539 152.868 139.677 152.666 139.88C152.474 140.072 152.378 140.339 152.378 140.68C152.378 141.117 152.527 141.475 152.826 141.752C153.135 142.029 153.551 142.168 154.074 142.168ZM159.902 143V135.224H161.166V136.552C161.422 136.061 161.785 135.693 162.254 135.448C162.723 135.203 163.251 135.08 163.838 135.08C165.683 135.08 166.606 136.104 166.606 138.152V143H165.31V138.232C165.31 137.507 165.166 136.979 164.878 136.648C164.601 136.307 164.153 136.136 163.534 136.136C162.819 136.136 162.249 136.36 161.822 136.808C161.406 137.245 161.198 137.832 161.198 138.568V143H159.902ZM168.836 133.288V131.832H170.436V133.288H168.836ZM168.996 143V135.224H170.292V143H168.996ZM176.01 143.144C175.232 143.144 174.56 142.979 173.994 142.648C173.429 142.307 172.992 141.832 172.682 141.224C172.384 140.605 172.234 139.885 172.234 139.064C172.234 137.827 172.57 136.856 173.242 136.152C173.914 135.437 174.837 135.08 176.01 135.08C176.49 135.08 176.965 135.165 177.434 135.336C177.904 135.507 178.293 135.747 178.602 136.056L178.154 137C177.845 136.701 177.504 136.483 177.13 136.344C176.768 136.205 176.421 136.136 176.09 136.136C175.28 136.136 174.656 136.392 174.218 136.904C173.781 137.405 173.562 138.131 173.562 139.08C173.562 140.008 173.781 140.744 174.218 141.288C174.656 141.821 175.28 142.088 176.09 142.088C176.421 142.088 176.768 142.019 177.13 141.88C177.504 141.741 177.845 141.517 178.154 141.208L178.602 142.152C178.293 142.461 177.898 142.707 177.418 142.888C176.949 143.059 176.48 143.144 176.01 143.144ZM87.8227 165L84.4787 157.224H85.8867L88.4627 163.528L91.0707 157.224H92.3987L89.0387 165H87.8227ZM93.6091 155.288V153.832H95.2091V155.288H93.6091ZM93.7691 165V157.224H95.0651V165H93.7691ZM100.992 165.144C99.7652 165.144 98.7945 164.787 98.0799 164.072C97.3652 163.347 97.0079 162.365 97.0079 161.128C97.0079 160.328 97.1679 159.624 97.4879 159.016C97.8079 158.397 98.2452 157.923 98.7999 157.592C99.3652 157.251 100.016 157.08 100.752 157.08C101.808 157.08 102.635 157.421 103.232 158.104C103.829 158.776 104.128 159.704 104.128 160.888V161.384H98.2719C98.3145 162.269 98.5705 162.947 99.0399 163.416C99.5092 163.875 100.16 164.104 100.992 164.104C101.461 164.104 101.909 164.035 102.336 163.896C102.763 163.747 103.168 163.507 103.552 163.176L104 164.088C103.648 164.419 103.2 164.68 102.656 164.872C102.112 165.053 101.557 165.144 100.992 165.144ZM100.784 158.04C100.048 158.04 99.4665 158.269 99.0399 158.728C98.6132 159.187 98.3625 159.789 98.2879 160.536H103.008C102.976 159.747 102.768 159.133 102.384 158.696C102.011 158.259 101.477 158.04 100.784 158.04ZM107.974 165L105.078 157.224H106.438L108.63 163.48L110.902 157.224H112.006L114.246 163.496L116.47 157.224H117.766L114.854 165H113.622L111.43 158.968L109.222 165H107.974ZM121.831 165.144C121.223 165.144 120.647 165.059 120.103 164.888C119.559 164.717 119.111 164.477 118.759 164.168L119.175 163.256C119.559 163.565 119.98 163.795 120.439 163.944C120.908 164.083 121.383 164.152 121.863 164.152C122.471 164.152 122.929 164.04 123.239 163.816C123.548 163.592 123.703 163.288 123.703 162.904C123.703 162.605 123.601 162.371 123.399 162.2C123.196 162.019 122.876 161.88 122.439 161.784L120.983 161.464C119.66 161.176 118.999 160.493 118.999 159.416C118.999 158.712 119.276 158.147 119.831 157.72C120.396 157.293 121.132 157.08 122.039 157.08C122.572 157.08 123.079 157.165 123.559 157.336C124.049 157.496 124.455 157.736 124.775 158.056L124.343 158.968C124.033 158.68 123.671 158.461 123.255 158.312C122.849 158.152 122.444 158.072 122.039 158.072C121.441 158.072 120.988 158.189 120.679 158.424C120.369 158.659 120.215 158.968 120.215 159.352C120.215 159.949 120.609 160.333 121.399 160.504L122.855 160.808C123.537 160.957 124.055 161.197 124.407 161.528C124.759 161.848 124.935 162.285 124.935 162.84C124.935 163.555 124.652 164.12 124.087 164.536C123.521 164.941 122.769 165.144 121.831 165.144Z" fill="#3D3D3D"/>
<path d="M42.3467 110V104.64H30.0667V100.88L43.2267 81.8H47.4667V100.4H51.4267V104.64H47.4667V110H42.3467ZM42.3467 100.4V89.64L34.9867 100.4H42.3467ZM64.6111 110.4C62.7711 110.4 60.9844 110.12 59.2511 109.56C57.5178 108.973 56.1044 108.187 55.0111 107.2L56.6911 103.28C59.1178 105.147 61.7311 106.08 64.5311 106.08C66.2111 106.08 67.5178 105.653 68.4511 104.8C69.4111 103.92 69.8911 102.747 69.8911 101.28C69.8911 99.7867 69.4378 98.5867 68.5311 97.68C67.6244 96.7467 66.3844 96.28 64.8111 96.28C62.5711 96.28 60.7178 97.1733 59.2511 98.96H55.8111V81.8H73.1311V86.04H60.8111V93.68C62.2244 92.6133 63.9578 92.08 66.0111 92.08C67.7978 92.08 69.3444 92.4667 70.6511 93.24C71.9844 93.9867 73.0111 95.04 73.7311 96.4C74.4778 97.7333 74.8511 99.2933 74.8511 101.08C74.8511 102.92 74.4378 104.547 73.6111 105.96C72.7844 107.347 71.5978 108.44 70.0511 109.24C68.5311 110.013 66.7178 110.4 64.6111 110.4ZM88.3555 110.4C85.0221 110.4 82.4755 109.147 80.7155 106.64C78.9555 104.107 78.0755 100.507 78.0755 95.84C78.0755 91.12 78.9555 87.5333 80.7155 85.08C82.4755 82.6267 85.0221 81.4 88.3555 81.4C91.7155 81.4 94.2621 82.6267 95.9955 85.08C97.7555 87.5333 98.6355 91.1067 98.6355 95.8C98.6355 100.493 97.7555 104.107 95.9955 106.64C94.2355 109.147 91.6888 110.4 88.3555 110.4ZM88.3555 106.2C90.1688 106.2 91.5021 105.373 92.3555 103.72C93.2355 102.04 93.6755 99.4 93.6755 95.8C93.6755 92.2267 93.2355 89.64 92.3555 88.04C91.5021 86.4133 90.1688 85.6 88.3555 85.6C86.5688 85.6 85.2355 86.4133 84.3555 88.04C83.4755 89.64 83.0355 92.2267 83.0355 95.8C83.0355 99.4 83.4755 102.04 84.3555 103.72C85.2355 105.373 86.5688 106.2 88.3555 106.2ZM114.281 110V81.8H118.561L128.561 100.24L138.521 81.8H142.721V110H138.081V91L130.001 105.72H127.001L118.921 91.08V110H114.281ZM166.789 108.4V100.28H158.869V96.76H166.789V88.88H170.469V96.76H178.389V100.28H170.469V108.4H166.789Z" fill="#080808"/>
<path d="M193.965 47.495C190.522 43.1621 186.517 39.498 181.507 37.0345C179.122 35.8629 176.61 35.1403 173.946 35.0179C170.036 34.8396 166.475 36.006 163.141 37.9376C158.948 40.3648 155.468 43.6142 152.478 47.4017C151.839 48.2104 151.842 48.7817 152.478 49.5925C153.87 51.3773 155.409 53.0421 157.079 54.5692C159.96 57.1965 163.114 59.4039 166.787 60.7901C169.991 62.0001 173.277 62.3381 176.649 61.6424C179.687 61.0203 182.419 59.6849 184.975 57.9741C188.254 55.7792 191.071 53.0783 193.558 50.0238C193.877 49.6298 194.202 49.24 194.368 48.7485V48.2488C194.245 47.9916 194.148 47.7241 193.965 47.495ZM191.014 48.7122C188.111 52.1109 184.845 55.0876 180.845 57.1634C178.449 58.4075 175.919 59.2028 173.184 59.1976C170.449 59.1924 167.945 58.4117 165.56 57.1789C161.546 55.1053 158.272 52.1171 155.352 48.7112C155.195 48.5298 155.229 48.4302 155.366 48.2685C158.255 44.8915 161.494 41.9304 165.466 39.8619C168.092 38.4944 170.858 37.668 173.864 37.8121C175.834 37.9065 177.692 38.4176 179.483 39.1942C183.062 40.7495 186.067 43.1144 188.792 45.863C189.558 46.6379 190.293 47.4401 190.996 48.2695C191.137 48.4313 191.17 48.5298 191.014 48.7122Z" fill="#080808"/>
<path d="M173.196 40.1253C171.539 40.1224 169.918 40.6115 168.539 41.5306C167.16 42.4498 166.084 43.7576 165.449 45.2884C164.814 46.8192 164.647 48.5041 164.97 50.1297C165.293 51.7553 166.092 53.2484 167.264 54.4199C168.436 55.5914 169.93 56.3886 171.556 56.7105C173.182 57.0324 174.867 56.8644 176.397 56.228C177.927 55.5916 179.234 54.5153 180.152 53.1354C181.07 51.7555 181.558 50.1342 181.554 48.4768C181.548 46.2627 180.665 44.1412 179.099 42.5761C177.533 41.0111 175.411 40.1299 173.196 40.1253ZM173.196 54.0829C170.132 54.1057 167.587 51.5655 167.598 48.4924C167.608 45.4193 170.155 42.878 173.209 42.9112C174.677 42.9326 176.078 43.5314 177.108 44.5778C178.138 45.6242 178.715 47.0342 178.714 48.5027C178.712 49.9711 178.132 51.38 177.1 52.4243C176.068 53.4686 174.666 54.0645 173.197 54.0829H173.196Z" fill="#080808"/>
</svg>
