<svg width="56" height="56" viewBox="0 0 56 56" fill="none" xmlns="http://www.w3.org/2000/svg">
<rect x="0.773438" y="0.870117" width="54.3398" height="54.3398" rx="27.1699" fill="#F5C518"/>
<path d="M8.73034 47.2511C19.3417 57.8625 36.5434 57.8625 47.1547 47.2511C57.7661 36.6397 57.7661 19.4381 47.1547 8.82669C36.5434 -1.78468 19.3417 -1.78468 8.73034 8.82669C-1.87886 19.4381 -1.87886 36.6397 8.73034 47.2511ZM20.7828 11.1415L24.8256 15.1844C25.6342 15.993 25.8059 17.2428 25.2451 18.2404L23.7258 20.9378C23.5434 21.2612 23.472 21.6356 23.5226 22.0034C23.5733 22.3713 23.7431 22.7124 24.0062 22.9745L33.007 31.9752C33.2693 32.2379 33.6105 32.4074 33.9784 32.4576C34.3462 32.5079 34.7204 32.4362 35.0436 32.2534L37.741 30.7341C38.2263 30.4606 38.7878 30.3535 39.3396 30.4293C39.8915 30.505 40.4034 30.7594 40.797 31.1536L44.842 35.1986C45.3199 35.6774 45.5882 36.3263 45.5882 37.0027C45.5882 37.6791 45.3199 38.328 44.842 38.8068L42.9271 40.7217C41.8648 41.7814 40.4824 42.4609 38.9945 42.6546C37.5066 42.8484 35.9963 42.5456 34.698 41.7932L34.5154 41.6889C26.5799 37.1546 19.9426 30.6573 15.2402 22.8201L14.3208 21.2856C13.5393 19.9853 13.2151 18.4611 13.3998 16.9553C13.5845 15.4496 14.2676 14.0488 15.3402 12.976L17.1747 11.1415C17.4115 10.9044 17.6927 10.7163 18.0022 10.588C18.3118 10.4596 18.6436 10.3936 18.9787 10.3936C19.3138 10.3936 19.6457 10.4596 19.9552 10.588C20.2648 10.7163 20.546 10.9044 20.7828 11.1415Z" fill="white"/>
</svg>
