<svg width="162" height="114" viewBox="0 0 162 114" fill="none" xmlns="http://www.w3.org/2000/svg">
<path d="M44.7535 83.2786C43.6468 83.2786 42.6202 83.1386 41.6735 82.8586C40.7268 82.5653 39.9268 82.1719 39.2735 81.6786L40.0535 79.6586C40.7068 80.1253 41.4202 80.4853 42.1935 80.7386C42.9802 80.9919 43.8335 81.1186 44.7535 81.1186C45.8068 81.1186 46.5735 80.9453 47.0535 80.5986C47.5335 80.2386 47.7735 79.7786 47.7735 79.2186C47.7735 78.7519 47.6002 78.3853 47.2535 78.1186C46.9202 77.8519 46.3402 77.6319 45.5135 77.4586L43.3135 76.9986C40.8068 76.4653 39.5535 75.1786 39.5535 73.1386C39.5535 72.2586 39.7868 71.4919 40.2535 70.8386C40.7202 70.1853 41.3668 69.6786 42.1935 69.3186C43.0202 68.9586 43.9735 68.7786 45.0535 68.7786C46.0135 68.7786 46.9135 68.9253 47.7535 69.2186C48.5935 69.4986 49.2935 69.8986 49.8535 70.4186L49.0735 72.3386C47.9668 71.4053 46.6202 70.9386 45.0335 70.9386C44.1135 70.9386 43.3935 71.1319 42.8735 71.5186C42.3535 71.9053 42.0935 72.4119 42.0935 73.0386C42.0935 73.5186 42.2535 73.9053 42.5735 74.1986C42.8935 74.4786 43.4402 74.6986 44.2135 74.8586L46.3935 75.3186C47.7135 75.5986 48.6935 76.0386 49.3335 76.6386C49.9868 77.2386 50.3135 78.0386 50.3135 79.0386C50.3135 79.8786 50.0868 80.6186 49.6335 81.2586C49.1802 81.8986 48.5335 82.3986 47.6935 82.7586C46.8668 83.1053 45.8868 83.2786 44.7535 83.2786ZM56.7907 83.2786C55.764 83.2786 54.8707 83.0719 54.1107 82.6586C53.3507 82.2319 52.764 81.6319 52.3507 80.8586C51.9374 80.0853 51.7307 79.1786 51.7307 78.1386C51.7307 77.0986 51.9374 76.2053 52.3507 75.4586C52.764 74.6986 53.3507 74.1186 54.1107 73.7186C54.8707 73.3053 55.764 73.0986 56.7907 73.0986C57.4174 73.0986 58.0374 73.1986 58.6507 73.3986C59.264 73.5986 59.7707 73.8786 60.1707 74.2386L59.4307 75.9786C59.084 75.6719 58.6907 75.4386 58.2507 75.2786C57.824 75.1186 57.4107 75.0386 57.0107 75.0386C56.144 75.0386 55.4707 75.3119 54.9907 75.8586C54.524 76.3919 54.2907 77.1586 54.2907 78.1586C54.2907 79.1453 54.524 79.9253 54.9907 80.4986C55.4707 81.0586 56.144 81.3386 57.0107 81.3386C57.3974 81.3386 57.8107 81.2586 58.2507 81.0986C58.6907 80.9386 59.084 80.6986 59.4307 80.3786L60.1707 82.1386C59.7707 82.4853 59.2574 82.7653 58.6307 82.9786C58.0174 83.1786 57.404 83.2786 56.7907 83.2786ZM61.7043 83.0786V68.9786H64.2043V74.7186C64.5376 74.1853 64.9843 73.7853 65.5443 73.5186C66.1043 73.2386 66.7243 73.0986 67.4043 73.0986C69.711 73.0986 70.8643 74.4386 70.8643 77.1186V83.0786H68.3643V77.2386C68.3643 76.4786 68.2176 75.9253 67.9243 75.5786C67.6443 75.2319 67.2043 75.0586 66.6043 75.0586C65.871 75.0586 65.2843 75.2919 64.8443 75.7586C64.4176 76.2119 64.2043 76.8186 64.2043 77.5786V83.0786H61.7043ZM78.2235 83.2786C77.1168 83.2786 76.1635 83.0719 75.3635 82.6586C74.5635 82.2453 73.9435 81.6586 73.5035 80.8986C73.0768 80.1386 72.8635 79.2386 72.8635 78.1986C72.8635 77.1853 73.0702 76.2986 73.4835 75.5386C73.9102 74.7786 74.4902 74.1853 75.2235 73.7586C75.9702 73.3186 76.8168 73.0986 77.7635 73.0986C79.1502 73.0986 80.2435 73.5386 81.0435 74.4186C81.8568 75.2986 82.2635 76.4986 82.2635 78.0186V78.7586H75.2635C75.4502 80.5053 76.4502 81.3786 78.2635 81.3786C78.8102 81.3786 79.3568 81.2986 79.9035 81.1386C80.4502 80.9653 80.9502 80.6986 81.4035 80.3386L82.1035 82.0186C81.6368 82.4053 81.0502 82.7119 80.3435 82.9386C79.6368 83.1653 78.9302 83.2786 78.2235 83.2786ZM77.8635 74.7986C77.1302 74.7986 76.5368 75.0253 76.0835 75.4786C75.6302 75.9319 75.3568 76.5453 75.2635 77.3186H80.1835C80.1302 76.5053 79.9035 75.8853 79.5035 75.4586C79.1168 75.0186 78.5702 74.7986 77.8635 74.7986ZM88.0034 83.2786C87.15 83.2786 86.3967 83.0719 85.7434 82.6586C85.1034 82.2453 84.6034 81.6586 84.2434 80.8986C83.8834 80.1253 83.7034 79.2186 83.7034 78.1786C83.7034 77.1253 83.8834 76.2253 84.2434 75.4786C84.6034 74.7186 85.1034 74.1319 85.7434 73.7186C86.3967 73.3053 87.15 73.0986 88.0034 73.0986C88.6967 73.0986 89.3234 73.2519 89.8834 73.5586C90.4434 73.8653 90.8634 74.2719 91.1434 74.7786V68.9786H93.6434V83.0786H91.2034V81.4586C90.9367 82.0186 90.5167 82.4653 89.9434 82.7986C89.37 83.1186 88.7234 83.2786 88.0034 83.2786ZM88.7034 81.3786C89.45 81.3786 90.05 81.1119 90.5034 80.5786C90.9567 80.0319 91.1834 79.2319 91.1834 78.1786C91.1834 77.1119 90.9567 76.3186 90.5034 75.7986C90.05 75.2653 89.45 74.9986 88.7034 74.9986C87.9567 74.9986 87.3567 75.2653 86.9034 75.7986C86.45 76.3186 86.2234 77.1119 86.2234 78.1786C86.2234 79.2319 86.45 80.0319 86.9034 80.5786C87.3567 81.1119 87.9567 81.3786 88.7034 81.3786ZM99.7755 83.2786C97.3755 83.2786 96.1755 81.9319 96.1755 79.2386V73.2986H98.6755V79.2786C98.6755 79.9719 98.8155 80.4853 99.0955 80.8186C99.3755 81.1519 99.8222 81.3186 100.436 81.3186C101.102 81.3186 101.649 81.0919 102.076 80.6386C102.502 80.1719 102.716 79.5586 102.716 78.7986V73.2986H105.216V83.0786H102.776V81.6186C102.122 82.7253 101.122 83.2786 99.7755 83.2786ZM111.218 83.2786C110.058 83.2786 109.198 82.9653 108.638 82.3386C108.091 81.6986 107.818 80.7653 107.818 79.5386V68.9786H110.318V79.4186C110.318 80.6186 110.824 81.2186 111.838 81.2186C111.984 81.2186 112.131 81.2119 112.278 81.1986C112.424 81.1853 112.564 81.1586 112.698 81.1186L112.658 83.0986C112.178 83.2186 111.698 83.2786 111.218 83.2786ZM118.927 83.2786C117.82 83.2786 116.867 83.0719 116.067 82.6586C115.267 82.2453 114.647 81.6586 114.207 80.8986C113.78 80.1386 113.567 79.2386 113.567 78.1986C113.567 77.1853 113.773 76.2986 114.187 75.5386C114.613 74.7786 115.193 74.1853 115.927 73.7586C116.673 73.3186 117.52 73.0986 118.467 73.0986C119.853 73.0986 120.947 73.5386 121.747 74.4186C122.56 75.2986 122.967 76.4986 122.967 78.0186V78.7586H115.967C116.153 80.5053 117.153 81.3786 118.967 81.3786C119.513 81.3786 120.06 81.2986 120.607 81.1386C121.153 80.9653 121.653 80.6986 122.107 80.3386L122.807 82.0186C122.34 82.4053 121.753 82.7119 121.047 82.9386C120.34 83.1653 119.633 83.2786 118.927 83.2786ZM118.567 74.7986C117.833 74.7986 117.24 75.0253 116.787 75.4786C116.333 75.9319 116.06 76.5453 115.967 77.3186H120.887C120.833 76.5053 120.607 75.8853 120.207 75.4586C119.82 75.0186 119.273 74.7986 118.567 74.7986ZM44.8066 110.079V95.9786H46.9466L51.9466 105.199L56.9266 95.9786H59.0266V110.079H56.7066V100.579L52.6666 107.939H51.1666L47.1266 100.619V110.079H44.8066ZM66.7098 110.279C65.6032 110.279 64.6498 110.072 63.8498 109.659C63.0498 109.245 62.4298 108.659 61.9898 107.899C61.5632 107.139 61.3498 106.239 61.3498 105.199C61.3498 104.185 61.5565 103.299 61.9698 102.539C62.3965 101.779 62.9765 101.185 63.7098 100.759C64.4565 100.319 65.3032 100.099 66.2498 100.099C67.6365 100.099 68.7298 100.539 69.5298 101.419C70.3432 102.299 70.7498 103.499 70.7498 105.019V105.759H63.7498C63.9365 107.505 64.9365 108.379 66.7498 108.379C67.2965 108.379 67.8432 108.299 68.3898 108.139C68.9365 107.965 69.4365 107.699 69.8898 107.339L70.5898 109.019C70.1232 109.405 69.5365 109.712 68.8298 109.939C68.1232 110.165 67.4165 110.279 66.7098 110.279ZM66.3498 101.799C65.6165 101.799 65.0232 102.025 64.5698 102.479C64.1165 102.932 63.8432 103.545 63.7498 104.319H68.6698C68.6165 103.505 68.3898 102.885 67.9898 102.459C67.6032 102.019 67.0565 101.799 66.3498 101.799ZM77.5497 110.279C76.443 110.279 75.4897 110.072 74.6897 109.659C73.8897 109.245 73.2697 108.659 72.8297 107.899C72.403 107.139 72.1897 106.239 72.1897 105.199C72.1897 104.185 72.3964 103.299 72.8097 102.539C73.2364 101.779 73.8164 101.185 74.5497 100.759C75.2964 100.319 76.143 100.099 77.0897 100.099C78.4764 100.099 79.5697 100.539 80.3697 101.419C81.183 102.299 81.5897 103.499 81.5897 105.019V105.759H74.5897C74.7764 107.505 75.7764 108.379 77.5897 108.379C78.1364 108.379 78.683 108.299 79.2297 108.139C79.7764 107.965 80.2764 107.699 80.7297 107.339L81.4297 109.019C80.963 109.405 80.3764 109.712 79.6697 109.939C78.963 110.165 78.2564 110.279 77.5497 110.279ZM77.1897 101.799C76.4564 101.799 75.863 102.025 75.4097 102.479C74.9564 102.932 74.683 103.545 74.5897 104.319H79.5097C79.4564 103.505 79.2297 102.885 78.8297 102.459C78.443 102.019 77.8964 101.799 77.1897 101.799ZM88.0105 110.279C85.4238 110.279 84.1305 108.999 84.1305 106.439V102.179H82.2505V100.299H84.1305V97.3786H86.6305V100.299H89.5905V102.179H86.6305V106.299C86.6305 106.939 86.7705 107.419 87.0505 107.739C87.3305 108.059 87.7838 108.219 88.4105 108.219C88.5971 108.219 88.7905 108.199 88.9905 108.159C89.1905 108.105 89.3971 108.052 89.6105 107.999L89.9905 109.839C89.7505 109.972 89.4438 110.079 89.0705 110.159C88.7105 110.239 88.3571 110.279 88.0105 110.279ZM91.0463 98.1986V95.7586H93.8463V98.1986H91.0463ZM91.2063 110.079V100.299H93.7063V110.079H91.2063ZM96.3039 110.079V100.299H98.7439V101.819C99.0772 101.259 99.5239 100.832 100.084 100.539C100.657 100.245 101.297 100.099 102.004 100.099C104.311 100.099 105.464 101.439 105.464 104.119V110.079H102.964V104.239C102.964 103.479 102.817 102.925 102.524 102.579C102.244 102.232 101.804 102.059 101.204 102.059C100.471 102.059 99.8839 102.292 99.4439 102.759C99.0172 103.212 98.8039 103.819 98.8039 104.579V110.079H96.3039ZM112.563 113.879C111.656 113.879 110.803 113.772 110.003 113.559C109.216 113.359 108.523 113.045 107.923 112.619L108.643 110.879C109.203 111.252 109.803 111.525 110.443 111.699C111.083 111.885 111.723 111.979 112.363 111.979C114.15 111.979 115.043 111.119 115.043 109.399V108.059C114.763 108.605 114.33 109.039 113.743 109.359C113.17 109.679 112.53 109.839 111.823 109.839C110.943 109.839 110.176 109.639 109.523 109.239C108.87 108.825 108.363 108.252 108.003 107.519C107.643 106.785 107.463 105.932 107.463 104.959C107.463 103.985 107.643 103.139 108.003 102.419C108.363 101.685 108.87 101.119 109.523 100.719C110.176 100.305 110.943 100.099 111.823 100.099C112.556 100.099 113.21 100.265 113.783 100.599C114.356 100.919 114.776 101.352 115.043 101.899V100.299H117.483V109.099C117.483 110.685 117.063 111.879 116.223 112.679C115.383 113.479 114.163 113.879 112.563 113.879ZM112.503 107.939C113.276 107.939 113.89 107.672 114.343 107.139C114.796 106.605 115.023 105.879 115.023 104.959C115.023 104.039 114.796 103.319 114.343 102.799C113.89 102.265 113.276 101.999 112.503 101.999C111.73 101.999 111.116 102.265 110.663 102.799C110.21 103.319 109.983 104.039 109.983 104.959C109.983 105.879 110.21 106.605 110.663 107.139C111.116 107.672 111.73 107.939 112.503 107.939Z" fill="#080808"/>
<path fill-rule="evenodd" clip-rule="evenodd" d="M86.3052 40.2505C86.3383 40.3811 86.372 40.5089 86.4051 40.6349C86.489 40.9531 86.5695 41.2588 86.6286 41.5632C86.6688 41.7746 86.7892 41.7726 86.9274 41.7704H86.9275H86.9276H86.9278H86.9279H86.928H86.9282H86.9283H86.9284C86.9424 41.7701 86.9567 41.7699 86.971 41.7699C87.1291 41.7699 87.2873 41.7689 87.4454 41.7679C87.7616 41.766 88.0778 41.764 88.394 41.7699C88.9854 41.7751 89.5512 42.0114 89.9707 42.4283C90.3901 42.8451 90.6299 43.4095 90.6389 44.0008C90.6553 44.744 90.6503 45.4872 90.6389 46.2304C90.6312 46.7872 90.3434 47.0789 89.7853 47.0789H73.2763C72.717 47.0789 72.4303 46.7884 72.424 46.2317C72.4151 45.4707 72.4062 44.7097 72.424 43.9488C72.4437 43.3741 72.6815 42.8285 73.0891 42.4228C73.4966 42.0172 74.0433 41.7819 74.6181 41.7648C75.0924 41.7496 75.568 41.7382 76.0411 41.7648C76.3303 41.7851 76.4216 41.6672 76.4736 41.4161C76.5269 41.1536 76.5912 40.8912 76.6583 40.6166L76.6585 40.6161L76.6587 40.6152C76.6888 40.4922 76.7195 40.3668 76.7501 40.2378H61.3089C59.2543 40.2378 58 38.9873 58 36.9403V13.9314C58 11.8806 59.253 10.6339 61.3114 10.6339H81.9297C81.4782 9.27562 81.3945 7.94014 81.7749 6.59324C82.3102 4.69971 83.4833 3.27038 85.0597 2.1543C89.2133 -0.794422 95.5014 -0.710716 99.5484 2.37244C101.622 3.95143 102.857 5.99208 102.777 8.68715C102.761 9.2561 102.658 9.81927 102.473 10.3575C102.388 10.6035 102.422 10.6707 102.68 10.7379C104.152 11.0943 105.064 12.2408 105.065 13.7463V37.1357C105.065 38.9366 103.753 40.2454 101.951 40.2467C96.9214 40.2543 91.8932 40.2543 86.8658 40.2467L86.3052 40.2505ZM92.1624 17.2895C92.0718 17.1094 91.9846 16.938 91.9004 16.7725L91.9003 16.7723L91.9002 16.7722C91.7052 16.3889 91.5262 16.0369 91.3571 15.6801C91.2874 15.513 91.1732 15.3682 91.027 15.2616C90.8807 15.1549 90.708 15.0904 90.5276 15.0751C88.6354 14.7999 86.8877 14.1493 85.4089 12.9076C83.9301 11.666 82.9878 10.1517 83.0639 8.15796C83.1362 6.23654 84.1178 4.77423 85.6004 3.64166C87.8402 1.9257 90.4198 1.35878 93.1897 1.57819C95.2456 1.74053 97.1467 2.37593 98.779 3.67464C100.301 4.88203 101.291 6.40141 101.266 8.40528C101.239 10.5258 100.103 12.0566 98.4619 13.2615C97.0668 14.2824 95.4853 14.8341 93.7909 15.0764C93.6106 15.0935 93.4385 15.1596 93.2932 15.2676C93.1479 15.3756 93.0349 15.5213 92.9665 15.6889C92.8115 16.0076 92.6515 16.3229 92.4807 16.6596L92.4803 16.6603L92.4801 16.6606L92.4793 16.6624C92.3779 16.8621 92.2727 17.0694 92.1624 17.2895ZM103.016 36.446C95.8527 36.452 88.6903 36.4549 81.5289 36.4549L60.0444 36.4537C60.0085 36.4537 59.9724 36.4545 59.9362 36.4553H59.9361H59.936H59.9358H59.9357H59.9356H59.9354H59.9353H59.9351H59.935H59.9349H59.9347H59.9346H59.9344H59.9343H59.9342H59.934H59.9339C59.8599 36.457 59.7857 36.4587 59.7121 36.4537C59.5726 36.4448 59.5333 36.5057 59.5181 36.6439C59.3494 38.1747 60.2854 38.7454 61.3114 38.7454C74.7965 38.737 88.2824 38.7327 101.769 38.7327C102.968 38.7327 103.522 38.1557 103.561 36.9673C103.576 36.5133 103.423 36.446 103.016 36.446ZM96.6745 22.7896H96.6726C94.54 22.7896 92.4074 22.7896 90.2748 22.7959C89.9856 22.7959 89.8715 22.7503 89.8753 22.4154C89.8868 21.219 89.8866 20.0226 89.8864 18.8261C89.8863 18.1734 89.8862 17.5207 89.888 16.868C89.888 16.8406 89.8829 16.8089 89.8776 16.7763C89.8617 16.6779 89.8444 16.5707 89.9616 16.5421C90.1063 16.5064 90.1503 16.6257 90.1905 16.7346C90.2017 16.765 90.2126 16.7946 90.2253 16.8198C90.6253 17.6062 91.0197 18.3955 91.4086 19.1877C91.5646 19.5048 91.7777 19.7419 92.1595 19.7445C92.5412 19.747 92.7555 19.5111 92.9128 19.1928C93.0898 18.8306 93.2697 18.4698 93.4497 18.1091L93.4501 18.1082C93.6569 17.6937 93.8636 17.2792 94.0657 16.863C94.1034 16.7622 94.1687 16.6742 94.2542 16.6089C94.3396 16.5436 94.4418 16.5038 94.5489 16.4939C97.386 16.0411 99.6955 14.6803 101.447 12.3949C101.503 12.3132 101.579 12.2476 101.668 12.2047C101.757 12.1617 101.856 12.1429 101.954 12.1501C102.898 12.1628 103.542 12.8032 103.543 13.776C103.543 16.6524 103.543 19.5289 103.552 22.4002C103.552 22.7097 103.472 22.7883 103.164 22.787C101.835 22.7847 100.505 22.7862 99.1732 22.7877L99.169 22.7877C98.3377 22.7886 97.5061 22.7896 96.6745 22.7896ZM67.9591 24.3089C67.4254 24.3083 66.8917 24.3077 66.3578 24.3077L60.1509 24.3051H60.1509C59.8289 24.3051 59.6704 24.3051 59.5924 24.3844C59.5168 24.4612 59.5168 24.6124 59.5168 24.9101V28.1822C59.5168 28.7117 59.5174 29.2412 59.5179 29.7706C59.5196 31.3592 59.5213 32.9477 59.5079 34.5363C59.5054 34.8787 59.6018 34.9599 59.9265 34.9421C60.4338 34.9167 60.9411 34.9281 61.4484 34.9421C61.6894 34.9497 61.7934 34.9193 61.8162 34.6288C61.9367 33.1551 62.6025 31.9782 63.8391 31.1614C64.1346 30.9661 64.0838 30.8684 63.9101 30.6389C63.6727 30.3312 63.5 29.9786 63.4026 29.6024C63.3052 29.2261 63.285 28.8341 63.3432 28.4498C63.522 27.1537 64.4428 26.1771 65.7326 25.8854C66.3318 25.7584 66.9555 25.8158 67.5215 26.0501C68.0874 26.2844 68.5692 26.6846 68.9033 27.1981C69.2446 27.716 69.4164 28.3273 69.3948 28.9472C69.3732 29.5671 69.1593 30.165 68.7828 30.6579C68.6078 30.8951 68.6078 30.98 68.8614 31.1487C70.103 31.982 70.7752 33.1678 70.8906 34.6605C70.9084 34.8914 70.9705 34.9434 71.1925 34.9434C71.7137 34.9243 72.2375 34.9078 72.7563 34.9434C73.1164 34.9675 73.1913 34.8559 73.1913 34.5045C73.1769 31.251 73.1769 27.9958 73.1913 24.7389C73.1925 24.3939 73.1228 24.2975 72.7588 24.2975C71.1591 24.3127 69.5593 24.3108 67.9591 24.3089ZM81.5415 24.3074C82.0754 24.3074 82.6092 24.308 83.1429 24.3087H83.1431H83.1433H83.1434H83.1436H83.1438H83.144H83.1441H83.1443H83.1445H83.1447H83.1449H83.145H83.1452H83.1454H83.1456C84.7449 24.3106 86.3437 24.3125 87.9425 24.2973C88.3065 24.2973 88.3762 24.3949 88.3737 24.7399C88.3602 27.996 88.3602 31.2512 88.3737 34.5056C88.3737 34.8569 88.2976 34.9672 87.9374 34.9431C87.4187 34.9089 86.8949 34.9228 86.3736 34.9431C86.1517 34.9431 86.0908 34.8898 86.0731 34.659C85.9564 33.1675 85.2842 31.9817 84.0362 31.1484C83.7826 30.9798 83.7826 30.8948 83.9589 30.6576C84.3349 30.1644 84.5484 29.5665 84.5697 28.9467C84.5911 28.3269 84.4193 27.7157 84.0781 27.1978C83.7441 26.6842 83.2624 26.2839 82.6964 26.0496C82.1304 25.8152 81.5067 25.7579 80.9074 25.8851C79.6176 26.1768 78.6956 27.1534 78.518 28.4508C78.4595 28.8429 78.4822 29.2428 78.5848 29.6257C78.6873 30.0086 78.8675 30.3663 79.1141 30.6766C79.2701 30.877 79.3056 30.9658 79.0519 31.1332C77.7837 31.9677 77.1013 33.1625 76.9859 34.6755C76.9707 34.8733 76.9289 34.9482 76.7183 34.9431L76.5998 34.9402H76.5997H76.5996H76.5995H76.5994H76.5993H76.5992H76.5991H76.599H76.5989H76.5988H76.5987H76.5986H76.5985H76.5984H76.5983C76.0695 34.9269 75.5372 34.9136 75.0125 34.9431C74.686 34.9634 74.6903 34.7997 74.6954 34.6092C74.6961 34.5851 74.6967 34.5606 74.6967 34.536V27.9917C74.6967 27.6832 74.6987 27.3745 74.7007 27.0658V27.0657V27.0656V27.0654V27.0653V27.0652V27.065V27.0649V27.0648V27.0646V27.0645V27.0644V27.0642V27.0641V27.064V27.0639C74.7056 26.2985 74.7106 25.5328 74.6853 24.7678C74.6713 24.3493 74.8121 24.2922 75.185 24.296C76.7867 24.3123 78.3927 24.3105 79.9976 24.3086H79.9978H79.9979H79.9981H79.9982H79.9984H79.9986H79.9987H79.9989H79.999H79.9992H79.9993H79.9995H79.9996H79.9998H80.0004H80.0008H80.0011H80.0015H80.0018H80.0022H80.0025H80.0029H80.0032H80.0036H80.0039H80.0043H80.0046H80.005H80.0053H80.0057C80.5178 24.308 81.0298 24.3074 81.5415 24.3074ZM96.757 24.3074H96.7554L90.2682 24.3163C90.2449 24.3163 90.2218 24.3156 90.1992 24.3149C90.0291 24.3098 89.8877 24.3055 89.8877 24.6067C89.8953 27.9575 89.8953 31.3083 89.8877 34.659C89.8877 34.8848 89.946 34.9507 90.1769 34.9507C90.7298 34.933 91.2841 34.9304 91.8358 34.9507C92.0983 34.9596 92.1642 34.8835 92.1871 34.6184C92.3114 33.165 92.9709 32.002 94.182 31.1814C94.4611 30.9925 94.4738 30.8999 94.2734 30.6297C93.8287 30.0258 93.6257 29.2776 93.704 28.5318C93.7824 27.7859 94.1365 27.0962 94.697 26.5979C95.2558 26.1003 95.9779 25.8254 96.7262 25.8254C97.4744 25.8254 98.1966 26.1003 98.7554 26.5979C99.3087 27.0922 99.6591 27.7741 99.739 28.5117C99.8189 29.2493 99.6225 29.9904 99.1879 30.5917C98.9469 30.9202 99.0281 31.0204 99.3147 31.2119C100.171 31.7826 100.72 32.593 101.067 33.5582C101.127 33.7217 101.139 33.9171 101.15 34.1091C101.17 34.4411 101.189 34.763 101.457 34.8924C101.751 35.0345 102.13 35.0009 102.509 34.9674C102.675 34.9527 102.841 34.938 102.999 34.938C103.046 34.9336 103.094 34.9336 103.141 34.938C103.466 34.9951 103.56 34.8797 103.56 34.5385C103.541 31.2664 103.541 27.9943 103.56 24.7221C103.562 24.3404 103.437 24.2998 103.108 24.2998C100.992 24.3074 98.8744 24.3074 96.757 24.3074ZM66.9674 12.16C67.4538 12.16 67.9402 12.1604 68.4265 12.1609C69.8852 12.1623 71.3433 12.1638 72.8014 12.1524C73.1096 12.1524 73.1908 12.2285 73.1895 12.5392C73.1785 15.8282 73.1785 19.1168 73.1895 22.405C73.1895 22.7069 73.1248 22.8134 72.809 22.7969C72.2721 22.7697 71.734 22.7697 71.1971 22.7969C70.9263 22.8103 70.9148 22.6818 70.8976 22.4905L70.8952 22.4646C70.7583 20.9934 70.0924 19.8216 68.8584 18.9997C68.6047 18.8323 68.6047 18.7461 68.7798 18.5102C69.1613 18.0106 69.3756 17.4034 69.3922 16.7749C69.4088 16.1465 69.2269 15.5289 68.8723 15.0098C68.5351 14.509 68.0557 14.1206 67.4958 13.8946C66.9359 13.6685 66.3213 13.6152 65.7308 13.7415C64.4397 14.0345 63.5177 15.0098 63.3427 16.3097C63.2837 16.7019 63.3064 17.102 63.4092 17.485C63.5119 17.868 63.6927 18.2256 63.94 18.5355C64.1011 18.7397 64.1201 18.8272 63.8728 18.9909C62.6046 19.8266 61.9235 21.0201 61.8106 22.542C61.7954 22.7475 61.7434 22.8096 61.5379 22.8045C60.9529 22.7919 60.3682 22.7919 59.7839 22.8045C59.5772 22.8045 59.5163 22.7487 59.5176 22.5395C59.5201 21.3508 59.5206 20.162 59.5211 18.973V18.9729C59.5219 17.1896 59.5227 15.4059 59.5303 13.6223C59.5303 12.784 60.2139 12.1777 61.0902 12.1739C62.7069 12.1582 64.3261 12.1589 65.9451 12.1597H65.9453H65.9454H65.9454H65.9454H65.9455H65.9455H65.9455H65.9456H65.9456H65.9457H65.9457H65.9457H65.9458H65.9458C66.2864 12.1598 66.6269 12.16 66.9674 12.16ZM74.7027 16.1167C74.7019 16.5611 74.701 17.0056 74.701 17.4501C74.701 17.8374 74.7015 18.2248 74.702 18.6123C74.7036 19.8855 74.7052 21.1593 74.6896 22.4331C74.6858 22.7261 74.7568 22.8123 75.0523 22.7984C75.6053 22.7755 76.1595 22.7857 76.7125 22.7984C76.9167 22.8034 76.9699 22.7426 76.9852 22.5371C77.098 21.0152 77.7804 19.8218 79.0486 18.986C79.2997 18.8211 79.2668 18.7374 79.1146 18.5307C78.1621 17.218 78.3257 15.5084 79.4951 14.4544C80.0521 13.952 80.7751 13.6729 81.5253 13.6708C82.2755 13.6687 83 13.9437 83.5599 14.443C84.1283 14.9462 84.4851 15.6459 84.5585 16.4014C84.6319 17.157 84.4165 17.9123 83.9556 18.5154C83.7729 18.764 83.8046 18.8426 84.0443 19.0037C85.2784 19.8306 85.9467 21.0025 86.0736 22.475C86.0964 22.7578 86.1902 22.8034 86.4363 22.7958C86.9576 22.7755 87.4813 22.7629 88.0013 22.7958C88.34 22.8174 88.3742 22.6779 88.3742 22.3925C88.3607 20.4326 88.3607 18.4715 88.3742 16.509C88.3755 16.2414 88.2968 16.1298 88.0432 16.0525C85.9801 15.4452 84.1742 14.1759 82.9042 12.4404C82.8419 12.344 82.7546 12.2663 82.6516 12.2156C82.5487 12.1649 82.4339 12.1431 82.3195 12.1525C79.9149 12.164 77.5166 12.1678 75.1069 12.1525C74.7771 12.15 74.6934 12.2261 74.6934 12.5622C74.7072 13.7474 74.705 14.9319 74.7027 16.1167ZM81.5035 45.5661C80.907 45.5661 80.3106 45.5656 79.7142 45.5651H79.714H79.7139H79.7138H79.7137H79.7136H79.7134H79.7133H79.7132H79.7131H79.713H79.7128C77.9245 45.5637 76.1366 45.5623 74.348 45.5737C74.0195 45.5737 73.9028 45.5039 73.9345 45.164C73.9538 44.9568 73.9496 44.7439 73.9453 44.5309C73.9426 44.3944 73.9399 44.2579 73.9434 44.1228C73.9573 43.5901 74.2363 43.2921 74.7627 43.2921C79.2802 43.2861 83.7978 43.2861 88.3154 43.2921C88.8227 43.2921 89.103 43.5876 89.122 44.0873C89.1272 44.2238 89.1241 44.3607 89.1209 44.4974C89.1164 44.6934 89.112 44.8888 89.1321 45.0816C89.1715 45.4621 89.0687 45.5813 88.6591 45.5775C86.8859 45.5596 85.1169 45.562 83.3432 45.5644H83.3426C82.7302 45.5652 82.1173 45.5661 81.5035 45.5661ZM65.5758 22.7863C65.833 22.7878 66.0904 22.7892 66.3477 22.7892C66.5769 22.7892 66.8061 22.7882 67.0354 22.7871H67.0354H67.0355H67.0355H67.0355H67.0355H67.0356H67.0356H67.0356H67.0356H67.0356C67.706 22.784 68.3766 22.7808 69.0466 22.8045C69.3662 22.8045 69.408 22.6979 69.3725 22.424C69.2836 21.6856 68.9275 21.0052 68.3713 20.5115C67.8151 20.0177 67.0974 19.7446 66.3537 19.7439C65.6099 19.7431 64.8917 20.0146 64.3344 20.5072C63.7772 20.9998 63.4196 21.6794 63.3292 22.4176C63.295 22.6713 63.3153 22.8083 63.6476 22.7981C64.2898 22.7791 64.9327 22.7827 65.5758 22.7863ZM81.5133 22.7892C81.2604 22.7892 81.0075 22.7883 80.7545 22.7874C80.1078 22.7851 79.4608 22.7828 78.8144 22.7956C78.5278 22.8019 78.4771 22.7068 78.5063 22.4468C78.5846 21.6994 78.9366 21.0074 79.4946 20.5041C80.0525 20.0007 80.7769 19.7215 81.5284 19.7202C82.2799 19.719 83.0052 19.9957 83.5649 20.4972C84.1245 20.9987 84.4789 21.6895 84.5597 22.4366C84.5977 22.7448 84.5001 22.8019 84.2135 22.7956C83.5672 22.7828 82.9203 22.7851 82.2732 22.7874L82.2717 22.7874C82.0189 22.7883 81.7661 22.7892 81.5133 22.7892ZM65.5743 34.935C65.8275 34.936 66.0808 34.9369 66.3341 34.9369C66.5906 34.9369 66.8473 34.9358 67.104 34.9348H67.1041H67.1042H67.1043H67.1045H67.1046H67.1047H67.1049H67.105C67.7477 34.9322 68.3907 34.9296 69.033 34.9432C69.3247 34.9495 69.4135 34.8861 69.3767 34.5817C69.2954 33.8347 68.9406 33.1441 68.3807 32.6429C67.8207 32.1418 67.0952 31.8655 66.3437 31.8672C65.5922 31.8689 64.868 32.1486 64.3103 32.6523C63.7527 33.1561 63.4011 33.8483 63.3232 34.5957C63.2941 34.8608 63.3511 34.9432 63.634 34.9432C64.2802 34.9304 64.9272 34.9327 65.5743 34.935ZM81.5357 34.9367C81.2811 34.9367 81.0266 34.9354 80.7721 34.9341C80.1263 34.9308 79.4806 34.9274 78.8355 34.9456C78.5134 34.9545 78.4753 34.8391 78.5108 34.5651C78.6005 33.8268 78.9573 33.1469 79.514 32.6537C80.0707 32.1605 80.7887 31.8882 81.5325 31.8882C82.2762 31.8882 82.9942 32.1605 83.5509 32.6537C84.1076 33.1469 84.4645 33.8268 84.5541 34.5651C84.5896 34.8289 84.5655 34.957 84.2345 34.9456C83.5922 34.9266 82.9492 34.9302 82.3065 34.9338H82.3064H82.3063H82.3061H82.306H82.3059H82.3057C82.049 34.9353 81.7923 34.9367 81.5357 34.9367ZM95.924 34.9346H95.9242H95.9245H95.9247C96.1815 34.9356 96.4382 34.9367 96.6948 34.9367C96.9188 34.9367 97.143 34.9359 97.3674 34.9352H97.3679H97.3683H97.3687C98.0434 34.9331 98.7195 34.931 99.395 34.9481C99.6753 34.9532 99.7818 34.905 99.7438 34.5917C99.6642 33.8445 99.311 33.1531 98.7522 32.6507C98.1934 32.1482 97.4685 31.8702 96.717 31.8702C95.9656 31.8702 95.2407 32.1482 94.6819 32.6507C94.1231 33.1531 93.7699 33.8445 93.6903 34.5917C93.6611 34.8479 93.7043 34.943 93.9947 34.943C94.638 34.9294 95.2812 34.932 95.924 34.9346ZM78.0485 41.2651L78.0485 41.2651C78.1099 40.8898 78.1676 40.5363 78.3683 40.3294C78.5522 40.1385 78.9046 40.1795 79.2557 40.2204C79.4059 40.2379 79.5559 40.2554 79.6924 40.2546C80.2845 40.2512 80.8769 40.2521 81.4694 40.253H81.4694H81.4695H81.4695H81.4696H81.4696H81.4702C82.4234 40.2544 83.3768 40.2558 84.3292 40.2394C84.678 40.2394 84.7947 40.3561 84.8479 40.6617C84.8694 40.7843 84.9153 40.923 84.9604 41.0594C85.0461 41.3183 85.1291 41.5689 85.0369 41.6852C84.8974 41.8652 84.6033 41.8294 84.3119 41.7938L84.3119 41.7938C84.1927 41.7792 84.074 41.7648 83.9665 41.7651C82.4412 41.7719 80.9159 41.7713 79.3647 41.7706L79.346 41.7706C78.8836 41.7704 78.4188 41.7702 77.9511 41.7702C77.993 41.6049 78.0211 41.4328 78.0485 41.2651ZM67.6075 17.5641C67.776 17.3132 67.8661 17.0178 67.8661 16.7156C67.8662 16.3169 67.7098 15.9342 67.4307 15.6496C67.1516 15.365 66.7719 15.2013 66.3734 15.1936C66.0712 15.1879 65.7741 15.2722 65.52 15.4358C65.2659 15.5995 65.0663 15.8351 64.9467 16.1127C64.827 16.3902 64.7927 16.6971 64.848 16.9942C64.9034 17.2913 65.046 17.5652 65.2577 17.781C65.4693 17.9968 65.7404 18.1446 66.0364 18.2058C66.3324 18.2669 66.6399 18.2385 66.9197 18.1242C67.1995 18.0099 67.4389 17.8149 67.6075 17.5641ZM83.0495 16.7141C83.0508 17.0166 82.9618 17.3125 82.7941 17.5642C82.6264 17.8159 82.3874 18.0119 82.1078 18.1272C81.8282 18.2425 81.5206 18.2719 81.2242 18.2116C80.9278 18.1513 80.6561 18.004 80.4438 17.7886C80.2315 17.5732 80.0881 17.2994 80.0321 17.0022C79.976 16.705 80.0098 16.3978 80.1291 16.1199C80.2484 15.842 80.4478 15.6059 80.7019 15.4418C80.9559 15.2777 81.2531 15.193 81.5555 15.1985C81.9532 15.2058 82.3322 15.3685 82.6115 15.6518C82.8907 15.935 83.048 16.3164 83.0495 16.7141ZM67.624 29.6927C67.7878 29.4388 67.8724 29.1419 67.8668 28.8397C67.8595 28.4409 67.6959 28.061 67.4113 27.7816C67.1267 27.5022 66.7438 27.3456 66.3449 27.3457C66.0427 27.3458 65.7474 27.4358 65.4965 27.6043C65.2457 27.7728 65.0507 28.0121 64.9364 28.2919C64.822 28.5716 64.7936 28.879 64.8546 29.175C64.9156 29.4709 65.0634 29.742 65.279 29.9537C65.4947 30.1654 65.7684 30.3081 66.0655 30.3636C66.3625 30.4192 66.6694 30.385 66.9469 30.2655C67.2245 30.1461 67.4602 29.9466 67.624 29.6927ZM83.0496 28.8438C83.0543 29.1462 82.9689 29.4432 82.8042 29.6968C82.6394 29.9505 82.4028 30.1493 82.1246 30.2679C81.8463 30.3865 81.5391 30.4195 81.242 30.3627C80.9449 30.3059 80.6715 30.1619 80.4567 29.949C80.2418 29.7361 80.0952 29.4641 80.0357 29.1675C79.9761 28.871 80.0063 28.5634 80.1223 28.2841C80.2383 28.0048 80.4349 27.7664 80.687 27.5993C80.9391 27.4322 81.2353 27.344 81.5378 27.346C81.9355 27.3486 82.3164 27.5068 82.599 27.7867C82.8815 28.0667 83.0433 28.4461 83.0496 28.8438ZM95.8673 30.1241C96.1173 30.2907 96.4109 30.3795 96.7113 30.3796C96.9124 30.3796 97.1116 30.3397 97.2972 30.2623C97.4829 30.1848 97.6513 30.0714 97.7929 29.9284C97.9344 29.7855 98.0462 29.6159 98.1217 29.4295C98.1973 29.2431 98.2352 29.0436 98.2332 28.8424C98.2302 28.5421 98.1384 28.2493 97.9693 28.0011C97.8003 27.7528 97.5616 27.5601 97.2832 27.4473C97.0049 27.3344 96.6994 27.3064 96.4051 27.3668C96.1109 27.4273 95.8412 27.5734 95.6298 27.7868C95.4185 28.0003 95.2751 28.2715 95.2176 28.5663C95.1601 28.8611 95.1911 29.1663 95.3067 29.4435C95.4223 29.7207 95.6174 29.9575 95.8673 30.1241Z" fill="black"/>
<path d="M87.5832 9.12388C86.8477 9.12388 86.8477 9.12388 86.8477 8.38828C86.8477 7.60449 86.8477 7.60449 87.6289 7.60449C88.3658 7.60449 88.3658 7.60449 88.3658 8.34009C88.3658 9.12387 88.3658 9.12388 87.5832 9.12388Z" fill="black"/>
<path d="M91.4019 8.38701C91.4019 9.12387 91.4019 9.12388 90.6676 9.12388C89.8838 9.12388 89.8838 9.12388 89.8838 8.34136C89.8838 7.60449 89.8838 7.60449 90.6181 7.60449C91.4019 7.60449 91.4019 7.60449 91.4019 8.38701Z" fill="black"/>
<path d="M94.439 8.38955C94.439 9.12388 94.439 9.12388 93.7022 9.12388C92.9209 9.12388 92.9209 9.12388 92.9209 8.33882C92.9209 7.60449 92.9209 7.60449 93.6578 7.60449C94.439 7.60449 94.439 7.60449 94.439 8.38955Z" fill="black"/>
<path d="M96.7266 7.60449C97.4761 7.60449 97.4761 7.60449 97.4761 8.37433C97.4761 9.12388 97.4761 9.12388 96.7063 9.12388C95.958 9.12388 95.958 9.12388 95.958 8.35404C95.958 7.60449 95.958 7.60449 96.7266 7.60449Z" fill="black"/>
</svg>
