<svg width="48" height="48" viewBox="0 0 48 48" fill="none" xmlns="http://www.w3.org/2000/svg">
<path fill-rule="evenodd" clip-rule="evenodd" d="M28.3052 40.2505C28.3383 40.3811 28.372 40.5089 28.4051 40.6349C28.489 40.9531 28.5695 41.2588 28.6286 41.5632C28.6688 41.7746 28.7892 41.7726 28.9274 41.7704H28.9275H28.9276H28.9278H28.9279H28.928H28.9282H28.9283H28.9284C28.9424 41.7701 28.9567 41.7699 28.971 41.7699C29.1291 41.7699 29.2873 41.7689 29.4454 41.7679C29.7616 41.766 30.0778 41.764 30.394 41.7699C30.9854 41.7751 31.5512 42.0114 31.9707 42.4283C32.3901 42.8451 32.6299 43.4095 32.6389 44.0008C32.6553 44.744 32.6503 45.4872 32.6389 46.2304C32.6312 46.7872 32.3434 47.0789 31.7853 47.0789H15.2763C14.717 47.0789 14.4303 46.7884 14.424 46.2317C14.4151 45.4707 14.4062 44.7097 14.424 43.9488C14.4437 43.3741 14.6815 42.8285 15.0891 42.4228C15.4966 42.0172 16.0433 41.7819 16.6181 41.7648C17.0924 41.7496 17.568 41.7382 18.0411 41.7648C18.3303 41.7851 18.4216 41.6672 18.4736 41.4161C18.5269 41.1536 18.5912 40.8912 18.6583 40.6166L18.6585 40.6161L18.6587 40.6152C18.6888 40.4922 18.7195 40.3668 18.7501 40.2378H3.30891C1.25432 40.2378 0 38.9873 0 36.9403V13.9314C0 11.8806 1.25305 10.6339 3.31144 10.6339H23.9297C23.4782 9.27562 23.3945 7.94014 23.7749 6.59324C24.3102 4.69971 25.4833 3.27038 27.0597 2.1543C31.2133 -0.794422 37.5014 -0.710716 41.5484 2.37244C43.6221 3.95143 44.8573 5.99208 44.7774 8.68715C44.761 9.2561 44.6584 9.81927 44.4731 10.3575C44.3881 10.6035 44.4223 10.6707 44.6798 10.7379C46.1522 11.0943 47.0641 12.2408 47.0654 13.7463V37.1357C47.0654 38.9366 45.7527 40.2454 43.9505 40.2467C38.9214 40.2543 33.8932 40.2543 28.8658 40.2467L28.3052 40.2505ZM34.1624 17.2895C34.0718 17.1094 33.9846 16.938 33.9004 16.7725L33.9003 16.7723L33.9002 16.7722C33.7052 16.3889 33.5262 16.0369 33.3571 15.6801C33.2874 15.513 33.1732 15.3682 33.027 15.2616C32.8807 15.1549 32.708 15.0904 32.5276 15.0751C30.6354 14.7999 28.8877 14.1493 27.4089 12.9076C25.9301 11.666 24.9878 10.1517 25.0639 8.15796C25.1362 6.23654 26.1178 4.77423 27.6004 3.64166C29.8402 1.9257 32.4198 1.35878 35.1897 1.57819C37.2456 1.74053 39.1467 2.37593 40.779 3.67464C42.3009 4.88203 43.2914 6.40141 43.266 8.40528C43.2394 10.5258 42.103 12.0566 40.4619 13.2615C39.0668 14.2824 37.4853 14.8341 35.7909 15.0764C35.6106 15.0935 35.4385 15.1596 35.2932 15.2676C35.1479 15.3756 35.0349 15.5213 34.9665 15.6889C34.8115 16.0076 34.6515 16.3229 34.4807 16.6596L34.4803 16.6603L34.4801 16.6606L34.4793 16.6624C34.3779 16.8621 34.2727 17.0694 34.1624 17.2895ZM45.0158 36.446C37.8527 36.452 30.6903 36.4549 23.5289 36.4549L2.04441 36.4537C2.00846 36.4537 1.97237 36.4545 1.93624 36.4553H1.93611H1.93597H1.93584H1.9357H1.93556H1.93543H1.93529H1.93515H1.93501H1.93487H1.93473H1.93459H1.93445H1.9343H1.93416H1.93402H1.93388C1.8599 36.457 1.78573 36.4587 1.71212 36.4537C1.57261 36.4448 1.5333 36.5057 1.51808 36.6439C1.3494 38.1747 2.28538 38.7454 3.31141 38.7454C16.7965 38.737 30.2824 38.7327 43.7691 38.7327C44.9677 38.7327 45.5219 38.1557 45.5612 36.9673C45.5764 36.5133 45.423 36.446 45.0158 36.446ZM38.6745 22.7896H38.6726C36.54 22.7896 34.4074 22.7896 32.2748 22.7959C31.9856 22.7959 31.8715 22.7503 31.8753 22.4154C31.8868 21.219 31.8866 20.0226 31.8864 18.8261C31.8863 18.1734 31.8862 17.5207 31.888 16.868C31.888 16.8406 31.8829 16.8089 31.8776 16.7763C31.8617 16.6779 31.8444 16.5707 31.9616 16.5421C32.1063 16.5064 32.1503 16.6257 32.1905 16.7346C32.2017 16.765 32.2126 16.7946 32.2253 16.8198C32.6253 17.6062 33.0197 18.3955 33.4086 19.1877C33.5646 19.5048 33.7777 19.7419 34.1595 19.7445C34.5412 19.747 34.7555 19.5111 34.9128 19.1928C35.0898 18.8306 35.2697 18.4698 35.4497 18.1091L35.4501 18.1082C35.6569 17.6937 35.8636 17.2792 36.0657 16.863C36.1034 16.7622 36.1687 16.6742 36.2542 16.6089C36.3396 16.5436 36.4418 16.5038 36.5489 16.4939C39.386 16.0411 41.6955 14.6803 43.447 12.3949C43.5027 12.3132 43.5789 12.2476 43.6679 12.2047C43.7569 12.1617 43.8557 12.1429 43.9543 12.1501C44.8979 12.1628 45.5422 12.8032 45.5434 13.776C45.5434 16.6524 45.5434 19.5289 45.5523 22.4002C45.5523 22.7097 45.4724 22.7883 45.1642 22.787C43.8354 22.7847 42.5047 22.7862 41.1732 22.7877L41.169 22.7877C40.3377 22.7886 39.5061 22.7896 38.6745 22.7896ZM9.95905 24.3089C9.42538 24.3083 8.89165 24.3077 8.35785 24.3077L2.15095 24.3051H2.15092C1.82889 24.3051 1.67041 24.3051 1.5924 24.3844C1.51681 24.4612 1.51681 24.6124 1.51681 24.9101V28.1822C1.51681 28.7117 1.51737 29.2412 1.51792 29.7706C1.51959 31.3592 1.52125 32.9477 1.50793 34.5363C1.5054 34.8787 1.60179 34.9599 1.92646 34.9421C2.43377 34.9167 2.94108 34.9281 3.44838 34.9421C3.68936 34.9497 3.79335 34.9193 3.81618 34.6288C3.93667 33.1551 4.6025 31.9782 5.83907 31.1614C6.13457 30.9661 6.08384 30.8684 5.91009 30.6389C5.67268 30.3312 5.50004 29.9786 5.40261 29.6024C5.30518 29.2261 5.28496 28.8341 5.34318 28.4498C5.522 27.1537 6.44276 26.1771 7.73259 25.8854C8.33183 25.7584 8.95549 25.8158 9.52146 26.0501C10.0874 26.2844 10.5692 26.6846 10.9033 27.1981C11.2446 27.716 11.4164 28.3273 11.3948 28.9472C11.3732 29.5671 11.1593 30.165 10.7828 30.6579C10.6078 30.8951 10.6078 30.98 10.8614 31.1487C12.103 31.982 12.7752 33.1678 12.8906 34.6605C12.9084 34.8914 12.9705 34.9434 13.1925 34.9434C13.7137 34.9243 14.2375 34.9078 14.7563 34.9434C15.1164 34.9675 15.1913 34.8559 15.1913 34.5045C15.1769 31.251 15.1769 27.9958 15.1913 24.7389C15.1925 24.3939 15.1228 24.2975 14.7588 24.2975C13.1591 24.3127 11.5593 24.3108 9.95905 24.3089ZM23.5415 24.3074C24.0754 24.3074 24.6092 24.308 25.1429 24.3087H25.1431H25.1433H25.1434H25.1436H25.1438H25.144H25.1441H25.1443H25.1445H25.1447H25.1449H25.145H25.1452H25.1454H25.1456C26.7449 24.3106 28.3437 24.3125 29.9425 24.2973C30.3065 24.2973 30.3762 24.3949 30.3737 24.7399C30.3602 27.996 30.3602 31.2512 30.3737 34.5056C30.3737 34.8569 30.2976 34.9672 29.9374 34.9431C29.4187 34.9089 28.8949 34.9228 28.3736 34.9431C28.1517 34.9431 28.0908 34.8898 28.0731 34.659C27.9564 33.1675 27.2842 31.9817 26.0362 31.1484C25.7826 30.9798 25.7826 30.8948 25.9589 30.6576C26.3349 30.1644 26.5484 29.5665 26.5697 28.9467C26.5911 28.3269 26.4193 27.7157 26.0781 27.1978C25.7441 26.6842 25.2624 26.2839 24.6964 26.0496C24.1304 25.8152 23.5067 25.7579 22.9074 25.8851C21.6176 26.1768 20.6956 27.1534 20.518 28.4508C20.4595 28.8429 20.4822 29.2428 20.5848 29.6257C20.6873 30.0086 20.8675 30.3663 21.1141 30.6766C21.2701 30.877 21.3056 30.9658 21.0519 31.1332C19.7837 31.9677 19.1013 33.1625 18.9859 34.6755C18.9707 34.8733 18.9289 34.9482 18.7183 34.9431L18.5998 34.9402H18.5997H18.5996H18.5995H18.5994H18.5993H18.5992H18.5991H18.599H18.5989H18.5988H18.5987H18.5986H18.5985H18.5984H18.5983C18.0695 34.9269 17.5372 34.9136 17.0125 34.9431C16.686 34.9634 16.6903 34.7997 16.6954 34.6092C16.6961 34.5851 16.6967 34.5606 16.6967 34.536V27.9917C16.6967 27.6832 16.6987 27.3745 16.7007 27.0658V27.0657V27.0656V27.0654V27.0653V27.0652V27.065V27.0649V27.0648V27.0646V27.0645V27.0644V27.0642V27.0641V27.064V27.0639C16.7056 26.2985 16.7106 25.5328 16.6853 24.7678C16.6713 24.3493 16.8121 24.2922 17.185 24.296C18.7867 24.3123 20.3927 24.3105 21.9976 24.3086H21.9978H21.9979H21.9981H21.9982H21.9984H21.9986H21.9987H21.9989H21.999H21.9992H21.9993H21.9995H21.9996H21.9998H22.0004H22.0008H22.0011H22.0015H22.0018H22.0022H22.0025H22.0029H22.0032H22.0036H22.0039H22.0043H22.0046H22.005H22.0053H22.0057C22.5178 24.308 23.0298 24.3074 23.5415 24.3074ZM38.757 24.3074H38.7554L32.2682 24.3163C32.2449 24.3163 32.2218 24.3156 32.1992 24.3149C32.0291 24.3098 31.8877 24.3055 31.8877 24.6067C31.8953 27.9575 31.8953 31.3083 31.8877 34.659C31.8877 34.8848 31.946 34.9507 32.1769 34.9507C32.7298 34.933 33.2841 34.9304 33.8358 34.9507C34.0983 34.9596 34.1642 34.8835 34.1871 34.6184C34.3114 33.165 34.9709 32.002 36.182 31.1814C36.4611 30.9925 36.4738 30.8999 36.2734 30.6297C35.8287 30.0258 35.6257 29.2776 35.704 28.5318C35.7824 27.7859 36.1365 27.0962 36.697 26.5979C37.2558 26.1003 37.9779 25.8254 38.7262 25.8254C39.4744 25.8254 40.1966 26.1003 40.7554 26.5979C41.3087 27.0922 41.6591 27.7741 41.739 28.5117C41.8189 29.2493 41.6225 29.9904 41.1879 30.5917C40.9469 30.9202 41.0281 31.0204 41.3147 31.2119C42.1708 31.7826 42.72 32.593 43.0675 33.5582C43.1274 33.7217 43.139 33.9171 43.1504 34.1091C43.1701 34.4411 43.1892 34.763 43.4568 34.8924C43.7507 35.0345 44.13 35.0009 44.5092 34.9674C44.6749 34.9527 44.8405 34.938 44.999 34.938C45.0463 34.9336 45.0938 34.9336 45.1411 34.938C45.4658 34.9951 45.5596 34.8797 45.5596 34.5385C45.541 31.2664 45.541 27.9943 45.5596 24.7221C45.5622 24.3404 45.4366 24.2998 45.1081 24.2998C42.9919 24.3074 40.8744 24.3074 38.757 24.3074ZM8.9674 12.16C9.45384 12.16 9.9402 12.1604 10.4265 12.1609C11.8852 12.1623 13.3433 12.1638 14.8014 12.1524C15.1096 12.1524 15.1908 12.2285 15.1895 12.5392C15.1785 15.8282 15.1785 19.1168 15.1895 22.405C15.1895 22.7069 15.1248 22.8134 14.809 22.7969C14.2721 22.7697 13.734 22.7697 13.1971 22.7969C12.9263 22.8103 12.9148 22.6818 12.8976 22.4905L12.8952 22.4646C12.7583 20.9934 12.0924 19.8216 10.8584 18.9997C10.6047 18.8323 10.6047 18.7461 10.7798 18.5102C11.1613 18.0106 11.3756 17.4034 11.3922 16.7749C11.4088 16.1465 11.2269 15.5289 10.8723 15.0098C10.5351 14.509 10.0557 14.1206 9.4958 13.8946C8.93594 13.6685 8.32125 13.6152 7.73084 13.7415C6.43974 14.0345 5.51771 15.0098 5.34269 16.3097C5.28375 16.7019 5.30637 17.102 5.40916 17.485C5.51195 17.868 5.69268 18.2256 5.94004 18.5355C6.10112 18.7397 6.12014 18.8272 5.87283 18.9909C4.60456 19.8266 3.9235 21.0201 3.81062 22.542C3.7954 22.7475 3.74341 22.8096 3.53795 22.8045C2.95285 22.7919 2.36818 22.7919 1.78393 22.8045C1.57721 22.8045 1.51633 22.7487 1.5176 22.5395C1.52013 21.3508 1.52064 20.162 1.52115 18.973V18.9729C1.52191 17.1896 1.52267 15.4059 1.53028 13.6223C1.53028 12.784 2.21388 12.1777 3.09025 12.1739C4.70688 12.1582 6.32611 12.1589 7.94507 12.1597H7.94532H7.94535H7.94539H7.94543H7.94547H7.9455H7.94554H7.94558H7.94561H7.94565H7.94569H7.94573H7.94576H7.9458C8.28635 12.1598 8.6269 12.16 8.9674 12.16ZM16.7027 16.1167C16.7019 16.5611 16.701 17.0056 16.701 17.4501C16.701 17.8374 16.7015 18.2248 16.702 18.6123C16.7036 19.8855 16.7052 21.1593 16.6896 22.4331C16.6858 22.7261 16.7568 22.8123 17.0523 22.7984C17.6053 22.7755 18.1595 22.7857 18.7125 22.7984C18.9167 22.8034 18.9699 22.7426 18.9852 22.5371C19.098 21.0152 19.7804 19.8218 21.0486 18.986C21.2997 18.8211 21.2668 18.7374 21.1146 18.5307C20.1621 17.218 20.3257 15.5084 21.4951 14.4544C22.0521 13.952 22.7751 13.6729 23.5253 13.6708C24.2755 13.6687 25 13.9437 25.5599 14.443C26.1283 14.9462 26.4851 15.6459 26.5585 16.4014C26.6319 17.157 26.4165 17.9123 25.9556 18.5154C25.7729 18.764 25.8046 18.8426 26.0443 19.0037C27.2784 19.8306 27.9467 21.0025 28.0736 22.475C28.0964 22.7578 28.1902 22.8034 28.4363 22.7958C28.9576 22.7755 29.4813 22.7629 30.0013 22.7958C30.34 22.8174 30.3742 22.6779 30.3742 22.3925C30.3607 20.4326 30.3607 18.4715 30.3742 16.509C30.3755 16.2414 30.2968 16.1298 30.0432 16.0525C27.9801 15.4452 26.1742 14.1759 24.9042 12.4404C24.8419 12.344 24.7546 12.2663 24.6516 12.2156C24.5487 12.1649 24.4339 12.1431 24.3195 12.1525C21.9149 12.164 19.5166 12.1678 17.1069 12.1525C16.7771 12.15 16.6934 12.2261 16.6934 12.5622C16.7072 13.7474 16.705 14.9319 16.7027 16.1167ZM23.5035 45.5661C22.907 45.5661 22.3106 45.5656 21.7142 45.5651H21.714H21.7139H21.7138H21.7137H21.7136H21.7134H21.7133H21.7132H21.7131H21.713H21.7128C19.9245 45.5637 18.1366 45.5623 16.348 45.5737C16.0195 45.5737 15.9028 45.5039 15.9345 45.164C15.9538 44.9568 15.9496 44.7439 15.9453 44.5309C15.9426 44.3944 15.9399 44.2579 15.9434 44.1228C15.9573 43.5901 16.2363 43.2921 16.7627 43.2921C21.2802 43.2861 25.7978 43.2861 30.3154 43.2921C30.8227 43.2921 31.103 43.5876 31.122 44.0873C31.1272 44.2238 31.1241 44.3607 31.1209 44.4974C31.1164 44.6934 31.112 44.8888 31.1321 45.0816C31.1715 45.4621 31.0687 45.5813 30.6591 45.5775C28.8859 45.5596 27.1169 45.562 25.3432 45.5644H25.3426C24.7302 45.5652 24.1173 45.5661 23.5035 45.5661ZM7.57575 22.7863C7.83305 22.7878 8.09038 22.7892 8.3477 22.7892C8.57687 22.7892 8.80612 22.7882 9.03541 22.7871H9.03544H9.03546H9.03548H9.0355H9.03553H9.03555H9.03557H9.0356H9.03562H9.03564C9.70596 22.784 10.3766 22.7808 11.0466 22.8045C11.3662 22.8045 11.408 22.6979 11.3725 22.424C11.2836 21.6856 10.9275 21.0052 10.3713 20.5115C9.81514 20.0177 9.09742 19.7446 8.35368 19.7439C7.60994 19.7431 6.89165 20.0146 6.33444 20.5072C5.77722 20.9998 5.41965 21.6794 5.32922 22.4176C5.29498 22.6713 5.31527 22.8083 5.64756 22.7981C6.2898 22.7791 6.93268 22.7827 7.57575 22.7863ZM23.5133 22.7892C23.2604 22.7892 23.0075 22.7883 22.7545 22.7874C22.1078 22.7851 21.4608 22.7828 20.8144 22.7956C20.5278 22.8019 20.4771 22.7068 20.5063 22.4468C20.5846 21.6994 20.9366 21.0074 21.4946 20.5041C22.0525 20.0007 22.7769 19.7215 23.5284 19.7202C24.2799 19.719 25.0052 19.9957 25.5649 20.4972C26.1245 20.9987 26.4789 21.6895 26.5597 22.4366C26.5977 22.7448 26.5001 22.8019 26.2135 22.7956C25.5672 22.7828 24.9203 22.7851 24.2732 22.7874L24.2717 22.7874C24.0189 22.7883 23.7661 22.7892 23.5133 22.7892ZM7.57426 34.935C7.82753 34.936 8.08082 34.9369 8.33411 34.9369C8.59064 34.9369 8.84727 34.9358 9.10395 34.9348H9.10408H9.10421H9.10435H9.10448H9.10461H9.10474H9.10487H9.105C9.74769 34.9322 10.3907 34.9296 11.033 34.9432C11.3247 34.9495 11.4135 34.8861 11.3767 34.5817C11.2954 33.8347 10.9406 33.1441 10.3807 32.6429C9.82071 32.1418 9.09516 31.8655 8.34369 31.8672C7.59222 31.8689 6.86795 32.1486 6.31032 32.6523C5.75268 33.1561 5.40109 33.8483 5.32324 34.5957C5.29407 34.8608 5.35114 34.9432 5.63396 34.9432C6.28023 34.9304 6.92716 34.9327 7.57426 34.935ZM23.5357 34.9367C23.2811 34.9367 23.0266 34.9354 22.7721 34.9341C22.1263 34.9308 21.4806 34.9274 20.8355 34.9456C20.5134 34.9545 20.4753 34.8391 20.5108 34.5651C20.6005 33.8268 20.9573 33.1469 21.514 32.6537C22.0707 32.1605 22.7887 31.8882 23.5325 31.8882C24.2762 31.8882 24.9942 32.1605 25.5509 32.6537C26.1076 33.1469 26.4645 33.8268 26.5541 34.5651C26.5896 34.8289 26.5655 34.957 26.2345 34.9456C25.5922 34.9266 24.9492 34.9302 24.3065 34.9338H24.3064H24.3063H24.3061H24.306H24.3059H24.3057C24.049 34.9353 23.7923 34.9367 23.5357 34.9367ZM37.924 34.9346H37.9242H37.9245H37.9247C38.1815 34.9356 38.4382 34.9367 38.6948 34.9367C38.9188 34.9367 39.143 34.9359 39.3674 34.9352H39.3679H39.3683H39.3687C40.0434 34.9331 40.7195 34.931 41.395 34.9481C41.6753 34.9532 41.7818 34.905 41.7438 34.5917C41.6642 33.8445 41.311 33.1531 40.7522 32.6507C40.1934 32.1482 39.4685 31.8702 38.717 31.8702C37.9656 31.8702 37.2407 32.1482 36.6819 32.6507C36.1231 33.1531 35.7699 33.8445 35.6903 34.5917C35.6611 34.8479 35.7043 34.943 35.9947 34.943C36.638 34.9294 37.2812 34.932 37.924 34.9346ZM20.0485 41.2651L20.0485 41.2651C20.1099 40.8898 20.1676 40.5363 20.3683 40.3294C20.5522 40.1385 20.9046 40.1795 21.2557 40.2204C21.4059 40.2379 21.5559 40.2554 21.6924 40.2546C22.2845 40.2512 22.8769 40.2521 23.4694 40.253H23.4694H23.4695H23.4695H23.4696H23.4696H23.4702C24.4234 40.2544 25.3768 40.2558 26.3292 40.2394C26.678 40.2394 26.7947 40.3561 26.8479 40.6617C26.8694 40.7843 26.9153 40.923 26.9604 41.0594C27.0461 41.3183 27.1291 41.5689 27.0369 41.6852C26.8974 41.8652 26.6033 41.8294 26.3119 41.7938L26.3119 41.7938C26.1927 41.7792 26.074 41.7648 25.9665 41.7651C24.4412 41.7719 22.9159 41.7713 21.3647 41.7706L21.346 41.7706C20.8836 41.7704 20.4188 41.7702 19.9511 41.7702C19.993 41.6049 20.0211 41.4328 20.0485 41.2651ZM9.60745 17.5641C9.77601 17.3132 9.86605 17.0178 9.86611 16.7156C9.86618 16.3169 9.70984 15.9342 9.43071 15.6496C9.15157 15.365 8.77192 15.2013 8.37336 15.1936C8.07117 15.1879 7.77411 15.2722 7.52002 15.4358C7.26594 15.5995 7.06634 15.8351 6.94666 16.1127C6.82698 16.3902 6.79265 16.6971 6.84804 16.9942C6.90343 17.2913 7.04603 17.5652 7.25767 17.781C7.4693 17.9968 7.74039 18.1446 8.03638 18.2058C8.33238 18.2669 8.63986 18.2385 8.91966 18.1242C9.19946 18.0099 9.4389 17.8149 9.60745 17.5641ZM25.0495 16.7141C25.0508 17.0166 24.9618 17.3125 24.7941 17.5642C24.6264 17.8159 24.3874 18.0119 24.1078 18.1272C23.8282 18.2425 23.5206 18.2719 23.2242 18.2116C22.9278 18.1513 22.6561 18.004 22.4438 17.7886C22.2315 17.5732 22.0881 17.2994 22.0321 17.0022C21.976 16.705 22.0098 16.3978 22.1291 16.1199C22.2484 15.842 22.4478 15.6059 22.7019 15.4418C22.9559 15.2777 23.2531 15.193 23.5555 15.1985C23.9532 15.2058 24.3322 15.3685 24.6115 15.6518C24.8907 15.935 25.048 16.3164 25.0495 16.7141ZM9.62401 29.6927C9.78784 29.4388 9.87237 29.1419 9.86683 28.8397C9.85952 28.4409 9.69595 28.061 9.41132 27.7816C9.1267 27.5022 8.74376 27.3456 8.34491 27.3457C8.04272 27.3458 7.74739 27.4358 7.49654 27.6043C7.2457 27.7728 7.05069 28.0121 6.93636 28.2919C6.82204 28.5716 6.79357 28.879 6.8546 29.175C6.91562 29.4709 7.06336 29.742 7.27901 29.9537C7.49465 30.1654 7.76843 30.3081 8.06547 30.3636C8.36251 30.4192 8.66935 30.385 8.94692 30.2655C9.22448 30.1461 9.46018 29.9466 9.62401 29.6927ZM25.0496 28.8438C25.0543 29.1462 24.9689 29.4432 24.8042 29.6968C24.6394 29.9505 24.4028 30.1493 24.1246 30.2679C23.8463 30.3865 23.5391 30.4195 23.242 30.3627C22.9449 30.3059 22.6715 30.1619 22.4567 29.949C22.2418 29.7361 22.0952 29.4641 22.0357 29.1675C21.9761 28.871 22.0063 28.5634 22.1223 28.2841C22.2383 28.0048 22.4349 27.7664 22.687 27.5993C22.9391 27.4322 23.2353 27.344 23.5378 27.346C23.9355 27.3486 24.3164 27.5068 24.599 27.7867C24.8815 28.0667 25.0433 28.4461 25.0496 28.8438ZM37.8673 30.1241C38.1173 30.2907 38.4109 30.3795 38.7113 30.3796C38.9124 30.3796 39.1116 30.3397 39.2972 30.2623C39.4829 30.1848 39.6513 30.0714 39.7929 29.9284C39.9344 29.7855 40.0462 29.6159 40.1217 29.4295C40.1973 29.2431 40.2352 29.0436 40.2332 28.8424C40.2302 28.5421 40.1384 28.2493 39.9693 28.0011C39.8003 27.7528 39.5616 27.5601 39.2832 27.4473C39.0049 27.3344 38.6994 27.3064 38.4051 27.3668C38.1109 27.4273 37.8412 27.5734 37.6298 27.7868C37.4185 28.0003 37.2751 28.2715 37.2176 28.5663C37.1601 28.8611 37.1911 29.1663 37.3067 29.4435C37.4223 29.7207 37.6174 29.9575 37.8673 30.1241Z" fill="black"/>
<path d="M29.5832 9.12388C28.8477 9.12388 28.8477 9.12388 28.8477 8.38828C28.8477 7.60449 28.8477 7.60449 29.6289 7.60449C30.3658 7.60449 30.3658 7.60449 30.3658 8.34009C30.3658 9.12387 30.3658 9.12388 29.5832 9.12388Z" fill="black"/>
<path d="M33.4019 8.38701C33.4019 9.12387 33.4019 9.12388 32.6676 9.12388C31.8838 9.12388 31.8838 9.12388 31.8838 8.34136C31.8838 7.60449 31.8838 7.60449 32.6181 7.60449C33.4019 7.60449 33.4019 7.60449 33.4019 8.38701Z" fill="black"/>
<path d="M36.439 8.38955C36.439 9.12388 36.439 9.12388 35.7022 9.12388C34.9209 9.12388 34.9209 9.12388 34.9209 8.33882C34.9209 7.60449 34.9209 7.60449 35.6578 7.60449C36.439 7.60449 36.439 7.60449 36.439 8.38955Z" fill="black"/>
<path d="M38.7266 7.60449C39.4761 7.60449 39.4761 7.60449 39.4761 8.37433C39.4761 9.12388 39.4761 9.12388 38.7063 9.12388C37.958 9.12388 37.958 9.12388 37.958 8.35404C37.958 7.60449 37.958 7.60449 38.7266 7.60449Z" fill="black"/>
</svg>
