<svg width="191" height="45" viewBox="0 0 191 45" fill="none" xmlns="http://www.w3.org/2000/svg">
<g clip-path="url(#clip0_4862_20925)">
<path d="M0.0274573 7.33073L2.06384 7.32217C3.94252 7.31427 5.82491 7.37621 7.69976 7.26845C8.76297 7.20625 9.2549 7.62447 9.69774 8.55266C11.7954 12.9637 13.9635 17.3404 16.1106 21.7276C16.2771 22.0681 16.4715 22.3952 16.7417 22.8882C16.9854 22.4831 17.1716 22.215 17.3132 21.9263C19.5147 17.4372 21.7395 12.9594 23.8856 8.44278C24.337 7.49063 24.8833 7.15291 25.9082 7.19594C27.7446 7.27308 29.5877 7.20414 31.4276 7.19698L32.9386 7.19063C27.5366 17.3988 22.2601 27.3698 16.8751 37.5467C19.9252 37.8941 22.3962 37.2712 24.3831 35.1158C25.9518 33.4137 26.9833 31.3686 27.8443 29.2404C30.0418 23.8108 32.168 18.3527 34.386 12.9328C35.5485 10.0905 36.9723 7.37978 38.931 4.99534C41.8701 1.41464 45.7045 0.241601 50.143 0.685367C50.4016 0.711413 50.6526 0.820047 50.9871 0.912742L51.0123 6.9074C50.6007 6.90913 50.2655 6.9192 49.9307 6.91195C47.1681 6.84216 45.0708 8.07545 43.4661 10.2875C41.5331 12.9513 40.4365 16.0306 39.203 19.0447C37.1033 24.1766 35.0601 29.3348 32.8304 34.4083C31.5932 37.2233 29.8709 39.7637 27.3819 41.6672C25.3389 43.2282 22.9906 43.7917 20.499 43.9696C19.7523 44.023 19.5168 43.539 19.2351 43.016C16.5149 37.9679 13.7903 32.9219 11.0611 27.8781C7.58017 21.4349 4.10101 14.9912 0.623533 8.54691C0.455447 8.2428 0.317472 7.92876 0.0274573 7.33073Z" fill="#333333"/>
<path d="M175.704 12.6222L175.679 6.6067L179.006 6.59272L179.084 25.1575C176.23 25.8074 173.367 26.2952 170.604 24.8162C168.199 23.5291 167.505 21.2822 167.692 18.6968C167.88 16.0981 169.629 13.9264 172.16 13.2086C173.253 12.8992 174.41 12.8279 175.704 12.6222ZM175.646 22.3483L175.619 16.0188C173.946 15.8746 172.537 16.1513 171.603 17.5904C170.911 18.6556 171.001 20.364 171.723 21.3378C172.541 22.4399 173.938 22.818 175.646 22.3483Z" fill="#333333"/>
<path d="M74.1476 25.6839L74.1322 22.0174C74.8857 22.087 75.5596 22.1846 76.236 22.2014C76.8054 22.2158 77.3992 22.2231 77.9434 22.084C79.3413 21.7265 79.7851 20.4569 78.8921 19.2996C78.4777 18.7622 77.8754 18.3716 77.3492 17.9252C76.5288 17.2301 75.5909 16.6423 74.8958 15.8376C72.7093 13.3066 73.4391 9.76465 76.4179 8.3204C78.3496 7.38339 80.399 7.35342 82.5639 7.72996L82.579 11.3277C82.2415 11.3291 81.9152 11.3189 81.5902 11.3318C80.943 11.3617 80.2762 11.3183 79.6522 11.4612C78.261 11.7794 77.9325 12.9833 78.9795 13.9534C79.6265 14.5516 80.3987 15.0091 81.108 15.5378C82.4752 16.5574 83.5439 17.8022 83.8655 19.5501C84.4149 22.54 82.9327 24.8883 79.945 25.7189C78.0594 26.2459 76.1608 26.1118 74.1476 25.6839Z" fill="#333333"/>
<path d="M119.408 26.4618L113.335 13.461L117.026 13.4455L119.78 19.7121L123.662 12.6099L127.707 19.9409C128.739 17.6146 129.681 15.4873 130.64 13.3334L133.862 13.3198C131.872 17.6863 129.945 21.9128 127.888 26.4256C126.408 23.8195 125.084 21.4876 123.637 18.9385L119.408 26.4618Z" fill="#333333"/>
<path d="M90.1323 25.7659L86.8076 25.7799L86.7285 6.96338L90.0452 6.94944L90.0738 13.7316C91.1589 13.477 92.1331 13.0879 93.1195 13.052C95.0191 12.9862 96.5801 14.2168 96.6901 16.1232C96.8742 19.2861 96.7628 22.4664 96.7765 25.7195L93.5742 25.7329C93.5473 25.2955 93.504 24.8869 93.5006 24.4782C93.4821 22.3821 93.5052 20.2852 93.452 18.1898C93.4159 16.7905 92.8374 16.2203 91.6831 16.2794C90.6016 16.3342 90.1022 16.8483 90.1029 17.9602C90.1029 20.5189 90.121 23.0768 90.1323 25.7659Z" fill="#333333"/>
<path d="M106.126 26.1515C102.335 26.1715 99.5173 23.3944 99.4986 19.6194C99.479 15.7683 102.25 12.9804 106.121 12.9525C109.975 12.9277 112.823 15.7324 112.822 19.5513C112.821 23.3702 110.028 26.1351 106.126 26.1515ZM102.96 19.5719C102.957 21.4297 104.294 22.8183 106.105 22.8379C107.966 22.8583 109.374 21.4386 109.366 19.5496C109.358 17.7023 107.999 16.3017 106.198 16.2833C104.32 16.264 102.962 17.6426 102.96 19.5725L102.96 19.5719Z" fill="#333333"/>
<path d="M155.657 25.2188C153.333 25.7378 151.069 26.1711 148.783 25.6293C147.928 25.4263 147.033 24.9763 146.38 24.3844C144.567 22.7421 144.96 19.8331 147.162 18.7235C148.2 18.1995 149.415 18.0316 150.556 17.7278C151.068 17.5934 151.591 17.5266 152.316 17.3901C150.94 15.074 148.952 16.1002 147.122 16.0368L147.11 13.1613C149.453 12.6457 151.793 12.3652 153.978 13.861C154.993 14.5547 155.548 15.6441 155.592 16.8274C155.696 19.5691 155.645 22.3191 155.657 25.2188ZM152.265 19.9357C151.274 20.2037 150.367 20.3536 149.549 20.7144C149.197 20.87 148.808 21.4847 148.844 21.8495C148.881 22.2142 149.383 22.7564 149.753 22.8242C150.551 22.9709 151.389 22.8635 152.277 22.8597L152.265 19.9357Z" fill="#333333"/>
<path d="M189.524 13.1719C189.526 13.7411 189.537 14.3559 189.527 14.9708C189.523 15.2323 189.472 15.4906 189.448 15.7176C188.583 15.7212 187.785 15.6622 187.004 15.7515C186.556 15.8031 186.135 16.0952 185.701 16.2766C185.975 16.6466 186.187 17.0989 186.536 17.37C187.171 17.8615 187.919 18.2036 188.566 18.6817C189.936 19.6967 190.467 21.1042 190.12 22.7741C189.785 24.3833 188.593 25.1134 187.124 25.4706C185.679 25.823 183.722 25.7372 182.424 25.2733L182.412 22.4895C183.389 22.5518 184.296 22.6877 185.192 22.6337C185.664 22.6058 186.117 22.2465 186.578 22.0373C186.285 21.5894 186.072 21.0413 185.68 20.7162C185.094 20.2308 184.355 19.9401 183.728 19.4988C182.516 18.6465 181.772 17.5008 181.991 15.9452C182.212 14.3757 183.27 13.5348 184.678 13.0774C186.06 12.6334 188.188 12.6626 189.524 13.1719Z" fill="#333333"/>
<path d="M72.226 13.5807L65.2787 26.7015C62.8648 22.2352 60.587 18.0218 58.1915 13.5889C59.5481 13.5832 60.6501 13.5277 61.7418 13.6103C62.0083 13.6306 62.3164 14.0622 62.4765 14.3727C63.2566 15.8878 63.9918 17.4261 64.7463 18.954C64.9139 19.2939 65.0969 19.6256 65.3678 20.1412C66.1621 18.5358 66.8557 17.081 67.5943 15.6508C68.9383 13.0472 68.0753 13.6051 70.9893 13.5235C71.3205 13.5141 71.6566 13.5531 72.226 13.5807Z" fill="#333333"/>
<path d="M143.078 25.48C140.474 26.3505 137.213 25.3418 135.588 23.2022C134.122 21.2709 134.01 17.9848 135.34 15.954C136.84 13.6644 140.018 12.5253 142.964 13.2865L142.976 16.2827C139.094 16.6708 137.947 17.4007 137.963 19.4316C137.979 21.5133 139.25 22.2839 143.065 22.4699L143.078 25.48Z" fill="#333333"/>
<path d="M162.049 13.2211C162.134 13.5475 162.201 13.8029 162.297 14.1691C163.375 13.4106 164.464 12.8178 165.879 13.0687L165.892 16.2722C165.374 16.3546 164.817 16.4164 164.272 16.5347C162.714 16.8738 162.313 17.3904 162.318 18.9988C162.327 21.1215 162.336 23.2448 162.345 25.4386L159.005 25.4526L158.954 13.2341L162.049 13.2211Z" fill="#333333"/>
<path d="M125.348 39.8815C125.344 39.0508 125.358 38.2194 125.332 37.3893C125.31 36.7255 125.309 35.9392 124.415 35.9187C123.521 35.8983 123.321 36.6225 123.299 37.3765C123.276 38.2276 123.28 39.0791 123.273 39.9301L122.817 39.9429C122.772 39.4443 122.713 38.9464 122.687 38.4465C122.658 37.9046 122.739 37.3408 122.618 36.8257C122.534 36.4745 122.211 35.9759 121.936 35.9332C121.63 35.8866 121.071 36.2064 120.955 36.5013C120.722 37.0906 120.699 37.7725 120.621 38.416C120.561 38.9179 120.55 39.4254 120.517 39.9301L120.197 39.9205L120.179 35.5232C121.096 36.0245 122.244 34.5331 123.076 35.9221C123.421 35.7151 123.689 35.4767 124.001 35.3836C124.733 35.164 125.464 35.2822 125.723 36.0801C126.127 37.3277 125.939 38.6159 125.891 39.8844L125.348 39.8815Z" fill="#333333"/>
<path d="M62.969 40.2765C62.7073 39.7725 62.4456 39.269 62.1408 38.6814L59.7441 38.6915L58.9537 40.2859L58.6499 40.1815C58.6812 39.9095 58.6697 39.6232 58.7506 39.3671C59.2635 37.7415 59.7805 36.1171 60.3396 34.5075C60.4358 34.2312 60.7418 34.0302 60.9509 33.7949C61.1329 34.0164 61.3944 34.2098 61.4843 34.4652C62.0783 36.1444 62.6411 37.8353 63.1953 39.5291C63.2587 39.7228 63.2051 39.9563 63.206 40.171L62.969 40.2765ZM59.8751 37.8995L61.9946 37.8906C61.6376 36.8108 61.3286 35.8728 61.0195 34.9382L60.7641 34.993C60.4765 35.9318 60.1896 36.8705 59.8751 37.8995Z" fill="#333333"/>
<path d="M172.799 37.5959L169.915 37.608C169.825 39.0459 169.897 39.0907 172.501 39.362C171.664 40.2979 169.833 39.9794 169.347 38.7402C169.132 38.1921 169.081 37.5226 169.145 36.9295C169.281 35.6461 170.194 34.9495 171.353 35.1132C172.432 35.2675 172.94 36.0695 172.799 37.5959ZM172.243 36.9782C172.239 36.0759 171.798 35.6586 171.042 35.6751C170.302 35.6915 169.856 36.1154 169.831 36.9884L172.243 36.9782Z" fill="#333333"/>
<path d="M141.046 37.6054C141.062 39.0636 140.336 39.9673 139.12 40.0013C137.841 40.0372 137.041 39.1336 137.034 37.6431C137.026 36.1525 137.824 35.2231 139.081 35.2357C140.278 35.248 141.031 36.1553 141.046 37.6054ZM140.419 37.5775C140.397 36.4339 139.909 35.7946 139.06 35.7964C138.171 35.8001 137.656 36.4951 137.675 37.6762C137.692 38.7915 138.201 39.4526 139.043 39.4554C139.93 39.4575 140.44 38.7626 140.417 37.5769L140.419 37.5775Z" fill="#333333"/>
<path d="M130.415 39.7932C128.413 40.3021 127.317 39.9898 127.14 38.9502C126.944 37.7935 127.574 37.3163 129.653 37.0472C129.724 36.2162 129.724 36.2162 127.509 35.6996C128.121 35.0729 128.85 35.1743 129.42 35.3965C129.833 35.5564 130.256 36.0887 130.372 36.5362C130.546 37.1924 130.453 37.9214 130.458 38.6193C130.461 38.9992 130.432 39.3792 130.415 39.7932ZM129.76 37.8019C129.057 37.6467 128.382 37.5519 127.889 38.1914C127.744 38.379 127.718 38.8404 127.847 39.0321C128.325 39.7431 129.026 39.493 129.766 39.3889L129.76 37.8019Z" fill="#333333"/>
<path d="M167.268 39.7251C167.264 38.9412 167.279 38.1565 167.252 37.3738C167.227 36.6558 167.371 35.7875 166.282 35.7291C165.51 35.6879 164.97 36.3651 164.898 37.4166C164.848 38.1472 164.83 38.8804 164.784 39.6109C164.785 39.6582 164.671 39.6997 164.614 39.7427C164.196 39.1094 164.097 36.6424 164.391 35.516C164.846 35.4402 165.235 35.4454 165.568 35.3061C166.758 34.808 167.703 35.2729 167.816 36.554C167.909 37.6009 167.843 38.6622 167.847 39.7175L167.268 39.7251Z" fill="#333333"/>
<path d="M83.2986 39.7398C83.8359 38.2123 84.3068 36.8727 84.7776 35.5325L85.1196 35.6246C85.1204 35.8232 85.172 36.0395 85.1141 36.2187C84.5521 37.9495 83.9901 39.6826 83.3807 41.3975C83.0296 42.3856 82.6157 42.5189 81.7778 42.1259L83.0337 40.9267L81.1258 35.7251L81.5656 35.5397C82.4211 36.7126 82.4988 38.2647 83.2986 39.7398Z" fill="#333333"/>
<path d="M75.2485 37.9388C75.2375 39.3735 74.4778 40.2634 73.2544 40.2749C71.9832 40.2866 71.2216 39.3742 71.2368 37.8587C71.2513 36.4153 72.007 35.5225 73.2196 35.5117C74.4532 35.5001 75.26 36.4649 75.2485 37.9388ZM71.8649 37.8809C71.8522 39.0632 72.376 39.7521 73.2703 39.7304C74.1128 39.7102 74.6025 39.0477 74.6063 37.923C74.611 36.7424 74.0769 36.0369 73.1997 36.0648C72.3595 36.0914 71.8766 36.7487 71.8672 37.8814L71.8649 37.8809Z" fill="#333333"/>
<path d="M85.8753 37.7946C85.886 36.3917 86.6842 35.4606 87.8837 35.4515C89.1196 35.4423 89.9373 36.4174 89.9218 37.8861C89.9084 39.296 89.1243 40.2045 87.9089 40.2182C86.657 40.2316 85.864 39.2864 85.8753 37.7946ZM89.276 37.8276C89.2667 36.7013 88.7823 36.0435 87.9396 36.0153C87.0582 35.9855 86.5191 36.6904 86.5241 37.8623C86.5288 38.9794 87.02 39.6406 87.865 39.6654C88.7589 39.6916 89.2855 39.0064 89.2759 37.8253L89.276 37.8276Z" fill="#333333"/>
<path d="M115.665 37.7097C115.663 39.1877 114.855 40.128 113.603 40.1085C112.4 40.0899 111.644 39.1803 111.635 37.7406C111.625 36.2615 112.432 35.3183 113.686 35.3395C114.871 35.3605 115.667 36.3138 115.665 37.7097ZM115.022 37.7529C115.027 36.5567 114.508 35.877 113.613 35.9062C112.759 35.934 112.281 36.5763 112.278 37.7113C112.275 38.9023 112.793 39.5802 113.687 39.5527C114.548 39.5266 115.018 38.8942 115.022 37.7534L115.022 37.7529Z" fill="#333333"/>
<path d="M162.984 37.5328C162.984 39.017 162.181 39.9407 160.915 39.9148C159.722 39.8904 158.967 38.9687 158.963 37.5301C158.957 36.0562 159.776 35.1106 161.027 35.1417C162.205 35.1708 162.985 36.1265 162.984 37.5328ZM162.358 37.5868C162.367 36.4056 161.844 35.6971 160.969 35.706C160.115 35.7142 159.62 36.3559 159.603 37.4846C159.584 38.663 160.099 39.3582 160.988 39.3585C161.833 39.3585 162.348 38.6924 162.356 37.5868L162.358 37.5868Z" fill="#333333"/>
<path d="M91.7135 35.5847C91.7291 36.3167 91.7464 37.0486 91.7598 37.7812C91.7909 39.4916 92.2906 39.8804 94.184 39.44L94.1678 35.5721L94.6488 35.5747C94.8256 37.0051 94.7344 38.4499 94.6987 40.1144C93.8743 40.1179 93.1254 40.1869 92.3957 40.0947C92.0716 40.0539 91.7111 39.7465 91.4998 39.4599C90.9954 38.7791 91.0004 36.4496 91.4403 35.5968L91.7135 35.5847Z" fill="#333333"/>
<path d="M109.481 39.9716C108.825 38.6523 109.942 36.9214 108.756 35.7804C108.941 35.3709 109.184 34.945 109.33 34.4866C109.651 33.4744 110.366 33.1608 111.391 33.7303C110.652 34.0221 109.602 34.0028 110.004 35.2949L111.061 35.6253L111.066 35.8216L109.84 36.1731L109.856 39.9579L109.481 39.9716Z" fill="#333333"/>
<path d="M181.353 39.6538L181.335 35.4043C181.791 35.3297 182.265 35.3144 182.696 35.1677C183.801 34.7976 184.675 35.2511 184.771 36.41C184.861 37.4869 184.799 38.5771 184.803 39.6612L184.379 39.6896C184.334 39.281 184.268 38.8737 184.248 38.4639C184.222 37.9231 184.323 37.3563 184.196 36.8477C184.09 36.4209 183.707 35.72 183.491 35.7365C183.004 35.7737 182.374 36.0679 182.119 36.4661C181.836 36.9032 181.9 37.5726 181.841 38.1415C181.786 38.6486 181.769 39.1596 181.734 39.6684L181.353 39.6538Z" fill="#333333"/>
<path d="M142.49 39.8249L142.472 35.6026C142.876 35.5432 143.275 35.5628 143.606 35.4212C144.847 34.8906 145.786 35.3739 145.889 36.7198C145.966 37.7453 145.912 38.7806 145.916 39.8117L145.485 39.8447C145.438 39.5383 145.362 39.2333 145.348 38.9256C145.321 38.3074 145.349 37.6867 145.313 37.0691C145.282 36.5208 145.223 35.9241 144.528 35.8347C143.832 35.7452 143.328 36.1284 143.128 36.7775C142.984 37.2463 142.976 37.7648 142.95 38.2631C142.924 38.7828 142.948 39.3023 142.951 39.8253L142.49 39.8249Z" fill="#333333"/>
<path d="M106.927 39.9701C106.924 39.2276 106.942 38.4834 106.911 37.7417C106.88 37 107.075 36.0668 105.933 35.9787C105.158 35.919 104.611 36.6707 104.541 37.7881C104.499 38.481 104.471 39.1698 104.424 39.8599C104.421 39.9061 104.316 39.9447 104.092 40.1061L104.074 35.785C104.511 35.6845 104.984 35.608 105.435 35.4635C106.273 35.1921 107.194 35.4636 107.317 36.2459C107.512 37.4661 107.486 38.7224 107.554 39.9628L106.927 39.9701Z" fill="#333333"/>
<path d="M154.991 39.7662C154.987 38.9279 155 38.0919 154.975 37.252C154.956 36.5865 154.96 35.8631 154.055 35.7699C153.375 35.7 152.71 36.3044 152.637 37.1689C152.565 38.0335 152.627 38.9049 152.518 39.7713C151.929 39.2023 151.807 36.9161 152.164 35.2767L152.722 35.712C152.933 35.5922 153.176 35.4151 153.448 35.3048C154.527 34.8783 155.421 35.3716 155.52 36.5368C155.611 37.6096 155.547 38.6964 155.552 39.7771L154.991 39.7662Z" fill="#333333"/>
<path d="M131.597 35.4821L132.531 34.1411C132.634 34.573 132.709 34.8868 132.786 35.2086L133.827 35.5027C133.832 35.5737 133.837 35.6447 133.843 35.7157C133.511 35.8181 133.18 35.9205 132.705 36.0668C132.709 36.9391 132.615 37.8736 132.763 38.7667C132.827 39.1457 133.399 39.4377 133.722 39.751C132.959 40.2426 132.258 40.0077 132.133 39.0562C132.043 38.3696 132.142 37.6585 132.063 36.969C132.009 36.5154 131.791 36.0793 131.597 35.4821Z" fill="#333333"/>
<path d="M78.5422 35.9479L77.3038 36.3191L77.3198 40.1178L76.9942 40.1191C76.2195 38.8113 77.5594 36.9895 76.2366 35.9599C76.4463 35.477 76.6751 35.0488 76.8212 34.5933C77.1449 33.5868 77.8735 33.2824 78.8643 33.8729C78.1185 34.1468 77.12 34.166 77.4475 35.4329L78.5305 35.7413L78.5422 35.9479Z" fill="#333333"/>
<path d="M67.3211 33.5263C67.3619 34.1485 67.4093 34.583 67.4156 35.0188C67.4312 36.1382 67.4188 37.2576 67.4377 38.3764C67.4485 39.0501 67.2214 39.8702 68.6104 39.8384C67.4666 40.3818 66.9207 40.2496 66.8949 39.52C66.83 37.6371 66.8904 35.7496 66.9098 33.8623C66.9085 33.8167 67.017 33.7689 67.3211 33.5263Z" fill="#333333"/>
<path d="M96.295 40.0367C96.1796 38.5939 96.2259 37.1395 96.2575 35.7261L98.2643 35.6022C98.265 35.7662 98.2821 35.8983 98.2656 35.9035C96.9788 36.275 96.75 37.2285 96.8495 38.4202C96.8945 38.9552 96.7971 39.5023 96.7647 40.0445L96.295 40.0367Z" fill="#333333"/>
<path d="M116.999 39.9573C116.846 38.4852 116.941 37.0046 116.932 35.6439L118.961 35.5245L119.025 35.7177C118.899 35.8192 118.786 35.9762 118.643 36.0137C117.783 36.239 117.537 36.8543 117.545 37.67C117.552 38.4366 117.533 39.204 117.525 39.9712L116.999 39.9573Z" fill="#333333"/>
<path d="M65.8821 40.0212C65.1123 40.4084 64.456 40.3113 64.4194 39.4535C64.3405 37.6094 64.4096 35.7588 64.4269 33.9113C64.4266 33.8571 64.5203 33.8041 64.734 33.5746C64.8246 33.9928 64.9345 34.2775 64.9403 34.5638C64.964 35.8754 64.9809 37.1881 64.9568 38.4993C64.9421 39.2013 64.984 39.8166 65.8821 40.0212Z" fill="#333333"/>
<path d="M176.956 33.2594L176.965 35.3954C176.968 36.2071 177.001 37.0198 176.969 37.8299C176.939 38.5898 176.947 39.2929 178.008 39.4836C176.994 39.9231 176.472 39.7908 176.448 39.056C176.384 37.1713 176.445 35.2821 176.465 33.3948C176.465 33.3515 176.57 33.3095 176.625 33.2672L176.956 33.2594Z" fill="#333333"/>
<path d="M150.306 35.3062L150.325 39.8027L149.983 39.8284C149.863 38.3857 149.743 36.94 149.61 35.3662L150.306 35.3062Z" fill="#333333"/>
<path d="M189.372 35.3358L188.003 37.2617C188.553 38.0072 189.104 38.7519 189.654 39.4958L189.338 39.7714L187.207 37.4024L188.997 35.0383L189.372 35.3358Z" fill="#333333"/>
<path d="M186.709 33.2335L186.736 39.7795C186.16 38.935 186.104 34.1286 186.709 33.2335Z" fill="#333333"/>
<path d="M134.524 35.4549L135.636 35.3689L135.655 39.8429C134.624 38.5749 135.791 36.8548 134.524 35.4549Z" fill="#333333"/>
<path d="M102.02 39.9919C101.359 38.6363 102.442 36.9575 101.176 35.5889L102.298 35.5842L102.316 39.9716L102.02 39.9919Z" fill="#333333"/>
<path d="M179.118 39.6735C179.115 38.9357 179.141 38.1966 179.1 37.4613C179.062 36.7797 178.95 36.1018 178.852 35.2501L179.579 35.1893L179.597 39.6582L179.118 39.6735Z" fill="#333333"/>
</g>
<defs>
<clipPath id="clip0_4862_20925">
<rect width="190.131" height="43.2574" fill="white" transform="translate(0 0.799316) rotate(-0.240863)"/>
</clipPath>
</defs>
</svg>
