<svg width="45" height="45" viewBox="0 0 45 45" fill="none" xmlns="http://www.w3.org/2000/svg">
<path d="M44.4102 24.0488C44.2106 24.5129 44.2373 25.0234 44.1689 25.5118C42.9193 34.37 36.0648 41.8766 27.3366 43.8373C20.2929 45.4187 13.9071 43.9313 8.20588 39.5005C7.93439 39.2905 7.74179 39.0607 7.84621 38.6941C7.87667 38.5739 7.9423 38.4656 8.03468 38.3829C8.12707 38.3002 8.24202 38.247 8.36482 38.23C8.65372 38.1709 8.85791 38.3461 9.06095 38.5131C10.3642 39.5686 11.7927 40.459 13.3143 41.1642C16.5907 42.6725 20.0261 43.3489 23.6343 43.0843C29.0943 42.6845 33.7011 40.4921 37.4547 36.5071C40.5722 33.1982 42.4204 29.2651 42.9379 24.7414C43.6027 18.9404 42.1524 13.6928 38.4838 9.13896C34.9359 4.73597 30.3206 2.13362 24.6843 1.47462C15.6556 0.418834 7.2081 5.07127 3.28891 13.2426C1.5544 16.859 0.947613 20.6842 1.41982 24.6742C1.95467 29.1618 3.76692 33.059 6.80434 36.3981C6.85307 36.4514 6.90528 36.5025 6.95169 36.5582C7.24754 36.9062 7.24754 37.303 6.95169 37.556C6.65584 37.8089 6.29269 37.7567 5.99104 37.4399C5.24533 36.6513 4.5604 35.8074 3.94211 34.9153C1.74584 31.7561 0.37679 28.2604 0.0844172 24.4305C-0.587343 15.6303 2.7529 8.6714 10.0054 3.6477C13.0416 1.54424 16.4747 0.438558 20.1502 0.0893348C20.228 0.0823735 20.3312 0.121822 20.3625 0H20.7965C20.8521 0.0603308 20.9264 0.040609 20.9949 0.0452498H21.206C21.2745 0.0452498 21.3487 0.0603308 21.4044 0H22.9672C23.0241 0.061491 23.0995 0.040609 23.1691 0.0452498H23.5473C23.6169 0.0452498 23.6912 0.061491 23.748 0H23.9221C24.9396 0.0846952 25.9547 0.171713 26.956 0.393312C30.4605 1.14993 33.7266 2.75234 36.4697 5.06083C38.746 6.94718 40.6244 9.26734 41.9958 11.8863C43.1892 14.1561 43.9709 16.6194 44.3046 19.162C44.3615 19.6006 44.3278 20.0496 44.4055 20.4881V20.7492C44.3464 20.8025 44.3649 20.8745 44.3603 20.9418V21.2515C44.3603 21.3177 44.3464 21.3896 44.4055 21.443V23.0058C44.3464 23.0603 44.3649 23.1322 44.3603 23.1984V23.5081C44.3603 23.5754 44.3464 23.6462 44.4055 23.7007L44.4102 24.0488Z" fill="black"/>
<path d="M21.2244 0.0754128H20.9645C20.9401 0.0568495 20.9331 0.0394485 20.9424 0.0232056C20.9517 0.00696267 20.961 0 20.9703 0H21.2302C21.2603 0.0185633 21.2684 0.0359679 21.2568 0.0522108C21.2536 0.0583615 21.249 0.0636657 21.2434 0.0676977C21.2377 0.0717297 21.2312 0.0743735 21.2244 0.0754128Z" fill="#4D4D4D"/>
<path d="M23.406 0.0766965H23.1461C23.1148 0.062774 23.1032 0.0465306 23.1125 0.0291275C23.1218 0.0117243 23.131 0.00244141 23.1403 0.00244141H23.4014C23.4281 0.0175241 23.4373 0.0337686 23.4304 0.0511717C23.4234 0.0685749 23.4188 0.0766965 23.406 0.0766965Z" fill="#4E4E4E"/>
<path d="M20.9702 0.00146484C20.9719 0.0265717 20.9719 0.0517709 20.9702 0.0768777C20.8982 0.0849991 20.824 0.101243 20.8008 0.00146484H20.9702Z" fill="#707070"/>
<path d="M21.2246 0.0757164C21.2246 0.051352 21.2246 0.0258292 21.2304 0.00146484H21.4044C21.3886 0.0335786 21.3616 0.0588255 21.3285 0.0724908C21.2954 0.0861561 21.2585 0.0873026 21.2246 0.0757164Z" fill="#353535"/>
<path d="M23.1396 0.00146484C23.1396 0.0269894 23.1396 0.051352 23.1396 0.0757164C23.1059 0.0872391 23.0691 0.0860543 23.0362 0.072381C23.0033 0.0587078 22.9766 0.0334892 22.9609 0.00146484H23.1396Z" fill="#353535"/>
<path d="M23.4056 0.0768777C23.4039 0.0517696 23.4039 0.026573 23.4056 0.00146484H23.5785C23.6063 0.0165476 23.6156 0.0327909 23.6075 0.0490338C23.5993 0.0652767 23.5912 0.0745585 23.5831 0.0745585L23.4056 0.0768777Z" fill="#707070"/>
<path d="M23.5784 0.0745585C23.5767 0.0502249 23.5767 0.0257985 23.5784 0.00146484H23.7525C23.7281 0.109364 23.6504 0.0861606 23.5784 0.0745585Z" fill="#8F8F8F"/>
<path d="M44.3374 20.9199C44.327 20.8479 44.3049 20.7714 44.4105 20.7505V20.9234C44.3838 20.9651 44.3595 20.9616 44.3374 20.9199Z" fill="#838383"/>
<path d="M44.3369 20.9199H44.41V21.094C44.3822 21.1346 44.3578 21.1322 44.3369 21.094V20.9199Z" fill="#646464"/>
<path d="M44.3375 21.0923H44.4106V21.2663C44.3827 21.3069 44.3572 21.3034 44.334 21.2663L44.3375 21.0923Z" fill="#494949"/>
<path d="M44.3336 21.2671H44.4102V21.44C44.3793 21.4245 44.3548 21.3988 44.3409 21.3673C44.3269 21.3357 44.3243 21.3003 44.3336 21.2671Z" fill="#373737"/>
<path d="M44.3334 23.1844C44.3233 23.1505 44.3255 23.1142 44.3395 23.0817C44.3535 23.0493 44.3784 23.0228 44.4099 23.0068V23.1809C44.3856 23.218 44.3612 23.2203 44.3334 23.1844Z" fill="#373737"/>
<path d="M44.334 23.1846H44.4106V23.3574C44.3885 23.3946 44.3641 23.3969 44.3375 23.3574L44.334 23.1846Z" fill="#494949"/>
<path d="M44.3371 23.3599H44.4102V23.5339C44.387 23.571 44.3626 23.5733 44.3359 23.5339C44.3371 23.4747 44.3371 23.4167 44.3371 23.3599Z" fill="#656565"/>
<path d="M44.3357 23.5322H44.41V23.7063C44.3021 23.6807 44.3253 23.603 44.3357 23.5322Z" fill="#848484"/>
<path d="M22.6259 41.3223C13.4254 41.3107 5.87014 35.4354 3.67039 26.9021C1.38942 18.0567 5.91423 8.61837 14.2376 4.85813C14.7307 4.63537 15.0926 4.72355 15.2678 5.10874C15.443 5.49393 15.262 5.81646 14.7701 6.05431C9.26375 8.71351 5.80169 13.0283 4.71805 19.0208C3.55088 25.4808 5.536 31.0162 10.3555 35.4749C12.9451 37.8719 16.051 39.2896 19.5397 39.8117C23.3406 40.3791 26.965 39.7607 30.3865 38.0123C31.0142 37.692 31.368 37.7234 31.5769 38.1387C31.7857 38.5541 31.607 38.8418 30.9968 39.1574C28.2471 40.6007 25.3106 41.2968 22.6259 41.3223Z" fill="black"/>
<path d="M41.2941 22.3019C41.1247 28.4928 38.6477 33.5374 33.7829 37.3951C33.349 37.7431 32.9824 37.7432 32.7155 37.4113C32.4487 37.0795 32.5566 36.7036 33.0033 36.3521C36.5465 33.5594 38.8461 29.9802 39.6536 25.5296C40.6479 20.0511 39.3577 15.1098 35.8087 10.8217C32.9499 7.36657 29.2396 5.33041 24.811 4.63428C22.359 4.2581 19.8551 4.40639 17.4646 5.06936C16.9622 5.2051 16.6397 5.0624 16.5202 4.66677C16.4007 4.27114 16.613 3.95208 17.0574 3.83142C19.4885 3.16129 22.0276 2.97561 24.5303 3.28496C28.0399 3.72004 31.1968 5.00555 33.9581 7.20878C38.0409 10.4643 40.4553 14.684 41.1259 19.8783C41.2272 20.6824 41.2834 21.4915 41.2941 22.3019Z" fill="black"/>
<path d="M10.4498 26.0171C9.50188 25.9486 8.67697 25.618 8.00753 24.9369C7.70008 24.6237 7.68383 24.2512 7.94952 23.9774C8.21521 23.7036 8.58995 23.7025 8.90901 24.0064C9.15796 24.2596 9.46243 24.4514 9.79832 24.5666C10.1342 24.6818 10.4923 24.7172 10.8442 24.6701C11.1498 24.6379 11.4304 24.4866 11.6251 24.2489C11.8965 23.9252 11.878 23.583 11.5798 23.2836C11.3753 23.0998 11.1352 22.9601 10.8744 22.8729C10.3535 22.6641 9.83602 22.4448 9.3116 22.2429C8.62592 21.9795 8.22681 21.4783 8.13399 20.7671C8.07637 20.4142 8.12244 20.0521 8.2666 19.7249C8.41077 19.3976 8.64683 19.1193 8.94614 18.9236C9.8163 18.311 10.7595 18.3435 11.7144 18.6915C12.0273 18.8047 12.3208 18.9655 12.5846 19.1684C12.9326 19.434 13.0115 19.8053 12.7969 20.1116C12.5822 20.4179 12.2168 20.4864 11.8467 20.2369C11.3246 19.8889 10.7735 19.6754 10.1354 19.7949C9.80237 19.8575 9.52624 20.0153 9.43923 20.3634C9.35917 20.6859 9.49144 20.918 9.81513 21.0444C10.4057 21.2765 10.9939 21.5085 11.5763 21.7591C12.3235 22.0828 12.9117 22.5713 13.0776 23.4182C13.3097 24.5889 12.3931 25.7537 11.0925 25.9579C10.8883 25.9904 10.6656 25.9973 10.4498 26.0171Z" fill="black"/>
<path d="M15.7535 22.7042C15.7535 21.8213 15.7442 20.9395 15.7593 20.0578C15.7593 19.8083 15.6838 19.726 15.4402 19.7422C15.1806 19.7602 14.9201 19.7602 14.6605 19.7422C14.2777 19.7144 14.0189 19.451 14.0317 19.1041C14.0456 18.7363 14.2487 18.4764 14.6118 18.4695C15.8107 18.447 17.0096 18.447 18.2085 18.4695C18.5739 18.4776 18.7886 18.7526 18.7746 19.1145C18.7781 19.195 18.7652 19.2753 18.7368 19.3506C18.7084 19.4259 18.665 19.4947 18.6093 19.5528C18.5535 19.6109 18.4866 19.6571 18.4126 19.6887C18.3385 19.7203 18.2588 19.7365 18.1783 19.7364C17.9191 19.7621 17.6581 19.7641 17.3986 19.7422C17.0993 19.7132 17.0506 19.8373 17.0506 20.11C17.0622 21.7877 17.0506 23.4653 17.0587 25.1418C17.0587 25.411 17.0366 25.6651 16.8139 25.8507C16.7204 25.9341 16.6039 25.9873 16.4797 26.0032C16.3554 26.0191 16.2293 25.9971 16.1178 25.94C15.9981 25.8862 15.8982 25.7966 15.8317 25.6835C15.7652 25.5705 15.7354 25.4396 15.7465 25.3089C15.7616 24.4387 15.7535 23.5721 15.7535 22.7042Z" fill="black"/>
<path d="M33.3431 22.6392C33.3431 21.7876 33.3338 20.9349 33.3489 20.0868C33.3489 19.8222 33.2792 19.7225 33.0089 19.7457C32.7637 19.7636 32.5174 19.7636 32.2722 19.7457C31.8731 19.7178 31.6434 19.4858 31.6341 19.1226C31.6248 18.7595 31.8464 18.4718 32.2339 18.4648C33.4173 18.4447 34.6011 18.4447 35.7853 18.4648C36.1508 18.4718 36.355 18.7247 36.3654 19.0948C36.3758 19.4649 36.1334 19.7039 35.7493 19.7422C35.6205 19.7549 35.4906 19.7491 35.3607 19.7491C34.6448 19.7491 34.6448 19.7491 34.6448 20.4859V24.9921C34.6489 25.1222 34.6454 25.2523 34.6344 25.382C34.5891 25.7683 34.3362 26.0061 33.9847 26.0027C33.901 26.0049 33.8178 25.9901 33.74 25.9592C33.6622 25.9283 33.5915 25.882 33.5322 25.823C33.4729 25.764 33.4261 25.6935 33.3948 25.6159C33.3635 25.5383 33.3483 25.4552 33.35 25.3715C33.3268 24.81 33.3396 24.2461 33.3384 23.6822C33.3419 23.333 33.3431 22.9861 33.3431 22.6392Z" fill="black"/>
<path fill-rule="evenodd" clip-rule="evenodd" d="M29.2634 23.5452C29.097 23.3552 28.9279 23.1623 28.7552 22.965C28.8332 22.9395 28.884 22.9265 28.9305 22.9145C28.9477 22.9101 28.9643 22.9059 28.9815 22.9012C30.1324 22.4986 30.7508 21.5588 30.6173 20.4102C30.4909 19.3602 29.5813 18.5388 28.4025 18.4611C27.9309 18.43 27.4558 18.437 26.9817 18.444C26.9065 18.4451 26.8313 18.4462 26.7562 18.4471C26.1714 18.4541 25.9521 18.678 25.9521 19.2767V25.1729C25.9521 25.7042 26.2225 26.0105 26.6227 26.0012C27.023 25.992 27.2551 25.7077 27.2551 25.1891V23.3246C27.417 23.3925 27.4978 23.4956 27.5739 23.5927C27.5954 23.6201 27.6166 23.6471 27.6391 23.6727C28.0391 24.1218 28.436 24.5741 28.8318 25.0252C29.0168 25.2361 29.2016 25.4467 29.3864 25.6567C29.7402 26.0639 30.1254 26.1173 30.4306 25.8319C30.7171 25.5638 30.6928 25.181 30.3609 24.8004C30.0002 24.3859 29.6383 23.973 29.2634 23.5452ZM27.2551 20.6432C27.2533 20.6575 27.2533 20.6719 27.2551 20.6862H27.2574V21.4635C27.2551 21.6108 27.2794 21.7118 27.4662 21.7037C27.5878 21.6983 27.7103 21.7002 27.8327 21.702C28.0279 21.705 28.223 21.708 28.4141 21.6816C29.1218 21.5842 29.5175 20.9054 29.2262 20.3253C28.9756 19.8311 28.1171 19.5143 27.421 19.7661C27.1767 19.8551 27.211 20.0665 27.2463 20.2837C27.2666 20.409 27.2873 20.5363 27.2551 20.6432Z" fill="black"/>
<path fill-rule="evenodd" clip-rule="evenodd" d="M24.4952 25.9771C24.8224 25.9052 24.9744 25.6813 24.9976 25.31C24.9919 25.2897 24.9859 25.2667 24.9795 25.2417C24.9598 25.1654 24.9354 25.0708 24.8978 24.9782C24.1576 23.0097 23.4182 21.0412 22.6795 19.0727C22.5403 18.7015 22.2978 18.4486 21.8871 18.4497C21.4764 18.4509 21.2362 18.6968 21.0982 19.0739C20.9154 19.5751 20.724 20.0727 20.5325 20.5705C20.4603 20.7584 20.388 20.9463 20.3162 21.1344C20.159 21.5475 20.0013 21.9603 19.8436 22.373C19.5079 23.2518 19.1723 24.1305 18.8415 25.0107C18.6722 25.4597 18.8149 25.8205 19.1722 25.9539C19.5295 26.0874 19.8614 25.9273 20.0342 25.5235C20.1479 25.259 20.2582 24.9921 20.3452 24.7183C20.3572 24.6409 20.3993 24.5714 20.4623 24.5249C20.5253 24.4784 20.6041 24.4587 20.6816 24.47C21.4768 24.4793 22.2719 24.4793 23.067 24.47C23.145 24.4558 23.2255 24.4731 23.2907 24.5181C23.356 24.5632 23.4007 24.6322 23.4151 24.7102C23.5127 25.0276 23.6325 25.3377 23.7736 25.6384C23.8311 25.7738 23.9365 25.8832 24.0697 25.9457C24.2028 26.0082 24.3543 26.0194 24.4952 25.9771ZM22.8179 23.1596C22.5163 22.344 22.2204 21.5562 21.8898 20.6779C21.5556 21.5631 21.2575 22.3509 20.9512 23.1596H22.8179Z" fill="black"/>
</svg>
