<svg width="123" height="49" viewBox="0 0 123 49" fill="none" xmlns="http://www.w3.org/2000/svg">
<g clip-path="url(#clip0_4862_19802)">
<path d="M74.606 32.7594C71.8898 31.4645 71.5771 29.904 73.6565 27.6013C72.9355 19.8187 75.3386 13.0015 81.0811 7.49435C85.4974 3.25929 90.8556 1.01572 96.9438 0.764093C109.449 0.24783 119.812 8.51746 121.852 20.509C123.823 32.0978 116.452 43.6817 104.88 47.2578C92.9658 50.938 79.4495 45.4722 74.606 32.7594ZM76.5963 32.266C76.8097 32.7639 76.9958 33.2528 77.2225 33.722C82.7521 45.0824 95.9826 49.7678 107.474 44.4392C118.91 39.1358 123.93 25.4833 118.498 14.4538C114.244 5.81593 105.075 0.984775 94.9919 2.06754C85.5546 3.08167 77.2002 10.2497 74.9361 19.3016C74.2746 21.9479 73.8922 24.6176 74.4647 27.3016C77.5709 28.1956 78.0813 29.3537 76.5963 32.2642V32.266Z" fill="white"/>
<path d="M51.3816 16.354H58.2216C60.1449 21.4839 62.0739 26.6358 64.0808 31.9962H57.9501L54.9646 23.2345L54.5863 23.2143L51.5994 32.0119H45.4902C47.4944 26.6837 49.4315 21.535 51.3816 16.354Z" fill="white"/>
<path d="M14.541 31.9912L20.3881 16.376H27.2438C29.1393 21.4292 31.0719 26.5819 33.0904 31.9621H26.9665C25.9825 29.0771 24.9842 26.1536 23.9868 23.23L23.6675 23.1713C22.6629 26.1029 21.6588 29.0345 20.6462 31.9912H14.541Z" fill="white"/>
<path d="M11.3772 32.0164H5.24747V20.8807H0.885742V16.4316H15.7461V20.8443H11.3772V32.0164Z" fill="white"/>
<path d="M36.2223 32.012V20.8354H31.8525V16.4106H46.7331V20.7565H42.4152V32.012H36.2223Z" fill="white"/>
<path d="M87.9379 26.0199C88.1029 27.8405 88.6696 29.0458 90.1863 29.5261C91.8926 30.0644 93.284 29.5445 94.2608 27.9697L97.4677 28.7085C96.9042 30.5376 95.7869 31.6002 94.1763 32.1622C90.9157 33.2979 87.0813 32.2999 85.4783 29.9307C83.5998 27.1561 83.8588 21.9307 85.9914 19.5148C87.7759 17.4933 91.3433 16.834 94.0681 18.0217C96.5177 19.0892 98.0299 21.7817 97.8036 24.564C97.6963 25.8881 96.8165 26.0442 95.7945 26.0442C93.8391 26.0442 91.8832 26.0289 89.9277 26.0217C89.3186 26.0181 88.7094 26.0199 87.9379 26.0199ZM93.8699 23.3678C93.8252 21.4148 92.7965 20.2697 91.1756 20.2576C89.4156 20.2446 88.2156 21.4278 88.1199 23.3678H93.8699Z" fill="white"/>
<path d="M98.8721 18.0037H102.492L105.757 27.9737L106.154 28.0222C107.269 24.6878 108.385 21.3538 109.513 17.9795H113.136C112.991 18.5052 112.913 18.9142 112.768 19.2964C111.367 22.9488 109.95 26.5954 108.548 30.2478C108.095 31.4284 107.527 32.3434 106.024 32.3452C104.548 32.3452 103.922 31.5342 103.459 30.3128C102.046 26.56 100.591 22.8223 99.1606 19.0771C99.0438 18.7765 98.9901 18.4522 98.8721 18.0037Z" fill="white"/>
</g>
<defs>
<clipPath id="clip0_4862_19802">
<rect width="121.275" height="47.6438" fill="white" transform="translate(0.885742 0.737305)"/>
</clipPath>
</defs>
</svg>
