<svg width="122" height="48" viewBox="0 0 122 48" fill="none" xmlns="http://www.w3.org/2000/svg">
<g clip-path="url(#clip0_4862_20913)">
<path d="M73.7203 32.0221C71.004 30.7272 70.6914 29.1667 72.7707 26.864C72.0497 19.0814 74.4529 12.2642 80.1953 6.75705C84.6116 2.52199 89.9699 0.278416 96.058 0.0267882C108.563 -0.489475 118.926 7.78015 120.966 19.7717C122.937 31.3605 115.566 42.9443 103.994 46.5205C92.0801 50.2007 78.5637 44.7349 73.7203 32.0221ZM75.7106 31.5287C75.924 32.0266 76.11 32.5155 76.3368 32.9846C81.8663 44.3451 95.0969 49.0305 106.588 43.7019C118.025 38.3985 123.044 24.746 117.612 13.7165C113.358 5.07863 104.189 0.24747 94.1062 1.33023C84.6689 2.34437 76.3144 9.5124 74.0504 18.5643C73.3889 21.2106 73.0064 23.8803 73.5789 26.5643C76.6852 27.4583 77.1955 28.6164 75.7106 31.5269V31.5287Z" fill="#333333"/>
<path d="M50.4968 15.6167H57.3369C59.2601 20.7466 61.1892 25.8985 63.196 31.2589H57.0654L54.0799 22.4972L53.7015 22.477L50.7147 31.2746H44.6055C46.6097 25.9464 48.5468 20.7977 50.4968 15.6167Z" fill="#333333"/>
<path d="M13.6562 31.2539L19.5033 15.6387H26.359C28.2545 20.6919 30.1872 25.8446 32.2057 31.2248H26.0817C25.0977 28.3398 24.0995 25.4163 23.1021 22.4927L22.7827 22.434C21.7781 25.3656 20.774 28.2972 19.7614 31.2539H13.6562Z" fill="#333333"/>
<path d="M10.4915 31.2791H4.36173V20.1433H0V15.6943H14.8604V20.107H10.4915V31.2791Z" fill="#333333"/>
<path d="M35.3366 31.2742V20.0976H30.9668V15.6729H45.8473V20.0187H41.5294V31.2742H35.3366Z" fill="#333333"/>
<path d="M87.0531 25.2826C87.2181 27.1032 87.7848 28.3084 89.3015 28.7888C91.0078 29.3271 92.3992 28.8072 93.3761 27.2324L96.583 27.9712C96.0194 29.8003 94.9021 30.8629 93.2915 31.4249C90.031 32.5606 86.1966 31.5626 84.5936 29.1934C82.7151 26.4188 82.974 21.1934 85.1066 18.7775C86.8912 16.756 90.4586 16.0967 93.1833 17.2844C95.633 18.3519 97.1452 21.0444 96.9189 23.8267C96.8115 25.1508 95.9317 25.3069 94.9097 25.3069C92.9543 25.3069 90.9984 25.2916 89.043 25.2844C88.4338 25.2808 87.8246 25.2826 87.0531 25.2826ZM92.9852 22.6305C92.9404 20.6775 91.9117 19.5324 90.2908 19.5203C88.5309 19.5073 87.3308 20.6905 87.2351 22.6305H92.9852Z" fill="#333333"/>
<path d="M97.9863 17.2664H101.606L104.872 27.2364L105.269 27.2849C106.384 23.9505 107.499 20.6165 108.628 17.2422H112.251C112.106 17.7679 112.027 18.1769 111.882 18.5591C110.481 22.2115 109.064 25.8581 107.662 29.5105C107.209 30.691 106.641 31.6061 105.138 31.6079C103.662 31.6079 103.036 30.7969 102.573 29.5755C101.16 25.8227 99.7052 22.085 98.2748 18.3398C98.1581 18.0392 98.1044 17.7149 97.9863 17.2664Z" fill="#333333"/>
</g>
<defs>
<clipPath id="clip0_4862_20913">
<rect width="121.275" height="47.6438" fill="white"/>
</clipPath>
</defs>
</svg>
