<svg width="43" height="42" viewBox="0 0 43 42" fill="none" xmlns="http://www.w3.org/2000/svg">
<path d="M21 34C13.8 34 8 28.2 8 21C8 13.8 13.8 8 21 8C28.2 8 34 13.8 34 21C34 28.2 28.2 34 21 34ZM21 10C14.9 10 10 14.9 10 21C10 27.1 14.9 32 21 32C27.1 32 32 27.1 32 21C32 14.9 27.1 10 21 10Z" fill="#333333"/>
<path d="M21 30C25.9706 30 30 25.9706 30 21C30 16.0294 25.9706 12 21 12C16.0294 12 12 16.0294 12 21C12 25.9706 16.0294 30 21 30Z" fill="#D5D5D5"/>
<path d="M21 6C20.4 6 20 5.6 20 5V1C20 0.4 20.4 0 21 0C21.6 0 22 0.4 22 1V5C22 5.6 21.6 6 21 6ZM21 42C20.4 42 20 41.6 20 41V37C20 36.4 20.4 36 21 36C21.6 36 22 36.4 22 37V41C22 41.6 21.6 42 21 42ZM41 22H37C36.4 22 36 21.6 36 21C36 20.4 36.4 20 37 20H41C41.6 20 42 20.4 42 21C42 21.6 41.6 22 41 22ZM5 22H1C0.4 22 0 21.6 0 21C0 20.4 0.4 20 1 20H5C5.6 20 6 20.4 6 21C6 21.6 5.6 22 5 22ZM35.1 36.1C34.8 36.1 34.6 36 34.4 35.8L31.6 33C31.2 32.6 31.2 32 31.6 31.6C32 31.2 32.6 31.2 33 31.6L35.8 34.4C36.2 34.8 36.2 35.4 35.8 35.8C35.7 36 35.4 36.1 35.1 36.1ZM9.7 10.7C9.4 10.7 9.2 10.6 9 10.4L6.2 7.6C5.8 7.2 5.8 6.6 6.2 6.2C6.6 5.8 7.2 5.8 7.6 6.2L10.4 9C10.8 9.4 10.8 10 10.4 10.4C10.2 10.6 9.9 10.7 9.7 10.7ZM6.9 36.1C6.6 36.1 6.4 36 6.2 35.8C5.8 35.4 5.8 34.8 6.2 34.4L9 31.6C9.4 31.2 10 31.2 10.4 31.6C10.8 32 10.8 32.6 10.4 33L7.6 35.8C7.4 36 7.1 36.1 6.9 36.1ZM32.3 10.7C32 10.7 31.8 10.6 31.6 10.4C31.2 10 31.2 9.4 31.6 9L34.4 6.2C34.8 5.8 35.4 5.8 35.8 6.2C36.2 6.6 36.2 7.2 35.8 7.6L33 10.4C32.8 10.6 32.6 10.7 32.3 10.7Z" fill="#333333"/>
<path d="M34 41C38.4183 41 42 37.4183 42 33C42 28.5817 38.4183 25 34 25C29.5817 25 26 28.5817 26 33C26 37.4183 29.5817 41 34 41Z" fill="#EA9A8F"/>
<path d="M34 42C29 42 25 38 25 33C25 28 29 24 34 24C39 24 43 28 43 33C43 38 39 42 34 42ZM34 26C30.1 26 27 29.1 27 33C27 36.9 30.1 40 34 40C37.9 40 41 36.9 41 33C41 29.1 37.9 26 34 26Z" fill="#333333"/>
<path d="M34 34C33.4 34 33 33.6 33 33V28C33 27.4 33.4 27 34 27C34.6 27 35 27.4 35 28V33C35 33.6 34.6 34 34 34Z" fill="#333333"/>
<path d="M38 34H34C33.4 34 33 33.6 33 33C33 32.4 33.4 32 34 32H38C38.6 32 39 32.4 39 33C39 33.6 38.6 34 38 34Z" fill="#333333"/>
</svg>
