<svg width="45" height="72" viewBox="0 0 45 72" fill="none" xmlns="http://www.w3.org/2000/svg">
<g clip-path="url(#clip0_4862_20885)">
<rect width="44.0597" height="72" fill="#333333"/>
<path d="M44.0597 0.000742373V72.0004H0.248811C0.000367492 72.0004 0 72.0004 0 71.7467V0.254031C0 0.000371257 1.77701e-06 0 0.248446 0H44.0597V0.000742373ZM42.5318 70.4301V1.57692H1.54657V70.4301H42.5318Z" fill="white"/>
<path d="M4.82035 28.2524C4.83934 18.5067 12.6025 10.6637 22.2059 10.6856C31.7173 10.7079 39.4143 18.6166 39.3935 28.3463C39.373 38.0262 31.5975 45.8537 22.028 45.8273C12.5448 45.8024 4.80171 37.8937 4.82035 28.2524ZM22.1098 12.1065C13.335 12.1128 6.21674 19.3486 6.21966 28.262C6.22259 37.1798 13.3442 44.4149 22.1128 44.4082C30.8985 44.4019 37.9986 37.1828 37.9956 28.259C37.9927 19.3353 30.8795 12.1002 22.1098 12.1065Z" fill="white"/>
<path d="M23.0026 60.0584L21.239 59.9652C21.205 59.6216 21.1689 59.2807 21.1385 58.939C21.1126 58.6501 21.0991 58.3597 21.0695 58.0711C21.0446 57.8319 20.8974 57.6815 20.672 57.6496C20.3545 57.6043 20.033 57.5905 19.6983 57.5623C19.6574 58.3359 19.6172 59.0876 19.5755 59.8746L17.9395 59.7895C18.0407 57.8081 18.1411 55.8476 18.2423 53.8662C18.6234 53.8833 18.9807 53.8952 19.3384 53.9163C20.1057 53.962 20.8689 54.0066 21.6336 54.0619C22.2701 54.108 22.7732 54.3631 22.9884 55.0253C23.1235 55.4413 23.0921 55.855 22.9423 56.2594C22.8429 56.5287 22.642 56.7118 22.3862 56.8165C22.1517 56.9135 21.9058 56.9811 21.6844 57.055C21.7867 57.078 21.9175 57.1029 22.0461 57.1363C22.4195 57.2325 22.6551 57.4765 22.7172 57.8594C22.7834 58.2679 22.8137 58.6805 22.8656 59.0909C22.9043 59.4044 22.9533 59.7145 23.0026 60.0584ZM19.8258 55.0413C19.7999 55.5523 19.7772 56.0069 19.7527 56.4986C20.1393 56.5061 20.5024 56.5298 20.8638 56.515C21.2065 56.5009 21.4378 56.2483 21.4652 55.9129C21.4973 55.5144 21.3482 55.2444 20.9902 55.1702C20.6168 55.0963 20.2332 55.0844 19.8258 55.0413Z" fill="white"/>
<path d="M11.9203 54.1918L10.4841 53.514C10.5082 53.3201 10.5634 53.1474 10.5433 52.984C10.4848 52.5075 9.83155 52.1796 9.40481 52.3953C9.13627 52.5313 9.06905 52.7392 9.22871 53.0048C9.5188 53.4876 9.93751 53.849 10.3489 54.217C10.5133 54.3656 10.6777 54.5108 10.8356 54.6653C11.8757 55.6873 10.9894 57.2123 10.0493 57.4221C9.53781 57.5365 9.04713 57.4756 8.56011 57.3144C7.93461 57.1075 7.35808 56.8082 6.87653 56.3443C6.29707 55.7873 6.17212 55.115 6.42495 54.3589C6.44614 54.2961 6.47865 54.2371 6.51555 54.1542L7.9854 54.8447C7.96531 54.9189 7.94886 54.9825 7.9306 55.0456C7.82939 55.3962 7.91013 55.6829 8.19219 55.905C8.44173 56.1018 8.71976 56.2348 9.04713 56.2229C9.31274 56.2136 9.46911 56.0576 9.56593 55.824C9.65727 55.6038 9.61161 55.4032 9.44208 55.2491C9.16112 54.994 8.86628 54.7544 8.57801 54.5063C8.3588 54.3206 8.13227 54.1405 7.92767 53.9385C7.44028 53.4557 7.25029 52.8878 7.50641 52.2197C7.77349 51.5233 8.28754 51.1155 9.0179 51.1022C10.1074 51.0828 11.031 51.533 11.7782 52.324C12.2531 52.8276 12.289 53.5273 11.9203 54.1918Z" fill="white"/>
<path d="M35.8228 52.0371L34.3507 52.7241C34.3319 52.6983 34.3145 52.6714 34.2985 52.6436C34.1396 52.332 33.8966 52.1882 33.5765 52.2194C33.274 52.2488 32.9269 52.521 32.8458 52.7917C32.7362 53.1587 32.9843 53.5219 33.3628 53.5004C33.7066 53.4807 34.0478 53.4038 34.3895 53.3499C34.7015 53.3009 35.0106 53.2385 35.3255 53.1992C35.9667 53.1167 36.5129 53.2827 36.867 53.874C37.2447 54.5053 37.3054 55.153 36.8947 55.7955C36.5476 56.3381 36.0321 56.675 35.4676 56.9424C34.9338 57.1949 34.3818 57.3732 33.7811 57.3457C33.1538 57.3171 32.4816 56.8057 32.2938 56.1989C32.3232 56.1794 32.3537 56.1615 32.3851 56.1454C32.8371 55.9337 33.289 55.7227 33.7512 55.5073C33.7859 55.5605 33.8162 55.6043 33.8443 55.65C34.0515 55.9842 34.3032 56.125 34.6752 56.0251C34.9304 55.952 35.1704 55.8324 35.3836 55.6722C35.6207 55.4969 35.6478 55.2032 35.5159 54.935C35.3938 54.6866 35.1984 54.5963 34.8878 54.6509C34.3248 54.7493 33.7629 54.8541 33.1995 54.948C32.2273 55.1129 31.4852 54.6138 31.2865 53.6537C31.1739 53.1085 31.3102 52.6079 31.6741 52.2053C32.388 51.4143 33.2886 50.9797 34.3445 50.9426C35.0285 50.9162 35.5601 51.334 35.8228 52.0371Z" fill="white"/>
<path d="M16.3149 59.632C15.9105 59.531 15.5225 59.4355 15.1348 59.3375C14.1564 59.0905 13.1787 58.8398 12.1988 58.598C12.0453 58.5609 11.9946 58.5189 12.0388 58.3414C12.4863 56.5461 12.9229 54.7475 13.3632 52.9503C13.3745 52.9039 13.3943 52.8593 13.4147 52.8018L17.6591 53.8758L17.3865 54.99L14.6964 54.3141L14.4103 55.4832L16.9401 56.1264L16.6693 57.2406L14.1374 56.6026C14.0391 56.9985 13.9419 57.3907 13.8393 57.8033L16.5922 58.5041L16.3149 59.632Z" fill="white"/>
<path d="M31.4224 57.3139L31.6949 58.4467L27.3705 59.5237C26.9069 57.6014 26.448 55.6984 25.9844 53.7742L30.2452 52.7124C30.3358 53.0838 30.4228 53.4422 30.5167 53.8266L27.8254 54.5003L28.1075 55.6716L30.6405 55.0436C30.7311 55.4124 30.8184 55.7689 30.9134 56.1578L28.3771 56.7947C28.475 57.1999 28.5686 57.5884 28.6672 57.9969L31.4224 57.3139Z" fill="white"/>
<path d="M23.6328 53.9607C24.0906 53.8931 24.5276 53.824 24.966 53.7649C25.3036 53.7189 25.3014 53.7248 25.3507 54.0713C25.6028 55.8444 25.8558 57.6174 26.1096 59.3904C26.1183 59.4498 26.1191 59.5107 26.1249 59.5894L24.4731 59.8338C24.1922 57.8714 23.9138 55.9249 23.6328 53.9607Z" fill="white"/>
<path d="M15.6942 40.6434C16.4743 34.2072 17.2517 27.7933 18.0325 21.3523H11.9785C12.0545 20.995 12.1228 20.6652 12.1948 20.3365C12.3863 19.4623 12.5828 18.591 12.7681 17.7141C12.7958 17.5826 12.8452 17.5474 12.9719 17.5474C19.1947 17.5503 25.418 17.5513 31.6418 17.5503C31.6955 17.5503 31.7488 17.5559 31.8208 17.5604C31.7112 18.0617 31.6034 18.5486 31.4974 19.0359C31.3465 19.7293 31.1891 20.4216 31.0506 21.1179C31.0119 21.311 30.9315 21.3545 30.7466 21.3537C29.1639 21.3456 27.5804 21.3489 25.997 21.3489H25.7653C25.7007 21.8455 25.6375 22.3275 25.5753 22.81C25.4353 23.9011 25.2956 24.9921 25.1563 26.083C25.016 27.1801 24.8752 28.2771 24.7339 29.3739C24.5946 30.4589 24.4555 31.5437 24.3167 32.6284C24.1761 33.7255 24.0352 34.8225 23.894 35.9193C23.7546 37.0043 23.6157 38.0891 23.4771 39.1738C23.4212 39.6091 23.3602 40.0436 23.3119 40.4792C23.2973 40.6092 23.256 40.6597 23.1216 40.6594C20.6983 40.6562 18.2747 40.6552 15.851 40.6564C15.8082 40.6564 15.7666 40.6501 15.6942 40.6434Z" fill="white"/>
</g>
<defs>
<clipPath id="clip0_4862_20885">
<rect width="44.0597" height="72" fill="white"/>
</clipPath>
</defs>
</svg>
