<svg width="331" height="196" viewBox="0 0 331 196" fill="none" xmlns="http://www.w3.org/2000/svg">
<path d="M75.4487 45.5671H3.49121V85.8025H75.4487V45.5671Z" fill="#FAFAFA"/>
<path d="M75.4495 85.8024C75.4495 85.8024 75.4495 85.5537 75.4495 85.0792C75.4495 84.6047 75.4495 83.8952 75.4495 82.9785C75.4495 81.1358 75.4495 78.4178 75.4264 74.9305C75.4264 67.9651 75.3988 57.9177 75.3804 45.567L75.4725 45.6592L3.51963 45.6868L3.63941 45.567C3.63941 59.7973 3.63941 73.4056 3.63941 85.8024L3.52885 85.6919L55.2765 85.7471L70.1425 85.7748H74.1089H75.1316H75.4863H75.1454H74.1366H70.1932L55.3502 85.807L3.47357 85.9176H3.3584V85.8024C3.3584 73.4056 3.3584 59.7973 3.3584 45.567V45.4473H3.48739L75.4403 45.4749H75.5324V45.567C75.5094 57.9454 75.4955 68.0111 75.4817 74.9904C75.4817 78.4639 75.4817 81.1726 75.4587 83.0107C75.4587 83.9321 75.4587 84.6231 75.4587 85.0976C75.4587 85.5721 75.4495 85.8024 75.4495 85.8024Z" fill="#E0E0E0"/>
<path d="M22.4491 55.1582H12.2773V65.3299H22.4491V55.1582Z" fill="#E0E0E0"/>
<path d="M36.4306 56.5727C36.4306 56.6371 34.0536 56.6924 31.1283 56.6924C28.203 56.6924 25.8213 56.6371 25.8213 56.5727C25.8213 56.5082 28.1984 56.4529 31.1283 56.4529C34.0582 56.4529 36.4306 56.522 36.4306 56.5727Z" fill="#E0E0E0"/>
<path d="M70.3041 60.258C70.3041 60.3225 60.3489 60.3777 48.0673 60.3777C35.7857 60.3777 25.8213 60.3225 25.8213 60.258C25.8213 60.1935 35.7811 60.1382 48.0673 60.1382C60.3535 60.1382 70.3041 60.1796 70.3041 60.258Z" fill="#E0E0E0"/>
<path d="M55.3343 64.3488C55.3343 64.4133 48.7881 64.4686 40.7171 64.4686C32.6461 64.4686 26.1045 64.4133 26.1045 64.3488C26.1045 64.2843 32.6461 64.229 40.7171 64.229C48.7881 64.229 55.3343 64.2797 55.3343 64.3488Z" fill="#E0E0E0"/>
<path d="M64.7916 80.4725H15.6375C14.3872 80.4713 13.1885 79.9737 12.3048 79.0892C11.4212 78.2047 10.9248 77.0055 10.9248 75.7552C10.9248 74.5053 11.4213 73.3066 12.3051 72.4228C13.1889 71.539 14.3876 71.0425 15.6375 71.0425H64.7916C65.4108 71.0419 66.0242 71.1633 66.5965 71.3999C67.1688 71.6365 67.6888 71.9835 68.1269 72.4212C68.565 72.8588 68.9126 73.3786 69.1497 73.9506C69.3868 74.5227 69.5089 75.1359 69.5089 75.7552C69.5089 76.3747 69.3869 76.9881 69.1498 77.5604C68.9127 78.1328 68.5653 78.6528 68.1272 79.0908C67.6892 79.5289 67.1691 79.8764 66.5968 80.1134C66.0245 80.3505 65.411 80.4725 64.7916 80.4725Z" fill="#E0E0E0"/>
<path d="M31.1845 76.4185H29.9775L29.7472 76.9759H29.1299L30.2908 74.3777H30.8851L32.0367 76.9759H31.4148L31.1845 76.4185ZM30.9956 75.9578L30.581 74.9627L30.194 75.9624L30.9956 75.9578Z" fill="white"/>
<path d="M34.5711 75.3173C34.5711 75.8978 34.1104 76.2387 33.4424 76.2387H32.9172V76.9573H32.3184V74.3591H33.4424C34.1334 74.3776 34.5711 74.7369 34.5711 75.3173ZM33.963 75.3173C33.963 75.0317 33.7741 74.8567 33.4056 74.8567H32.9172V75.778H33.4194C33.7741 75.7688 33.963 75.603 33.963 75.3173Z" fill="white"/>
<path d="M37.2478 75.3173C37.2478 75.8978 36.8148 76.2387 36.1238 76.2387H35.5986V76.9573H34.9951V74.3591H36.1238C36.8148 74.3776 37.2478 74.7369 37.2478 75.3173ZM36.6397 75.3173C36.6397 75.0317 36.4555 74.8567 36.0869 74.8567H35.5986V75.778H36.0869C36.4555 75.7688 36.6443 75.603 36.6443 75.3173H36.6397Z" fill="white"/>
<path d="M37.6748 74.3777H38.2783V76.483H39.582V76.9759H37.6748V74.3777Z" fill="white"/>
<path d="M40.8978 76.0546V76.976H40.2943V76.0546L39.29 74.387H39.9258L40.6214 75.5387L41.317 74.387H41.9067L40.8978 76.0546Z" fill="white"/>
<path d="M45.5926 74.3777V76.9759H45.0997L43.8052 75.3958V76.9759H43.2109V74.3777H43.7085L44.9984 75.9532V74.3777H45.5926Z" fill="white"/>
<path d="M46.0476 75.6768C46.0301 75.391 46.0988 75.1066 46.2449 74.8604C46.391 74.6143 46.6077 74.4177 46.8669 74.2962C47.126 74.1747 47.4158 74.1339 47.6985 74.179C47.9811 74.2242 48.2437 74.3533 48.4521 74.5496C48.6605 74.7458 48.8051 75.0002 48.8672 75.2797C48.9292 75.5591 48.9058 75.8508 48.8001 76.1168C48.6943 76.3828 48.5111 76.6109 48.2741 76.7715C48.0371 76.9321 47.7574 77.0177 47.4711 77.0173C47.2884 77.028 47.1054 77.0012 46.9333 76.9387C46.7613 76.8762 46.6038 76.7792 46.4705 76.6537C46.3373 76.5282 46.231 76.3768 46.1583 76.2088C46.0856 76.0409 46.0479 75.8598 46.0476 75.6768ZM48.2819 75.6768C48.2783 75.5172 48.2276 75.3623 48.1364 75.2314C48.0451 75.1006 47.9172 74.9995 47.7688 74.941C47.6204 74.8824 47.458 74.8689 47.3019 74.9023C47.1459 74.9356 47.0031 75.0143 46.8916 75.1283C46.78 75.2424 46.7046 75.3869 46.6748 75.5437C46.645 75.7004 46.6621 75.8625 46.7239 76.0096C46.7858 76.1566 46.8897 76.2822 47.0226 76.3705C47.1555 76.4588 47.3115 76.5059 47.4711 76.506C47.58 76.5093 47.6885 76.49 47.7896 76.4493C47.8907 76.4085 47.9823 76.3473 48.0585 76.2693C48.1347 76.1914 48.1939 76.0985 48.2323 75.9965C48.2708 75.8945 48.2877 75.7856 48.2819 75.6768Z" fill="white"/>
<path d="M53.1807 74.3777L52.3284 76.9759H51.6835L51.1122 75.2161L50.5226 76.9759H49.8822L49.0254 74.3777H49.6519L50.237 76.2204L50.8497 74.3777H51.4071L52.0014 76.2204L52.6048 74.3777H53.1807Z" fill="white"/>
<path d="M76.9751 131.248H14.7793V166.024H76.9751V131.248Z" fill="#FAFAFA"/>
<path d="M76.9691 166.029C76.9691 166.029 76.9691 165.813 76.9691 165.398C76.9691 164.983 76.9691 164.375 76.9691 163.583C76.9691 161.984 76.9691 159.64 76.9415 156.627C76.9415 150.606 76.9139 141.922 76.8954 131.248L76.9876 131.34L14.7964 131.368L14.9162 131.248C14.9162 143.548 14.9162 155.309 14.9162 166.029L14.8056 165.914L59.528 165.969L72.3808 166.001H75.8083H76.6973H77.0014H75.799H72.3946L59.5648 166.034L14.7688 166.089H14.6582V165.978C14.6582 155.258 14.6582 143.497 14.6582 131.197V131.078H14.7826L76.9738 131.105H77.0659V131.197C77.0429 141.899 77.029 150.601 77.0152 156.631C77.0152 159.635 77.0152 161.975 77.0152 163.564C77.0152 164.352 77.0152 164.946 77.0152 165.37C77.0152 165.794 76.9691 166.029 76.9691 166.029Z" fill="#E0E0E0"/>
<path d="M31.1693 139.54H22.375V148.334H31.1693V139.54Z" fill="#E0E0E0"/>
<path d="M43.2442 140.775C41.7117 140.894 40.1741 140.934 38.6374 140.895C37.1085 140.934 35.5785 140.894 34.0537 140.775C35.5785 140.656 37.1085 140.616 38.6374 140.655C40.1741 140.616 41.7117 140.656 43.2442 140.775Z" fill="#E0E0E0"/>
<path d="M72.5232 143.935C72.5232 143.999 63.9177 144.055 53.2992 144.055C42.6806 144.055 34.0752 143.999 34.0752 143.935C34.0752 143.87 42.6806 143.815 53.2992 143.815C63.9177 143.815 72.5232 143.87 72.5232 143.935Z" fill="#E0E0E0"/>
<path d="M59.5865 147.482C59.5865 147.547 53.9294 147.602 46.9548 147.602C39.9802 147.602 34.3369 147.547 34.3369 147.482C34.3369 147.418 39.994 147.363 46.9686 147.363C53.9433 147.363 59.5865 147.413 59.5865 147.482Z" fill="#E0E0E0"/>
<path d="M67.7655 161.418H25.2821C24.2008 161.418 23.1638 160.988 22.3992 160.224C21.6346 159.459 21.2051 158.422 21.2051 157.341C21.2051 156.806 21.3106 156.276 21.5155 155.781C21.7205 155.287 22.0208 154.838 22.3995 154.459C22.7781 154.081 23.2276 153.781 23.7222 153.577C24.2168 153.373 24.7469 153.268 25.2821 153.268H67.7655C68.3007 153.268 68.8308 153.373 69.3254 153.577C69.82 153.781 70.2695 154.081 70.6481 154.459C71.0268 154.838 71.3271 155.287 71.5321 155.781C71.737 156.276 71.8425 156.806 71.8425 157.341C71.8425 158.422 71.413 159.459 70.6484 160.224C69.8838 160.988 68.8468 161.418 67.7655 161.418Z" fill="#E0E0E0"/>
<path d="M38.7075 157.921H37.6663L37.4683 158.382H36.9385L37.9381 156.138H38.4495L39.4538 158.382H38.9056L38.7075 157.921ZM38.5462 157.525L38.1915 156.668L37.8322 157.525H38.5462Z" fill="white"/>
<path d="M41.63 156.968C41.63 157.465 41.2569 157.778 40.658 157.778H40.1973V158.382H39.6768V156.138H40.6488C41.2477 156.152 41.63 156.461 41.63 156.968ZM41.1049 156.968C41.1049 156.719 40.9436 156.576 40.6442 156.576H40.2204V157.355H40.6442C40.9436 157.355 41.1049 157.212 41.1049 156.968Z" fill="white"/>
<path d="M43.9533 156.968C43.9533 157.465 43.5801 157.778 42.9812 157.778H42.5206V158.382H42V156.138H42.972C43.5801 156.152 43.9533 156.461 43.9533 156.968ZM43.4281 156.968C43.4281 156.719 43.2669 156.576 42.9674 156.576H42.5482V157.355H42.9674C43.2669 157.355 43.4281 157.212 43.4281 156.968Z" fill="white"/>
<path d="M44.3184 156.152H44.8343V157.972H45.963V158.382H44.3184V156.152Z" fill="white"/>
<path d="M47.1034 157.599V158.382H46.5829V157.58L45.7168 156.138H46.265L46.8685 157.133L47.4674 156.138H47.9741L47.1034 157.599Z" fill="white"/>
<path d="M51.1637 156.152V158.382H50.7353L49.6204 157V158.382H49.1045V156.138H49.5421L50.6616 157.52V156.138L51.1637 156.152Z" fill="white"/>
<path d="M51.5498 157.272C51.536 157.026 51.5962 156.782 51.7227 156.57C51.8491 156.359 52.0361 156.191 52.2592 156.087C52.4824 155.983 52.7316 155.949 52.9746 155.988C53.2175 156.028 53.4431 156.139 53.6221 156.308C53.8011 156.477 53.9253 156.696 53.9786 156.936C54.032 157.176 54.012 157.427 53.9213 157.656C53.8306 157.885 53.6733 158.081 53.4698 158.219C53.2663 158.358 53.0259 158.432 52.7798 158.432C52.6216 158.442 52.4632 158.419 52.3143 158.365C52.1654 158.311 52.0291 158.227 51.9139 158.118C51.7986 158.009 51.7069 157.878 51.6443 157.732C51.5817 157.587 51.5495 157.43 51.5498 157.272ZM53.48 157.272C53.4764 157.134 53.4323 157 53.3532 156.888C53.2741 156.775 53.1635 156.688 53.0352 156.638C52.907 156.588 52.7668 156.576 52.6322 156.605C52.4976 156.635 52.3746 156.703 52.2785 156.801C52.1824 156.9 52.1175 157.025 52.092 157.16C52.0664 157.295 52.0813 157.435 52.1348 157.562C52.1883 157.689 52.278 157.797 52.3928 157.873C52.5075 157.949 52.6421 157.99 52.7798 157.99C52.8741 157.993 52.9679 157.976 53.0553 157.941C53.1427 157.905 53.2218 157.852 53.2876 157.784C53.3534 157.717 53.4045 157.636 53.4376 157.548C53.4707 157.46 53.4852 157.366 53.48 157.272Z" fill="white"/>
<path d="M57.7236 156.152L56.9911 158.382H56.4521L55.9546 156.862L55.4478 158.382H54.8904L54.1533 156.138H54.6923L55.1991 157.714L55.7288 156.138H56.1895L56.7055 157.728L57.226 156.138L57.7236 156.152Z" fill="white"/>
<path d="M293.649 146.939H231.453V181.715H293.649V146.939Z" fill="#FAFAFA"/>
<path d="M293.652 181.719C293.652 181.719 293.652 181.503 293.652 181.088C293.652 180.674 293.652 180.066 293.652 179.273C293.652 177.675 293.652 175.33 293.629 172.317C293.629 166.296 293.601 157.612 293.578 146.939L293.67 147.031L231.479 147.058L231.599 146.939C231.599 159.239 231.599 171 231.599 181.719L231.489 181.604L276.211 181.66L289.064 181.692H292.491H293.38H293.684H292.519H289.114L276.285 181.724L231.489 181.779H231.378V181.669C231.378 170.949 231.378 159.188 231.378 146.888V146.768H231.502L293.693 146.796H293.786V146.888C293.763 157.589 293.749 166.291 293.735 172.322C293.735 175.325 293.735 177.666 293.735 179.255C293.735 180.043 293.735 180.637 293.735 181.061C293.735 181.485 293.652 181.719 293.652 181.719Z" fill="#E0E0E0"/>
<path d="M247.852 155.231H239.058V164.025H247.852V155.231Z" fill="#E0E0E0"/>
<path d="M259.924 156.465C256.871 156.625 253.811 156.625 250.757 156.465C253.811 156.306 256.871 156.306 259.924 156.465Z" fill="#E0E0E0"/>
<path d="M289.205 159.626C289.205 159.69 280.599 159.745 269.981 159.745C259.362 159.745 250.757 159.69 250.757 159.626C250.757 159.561 259.362 159.506 269.981 159.506C280.599 159.506 289.205 159.561 289.205 159.626Z" fill="#E0E0E0"/>
<path d="M276.27 163.173C276.27 163.237 270.613 163.293 263.639 163.293C256.664 163.293 251.007 163.237 251.007 163.173C251.007 163.108 256.664 163.053 263.639 163.053C270.613 163.053 276.27 163.104 276.27 163.173Z" fill="#E0E0E0"/>
<path d="M284.448 177.108H241.965C240.883 177.108 239.846 176.679 239.082 175.914C238.317 175.15 237.888 174.113 237.888 173.031C237.888 172.496 237.993 171.966 238.198 171.472C238.403 170.977 238.703 170.528 239.082 170.15C239.461 169.772 239.91 169.472 240.405 169.268C240.899 169.063 241.429 168.958 241.965 168.959H284.448C284.983 168.958 285.513 169.063 286.008 169.268C286.503 169.472 286.952 169.772 287.331 170.15C287.709 170.528 288.01 170.977 288.215 171.472C288.42 171.966 288.525 172.496 288.525 173.031C288.525 174.113 288.096 175.15 287.331 175.914C286.566 176.679 285.529 177.108 284.448 177.108Z" fill="#E0E0E0"/>
<path d="M255.394 173.607H254.348L254.15 174.068H253.62L254.62 171.824H255.131L256.135 174.068H255.592L255.394 173.607ZM255.228 173.211L254.873 172.349L254.518 173.211H255.228Z" fill="white"/>
<path d="M258.319 172.663C258.319 173.16 257.941 173.474 257.342 173.474H256.881V174.091H256.384V171.847H257.356C257.941 171.843 258.319 172.152 258.319 172.663ZM257.793 172.663C257.793 172.414 257.632 172.271 257.333 172.271H256.909V173.05H257.305C257.632 173.045 257.793 172.898 257.793 172.663Z" fill="white"/>
<path d="M260.639 172.663C260.639 173.16 260.261 173.474 259.662 173.474H259.202V174.091H258.69V171.847H259.662C260.261 171.843 260.639 172.152 260.639 172.663ZM260.109 172.663C260.109 172.414 259.953 172.271 259.649 172.271H259.225V173.05H259.649C259.953 173.045 260.109 172.898 260.109 172.663Z" fill="white"/>
<path d="M260.992 171.843H261.513V173.662H262.637V174.086H260.992V171.843Z" fill="white"/>
<path d="M263.787 173.289V174.086H263.295V173.285L262.424 171.843H262.977L263.576 172.838L264.174 171.843H264.677L263.787 173.289Z" fill="white"/>
<path d="M267.848 171.843V174.086H267.443L266.324 172.704V174.086H265.808V171.843H266.241L267.355 173.225V171.843H267.848Z" fill="white"/>
<path d="M268.244 172.962C268.23 172.716 268.291 172.472 268.417 172.261C268.544 172.049 268.731 171.881 268.955 171.777C269.178 171.674 269.428 171.639 269.671 171.679C269.914 171.719 270.139 171.831 270.318 172C270.497 172.17 270.621 172.389 270.674 172.629C270.726 172.87 270.706 173.121 270.614 173.35C270.523 173.578 270.365 173.774 270.161 173.912C269.957 174.05 269.716 174.124 269.47 174.123C269.312 174.133 269.153 174.109 269.005 174.055C268.856 174.001 268.72 173.917 268.605 173.808C268.49 173.699 268.399 173.568 268.337 173.423C268.275 173.277 268.243 173.12 268.244 172.962ZM270.174 172.962C270.172 172.823 270.128 172.689 270.049 172.574C269.97 172.46 269.859 172.372 269.73 172.321C269.601 172.27 269.46 172.258 269.324 172.286C269.188 172.315 269.064 172.383 268.966 172.482C268.869 172.582 268.803 172.707 268.777 172.843C268.751 172.98 268.766 173.121 268.82 173.249C268.874 173.377 268.964 173.486 269.079 173.563C269.195 173.64 269.331 173.681 269.47 173.681C269.564 173.683 269.658 173.667 269.746 173.631C269.833 173.596 269.913 173.543 269.979 173.475C270.045 173.408 270.096 173.327 270.13 173.239C270.164 173.151 270.179 173.057 270.174 172.962Z" fill="white"/>
<path d="M274.402 171.843L273.67 174.086H273.113L272.62 172.566L272.108 174.086H271.555L270.818 171.843H271.357L271.864 173.418L272.389 171.843H272.85L273.361 173.432L273.882 171.843H274.402Z" fill="white"/>
<path d="M316.055 62.0225H244.098V102.258H316.055V62.0225Z" fill="#FAFAFA"/>
<path d="M316.051 102.258C316.051 102.258 316.051 102.009 316.051 101.535C316.051 101.06 316.051 100.355 316.051 99.4339C316.051 97.5912 316.051 94.8733 316.051 91.3905C316.051 84.4251 316.023 74.3778 316 62.0225L316.093 62.1146L244.14 62.1423L244.26 62.0225C244.26 76.2528 244.26 89.8611 244.26 102.258L244.149 102.147L295.897 102.203L310.767 102.235H314.729H316.111H315.775H314.761H310.818L295.975 102.267L244.154 102.322H244.043V102.207C244.043 89.8104 244.043 76.2021 244.043 61.9718V61.8521H244.167L316.12 61.8797H316.212V61.9718C316.212 74.3502 316.176 84.4159 316.162 91.3952C316.162 94.8686 316.162 97.5774 316.162 99.4201C316.162 100.341 316.162 101.028 316.162 101.502C316.162 101.977 316.051 102.258 316.051 102.258Z" fill="#E0E0E0"/>
<path d="M263.064 71.6135H252.893V81.7852H263.064V71.6135Z" fill="#E0E0E0"/>
<path d="M277.032 73.0416C277.032 73.1107 274.66 73.1614 271.73 73.1614C268.8 73.1614 266.428 73.1107 266.428 73.0416C266.428 72.9725 268.8 72.9219 271.73 72.9219C274.66 72.9219 277.032 72.9772 277.032 73.0416Z" fill="#E0E0E0"/>
<path d="M310.911 76.6994C310.911 76.7685 300.951 76.8191 288.669 76.8191C276.388 76.8191 266.428 76.7685 266.428 76.6994C266.428 76.6303 276.383 76.5796 288.669 76.5796C300.955 76.5796 310.911 76.6349 310.911 76.6994Z" fill="#E0E0E0"/>
<path d="M295.945 80.8041C295.945 80.8686 289.403 80.9239 281.332 80.9239C273.261 80.9239 266.715 80.8686 266.715 80.8041C266.715 80.7396 273.256 80.6843 281.332 80.6843C289.408 80.6843 295.945 80.735 295.945 80.8041Z" fill="#E0E0E0"/>
<path d="M305.403 87.4978H256.244C253.641 87.4978 251.531 89.6078 251.531 92.2105V92.2151C251.531 94.8179 253.641 96.9278 256.244 96.9278H305.403C308.005 96.9278 310.115 94.8179 310.115 92.2151V92.2105C310.115 89.6078 308.005 87.4978 305.403 87.4978Z" fill="#E0E0E0"/>
<path d="M271.791 92.8738H270.584L270.353 93.4312H269.745L270.901 90.833H271.496L272.657 93.4312H272.025L271.791 92.8738ZM271.602 92.4131L271.192 91.4181L270.777 92.4131H271.602Z" fill="white"/>
<path d="M275.177 91.7774C275.177 92.3532 274.744 92.6987 274.049 92.6987H273.528V93.4266H272.925V90.8284H274.049C274.744 90.833 275.177 91.1923 275.177 91.7774ZM274.569 91.7774C274.569 91.4917 274.385 91.3167 274.017 91.3167H273.528V92.238H274.017C274.385 92.2242 274.569 92.0446 274.569 91.7774Z" fill="white"/>
<path d="M277.855 91.7774C277.855 92.3532 277.422 92.6987 276.726 92.6987H276.192V93.4266H275.593V90.8284H276.717C277.422 90.833 277.855 91.1923 277.855 91.7774ZM277.247 91.7774C277.247 91.4917 277.058 91.3167 276.694 91.3167H276.192V92.238H276.685C277.058 92.2242 277.247 92.0446 277.247 91.7774Z" fill="white"/>
<path d="M278.29 90.833H278.889V92.9659H280.193V93.4266H278.29V90.833Z" fill="white"/>
<path d="M281.501 92.5053V93.4266H280.902V92.5053L279.875 90.833H280.515L281.206 91.9847L281.902 90.833H282.492L281.501 92.5053Z" fill="white"/>
<path d="M286.199 90.833V93.4266H285.706L284.412 91.8465V93.4266H283.817V90.8284H284.315L285.609 92.4039V90.8284L286.199 90.833Z" fill="white"/>
<path d="M286.654 92.1322C286.638 91.8476 286.708 91.5649 286.855 91.3206C287.001 91.0764 287.218 90.8818 287.477 90.7621C287.735 90.6424 288.024 90.603 288.305 90.6491C288.587 90.6953 288.847 90.8248 289.054 91.0208C289.261 91.2169 289.404 91.4705 289.465 91.7489C289.526 92.0273 289.502 92.3175 289.397 92.5822C289.291 92.8468 289.108 93.0736 288.872 93.2332C288.636 93.3928 288.357 93.4778 288.072 93.4773C287.889 93.488 287.706 93.4611 287.534 93.3983C287.362 93.3354 287.205 93.238 287.072 93.1119C286.939 92.9859 286.833 92.8339 286.761 92.6654C286.689 92.4969 286.653 92.3154 286.654 92.1322ZM288.888 92.1322C288.885 91.9715 288.835 91.8152 288.744 91.683C288.652 91.5507 288.524 91.4484 288.375 91.3888C288.226 91.3292 288.062 91.315 287.905 91.348C287.748 91.381 287.604 91.4597 287.491 91.5743C287.378 91.6889 287.302 91.8341 287.272 91.9919C287.241 92.1497 287.258 92.3129 287.32 92.4611C287.383 92.6093 287.487 92.7359 287.621 92.8249C287.755 92.9139 287.912 92.9614 288.072 92.9614C288.181 92.964 288.29 92.9442 288.391 92.9033C288.492 92.8624 288.583 92.8012 288.66 92.7234C288.736 92.6457 288.796 92.5531 288.835 92.4514C288.874 92.3497 288.892 92.2411 288.888 92.1322Z" fill="white"/>
<path d="M293.792 90.833L292.944 93.4266H292.318L291.742 91.6668L291.134 93.4266H290.475L289.623 90.8284H290.245L290.83 92.6711L291.443 90.8284H292L292.594 92.6711L293.198 90.8284L293.792 90.833Z" fill="white"/>
<path d="M265.946 0.121826H52.7549V195.066H265.946V0.121826Z" fill="white"/>
<path d="M265.946 0.121826H52.7549V13.0898H265.946V0.121826Z" fill="#E0E0E0"/>
<path d="M237.246 182.549C237.246 182.618 201.571 182.669 157.549 182.669C113.527 182.669 77.8525 182.618 77.8525 182.549C77.8525 182.48 113.523 182.429 157.549 182.429C201.576 182.429 237.246 182.485 237.246 182.549Z" fill="#263238"/>
<path d="M144.372 143.442H141.217V160.064H144.372V143.442Z" fill="#E0E0E0"/>
<path d="M144.366 160.059C144.359 159.946 144.359 159.832 144.366 159.718C144.366 159.479 144.366 159.161 144.366 158.76C144.366 157.912 144.366 156.724 144.329 155.245C144.329 152.26 144.297 148.128 144.279 143.442L144.398 143.558H141.201C141.436 143.318 141.266 143.493 141.321 143.442V148.51C141.321 150.122 141.321 151.656 141.321 153.08C141.321 155.913 141.293 158.313 141.284 160.073L141.215 160.008L143.518 160.045H144.136H144.361C144.296 160.052 144.229 160.052 144.163 160.045H143.555L141.201 160.077H141.141V160.008C141.141 158.249 141.118 155.862 141.104 153.015C141.104 151.592 141.104 150.058 141.104 148.445V145.967C141.104 145.548 141.104 145.119 141.104 144.691V143.401L141.229 143.277H144.5V143.396C144.5 148.114 144.463 152.274 144.449 155.282C144.449 156.747 144.421 157.931 144.417 158.774C144.417 159.161 144.417 159.469 144.417 159.695C144.409 159.817 144.392 159.939 144.366 160.059Z" fill="#263238"/>
<path d="M150.098 140.923H135.356C134.306 140.923 133.299 140.506 132.557 139.764C131.814 139.022 131.396 138.015 131.395 136.965H154.06C154.059 138.015 153.641 139.022 152.898 139.764C152.155 140.506 151.148 140.923 150.098 140.923Z" fill="#263238"/>
<path d="M163.112 137.739H137.388V132.239H163.112C163.845 132.239 164.548 132.53 165.066 133.048C165.585 133.567 165.876 134.27 165.876 135.003C165.869 135.731 165.574 136.427 165.057 136.939C164.539 137.452 163.84 137.739 163.112 137.739Z" fill="#F5C518"/>
<path d="M117.391 92.7221C116.684 92.8176 116.042 93.1856 115.602 93.7475C115.162 94.3095 114.959 95.021 115.037 95.7303L118.75 129.479C119.006 131.751 120.089 133.849 121.794 135.373C123.498 136.897 125.705 137.739 127.991 137.739H137.803C138.536 137.739 139.239 137.448 139.758 136.93C140.276 136.411 140.567 135.708 140.567 134.975C140.567 134.242 140.276 133.539 139.758 133.021C139.239 132.502 138.536 132.211 137.803 132.211H129.47C128.324 132.211 127.218 131.796 126.357 131.042C125.495 130.287 124.936 129.246 124.784 128.111L120.473 95.0762C120.425 94.7194 120.308 94.3754 120.128 94.0638C119.948 93.7523 119.708 93.4794 119.422 93.2608C119.136 93.0421 118.81 92.882 118.462 92.7895C118.115 92.6971 117.752 92.6742 117.395 92.7221H117.391Z" fill="#F5C518"/>
<path d="M148.65 132.506L120.682 132.898L117.95 92.6945L141.357 92.5471C142.484 92.5532 143.562 93.0064 144.355 93.8072C145.148 94.6079 145.591 95.6907 145.586 96.8176L148.65 132.506Z" fill="#F5C518"/>
<g opacity="0.3">
<path d="M117.397 92.7221C116.69 92.8176 116.049 93.1856 115.609 93.7475C115.169 94.3095 114.966 95.021 115.043 95.7303L118.756 129.479C119.012 131.751 120.096 133.849 121.801 135.373C123.505 136.897 125.711 137.739 127.998 137.739H137.81C138.543 137.739 139.246 137.448 139.765 136.93C140.283 136.411 140.574 135.708 140.574 134.975C140.574 134.242 140.283 133.539 139.765 133.021C139.246 132.502 138.543 132.211 137.81 132.211H128.878C126.51 132.211 124.847 130.534 124.533 128.185L120.479 95.0762C120.432 94.7194 120.315 94.3754 120.135 94.0638C119.955 93.7523 119.715 93.4794 119.429 93.2608C119.143 93.0421 118.817 92.882 118.469 92.7895C118.121 92.6971 117.759 92.6742 117.402 92.7221H117.397Z" fill="black"/>
</g>
<path d="M145.849 140.922H139.735V144.101H145.849V140.922Z" fill="#263238"/>
<path d="M143.937 159.128H141.564C140.554 159.128 139.735 159.947 139.735 160.957V171.861C139.735 172.872 140.554 173.69 141.564 173.69H143.937C144.947 173.69 145.766 172.872 145.766 171.861V160.957C145.766 159.947 144.947 159.128 143.937 159.128Z" fill="#E0E0E0"/>
<path d="M143.937 173.69C143.937 173.69 144.071 173.69 144.315 173.626C144.617 173.55 144.896 173.399 145.124 173.186C145.352 172.973 145.522 172.706 145.619 172.41C145.695 172.109 145.722 171.798 145.697 171.488C145.697 170.802 145.697 170.023 145.697 169.185C145.697 167.453 145.697 165.407 145.669 163.136C145.669 162.57 145.669 161.985 145.669 161.39C145.69 161.1 145.669 160.808 145.605 160.524C145.53 160.244 145.384 159.989 145.181 159.783C144.978 159.568 144.722 159.409 144.439 159.322C144.137 159.253 143.827 159.229 143.518 159.253H141.574C141.269 159.253 140.97 159.335 140.708 159.49C140.445 159.644 140.229 159.866 140.081 160.133C139.939 160.394 139.864 160.687 139.865 160.985V161.906C139.865 163.141 139.865 164.339 139.865 165.476C139.865 167.748 139.865 169.793 139.842 171.521C139.799 171.917 139.868 172.317 140.04 172.677C140.198 172.966 140.433 173.205 140.72 173.368C141.006 173.531 141.332 173.61 141.662 173.598H142.463L143.573 173.621C143.703 173.616 143.832 173.624 143.96 173.644C143.831 173.654 143.702 173.654 143.573 173.644L142.463 173.667H141.662C141.306 173.685 140.954 173.602 140.643 173.428C140.333 173.255 140.078 172.998 139.906 172.686C139.808 172.503 139.74 172.306 139.704 172.101C139.675 171.887 139.664 171.672 139.671 171.456C139.671 169.729 139.671 167.683 139.644 165.412C139.644 164.274 139.644 163.076 139.644 161.842V160.92C139.64 160.663 139.688 160.407 139.784 160.168C139.88 159.929 140.022 159.711 140.203 159.528C140.384 159.344 140.6 159.199 140.837 159.099C141.075 159 141.33 158.949 141.588 158.949H143.509C143.838 158.925 144.169 158.951 144.49 159.027C144.809 159.125 145.099 159.301 145.333 159.538C145.553 159.776 145.712 160.064 145.794 160.377C145.858 160.679 145.882 160.989 145.863 161.298C145.863 161.892 145.863 162.477 145.863 163.044C145.863 165.315 145.863 167.361 145.84 169.093C145.84 169.95 145.84 170.728 145.84 171.396C145.859 171.719 145.825 172.043 145.738 172.354C145.647 172.616 145.501 172.854 145.31 173.055C145.047 173.327 144.706 173.512 144.333 173.584C144.208 173.64 144.074 173.676 143.937 173.69Z" fill="#263238"/>
<path d="M160.348 172.787H124.462C123.982 172.77 123.504 172.854 123.059 173.033C122.613 173.212 122.211 173.483 121.877 173.829C120.546 175.211 120.629 177.514 120.633 177.597L122.269 177.528C122.269 177.067 122.356 175.685 123.061 174.957C123.242 174.777 123.458 174.637 123.696 174.545C123.934 174.453 124.188 174.411 124.443 174.423H133.859V178.592H135.495V174.423H160.33C160.835 174.424 161.32 174.625 161.677 174.983C162.034 175.34 162.236 175.825 162.237 176.33V177.56H163.872V176.348C163.876 175.409 163.507 174.507 162.846 173.839C162.186 173.172 161.287 172.793 160.348 172.787Z" fill="#E0E0E0"/>
<path d="M160.35 172.787C160.503 172.777 160.657 172.777 160.81 172.787C161.248 172.835 161.674 172.965 162.064 173.17C162.699 173.516 163.218 174.042 163.556 174.681C163.77 175.089 163.901 175.535 163.943 175.994C163.975 176.487 163.943 176.993 163.966 177.542V177.601H162.211V177.537C162.165 176.74 162.395 175.763 161.727 175.082C161.413 174.737 160.98 174.525 160.516 174.487C160.055 174.487 159.521 174.487 159.005 174.487H152.182H135.533L135.644 174.372C135.644 175.685 135.644 177.104 135.644 178.541V178.661H133.773V174.372L133.893 174.492H124.307C123.979 174.502 123.66 174.602 123.385 174.782C123.121 174.975 122.911 175.234 122.777 175.533C122.506 176.141 122.372 176.802 122.386 177.468V177.588H122.275L120.64 177.657H120.52V177.537C120.505 176.764 120.625 175.993 120.875 175.261C121.109 174.528 121.545 173.875 122.132 173.377C122.731 172.908 123.463 172.642 124.224 172.617C124.961 172.617 125.67 172.617 126.384 172.617H134.52L148.096 172.645L157.097 172.677L159.516 172.7H160.143H160.354C160.354 172.7 160.285 172.7 160.143 172.7H159.516H157.097L148.096 172.737L134.52 172.764H126.384C125.675 172.764 124.952 172.764 124.237 172.764C123.524 172.786 122.837 173.038 122.28 173.483C121.724 173.952 121.312 174.568 121.091 175.261C120.854 175.966 120.742 176.706 120.759 177.449L120.635 177.339L122.266 177.27L122.155 177.39C122.138 176.684 122.28 175.983 122.57 175.34C122.722 175.004 122.958 174.713 123.256 174.497C123.566 174.292 123.926 174.177 124.297 174.165H134.004V174.285C134.004 175.717 134.004 177.136 134.004 178.454L133.889 178.339H135.519L135.404 178.454C135.404 177.016 135.404 175.598 135.404 174.285V174.169H135.519H152.168H158.991C159.511 174.169 160.009 174.169 160.516 174.169C161.003 174.212 161.458 174.433 161.793 174.79C162.127 175.147 162.319 175.615 162.331 176.104C162.331 176.542 162.331 176.966 162.331 177.376L162.266 177.311H163.902L163.842 177.367C163.842 176.823 163.865 176.302 163.842 175.828C163.807 175.381 163.683 174.946 163.478 174.547C163.157 173.917 162.657 173.397 162.04 173.05C161.659 172.839 161.242 172.7 160.81 172.64C160.502 172.797 160.35 172.797 160.35 172.787Z" fill="#263238"/>
<path d="M137.839 180.536C137.84 181.169 137.653 181.789 137.302 182.316C136.95 182.843 136.451 183.254 135.866 183.497C135.281 183.74 134.637 183.804 134.015 183.681C133.394 183.558 132.823 183.254 132.375 182.806C131.927 182.359 131.621 181.788 131.497 181.167C131.373 180.546 131.437 179.902 131.679 179.316C131.921 178.731 132.331 178.231 132.858 177.879C133.385 177.527 134.004 177.339 134.637 177.339C135.486 177.339 136.299 177.676 136.9 178.275C137.5 178.874 137.838 179.688 137.839 180.536Z" fill="#263238"/>
<path d="M124.649 179.757C124.649 180.391 124.462 181.01 124.11 181.536C123.758 182.063 123.258 182.473 122.673 182.715C122.088 182.958 121.444 183.021 120.823 182.898C120.202 182.774 119.632 182.469 119.184 182.021C118.736 181.574 118.431 181.003 118.308 180.382C118.184 179.761 118.247 179.117 118.49 178.532C118.732 177.947 119.143 177.447 119.669 177.095C120.196 176.743 120.815 176.556 121.448 176.556C122.297 176.556 123.111 176.893 123.712 177.493C124.312 178.094 124.649 178.908 124.649 179.757Z" fill="#263238"/>
<path d="M165.9 179.873C165.901 180.506 165.714 181.126 165.363 181.653C165.012 182.18 164.512 182.591 163.927 182.834C163.342 183.077 162.698 183.141 162.077 183.018C161.456 182.895 160.885 182.59 160.436 182.143C159.988 181.695 159.683 181.125 159.559 180.504C159.435 179.882 159.498 179.238 159.74 178.653C159.983 178.068 160.393 177.567 160.92 177.215C161.446 176.863 162.065 176.676 162.699 176.676C163.547 176.676 164.361 177.012 164.961 177.612C165.561 178.211 165.899 179.024 165.9 179.873Z" fill="#263238"/>
<path d="M163.799 132.239C163.799 132.303 155.913 132.386 146.188 132.423C136.463 132.46 128.576 132.423 128.576 132.368C128.576 132.312 136.458 132.22 146.188 132.183C155.917 132.147 163.799 132.17 163.799 132.239Z" fill="#263238"/>
<path d="M124.564 127.664C124.499 127.664 123.527 120.386 122.398 111.389C121.27 102.392 120.404 95.0854 120.468 95.0762C120.533 95.067 121.505 102.355 122.633 111.356C123.762 120.358 124.619 127.655 124.564 127.664Z" fill="#263238"/>
<path d="M120.178 92.6438C120.258 92.613 120.341 92.5913 120.427 92.5793C120.667 92.5376 120.91 92.513 121.154 92.5056C122.058 92.474 122.96 92.6131 123.812 92.9156C124.408 93.1308 124.94 93.4919 125.36 93.966C125.822 94.5127 126.22 95.1109 126.544 95.7488C127.235 97.0801 128.005 98.5128 128.848 100.028C130.538 103.027 132.128 105.718 133.206 107.708C133.754 108.698 134.173 109.509 134.459 110.076C134.588 110.338 134.689 110.536 134.777 110.73C134.819 110.805 134.85 110.885 134.869 110.969C134.817 110.901 134.771 110.829 134.73 110.753L134.376 110.117L133.058 107.791C131.943 105.824 130.331 103.152 128.636 100.144C127.788 98.6418 127.023 97.1815 126.332 95.8547C126.023 95.2263 125.639 94.6371 125.19 94.0996C124.797 93.64 124.295 93.2867 123.73 93.0722C122.899 92.7667 122.021 92.6107 121.136 92.6116C120.528 92.5931 120.182 92.6669 120.178 92.6438Z" fill="#263238"/>
<path d="M115.222 94.3942C115.282 94.4265 113.163 98.1211 110.495 102.64C107.828 107.16 105.617 110.803 105.557 110.771C105.497 110.739 107.616 107.044 110.288 102.521C112.96 97.9967 115.167 94.3482 115.222 94.3942Z" fill="#263238"/>
<path d="M140.214 110.767H101.872V122.072H140.214V110.767Z" fill="#FAFAFA"/>
<path d="M112.218 114.277L110.343 118.617H109.353L107.482 114.277H108.565L109.883 117.382L111.218 114.282L112.218 114.277Z" fill="#263238"/>
<path d="M115.288 117.686H113.275L112.893 118.607H111.865L113.795 114.268H114.786L116.725 118.607H115.67L115.288 117.686ZM114.952 116.921L114.265 115.258L113.597 116.921H114.952Z" fill="#263238"/>
<path d="M116.835 116.461C116.861 115.991 117.026 115.54 117.307 115.164C117.589 114.788 117.975 114.503 118.418 114.346C118.861 114.188 119.34 114.165 119.796 114.279C120.252 114.393 120.664 114.639 120.981 114.986L120.336 115.581C120.205 115.42 120.039 115.291 119.85 115.203C119.662 115.116 119.457 115.071 119.249 115.074C118.882 115.074 118.531 115.22 118.272 115.479C118.012 115.738 117.867 116.089 117.867 116.456C117.867 116.823 118.012 117.174 118.272 117.433C118.531 117.692 118.882 117.838 119.249 117.838C119.457 117.84 119.663 117.795 119.851 117.707C120.039 117.618 120.205 117.488 120.336 117.327L120.981 117.921C120.666 118.27 120.254 118.518 119.798 118.634C119.341 118.749 118.861 118.727 118.418 118.57C117.974 118.412 117.587 118.127 117.305 117.75C117.024 117.373 116.86 116.921 116.835 116.451V116.461Z" fill="#263238"/>
<path d="M124.412 117.686H122.399L122.017 118.607H120.989L122.919 114.268H123.91L125.849 118.607H124.794L124.412 117.686ZM124.099 116.926L123.408 115.263L122.721 116.921L124.099 116.926Z" fill="#263238"/>
<path d="M130.284 114.277V118.617H129.46L127.299 116V118.635H126.309V114.296H127.138L129.294 116.931V114.296L130.284 114.277Z" fill="#263238"/>
<path d="M132.197 115.079H130.815V114.259H134.593V115.079H133.211V118.598H132.207L132.197 115.079Z" fill="#263238"/>
<path d="M138.975 121.068C138.975 121.068 138.975 121.012 138.975 120.902C138.975 120.791 138.975 120.634 138.975 120.441C138.975 120.022 138.975 119.414 138.975 118.631C138.975 117.046 138.975 114.747 138.938 111.845L139.007 111.914L102.844 111.965C102.895 111.909 102.72 112.084 102.959 111.845V121.058L102.839 120.943L128.637 120.994L136.243 121.026H138.298H138.832H139.016C138.959 121.03 138.902 121.03 138.846 121.026H138.325H136.298L128.72 121.058L102.849 121.114H102.733V121.068C102.733 119.58 102.733 118.059 102.733 116.521V111.817C102.973 111.578 102.802 111.748 102.858 111.697L139.021 111.743H139.095V111.817C139.095 114.738 139.062 117.05 139.053 118.644C139.053 119.423 139.053 120.026 139.053 120.441V120.902C139.033 120.96 139.007 121.015 138.975 121.068Z" fill="#263238"/>
<path d="M142.727 54.6748H145.643L142.755 57.0335H140.668L142.727 54.6748Z" fill="#263238"/>
<path d="M109.987 76.9163V82.9834H106.274V77.5244C106.274 75.995 105.606 75.35 104.532 75.35C103.339 75.35 102.418 76.0963 102.418 77.8561V82.9834H98.7002V68.4675H102.418V73.3553C103.295 72.5802 104.435 72.1684 105.606 72.2036C108.089 72.2036 109.987 73.6179 109.987 76.9163Z" fill="#263238"/>
<path d="M111.911 69.2278C111.911 68.1129 112.832 67.2515 114.178 67.2515C115.523 67.2515 116.449 68.053 116.449 69.1679C116.449 70.2827 115.55 71.2041 114.178 71.2041C112.805 71.2041 111.911 70.3426 111.911 69.2278ZM112.321 72.3788H116.039V82.9743H112.321V72.3788Z" fill="#263238"/>
<path d="M125.541 72.2036V75.5481C125.262 75.5095 124.98 75.4894 124.698 75.4882C123.192 75.4882 122.155 76.253 122.155 78.1095V82.9834H118.438V72.3879H121.98V73.6593C122.745 72.6965 123.975 72.2036 125.541 72.2036Z" fill="#263238"/>
<path d="M126.658 69.2278C126.658 68.1129 127.557 67.2515 128.929 67.2515C130.302 67.2515 131.196 68.053 131.196 69.1679C131.196 70.2827 130.298 71.2041 128.929 71.2041C127.561 71.2041 126.658 70.3426 126.658 69.2278ZM127.068 72.3788H130.786V82.9743H127.068V72.3788Z" fill="#263238"/>
<path d="M144.485 76.9164V82.9835H140.749V77.5245C140.749 75.995 140.085 75.3501 139.007 75.3501C137.814 75.3501 136.893 76.0964 136.893 77.8562V82.9835H133.18V72.388H136.718V73.5396C137.159 73.1004 137.685 72.7561 138.264 72.5279C138.843 72.2997 139.463 72.1925 140.085 72.2129C142.591 72.2037 144.485 73.618 144.485 76.9164Z" fill="#263238"/>
<path d="M158.369 72.3787V81.044C158.369 85.0565 156.102 86.9545 152.149 86.9545C150.113 86.9545 148.178 86.4938 146.884 85.5725L148.234 82.9697C149.281 83.7133 150.534 84.1111 151.818 84.1075C153.812 84.1075 154.651 83.1862 154.651 81.5416V81.1915C154.252 81.6199 153.762 81.9545 153.218 82.1711C152.674 82.3878 152.089 82.4812 151.504 82.4445C148.685 82.4445 146.299 80.4452 146.299 77.3172C146.299 74.1892 148.685 72.2129 151.504 72.2129C152.969 72.2129 154.103 72.6736 154.831 73.6778V72.3879L158.369 72.3787ZM154.683 77.308C154.683 76.0181 153.702 75.1566 152.38 75.1566C151.058 75.1566 150.049 76.0181 150.049 77.308C150.049 78.5978 151.048 79.4777 152.38 79.4777C152.677 79.4994 152.976 79.4591 153.257 79.3594C153.539 79.2596 153.796 79.1026 154.013 78.8982C154.231 78.6938 154.403 78.4465 154.52 78.172C154.637 77.8975 154.696 77.6017 154.692 77.3034L154.683 77.308Z" fill="#263238"/>
<path d="M160.093 80.9472C160.093 80.3559 160.328 79.7887 160.746 79.3706C161.164 78.9524 161.731 78.7175 162.322 78.7175C162.914 78.7175 163.481 78.9524 163.899 79.3706C164.317 79.7887 164.552 80.3559 164.552 80.9472C164.552 81.5385 164.317 82.1057 163.899 82.5238C163.481 82.942 162.914 83.1769 162.322 83.1769C161.731 83.1769 161.164 82.942 160.746 82.5238C160.328 82.1057 160.093 81.5385 160.093 80.9472Z" fill="#F5C518"/>
<path d="M149.359 57.8674V60.4979C149.141 60.4679 148.921 60.4525 148.701 60.4518C147.517 60.4518 146.706 61.0507 146.706 62.5064V66.33H143.785V58.0056H146.549V59.0053C147.167 58.2544 148.116 57.8674 149.359 57.8674Z" fill="#263238"/>
<path d="M158.946 62.9072H152.893C153.141 63.7503 153.86 64.2432 154.938 64.2432C155.289 64.2554 155.64 64.1977 155.969 64.0736C156.298 63.9494 156.599 63.7612 156.854 63.5199L158.393 65.1185C157.591 66.0076 156.426 66.4728 154.846 66.4728C151.879 66.4728 149.958 64.6301 149.958 62.1563C149.958 59.6825 151.911 57.8674 154.537 57.8674C156.993 57.8674 158.992 59.4383 158.992 62.184C158.992 62.4005 158.96 62.6769 158.946 62.9072ZM152.846 61.3732H156.255C156.183 60.9737 155.973 60.6123 155.661 60.3521C155.35 60.0918 154.957 59.9492 154.551 59.9492C154.145 59.9492 153.752 60.0918 153.44 60.3521C153.129 60.6123 152.919 60.9737 152.846 61.3732Z" fill="#263238"/>
<path d="M131.21 58.0056L128.243 66.33H125.419L123.853 61.8016L122.222 66.33H119.398L116.432 58.0056H119.196L120.9 63.0454L122.669 58.0056H125.157L126.875 63.073L128.644 58.0056H131.21Z" fill="#263238"/>
<path d="M140.334 62.9072H134.299C134.548 63.7503 135.266 64.2432 136.344 64.2432C136.697 64.2555 137.048 64.1979 137.377 64.0737C137.707 63.9496 138.009 63.7614 138.265 63.5199L139.799 65.1185C139.003 66.0076 137.832 66.4728 136.252 66.4728C133.286 66.4728 131.369 64.6301 131.369 62.1563C131.369 59.6825 133.318 57.8674 135.944 57.8674C138.404 57.8674 140.398 59.4383 140.398 62.184C140.38 62.4005 140.348 62.6769 140.334 62.9072ZM134.235 61.3732H137.648C137.579 60.9709 137.369 60.6062 137.057 60.3433C136.745 60.0804 136.35 59.9362 135.941 59.9362C135.533 59.9362 135.138 60.0804 134.826 60.3433C134.513 60.6062 134.304 60.9709 134.235 61.3732Z" fill="#263238"/>
<path d="M118.59 42.596L118.129 32.8066C118.111 32.4199 117.952 32.0532 117.682 31.7757C117.412 31.4982 117.05 31.329 116.664 31.3002C116.258 31.2686 115.855 31.3945 115.54 31.6518C115.224 31.9092 115.019 32.2782 114.969 32.6822L113.729 42.4946C113.71 42.6684 113.727 42.8443 113.781 43.0109C113.834 43.1775 113.921 43.331 114.038 43.4615C114.154 43.5919 114.297 43.6963 114.457 43.7678C114.616 43.8393 114.789 43.8764 114.964 43.8766H117.35C117.516 43.8755 117.68 43.8412 117.833 43.7759C117.985 43.7106 118.123 43.6156 118.239 43.4964C118.354 43.3771 118.444 43.2361 118.505 43.0815C118.565 42.9269 118.594 42.7618 118.59 42.596Z" fill="#E0E0E0"/>
<path d="M114.159 25.7584C114.315 25.3129 114.599 24.9236 114.976 24.6397C115.354 24.3559 115.806 24.1902 116.277 24.1637C116.749 24.1371 117.217 24.2509 117.624 24.4906C118.03 24.7304 118.357 25.0852 118.561 25.5104C118.766 25.9356 118.84 26.412 118.775 26.8793C118.709 27.3466 118.506 27.7839 118.191 28.1359C117.877 28.4879 117.465 28.7387 117.008 28.8567C116.551 28.9747 116.07 28.9546 115.624 28.7988C115.328 28.6954 115.056 28.5347 114.822 28.3259C114.588 28.1171 114.398 27.8643 114.262 27.582C114.126 27.2997 114.047 26.9933 114.029 26.6804C114.012 26.3675 114.056 26.0542 114.159 25.7584Z" fill="#E0E0E0"/>
<path d="M92.9682 54.9651L87.2651 50.1234C87.0388 49.934 86.7515 49.8334 86.4566 49.8402C86.1616 49.8469 85.8792 49.9607 85.6619 50.1602C85.4339 50.3707 85.2956 50.6609 85.2759 50.9705C85.2562 51.2802 85.3565 51.5856 85.556 51.8233L90.3838 57.6186C90.4703 57.7216 90.5776 57.8051 90.6987 57.8637C90.8198 57.9222 90.9518 57.9545 91.0863 57.9585C91.2207 57.9624 91.3545 57.9378 91.4787 57.8864C91.603 57.8349 91.715 57.7578 91.8073 57.66L93.0465 56.3287C93.1337 56.2353 93.2009 56.1253 93.2443 56.0053C93.2877 55.8852 93.3063 55.7576 93.299 55.6301C93.2917 55.5027 93.2586 55.378 93.2017 55.2637C93.1449 55.1494 93.0654 55.0478 92.9682 54.9651Z" fill="#F5F5F5"/>
<path d="M81.2665 48.6862C81.0923 48.364 81.0182 47.9972 81.0535 47.6327C81.0888 47.2681 81.2319 46.9224 81.4646 46.6396C81.6972 46.3567 82.0089 46.1496 82.3598 46.0447C82.7107 45.9398 83.0849 45.9419 83.4346 46.0506C83.7844 46.1593 84.0938 46.3698 84.3233 46.6551C84.5529 46.9405 84.6923 47.2878 84.7236 47.6527C84.7549 48.0176 84.6768 48.3835 84.4992 48.7038C84.3216 49.0241 84.0525 49.2842 83.7265 49.4509C83.2978 49.6701 82.8004 49.7128 82.3406 49.5699C81.8809 49.427 81.4953 49.1098 81.2665 48.6862Z" fill="#F5F5F5"/>
<path d="M88.1317 32.1986L96.8845 47.0508C97.2305 47.638 97.7795 48.0784 98.4278 48.2889C99.0762 48.4993 99.7791 48.4653 100.404 48.1932C101.061 47.9072 101.584 47.3796 101.863 46.7195C102.143 46.0593 102.158 45.3171 101.906 44.646L95.7743 28.3566C95.6644 28.0665 95.4942 27.803 95.275 27.5836C95.0557 27.3642 94.7924 27.1938 94.5024 27.0836C94.2125 26.9734 93.9024 26.9261 93.5928 26.9446C93.2832 26.9631 92.981 27.0471 92.7062 27.1911L88.9885 29.1443C88.7267 29.2835 88.4959 29.4744 88.3099 29.7054C88.124 29.9363 87.9868 30.2026 87.9067 30.4881C87.8266 30.7736 87.8053 31.0724 87.8439 31.3664C87.8826 31.6604 87.9805 31.9435 88.1317 32.1986Z" fill="#E0E0E0"/>
<path d="M108.867 54.7578C108.99 55.5796 108.868 56.4197 108.514 57.1718C108.16 57.9239 107.592 58.5542 106.88 58.983C106.168 59.4118 105.345 59.6198 104.514 59.5807C103.684 59.5416 102.884 59.2572 102.216 58.7634C101.547 58.2696 101.04 57.5886 100.759 56.8066C100.478 56.0246 100.434 55.1767 100.635 54.3702C100.835 53.5636 101.271 52.8347 101.886 52.2756C102.501 51.7164 103.267 51.3522 104.089 51.229C105.191 51.064 106.313 51.3429 107.208 52.0046C108.104 52.6663 108.701 53.6566 108.867 54.7578Z" fill="#E0E0E0"/>
<path d="M265.943 195.066C265.943 194.2 265.902 117.354 265.842 0.121728L265.943 0.223077L52.7563 0.241504L52.8761 0.121728C52.8761 71.1394 52.8761 137.919 52.8761 195.066L52.7748 194.96L265.961 195.066L52.7563 195.172H52.6504V195.066C52.6504 137.942 52.6504 71.144 52.6504 0.121728V0.00195312H52.7886H265.957H266.049V0.1033C265.984 117.354 265.943 194.2 265.943 195.066Z" fill="#263238"/>
<path d="M58.6765 8.28024C59.6509 8.28024 60.4409 7.4903 60.4409 6.51585C60.4409 5.54141 59.6509 4.75146 58.6765 4.75146C57.7021 4.75146 56.9121 5.54141 56.9121 6.51585C56.9121 7.4903 57.7021 8.28024 58.6765 8.28024Z" fill="white"/>
<path d="M64.7449 8.28024C65.7193 8.28024 66.5092 7.4903 66.5092 6.51585C66.5092 5.54141 65.7193 4.75146 64.7449 4.75146C63.7704 4.75146 62.9805 5.54141 62.9805 6.51585C62.9805 7.4903 63.7704 8.28024 64.7449 8.28024Z" fill="white"/>
<path d="M70.8093 8.28024C71.7837 8.28024 72.5737 7.4903 72.5737 6.51585C72.5737 5.54141 71.7837 4.75146 70.8093 4.75146C69.8349 4.75146 69.0449 5.54141 69.0449 6.51585C69.0449 7.4903 69.8349 8.28024 70.8093 8.28024Z" fill="white"/>
<path d="M184.307 43.2133C182.813 42.838 181.369 42.2891 180.004 41.5779C180.762 41.7219 181.501 41.9538 182.206 42.2689C182.941 42.5003 183.646 42.8173 184.307 43.2133Z" fill="#455A64"/>
<path d="M178.418 52.4914C177.957 52.4407 176.714 53.058 175.677 54.288L175.626 54.3433C174.894 55.1679 174.438 52.6342 174.392 51.6991C174.379 51.5538 174.334 51.4133 174.26 51.2878C174.186 51.1624 174.084 51.0552 173.963 50.9742C173.842 50.8933 173.704 50.8406 173.56 50.8202C173.416 50.7997 173.269 50.812 173.13 50.856L169.905 52.0906L168.983 52.0584C168.759 52.1183 168.566 52.2607 168.442 52.4572C168.318 52.6536 168.273 52.8896 168.316 53.1179L169.458 58.1347L169.398 59.4799L175.571 60.7605L175.903 57.4068C176.023 57.0245 176.179 56.573 176.364 56.0616C176.549 55.5996 176.813 55.1727 177.142 54.7994C177.503 54.3747 177.908 53.9888 178.349 53.6477L178.455 53.5878C178.527 53.5533 178.591 53.5047 178.644 53.445C178.723 53.3806 178.783 53.295 178.816 53.1981C178.849 53.1012 178.854 52.9969 178.831 52.8972C178.807 52.7976 178.756 52.7066 178.683 52.6348C178.61 52.563 178.518 52.5133 178.418 52.4914Z" fill="#FFBE9D"/>
<path d="M177.06 38.3486C177.06 38.3486 173.375 37.8879 167.847 33.4839C162.319 29.0798 159.311 22.8146 158.693 22.8883C158.076 22.962 155.238 21.967 151.134 33.6958C147.029 45.4246 149.291 47.8293 150.332 47.7141C151.373 47.599 158.163 44.9915 162.558 45.0791C166.953 45.1666 172.776 46.9218 172.776 46.9218L177.06 38.3486Z" fill="#F5C518"/>
<path d="M185.306 43.7476L184.293 46.203L183.832 47.304C183.533 48.0312 182.966 48.6158 182.249 48.9373C181.531 49.2587 180.718 49.2925 179.976 49.0315L171.983 47.0645L175.521 36.3538L183.638 39.7443C184.389 40.0554 184.987 40.6513 185.299 41.4016C185.612 42.1519 185.614 42.9954 185.306 43.7476Z" fill="#263238"/>
<path d="M182.152 47.3594L179.476 52.1044L178.255 51.7128L169.903 57.955L167.825 53.4403C167.825 53.4403 172.685 51.5977 173.644 49.9162C174.602 48.2347 173.593 47.8247 173.593 47.8247L175.942 45.3601L182.152 47.3594Z" fill="#263238"/>
<path d="M151.554 33.8755C149.38 40.219 148.744 45.7471 150.14 46.2262C151.536 46.7053 154.424 41.9466 156.59 35.6031C158.755 29.2596 159.4 23.7315 158.004 23.2523C156.608 22.7732 153.729 27.5505 151.554 33.8755Z" fill="#263238"/>
<path d="M186.288 47.0692L184.128 46.6085L185.197 44.0149L186.86 44.8441L186.288 47.0692Z" fill="#455A64"/>
<path d="M183.81 44.7197C183.782 44.7934 182.699 44.4847 181.386 44.0333C180.576 43.8031 179.793 43.4865 179.051 43.0889C179.88 43.2338 180.692 43.4638 181.474 43.7753C182.283 44.0076 183.066 44.3241 183.81 44.7197Z" fill="#455A64"/>
<path d="M183.127 46.3414C183.127 46.3783 182.869 46.3414 182.459 46.2585L181.74 46.0927C181.473 46.0236 181.192 45.913 180.893 45.8117C180.155 45.597 179.449 45.2873 178.792 44.8903C178.82 44.8166 179.796 45.1437 180.985 45.5629C181.28 45.6688 181.556 45.784 181.819 45.8669C182.081 45.9499 182.312 46.0143 182.505 46.0835C182.901 46.2032 183.127 46.3046 183.127 46.3414Z" fill="#455A64"/>
<path d="M157.033 31.9912C157.033 31.9912 153.711 30.3419 152.394 34.7552C151.076 39.1685 154.444 39.5278 154.444 39.5278C155.66 37.1511 156.531 34.6135 157.033 31.9912Z" fill="#FAFAFA"/>
<path d="M159.887 26.6289C159.895 26.9046 159.879 27.1804 159.841 27.4535C159.791 27.9787 159.721 28.7434 159.606 29.6878C159.519 30.1485 159.417 30.6644 159.316 31.2126C159.261 31.4844 159.206 31.77 159.15 32.0603C159.118 32.2077 159.09 32.3551 159.063 32.5209C159.035 32.6868 158.98 32.8204 158.938 32.9816L158.404 34.875C158.358 35.0408 158.307 35.2067 158.261 35.3725C158.215 35.5384 158.141 35.6996 158.086 35.8701L157.708 36.8743C157.584 37.2106 157.455 37.5469 157.331 37.8786C157.266 38.0444 157.215 38.2103 157.142 38.3669L156.921 38.8276L156.078 40.6104C156.013 40.7486 155.949 40.8914 155.875 41.025C155.801 41.1586 155.727 41.2922 155.649 41.4212L155.216 42.1721C154.935 42.6328 154.677 43.0934 154.438 43.5127C153.903 44.2958 153.456 44.9177 153.148 45.3554C152.998 45.5852 152.83 45.8024 152.646 46.0049C152.762 45.7565 152.901 45.5191 153.06 45.2955L154.276 43.4113L155.023 42.0615L155.442 41.3106L155.658 40.9191C155.732 40.7855 155.792 40.6426 155.856 40.4998C156.119 39.9332 156.395 39.3389 156.676 38.7262L156.893 38.2656C156.967 38.1089 157.017 37.9385 157.082 37.7772C157.206 37.4502 157.331 37.1139 157.455 36.7776L157.833 35.7825C157.888 35.6167 157.962 35.4554 158.008 35.2896C158.054 35.1238 158.105 34.9579 158.151 34.7967L158.699 32.9171C158.74 32.7697 158.791 32.6223 158.823 32.4564C158.855 32.2906 158.888 32.1616 158.915 31.9958C158.98 31.7102 159.035 31.4291 159.095 31.1573C159.21 30.6137 159.321 30.1116 159.417 29.6463C159.551 28.725 159.662 27.9695 159.735 27.4305C159.766 27.1598 159.817 26.8919 159.887 26.6289Z" fill="#263238"/>
<path d="M172.103 49.8379C171.935 49.9015 171.797 50.0259 171.717 50.1864C171.637 50.3468 171.62 50.5316 171.67 50.704C171.859 51.3996 172.172 52.4868 172.416 53.1548C172.484 53.3724 172.592 53.5754 172.734 53.7537C172.804 53.84 172.897 53.9051 173.002 53.9417C173.107 53.9783 173.22 53.985 173.328 53.961C173.438 53.9142 173.533 53.8385 173.604 53.742C173.675 53.6456 173.718 53.5318 173.729 53.4128C173.747 53.1701 173.719 52.9262 173.646 52.6941C173.489 52.0492 173.185 51.0772 172.955 50.2848C172.932 50.1969 172.891 50.1148 172.835 50.0433C172.779 49.9719 172.709 49.9128 172.629 49.8696C172.549 49.8264 172.461 49.8001 172.37 49.7923C172.28 49.7844 172.189 49.7953 172.103 49.8241V49.8379Z" fill="#FFBE9D"/>
<path d="M171.067 51.0447C170.898 51.1074 170.759 51.2314 170.678 51.392C170.597 51.5525 170.58 51.7378 170.629 51.9108C170.823 52.6064 171.136 53.6936 171.38 54.3569C171.445 54.5762 171.551 54.781 171.693 54.9604C171.763 55.0467 171.856 55.1118 171.961 55.1484C172.066 55.1851 172.179 55.1917 172.288 55.1677C172.399 55.1227 172.495 55.0475 172.566 54.9507C172.637 54.8538 172.679 54.7391 172.688 54.6195C172.71 54.3772 172.683 54.1329 172.61 53.9009C172.449 53.2559 172.149 52.2793 171.919 51.4869C171.896 51.3991 171.855 51.3169 171.799 51.2455C171.743 51.1741 171.673 51.1149 171.593 51.0717C171.513 51.0286 171.425 51.0022 171.335 50.9944C171.244 50.9866 171.153 50.9974 171.067 51.0263V51.0447Z" fill="#FFBE9D"/>
<path d="M170.106 51.7496C169.956 51.7993 169.831 51.9055 169.758 52.0457C169.685 52.1859 169.67 52.349 169.715 52.5005C169.89 53.0994 170.175 54.0484 170.397 54.6243C170.459 54.8123 170.556 54.9872 170.682 55.1402C170.747 55.2166 170.832 55.274 170.926 55.3064C171.021 55.3388 171.123 55.3451 171.221 55.3245C171.318 55.2882 171.403 55.2262 171.467 55.145C171.532 55.0637 171.572 54.9665 171.585 54.8638C171.599 54.6537 171.574 54.4428 171.511 54.2419C171.364 53.6799 171.101 52.8599 170.876 52.1504C170.824 51.9977 170.714 51.8714 170.57 51.799C170.426 51.7265 170.26 51.7138 170.106 51.7635V51.7496Z" fill="#FFBE9D"/>
<path d="M168.882 51.934C168.732 51.9838 168.607 52.0898 168.533 52.2297C168.459 52.3697 168.442 52.5328 168.486 52.6849C168.665 53.2884 168.946 54.242 169.177 54.8178C169.236 55.0104 169.333 55.189 169.462 55.343C169.524 55.4314 169.613 55.4976 169.716 55.532C169.818 55.5664 169.929 55.5672 170.031 55.5343C170.134 55.5014 170.224 55.4365 170.287 55.349C170.351 55.2616 170.384 55.1562 170.384 55.0482C170.399 54.8377 170.372 54.6264 170.305 54.4263C170.158 53.8596 169.895 53.012 169.67 52.321C169.645 52.2445 169.605 52.1737 169.552 52.1127C169.5 52.0517 169.436 52.0018 169.364 51.9658C169.292 51.9298 169.213 51.9085 169.133 51.903C169.053 51.8976 168.972 51.9081 168.896 51.934H168.882Z" fill="#FFBE9D"/>
<path d="M172.669 53.7765C172.415 53.4007 172.229 52.9826 172.121 52.5419C171.937 52.1274 171.832 51.6821 171.812 51.229C172.07 51.6032 172.256 52.0218 172.361 52.4636C172.547 52.8773 172.652 53.3231 172.669 53.7765Z" fill="#EB996E"/>
<path d="M171.56 54.7303C171.29 54.2922 171.094 53.8129 170.98 53.3114C170.784 52.8361 170.669 52.3318 170.639 51.8188C170.908 52.257 171.104 52.7363 171.219 53.2377C171.416 53.7124 171.532 54.2171 171.56 54.7303Z" fill="#EB996E"/>
<path d="M170.47 54.804C170.183 54.4422 169.979 54.0225 169.871 53.574C169.682 53.1529 169.593 52.6944 169.608 52.2334C169.834 52.6284 170.003 53.0533 170.11 53.4957C170.296 53.9111 170.417 54.3522 170.47 54.804Z" fill="#EB996E"/>
<path d="M208.882 38.0491C207.127 35.0823 203.957 33.1567 200.631 32.24C199.249 31.8576 198.282 31.9636 196.84 32.1248C195.403 32.2462 194.055 32.871 193.035 33.8892C191.783 35.0851 190.855 36.5778 190.335 38.2287C189.825 39.9248 189.474 41.6643 189.285 43.4252C189.098 45.1967 189.404 46.9853 190.169 48.5939L194.49 50.0405C196.932 50.5011 199.406 50.9618 201.861 50.7637C204.317 50.5656 206.85 49.6397 208.449 47.7371C210.688 45.102 210.637 41.0158 208.882 38.0491Z" fill="#263238"/>
<path d="M211.23 51.0449C211.264 50.535 211.181 50.024 210.987 49.5513C210.793 49.0785 210.493 48.6565 210.111 48.3177C209.718 47.9895 209.23 47.7948 208.72 47.7617C208.209 47.7285 207.7 47.8587 207.268 48.1334L206.444 48.8567C205.865 49.0253 205.353 49.3701 204.979 49.8432C204.605 50.3163 204.387 50.8941 204.357 51.4963C204.348 52.1 204.511 52.6937 204.828 53.2078C205.144 53.7218 205.601 54.1349 206.144 54.3986C206.694 54.6477 207.298 54.7514 207.899 54.6997C208.5 54.6481 209.077 54.4429 209.576 54.1038C210.068 53.7547 210.473 53.2973 210.759 52.767C211.046 52.2366 211.207 51.6474 211.23 51.0449Z" fill="#263238"/>
<path d="M209.883 53.9195C210.095 53.684 210.225 53.3869 210.256 53.0718C210.228 52.302 209.982 51.5559 209.547 50.9205C209.139 50.2611 208.609 49.6857 207.985 49.2252C207.524 48.8658 207.165 48.7092 207.183 48.6724C207.504 48.7546 207.806 48.8985 208.072 49.0962C208.747 49.5353 209.315 50.1191 209.735 50.8053C209.967 51.1818 210.151 51.5857 210.284 52.0076C210.408 52.354 210.452 52.7243 210.413 53.0902C210.381 53.3406 210.273 53.5753 210.104 53.7628C209.984 53.8918 209.892 53.9287 209.883 53.9195Z" fill="#455A64"/>
<path d="M207.541 54.9053C207.771 53.9343 207.855 52.9343 207.79 51.9386C207.652 50.9523 207.361 49.9935 206.929 49.0962C207.139 49.3108 207.304 49.5643 207.417 49.8425C208.058 51.1556 208.221 52.6512 207.878 54.0715C207.818 54.3678 207.704 54.6504 207.541 54.9053Z" fill="#455A64"/>
<path d="M193.03 59.3046C193.297 57.7521 193.891 54.4215 193.891 54.4307C193.891 54.4399 190.33 53.4771 190.04 48.6861C189.893 46.3044 190.386 42.4669 190.888 39.3389C191.348 36.5242 194.324 33.0507 197.798 33.5713L199.369 33.6266L204.929 36.8836C205.342 36.9664 205.708 37.2026 205.953 37.5446C206.198 37.8865 206.305 38.3088 206.251 38.7263L203.206 58.8532L194.587 75.7185L192.638 63.7409L193.03 59.3046Z" fill="#FFBE9D"/>
<path d="M192.493 42.7758C192.478 42.9329 192.524 43.09 192.622 43.2138C192.72 43.3376 192.862 43.4184 193.018 43.4392C193.095 43.453 193.173 43.4514 193.249 43.4344C193.325 43.4174 193.396 43.3854 193.459 43.3403C193.522 43.2952 193.576 43.2379 193.616 43.1718C193.657 43.1057 193.684 43.0322 193.696 42.9555C193.711 42.7978 193.666 42.6402 193.568 42.5156C193.47 42.3911 193.327 42.3093 193.17 42.2875C193.094 42.2737 193.015 42.2755 192.939 42.2927C192.863 42.31 192.791 42.3424 192.728 42.388C192.665 42.4335 192.612 42.4913 192.571 42.558C192.531 42.6246 192.504 42.6987 192.493 42.7758Z" fill="#263238"/>
<path d="M191.772 41.2508C191.841 41.3383 192.334 41.0435 192.984 41.1079C193.633 41.1724 194.08 41.5456 194.159 41.4719C194.237 41.3982 194.136 41.2876 193.942 41.1172C193.682 40.8965 193.36 40.7614 193.021 40.7302C192.682 40.6956 192.342 40.7699 192.049 40.9421C191.823 41.0757 191.74 41.2139 191.772 41.2508Z" fill="#263238"/>
<path d="M195.107 46.7651C194.774 46.6235 194.424 46.5245 194.066 46.4702C193.9 46.438 193.748 46.3919 193.73 46.2722C193.736 46.1059 193.792 45.9454 193.891 45.8115C194.084 45.4245 194.287 45.0145 194.503 44.5907C195.36 42.8539 196.001 41.4166 195.927 41.366C195.287 42.3487 194.726 43.3808 194.25 44.4525L193.656 45.6779C193.531 45.8683 193.477 46.0967 193.504 46.3228C193.523 46.3842 193.556 46.4406 193.6 46.4876C193.643 46.5347 193.697 46.5712 193.757 46.5946C193.846 46.6272 193.939 46.6488 194.034 46.6591C194.385 46.7407 194.746 46.7763 195.107 46.7651Z" fill="#263238"/>
<path d="M193.887 54.4307C196.107 54.6764 198.352 54.3017 200.373 53.3481C200.373 53.3481 198.374 56.4531 193.688 55.5548L193.887 54.4307Z" fill="#EB996E"/>
<path d="M192.283 38.9521C192.384 39.1133 192.849 39.0027 193.388 39.0488C193.927 39.0949 194.374 39.2423 194.494 39.0995C194.549 39.0304 194.494 38.8737 194.305 38.7125C194.052 38.5197 193.748 38.4059 193.431 38.3854C193.114 38.3649 192.798 38.4387 192.522 38.5973C192.343 38.7309 192.241 38.8784 192.283 38.9521Z" fill="#263238"/>
<path d="M199.943 43.2503C199.923 43.4077 199.843 43.5511 199.719 43.6501C199.595 43.7491 199.437 43.7957 199.279 43.7801C199.202 43.7754 199.126 43.7554 199.057 43.7213C198.987 43.6872 198.925 43.6396 198.874 43.5813C198.823 43.5231 198.784 43.4552 198.76 43.3818C198.735 43.3084 198.725 43.2308 198.731 43.1535C198.75 42.9957 198.83 42.8515 198.954 42.7523C199.078 42.6531 199.236 42.6069 199.394 42.6238C199.472 42.6284 199.547 42.6484 199.617 42.6825C199.686 42.7166 199.748 42.7642 199.799 42.8225C199.85 42.8808 199.889 42.9486 199.914 43.022C199.938 43.0955 199.948 43.173 199.943 43.2503Z" fill="#263238"/>
<path d="M200.392 41.7945C200.305 41.8636 199.895 41.4628 199.245 41.3753C198.596 41.2877 198.08 41.5503 198.02 41.4628C197.96 41.3753 198.084 41.2923 198.31 41.168C198.618 41.0109 198.967 40.953 199.31 41.0021C199.647 41.0475 199.961 41.1974 200.208 41.4305C200.383 41.6102 200.434 41.7622 200.392 41.7945Z" fill="#263238"/>
<path d="M200.297 39.5739C200.163 39.7029 199.735 39.491 199.2 39.4127C198.666 39.3343 198.191 39.3758 198.108 39.21C198.072 39.127 198.164 38.9888 198.38 38.8783C198.667 38.7414 198.99 38.6994 199.302 38.7585C199.617 38.8045 199.91 38.9478 200.14 39.1685C200.311 39.3482 200.357 39.5278 200.297 39.5739Z" fill="#263238"/>
<path d="M205.245 45.3232L204.323 46.0373C201.334 42.1538 195.773 32.7237 196.077 33.2812C197.758 32.9308 199.5 33.0052 201.145 33.4977C203.679 34.3407 208.419 36.3953 207.875 39.4542C207.332 42.5131 205.245 45.3232 205.245 45.3232Z" fill="#263238"/>
<path d="M207.191 48.3316C207.205 48.0815 207.233 47.8324 207.274 47.5853C207.346 46.9105 207.358 46.2306 207.31 45.5537C207.122 43.3158 206.392 41.1575 205.182 39.2655C203.952 37.3881 202.444 35.7089 200.709 34.2856C200.046 33.7328 199.497 33.3043 199.11 33.0095C198.907 32.8674 198.711 32.7136 198.525 32.5488C198.525 32.5488 198.59 32.5488 198.696 32.641C198.802 32.7331 198.963 32.8114 199.157 32.9496C199.557 33.2214 200.124 33.6314 200.801 34.175C202.587 35.5741 204.129 37.2583 205.366 39.1595C206.596 41.0785 207.318 43.279 207.462 45.5537C207.498 46.2404 207.463 46.929 207.357 47.6083C207.324 47.8479 207.269 48.0275 207.246 48.1565C207.237 48.2174 207.218 48.2765 207.191 48.3316Z" fill="#455A64"/>
<path d="M200.568 32.6545C200.63 32.6784 200.689 32.7093 200.743 32.7467C200.859 32.8112 201.02 32.9079 201.227 33.0415C201.637 33.3087 202.227 33.7095 202.922 34.2531C203.733 34.8916 204.507 35.576 205.24 36.3031C206.17 37.1659 206.991 38.139 207.686 39.2007C208.039 39.7626 208.313 40.3702 208.501 41.0066C208.672 41.6059 208.759 42.2261 208.759 42.8493C208.754 43.8873 208.599 44.9191 208.299 45.9128C208.045 46.7604 207.787 47.4238 207.603 47.8799C207.511 48.1056 207.432 48.2806 207.382 48.4004C207.356 48.4613 207.325 48.5199 207.29 48.5755C207.354 48.3174 207.439 48.0648 207.543 47.82C207.7 47.3593 207.935 46.6867 208.165 45.8437C208.445 44.8622 208.587 43.8468 208.589 42.8263C208.579 42.2277 208.491 41.6329 208.326 41.0573C208.14 40.4406 207.872 39.8518 207.529 39.3067C206.842 38.2623 206.038 37.2994 205.134 36.4367C204.401 35.7133 203.632 35.0276 202.83 34.3821C202.153 33.8293 201.577 33.41 201.181 33.1244C200.966 32.9829 200.761 32.8258 200.568 32.6545Z" fill="#455A64"/>
<path d="M205.313 45.4107C205.181 45.269 205.062 45.1147 204.959 44.9501L204.037 43.6325C203.286 42.5177 202.259 40.9652 201.14 39.2423C200.02 37.5194 199.011 35.9577 198.293 34.8152L197.45 33.4608C197.341 33.2983 197.245 33.1273 197.164 32.9495C197.298 33.0903 197.417 33.2447 197.519 33.4101L198.44 34.7277C199.191 35.8425 200.218 37.395 201.342 39.1179C202.466 40.8408 203.471 42.4071 204.189 43.545L205.032 44.904C205.143 45.0629 205.237 45.2327 205.313 45.4107Z" fill="#455A64"/>
<path d="M204.362 46.5671C204.399 46.217 204.888 45.4246 205.238 45.4062C206.159 45.3509 207.845 45.5859 207.629 47.9445C207.338 51.1692 204.169 50.2064 204.169 50.1143C204.169 50.0222 204.243 47.7787 204.362 46.5671Z" fill="#FFBE9D"/>
<path d="M205.054 48.9027C205.054 48.9027 205.105 48.9488 205.197 48.9995C205.261 49.0344 205.33 49.0565 205.402 49.0644C205.474 49.0723 205.547 49.0659 205.616 49.0455C205.837 48.9337 206.023 48.7649 206.156 48.5567C206.289 48.3485 206.363 48.1084 206.372 47.8616C206.403 47.5851 206.373 47.3052 206.284 47.0416C206.263 46.9395 206.217 46.8441 206.15 46.7638C206.084 46.6835 205.999 46.6207 205.902 46.5809C205.839 46.5595 205.77 46.5602 205.708 46.5828C205.645 46.6053 205.592 46.6485 205.557 46.7053C205.506 46.7928 205.52 46.8573 205.506 46.8619C205.492 46.8665 205.441 46.802 205.478 46.673C205.502 46.595 205.552 46.5281 205.621 46.4842C205.668 46.4542 205.72 46.4338 205.774 46.4243C205.829 46.4148 205.885 46.4164 205.939 46.4289C206.07 46.4659 206.189 46.5364 206.284 46.6333C206.379 46.7302 206.448 46.8503 206.483 46.9817C206.597 47.2744 206.635 47.5915 206.593 47.9031C206.515 48.5526 206.132 49.1284 205.672 49.2206C205.583 49.2385 205.491 49.2362 205.404 49.2138C205.316 49.1915 205.234 49.1497 205.165 49.0916C205.054 48.981 205.045 48.9073 205.054 48.9027Z" fill="#EB996E"/>
<path d="M211.924 165.79C211.86 166.297 210.611 180.462 210.611 180.462H204.12L202.982 165.85L211.924 165.79Z" fill="#FFBE9D"/>
<path d="M204.101 178.352C204.101 178.352 208.661 181.577 210.863 178.79L211.444 180.144L214.033 189.818C214.122 190.122 214.097 190.447 213.963 190.733C213.829 191.018 213.595 191.246 213.305 191.371C213.083 191.459 212.84 191.482 212.605 191.438C212.37 191.393 212.152 191.282 211.978 191.118C210.103 189.33 203.225 182.738 203.308 181.844L203.331 179.472C203.335 179.231 203.41 178.996 203.547 178.798C203.684 178.599 203.877 178.446 204.101 178.357V178.352Z" fill="#F5C518"/>
<path d="M213.076 191.431L203.31 181.015V181.531C203.298 181.744 203.334 181.957 203.413 182.156C203.493 182.354 203.615 182.532 203.77 182.678C204.563 183.742 206.751 186.129 211.943 191.113C212.091 191.256 212.273 191.36 212.472 191.415C212.67 191.471 212.879 191.476 213.081 191.431H213.076Z" fill="#263238"/>
<path d="M204.736 179.467C204.887 179.578 204.992 179.739 205.031 179.922C205.07 180.105 205.041 180.296 204.948 180.458C204.844 180.613 204.684 180.722 204.501 180.763C204.319 180.805 204.128 180.774 203.967 180.679C203.807 180.561 203.697 180.389 203.657 180.195C203.617 180.001 203.65 179.799 203.75 179.629C203.875 179.479 204.054 179.383 204.248 179.361C204.442 179.34 204.637 179.394 204.792 179.513" fill="white"/>
<path d="M210.264 186.096C210.556 185.712 210.919 185.387 211.333 185.138C211.773 184.963 212.241 184.87 212.715 184.862C212.715 184.834 212.572 184.737 212.286 184.701C211.909 184.658 211.528 184.727 211.19 184.899C210.848 185.064 210.562 185.327 210.37 185.654C210.25 185.903 210.232 186.087 210.264 186.096Z" fill="#263238"/>
<path d="M211.14 187.732C211.49 187.532 211.851 187.353 212.223 187.197C212.617 187.122 213.016 187.07 213.416 187.041C213.453 186.976 212.863 186.723 212.145 186.944C211.426 187.165 211.076 187.7 211.14 187.732Z" fill="#263238"/>
<path d="M208.635 184C209.149 183.654 209.688 183.347 210.247 183.079C210.84 182.889 211.447 182.746 212.062 182.651C212.062 182.582 211.168 182.416 210.146 182.83C209.519 183.028 208.983 183.443 208.635 184Z" fill="#263238"/>
<path d="M208.414 181.057C208.451 181.13 209.123 180.845 210.003 180.812C210.883 180.78 211.579 180.983 211.607 180.909C211.111 180.642 210.552 180.515 209.99 180.541C209.428 180.567 208.883 180.745 208.414 181.057Z" fill="#263238"/>
<path d="M210.504 180.785C210.513 180.628 210.49 180.471 210.435 180.324C210.314 179.916 210.113 179.536 209.845 179.205C209.671 178.943 209.415 178.747 209.118 178.647C209.017 178.623 208.911 178.631 208.815 178.669C208.718 178.706 208.636 178.773 208.579 178.859C208.48 179.036 208.449 179.242 208.491 179.44C208.594 179.841 208.836 180.194 209.172 180.436C209.509 180.679 209.92 180.796 210.334 180.766C210.739 180.732 211.126 180.578 211.444 180.323C211.762 180.069 211.998 179.726 212.121 179.338C212.152 179.24 212.16 179.137 212.147 179.035C212.133 178.933 212.098 178.835 212.043 178.749C211.983 178.663 211.895 178.6 211.795 178.571C211.694 178.542 211.587 178.547 211.49 178.587C211.206 178.708 210.959 178.9 210.771 179.145C210.495 179.467 210.277 179.835 210.126 180.232C210.059 180.376 210.023 180.533 210.02 180.693C210.247 180.181 210.548 179.706 210.914 179.283C211.086 179.08 211.304 178.922 211.55 178.822C211.603 178.802 211.662 178.799 211.717 178.815C211.771 178.831 211.82 178.864 211.854 178.91C211.887 178.969 211.907 179.035 211.912 179.102C211.916 179.17 211.906 179.238 211.882 179.301C211.759 179.629 211.546 179.916 211.267 180.127C210.988 180.338 210.655 180.466 210.306 180.495C209.958 180.515 209.613 180.417 209.328 180.216C209.042 180.015 208.833 179.724 208.735 179.389C208.702 179.253 208.718 179.109 208.781 178.984C208.811 178.934 208.855 178.896 208.908 178.873C208.961 178.851 209.02 178.846 209.076 178.859C209.325 178.946 209.542 179.107 209.698 179.32C210.051 179.757 210.324 180.253 210.504 180.785Z" fill="#263238"/>
<path d="M176.278 161.178L177.398 179.264L185.257 179.209L186.584 160.418L176.278 161.178Z" fill="#FFBE9D"/>
<path d="M177.258 177.081V177.606C177.258 177.606 168.385 181.13 168.274 182.798H185.872L185.623 176.943C184.321 177.565 182.899 177.9 181.456 177.924C180.012 177.947 178.58 177.66 177.258 177.081Z" fill="#F5C518"/>
<path d="M183.844 178.808C184.013 178.86 184.157 178.972 184.249 179.123C184.341 179.275 184.374 179.454 184.341 179.628C184.296 179.799 184.188 179.946 184.038 180.04C183.888 180.133 183.708 180.166 183.535 180.13C183.355 180.076 183.202 179.957 183.105 179.796C183.008 179.635 182.974 179.444 183.01 179.26C183.075 179.086 183.205 178.945 183.373 178.865C183.54 178.785 183.732 178.773 183.908 178.831" fill="white"/>
<path d="M185.896 182.798L185.836 181.393L168.993 181.927C168.993 181.927 168.21 182.268 168.298 182.816L185.896 182.798Z" fill="#263238"/>
<path d="M177.186 177.657C177.186 177.74 177.619 177.777 178.043 178.053C178.467 178.33 178.692 178.693 178.771 178.657C178.849 178.62 178.72 178.127 178.204 177.804C177.688 177.482 177.168 177.574 177.186 177.657Z" fill="#263238"/>
<path d="M175.346 178.421C175.346 178.504 175.696 178.647 175.991 179.011C176.285 179.375 176.368 179.757 176.451 179.757C176.534 179.757 176.594 179.264 176.221 178.836C175.848 178.408 175.346 178.339 175.346 178.421Z" fill="#263238"/>
<path d="M174.298 180.628C174.376 180.628 174.496 180.218 174.298 179.748C174.1 179.278 173.671 179.089 173.634 179.163C173.598 179.237 173.851 179.486 174.026 179.873C174.201 180.26 174.21 180.624 174.298 180.628Z" fill="#263238"/>
<path d="M186.591 105.206C186.356 105.884 177.037 137.454 177.037 137.454L175.434 174.92L187.033 175.588L191.179 138.182L201.775 114.784L197.118 95.7488H187.646L186.591 105.206Z" fill="#263238"/>
<path d="M194.846 95.7581C195.012 96.2188 200.959 117.64 200.959 117.64L201.783 149.583V176.012H212.356L217.281 117.728C217.281 117.728 218.151 107.132 216.663 103.571C215.175 100.01 209.15 93.7542 209.15 93.7542L194.846 95.7581Z" fill="#263238"/>
<path d="M195.695 97.9507C195.794 98.193 195.874 98.4425 195.935 98.697C196.087 99.2175 196.29 99.9086 196.529 100.742C197.064 102.507 197.773 104.888 198.561 107.482C199.348 110.076 199.98 112.549 200.348 114.295C200.542 115.18 200.666 115.899 200.74 116.396C200.792 116.653 200.821 116.913 200.827 117.175C200.749 116.926 200.689 116.672 200.648 116.415C200.546 115.922 200.394 115.208 200.187 114.337C199.777 112.582 199.114 110.191 198.344 107.551C197.575 104.911 196.847 102.53 196.382 100.788C196.147 99.9178 195.967 99.2129 195.857 98.72C195.781 98.4687 195.727 98.2113 195.695 97.9507Z" fill="#455A64"/>
<path d="M199.342 97.9508C199.08 98.0349 198.849 98.1953 198.678 98.4115C198.596 98.5281 198.545 98.6635 198.529 98.8051C198.513 98.9468 198.532 99.0902 198.586 99.2223C198.65 99.3817 198.757 99.5201 198.896 99.6219C199.034 99.7236 199.198 99.7847 199.369 99.7981C199.541 99.8006 199.711 99.7549 199.858 99.6661C200.005 99.5774 200.125 99.4492 200.203 99.296C200.27 99.1706 200.306 99.0306 200.306 98.8883C200.306 98.746 200.27 98.6059 200.203 98.4806C200.056 98.2443 199.841 98.0581 199.586 97.9462C199.586 97.9462 199.678 97.9232 199.83 97.9738C200.045 98.0531 200.226 98.2024 200.346 98.3977C200.444 98.543 200.501 98.7113 200.513 98.8859C200.526 99.0606 200.492 99.2353 200.415 99.3927C200.326 99.5924 200.179 99.7606 199.993 99.8754C199.807 99.9903 199.591 100.046 199.372 100.036C199.154 100.026 198.944 99.9509 198.769 99.8197C198.594 99.6884 198.463 99.5075 198.393 99.3006C198.332 99.1363 198.315 98.9592 198.343 98.7864C198.372 98.6136 198.444 98.4511 198.554 98.3147C198.693 98.1315 198.889 98.0001 199.111 97.9416C199.25 97.9186 199.342 97.937 199.342 97.9508Z" fill="#455A64"/>
<path d="M208.73 113.337C208.736 113.391 208.736 113.445 208.73 113.499C208.73 113.618 208.73 113.77 208.73 113.959C208.73 114.392 208.73 115 208.73 115.774C208.73 117.354 208.73 119.635 208.679 122.454C208.596 128.093 208.343 135.874 208.011 144.47C207.679 153.066 207.403 160.851 207.274 166.486C207.209 169.305 207.168 171.585 207.145 173.161C207.145 173.935 207.145 174.543 207.117 174.976C207.117 175.169 207.117 175.323 207.117 175.436C207.138 175.44 207.156 175.451 207.169 175.467C207.182 175.484 207.188 175.504 207.186 175.525C207.184 175.546 207.175 175.565 207.16 175.579C207.144 175.593 207.124 175.601 207.103 175.601C207.083 175.601 207.063 175.593 207.047 175.579C207.032 175.565 207.023 175.546 207.021 175.525C207.019 175.504 207.025 175.484 207.038 175.467C207.051 175.451 207.069 175.44 207.09 175.436C207.09 175.317 207.09 175.16 207.09 174.976C207.09 174.543 207.09 173.935 207.09 173.161C207.09 171.581 207.09 169.3 207.14 166.481C207.228 160.842 207.477 153.057 207.808 144.461C208.14 135.864 208.416 128.084 208.545 122.45C208.61 119.63 208.656 117.35 208.674 115.774C208.674 115 208.697 114.392 208.702 113.959C208.702 113.761 208.702 113.609 208.702 113.499C208.704 113.444 208.713 113.39 208.73 113.337Z" fill="#455A64"/>
<path d="M192.414 109.491C192.402 109.546 192.385 109.6 192.364 109.652L192.184 110.113C192.013 110.541 191.774 111.149 191.47 111.928C190.839 113.512 189.931 115.784 188.807 118.584C187.683 121.385 186.402 124.767 185.177 128.572C183.777 132.674 182.797 136.908 182.252 141.208C182.008 143.512 181.902 145.76 181.763 147.929C181.625 150.099 181.533 152.2 181.422 154.199C181.215 158.193 181.031 161.791 180.874 164.822C180.718 167.854 180.552 170.291 180.414 171.977C180.345 172.811 180.294 173.46 180.257 173.921C180.234 174.133 180.22 174.299 180.206 174.423C180.202 174.482 180.195 174.54 180.183 174.598C180.177 174.54 180.177 174.481 180.183 174.423C180.183 174.299 180.183 174.128 180.206 173.916C180.234 173.455 180.271 172.806 180.321 171.972C180.418 170.281 180.547 167.826 180.69 164.813C180.833 161.8 181.003 158.184 181.188 154.19C181.294 152.191 181.399 150.09 181.515 147.916C181.63 145.741 181.754 143.489 181.998 141.185C182.554 136.872 183.55 132.627 184.97 128.517C186.209 124.707 187.531 121.349 188.655 118.538C189.779 115.728 190.737 113.471 191.387 111.909C191.709 111.135 191.963 110.527 192.142 110.108L192.345 109.647C192.362 109.593 192.386 109.54 192.414 109.491Z" fill="#455A64"/>
<path d="M208.362 58.0471C208.362 58.0471 214.65 59.2218 216.032 60.3735C217.414 61.5252 230.009 77.9529 230.272 81.2698C230.534 84.5866 229 85.8028 228.13 86.5906C227.259 87.3783 212.204 97.5731 212.204 97.5731L207.574 89.8936L220.584 82.122L214.305 71.3837L208.362 58.0471Z" fill="#F5C518"/>
<path d="M224.79 79.2013C223.91 79.3338 223.062 79.6274 222.288 80.0674C221.557 80.5729 220.924 81.2066 220.418 81.9377C220.476 81.672 220.595 81.4231 220.763 81.2098C221.131 80.6682 221.608 80.2093 222.163 79.8626C222.718 79.5159 223.34 79.2891 223.988 79.1967C224.252 79.1364 224.527 79.1379 224.79 79.2013Z" fill="#F5C518"/>
<path d="M193.122 58.8441L194.79 73.9727L203.299 56.9277L208.785 62.5019C208.785 62.5019 212.153 82.4261 212.203 82.5689C212.254 82.7117 209.9 93.966 209.9 93.966L194.306 96.9834L189.547 95.7719L188.797 78.0497L188.465 64.4782L193.122 58.8441Z" fill="white"/>
<path d="M191.099 59.4889L187.049 60.4103C186.508 60.5353 186.005 60.7898 185.584 61.152C182.129 64.1095 174.657 70.3655 174.657 70.3655L176.039 59.2632L168.843 58.5952C168.843 58.5952 166.687 72.5905 166.908 76.2713C167.171 80.5464 171.004 81.5967 176.583 79.298C180.031 77.9144 183.368 76.2696 186.566 74.3779L191.099 59.4889Z" fill="#F5C518"/>
<path d="M213.682 71.4436L212.94 84.711L213.686 87.2908C213.686 87.2908 220.67 100.475 221.822 109.205L213.18 110.587C213.18 110.587 210.821 99.3236 209.163 93.7402C207.504 88.1569 202.598 85.8074 200.939 80.0674C199.941 76.7881 199.586 73.3467 199.894 69.9326C199.894 69.5824 203.298 56.9231 203.298 56.9231L203.906 54.2788L206.965 57.1857L214.82 59.7977L213.682 71.4436Z" fill="#F5C518"/>
<g opacity="0.3">
<path d="M217.799 96.1173C216.371 97.2211 214.877 98.238 213.326 99.1623C213.234 99.2084 213.114 99.2591 212.981 99.3097C212.669 99.4242 212.327 99.423 212.017 99.3063C211.707 99.1896 211.449 98.9652 211.29 98.674C211.106 98.3377 210.917 97.983 210.792 97.7158C210.474 97.0294 210.129 96.2048 209.82 95.4908L210.792 95.2558L212.202 97.5914L216.265 94.8274L217.039 94.2976L217.799 96.1173Z" fill="black"/>
</g>
<path d="M193.195 57.3516L191.306 59.3279L186.778 60.9172C186.778 60.9172 185.672 74.2768 186.271 77.1237C186.851 79.8602 187.957 83.1862 188.049 87.1158C188.141 91.0453 183.654 111.813 183.654 111.813L189.081 113.872C189.081 113.872 191.845 89.8292 191.306 84.5867C190.767 79.3442 192.168 68.7763 192.168 68.7763L193.195 57.3516Z" fill="#F5C518"/>
<path d="M203.47 82.8315C203.397 82.7659 203.331 82.6934 203.272 82.615C203.096 82.3921 202.942 82.153 202.811 81.901C202.358 80.9572 202.118 79.9257 202.106 78.879C202.089 77.3372 202.197 75.7965 202.429 74.2722C202.681 72.4048 203.064 70.5575 203.576 68.7441C204.445 65.6262 205.682 62.623 207.261 59.7978L207.335 59.9314L205.414 59.8715H205.276L205.359 59.7609L206.621 58.0656L206.962 57.605C206.998 57.5518 207.042 57.5038 207.091 57.4622C207.066 57.5214 207.033 57.5771 206.994 57.628L206.681 58.0887L205.474 59.8254L205.419 59.7149L207.34 59.7379H207.487L207.413 59.8669C205.879 62.6978 204.665 65.6906 203.792 68.7902C203.286 70.5916 202.898 72.4245 202.631 74.2768C202.397 75.7859 202.273 77.3103 202.263 78.8375C202.261 79.8644 202.472 80.8806 202.88 81.8227C203.058 82.1695 203.255 82.5063 203.47 82.8315Z" fill="#263238"/>
<path d="M208.785 70.582C208.066 70.8237 207.317 70.9663 206.56 71.0059C205.811 71.1196 205.049 71.1289 204.298 71.0335C205.037 70.8927 205.785 70.8034 206.537 70.7663C207.281 70.6493 208.032 70.5877 208.785 70.582Z" fill="#263238"/>
<path d="M214.295 67.5046C214.283 67.7312 214.251 67.9563 214.199 68.1772C214.139 68.6103 214.061 69.2368 213.987 70.0199C213.839 71.577 213.692 73.7284 213.526 76.1054L213.158 82.2002C213.102 82.9787 213.056 83.6099 213.015 84.0429C213.007 84.2696 212.976 84.495 212.923 84.7155C212.905 84.4901 212.905 84.2637 212.923 84.0383C212.923 83.5546 212.959 82.9327 212.987 82.1956C213.047 80.6339 213.144 78.4779 213.287 76.0962C213.429 73.7145 213.609 71.5632 213.803 70.0061C213.895 69.2322 214.001 68.6241 214.088 68.1634C214.136 67.9376 214.205 67.717 214.295 67.5046Z" fill="#263238"/>
<path d="M224.356 82.5643C224.333 82.6334 223.485 82.3616 222.398 82.2833C221.311 82.2049 220.436 82.3432 220.422 82.2833C221.059 82.0469 221.743 81.9694 222.417 82.0575C223.094 82.068 223.76 82.2419 224.356 82.5643Z" fill="#263238"/>
<path d="M174.703 70.1077C174.565 70.7053 174.352 71.2828 174.067 71.826C173.855 72.4016 173.569 72.9468 173.215 73.4476C173.35 72.8491 173.563 72.2713 173.851 71.7292C174.065 71.1548 174.351 70.6099 174.703 70.1077Z" fill="#263238"/>
<path d="M185.998 65.6804C186.062 65.6804 186.168 68.2878 186.228 71.508C186.288 74.7281 186.288 77.3401 186.228 77.3401C186.168 77.3401 186.058 74.7327 185.993 71.5126C185.929 68.2924 185.934 65.685 185.998 65.6804Z" fill="#263238"/>
<path d="M191.379 76.6353C191.338 76.4135 191.318 76.1883 191.319 75.9627C191.319 75.502 191.283 74.8663 191.255 74.12C191.209 72.5675 191.158 70.4346 191.121 68.0575C191.085 65.6804 191.066 63.5429 191.061 61.9904C191.061 61.2487 191.061 60.6314 191.061 60.1477C191.052 59.9228 191.065 59.6976 191.098 59.4751C191.14 59.6968 191.16 59.9221 191.158 60.1477C191.158 60.6084 191.195 61.2441 191.223 61.9904C191.269 63.5429 191.315 65.6758 191.352 68.0529C191.389 70.43 191.412 72.5629 191.416 74.1154C191.416 74.857 191.416 75.4974 191.416 75.9581C191.423 76.1844 191.41 76.4109 191.379 76.6353Z" fill="#263238"/>
<path d="M225.474 88.4977C225.397 88.5691 225.313 88.6339 225.225 88.6911L224.488 89.2209L221.724 91.1604L212.271 97.6881L212.169 97.7618L212.105 97.6559L210.032 94.2193L207.48 89.9718L207.42 89.8705L207.517 89.8106L216.85 84.2825L219.586 82.6886L220.323 82.2693C220.407 82.2173 220.495 82.1726 220.586 82.1357C220.511 82.2007 220.429 82.2578 220.342 82.3062L219.628 82.7669L216.928 84.4161L207.632 90.0133L207.673 89.8521C208.479 91.1926 209.346 92.6161 210.235 94.0949L212.303 97.5315L212.133 97.4947C215.919 94.9241 219.241 92.6668 221.632 91.0452L224.442 89.1656L225.202 88.6681C225.288 88.6045 225.379 88.5475 225.474 88.4977Z" fill="#263238"/>
<g opacity="0.3">
<path d="M202.841 81.8456C202.7 79.8642 202.888 77.8732 203.398 75.9535C204.589 70.5681 206.546 65.3817 209.212 60.5531C208.902 60.3824 208.547 60.312 208.195 60.3516C207.844 60.3912 207.513 60.5389 207.249 60.7743C206.732 61.2585 206.332 61.854 206.079 62.5156C204.046 66.8586 202.761 71.514 202.279 76.2852C202.16 77.2017 202.137 78.128 202.21 79.0493C202.302 80.0167 202.302 81.0302 202.901 81.7903" fill="black"/>
</g>
<g opacity="0.3">
<path d="M185.989 66.6479C184.557 69.1356 184.746 72.13 186.114 74.6545C186.114 71.8904 186.114 69.4719 185.948 66.6848" fill="black"/>
</g>
<path d="M197.126 48.1932C197.114 48.1113 197.084 48.0331 197.039 47.9639C196.994 47.8947 196.934 47.8362 196.864 47.7924C196.767 47.7537 196.663 47.738 196.56 47.7463C195.96 47.7569 195.365 47.842 194.786 47.9997L194.754 48.0918C194.782 48.35 194.836 48.6047 194.915 48.8519C194.993 49.1011 195.14 49.3231 195.339 49.4923C195.533 49.6355 195.768 49.7129 196.009 49.7129C196.251 49.7129 196.485 49.6355 196.68 49.4923C196.869 49.3398 197.011 49.137 197.09 48.9072C197.169 48.6773 197.182 48.4298 197.126 48.1932Z" fill="#EB996E"/>
<path d="M195.348 49.6028C195.598 49.625 195.85 49.6095 196.095 49.5568C196.349 49.4792 196.568 49.3165 196.716 49.0961C196.805 48.9669 196.865 48.8207 196.894 48.6668C196.922 48.5129 196.918 48.3547 196.882 48.2024C196.855 48.0587 196.772 47.9314 196.652 47.8477C196.517 47.8034 196.372 47.8034 196.237 47.8477L195.408 48.0043C195.153 48.0724 194.889 48.1019 194.625 48.0918C194.859 47.97 195.111 47.8845 195.371 47.8385L196.191 47.6312C196.374 47.565 196.575 47.565 196.758 47.6312C196.849 47.6858 196.927 47.7586 196.988 47.845C197.049 47.9314 197.091 48.0296 197.113 48.1333C197.158 48.3186 197.162 48.5116 197.125 48.6986C197.087 48.8857 197.009 49.0623 196.896 49.2159C196.707 49.4562 196.437 49.6198 196.136 49.6766C196.007 49.7235 195.87 49.7413 195.734 49.7286C195.598 49.7158 195.466 49.6729 195.348 49.6028Z" fill="#263238"/>
<path d="M205.399 50.0636C205.333 49.8926 205.212 49.7484 205.055 49.6541C204.898 49.5597 204.714 49.5206 204.532 49.543C204.43 49.5547 204.33 49.5888 204.242 49.643C204.154 49.6971 204.078 49.7699 204.021 49.8563C203.93 50.0065 203.89 50.1818 203.906 50.3566C203.921 50.5315 203.993 50.6967 204.109 50.8283C204.231 50.9541 204.39 51.0362 204.564 51.062C204.737 51.0878 204.914 51.0559 205.067 50.9711C205.216 50.8793 205.33 50.7397 205.391 50.575C205.451 50.4103 205.454 50.2301 205.399 50.0636Z" fill="#FAFAFA"/>
<path d="M207.781 90.3679L202.451 85.646L197.95 86.033C197.95 86.033 198.107 86.77 198.729 86.8852C199.351 87.0004 201.599 87.0418 201.599 87.0418L202.654 88.0876L199.968 87.8204L196.554 89.8335C196.554 89.8335 196.476 90.4554 197.37 90.2942C198.257 90.0783 199.126 89.7934 199.968 89.442L201.954 89.5571L199.788 89.8704L196.983 91.8467C197.169 92.0406 197.405 92.1797 197.665 92.2487C197.925 92.3177 198.199 92.3141 198.457 92.2383C199.351 91.9665 200.433 91.538 200.433 91.538L202.88 91.3031L200.433 91.925L198.614 94.1777C198.786 94.2978 198.991 94.3622 199.201 94.3622C199.411 94.3622 199.616 94.2978 199.788 94.1777C200.148 93.9249 200.494 93.6527 200.825 93.3623L203.538 93.2425C203.538 93.2425 206.537 95.4169 207.578 95.6519C208.62 95.8868 210.803 95.2511 210.803 95.2511L207.781 90.3679Z" fill="#FFBE9D"/>
<path d="M313.429 112.587H230.835V158.77H313.429V112.587Z" fill="#FAFAFA"/>
<path d="M313.431 158.769C313.431 158.769 313.431 158.484 313.431 157.94C313.431 157.397 313.431 156.586 313.431 155.531C313.431 153.412 313.431 150.298 313.431 146.294C313.431 138.302 313.403 126.766 313.38 112.587L313.472 112.679L230.882 112.706L231.002 112.587C231.002 128.918 231.002 144.539 231.002 158.769L230.892 158.659L290.319 158.714L307.364 158.742H311.915H313.09H313.491H313.104H311.938H307.414L290.369 158.774L230.892 158.829H230.776V158.714C230.776 144.484 230.776 128.862 230.776 112.531V112.412H230.901L313.491 112.439H313.583V112.531C313.583 126.734 313.546 138.288 313.532 146.299C313.532 150.288 313.532 153.398 313.532 155.512C313.532 156.563 313.532 157.355 313.532 157.908C313.532 158.461 313.431 158.769 313.431 158.769Z" fill="#263238"/>
<path d="M252.606 123.592H240.928V135.27H252.606V123.592Z" fill="#455A64"/>
<path d="M268.641 125.214C268.641 125.283 265.914 125.338 262.556 125.338C259.198 125.338 256.466 125.283 256.466 125.214C256.466 125.145 259.193 125.094 262.556 125.094C265.919 125.094 268.641 125.168 268.641 125.214Z" fill="#F5C518"/>
<path d="M307.518 129.434C307.518 129.498 296.084 129.554 281.988 129.554C267.891 129.554 256.457 129.498 256.457 129.434C256.457 129.369 267.886 129.314 281.988 129.314C296.089 129.314 307.518 129.36 307.518 129.434Z" fill="#263238"/>
<path d="M290.35 134.142C290.35 134.206 282.836 134.262 273.577 134.262C264.317 134.262 256.799 134.206 256.799 134.142C256.799 134.077 264.308 134.022 273.577 134.022C282.845 134.022 290.35 134.077 290.35 134.142Z" fill="#263238"/>
<path d="M301.199 141.826H244.78C241.791 141.826 239.367 144.249 239.367 147.239C239.367 150.228 241.791 152.652 244.78 152.652H301.199C304.188 152.652 306.612 150.228 306.612 147.239C306.612 144.249 304.188 141.826 301.199 141.826Z" fill="#F5C518"/>
<path d="M262.624 147.994H261.242L260.979 148.635H260.27L261.601 145.654H262.283L263.614 148.635H262.891L262.624 147.994ZM262.407 147.474L261.946 146.331L261.486 147.474H262.407Z" fill="white"/>
<path d="M266.521 146.737C266.521 147.4 266.023 147.815 265.226 147.815H264.628V148.635H263.937V145.654H265.226C266.01 145.654 266.521 146.064 266.521 146.737ZM265.825 146.737C265.825 146.41 265.609 146.216 265.19 146.216H264.628V147.253H265.19C265.6 147.253 265.811 147.059 265.811 146.737H265.825Z" fill="white"/>
<path d="M269.582 146.737C269.582 147.4 269.085 147.815 268.288 147.815H267.689V148.635H266.979V145.654H268.269C269.085 145.654 269.582 146.064 269.582 146.737ZM268.882 146.737C268.882 146.41 268.67 146.216 268.251 146.216H267.689V147.253H268.251C268.67 147.253 268.882 147.059 268.882 146.737Z" fill="white"/>
<path d="M270.071 145.654H270.758V148.073H272.255V148.635H270.071V145.654Z" fill="white"/>
<path d="M273.77 147.58V148.635H273.079V147.57L271.928 145.654H272.66L273.457 146.976L274.254 145.654H274.931L273.77 147.58Z" fill="white"/>
<path d="M279.159 145.654V148.635H278.592L277.113 146.824V148.635H276.432V145.654H277.003L278.495 147.465V145.654H279.159Z" fill="white"/>
<path d="M279.68 147.142C279.662 146.815 279.742 146.491 279.91 146.21C280.078 145.929 280.327 145.705 280.623 145.567C280.92 145.429 281.251 145.383 281.575 145.436C281.898 145.488 282.198 145.636 282.436 145.861C282.674 146.085 282.839 146.376 282.91 146.695C282.981 147.015 282.954 147.348 282.833 147.653C282.713 147.957 282.504 148.218 282.233 148.402C281.963 148.586 281.643 148.685 281.316 148.685C281.105 148.698 280.895 148.667 280.697 148.595C280.499 148.524 280.318 148.412 280.164 148.267C280.011 148.123 279.889 147.948 279.806 147.755C279.723 147.561 279.68 147.353 279.68 147.142ZM282.246 147.142C282.239 146.962 282.179 146.787 282.073 146.641C281.968 146.494 281.822 146.382 281.653 146.318C281.484 146.253 281.3 146.24 281.124 146.28C280.947 146.32 280.787 146.41 280.662 146.54C280.536 146.671 280.452 146.835 280.42 147.012C280.387 147.19 280.407 147.373 280.478 147.54C280.549 147.706 280.666 147.848 280.817 147.947C280.968 148.047 281.144 148.1 281.325 148.1C281.449 148.1 281.572 148.075 281.686 148.027C281.801 147.978 281.904 147.907 281.99 147.818C282.076 147.728 282.143 147.622 282.187 147.506C282.231 147.39 282.251 147.266 282.246 147.142Z" fill="white"/>
<path d="M287.876 145.654L286.899 148.635H286.158L285.504 146.617L284.826 148.635H284.089L283.104 145.654H283.818L284.495 147.75L285.195 145.654H285.835L286.517 147.764L287.208 145.654H287.876Z" fill="white"/>
<path d="M76.3257 80.4961H15.1895V114.678H76.3257V80.4961Z" fill="#FAFAFA"/>
<path d="M76.3278 114.683C76.3278 114.683 76.3278 114.471 76.3278 114.066C76.3278 113.66 76.3278 113.061 76.3278 112.278C76.3278 110.707 76.3278 108.404 76.3048 105.442C76.3048 99.522 76.2726 90.9903 76.2541 80.4961L76.3463 80.5882L15.2147 80.6159L15.3344 80.4961C15.3344 92.5842 15.3344 104.147 15.3344 114.683L15.2239 114.572L59.1815 114.623L71.8178 114.655H75.19H76.0606H76.3601H76.0745H75.213H71.8685L59.2598 114.683L15.2239 114.738H15.0811V114.628C15.0811 104.092 15.0811 92.5151 15.0811 80.4408V80.321H15.2054L76.3371 80.3533H76.4292V80.4408C76.4292 90.958 76.3923 99.5128 76.3785 105.442C76.3785 108.395 76.3785 110.693 76.3555 112.26C76.3555 113.034 76.3555 113.642 76.3555 114.029C76.3555 114.416 76.3278 114.683 76.3278 114.683Z" fill="#263238"/>
<path d="M31.3063 88.6455H22.6641V97.2878H31.3063V88.6455Z" fill="#455A64"/>
<path d="M43.1798 89.8618C41.6811 89.9804 40.1772 90.0204 38.6744 89.9815C37.1715 90.0204 35.6676 89.9804 34.1689 89.8618C35.6675 89.7404 37.1715 89.7004 38.6744 89.742C40.1772 89.7004 41.6812 89.7404 43.1798 89.8618Z" fill="#F5C518"/>
<path d="M71.9609 92.9667C71.9609 93.0358 63.5029 93.0865 53.0732 93.0865C42.6435 93.0865 34.1855 93.0358 34.1855 92.9667C34.1855 92.8976 42.6435 92.8469 53.0732 92.8469C63.5029 92.8469 71.9609 92.9022 71.9609 92.9667Z" fill="#263238"/>
<path d="M59.2445 96.454C59.2445 96.5185 53.6887 96.5738 46.8293 96.5738C39.9698 96.5738 34.4141 96.5185 34.4141 96.454C34.4141 96.3895 39.9698 96.3342 46.8523 96.3342C53.7348 96.3342 59.2445 96.3849 59.2445 96.454Z" fill="#263238"/>
<path d="M67.2752 102.139H25.5196C23.3061 102.139 21.5117 103.932 21.5117 106.144C21.5117 108.356 23.3061 110.15 25.5196 110.15H67.2752C69.4887 110.15 71.2831 108.356 71.2831 106.144C71.2831 103.932 69.4887 102.139 67.2752 102.139Z" fill="#F5C518"/>
<path d="M38.7245 106.709H37.6972L37.4991 107.169H36.9785L37.9598 104.958H38.4849L39.4754 107.169H38.9364L38.7245 106.709ZM38.5632 106.322L38.2131 105.474L37.863 106.322H38.5632Z" fill="white"/>
<path d="M41.5961 105.773C41.5961 106.266 41.2276 106.57 40.6379 106.57H40.1772V107.183H39.6797V104.972H40.6379C41.246 104.972 41.5961 105.276 41.5961 105.773ZM41.0801 105.773C41.0801 105.529 40.9189 105.387 40.6195 105.387H40.2003V106.156H40.6195C40.9189 106.156 41.0801 106.013 41.0801 105.773Z" fill="white"/>
<path d="M43.8736 105.773C43.8736 106.266 43.505 106.57 42.9154 106.57H42.4547V107.183H41.9434V104.972H42.897C43.505 104.972 43.8736 105.276 43.8736 105.773ZM43.3576 105.773C43.3576 105.529 43.201 105.387 42.897 105.387H42.4823V106.156H42.897C43.201 106.156 43.3576 106.013 43.3576 105.773Z" fill="white"/>
<path d="M44.2373 104.972H44.7487V106.787H45.8543V107.206H44.2373V104.972Z" fill="white"/>
<path d="M46.974 106.4V107.183H46.4626V106.391L45.6104 104.972H46.1493L46.7436 105.953L47.3333 104.972H47.8354L46.974 106.4Z" fill="white"/>
<path d="M50.9667 104.972V107.183H50.5475L49.4465 105.838V107.183H48.9443V104.972H49.3636L50.4646 106.326V104.986L50.9667 104.972Z" fill="white"/>
<path d="M51.3523 106.077C51.3394 105.836 51.3991 105.597 51.5236 105.39C51.6482 105.183 51.8319 105.019 52.051 104.917C52.2701 104.816 52.5145 104.783 52.7527 104.822C52.9909 104.861 53.212 104.97 53.3873 105.136C53.5626 105.302 53.6841 105.517 53.7361 105.753C53.7882 105.988 53.7684 106.234 53.6792 106.459C53.5901 106.683 53.4357 106.875 53.2361 107.011C53.0364 107.147 52.8007 107.22 52.5593 107.22C52.4039 107.229 52.2484 107.206 52.1022 107.152C51.9561 107.099 51.8224 107.016 51.7094 106.909C51.5964 106.802 51.5064 106.673 51.445 106.53C51.3836 106.387 51.3521 106.233 51.3523 106.077ZM53.2503 106.077C53.2476 105.941 53.2047 105.809 53.1272 105.697C53.0496 105.586 52.9408 105.499 52.8143 105.449C52.6878 105.399 52.5493 105.387 52.4162 105.415C52.2831 105.443 52.1612 105.51 52.066 105.607C51.9707 105.705 51.9063 105.828 51.8807 105.961C51.8552 106.095 51.8696 106.233 51.9223 106.359C51.975 106.484 52.0635 106.591 52.1769 106.667C52.2902 106.742 52.4232 106.782 52.5593 106.782C52.6517 106.784 52.7436 106.767 52.8293 106.732C52.9149 106.697 52.9925 106.645 53.0572 106.579C53.122 106.513 53.1725 106.435 53.2057 106.348C53.2389 106.262 53.2541 106.17 53.2503 106.077Z" fill="white"/>
<path d="M57.4149 104.972L56.6917 107.183H56.1435L55.6552 105.686L55.153 107.183H54.6048L53.877 104.972H54.4067L54.9043 106.524L55.4248 104.972H55.8855L56.3922 106.538L56.9082 104.972H57.4149Z" fill="white"/>
<path d="M298.82 20.7788H231.746V58.2824H298.82V20.7788Z" fill="#FAFAFA"/>
<path d="M298.824 58.2824C298.824 58.2824 298.824 58.0521 298.824 57.6052C298.824 57.1584 298.824 56.5042 298.824 55.6473C298.824 53.9244 298.824 51.3953 298.801 48.1476C298.801 41.6566 298.773 32.2911 298.754 20.7788L298.847 20.871L231.777 20.8986L231.897 20.7788C231.897 34.0417 231.897 46.7241 231.897 58.2824L231.786 58.1718L280.019 58.2225L293.881 58.2548H297.566H298.52H297.598H293.913L280.092 58.287L231.749 58.416H231.639V58.3054C231.639 46.7471 231.639 34.0647 231.639 20.8019V20.6406H231.763L298.833 20.6683H298.925V20.7604C298.902 32.2773 298.888 41.6797 298.874 48.1844C298.874 51.4091 298.874 53.9474 298.851 55.6658C298.851 56.5134 298.851 57.163 298.851 57.6098C298.851 58.0567 298.824 58.2824 298.824 58.2824Z" fill="#263238"/>
<path d="M249.422 29.7158H239.941V39.1965H249.422V29.7158Z" fill="#455A64"/>
<path d="M262.452 31.0519C262.452 31.1164 260.236 31.1717 257.508 31.1717C254.781 31.1717 252.565 31.1164 252.565 31.0519C255.859 30.886 259.158 30.886 262.452 31.0519Z" fill="#F5C518"/>
<path d="M294.026 34.4608C294.026 34.5299 284.744 34.5852 273.296 34.5852C261.848 34.5852 252.565 34.5299 252.565 34.4608C252.565 34.3917 261.843 34.3411 273.296 34.3411C284.748 34.3411 294.026 34.3917 294.026 34.4608Z" fill="#263238"/>
<path d="M280.076 38.2846C280.076 38.3491 273.977 38.4043 266.454 38.4043C258.931 38.4043 252.832 38.3491 252.832 38.2846C252.832 38.2201 258.931 38.1648 266.454 38.1648C273.977 38.1648 280.076 38.2155 280.076 38.2846Z" fill="#263238"/>
<path d="M288.89 53.3117H243.075C241.91 53.3117 240.792 52.8486 239.968 52.0244C239.144 51.2002 238.681 50.0824 238.681 48.9168C238.681 47.7512 239.144 46.6334 239.968 45.8092C240.792 44.985 241.91 44.522 243.075 44.522H288.89C290.055 44.522 291.173 44.985 291.997 45.8092C292.821 46.6334 293.284 47.7512 293.284 48.9168C293.284 50.0824 292.821 51.2002 291.997 52.0244C291.173 52.8486 290.055 53.3117 288.89 53.3117Z" fill="#F5C518"/>
<path d="M257.561 49.5342H256.437L256.225 50.0501H255.649L256.727 47.6316H257.28L258.363 50.0501H257.769L257.561 49.5342ZM257.386 49.1058L257.004 48.1844L256.617 49.1058H257.386Z" fill="white"/>
<path d="M260.71 48.5115C260.71 49.0505 260.305 49.3822 259.66 49.3822H259.171V50.0501H258.609V47.6316H259.66C260.305 47.6316 260.71 47.9679 260.71 48.5115ZM260.143 48.5115C260.143 48.2443 259.968 48.0877 259.627 48.0877H259.167V48.9261H259.627C259.968 48.9261 260.143 48.7741 260.143 48.5115Z" fill="white"/>
<path d="M263.206 48.5115C263.206 49.0505 262.806 49.3822 262.156 49.3822H261.668V50.0501H261.11V47.6316H262.156C262.829 47.6316 263.206 47.9679 263.206 48.5115ZM262.64 48.5115C262.64 48.2443 262.469 48.0877 262.124 48.0877H261.663V48.9261H262.124C262.469 48.9261 262.64 48.7741 262.64 48.5115Z" fill="white"/>
<path d="M263.612 47.6316H264.174V49.5941H265.386V50.0547H263.612V47.6316Z" fill="white"/>
<path d="M266.615 49.2026V50.0594H266.057V49.2026L265.136 47.6455H265.73L266.375 48.7189L267.024 47.6455H267.573L266.615 49.2026Z" fill="white"/>
<path d="M270.989 47.6316V50.0501H270.528L269.321 48.5806V50.0501H268.769V47.6316H269.229L270.432 49.1011V47.6316H270.989Z" fill="white"/>
<path d="M271.418 48.843C271.403 48.5777 271.467 48.3137 271.603 48.0854C271.739 47.857 271.941 47.6748 272.182 47.5624C272.423 47.45 272.692 47.4126 272.954 47.455C273.217 47.4973 273.46 47.6176 273.654 47.8001C273.847 47.9826 273.981 48.219 274.038 48.4785C274.096 48.7381 274.074 49.0089 273.975 49.2559C273.877 49.5029 273.707 49.7145 273.486 49.8635C273.266 50.0125 273.006 50.0919 272.74 50.0915C272.57 50.1015 272.4 50.0767 272.24 50.0185C272.08 49.9602 271.933 49.8699 271.81 49.7529C271.686 49.636 271.587 49.4949 271.52 49.3385C271.453 49.182 271.418 49.0134 271.418 48.843ZM273.501 48.843C273.498 48.6933 273.451 48.5478 273.366 48.4246C273.281 48.3014 273.161 48.2061 273.022 48.1507C272.883 48.0953 272.73 48.0822 272.584 48.1131C272.437 48.144 272.303 48.2174 272.198 48.3242C272.093 48.4311 272.022 48.5665 271.994 48.7136C271.966 48.8606 271.982 49.0128 272.04 49.1509C272.098 49.2889 272.195 49.4068 272.32 49.4898C272.444 49.5727 272.591 49.617 272.74 49.617C272.842 49.6196 272.943 49.6013 273.038 49.5631C273.132 49.525 273.217 49.4678 273.289 49.3952C273.36 49.3227 273.416 49.2362 273.452 49.1412C273.489 49.0462 273.505 48.9447 273.501 48.843Z" fill="white"/>
<path d="M278.068 47.6316L277.275 50.0501H276.654L276.124 48.4101L275.571 50.0501H274.972L274.18 47.6316H274.76L275.304 49.3315L275.875 47.6316H276.396L276.948 49.3453L277.51 47.6316H278.068Z" fill="white"/>
</svg>
