<svg width="66" height="66" viewBox="0 0 66 66" fill="none" xmlns="http://www.w3.org/2000/svg">
<rect y="0.00195312" width="66" height="66" rx="4.63158" fill="white"/>
<path d="M48.2751 16.8969C46.2335 14.8363 43.8022 13.2028 41.1229 12.0913C38.4437 10.9798 35.57 10.4127 32.6693 10.423C20.5148 10.423 10.6092 20.3258 10.5981 32.4831C10.5981 36.3769 11.6167 40.1649 13.54 43.5188L10.4199 54.9552L22.1208 51.888C25.3577 53.6496 28.9841 54.5729 32.6693 54.5739H32.6805C44.8377 54.5739 54.7406 44.671 54.7517 32.5026C54.7545 29.6026 54.1834 26.7306 53.0714 24.0523C51.9593 21.3739 50.3311 18.9421 48.2751 16.8969ZM32.6693 50.8387C29.3823 50.8398 26.1557 49.9553 23.3287 48.2781L22.6607 47.8774L15.7193 49.6976L17.5729 42.9259L17.1387 42.2273C15.3012 39.3058 14.3294 35.9233 14.336 32.472C14.336 22.3799 22.5661 14.147 32.6805 14.147C35.09 14.1427 37.4766 14.6153 39.7027 15.5378C41.9287 16.4602 43.9502 17.8141 45.6505 19.5215C47.3567 21.2222 48.7093 23.2439 49.6303 25.4699C50.5513 27.696 51.0225 30.0824 51.0166 32.4915C51.0055 42.6198 42.7753 50.8387 32.6693 50.8387ZM42.7308 37.1061C42.1825 36.8306 39.4744 35.4974 38.9651 35.3081C38.4585 35.1272 38.0883 35.0326 37.7265 35.5837C37.3563 36.132 36.2987 37.3817 35.9814 37.7407C35.6641 38.1109 35.3357 38.1526 34.7846 37.8799C34.2363 37.6015 32.4578 37.0226 30.3536 35.1384C28.7115 33.6771 27.6121 31.868 27.2837 31.3197C26.9664 30.7686 27.2531 30.4736 27.5286 30.1981C27.7708 29.9531 28.0769 29.5524 28.3525 29.2351C28.6308 28.9178 28.7227 28.684 28.9036 28.3166C29.0845 27.9436 28.9982 27.6263 28.8618 27.3508C28.7227 27.0752 27.6233 24.356 27.1585 23.2594C26.7131 22.1767 26.2595 22.327 25.9199 22.3131C25.6026 22.2936 25.2324 22.2936 24.8623 22.2936C24.5827 22.3006 24.3076 22.3652 24.0543 22.4835C23.8009 22.6018 23.5747 22.7712 23.3899 22.9811C22.8834 23.5322 21.4667 24.8653 21.4667 27.5846C21.4667 30.3038 23.4428 32.9173 23.7211 33.2875C23.9939 33.6577 27.601 39.2214 33.1369 41.615C34.445 42.1856 35.4748 42.5224 36.2792 42.7784C37.6013 43.2015 38.7953 43.1375 39.7472 43.0011C40.8048 42.8396 43.0064 41.6651 43.4712 40.3765C43.9276 39.085 43.9276 37.9829 43.7885 37.7518C43.6521 37.5181 43.2819 37.3817 42.7308 37.1061Z" fill="#080808"/>
</svg>
