<svg width="67" height="66" viewBox="0 0 67 66" fill="none" xmlns="http://www.w3.org/2000/svg">
<rect x="0.737305" y="0.00195312" width="66" height="66" rx="4.63158" fill="white"/>
<path fill-rule="evenodd" clip-rule="evenodd" d="M55.1287 20.3189C53.8827 18.1697 52.5325 17.7747 49.7801 17.6247C47.0308 17.4441 40.1147 17.3706 34.1262 17.3706C28.1255 17.3706 21.2063 17.4441 18.4601 17.6247C15.7138 17.7778 14.3606 18.1697 13.1023 20.3189C11.8195 22.4682 11.1582 26.1635 11.1582 32.6724V32.6969C11.1582 39.1783 11.8195 42.9012 13.1023 45.0229C14.3576 47.169 15.7108 47.5609 18.4601 47.7416C21.2063 47.8946 28.1225 47.9865 34.1262 47.9865C40.1147 47.9865 47.0308 47.8946 49.7832 47.7416C52.5356 47.5609 53.8857 47.169 55.1318 45.0229C56.4299 42.8981 57.0851 39.1752 57.0851 32.6969V32.6724C57.082 26.1635 56.4299 22.4682 55.1287 20.3189Z" stroke="#080808" stroke-width="3.82105" stroke-miterlimit="10" stroke-linecap="round" stroke-linejoin="round"/>
<path fill-rule="evenodd" clip-rule="evenodd" d="M29.5264 40.3326V25.0247L41.7727 32.6786L29.5264 40.3326Z" stroke="#080808" stroke-width="3.82105" stroke-miterlimit="10" stroke-linecap="round" stroke-linejoin="round"/>
</svg>
