<svg width="242" height="199" viewBox="0 0 242 199" fill="none" xmlns="http://www.w3.org/2000/svg">
<path d="M142.137 0.280243C199.104 0.280243 244.842 48.4591 240.807 106.299C237.339 155.994 196.406 195.822 146.634 198.006C108.476 199.702 74.8153 179.737 56.9056 149.391C43.8523 127.241 24.6322 109.383 0.941033 99.3874L0.478516 99.1818L0.966715 98.9762C24.4009 89.0835 43.7752 71.6363 56.5459 49.6411C73.6333 20.1171 105.547 0.280243 142.137 0.280243Z" fill="#F5C518"/>
<path d="M142.138 171.233C181.93 171.233 214.188 138.975 214.188 99.1828C214.188 59.3908 181.93 27.133 142.138 27.133C102.346 27.133 70.0879 59.3908 70.0879 99.1828C70.0879 138.975 102.346 171.233 142.138 171.233Z" fill="white"/>
</svg>
