<svg width="242" height="199" viewBox="0 0 242 199" fill="none" xmlns="http://www.w3.org/2000/svg">
<path d="M142.137 0.836479C199.104 0.836479 244.842 49.0154 240.807 106.856C237.339 156.551 196.406 196.378 146.634 198.562C108.476 200.258 74.8153 180.293 56.9056 149.947C43.8523 127.797 24.6322 109.939 0.941033 99.9436L0.478516 99.738L0.966715 99.5325C24.4009 89.6397 43.7752 72.1926 56.5459 50.1973C73.6333 20.699 105.547 0.836479 142.137 0.836479Z" fill="#080808"/>
<path d="M142.138 171.789C181.93 171.789 214.188 139.531 214.188 99.7388C214.188 59.9467 181.93 27.6889 142.138 27.6889C102.346 27.6889 70.0879 59.9467 70.0879 99.7388C70.0879 139.531 102.346 171.789 142.138 171.789Z" fill="white"/>
</svg>
