<svg width="80" height="57" viewBox="0 0 80 57" fill="none" xmlns="http://www.w3.org/2000/svg">
<path d="M72.9517 1.29831C72.4324 0.48906 71.5346 0 70.5734 0H50.9143C46.235 0 42.4286 3.80641 42.4286 8.48571V28.2857C42.4286 32.965 46.235 36.7714 50.9143 36.7714H56.5301C53.9032 44.3789 51.6602 48.0221 44.1964 51.1324C42.9507 51.6517 42.2461 52.9774 42.5114 54.3007C42.7765 55.6213 43.9368 56.5714 45.2849 56.5714H45.2905C60.8615 56.5437 69.8057 50.3011 76.148 35.0423C78.1724 30.2496 79.2 25.1203 79.2 19.8C79.2 11.6181 76.725 7.16251 72.9517 1.29831ZM28.1448 0H8.48571C3.80641 0 0 3.80641 0 8.48571V28.2857C0 32.965 3.80641 36.7714 8.48571 36.7714H14.1016C11.4747 44.3789 9.23161 48.0221 1.76786 51.1324C0.522154 51.6517 -0.182443 52.9774 0.0828771 54.3007C0.347914 55.6213 1.50819 56.5714 2.85629 56.5714H2.86195C18.433 56.5437 27.3772 50.3011 33.7194 35.0423C35.7438 30.2496 36.7714 25.1203 36.7714 19.8C36.7714 11.6181 34.2964 7.16251 30.5231 1.29831C30.0038 0.48906 29.106 0 28.1448 0Z" fill="#FBEBB0"/>
</svg>
