<svg width="112" height="62" viewBox="0 0 112 62" fill="none" xmlns="http://www.w3.org/2000/svg">
<path d="M52.6852 60.9649C37.9487 60.8029 25.2436 55.6166 14.4979 45.5852C14.2883 45.3897 14.0423 45.183 13.9461 44.9313C13.8562 44.6963 13.8373 44.2875 13.9786 44.1473C14.1628 43.964 14.5448 43.8875 14.8254 43.9173C15.0908 43.9453 15.3407 44.1611 15.5879 44.3102C23.6366 49.1624 32.3133 52.313 41.5887 53.8543C47.4706 54.8303 53.3866 55.139 59.3248 54.6008C67.384 53.8683 75.1283 51.8752 82.5219 48.5731C83.9052 47.955 84.5987 47.9763 85.0337 48.7022C85.4452 49.3881 85.1757 49.9783 83.9739 50.8883C78.2256 55.2386 71.7221 57.9336 64.7399 59.5523C60.7808 60.4701 56.7658 60.9735 52.6852 60.9649Z" fill="black"/>
<path d="M26.7482 40.5987L21.9911 40.6187C21.9595 40.167 21.9086 39.7507 21.9058 39.3323C21.8853 36.0471 21.8821 32.7618 21.8573 29.4766C21.843 27.5533 21.2013 26.9136 19.2757 27.0747C18.2868 27.1574 17.3181 27.4746 16.2744 27.6996L16.3286 40.5977L11.4572 40.6182C11.4295 40.1656 11.3838 39.7435 11.381 39.3208C11.3612 36.0718 11.358 32.8227 11.3329 29.5732C11.3176 27.5241 10.7524 26.999 8.72284 27.0995C8.43432 27.1056 8.14678 27.135 7.86303 27.1874C5.73074 27.6434 5.69512 27.6931 5.70474 29.8685C5.71794 33.0092 5.73115 36.1501 5.74435 39.2912L5.75011 40.6612L0.949912 40.6814L0.879556 23.9453L4.8191 23.9287C4.95365 24.3318 5.09786 24.7639 5.28226 25.3183C5.74237 25.0709 6.14772 24.8662 6.54053 24.6392C8.07556 23.7511 9.72738 23.2495 11.5019 23.284C13.1268 23.3162 14.5626 23.8349 15.5283 25.2924C16.296 24.8927 17.0111 24.4712 17.7652 24.1393C19.3784 23.4267 21.058 23.0608 22.8354 23.3331C25.0858 23.6777 26.57 25.033 26.6529 27.362C26.807 31.7222 26.7293 36.0911 26.7482 40.5987Z" fill="black"/>
<path d="M111.288 17.3514C110.661 19.1568 110.103 20.7818 109.535 22.4026C107.556 28.0456 105.578 33.689 103.602 39.3326C103.36 40.027 103.056 40.4243 102.226 40.372C101.109 40.3014 99.9798 40.3315 98.8612 40.3795C98.1823 40.4086 97.8134 40.1823 97.5789 39.5224C95.8282 34.6003 94.0466 29.6893 92.2755 24.775C91.5061 22.6398 90.7382 20.5044 89.972 18.3689C89.8777 18.1053 89.812 17.8315 89.7112 17.4865L95.2038 17.4634C96.9693 23.2762 98.7379 29.1003 100.51 34.9356L100.748 34.9075C101.507 32.3233 102.271 29.7405 103.023 27.1545C103.898 24.1457 104.752 21.1313 105.649 18.129C105.734 17.8427 106.047 17.4154 106.267 17.4059C107.878 17.3372 109.493 17.359 111.288 17.3514Z" fill="black"/>
<path d="M45.9407 40.5229L41.1434 40.543L41.0728 23.7583L44.9244 23.7421C45.1109 24.2179 45.3022 24.7098 45.5297 25.2917C46.0426 24.9879 46.4926 24.7077 46.9555 24.4503C48.8049 23.4232 50.7639 22.896 52.8927 23.2135C55.2568 23.5662 56.6691 24.957 56.7679 27.5576C56.9254 31.7029 56.8434 35.8559 56.8561 40.0057C56.8567 40.1405 56.7832 40.2752 56.7266 40.4723L51.9957 40.4922C51.9701 40.0677 51.9293 39.6852 51.9267 39.3011C51.9082 36.1612 51.9046 33.0217 51.8756 29.8818C51.8711 29.3843 51.7835 28.8839 51.6954 28.3919C51.5217 27.4239 50.8546 26.9749 49.936 26.9487C49.2593 26.9297 48.5502 26.9617 47.9039 27.1364C45.88 27.6811 45.8873 27.7111 45.896 29.785C45.9091 32.8882 45.9221 35.9918 45.9352 39.0956L45.9407 40.5229Z" fill="black"/>
<path d="M88.0698 17.5289L88.0863 21.4575L81.1032 21.4868L81.1826 40.3769L76.2606 40.3976L76.1813 21.5414L69.171 21.5708L69.1543 17.6084L88.0698 17.5289Z" fill="black"/>
<path d="M36.1687 23.7849L36.2392 40.5438L31.5236 40.5637L31.4531 23.8047L36.1687 23.7849Z" fill="black"/>
<path d="M61.5371 40.4144L61.4668 23.7007L66.1757 23.6809L66.246 40.3946L61.5371 40.4144Z" fill="black"/>
<path d="M44.5225 10.0107L42.2182 10.0204C42.2134 8.86384 42.2087 7.76065 42.2041 6.65793C42.1979 5.75585 42.229 4.85123 42.1626 3.95369C42.1175 3.33437 41.9638 2.70264 41.1189 2.69952C40.2879 2.69634 40.0777 3.28767 40.0517 3.92873C39.9877 5.51353 39.9872 7.10044 39.9532 8.68654C39.944 9.10785 39.9089 9.52878 39.8785 10.0174L37.6722 10.0266C37.6252 9.65847 37.5469 9.31235 37.544 8.96925C37.5233 6.55228 37.5131 4.13527 37.5135 1.71822C37.5113 1.18783 37.4129 0.531557 38.2604 0.58375C38.9258 0.625272 39.8877 0.154682 39.919 1.22631C40.6714 0.941505 41.4552 0.395419 42.2128 0.428929C42.9704 0.462438 43.6998 1.07698 44.4659 1.44881C44.9035 1.17867 45.4567 0.677868 46.1048 0.469751C47.5961 -0.00973154 49.0872 0.91613 49.1716 2.45836C49.2998 4.76051 49.2536 7.07387 49.2236 9.38145C49.2207 9.60639 48.8438 9.97921 48.5907 10.0236C47.0464 10.2965 46.8046 10.0759 46.7982 8.54386C46.792 7.06659 46.8039 5.58638 46.7872 4.10772C46.7801 3.45202 46.7958 2.74142 45.8546 2.69057C45.108 2.65034 44.6762 3.13919 44.6518 4.16054C44.6153 5.7109 44.6414 7.26291 44.6259 8.81366C44.6218 9.19587 44.5613 9.57785 44.5225 10.0107Z" fill="black"/>
<path d="M83.7399 45.8391C81.8502 46.0306 80.0179 46.236 78.1816 46.3867C77.7994 46.4179 77.3963 46.2437 77.0032 46.1639C77.2224 45.7874 77.3551 45.2975 77.6752 45.0536C79.1995 43.8934 80.9746 43.2793 82.8368 42.9207C85.2071 42.4643 87.5815 42.43 89.9324 43.0501C91.2997 43.4108 91.6468 43.7882 91.6172 45.166C91.5226 49.5883 90.1889 53.5817 87.3183 57.0097C87.2261 57.1201 87.1387 57.253 87.0176 57.3183C86.5704 57.5608 86.1116 57.7796 85.6543 58.0069C85.667 57.517 85.5759 56.9965 85.7098 56.5418C86.2591 54.6809 86.9157 52.8482 87.4545 50.9822C87.7117 50.0895 87.8511 49.1515 87.9361 48.2238C88.0527 46.96 87.5363 46.3274 86.2805 46.122C85.4245 45.9822 84.5574 45.9272 83.7399 45.8391Z" fill="black"/>
<path d="M33.0242 4.03005C33.1166 3.28005 33.1738 2.66887 32.448 2.35311C31.7102 2.03168 31.1181 2.36871 30.2879 3.57596C29.9986 3.54239 29.6807 3.50894 29.3637 3.46882C29.0467 3.42869 28.7359 3.38377 28.3505 3.33011C28.3101 2.25566 28.7926 1.52499 29.5905 1.03269C31.0466 0.134474 32.6068 0.117911 34.1612 0.755194C35.1818 1.17408 35.563 2.06886 35.6176 3.10179C35.6617 3.92889 35.5815 4.76463 35.6529 5.58828C35.7428 6.63011 35.9306 7.66343 36.1144 8.97412C35.1124 10.3727 34.7825 10.4346 33.5944 9.28255C32.7623 9.60343 32.0015 10.0393 31.1892 10.1791C29.6358 10.4463 28.6431 9.8371 28.164 8.54195C27.6763 7.22253 28.163 5.66789 29.4087 4.96546C30.0194 4.62121 30.7509 4.47565 31.4421 4.29261C31.9261 4.16524 32.4335 4.12498 33.0242 4.03005ZM33.218 5.69239C31.6796 5.54732 30.9552 5.8992 30.6745 6.77723C30.4741 7.40569 30.6275 7.9645 31.1917 8.2776C31.789 8.60868 32.4064 8.37925 32.6664 7.8044C32.9576 7.16031 33.0381 6.42179 33.218 5.69239Z" fill="black"/>
<path d="M58.7605 8.94147C57.5897 10.3003 57.5844 10.3012 56.2141 9.20808C55.4092 9.52407 54.6755 9.947 53.8905 10.0914C52.4064 10.3645 51.3688 9.76838 50.8921 8.56614C50.3681 7.24592 50.791 5.64532 51.9851 4.93978C52.6181 4.56541 53.3839 4.39778 54.1061 4.19507C54.5858 4.0601 55.0946 4.02793 55.6309 3.94323C55.7498 3.24173 55.9086 2.59296 55.0915 2.25614C54.3557 1.95328 53.7407 2.30184 52.9849 3.47971L50.9577 3.24377C51.0316 2.85793 51.0471 2.57622 51.1411 2.3204C51.7161 0.759189 53.6452 -0.0590513 55.8345 0.313461C57.4963 0.596216 58.2934 1.60315 58.3145 3.4516C58.322 4.1011 58.2832 4.75461 58.3404 5.39961C58.4357 6.47478 58.5912 7.54446 58.7605 8.94147ZM55.6842 5.36551C55.0255 5.54317 54.4757 5.59838 54.0208 5.83571C53.3222 6.20034 53.1302 6.90311 53.4069 7.59104C53.5325 7.90503 54.0095 8.25853 54.3426 8.27476C55.0801 8.31121 55.5179 7.74847 55.6714 7.08828C55.7788 6.61986 55.6873 6.10558 55.6842 5.36456L55.6842 5.36551Z" fill="black"/>
<path d="M76.8766 0.474763L78.9099 0.466215C79.0125 0.768869 79.1117 1.06344 79.2278 1.40749C79.353 1.29212 79.4693 1.2087 79.5558 1.10159C80.286 0.200229 81.2272 0.0185271 82.288 0.334785C83.3244 0.643521 83.852 1.47192 83.8896 2.44392C83.9829 4.85392 83.9371 7.26926 83.9477 9.79492L81.5708 9.80492C81.5641 8.21661 81.5706 6.67637 81.5445 5.13485C81.5349 4.56303 81.4565 3.9915 81.3939 3.4199C81.3387 2.89593 81.1034 2.52092 80.5171 2.51815C79.8652 2.51279 79.5075 2.91174 79.4039 3.49213C79.3105 4.02102 79.3061 4.56954 79.3017 5.10949C79.2918 6.26421 79.3114 7.41928 79.3096 8.57396C79.3066 9.9188 79.2743 9.94753 77.8884 9.93239C77.6016 9.92931 77.3172 9.89952 76.9156 9.875L76.8766 0.474763Z" fill="black"/>
<path d="M75.7235 5.50602C75.4474 6.32446 75.2673 7.46847 74.7115 8.38721C73.1929 10.8969 69.7037 10.7352 68.3513 8.12802C67.3834 6.26068 67.3876 4.29871 68.2565 2.38696C68.9293 0.906826 70.2785 0.138676 71.8315 0.227457C72.5958 0.276704 73.3269 0.557171 73.9272 1.03146C74.5276 1.50574 74.9686 2.15129 75.1916 2.882C75.4179 3.63448 75.5096 4.42706 75.7235 5.50602ZM72.9986 5.25872C72.8906 4.48192 72.8066 3.80891 72.7005 3.13933C72.6048 2.53118 72.2492 2.05469 71.6242 2.19933C71.216 2.29397 70.6853 2.68364 70.5669 3.05489C70.106 4.46974 70.1349 5.99792 70.6487 7.39447C70.7744 7.73992 71.3042 8.14991 71.6459 8.14752C71.9876 8.14513 72.5072 7.7274 72.629 7.38091C72.8708 6.68652 72.8952 5.91679 72.9971 5.25872L72.9986 5.25872Z" fill="black"/>
<path d="M66.6404 9.73844C64.5444 8.81083 62.4076 8.76263 60.1742 9.83806C59.9227 8.673 59.8355 7.70835 60.514 6.76956C61.5008 5.40391 62.4449 4.00747 63.5465 2.42355L60.3677 2.43692L60.3593 0.439264L62.5986 0.429851C63.6843 0.425286 64.7706 0.442635 65.8557 0.410434C66.5161 0.390979 66.8456 0.684586 66.7264 1.30937C66.6282 1.82159 66.466 2.35886 66.1869 2.79131C65.3494 4.08914 64.4409 5.34152 63.5441 6.63483C67.19 7.70365 67.453 7.96036 66.6404 9.73844Z" fill="black"/>
<path d="M63.9391 15.8194C65.6466 15.8437 66.6563 16.8526 66.6264 18.503C66.598 20.0424 65.4196 21.0676 63.7344 21.0194C62.1276 20.9728 60.9976 19.8958 60.9952 18.4075C60.9919 16.813 62.1512 15.794 63.9391 15.8194Z" fill="black"/>
<path d="M33.8186 15.9521C35.4965 15.9583 36.6742 17.0504 36.6381 18.5674C36.6019 20.0844 35.3855 21.1651 33.7439 21.1491C32.0675 21.1328 30.9677 20.0786 30.9816 18.4959C30.9955 16.9132 32.0719 15.9451 33.8186 15.9521Z" fill="black"/>
</svg>
