<svg width="165" height="52" viewBox="0 0 165 52" fill="none" xmlns="http://www.w3.org/2000/svg">
<g clip-path="url(#clip0_4862_20665)">
<path d="M82.4015 51.3644C73.8511 51.3373 65.6696 49.5612 57.8754 45.9682C51.3654 42.9672 45.5688 38.8925 40.4276 33.846C40.3246 33.745 40.2058 33.6523 40.1316 33.5317C40.027 33.3625 39.9172 33.1793 39.8807 32.9879C39.764 32.3557 40.25 31.9387 40.8514 32.145C41.0117 32.207 41.1645 32.2879 41.3065 32.3859C45.6018 35.1144 50.148 37.4094 54.8806 39.2383C59.2463 40.9341 63.7475 42.2425 68.3342 43.149C70.7619 43.6296 73.2056 43.997 75.6651 44.2511C78.0834 44.4976 80.5086 44.6327 82.9411 44.6423C85.0296 44.6502 87.1151 44.5986 89.1959 44.4281C93.4976 44.0775 97.7641 43.3706 101.953 42.3145C106.643 41.137 111.218 39.5256 115.62 37.5002C115.877 37.3756 116.151 37.2893 116.432 37.244C116.954 37.1732 117.397 37.3629 117.681 37.8298C117.965 38.2966 117.929 38.7915 117.632 39.2287C117.458 39.4866 117.216 39.7095 116.972 39.9036C114.809 41.6374 112.495 43.1337 110.061 44.4386C105.342 46.9684 100.357 48.7516 95.1555 49.9223C92.9936 50.4096 90.8076 50.7781 88.6069 51.0261C86.5464 51.2586 84.4746 51.3716 82.4015 51.3644Z" fill="black"/>
<path d="M43.6674 9.10687C43.8433 9.00326 43.978 8.92894 44.1075 8.84457C45.1305 8.19453 46.1934 7.6341 47.3713 7.33377C48.4522 7.05793 49.5451 6.99498 50.6432 7.19913C51.6696 7.39017 52.5108 7.89857 53.1233 8.77638C53.1894 8.87036 53.258 8.96217 53.3549 9.09594C53.4909 9.01594 53.623 8.94337 53.75 8.86206C54.7108 8.25005 55.7038 7.70885 56.8049 7.40416C58.0187 7.06843 59.2498 6.9469 60.4937 7.18558C62.2189 7.51782 63.4229 8.78862 63.6949 10.5613C63.7567 10.964 63.7883 11.3711 63.7892 11.7787C63.7961 15.4508 63.7974 19.1229 63.7931 22.795C63.7931 23.6745 63.6914 23.7794 62.8404 23.7799C61.9685 23.7799 61.0964 23.7799 60.2239 23.7799C59.484 23.7777 59.3279 23.6186 59.3231 22.8492C59.318 22.1497 59.3231 21.4503 59.3231 20.7508C59.3231 18.2597 59.3231 15.7679 59.3231 13.2755C59.3231 12.9407 59.3193 12.6041 59.2884 12.2701C59.1949 11.2555 58.5802 10.626 57.5984 10.5735C56.4038 10.5101 55.277 10.8118 54.1909 11.3005C54.0095 11.3822 53.9293 11.509 53.9413 11.7088C53.9486 11.8399 53.9413 11.9711 53.9413 12.1022C53.9413 15.6134 53.9413 19.1252 53.9413 22.6376C53.9413 22.8125 53.9443 22.9873 53.9327 23.1622C53.904 23.5967 53.7453 23.7663 53.3167 23.7742C52.5168 23.7864 51.716 23.7799 50.9147 23.7803C50.6573 23.7803 50.4 23.7869 50.1426 23.7746C49.6948 23.7532 49.5237 23.5784 49.4992 23.1325C49.4919 22.9869 49.4954 22.8409 49.4954 22.6953C49.4954 19.4755 49.4944 16.2552 49.4924 13.0342C49.4927 12.7285 49.4702 12.4232 49.425 12.121C49.2792 11.1702 48.6838 10.6137 47.7406 10.5735C46.5318 10.5224 45.39 10.8126 44.3009 11.3394C44.1392 11.4181 44.0547 11.5239 44.065 11.7097C44.0723 11.8408 44.065 11.972 44.065 12.1031C44.065 15.6878 44.065 19.2724 44.065 22.857C44.065 23.6723 43.9488 23.7904 43.1493 23.7917C42.2774 23.7934 41.4052 23.7934 40.5328 23.7917C40.404 23.7945 40.2751 23.7907 40.1467 23.7803C39.7924 23.7432 39.6457 23.5941 39.602 23.2278C39.5904 23.1116 39.586 22.9948 39.5887 22.878C39.5887 18.0842 39.5887 13.2901 39.5887 8.49573C39.5887 7.69224 39.7238 7.55934 40.5143 7.55803C41.1577 7.55803 41.8011 7.55497 42.4445 7.55803C43.0566 7.56153 43.2556 7.71672 43.4311 8.31081C43.5048 8.56392 43.579 8.81135 43.6674 9.10687Z" fill="black"/>
<path d="M124.363 8.41264V7.87057C124.363 5.68481 124.363 3.49905 124.363 1.31329C124.359 1.13824 124.365 0.963113 124.38 0.788707C124.419 0.428931 124.568 0.273742 124.919 0.220409C125.033 0.20804 125.148 0.20424 125.262 0.209043C126.149 0.209043 127.035 0.209043 127.921 0.209043C128.05 0.20426 128.18 0.211281 128.308 0.230025C128.637 0.290352 128.772 0.442485 128.81 0.78565C128.82 0.916526 128.823 1.04787 128.819 1.17909C128.819 8.39064 128.819 15.6022 128.819 22.8137V22.8575C128.816 23.6413 128.69 23.7711 127.925 23.7729C127.16 23.7746 126.381 23.7772 125.609 23.7729C125.087 23.7685 124.892 23.6111 124.751 23.1031C124.688 22.8819 124.631 22.6594 124.552 22.3648C124.389 22.4924 124.27 22.5834 124.153 22.6765C122.302 24.1519 120.228 24.5038 118.006 23.8454C116.283 23.3348 115.137 22.1043 114.367 20.4894C113.79 19.2794 113.528 17.9837 113.448 16.6525C113.354 15.0731 113.468 13.509 113.938 11.9881C114.308 10.7881 114.901 9.71492 115.767 8.81701C117.04 7.49506 118.617 6.99802 120.402 7.0684C121.736 7.1213 122.958 7.50555 124.051 8.29548C124.11 8.33525 124.171 8.37146 124.234 8.4039C124.242 8.41177 124.259 8.40784 124.363 8.41264ZM124.363 15.5819C124.363 14.3006 124.355 13.0189 124.368 11.7376C124.371 11.4316 124.263 11.2611 123.995 11.1317C123.062 10.6797 122.032 10.473 121.001 10.5306C119.751 10.5923 118.93 11.262 118.453 12.4104C118.377 12.5985 118.314 12.7918 118.264 12.9888C117.902 14.3597 117.895 15.752 118.049 17.1496C118.111 17.7589 118.27 18.3538 118.521 18.9104C119.004 19.9596 119.799 20.5511 120.936 20.6818C122.012 20.805 123 20.5506 123.953 20.0579C124.264 19.8962 124.374 19.6894 124.369 19.3393C124.353 18.0851 124.363 16.8322 124.363 15.5798V15.5819Z" fill="black"/>
<path d="M4.49612 22.6885V23.2175C4.49612 25.2867 4.49612 27.3558 4.49612 29.425C4.49612 30.2849 4.37515 30.4056 3.525 30.4064C2.67485 30.4073 1.838 30.4064 0.994281 30.4064C0.879826 30.4094 0.765296 30.4065 0.651132 30.3977C0.21662 30.354 0.0450408 30.1717 0.0132995 29.728C0.00643655 29.6266 0.0103045 29.5238 0.0103045 29.422L0 8.61353C0 8.49681 1.34042e-05 8.38009 0.00301596 8.2638C0.0236049 7.77813 0.205903 7.57485 0.689313 7.56436C1.4614 7.5495 2.23348 7.55081 3.00557 7.56436C3.48169 7.57223 3.69486 7.76152 3.83083 8.23626C3.89903 8.4732 3.96208 8.71188 4.03114 8.94838C4.03757 8.97068 4.07189 8.98423 4.12851 9.03057C4.23789 8.94314 4.35628 8.84696 4.47509 8.75254C6.34954 7.26141 8.45348 6.75344 10.7667 7.31256C12.4559 7.72042 13.6256 8.83822 14.4556 10.3521C15.0514 11.4375 15.34 12.6222 15.4704 13.8462C15.6351 15.3916 15.588 16.9317 15.2294 18.4495C14.8678 19.9795 14.2141 21.3569 13.1014 22.4713C11.7623 23.8146 10.1306 24.3256 8.28018 24.1613C6.9552 24.0437 5.74517 23.6074 4.69042 22.7624C4.66168 22.7397 4.61708 22.734 4.49612 22.6885ZM4.49612 15.5686C4.49612 16.8801 4.50126 18.1889 4.49183 19.4991C4.49183 19.7452 4.56046 19.9008 4.78136 20.0201C5.73788 20.5364 6.75446 20.7878 7.83237 20.7314C9.09773 20.6654 10.0328 20.0687 10.5282 18.8516C10.6495 18.5411 10.7442 18.2205 10.8113 17.8934C11.064 16.7301 11.0434 15.5503 10.961 14.373C10.91 13.6469 10.7663 12.9304 10.4707 12.2598C10.0967 11.4082 9.47863 10.8426 8.5783 10.6423C7.26833 10.3503 6.03042 10.5986 4.84312 11.201C4.57761 11.3357 4.48496 11.5123 4.48925 11.813C4.50555 13.0646 4.49612 14.3166 4.49612 15.5686Z" fill="black"/>
<path d="M164.134 15.6548C164.138 16.9295 164.013 18.1863 163.587 19.3937C162.656 22.0341 160.834 23.6192 158.124 24.115C156.584 24.3965 155.047 24.3515 153.545 23.875C151.298 23.162 149.819 21.6267 149.038 19.3828C148.457 17.7146 148.416 15.9844 148.556 14.2467C148.638 13.2273 148.869 12.2358 149.294 11.299C150.348 8.97815 152.136 7.62953 154.592 7.20637C155.942 6.97424 157.299 6.99435 158.634 7.3349C161.193 7.98669 162.838 9.63825 163.659 12.1667C164.004 13.2312 164.134 14.2952 164.134 15.6548ZM159.582 15.6657C159.582 15.302 159.607 14.9361 159.577 14.575C159.521 13.9075 159.411 13.2483 159.173 12.6174C158.75 11.4992 158.012 10.7556 156.81 10.5991C155.491 10.4277 154.222 10.864 153.563 12.3718C153.447 12.6377 153.354 12.9129 153.282 13.1945C152.963 14.4364 152.965 15.7002 153.076 16.9667C153.135 17.6351 153.27 18.2882 153.533 18.9107C154.207 20.5155 155.549 20.9981 157.076 20.6999C158.049 20.5093 158.682 19.8624 159.074 18.9557C159.527 17.9065 159.607 16.7918 159.582 15.6657Z" fill="black"/>
<path d="M70.6335 16.8706C70.6617 17.5172 70.8071 18.1529 71.0625 18.7456C71.4309 19.6085 72.0606 20.1882 72.9309 20.4942C73.9947 20.8701 75.0914 20.8815 76.1947 20.7949C77.1662 20.7189 78.1146 20.5038 79.0574 20.2612C79.7986 20.0706 80.0011 20.2288 80.0079 21.0043C80.0122 21.4564 80.0015 21.9084 80.0079 22.3595C80.0186 22.9051 79.802 23.25 79.274 23.4445C77.3881 24.1468 75.3735 24.4167 73.3736 24.2349C72.4848 24.1549 71.6201 23.9787 70.7957 23.6286C68.9289 22.8364 67.6533 21.4507 67.0493 19.4983C66.2665 16.9664 66.2845 14.4029 67.1827 11.905C68.1779 9.13871 70.1788 7.58026 73.042 7.18377C74.3288 7.00891 75.6109 7.02115 76.8694 7.37655C78.3891 7.8054 79.5901 8.66222 80.2387 10.1743C80.7564 11.3822 80.7963 12.6425 80.4188 13.8901C80.0641 15.0586 79.2504 15.8324 78.1725 16.3329C77.0199 16.8684 75.7928 17.0499 74.545 17.1067C73.344 17.1613 72.1429 17.118 70.9621 16.8536C70.8922 16.8384 70.8214 16.8281 70.7502 16.823C70.7275 16.823 70.7009 16.8435 70.6335 16.8706ZM70.6631 14.0366C70.7918 14.0728 70.8596 14.0969 70.9273 14.1091C71.9426 14.2932 72.9669 14.3775 73.9942 14.2919C74.4754 14.2533 74.9505 14.1573 75.4097 14.006C76.0411 13.7939 76.4014 13.3017 76.5168 12.6285C76.6699 11.7385 76.3186 10.8913 75.6255 10.5363C74.6488 10.0353 72.9172 10.0956 71.9576 10.9975C71.0998 11.8062 70.8192 12.8694 70.6635 14.0366H70.6631Z" fill="black"/>
<path d="M136.193 16.7862C136.049 18.2481 136.953 19.7829 138.248 20.3245C138.989 20.6345 139.769 20.7136 140.557 20.7215C141.794 20.7342 143.002 20.5082 144.192 20.189C144.358 20.1453 144.522 20.0902 144.69 20.0627C144.998 20.0115 145.18 20.1366 145.262 20.4478C145.287 20.5464 145.298 20.6478 145.297 20.7495C145.301 21.2303 145.294 21.7112 145.3 22.1921C145.307 22.7005 145.108 23.0296 144.614 23.2154C143.522 23.6272 142.4 23.9048 141.242 23.9953C139.885 24.1015 138.533 24.0858 137.203 23.7085C134.883 23.0498 133.335 21.5556 132.651 19.2137C131.934 16.7618 131.957 14.2818 132.836 11.8779C133.828 9.16755 135.806 7.64408 138.624 7.27469C140.028 7.09021 141.424 7.12649 142.767 7.63402C144.444 8.26789 145.538 9.44646 145.862 11.2772C146.006 12.0535 145.983 12.8523 145.795 13.6186C145.505 14.7775 144.782 15.5858 143.77 16.1467C142.982 16.5838 142.129 16.8195 141.247 16.9384C139.928 17.121 138.592 17.1247 137.273 16.9493C137.019 16.9148 136.768 16.8562 136.514 16.8147C136.409 16.7972 136.299 16.7972 136.193 16.7862ZM136.19 14.0549C136.351 14.0986 136.458 14.1472 136.568 14.1555C137.479 14.2215 138.389 14.3211 139.301 14.3242C139.79 14.3242 140.299 14.2145 140.766 14.0545C141.6 13.7695 141.962 13.1054 141.914 12.131C141.871 11.2654 141.423 10.6845 140.605 10.4484C140.413 10.3909 140.216 10.3526 140.017 10.3339C138.992 10.2495 138.042 10.4384 137.302 11.2292C136.58 12.0007 136.324 12.9778 136.19 14.0549Z" fill="black"/>
<path d="M95.6877 19.6323C95.7833 19.3529 95.8503 19.182 95.9022 19.0063C96.9147 15.5032 97.9263 12.0002 98.9369 8.49714C98.9772 8.35769 99.0179 8.2178 99.0703 8.08316C99.2058 7.73344 99.4636 7.54852 99.8291 7.54677C100.93 7.54065 102.03 7.53628 103.132 7.54677C103.542 7.55115 103.701 7.76229 103.611 8.17759C103.538 8.47405 103.445 8.7649 103.332 9.04795C101.604 13.6704 99.8744 18.2923 98.1421 22.9136C98.0883 23.0644 98.0228 23.2106 97.946 23.3507C97.7929 23.62 97.5664 23.7826 97.2499 23.783C96.2204 23.7851 95.191 23.786 94.1615 23.7857C93.7184 23.7857 93.4474 23.5291 93.2916 23.1299C93.1072 22.6565 92.9301 22.1804 92.752 21.7044C91.1555 17.4354 89.5598 13.1659 87.9647 8.89583C87.8756 8.66574 87.8001 8.43042 87.7386 8.19114C87.6413 7.78939 87.8017 7.55202 88.2015 7.54765C89.3304 7.53497 90.4594 7.53891 91.5901 7.54765C92.0619 7.55071 92.3115 7.85016 92.4359 8.27857C92.6221 8.92031 92.8005 9.56423 92.982 10.2068C93.8201 13.1702 94.6588 16.1335 95.4981 19.0968C95.538 19.2441 95.5989 19.3857 95.6877 19.6323Z" fill="black"/>
<path d="M23.0017 9.94955C23.1411 9.80879 23.2509 9.70038 23.3582 9.58978C24.0947 8.82782 24.8792 8.13712 25.8808 7.74936C26.6588 7.44817 27.464 7.37866 28.2828 7.43768C28.7117 7.46872 28.8726 7.63833 28.879 8.07854C28.8919 9.02498 28.8936 9.97185 28.879 10.92C28.8709 11.4092 28.6645 11.5937 28.1764 11.5981C27.9774 11.5981 27.7779 11.5653 27.5785 11.5517C26.2351 11.4558 24.8869 11.6458 23.6194 12.1095C23.2128 12.2573 23.2115 12.2617 23.211 12.6966C23.211 16.0467 23.211 19.3966 23.211 22.7463C23.2165 22.9207 23.2066 23.0952 23.1815 23.2678C23.1158 23.6368 22.9717 23.764 22.6015 23.7776C22.2447 23.7907 21.8869 23.7837 21.5292 23.7841C20.8721 23.7841 20.2149 23.7885 19.5561 23.7841C18.9174 23.7784 18.7265 23.5922 18.7261 22.957C18.7241 18.1073 18.7241 13.2573 18.7261 8.40728C18.7261 7.76204 18.9127 7.57276 19.5432 7.56751C20.2432 7.56139 20.9438 7.56139 21.645 7.56751C22.2194 7.57188 22.4411 7.75068 22.5779 8.31897C22.6869 8.77055 22.7795 9.2265 22.8846 9.67895C22.9014 9.75415 22.9468 9.8254 23.0017 9.94955Z" fill="black"/>
<path d="M115.983 34.5851C114.576 34.7163 112.955 34.8631 111.335 35.0223C110.823 35.0721 110.315 35.1504 109.805 35.2155C109.777 35.219 109.748 35.2207 109.719 35.2225C109.443 35.236 109.155 35.2561 109.017 34.9423C108.885 34.6441 109.047 34.3998 109.227 34.1904C109.372 34.0294 109.534 33.886 109.711 33.7628C111.294 32.6092 113.07 31.9146 114.96 31.5023C116.961 31.0621 119.018 30.9507 121.053 31.1723C121.934 31.2613 122.804 31.4475 123.646 31.7275C124.415 31.9897 124.867 32.4466 124.927 33.32C124.984 34.1627 124.959 35.0092 124.851 35.8467C124.538 38.3777 123.824 40.8401 122.737 43.138C121.898 44.9085 120.849 46.5307 119.409 47.8632C119.244 48.0162 119.049 48.1631 118.841 48.2374C118.38 48.4026 118.071 48.1145 118.164 47.6254C118.202 47.4273 118.281 47.2359 118.35 47.0453C119.073 45.068 119.772 43.0834 120.32 41.0467C120.644 39.8393 120.945 38.6248 120.995 37.3654C121.008 37.0601 120.998 36.7544 120.968 36.4504C120.905 35.8175 120.583 35.3748 120.001 35.1224C119.455 34.8846 118.88 34.7727 118.298 34.7167C117.603 34.6498 116.903 34.6345 115.983 34.5851Z" fill="black"/>
<path d="M35.6423 15.6967V22.6474C35.6423 22.7641 35.6423 22.8808 35.6423 22.9971C35.6277 23.5947 35.4553 23.7717 34.8634 23.7748C33.8911 23.7792 32.9188 23.7792 31.9466 23.7748C31.3512 23.7717 31.1797 23.5964 31.1578 23.001C31.1543 22.8992 31.1578 22.7973 31.1578 22.695C31.1578 18.0184 31.1578 13.3417 31.1578 8.66508C31.1578 8.51951 31.1535 8.37306 31.1646 8.22792C31.1998 7.76279 31.383 7.57219 31.8363 7.54771C32.0937 7.53329 32.3511 7.54247 32.6084 7.54203C33.323 7.54203 34.0376 7.54203 34.7531 7.54203C35.4686 7.54203 35.6432 7.71995 35.6436 8.44169C35.6439 10.8597 35.6434 13.2781 35.6423 15.6967Z" fill="black"/>
<path d="M110.377 15.7192V22.7137C110.377 22.8304 110.379 22.9471 110.377 23.0634C110.357 23.6212 110.201 23.7851 109.645 23.7895C108.659 23.7965 107.672 23.7965 106.685 23.7895C106.084 23.7847 105.928 23.6238 105.923 23.0026C105.915 22.0265 105.919 21.0503 105.919 20.0737C105.919 16.3725 105.919 12.6713 105.919 8.97005C105.919 8.83891 105.919 8.70776 105.919 8.57662C105.923 7.69969 106.031 7.58428 106.875 7.58166C107.761 7.5786 108.647 7.57554 109.534 7.58166C110.249 7.58778 110.377 7.72592 110.377 8.46165C110.378 10.8817 110.378 13.3009 110.377 15.7192Z" fill="black"/>
<path d="M33.4157 4.95672C32.6475 4.94885 31.9325 4.7788 31.4062 4.15761C30.7555 3.38953 30.677 2.49643 30.9824 1.57141C31.2702 0.700167 31.9398 0.267388 32.8011 0.103019C33.2808 0.0108761 33.7744 0.0257902 34.2479 0.146734C35.6033 0.489899 36.2029 1.69251 35.961 3.03937C35.7556 4.18253 34.8964 4.88022 33.6731 4.9576C33.5873 4.96153 33.5015 4.95672 33.4157 4.95672Z" fill="black"/>
<path d="M108.129 0.000488281C108.437 0.0511979 108.754 0.0721802 109.053 0.157862C110.192 0.482666 110.868 1.51303 110.689 2.86296C110.517 4.15518 109.616 4.91758 108.244 4.94425C107.873 4.95181 107.504 4.89928 107.149 4.78862C106.251 4.50097 105.702 3.86535 105.61 2.89837C105.567 2.49456 105.593 2.08628 105.686 1.6914C105.933 0.720043 106.77 0.114587 107.866 0.0402706C107.952 0.0345876 108.038 0.0402706 108.124 0.0402706L108.129 0.000488281Z" fill="black"/>
</g>
<defs>
<clipPath id="clip0_4862_20665">
<rect width="164.123" height="51.3667" fill="white"/>
</clipPath>
</defs>
</svg>
