<svg width="28" height="28" viewBox="0 0 28 28" fill="none" xmlns="http://www.w3.org/2000/svg">
<mask id="path-1-outside-1_10704_2472" maskUnits="userSpaceOnUse" x="0" y="0.340332" width="28" height="28" fill="black">
<rect fill="white" y="0.340332" width="28" height="28"/>
<path d="M15.2838 1.4887C13.1374 1.77636 10.3603 2.14701 9.11002 2.31297C6.65931 2.63383 6.5874 2.65596 6.16143 3.03768C5.90142 3.27002 5.66354 3.79004 5.65248 4.13303C5.64141 4.31559 5.61375 4.39857 5.5529 4.41516C3.88221 4.90752 2.05109 5.47732 1.89066 5.5603C1.34299 5.83691 1 6.41777 1 7.06503C1 7.43014 1.23788 8.25995 3.79923 16.7572C5.33715 21.8689 6.63719 26.1562 6.68144 26.2835C6.89719 26.8533 7.52232 27.2903 8.1917 27.3346C8.52916 27.3567 8.67299 27.329 9.75174 27.0026C10.4045 26.8035 12.9825 26.0235 15.4774 25.2766L20.0137 23.9102L21.1478 23.7608C22.387 23.5949 22.647 23.5119 23.0177 23.1744C23.2777 22.9476 23.4381 22.6378 23.5266 22.2284C23.5819 21.974 23.5266 21.4816 23.0619 17.9134C22.7687 15.6951 22.5253 13.8031 22.5198 13.7091C22.5087 13.5376 22.6581 13.2941 26.182 7.9059C26.7186 7.08162 27.2054 6.3016 27.2552 6.1633C27.3991 5.80371 27.388 5.17306 27.2386 4.76922C27.0837 4.35984 26.7186 3.96153 26.3148 3.75685C25.8722 3.53556 25.1973 3.49684 24.7326 3.67386C24.2015 3.87302 23.9802 4.13303 22.8074 5.93095C22.2155 6.84374 21.7232 7.57951 21.7121 7.57398C21.7066 7.56845 21.5406 6.36245 21.347 4.90199C21.0372 2.53426 20.9819 2.20233 20.8491 1.93679C20.6001 1.42784 20.058 1.06273 19.4605 1.00187C19.278 0.979744 17.8618 1.14571 15.2838 1.4887ZM19.7537 2.06403C19.8533 2.13041 19.9695 2.26319 20.0193 2.35723C20.0746 2.45681 20.2572 3.6794 20.5227 5.65435L20.9431 8.79103L19.8754 10.423C19.289 11.3192 18.8022 12.066 18.7912 12.0771C18.7801 12.0882 17.8562 12.2154 16.7388 12.3648C15.6213 12.5141 14.62 12.6469 14.5204 12.6635C14.2715 12.7077 14.1221 12.8737 14.1221 13.095C14.1221 13.3384 14.2549 13.5099 14.4706 13.5431C14.5702 13.5597 15.4221 13.4656 16.3626 13.3329C17.3086 13.2001 18.0831 13.1005 18.0941 13.1061C18.0996 13.1116 17.7788 13.6261 17.3694 14.2512C16.7388 15.2138 16.6115 15.4461 16.5064 15.8334C16.4345 16.0823 16.346 16.287 16.3128 16.287C16.2796 16.287 14.8855 16.4751 13.2093 16.7019C10.2275 17.1002 10.1666 17.1113 10.0449 17.2551C9.97303 17.3326 9.91771 17.4598 9.91771 17.5372C9.91771 17.6866 10.1888 18.0019 10.316 18.0019C10.3603 18.0019 11.6327 17.8415 13.1429 17.6424C14.6587 17.4432 15.9255 17.2828 15.9698 17.2828C16.0251 17.2828 15.9919 17.4432 15.8536 17.9024C15.7098 18.3726 15.6711 18.5883 15.6932 18.7654C15.7872 19.479 16.4124 19.916 17.126 19.7611C17.3528 19.7169 17.5298 19.5841 18.426 18.8207C18.9958 18.3339 19.5656 17.8304 19.6984 17.7032C19.8312 17.5815 20.3291 16.8734 20.8048 16.1376C21.2806 15.4019 21.69 14.8155 21.7066 14.8376C21.7453 14.8819 22.6415 21.7195 22.6415 21.9629C22.6415 22.057 22.5862 22.2174 22.5198 22.317C22.2653 22.6931 22.2487 22.6931 20.2848 22.9531C11.9922 24.0485 9.88451 24.314 9.70749 24.2808C9.45301 24.2366 9.17088 23.9489 9.09343 23.6723C9.02704 23.4289 6.54314 4.5424 6.54314 4.27686C6.54314 3.95047 6.86953 3.55216 7.19039 3.48577C7.27891 3.46918 9.63557 3.15385 12.4348 2.7832C15.234 2.41808 17.8507 2.06956 18.2435 2.01424C19.1563 1.887 19.5214 1.89807 19.7537 2.06403ZM25.9773 4.61432C26.2595 4.80794 26.4199 5.07901 26.4475 5.41094C26.4697 5.68754 26.4033 5.89776 26.1931 6.21309C26.1488 6.26841 25.9552 6.1633 25.2747 5.72073L24.4117 5.15646L24.5777 4.91858C24.8986 4.45389 25.5403 4.31559 25.9773 4.61432ZM6.20568 8.82976C8.14744 23.6557 8.1917 23.9711 8.31894 24.2366C8.59554 24.8119 9.2096 25.1936 9.85132 25.1936C10.0228 25.1936 11.0352 25.083 12.0973 24.9447C13.154 24.8064 14.0446 24.6958 14.0723 24.7068C14.1166 24.7234 10.8194 25.7303 8.92746 26.2835C8.20276 26.4937 8.01467 26.4771 7.72147 26.1783C7.52785 25.9737 7.78786 26.8201 3.81029 13.6039C2.7592 10.1021 1.8962 7.15354 1.8962 7.04843C1.8962 6.82162 2.05663 6.53948 2.25578 6.40671C2.39408 6.3182 5.47545 5.35008 5.65801 5.33902C5.72993 5.33349 5.81844 5.90329 6.20568 8.82976ZM24.7769 6.50076L25.6343 7.06503L25.5403 7.20886C25.3079 7.56845 25.3965 7.58504 24.4615 6.97651L23.5985 6.41224L23.7424 6.17436C23.8198 6.04712 23.8917 5.94202 23.9028 5.94202C23.9139 5.94202 24.3066 6.19649 24.7769 6.50076ZM23.9692 7.75101C24.4228 8.04974 24.7935 8.31528 24.7824 8.3374C24.7769 8.36506 23.5598 10.2349 22.0883 12.492L19.4052 16.5968L18.5754 16.0602C18.1218 15.7614 17.7456 15.4848 17.7456 15.4406C17.7456 15.3521 23.0398 7.21992 23.1006 7.21439C23.1228 7.21439 23.5156 7.4578 23.9692 7.75101ZM18.0111 16.7904C18.3818 17.0394 18.6971 17.2496 18.7082 17.2606C18.7414 17.2883 18.5533 17.493 18.3099 17.6811L18.1052 17.847L17.8784 17.6424C17.7511 17.5262 17.5132 17.3768 17.3528 17.2994C17.1869 17.2275 17.0541 17.1445 17.0541 17.1168C17.0541 17.0338 17.2809 16.3423 17.3086 16.3423C17.3196 16.3423 17.6405 16.547 18.0111 16.7904ZM16.9877 18.1347C17.0707 18.179 17.1924 18.273 17.2643 18.3505L17.3915 18.4832L17.1592 18.6879C16.8937 18.9147 16.7609 18.9369 16.6502 18.7764C16.5839 18.6769 16.5839 18.6215 16.6558 18.3615C16.7 18.1956 16.7609 18.0573 16.7885 18.0573C16.8162 18.0573 16.9047 18.0905 16.9877 18.1347Z"/>
</mask>
<path d="M15.2838 1.4887C13.1374 1.77636 10.3603 2.14701 9.11002 2.31297C6.65931 2.63383 6.5874 2.65596 6.16143 3.03768C5.90142 3.27002 5.66354 3.79004 5.65248 4.13303C5.64141 4.31559 5.61375 4.39857 5.5529 4.41516C3.88221 4.90752 2.05109 5.47732 1.89066 5.5603C1.34299 5.83691 1 6.41777 1 7.06503C1 7.43014 1.23788 8.25995 3.79923 16.7572C5.33715 21.8689 6.63719 26.1562 6.68144 26.2835C6.89719 26.8533 7.52232 27.2903 8.1917 27.3346C8.52916 27.3567 8.67299 27.329 9.75174 27.0026C10.4045 26.8035 12.9825 26.0235 15.4774 25.2766L20.0137 23.9102L21.1478 23.7608C22.387 23.5949 22.647 23.5119 23.0177 23.1744C23.2777 22.9476 23.4381 22.6378 23.5266 22.2284C23.5819 21.974 23.5266 21.4816 23.0619 17.9134C22.7687 15.6951 22.5253 13.8031 22.5198 13.7091C22.5087 13.5376 22.6581 13.2941 26.182 7.9059C26.7186 7.08162 27.2054 6.3016 27.2552 6.1633C27.3991 5.80371 27.388 5.17306 27.2386 4.76922C27.0837 4.35984 26.7186 3.96153 26.3148 3.75685C25.8722 3.53556 25.1973 3.49684 24.7326 3.67386C24.2015 3.87302 23.9802 4.13303 22.8074 5.93095C22.2155 6.84374 21.7232 7.57951 21.7121 7.57398C21.7066 7.56845 21.5406 6.36245 21.347 4.90199C21.0372 2.53426 20.9819 2.20233 20.8491 1.93679C20.6001 1.42784 20.058 1.06273 19.4605 1.00187C19.278 0.979744 17.8618 1.14571 15.2838 1.4887ZM19.7537 2.06403C19.8533 2.13041 19.9695 2.26319 20.0193 2.35723C20.0746 2.45681 20.2572 3.6794 20.5227 5.65435L20.9431 8.79103L19.8754 10.423C19.289 11.3192 18.8022 12.066 18.7912 12.0771C18.7801 12.0882 17.8562 12.2154 16.7388 12.3648C15.6213 12.5141 14.62 12.6469 14.5204 12.6635C14.2715 12.7077 14.1221 12.8737 14.1221 13.095C14.1221 13.3384 14.2549 13.5099 14.4706 13.5431C14.5702 13.5597 15.4221 13.4656 16.3626 13.3329C17.3086 13.2001 18.0831 13.1005 18.0941 13.1061C18.0996 13.1116 17.7788 13.6261 17.3694 14.2512C16.7388 15.2138 16.6115 15.4461 16.5064 15.8334C16.4345 16.0823 16.346 16.287 16.3128 16.287C16.2796 16.287 14.8855 16.4751 13.2093 16.7019C10.2275 17.1002 10.1666 17.1113 10.0449 17.2551C9.97303 17.3326 9.91771 17.4598 9.91771 17.5372C9.91771 17.6866 10.1888 18.0019 10.316 18.0019C10.3603 18.0019 11.6327 17.8415 13.1429 17.6424C14.6587 17.4432 15.9255 17.2828 15.9698 17.2828C16.0251 17.2828 15.9919 17.4432 15.8536 17.9024C15.7098 18.3726 15.6711 18.5883 15.6932 18.7654C15.7872 19.479 16.4124 19.916 17.126 19.7611C17.3528 19.7169 17.5298 19.5841 18.426 18.8207C18.9958 18.3339 19.5656 17.8304 19.6984 17.7032C19.8312 17.5815 20.3291 16.8734 20.8048 16.1376C21.2806 15.4019 21.69 14.8155 21.7066 14.8376C21.7453 14.8819 22.6415 21.7195 22.6415 21.9629C22.6415 22.057 22.5862 22.2174 22.5198 22.317C22.2653 22.6931 22.2487 22.6931 20.2848 22.9531C11.9922 24.0485 9.88451 24.314 9.70749 24.2808C9.45301 24.2366 9.17088 23.9489 9.09343 23.6723C9.02704 23.4289 6.54314 4.5424 6.54314 4.27686C6.54314 3.95047 6.86953 3.55216 7.19039 3.48577C7.27891 3.46918 9.63557 3.15385 12.4348 2.7832C15.234 2.41808 17.8507 2.06956 18.2435 2.01424C19.1563 1.887 19.5214 1.89807 19.7537 2.06403ZM25.9773 4.61432C26.2595 4.80794 26.4199 5.07901 26.4475 5.41094C26.4697 5.68754 26.4033 5.89776 26.1931 6.21309C26.1488 6.26841 25.9552 6.1633 25.2747 5.72073L24.4117 5.15646L24.5777 4.91858C24.8986 4.45389 25.5403 4.31559 25.9773 4.61432ZM6.20568 8.82976C8.14744 23.6557 8.1917 23.9711 8.31894 24.2366C8.59554 24.8119 9.2096 25.1936 9.85132 25.1936C10.0228 25.1936 11.0352 25.083 12.0973 24.9447C13.154 24.8064 14.0446 24.6958 14.0723 24.7068C14.1166 24.7234 10.8194 25.7303 8.92746 26.2835C8.20276 26.4937 8.01467 26.4771 7.72147 26.1783C7.52785 25.9737 7.78786 26.8201 3.81029 13.6039C2.7592 10.1021 1.8962 7.15354 1.8962 7.04843C1.8962 6.82162 2.05663 6.53948 2.25578 6.40671C2.39408 6.3182 5.47545 5.35008 5.65801 5.33902C5.72993 5.33349 5.81844 5.90329 6.20568 8.82976ZM24.7769 6.50076L25.6343 7.06503L25.5403 7.20886C25.3079 7.56845 25.3965 7.58504 24.4615 6.97651L23.5985 6.41224L23.7424 6.17436C23.8198 6.04712 23.8917 5.94202 23.9028 5.94202C23.9139 5.94202 24.3066 6.19649 24.7769 6.50076ZM23.9692 7.75101C24.4228 8.04974 24.7935 8.31528 24.7824 8.3374C24.7769 8.36506 23.5598 10.2349 22.0883 12.492L19.4052 16.5968L18.5754 16.0602C18.1218 15.7614 17.7456 15.4848 17.7456 15.4406C17.7456 15.3521 23.0398 7.21992 23.1006 7.21439C23.1228 7.21439 23.5156 7.4578 23.9692 7.75101ZM18.0111 16.7904C18.3818 17.0394 18.6971 17.2496 18.7082 17.2606C18.7414 17.2883 18.5533 17.493 18.3099 17.6811L18.1052 17.847L17.8784 17.6424C17.7511 17.5262 17.5132 17.3768 17.3528 17.2994C17.1869 17.2275 17.0541 17.1445 17.0541 17.1168C17.0541 17.0338 17.2809 16.3423 17.3086 16.3423C17.3196 16.3423 17.6405 16.547 18.0111 16.7904ZM16.9877 18.1347C17.0707 18.179 17.1924 18.273 17.2643 18.3505L17.3915 18.4832L17.1592 18.6879C16.8937 18.9147 16.7609 18.9369 16.6502 18.7764C16.5839 18.6769 16.5839 18.6215 16.6558 18.3615C16.7 18.1956 16.7609 18.0573 16.7885 18.0573C16.8162 18.0573 16.9047 18.0905 16.9877 18.1347Z" fill="#080808"/>
<path d="M15.2838 1.4887C13.1374 1.77636 10.3603 2.14701 9.11002 2.31297C6.65931 2.63383 6.5874 2.65596 6.16143 3.03768C5.90142 3.27002 5.66354 3.79004 5.65248 4.13303C5.64141 4.31559 5.61375 4.39857 5.5529 4.41516C3.88221 4.90752 2.05109 5.47732 1.89066 5.5603C1.34299 5.83691 1 6.41777 1 7.06503C1 7.43014 1.23788 8.25995 3.79923 16.7572C5.33715 21.8689 6.63719 26.1562 6.68144 26.2835C6.89719 26.8533 7.52232 27.2903 8.1917 27.3346C8.52916 27.3567 8.67299 27.329 9.75174 27.0026C10.4045 26.8035 12.9825 26.0235 15.4774 25.2766L20.0137 23.9102L21.1478 23.7608C22.387 23.5949 22.647 23.5119 23.0177 23.1744C23.2777 22.9476 23.4381 22.6378 23.5266 22.2284C23.5819 21.974 23.5266 21.4816 23.0619 17.9134C22.7687 15.6951 22.5253 13.8031 22.5198 13.7091C22.5087 13.5376 22.6581 13.2941 26.182 7.9059C26.7186 7.08162 27.2054 6.3016 27.2552 6.1633C27.3991 5.80371 27.388 5.17306 27.2386 4.76922C27.0837 4.35984 26.7186 3.96153 26.3148 3.75685C25.8722 3.53556 25.1973 3.49684 24.7326 3.67386C24.2015 3.87302 23.9802 4.13303 22.8074 5.93095C22.2155 6.84374 21.7232 7.57951 21.7121 7.57398C21.7066 7.56845 21.5406 6.36245 21.347 4.90199C21.0372 2.53426 20.9819 2.20233 20.8491 1.93679C20.6001 1.42784 20.058 1.06273 19.4605 1.00187C19.278 0.979744 17.8618 1.14571 15.2838 1.4887ZM19.7537 2.06403C19.8533 2.13041 19.9695 2.26319 20.0193 2.35723C20.0746 2.45681 20.2572 3.6794 20.5227 5.65435L20.9431 8.79103L19.8754 10.423C19.289 11.3192 18.8022 12.066 18.7912 12.0771C18.7801 12.0882 17.8562 12.2154 16.7388 12.3648C15.6213 12.5141 14.62 12.6469 14.5204 12.6635C14.2715 12.7077 14.1221 12.8737 14.1221 13.095C14.1221 13.3384 14.2549 13.5099 14.4706 13.5431C14.5702 13.5597 15.4221 13.4656 16.3626 13.3329C17.3086 13.2001 18.0831 13.1005 18.0941 13.1061C18.0996 13.1116 17.7788 13.6261 17.3694 14.2512C16.7388 15.2138 16.6115 15.4461 16.5064 15.8334C16.4345 16.0823 16.346 16.287 16.3128 16.287C16.2796 16.287 14.8855 16.4751 13.2093 16.7019C10.2275 17.1002 10.1666 17.1113 10.0449 17.2551C9.97303 17.3326 9.91771 17.4598 9.91771 17.5372C9.91771 17.6866 10.1888 18.0019 10.316 18.0019C10.3603 18.0019 11.6327 17.8415 13.1429 17.6424C14.6587 17.4432 15.9255 17.2828 15.9698 17.2828C16.0251 17.2828 15.9919 17.4432 15.8536 17.9024C15.7098 18.3726 15.6711 18.5883 15.6932 18.7654C15.7872 19.479 16.4124 19.916 17.126 19.7611C17.3528 19.7169 17.5298 19.5841 18.426 18.8207C18.9958 18.3339 19.5656 17.8304 19.6984 17.7032C19.8312 17.5815 20.3291 16.8734 20.8048 16.1376C21.2806 15.4019 21.69 14.8155 21.7066 14.8376C21.7453 14.8819 22.6415 21.7195 22.6415 21.9629C22.6415 22.057 22.5862 22.2174 22.5198 22.317C22.2653 22.6931 22.2487 22.6931 20.2848 22.9531C11.9922 24.0485 9.88451 24.314 9.70749 24.2808C9.45301 24.2366 9.17088 23.9489 9.09343 23.6723C9.02704 23.4289 6.54314 4.5424 6.54314 4.27686C6.54314 3.95047 6.86953 3.55216 7.19039 3.48577C7.27891 3.46918 9.63557 3.15385 12.4348 2.7832C15.234 2.41808 17.8507 2.06956 18.2435 2.01424C19.1563 1.887 19.5214 1.89807 19.7537 2.06403ZM25.9773 4.61432C26.2595 4.80794 26.4199 5.07901 26.4475 5.41094C26.4697 5.68754 26.4033 5.89776 26.1931 6.21309C26.1488 6.26841 25.9552 6.1633 25.2747 5.72073L24.4117 5.15646L24.5777 4.91858C24.8986 4.45389 25.5403 4.31559 25.9773 4.61432ZM6.20568 8.82976C8.14744 23.6557 8.1917 23.9711 8.31894 24.2366C8.59554 24.8119 9.2096 25.1936 9.85132 25.1936C10.0228 25.1936 11.0352 25.083 12.0973 24.9447C13.154 24.8064 14.0446 24.6958 14.0723 24.7068C14.1166 24.7234 10.8194 25.7303 8.92746 26.2835C8.20276 26.4937 8.01467 26.4771 7.72147 26.1783C7.52785 25.9737 7.78786 26.8201 3.81029 13.6039C2.7592 10.1021 1.8962 7.15354 1.8962 7.04843C1.8962 6.82162 2.05663 6.53948 2.25578 6.40671C2.39408 6.3182 5.47545 5.35008 5.65801 5.33902C5.72993 5.33349 5.81844 5.90329 6.20568 8.82976ZM24.7769 6.50076L25.6343 7.06503L25.5403 7.20886C25.3079 7.56845 25.3965 7.58504 24.4615 6.97651L23.5985 6.41224L23.7424 6.17436C23.8198 6.04712 23.8917 5.94202 23.9028 5.94202C23.9139 5.94202 24.3066 6.19649 24.7769 6.50076ZM23.9692 7.75101C24.4228 8.04974 24.7935 8.31528 24.7824 8.3374C24.7769 8.36506 23.5598 10.2349 22.0883 12.492L19.4052 16.5968L18.5754 16.0602C18.1218 15.7614 17.7456 15.4848 17.7456 15.4406C17.7456 15.3521 23.0398 7.21992 23.1006 7.21439C23.1228 7.21439 23.5156 7.4578 23.9692 7.75101ZM18.0111 16.7904C18.3818 17.0394 18.6971 17.2496 18.7082 17.2606C18.7414 17.2883 18.5533 17.493 18.3099 17.6811L18.1052 17.847L17.8784 17.6424C17.7511 17.5262 17.5132 17.3768 17.3528 17.2994C17.1869 17.2275 17.0541 17.1445 17.0541 17.1168C17.0541 17.0338 17.2809 16.3423 17.3086 16.3423C17.3196 16.3423 17.6405 16.547 18.0111 16.7904ZM16.9877 18.1347C17.0707 18.179 17.1924 18.273 17.2643 18.3505L17.3915 18.4832L17.1592 18.6879C16.8937 18.9147 16.7609 18.9369 16.6502 18.7764C16.5839 18.6769 16.5839 18.6215 16.6558 18.3615C16.7 18.1956 16.7609 18.0573 16.7885 18.0573C16.8162 18.0573 16.9047 18.0905 16.9877 18.1347Z" stroke="#080808" stroke-width="0.2" mask="url(#path-1-outside-1_10704_2472)"/>
<path d="M14.6462 4.81352L14.6463 4.81351C15.5868 4.68903 16.4637 4.57424 17.1179 4.48986C17.7702 4.40573 18.2048 4.35136 18.257 4.34846L18.257 4.34844L18.2583 4.3484C18.4728 4.34219 18.6401 4.47621 18.7174 4.64674C18.7948 4.81728 18.7855 5.03181 18.6395 5.19016L18.6395 5.19017L18.6388 5.19093C18.6331 5.19691 18.6276 5.20348 18.6218 5.21042C18.6016 5.2347 18.5776 5.26342 18.5257 5.28637C18.4641 5.31363 18.356 5.33861 18.1357 5.37436C17.7366 5.43911 16.9495 5.5418 15.3505 5.75042C15.1694 5.77404 14.978 5.79902 14.7755 5.82545L14.769 5.77587L14.7756 5.82544C13.2435 6.02732 12.3976 6.13532 11.9174 6.18382C11.6777 6.20804 11.5271 6.21764 11.4271 6.2164C11.3269 6.21514 11.2722 6.20301 11.2277 6.1799C10.9479 6.03677 10.884 5.66161 11.0844 5.4126L11.0845 5.41249C11.1166 5.37286 11.1598 5.34453 11.2509 5.31632C11.3404 5.28857 11.4825 5.25907 11.7183 5.22035C12.1908 5.14274 13.0507 5.02644 14.6462 4.81352Z" fill="#080808" stroke="#080808" stroke-width="0.1"/>
<path d="M13.8388 8.79663L13.8389 8.79662C15.1251 8.62512 16.3174 8.46882 17.2026 8.35471C17.6452 8.29766 18.0111 8.25115 18.2736 8.21854C18.5344 8.18616 18.6964 8.16708 18.7279 8.16558V8.16557L18.729 8.16554C18.9606 8.15945 19.1399 8.29251 19.2203 8.46553C19.3008 8.6388 19.2829 8.85488 19.1187 9.00979C19.0609 9.06437 18.9874 9.10195 18.8709 9.13431C18.7554 9.16641 18.5934 9.19443 18.3555 9.22762L18.3554 9.22764C15.8464 9.57065 13.596 9.86526 11.9583 10.0686C11.1394 10.1703 10.4736 10.2491 10.005 10.2998C9.77081 10.3252 9.58557 10.3435 9.45507 10.3541C9.3899 10.3594 9.33784 10.3629 9.29995 10.3642C9.28108 10.3649 9.26502 10.3651 9.2523 10.3647C9.24596 10.3645 9.2398 10.3642 9.2342 10.3635C9.22944 10.363 9.22168 10.3619 9.21392 10.3589L9.23172 10.3122L9.21472 10.3592C9.06441 10.3048 8.96968 10.1661 8.93734 10.0149C8.90496 9.86353 8.93298 9.69123 9.03796 9.56155L9.07682 9.59301L9.03778 9.56177C9.07065 9.52069 9.12195 9.49356 9.23506 9.46375C9.34936 9.43363 9.53738 9.39837 9.85605 9.3486C10.4943 9.24892 11.665 9.08979 13.8388 8.79663Z" fill="#080808" stroke="#080808" stroke-width="0.1"/>
<path d="M10.5748 13.1119L10.5751 13.1118C11.0773 13.0456 11.5835 12.9844 11.7023 12.9787L11.7023 12.9787L11.7033 12.9787C12.026 12.9695 12.2102 13.1947 12.2316 13.4335C12.253 13.6721 12.1125 13.9278 11.796 13.9797C11.4683 14.0352 10.979 14.099 10.5609 14.1453C10.3518 14.1685 10.16 14.1874 10.0147 14.1988C9.94216 14.2045 9.88071 14.2084 9.83432 14.2099C9.81118 14.2107 9.79119 14.2109 9.77515 14.2104C9.7611 14.21 9.74434 14.2089 9.7314 14.2049L9.73139 14.2049L9.72996 14.2044C9.644 14.1747 9.55493 14.0919 9.48891 14.0022C9.42301 13.9127 9.36992 13.8024 9.36992 13.7091C9.36992 13.6652 9.3872 13.6091 9.41101 13.5564C9.43543 13.5024 9.46968 13.4455 9.50938 13.3997L9.50937 13.3997L9.50953 13.3996C9.54005 13.3647 9.57051 13.3342 9.6134 13.3078C9.65584 13.2818 9.70781 13.2614 9.7799 13.2424C9.92251 13.2048 10.1557 13.1698 10.5748 13.1119Z" fill="#080808" stroke="#080808" stroke-width="0.1"/>
<path d="M12.2894 20.6629L12.2895 20.6629C13.2314 20.5331 13.7448 20.4662 14.0431 20.4543C14.1922 20.4484 14.2929 20.4558 14.3684 20.4786C14.4468 20.5023 14.4948 20.5414 14.5399 20.5896C14.5901 20.6427 14.6257 20.6947 14.6453 20.7568C14.6647 20.8183 14.6671 20.8852 14.6585 20.9659C14.6517 21.0571 14.6421 21.1408 14.5931 21.2108C14.5433 21.282 14.4591 21.3309 14.3249 21.3728C14.0581 21.4561 13.5527 21.523 12.5904 21.6471L12.5903 21.6471C11.8108 21.7467 11.3708 21.7994 11.1084 21.8182C10.8474 21.8369 10.7516 21.8232 10.6689 21.7802L10.6689 21.7802L10.6685 21.78C10.5813 21.7335 10.5168 21.6822 10.4756 21.6098C10.4348 21.538 10.4207 21.4518 10.4207 21.3431C10.4207 21.1484 10.5094 20.9752 10.6565 20.9151L10.6565 20.9151L10.6568 20.9149C10.6689 20.9101 10.6916 20.9051 10.7169 20.9C10.7444 20.8945 10.7813 20.8879 10.8261 20.8802C10.9158 20.8648 11.0387 20.8452 11.1858 20.8227C11.48 20.7777 11.8716 20.721 12.2894 20.6629Z" fill="#080808" stroke="#080808" stroke-width="0.1"/>
</svg>
