<svg width="68" height="40" viewBox="0 0 68 40" fill="none" xmlns="http://www.w3.org/2000/svg">
<path d="M68 32.1936C67.5885 33.4262 66.9968 34.5295 65.8243 35.2196C64.5134 35.9915 63.1406 36.119 61.7696 35.4672C60.6972 34.9556 59.6776 34.3274 58.6435 33.7375C55.805 32.1171 52.9757 30.4821 50.1335 28.8726C49.9668 28.7988 49.8275 28.6742 49.7357 28.5166C49.6438 28.3591 49.604 28.1766 49.6219 27.9951C49.6401 22.6386 49.6401 17.2821 49.6219 11.9256C49.6219 11.4777 49.7421 11.221 50.1445 10.9898C53.7695 8.92148 57.4109 6.8823 60.9849 4.72843C63.8616 2.99331 67.4374 4.57549 67.9344 7.77445C67.9496 7.81575 67.9711 7.85445 67.9982 7.88915L68 32.1936Z" fill="#080808"/>
<path d="M22.9543 0.00728277C28.0432 0.00728277 33.132 -0.00546208 38.2209 0.00728277C42.0443 0.0200276 44.9574 2.31228 45.7458 5.91543C45.8704 6.5454 45.9272 7.18691 45.9151 7.82897C45.9151 15.9274 45.9151 24.0259 45.9151 32.1243C45.9151 36.1098 43.4845 39.1249 39.7138 39.8258C39.1896 39.91 38.6588 39.946 38.128 39.9332C28.0159 39.9332 17.9044 39.9332 7.79344 39.9332C3.96999 39.9332 1.07327 37.7211 0.202978 34.1744C0.0591902 33.5494 -0.0086631 32.9094 0.000883454 32.2681C0.000883454 24.0823 0.000883454 15.8959 0.000883454 7.70881C0.000883454 3.22991 3.18892 0.0254897 7.68238 0.00728277C12.784 -0.00910346 17.8637 0.00728277 22.9543 0.00728277Z" fill="#080808"/>
<path d="M22.7818 19.4995L22.8971 21.1954C33.4463 26.9438 34.1758 18.6986 34.3944 15.8866C34.6119 13.0712 36.8907 10.7456 36.8907 10.7456C25.4436 10.0658 22.7812 19.4995 22.7812 19.4995H22.7818ZM33.3093 13.5953C33.0101 14.415 32.8012 15.285 32.832 16.1606C32.9131 18.3584 32.3925 22.8509 27.2989 21.9467C25.4065 21.4757 23.48 19.8146 23.48 19.8146C23.48 19.8146 27.3114 12.3765 33.9201 12.3828C33.9201 12.3828 33.6238 12.7413 33.3093 13.5953Z" fill="#F5C518"/>
<path d="M31.9654 24.4937C31.0771 20.3009 24.2122 19.7181 22.8125 19.9921C22.8125 19.9921 23.3953 21.4197 23.4764 21.9249C23.7287 23.4713 23.4267 27.0157 23.8628 28.1813C24.2995 29.3441 25.3436 31.043 28.0123 30.6536C30.6775 30.2672 32.6915 27.9382 31.9654 24.4937ZM29.6089 28.3686C28.2406 29.5531 26.5287 29.3538 25.3442 27.985C24.1597 26.6195 24.2533 21.7286 24.2533 21.7286C24.2533 21.7286 28.7515 22.3833 29.9366 23.7516C31.1211 25.1171 30.9744 27.1841 29.6089 28.3686Z" fill="#F5C518"/>
<path d="M23.7508 13.5429C24.0188 13.5429 24.2361 13.3257 24.2361 13.0577C24.2361 12.7897 24.0188 12.5725 23.7508 12.5725C23.4829 12.5725 23.2656 12.7897 23.2656 13.0577C23.2656 13.3257 23.4829 13.5429 23.7508 13.5429Z" fill="#F5C518" stroke="white" stroke-width="0.057084" stroke-miterlimit="10"/>
<path d="M22.4219 16.9487C22.4219 16.9487 24.6561 15.2356 25.4542 13.9946C25.8281 13.4135 25.6574 12.6451 25.0409 12.3334C24.0339 11.8242 23.4768 12.8672 23.4768 12.8672" fill="#F5C518"/>
<path d="M22.4219 16.9487C22.4219 16.9487 24.6561 15.2356 25.4542 13.9946C25.8281 13.4135 25.6574 12.6451 25.0409 12.3334C24.0339 11.8242 23.4768 12.8672 23.4768 12.8672" stroke="#F5C518" stroke-width="0.057084" stroke-miterlimit="10"/>
<path d="M21.4149 13.5427C21.6829 13.5427 21.9001 13.3255 21.9001 13.0575C21.9001 12.7895 21.6829 12.5723 21.4149 12.5723C21.1469 12.5723 20.9297 12.7895 20.9297 13.0575C20.9297 13.3255 21.1469 13.5427 21.4149 13.5427Z" fill="#F5C518" stroke="white" stroke-width="0.057084" stroke-miterlimit="10"/>
<path d="M22.7447 16.9484C22.7447 16.9484 20.5104 15.2353 19.7124 13.9943C19.3385 13.4132 19.5091 12.6449 20.1256 12.3332C21.1326 11.824 21.6897 12.8669 21.6897 12.8669" fill="#F5C518"/>
<path d="M22.7447 16.9484C22.7447 16.9484 20.5104 15.2353 19.7124 13.9943C19.3385 13.4132 19.5091 12.6449 20.1256 12.3332C21.1326 11.824 21.6897 12.8669 21.6897 12.8669" stroke="#F5C518" stroke-width="0.057084" stroke-miterlimit="10"/>
<path d="M22.4595 27.7064C21.15 20.9043 22.0542 17.9896 22.0542 17.9896L22.6153 17.6031L22.6433 17.8372L22.8614 17.9902C22.8614 17.9902 23.7684 20.9049 22.4595 27.707V27.7064Z" fill="#F5C518"/>
<path d="M8.03125 10.7458C8.03125 10.7458 10.31 13.0714 10.5281 15.8863C10.7462 18.6982 11.4757 26.944 22.0254 21.1951L22.1407 19.4991C22.1407 19.4991 19.4783 10.0665 8.03125 10.7458ZM11.0019 12.3824C17.6111 12.3762 21.442 19.8142 21.442 19.8142C21.442 19.8142 19.5154 21.4759 17.6231 21.9463C12.5295 22.8505 12.0089 18.358 12.0899 16.1603C12.1213 15.284 11.9124 14.4146 11.6127 13.5949C11.2976 12.7409 11.0019 12.3824 11.0019 12.3824Z" fill="#F5C518"/>
<path d="M16.9074 30.6537C19.576 31.0436 20.6201 29.3442 21.0568 28.1814C21.4935 27.0157 21.191 23.4708 21.4433 21.925C21.5243 21.4198 22.1072 19.9921 22.1072 19.9921C20.7075 19.7175 13.8431 20.3009 12.9543 24.4937C12.2282 27.9388 14.2415 30.2672 16.9074 30.6537ZM14.9836 23.7517C16.1681 22.3833 20.6669 21.7286 20.6669 21.7286C20.6669 21.7286 20.7605 26.6196 19.576 27.985C18.3916 29.3533 16.6802 29.5531 15.3113 28.3686C13.9458 27.1841 13.7991 25.1171 14.9842 23.7517H14.9836Z" fill="#F5C518"/>
<path d="M22.4968 18.0927C22.8984 18.0927 23.224 17.7671 23.224 17.3654C23.224 16.9638 22.8984 16.6382 22.4968 16.6382C22.0951 16.6382 21.7695 16.9638 21.7695 17.3654C21.7695 17.7671 22.0951 18.0927 22.4968 18.0927Z" fill="#F5C518"/>
</svg>
