<svg width="82" height="93" viewBox="0 0 82 93" fill="none" xmlns="http://www.w3.org/2000/svg">
<path d="M40.8782 0C41.552 0.370826 41.8113 0.92343 41.7944 1.69659C41.7507 3.56284 41.7944 5.42909 41.7774 7.29534C41.7774 8.24786 41.2708 8.84651 40.5146 8.84651C39.7584 8.84651 39.2592 8.24786 39.2543 7.29534C39.2543 5.42909 39.281 3.56042 39.2373 1.69659C39.2204 0.913736 39.4797 0.358708 40.1535 0H40.8782Z" fill="#080808"/>
<path d="M62.6285 9.60505C62.6586 9.85806 62.627 10.1146 62.5362 10.3527C62.4455 10.5908 62.2983 10.8033 62.1074 10.972C60.7186 12.3584 59.342 13.7544 57.9435 15.1311C57.306 15.7612 56.5523 15.7952 56.0263 15.2668C55.5004 14.7384 55.5173 14.0016 56.1596 13.3497C57.5581 11.9294 58.9784 10.5333 60.3817 9.11788C60.5601 8.91002 60.7987 8.76285 61.0645 8.69683C61.3304 8.63081 61.6101 8.64922 61.865 8.74948C62.0563 8.81229 62.2276 8.92448 62.3617 9.0747C62.4957 9.22493 62.5878 9.40787 62.6285 9.60505Z" fill="#080808"/>
<path d="M19.7266 8.66732C20.0975 8.64551 20.4077 8.87576 20.6961 9.15206C22.0849 10.5384 23.481 11.9175 24.8552 13.316C25.5096 13.9825 25.5532 14.6854 25.0297 15.238C24.5062 15.7906 23.733 15.7567 23.0495 15.0804C21.6341 13.6795 20.2251 12.2714 18.8226 10.8559C18.4033 10.4366 18.2458 9.94219 18.5148 9.37505C18.6166 9.14457 18.7886 8.95209 19.0062 8.82502C19.2238 8.69795 19.4759 8.64277 19.7266 8.66732Z" fill="#080808"/>
<path d="M66.9038 29.5305C67.8999 29.5305 68.8961 29.5159 69.8922 29.5305C70.7235 29.545 71.2834 30.0492 71.3028 30.7423C71.305 30.9174 71.2713 31.091 71.2039 31.2525C71.1364 31.414 71.0366 31.56 70.9106 31.6815C70.7846 31.803 70.635 31.8974 70.4711 31.9589C70.3072 32.0204 70.1325 32.0476 69.9576 32.039C67.904 32.0681 65.8503 32.0681 63.7966 32.039C62.9628 32.039 62.4466 31.4888 62.4514 30.7617C62.4563 30.0346 62.9507 29.5499 63.8233 29.5305C64.8485 29.5135 65.8737 29.5305 66.9038 29.5305Z" fill="#080808"/>
<path d="M14.2028 29.5377C15.1966 29.5377 16.1927 29.5377 17.1864 29.5377C18.0517 29.5522 18.5607 30.0079 18.5752 30.7495C18.5897 31.4912 18.0759 32.0268 17.2422 32.039C15.1933 32.0697 13.1437 32.0697 11.0932 32.039C10.2643 32.039 9.72383 31.4645 9.73353 30.7617C9.74322 30.0588 10.3007 29.5498 11.1272 29.5498C12.1524 29.5256 13.1776 29.5377 14.2028 29.5377Z" fill="#080808"/>
<path d="M81.0268 46.2927C80.9904 45.2384 80.5711 44.8118 79.5313 44.7972C78.5958 44.7972 77.6578 44.7972 76.7223 44.7972C75.7867 44.7972 74.604 45.1123 74.0974 44.6543C73.5157 44.1307 73.9423 42.8971 73.9181 41.9712C73.8841 40.6479 73.5206 40.2746 72.1803 40.2746H56.4214C61.1112 30.4514 56.448 21.949 51.2758 18.2068C48.2508 16.0124 44.6059 14.8373 40.8687 14.8517C37.1315 14.8661 33.4958 16.0691 30.4877 18.2868C25.1895 22.2277 20.8341 30.7204 25.4707 40.2746H8.70594C7.54741 40.2746 7.13296 40.6963 7.12326 41.8525C7.12326 42.6377 7.09175 43.4254 7.12326 44.2083C7.1475 44.693 6.98996 44.8263 6.51491 44.8166C4.97344 44.79 3.43196 44.8166 1.89291 44.8166C0.35386 44.8166 0 45.139 0 46.7314V86.7224C0 88.3633 0.3272 88.6953 1.93896 88.6953C10.308 88.6953 18.6795 88.7511 27.0485 88.6493C28.8445 88.6275 29.957 88.9741 30.5532 90.8039C31.0379 92.3018 32.2377 92.932 33.8737 92.9077C37.8606 92.8471 41.8573 92.7332 45.8371 92.9417C48.5371 93.0847 50.2603 92.2146 51.0601 89.6188C51.2855 88.8917 51.7872 88.6735 52.5725 88.6759C61.3342 88.705 70.0983 88.6953 78.86 88.6953C80.7553 88.6953 81.0195 88.4384 81.0195 86.5746V46.9253C81.0292 46.7144 81.034 46.5035 81.0268 46.2927ZM70.7478 42.7832C71.2665 42.7832 71.3901 42.931 71.3901 43.4376C71.3756 55.0713 71.3756 66.7051 71.3901 78.3389C71.3901 79.112 70.9975 79.0393 70.4934 79.0369C62.912 79.0369 55.3283 79.0538 47.7445 79.0199C45.6722 79.0199 43.646 79.0539 41.7749 80.5154C41.7749 75.8764 41.7749 71.4652 41.7749 67.0565C41.7749 66.5524 41.8961 66.3779 42.422 66.3924C43.2025 66.4118 43.9975 66.5088 44.7658 66.2906C46.3896 65.8326 47.3131 64.6159 47.9432 63.1665C48.5274 61.8141 49.0169 60.418 49.5089 59.0292C49.6689 58.5784 49.841 58.353 50.3839 58.353C51.7533 58.353 52.6937 57.5944 53.3384 56.431C54.8435 53.7141 54.32 49.95 52.0951 47.7784C51.8381 47.536 51.9108 47.3955 52.0514 47.187C52.9603 45.8346 53.8813 44.4919 54.7611 43.1225C54.972 42.7904 55.224 42.8001 55.5222 42.8001C60.595 42.7953 65.6726 42.8025 70.7478 42.7832ZM47.0489 58.3942C46.5011 59.8121 46.0988 61.1936 45.4614 62.4903C44.9936 63.4404 44.3222 63.9445 43.1807 63.8863C41.6489 63.8039 40.105 63.8185 38.5756 63.8863C37.594 63.9275 36.9687 63.5106 36.53 62.7084C35.7908 61.3584 35.4079 59.8751 34.8189 58.3966L47.0489 58.3942ZM32.085 55.8469C31.2439 55.8469 30.7883 55.5124 30.5435 54.7635C30.1206 53.493 30.1206 52.1197 30.5435 50.8492C30.7859 50.1003 31.2149 49.7295 32.0607 49.7343C37.9843 49.7586 43.9086 49.7586 49.8337 49.7343C50.6311 49.7343 51.0868 50.0543 51.317 50.7717C51.7672 52.098 51.7587 53.5371 51.2928 54.858C51.0504 55.5367 50.6287 55.8517 49.8677 55.8445C46.8768 55.8105 43.8835 55.8299 40.9 55.8299C37.9503 55.8348 35.0176 55.8106 32.085 55.8518V55.8469ZM41.1229 17.361C43.2113 17.3803 45.272 17.84 47.1706 18.7101C49.0692 19.5801 50.7628 20.8408 52.141 22.41C53.5191 23.9791 54.5508 25.8214 55.1685 27.8163C55.7862 29.8113 55.9761 31.9142 55.7257 33.9875C55.4058 36.6657 54.2424 39.0579 52.8755 41.3507C51.763 43.2194 50.4954 44.9863 49.269 46.7774C49.1652 46.9393 49.0177 47.0684 48.8436 47.1499C48.6694 47.2314 48.4757 47.2619 48.285 47.2379C45.837 47.2258 43.3891 47.2379 40.9412 47.2379H33.6895C33.3695 47.2379 33.0302 47.3106 32.7927 46.9665C30.6744 43.8884 28.43 40.8951 27.0315 37.3783C23.2336 27.8556 30.5823 17.1913 41.1229 17.361ZM10.468 42.7759C15.6967 42.8066 20.9254 42.8066 26.1542 42.7759C26.4011 42.7551 26.6486 42.8089 26.8647 42.9304C27.0807 43.0518 27.2553 43.2352 27.366 43.4569C28.1319 44.6833 28.9826 45.8588 29.7897 47.0634C29.923 47.2597 30.2114 47.4488 29.8212 47.7226C28.1392 48.9127 27.7902 50.7159 27.6884 52.5919C27.6202 53.8053 27.8559 55.0166 28.3743 56.1159C29.0141 57.4732 30.0151 58.3627 31.5905 58.3457C32.0753 58.3457 32.1989 58.5881 32.3176 58.9444C32.8024 60.2726 33.2871 61.6105 33.8058 62.9217C34.3099 64.1772 35.0516 65.2654 36.2634 65.9586C37.0051 66.3827 37.8122 66.4433 38.6362 66.3924C39.0119 66.373 39.247 66.3924 39.2446 66.9014C39.2276 71.3659 39.2446 75.8327 39.2446 80.4887C37.5795 79.2623 35.8684 78.9884 34.0409 78.9957C26.2123 79.0272 18.3838 78.9957 10.5552 79.0272C9.78206 79.0272 9.62937 78.7994 9.62937 78.0698C9.65361 66.5863 9.65361 55.1012 9.62937 43.6145C9.64391 42.9455 9.78448 42.771 10.468 42.7759ZM77.5318 86.1601C69.1312 86.1286 60.7283 86.1601 52.3253 86.1189C50.6893 86.1189 49.6592 86.7515 48.9515 88.1767C47.6354 90.8427 48.4668 90.2925 45.4105 90.3241C41.6028 90.3604 37.7928 90.3241 33.9876 90.3483C33.3356 90.3483 32.9769 90.1253 32.7248 89.5703C32.4388 88.9401 32.1407 88.3124 31.8062 87.7065C31.1955 86.5988 30.2575 86.1238 28.9754 86.1286C20.4924 86.1504 11.9925 86.1286 3.49983 86.1601C2.71212 86.1601 2.50369 85.9881 2.50853 85.1907C2.54731 79.0248 2.53034 72.8613 2.53034 66.6954C2.53034 60.5295 2.53035 54.366 2.51096 48.2001C2.51096 47.473 2.72182 47.2937 3.40772 47.3324C4.40386 47.3894 5.40243 47.3894 6.39857 47.3324C7.02146 47.2985 7.12568 47.5312 7.12568 48.0983C7.10387 52.2986 7.11357 56.4989 7.11357 60.7016V79.6501C7.11357 81.24 7.43835 81.5721 9.01133 81.5721C17.4434 81.5721 25.873 81.6012 34.3051 81.5527C36.5737 81.5406 38.183 82.4131 39.2252 84.4151C39.8723 85.6536 41.0648 85.7069 41.7289 84.4732C42.8995 82.2919 44.6591 81.5212 47.0828 81.543C55.3234 81.6181 63.5834 81.5721 71.8337 81.5721C73.6248 81.5721 73.9011 81.3006 73.9011 79.5483C73.9011 69.1215 73.8954 58.6956 73.8841 48.2704C73.8841 47.5215 74.0465 47.2791 74.8148 47.3324C75.8667 47.4027 76.9283 47.3639 77.985 47.3324C78.3655 47.3324 78.5546 47.427 78.5013 47.8341C78.4916 47.9851 78.4916 48.1365 78.5013 48.2874C78.5013 60.5852 78.5077 72.8847 78.5207 85.1858C78.5279 85.9881 78.3122 86.1529 77.5318 86.1505V86.1601Z" fill="#080808"/>
<path d="M20.3857 69.1046C21.7745 69.1046 23.1657 69.0925 24.5545 69.1046C25.5239 69.1046 26.0693 69.6063 26.0499 70.411C26.0305 71.2157 25.5118 71.6229 24.5714 71.6374C21.8246 71.6471 19.0777 71.6471 16.3308 71.6374C15.3904 71.6374 14.7869 71.0993 14.8136 70.3383C14.8403 69.5773 15.4098 69.1264 16.3139 69.1046C17.6663 69.0925 19.026 69.1046 20.3857 69.1046Z" fill="#080808"/>
<path d="M19.5811 63.4526C18.4929 63.4526 17.3998 63.4526 16.3164 63.4526C15.376 63.438 14.7749 62.9024 14.804 62.1389C14.8331 61.3755 15.4123 60.9271 16.314 60.9271C18.4904 60.9174 20.6661 60.9174 22.841 60.9271C23.745 60.9271 24.3243 61.4118 24.3534 62.1389C24.3825 62.9024 23.7814 63.4404 22.8434 63.455C21.7624 63.4647 20.6669 63.4526 19.5811 63.4526Z" fill="#080808"/>
<path d="M60.28 71.6422C58.9203 71.6422 57.5606 71.6422 56.2009 71.6422C55.2315 71.6422 54.6594 71.1575 54.6619 70.3746C54.6643 69.5918 55.2411 69.1119 56.213 69.1094C58.9324 69.0997 61.6518 69.0997 64.3712 69.1094C65.3407 69.1094 65.9103 69.6087 65.9079 70.3867C65.9054 71.1647 65.3407 71.6349 64.3591 71.6422C62.9994 71.6495 61.6397 71.6422 60.28 71.6422Z" fill="#080808"/>
<path d="M61.1549 63.4526C60.0691 63.4526 58.9736 63.4526 57.8926 63.4526C56.9232 63.438 56.3681 62.9315 56.3924 62.1414C56.4166 61.3512 56.9547 60.9295 57.8854 60.9295C60.0602 60.9198 62.2343 60.9198 64.4075 60.9295C65.3358 60.9295 65.8787 61.3852 65.9078 62.1414C65.9369 62.8976 65.3625 63.4477 64.4172 63.4623C63.329 63.4647 62.2383 63.4526 61.1549 63.4526Z" fill="#080808"/>
</svg>
