<svg width="466" height="673" viewBox="0 0 466 673" fill="none" xmlns="http://www.w3.org/2000/svg">
<path d="M98.279 7.73193C103.681 14.3423 106.605 22.6307 106.549 31.1671C106.492 36.0008 105.598 41.327 108.416 45.2558C110.546 48.2339 114.441 49.7343 116.17 52.9644C118.255 56.8474 116.48 61.7612 117.763 65.9763C119.572 71.9554 126.582 74.4639 130.74 79.1257C132.512 81.1872 133.752 83.6518 134.352 86.3036C134.951 88.9554 134.89 91.7137 134.176 94.3369C133.419 96.9491 132.049 99.3428 130.18 101.319C128.312 103.295 125.998 104.797 123.432 105.699C120.693 106.779 117.637 106.73 114.933 105.562C112.127 104.165 110.352 101.29 108.977 98.4833C106.217 92.9623 81.9682 63.1243 80.5938 57.0994" fill="#263238"/>
<path d="M80.6403 0.699074C70.721 -0.904509 61.1683 5.68164 57.0104 14.8221C52.8526 23.9625 52.7151 34.2941 52.4287 44.3738C52.1424 54.4535 51.4093 64.8997 46.2893 73.5361C43.0363 79.0226 37.9965 83.8448 37.2062 90.1561C36.496 95.8144 39.4283 101.519 38.4547 107.143C37.6071 112.045 33.873 116.306 34.0219 121.266C34.2052 127.245 40.3561 131.746 46.3237 131.907C52.2913 132.067 57.8809 128.94 62.5657 125.229C70.1984 119.169 76.3061 111.405 80.3998 102.561" fill="#263238"/>
<path d="M64.3175 24.3408C64.006 21.8456 64.1988 19.3133 64.8846 16.894C65.5705 14.4748 66.7353 12.2181 68.3101 10.2577C69.8848 8.29727 71.8373 6.67319 74.0517 5.48184C76.2661 4.29049 78.6973 3.55614 81.201 3.32238C91.2005 2.36023 100.1 9.81689 101.601 19.7591C102.918 28.4757 104.041 37.2725 104.006 40.4682C103.88 50.1012 98.2791 53.8467 95.9883 54.9807C95.1643 55.2764 94.3123 55.4875 93.4455 55.6106V55.6794L95.576 66.7441C96.5496 73.9946 92.5062 80.4891 85.2672 81.5085C78.0282 82.5279 72.3355 76.9956 71.2244 69.7451L64.3175 24.3408Z" fill="#FFBE9D"/>
<path d="M99.6296 23.9734C99.4692 24.2025 98.1978 23.5267 96.5713 23.7672C94.9448 24.0078 93.8567 24.9928 93.6505 24.821C93.4443 24.6492 93.6505 24.3628 94.1545 23.9047C94.7808 23.2945 95.5814 22.8942 96.4453 22.7593C97.2929 22.6285 98.16 22.7731 98.9194 23.1716C99.4921 23.5381 99.7097 23.8818 99.6296 23.9734Z" fill="#263238"/>
<path d="M85.1296 27.5012C84.9692 27.7303 83.6978 27.043 82.0599 27.2835C80.4219 27.5241 79.3567 28.5206 79.1505 28.3488C78.9443 28.177 79.1505 27.8792 79.6545 27.4324C80.2808 26.8223 81.0814 26.422 81.9453 26.287C82.794 26.1662 83.6593 26.3144 84.4194 26.7108C84.9807 27.0659 85.2097 27.3981 85.1296 27.5012Z" fill="#263238"/>
<path d="M91.0752 36.2407C91.8945 35.8465 92.7605 35.5579 93.6524 35.3816C94.0647 35.2785 94.4427 35.1411 94.4771 34.8433C94.44 34.4248 94.2807 34.0264 94.0189 33.6978L92.3123 30.651C89.9412 26.3901 88.1658 22.8622 88.3377 22.7591C88.5095 22.656 90.6285 26.0579 92.9193 30.3189C93.5035 31.3726 94.0647 32.3806 94.5687 33.3313C94.9016 33.7971 95.0634 34.3635 95.0269 34.9349C94.9891 35.0912 94.9157 35.2366 94.8124 35.3598C94.709 35.483 94.5786 35.5806 94.4313 35.6451C94.2079 35.7428 93.9732 35.812 93.7326 35.8512C92.8676 36.0964 91.9742 36.2273 91.0752 36.2407Z" fill="#263238"/>
<path d="M93.3537 55.6216C93.3537 55.6216 87.1341 57.0534 78.5664 53.4683C78.5664 53.4683 82.2661 61.4289 93.9379 58.5997L93.3537 55.6216Z" fill="#EB996E"/>
<path d="M84.2925 23.2285C84.2009 23.6981 82.54 23.721 80.6616 24.2364C78.7831 24.7519 77.3055 25.4849 76.9962 25.1299C76.8588 24.958 77.0649 24.4999 77.6262 23.9844C78.3819 23.3381 79.2749 22.8722 80.2374 22.6221C81.1999 22.3721 82.2067 22.3444 83.1815 22.5412C83.9374 22.713 84.2925 23.0108 84.2925 23.2285Z" fill="#263238"/>
<path d="M98.2903 20.3648C98.0612 20.7772 96.8814 20.5596 95.5299 20.7314C94.1783 20.9032 93.0672 21.3499 92.7465 20.9948C92.6091 20.823 92.7465 20.4336 93.1818 20.0098C93.7824 19.4773 94.5362 19.1485 95.3351 19.0705C96.1241 18.9755 96.9233 19.1233 97.626 19.4943C98.1758 19.8036 98.3934 20.1587 98.2903 20.3648Z" fill="#263238"/>
<path d="M81.5896 29.6081C81.6148 29.7854 81.6749 29.9559 81.7665 30.1097C81.8581 30.2635 81.9794 30.3976 82.1233 30.5041C82.2671 30.6107 82.4307 30.6876 82.6046 30.7304C82.7784 30.7732 82.959 30.7811 83.1359 30.7535C83.3079 30.7337 83.4742 30.6799 83.6252 30.5952C83.7763 30.5105 83.9089 30.3966 84.0155 30.2602C84.1221 30.1238 84.2005 29.9675 84.2461 29.8005C84.2918 29.6335 84.3037 29.4591 84.2813 29.2874C84.2276 28.9307 84.0346 28.6099 83.7448 28.3952C83.455 28.1805 83.0919 28.0895 82.735 28.142C82.5624 28.1603 82.3952 28.2131 82.2434 28.2973C82.0917 28.3816 81.9584 28.4955 81.8515 28.6322C81.7446 28.769 81.6664 28.9259 81.6214 29.0936C81.5764 29.2612 81.5656 29.4362 81.5896 29.6081Z" fill="#263238"/>
<path d="M96.0339 26.4821C96.0877 26.8388 96.2806 27.1596 96.5704 27.3743C96.8603 27.589 97.2234 27.6801 97.5802 27.6275C97.7522 27.6077 97.9186 27.5539 98.0696 27.4692C98.2206 27.3845 98.3533 27.2707 98.4598 27.1342C98.5664 26.9978 98.6448 26.8415 98.6904 26.6745C98.7361 26.5075 98.7481 26.3331 98.7257 26.1614C98.6719 25.8047 98.479 25.4839 98.1891 25.2692C97.8993 25.0545 97.5362 24.9635 97.1793 25.016C97.0067 25.0343 96.8396 25.0871 96.6878 25.1714C96.536 25.2556 96.4027 25.3695 96.2958 25.5063C96.189 25.6431 96.1107 25.7999 96.0657 25.9676C96.0207 26.1352 96.0099 26.3102 96.0339 26.4821Z" fill="#263238"/>
<path d="M93.6396 39.4021C93.1899 39.2622 92.7055 39.2841 92.2703 39.464C91.8351 39.6439 91.4766 39.9705 91.2571 40.3871C91.0474 40.7697 90.9623 41.2081 91.0136 41.6414C91.0649 42.0746 91.2501 42.481 91.5434 42.804C91.8556 43.1106 92.2666 43.2963 92.7031 43.3277C93.1395 43.3592 93.573 43.2345 93.9259 42.9758C94.3677 42.5735 94.6349 42.0145 94.6704 41.418C94.7482 40.8712 94.6174 40.3151 94.3039 39.8603C94.143 39.6379 93.9133 39.4747 93.6503 39.3961C93.3874 39.3174 93.1058 39.3276 92.8492 39.425" fill="#EB996E"/>
<path d="M100.329 11.912C99.4298 8.28297 97.1863 5.13066 94.052 3.09233C91.4865 1.2392 88.439 0.169002 85.2782 0.0111545C82.0976 -0.125788 78.9923 1.00266 76.6417 3.14959C74.9737 4.80289 74.0198 7.04385 73.9843 9.39212L74.1676 7.78853C73.6863 9.09334 73.6863 10.527 74.1676 11.8318C74.4311 12.5306 74.7518 13.2407 75.0267 13.9394C75.8467 15.9585 77.3678 17.6139 79.3105 18.6013C80.1904 19.0732 81.1758 19.3136 82.1741 19.3C82.6739 19.2899 83.1654 19.171 83.6145 18.9514C84.0636 18.7318 84.4593 18.4168 84.7742 18.0285C85.4854 16.7869 85.706 15.3241 85.3927 13.928C86.1443 15.3076 87.2168 16.4862 88.5197 17.3642C89.1849 17.7893 89.9762 17.9724 90.7605 17.8827C91.5449 17.793 92.2744 17.436 92.8264 16.8717C93.7657 15.7263 93.3991 13.9165 92.8264 12.4962C93.7126 13.8359 94.9539 14.9027 96.4116 15.5774C96.7952 15.7974 97.2202 15.9355 97.6599 15.9828C98.0996 16.0301 98.5443 15.9857 98.9659 15.8523C99.3029 15.6851 99.5977 15.4436 99.8278 15.146C100.058 14.8484 100.218 14.5024 100.295 14.1341C100.465 13.4044 100.476 12.6467 100.329 11.912Z" fill="#263238"/>
<path d="M92.0486 14.9587C91.9455 14.9587 91.9684 13.5957 91.5217 11.5225C91.0064 8.76753 89.6214 6.2504 87.57 4.34069C86.4426 3.31541 85.0823 2.58023 83.6069 2.19876C82.3985 1.90219 81.1402 1.87094 79.9186 2.10713C78.7927 2.37029 77.7172 2.81519 76.7344 3.42436C76.7344 3.42436 76.9291 3.138 77.4331 2.77147C78.1564 2.26552 78.9685 1.90027 79.827 1.69478C81.1116 1.39406 82.4483 1.39406 83.7329 1.69478C85.3157 2.08992 86.7733 2.87783 87.9709 3.98562C90.1188 5.97407 91.5214 8.63779 91.9455 11.5339C92.0818 12.3901 92.1508 13.2556 92.1517 14.1225C92.1658 14.4051 92.131 14.688 92.0486 14.9587Z" fill="#455A64"/>
<path d="M197.541 148.502L153.5 131.034C153.5 131.034 130.947 101.448 131.416 100.875L115.575 118.217L138.598 149.361L191.963 161.869L201.126 159.326C199.11 149.601 197.541 148.502 197.541 148.502Z" fill="#FFBE9D"/>
<path d="M101.554 64.0975L95.5525 61.8066L69.6431 65.094V69.6756L68.8986 69.7673C63.3136 70.9547 57.9567 73.0356 53.0346 75.9296C48.424 78.7442 44.7606 82.8734 42.5153 87.7864C40.2701 92.6994 39.5456 98.1718 40.435 103.5C41.4888 110.052 43.5277 118.012 47.4679 122.617C54.9933 131.425 61.8658 120.544 61.8658 120.544C61.8658 120.544 66.5849 131.311 66.31 136.408C66.0809 140.68 64.2024 149.568 63.5953 152.34C63.5704 152.451 63.5683 152.566 63.5891 152.677C63.61 152.789 63.6534 152.895 63.7166 152.99C63.7798 153.084 63.8616 153.164 63.9569 153.226C64.0523 153.288 64.1592 153.329 64.2711 153.348L118.93 163.462L119.194 150.095L117.453 95.1153L114.99 73.7648C114.99 73.7648 115.07 63.5706 101.554 64.0975Z" fill="#F5C518"/>
<path d="M114.154 70.2139L135.001 100.327L118.221 120.761L114.154 70.2139Z" fill="#F5C518"/>
<path d="M118.656 133.579C118.581 132.932 118.555 132.282 118.576 131.631C118.576 130.28 118.576 128.504 118.507 126.34C118.406 120.529 117.989 114.729 117.259 108.964C116.4 102.206 115.083 96.1693 114.086 91.7823L112.872 86.6279C112.696 86.0045 112.566 85.369 112.482 84.7266C112.743 85.3217 112.95 85.9388 113.101 86.5707C113.456 87.7161 113.937 89.5144 114.487 91.6907C115.966 97.3421 117.091 103.08 117.854 108.872C118.591 114.661 118.95 120.492 118.931 126.328C118.931 128.619 118.874 130.383 118.805 131.631C118.811 132.283 118.761 132.935 118.656 133.579Z" fill="#263238"/>
<path d="M67.3404 87.7955C67.3404 87.8872 65.7597 87.8757 63.2283 88.0017C59.9254 88.1808 56.6404 88.6058 53.4007 89.2731C50.1617 89.9528 46.9767 90.8678 43.8708 92.0106C41.4883 92.8926 40.0566 93.5455 40.0107 93.4539C40.3044 93.2238 40.6281 93.0349 40.9729 92.8926C41.6029 92.549 42.5421 92.1137 43.7219 91.6212C49.9026 89.0689 56.508 87.7012 63.194 87.5894C64.4768 87.5894 65.4848 87.5894 66.2293 87.6581C66.6046 87.646 66.9794 87.6924 67.3404 87.7955Z" fill="#FAFAFA"/>
<path d="M115.622 101.575C114.784 101.88 113.91 102.072 113.022 102.148C108.786 102.766 104.495 102.912 100.227 102.583C99.3359 102.568 98.4504 102.437 97.5928 102.194C98.4768 102.115 99.3661 102.115 100.25 102.194C101.877 102.194 104.133 102.194 106.619 102.194C109.104 102.194 111.349 101.942 112.976 101.793C113.849 101.64 114.735 101.567 115.622 101.575Z" fill="#FAFAFA"/>
<path d="M125.185 87.9565C123.922 89.4153 122.41 90.6371 120.718 91.5646C119.121 92.6442 117.339 93.4207 115.46 93.8554C115.392 93.695 117.751 92.71 120.409 91.0148C123.066 89.3196 125.07 87.8191 125.185 87.9565Z" fill="#FAFAFA"/>
<path d="M116.765 73.9936C113.152 77.2445 108.547 79.1815 103.696 79.4916C103.696 79.3084 106.846 78.8273 110.466 77.281C114.085 75.7347 116.651 73.8447 116.765 73.9936Z" fill="#FAFAFA"/>
<path d="M117.9 124.896C117.563 125.122 117.202 125.311 116.823 125.457C116.101 125.801 115.059 126.224 113.73 126.717C110.278 127.957 106.715 128.863 103.09 129.42C99.4642 129.98 95.7928 130.183 92.1279 130.027C90.719 129.97 89.5851 129.867 88.8062 129.764C88.3984 129.737 87.9949 129.664 87.6035 129.546C87.6035 129.443 89.3445 129.546 92.1852 129.615C99.4677 129.683 106.713 128.569 113.639 126.316C116.25 125.457 117.865 124.804 117.9 124.896Z" fill="#FAFAFA"/>
<path d="M118.324 140.416C118.324 140.416 118.163 140.531 117.831 140.702L116.365 141.344C115.105 141.939 113.238 142.718 110.901 143.635C108.565 144.551 105.736 145.433 102.551 146.303C95.6287 148.168 88.5232 149.27 81.3611 149.591C78.0623 149.717 75.0957 149.705 72.5987 149.591C70.1017 149.476 68.0972 149.293 66.7113 149.098L65.1191 148.881C64.9316 148.867 64.7467 148.828 64.5693 148.766C64.7553 148.737 64.9447 148.737 65.1306 148.766L66.7342 148.869C68.1201 148.984 70.1704 149.098 72.6102 149.167C75.0499 149.236 78.0623 149.167 81.3382 149.052C84.6141 148.938 88.2107 148.526 91.9562 147.907C95.7018 147.289 99.2296 146.544 102.414 145.742C105.598 144.94 108.416 144.036 110.753 143.199C113.089 142.363 114.991 141.665 116.273 141.138L117.762 140.553C117.944 140.488 118.132 140.442 118.324 140.416Z" fill="#FAFAFA"/>
<path d="M17.8592 383.92L11.6625 411.903L0.357215 432.623C0.164966 432.977 0.04734 433.367 0.0116118 433.768C-0.0241163 434.169 0.0228138 434.573 0.149497 434.955C0.276181 435.337 0.479923 435.69 0.748129 435.99C1.01634 436.29 1.3433 436.532 1.70881 436.701C2.13312 436.896 2.59792 436.986 3.06427 436.964C3.53062 436.942 3.98491 436.809 4.38908 436.575C9.63508 433.551 28.8895 422.292 29.2217 420.219C29.6226 417.825 37.7207 391.137 37.7207 391.137L17.8592 383.92Z" fill="#F5C518"/>
<g opacity="0.6">
<path d="M1.70996 436.701L29.6925 418.375L29.3947 419.52C29.1498 420.542 28.5488 421.444 27.6994 422.063C25.4086 423.701 19.0287 428.099 4.48187 436.598C4.06423 436.843 3.59254 436.98 3.10887 436.998C2.62521 437.016 2.14461 436.914 1.70996 436.701Z" fill="white"/>
</g>
<g opacity="0.6">
<path d="M26.1752 407.962C25.7711 408.131 25.4435 408.442 25.2553 408.838C25.0671 409.233 25.0317 409.684 25.1558 410.104C25.3087 410.513 25.6124 410.847 26.0044 411.039C26.3964 411.231 26.8469 411.265 27.2634 411.135C27.6961 410.956 28.0463 410.622 28.2455 410.198C28.4447 409.774 28.4784 409.291 28.3401 408.844C28.1372 408.438 27.7869 408.126 27.3609 407.97C26.935 407.815 26.4656 407.828 26.0492 408.008" fill="white"/>
</g>
<path d="M11.0551 426.095C10.593 425.065 9.94447 424.129 9.14224 423.334C8.21824 422.691 7.18046 422.228 6.08398 421.971C6.08398 421.891 6.48488 421.765 7.16068 421.834C8.04007 421.947 8.86768 422.313 9.54314 422.888C10.2238 423.44 10.7259 424.181 10.9864 425.018C11.1811 425.671 11.1238 426.095 11.0551 426.095Z" fill="#263238"/>
<path d="M8.15742 429.336C7.99707 429.428 7.32127 428.305 5.98113 427.538C5.12625 427.141 4.24621 426.8 3.34668 426.518C3.84115 426.356 4.36712 426.314 4.88102 426.396C5.39492 426.478 5.88198 426.681 6.30186 426.988C7.82526 427.87 8.31778 429.302 8.15742 429.336Z" fill="#263238"/>
<path d="M15.9112 422.223C14.9372 421.142 13.8802 420.139 12.7499 419.222C11.5045 418.463 10.2026 417.8 8.85547 417.241C10.4046 417.209 11.9146 417.729 13.1164 418.707C14.4414 419.504 15.4339 420.752 15.9112 422.223Z" fill="#263238"/>
<path d="M18.5119 413.873C18.3974 414.022 17.0114 413.002 15.0757 412.441C13.1399 411.88 11.3874 411.972 11.376 411.777C12.6509 411.447 13.9913 411.467 15.2554 411.836C16.5196 412.205 17.6606 412.909 18.5577 413.873H18.5119Z" fill="#263238"/>
<path d="M20.5396 405.705C19.4222 405.015 18.2161 404.479 16.9544 404.113C15.6546 403.936 14.3369 403.936 13.0371 404.113C13.0371 404.044 13.3922 403.77 14.1253 403.552C15.0888 403.29 16.1003 403.258 17.0788 403.456C18.0573 403.655 18.9757 404.08 19.7607 404.697C20.3449 405.247 20.5854 405.66 20.5396 405.705Z" fill="#263238"/>
<path d="M17.3788 402.567C17.3796 402.204 17.4577 401.845 17.6078 401.514C17.9324 400.568 18.4469 399.699 19.1198 398.959C19.56 398.373 20.1793 397.947 20.8837 397.745C21.1236 397.706 21.3697 397.739 21.5902 397.842C21.8107 397.944 21.9956 398.11 22.1208 398.318C22.3313 398.745 22.3762 399.234 22.2468 399.692C21.9531 400.611 21.3491 401.399 20.5384 401.922C19.7276 402.444 18.7605 402.668 17.8025 402.556C16.8579 402.421 15.9742 402.01 15.2628 401.374C14.5515 400.738 14.0442 399.906 13.805 398.982C13.7501 398.747 13.7451 398.504 13.7905 398.267C13.8359 398.03 13.9306 397.806 14.0685 397.608C14.2268 397.423 14.4397 397.293 14.6766 397.238C14.9134 397.182 15.1618 397.203 15.3857 397.298C16.0331 397.621 16.5857 398.107 16.9893 398.707C17.5964 399.502 18.0578 400.398 18.3524 401.353C18.4919 401.695 18.5582 402.061 18.5471 402.43C18.0853 401.195 17.4405 400.037 16.6342 398.994C16.2588 398.504 15.7718 398.111 15.2139 397.848C15.0912 397.795 14.9546 397.783 14.8245 397.814C14.6944 397.845 14.5778 397.917 14.4923 398.02C14.4122 398.155 14.3608 398.305 14.3411 398.461C14.3214 398.616 14.3339 398.774 14.3778 398.925C14.6167 399.702 15.0703 400.396 15.6863 400.927C16.3023 401.458 17.0557 401.804 17.8598 401.926C18.67 402.02 19.4881 401.837 20.1808 401.406C20.8735 400.976 21.3999 400.323 21.6741 399.555C21.785 399.244 21.785 398.904 21.6741 398.593C21.6091 398.475 21.509 398.381 21.3878 398.324C21.2665 398.266 21.1303 398.248 20.9983 398.272C20.4013 398.436 19.8694 398.78 19.4749 399.257C18.5962 400.236 17.8877 401.355 17.3788 402.567Z" fill="#263238"/>
<g opacity="0.3">
<path d="M17.1038 386.956L15.7637 393.371L36.0261 396.738L37.7213 391.137L17.8254 383.921L17.1038 386.956Z" fill="black"/>
</g>
<path d="M108.347 394.275L106.675 416.634C106.675 416.634 128.85 425.797 128.942 430.012L85.416 428.328L86.5614 393.37L108.347 394.275Z" fill="#F5C518"/>
<g opacity="0.6">
<path d="M93.332 414.229C92.9095 414.342 92.5433 414.606 92.3026 414.971C92.062 415.337 91.9636 415.777 92.0262 416.21C92.1226 416.636 92.3776 417.009 92.7393 417.254C93.1009 417.499 93.5422 417.597 93.9734 417.528C94.4226 417.408 94.8118 417.127 95.0657 416.738C95.3195 416.349 95.4201 415.879 95.3479 415.42C95.2032 414.985 94.8958 414.623 94.4902 414.409C94.0846 414.196 93.6121 414.148 93.1716 414.275" fill="white"/>
</g>
<g opacity="0.6">
<path d="M85.4395 428.328L85.6914 424.8L127.327 427.698C127.327 427.698 129.24 428.614 128.965 429.989L85.4395 428.328Z" fill="white"/>
</g>
<path d="M107.408 416.44C107.408 416.657 106.331 416.715 105.266 417.356C104.201 417.998 103.605 418.868 103.41 418.776C103.215 418.685 103.582 417.471 104.888 416.715C106.194 415.959 107.465 416.245 107.408 416.44Z" fill="#263238"/>
<path d="M111.898 418.535C111.898 418.753 111.005 419.073 110.249 419.944C109.493 420.814 109.253 421.754 109.035 421.742C108.817 421.731 108.737 420.517 109.699 419.451C110.661 418.386 111.898 418.306 111.898 418.535Z" fill="#263238"/>
<path d="M114.28 424.067C114.085 424.067 113.833 423.025 114.417 421.891C115.001 420.757 116.021 420.322 116.101 420.505C116.181 420.688 115.551 421.284 115.081 422.223C114.612 423.162 114.486 424.056 114.28 424.067Z" fill="#263238"/>
<path d="M107.201 411.308C107.11 411.491 106.147 411.159 104.91 411.193C103.673 411.227 102.757 411.571 102.619 411.388C102.482 411.205 103.444 410.483 104.91 410.46C106.376 410.437 107.339 411.147 107.201 411.308Z" fill="#263238"/>
<g opacity="0.3">
<path d="M108.038 398.708L107.74 402.694L86.3779 401.663L86.5268 397.059L108.038 398.708Z" fill="black"/>
</g>
<path d="M107.488 406.782C106.768 406.956 106.014 406.924 105.312 406.69C104.518 406.525 103.748 406.26 103.021 405.9C102.597 405.691 102.187 405.454 101.795 405.19C101.556 405.043 101.34 404.862 101.154 404.652C101.027 404.487 100.959 404.286 100.959 404.079C100.959 403.872 101.027 403.67 101.154 403.506C101.265 403.361 101.41 403.245 101.575 403.167C101.74 403.09 101.922 403.053 102.104 403.059C102.38 403.071 102.654 403.117 102.918 403.197C103.376 403.331 103.821 403.507 104.246 403.724C104.97 404.077 105.631 404.545 106.205 405.11C107.179 406.083 107.488 406.897 107.419 406.931C107.35 406.965 106.858 406.312 105.861 405.499C105.276 405.042 104.638 404.657 103.96 404.354C103.556 404.186 103.143 404.041 102.723 403.918C102.265 403.781 101.875 403.77 101.749 403.918C101.623 404.067 101.749 404.033 101.749 404.17C101.887 404.322 102.045 404.453 102.219 404.56C102.586 404.816 102.969 405.049 103.364 405.259C104.025 405.623 104.719 405.922 105.438 406.152C106.135 406.313 106.82 406.524 107.488 406.782Z" fill="#263238"/>
<path d="M107.201 407.081C106.82 406.439 106.648 405.695 106.708 404.951C106.713 404.145 106.844 403.345 107.097 402.58C107.262 402.131 107.465 401.698 107.705 401.285C107.833 401.002 108.032 400.756 108.283 400.572C108.534 400.387 108.827 400.27 109.136 400.231C109.332 400.244 109.52 400.312 109.678 400.428C109.836 400.543 109.958 400.702 110.03 400.884C110.129 401.141 110.191 401.411 110.213 401.686C110.288 402.172 110.288 402.666 110.213 403.152C110.06 403.962 109.71 404.721 109.194 405.363C108.3 406.508 107.407 406.68 107.384 406.611C107.361 406.543 108.071 406.119 108.77 405.054C109.171 404.446 109.433 403.758 109.537 403.038C109.595 402.62 109.595 402.196 109.537 401.778C109.48 401.32 109.32 400.93 109.148 400.976C108.976 401.022 108.552 401.297 108.357 401.663C108.134 402.03 107.939 402.413 107.773 402.809C107.508 403.5 107.339 404.225 107.269 404.962C107.12 406.245 107.315 407.081 107.201 407.081Z" fill="#263238"/>
<path d="M63.356 153.142C63.356 153.142 56.4836 153.451 51.9019 176.955C47.3202 200.459 12.3965 390.907 12.3965 390.907L37.7216 391.136L85.4397 210.069L82.2669 396.772L107.993 398.742C107.993 398.742 127.293 192.235 127.465 180.219C127.694 165.237 119.092 150.083 119.092 150.083L63.356 153.142Z" fill="#263238"/>
<path d="M98.1637 151.137C98.324 151.137 95.6896 164.596 92.2877 181.124C88.8858 197.653 85.9994 211.031 85.839 210.997C85.6787 210.962 88.3016 197.538 91.7035 181.01C95.1054 164.481 98.0377 151.103 98.1637 151.137Z" fill="#455A64"/>
<path d="M102.104 154.493C102.104 154.424 102.791 154.218 103.582 154.917C103.806 155.12 103.984 155.37 104.103 155.649C104.221 155.928 104.278 156.229 104.269 156.532C104.24 156.915 104.103 157.282 103.874 157.59C103.645 157.898 103.333 158.135 102.975 158.273C102.625 158.431 102.238 158.489 101.857 158.438C101.476 158.387 101.117 158.231 100.821 157.986C100.6 157.779 100.425 157.526 100.308 157.246C100.192 156.965 100.136 156.663 100.145 156.36C100.145 155.306 100.856 154.939 100.867 155.008C100.674 155.429 100.572 155.886 100.569 156.348C100.585 156.581 100.646 156.808 100.75 157.017C100.855 157.225 101 157.411 101.176 157.562C101.402 157.718 101.664 157.815 101.937 157.843C102.21 157.871 102.486 157.831 102.739 157.725C102.992 157.619 103.214 157.451 103.386 157.236C103.557 157.022 103.672 156.768 103.719 156.497C103.736 156.265 103.706 156.032 103.631 155.812C103.557 155.591 103.439 155.388 103.284 155.214C102.723 154.561 102.093 154.584 102.104 154.493Z" fill="#455A64"/>
<path d="M101.017 163.794C101.017 163.726 101.727 163.794 102.162 164.745C102.273 165.016 102.323 165.309 102.309 165.601C102.295 165.894 102.218 166.18 102.082 166.44C101.885 166.749 101.607 166.998 101.279 167.161C100.951 167.324 100.585 167.395 100.22 167.365C99.8551 167.336 99.505 167.208 99.2074 166.994C98.9098 166.781 98.6759 166.49 98.5309 166.154C98.4394 165.878 98.4094 165.585 98.4431 165.296C98.4767 165.007 98.5732 164.729 98.7257 164.482C99.264 163.622 99.9971 163.645 99.9742 163.714C99.9513 163.783 99.4244 163.943 99.0922 164.676C98.9242 165.087 98.9242 165.548 99.0922 165.959C99.2118 166.186 99.3869 166.38 99.6013 166.521C99.8157 166.663 100.062 166.748 100.318 166.768C100.574 166.789 100.831 166.744 101.066 166.639C101.3 166.533 101.504 166.371 101.658 166.165C101.874 165.774 101.927 165.313 101.807 164.882C101.475 164.104 100.959 163.874 101.017 163.794Z" fill="#455A64"/>
<path d="M76.7453 154.723C76.6982 155.116 76.598 155.502 76.4475 155.868C76.0897 156.917 75.6413 157.932 75.1073 158.903C73.3597 162.144 70.8356 164.9 67.7611 166.925C64.6866 168.95 61.1578 170.18 57.4908 170.507C56.3895 170.603 55.2819 170.603 54.1806 170.507C53.7925 170.494 53.4077 170.433 53.0352 170.323C53.0352 170.209 54.7647 170.403 57.5023 170.06C61.0701 169.627 64.489 168.372 67.4901 166.395C70.4911 164.417 72.9927 161.771 74.7981 158.663C76.1382 156.349 76.6422 154.688 76.7453 154.723Z" fill="#455A64"/>
<path d="M126.021 171.434C126.021 171.434 125.723 171.296 125.253 170.976C124.597 170.504 123.984 169.975 123.42 169.395C121.537 167.488 120.067 165.213 119.103 162.712C118.139 160.211 117.702 157.537 117.819 154.86C117.846 154.053 117.949 153.252 118.129 152.466C118.255 151.904 118.335 151.607 118.381 151.618C118.426 151.629 118.243 152.866 118.243 154.871C118.245 160.133 120.2 165.206 123.73 169.109C125.07 170.586 126.078 171.342 126.021 171.434Z" fill="#455A64"/>
<path d="M214.87 172.099C215.248 171.182 215.145 171.549 209.074 167.517C209.074 167.517 217.779 173.244 216.875 170.518C216.092 169.486 215.134 168.598 214.045 167.895C216.336 169.247 217.665 169.396 218.066 168.846C218.753 167.895 213.77 164.264 211.399 162.626C213.567 164.177 215.84 165.574 218.203 166.807C219.612 167.242 218.936 165.593 217.986 164.39C217.035 163.187 209.658 156.086 207.677 153.967C207.488 153.806 207.337 153.605 207.233 153.38C207.129 153.155 207.075 152.909 207.075 152.661C207.075 152.413 207.129 152.168 207.233 151.942C207.337 151.717 207.488 151.517 207.677 151.355C211.228 149.065 212.785 145.411 212.74 144.208C212.7 143.937 212.576 143.686 212.385 143.49C212.194 143.294 211.945 143.164 211.675 143.118C211.406 143.073 211.128 143.113 210.883 143.235C210.638 143.357 210.438 143.553 210.311 143.796C209.415 144.91 208.371 145.896 207.207 146.728C206.305 147.432 205.29 147.978 204.206 148.343C202.946 148.755 196.75 148.412 195.421 147.736L191.194 162.065C191.194 162.065 206.531 169.235 209.441 170.633C213.015 172.328 214.607 172.798 214.87 172.099Z" fill="#FFBE9D"/>
<path d="M206.315 165.397C206.189 165.569 208.182 167.024 210.759 168.662C213.337 170.3 215.501 171.48 215.605 171.308C215.708 171.136 213.715 169.67 211.149 168.043C208.583 166.417 206.43 165.18 206.315 165.397Z" fill="#EB996E"/>
<path d="M207.758 162.591C207.643 162.762 209.682 164.435 212.339 166.336C214.997 168.237 217.196 169.646 217.31 169.486C217.425 169.326 215.397 167.642 212.729 165.74C210.06 163.839 207.884 162.43 207.758 162.591Z" fill="#EB996E"/>
<path d="M209.281 159.75C209.167 159.911 211.068 161.537 213.531 163.37C215.993 165.202 218.112 166.554 218.204 166.394C218.296 166.233 216.429 164.607 213.966 162.774C211.503 160.941 209.407 159.59 209.281 159.75Z" fill="#EB996E"/>
<path d="M53.288 107.852L64.536 108.471C65.3327 111.611 66.398 114.677 67.7202 117.634C76.7805 101.919 83.7561 80.855 85.5429 72.3904C85.2909 71.558 84.9817 70.6188 84.6151 69.5726C84.3407 67.9912 84.3874 66.3707 84.7526 64.8077C85.0618 62.9292 85.5887 60.3864 85.7376 59.2181C86.2302 55.6444 86.8029 55.0717 88.0285 55.484C89.7237 56.0338 87.3298 65.5293 88.7157 65.7355C89.4717 65.8386 90.3766 62.5856 90.6515 59.9168C90.9264 57.248 92.1176 49.0468 92.9996 48.4626C94.2939 47.6608 95.4164 48.9322 95.0957 51.5896C94.775 54.247 94.3512 62.2993 95.76 62.4023C97.1689 62.5054 98.3143 48.8979 98.3143 48.8979C98.3143 48.8979 98.0967 45.9427 99.7232 46.0114C102.667 46.1374 100.376 60.4895 100.124 61.8526C99.9408 62.7918 101.476 62.998 101.613 61.9442C101.751 60.8904 102.461 48.3252 105.45 48.4283C107.741 48.5084 103.675 60.249 104.969 62.9751C106.263 65.7011 107.157 53.7315 109.356 53.8919C110.169 53.9606 110.776 54.121 109.276 60.8904C107.812 66.2733 106.056 71.5729 104.018 76.7659C100.582 95.5507 85.2451 155.639 61.283 144.643C47.8816 138.492 41.6162 107.99 41.6162 107.99L53.288 107.852Z" fill="#FFBE9D"/>
<path d="M104.041 76.8684C104.061 76.7265 104.099 76.5878 104.156 76.456C104.259 76.1582 104.385 75.7688 104.556 75.3106C104.934 74.2225 105.45 72.7105 106.126 70.729C106.801 68.7474 107.615 66.342 108.416 63.5014C108.829 62.0925 109.172 60.5577 109.482 58.9197C109.642 58.095 109.791 57.2474 109.894 56.3769C109.923 55.9459 109.923 55.5135 109.894 55.0826C109.894 54.6359 109.791 54.2693 109.436 54.2579C109.081 54.2464 108.829 54.464 108.577 54.842C108.349 55.2465 108.161 55.6723 108.016 56.1134C107.695 57.0183 107.443 57.9805 107.191 58.9541C106.939 59.9277 106.71 60.9471 106.412 61.978C106.282 62.5427 106.049 63.0785 105.725 63.5586C105.643 63.6527 105.536 63.7204 105.415 63.7534C105.34 63.77 105.261 63.7693 105.186 63.7515C105.111 63.7337 105.04 63.6991 104.98 63.6503C104.849 63.5296 104.74 63.386 104.66 63.2265C104.539 62.9452 104.458 62.6483 104.419 62.3445C104.367 60.0342 104.598 57.7262 105.106 55.472C105.301 54.3266 105.507 53.1812 105.656 52.0358C105.725 51.4516 105.793 50.8904 105.805 50.2718C105.816 49.6533 105.725 49.0004 105.484 48.8973C105.244 48.7942 104.66 49.1149 104.339 49.596C104.022 50.1042 103.772 50.6508 103.594 51.2225C103.204 52.419 102.909 53.6447 102.712 54.8879C102.495 56.1478 102.323 57.4307 102.174 58.7365C102.117 59.3893 102.048 60.0422 101.991 60.7066L101.899 61.7031C101.911 61.9159 101.877 62.1288 101.797 62.3268C101.718 62.5247 101.597 62.7028 101.441 62.8485C101.245 62.9918 101.008 63.0691 100.765 63.0691C100.522 63.0691 100.285 62.9918 100.089 62.8485C99.9782 62.7751 99.884 62.679 99.8129 62.5664C99.7418 62.4538 99.6955 62.3274 99.677 62.1956C99.6596 62.074 99.6596 61.9506 99.677 61.8291V61.5885L99.9862 59.5841C100.181 58.2325 100.341 56.8809 100.467 55.5064C100.593 54.1319 100.696 52.7459 100.719 51.36C100.786 49.9878 100.647 48.6133 100.307 47.2823C100.228 46.9445 100.023 46.6496 99.7342 46.4576C99.5961 46.4132 99.4474 46.4137 99.3096 46.4589C99.1717 46.5042 99.0517 46.5919 98.9668 46.7096C98.5959 47.3876 98.4439 48.1638 98.5315 48.9317C98.2795 51.6234 97.9932 54.2693 97.6038 56.8694C97.409 58.1637 97.1914 59.4581 96.8707 60.7295C96.7791 61.0387 96.6874 61.3595 96.5729 61.6802C96.464 62.0689 96.2356 62.4135 95.92 62.6652C95.7804 62.7338 95.6218 62.753 95.4699 62.7197C95.318 62.6864 95.1819 62.6026 95.0838 62.482C94.944 62.3351 94.8384 62.159 94.7746 61.9665C94.651 61.6488 94.5627 61.3185 94.5111 60.9815C94.2427 58.4889 94.2197 55.976 94.4424 53.479C94.6117 52.315 94.6768 51.1382 94.6371 49.9626C94.6 49.4608 94.3702 48.9928 93.9957 48.6568C93.9077 48.6021 93.8096 48.5658 93.7073 48.5501C93.6049 48.5343 93.5004 48.5395 93.4001 48.5652C93.2929 48.6013 93.1894 48.6473 93.0908 48.7026C92.9877 48.7942 92.9992 48.7026 92.9305 48.8973C92.5162 49.9274 92.2129 50.9987 92.0256 52.093C91.7965 53.2385 91.6018 54.2808 91.43 55.3575C91.2581 56.4342 91.0978 57.488 90.9604 58.5417C90.8229 59.5955 90.7542 60.6264 90.548 61.6573C90.37 62.6644 90.1016 63.6534 89.7462 64.6124C89.6518 64.8565 89.5408 65.0937 89.414 65.3226C89.2537 65.5402 89.162 65.8151 88.7268 65.9526C88.6154 65.973 88.5005 65.96 88.3965 65.9151C88.2925 65.8703 88.2042 65.7956 88.1426 65.7006C88.0625 65.5683 88.0008 65.4257 87.9593 65.2768C87.9079 65.0278 87.8772 64.7749 87.8677 64.5208C87.8677 62.5621 88.1312 60.7753 88.2343 59.0457C88.3089 58.2189 88.3089 57.387 88.2343 56.5602C88.2343 56.1936 88.0624 55.7584 87.8563 55.6782C87.7119 55.6074 87.5532 55.5706 87.3924 55.5706C87.2316 55.5706 87.0729 55.6074 86.9285 55.6782C86.4477 56.1945 86.1499 56.8545 86.0809 57.5567C85.9091 58.2554 85.8403 58.9655 85.7143 59.6413C85.2333 62.3445 84.7293 64.6812 84.4887 66.5825C84.3758 67.4187 84.3758 68.2663 84.4887 69.1025C84.6491 69.7897 84.8896 70.4083 85.0156 70.8893C85.1416 71.3704 85.2676 71.714 85.3478 72.0347C85.3905 72.1575 85.4211 72.2841 85.4394 72.4127C85.3708 72.3018 85.3169 72.1825 85.2791 72.0576L84.8896 70.9122C84.7293 70.4197 84.4887 69.8699 84.294 69.1139C84.1715 68.2554 84.1715 67.3838 84.294 66.5253C84.5116 64.5895 84.9698 62.2758 85.4394 59.5612C85.5654 58.8854 85.6342 58.1752 85.7831 57.4421C85.8651 57.0549 85.9683 56.6726 86.0923 56.2967C86.2069 55.8801 86.4567 55.5134 86.8025 55.2544C87.0107 55.1441 87.2427 55.0864 87.4783 55.0864C87.7139 55.0864 87.9459 55.1441 88.1541 55.2544C88.378 55.3956 88.562 55.5919 88.6884 55.8245C88.8147 56.0572 88.8792 56.3184 88.8757 56.5831C88.9559 57.4441 88.9559 58.3107 88.8757 59.1717C88.7955 60.9127 88.5206 62.734 88.5664 64.5895C88.5748 64.809 88.6016 65.0274 88.6466 65.2424C88.6466 65.46 88.807 65.5517 88.784 65.5059C88.7611 65.46 89.0017 65.3226 89.0933 65.1393C89.2063 64.9361 89.3057 64.7256 89.3911 64.5093C89.7304 63.5809 89.9797 62.622 90.1356 61.6458C90.3304 60.6493 90.3991 59.6184 90.5365 58.5532C90.674 57.488 90.8114 56.4342 90.9832 55.346C91.1551 54.2579 91.3498 53.1697 91.5674 52.0587C91.7537 50.8983 92.0766 49.7641 92.5296 48.6797C92.6211 48.4978 92.7595 48.3436 92.9305 48.233C93.0827 48.1495 93.2441 48.0842 93.4115 48.0383C93.6036 47.9834 93.8053 47.9703 94.0029 47.9999C94.2005 48.0296 94.3894 48.1012 94.557 48.2101C94.8228 48.4211 95.0423 48.6846 95.2019 48.9841C95.3615 49.2836 95.4578 49.6128 95.4847 49.9511C95.5707 50.5743 95.5707 51.2064 95.4847 51.8296C95.4275 52.4138 95.3702 52.975 95.3358 53.6164C95.1126 56.0561 95.1356 58.512 95.4046 60.9471C95.4536 61.2363 95.5303 61.5202 95.6336 61.7947C95.668 61.9055 95.7267 62.0073 95.8055 62.0925C95.8055 62.0925 95.8055 62.0925 95.8627 62.0925C95.8627 62.356 95.8627 62.0925 95.8627 62.1956C95.8627 62.2987 95.8627 62.1956 95.8627 62.104C96.0056 61.9126 96.1177 61.7 96.1949 61.474C96.3018 61.1915 96.3934 60.8937 96.4698 60.5806C96.7791 59.3664 96.9852 58.0836 97.18 56.8007C97.5694 54.2235 97.8558 51.5776 98.0963 48.8973V48.9546C97.9944 48.0105 98.1993 47.0586 98.6804 46.24C98.8642 46.006 99.1162 45.835 99.4015 45.7509C99.6868 45.6667 99.9913 45.6735 100.273 45.7703C100.513 45.9036 100.724 46.0839 100.893 46.3003C101.062 46.5168 101.186 46.765 101.258 47.0303C101.624 48.4388 101.775 49.8948 101.704 51.3485C101.704 52.7688 101.578 54.1662 101.452 55.5522C101.326 56.9382 101.155 58.3012 100.96 59.6528C100.857 60.34 100.754 61.0044 100.651 61.6802C100.559 62.104 100.582 62.1154 100.651 62.2414C100.73 62.2951 100.824 62.3238 100.92 62.3238C101.016 62.3238 101.109 62.2951 101.189 62.2414C101.326 62.1383 101.349 61.9436 101.384 61.5656L101.464 60.5691L101.67 58.5875C101.807 57.2818 101.991 55.976 102.208 54.7046C102.42 53.4275 102.727 52.168 103.125 50.9362C103.333 50.3136 103.613 49.7177 103.961 49.1608C104.15 48.8606 104.4 48.6031 104.694 48.4048C104.857 48.2866 105.046 48.2094 105.246 48.1795C105.445 48.1496 105.649 48.1679 105.839 48.233C106.015 48.3412 106.163 48.4885 106.272 48.6633C106.381 48.8381 106.449 49.0358 106.469 49.2409C106.517 49.5632 106.536 49.889 106.527 50.2146C106.527 50.8445 106.446 51.4516 106.378 52.0587C106.217 53.2041 106 54.4182 105.793 55.5751C105.301 57.7509 105.063 59.9764 105.083 62.2071C105.116 62.4466 105.177 62.6812 105.267 62.9058C105.308 62.9871 105.358 63.0639 105.415 63.1349C105.415 63.1349 105.415 63.1348 105.415 63.0547C105.673 62.6406 105.862 62.1883 105.977 61.7145C106.275 60.718 106.515 59.7101 106.779 58.725C107.015 57.7449 107.302 56.7776 107.638 55.8271C107.796 55.3563 108.004 54.9033 108.256 54.4755C108.393 54.2423 108.571 54.0365 108.783 53.8684C108.898 53.7686 109.036 53.6978 109.184 53.6623C109.332 53.6391 109.483 53.6391 109.631 53.6623C109.787 53.6779 109.936 53.7349 110.063 53.8276C110.19 53.9202 110.29 54.045 110.352 54.1892C110.448 54.4299 110.498 54.6861 110.501 54.9451C110.51 55.4085 110.483 55.8718 110.421 56.3311C110.318 57.2245 110.146 58.0721 109.986 58.9083C109.654 60.5462 109.287 62.104 108.84 63.4899C107.981 66.3306 107.122 68.7359 106.423 70.6946C105.725 72.6533 105.129 74.1309 104.728 75.1846C104.534 75.6657 104.373 76.0437 104.259 76.3301C104.207 76.5174 104.134 76.6981 104.041 76.8684Z" fill="#EB996E"/>
<path d="M41.5127 109.146C43.689 116.832 47.9499 128.687 52.5201 141.218C52.6642 141.621 52.9249 141.973 53.2691 142.229C53.6133 142.484 54.0256 142.631 54.4538 142.652C54.8819 142.673 55.3066 142.566 55.674 142.346C56.0414 142.125 56.335 141.8 56.5176 141.412L67.7198 117.714C67.7198 117.714 65.0166 98.2415 65.2457 98.9402C65.4748 99.6389 42.1312 101.46 42.1312 101.46L41.5127 109.146Z" fill="#F5C518"/>
<path d="M66.7571 105.332C66.7571 105.424 65.3596 105.836 63.149 106.684C60.2599 107.78 57.4765 109.137 54.8333 110.738C52.1935 112.347 49.702 114.187 47.3881 116.236C45.6127 117.806 44.5932 118.882 44.5245 118.814C44.4558 118.745 44.7192 118.493 45.1545 117.977C45.7681 117.261 46.418 116.577 47.1017 115.927C49.3595 113.753 51.8484 111.833 54.524 110.2C57.2004 108.587 60.042 107.266 63.0001 106.26C63.8943 105.952 64.8042 105.692 65.7262 105.481C66.0597 105.377 66.4077 105.326 66.7571 105.332Z" fill="#FAFAFA"/>
<path d="M71.2017 111.243C70.4738 110.509 69.8426 109.685 69.3232 108.791C67.9855 106.706 66.8356 104.506 65.8869 102.217C64.9376 99.921 64.1977 97.5441 63.6763 95.1152C63.4094 94.1216 63.2746 93.0972 63.2754 92.0684C63.617 93.0287 63.8888 94.0125 64.0886 95.0121C64.7023 97.3839 65.4674 99.7139 66.3795 101.988C67.3323 104.25 68.4264 106.449 69.6554 108.574C70.2274 109.429 70.7439 110.321 71.2017 111.243Z" fill="#263238"/>
<path d="M78.6697 6.29919C76.7265 9.50199 75.5218 13.0978 75.1433 16.8248C74.7649 20.5519 75.2222 24.3164 76.482 27.8445C77.6274 30.9944 79.4601 34.0984 79.1279 37.4431C78.7957 40.7877 76.1842 44.0979 77.1005 47.3967C77.6503 49.3554 79.3226 50.833 79.9755 52.7344C80.72 55.0252 79.9755 57.442 79.5746 59.7901C78.6583 65.7921 80.5826 71.8284 81.0522 77.8762C81.5218 83.924 79.9068 91.0142 74.5004 93.6486C72.8624 94.4504 70.7205 94.6795 69.3575 93.4539C67.6164 91.9076 68.0975 89.1128 68.5786 86.8219C73.3206 63.9136 58.6707 41.5551 62.0154 18.3719C62.5537 14.6607 64.6269 8.36094 67.2957 5.7723C69.9646 3.18365 77.3754 3.48146 79.8953 6.23046" fill="#263238"/>
<path d="M56.1045 72.7563C56.1045 72.7563 56.8032 71.9316 57.8341 70.3051C59.2807 68.008 60.294 65.4651 60.8236 62.8026C61.1692 60.9686 61.2884 59.099 61.1787 57.2359C60.9783 55.0696 60.898 52.8937 60.9381 50.7185C61.0065 49.5272 61.2259 48.3495 61.591 47.2135C62.0096 46.0433 62.5389 44.9157 63.1717 43.846C64.4546 41.6812 66.0696 39.6652 67.5587 37.5118C69.0877 35.4767 70.1513 33.1306 70.6742 30.6394C70.9281 28.2928 70.7927 25.9204 70.2733 23.618C69.8399 21.4781 69.6707 19.2931 69.7693 17.112C69.9056 15.2068 70.2907 13.3276 70.9147 11.5224C71.7897 8.90279 73.167 6.47893 74.9695 4.38641C75.4483 3.81756 75.969 3.28536 76.5273 2.79429C76.7043 2.60567 76.9044 2.44019 77.1229 2.30176C77.1229 2.30176 76.3554 3.04628 75.1413 4.59259C72.2495 8.1821 70.5586 12.5895 70.3077 17.1922C70.231 19.3376 70.4195 21.4843 70.8689 23.5836C71.4153 25.9479 71.5624 28.3869 71.3042 30.7997C70.7612 33.3605 69.6667 35.7721 68.097 37.8669C66.5965 40.0547 64.9815 42.0592 63.7215 44.1667C63.1018 45.1967 62.5876 46.2865 62.1866 47.4197C61.8243 48.5092 61.6048 49.6412 61.5338 50.7872C61.4831 52.9385 61.5443 55.091 61.717 57.2359C61.808 59.1366 61.6618 61.0412 61.2818 62.9057C60.7078 65.6046 59.6189 68.1674 58.0746 70.454C57.6565 71.0722 57.1973 71.6615 56.7001 72.2179C56.5219 72.4187 56.3221 72.5992 56.1045 72.7563Z" fill="#455A64"/>
<path d="M45.2461 74.4636C45.3384 74.1965 45.4573 73.9394 45.6012 73.6962C45.8875 73.1578 46.2541 72.4477 46.7466 71.5543C47.7087 69.6872 49.1405 66.9726 50.5494 63.5363C52.2727 59.523 53.2285 55.2221 53.3671 50.8566C53.3677 49.5988 53.272 48.3428 53.0807 47.0996C52.886 45.8167 52.5882 44.5224 52.3935 43.1708C52.1553 41.7728 52.1864 40.3421 52.4851 38.9557C52.8725 37.5323 53.669 36.2539 54.776 35.2789C56.9293 33.3203 59.5294 32.0374 60.881 29.7351C62.052 27.4522 62.7421 24.9533 62.9084 22.393C63.1508 20.0459 63.6817 17.7377 64.4891 15.5205C66.3047 10.7607 69.5396 6.67406 73.7555 3.81434C74.4276 3.36193 75.1277 2.95258 75.8516 2.58875C76.096 2.44236 76.3576 2.32693 76.6305 2.24512C76.6305 2.24512 75.5996 2.79492 73.8929 4.00906C71.4875 5.7256 69.405 7.85458 67.7421 10.2974C66.5888 11.9719 65.6499 13.7843 64.9473 15.6923C64.1754 17.9147 63.6754 20.2223 63.4582 22.5648C63.1146 25.0045 62.8397 27.7306 61.3735 30.1475C59.9074 32.5643 57.2271 33.9388 55.1769 35.8745C54.132 36.7812 53.3787 37.9768 53.012 39.3108C52.7336 40.6225 52.7064 41.975 52.9318 43.2968C53.1151 44.6141 53.4015 45.9198 53.5962 47.2142C53.7943 48.4872 53.8863 49.7745 53.8711 51.0627C53.7155 55.5083 52.7084 59.8826 50.9044 63.9487C49.7328 66.6965 48.4018 69.3737 46.9184 71.9666L45.7043 73.7649C45.5767 74.0133 45.4231 74.2476 45.2461 74.4636Z" fill="#455A64"/>
<path d="M374.317 52.8759C374.317 52.8759 373.888 52.8759 373.061 52.8759C371.854 52.8042 370.643 52.8042 369.436 52.8759C364.766 53.1493 360.178 54.2251 355.873 56.056C349.049 58.9162 343.111 63.5429 338.669 69.4599C335.93 73.1545 333.893 77.3205 332.658 81.7507C329.876 92.304 331.379 103.53 336.84 112.979C338.329 115.595 340.145 118.01 342.246 120.166C344.365 122.449 346.834 124.382 349.56 125.89C352.358 127.464 355.526 128.26 358.735 128.195C362.044 128.156 365.216 126.873 367.623 124.602C368.786 123.383 369.698 121.947 370.307 120.375C370.915 118.804 371.208 117.128 371.169 115.443C371.145 111.943 370.033 108.537 367.989 105.696C363.871 99.8929 357.193 95.9973 350.085 93.8985C342.715 91.8286 334.932 91.719 327.507 93.5805C323.717 94.5665 320.063 96.0192 316.631 97.9054C313.166 99.8608 310.019 102.332 307.298 105.235C306.646 105.983 305.898 106.666 305.31 107.493L303.513 109.91C302.421 111.613 301.444 113.387 300.588 115.221C298.887 118.943 297.725 122.889 297.137 126.939C295.983 135.03 297.084 143.283 300.317 150.79C303.408 158.124 308.792 164.26 315.661 168.28C318.992 170.183 322.71 171.308 326.537 171.571C330.289 171.781 334.021 170.885 337.27 168.995C340.494 167.213 343.042 164.419 344.52 161.045C345.914 157.72 346.011 153.992 344.79 150.599C343.534 147.325 341.479 144.417 338.812 142.14C336.225 139.904 333.243 138.173 330.019 137.036C323.732 135.053 317.004 134.937 310.653 136.702C304.709 138.312 299.25 141.353 294.752 145.558C290.655 149.483 287.535 154.314 285.641 159.662C282.329 168.942 282.482 179.106 286.071 188.282C288.87 195.133 293.375 201.154 299.157 205.773C302.799 208.694 306.855 211.057 311.193 212.785C312.688 213.341 313.849 213.754 314.644 213.977L315.82 214.359C315.82 214.359 315.407 214.279 314.612 214.057C313.437 213.742 312.28 213.365 311.145 212.928C306.751 211.276 302.641 208.948 298.966 206.027C293.086 201.411 288.492 195.361 285.626 188.457C281.973 179.194 281.787 168.924 285.101 159.535C286.998 154.105 290.153 149.202 294.307 145.224C298.869 140.935 304.409 137.824 310.446 136.161C316.931 134.352 323.802 134.462 330.226 136.479C333.544 137.637 336.614 139.412 339.273 141.711C342.044 144.062 344.177 147.076 345.474 150.472C346.782 154.017 346.725 157.921 345.315 161.427C343.747 164.934 341.086 167.84 337.731 169.711C334.362 171.674 330.494 172.613 326.6 172.414C322.68 172.14 318.874 170.977 315.47 169.011C308.444 164.935 302.927 158.693 299.745 151.219C296.442 143.575 295.308 135.169 296.47 126.923C297.077 122.791 298.265 118.766 299.999 114.966C300.873 113.094 301.872 111.283 302.989 109.544L304.833 107.08C305.421 106.237 306.185 105.49 306.852 104.758C309.637 101.8 312.854 99.2809 316.393 97.2853C319.905 95.3631 323.644 93.8888 327.523 92.8968C335.09 91.0005 343.021 91.1156 350.53 93.2307C357.781 95.3931 364.57 99.3523 368.847 105.363C370.997 108.322 372.165 111.881 372.186 115.539C372.264 119.138 370.908 122.621 368.418 125.222C365.874 127.61 362.526 128.955 359.037 128.99C355.698 129.066 352.402 128.236 349.497 126.589C346.706 125.049 344.182 123.068 342.024 120.722C339.895 118.518 338.052 116.056 336.538 113.392C330.979 103.767 329.469 92.3293 332.34 81.5918C333.613 77.1102 335.699 72.9008 338.494 69.1737C343.018 63.2118 349.058 58.5721 355.984 55.738C360.325 53.9424 364.949 52.9303 369.642 52.7487C370.86 52.6684 372.082 52.6684 373.299 52.7487L374.317 52.8759Z" fill="#263238"/>
<path d="M427.409 211.973H204.472V383.918H427.409V211.973Z" fill="#F5C518"/>
<path d="M204.472 211.973L245.653 250.388H464.806L427.409 211.973H204.472Z" fill="#F5C518"/>
<path d="M204.472 211.973L427.472 211.576H427.647L427.775 211.687L464.79 249.704L465.172 250.102L465.856 250.802H464.87L245.717 250.627H245.621L204.472 211.973L245.812 250.134H245.637L464.79 249.975L464.504 250.674L464.107 250.277L427.107 212.259L427.393 212.387L204.472 211.973Z" fill="#263238"/>
<path d="M271.442 291.268C270.234 291.312 269.092 291.828 268.261 292.705C267.43 293.583 266.977 294.751 266.999 295.96C267.021 297.168 267.516 298.319 268.378 299.166C269.241 300.013 270.401 300.487 271.609 300.487C272.818 300.487 273.978 300.013 274.84 299.166C275.702 298.319 276.198 297.168 276.219 295.96C276.241 294.751 275.788 293.583 274.957 292.705C274.126 291.828 272.984 291.312 271.776 291.268" fill="#263238"/>
<path d="M324.121 291.268C322.919 291.314 321.782 291.83 320.956 292.705C320.129 293.58 319.679 294.744 319.702 295.947C319.725 297.151 320.219 298.297 321.078 299.14C321.937 299.983 323.093 300.455 324.296 300.455C325.5 300.455 326.655 299.983 327.515 299.14C328.374 298.297 328.868 297.151 328.891 295.947C328.914 294.744 328.463 293.58 327.637 292.705C326.811 291.83 325.674 291.314 324.471 291.268" fill="#263238"/>
<path d="M324.423 332.418C323.504 328.906 322.01 325.57 320.003 322.544C317.77 319.309 314.903 316.561 311.576 314.467C307.562 311.803 302.88 310.321 298.064 310.189C293.249 310.056 288.493 311.28 284.339 313.72C280.908 315.635 277.896 318.219 275.482 321.32C273.308 324.234 271.637 327.49 270.537 330.955C270.549 330.697 270.592 330.441 270.664 330.192C270.817 329.476 271.013 328.77 271.253 328.077C272.124 325.523 273.396 323.124 275.021 320.97C277.418 317.725 280.467 315.017 283.973 313.02C288.234 310.476 293.131 309.197 298.092 309.332C303.053 309.468 307.873 311.011 311.989 313.783C315.374 315.959 318.266 318.818 320.48 322.179C321.99 324.421 323.133 326.89 323.867 329.493C324.062 330.198 324.216 330.915 324.328 331.639C324.382 331.895 324.414 332.156 324.423 332.418Z" fill="#263238"/>
<path opacity="0.5" d="M204.979 213.866L244.411 263.856H427.407V250.389H245.651L204.979 213.866Z" fill="black"/>
<path d="M383.445 383.537C383.222 383.537 383.031 353.629 383.031 316.756C383.031 279.883 383.222 249.975 383.445 249.975C383.667 249.975 383.874 279.868 383.874 316.756C383.874 353.645 383.683 383.537 383.445 383.537Z" fill="#263238"/>
<path d="M418.456 344.551H398.804V366.763H418.456V344.551Z" fill="#F5F5F5"/>
<path d="M204.471 211.973L158.71 250.388H204.471V211.973Z" fill="#F5C518"/>
<g opacity="0.4">
<path d="M204.471 211.973L158.71 250.388H204.471V211.973Z" fill="black"/>
</g>
<path d="M28.5117 609V596.664L16.0317 573.48H23.1357L31.7277 590.04L40.3197 573.48H47.4717L34.9917 596.664V609H28.5117ZM59.2632 609.48C56.4792 609.48 54.1112 608.856 52.1592 607.608C50.2072 606.36 48.7192 604.744 47.6952 602.76C46.7032 600.744 46.2072 598.584 46.2072 596.28C46.2072 593.976 46.7032 591.832 47.6952 589.848C48.7192 587.832 50.2072 586.2 52.1592 584.952C54.1112 583.704 56.4792 583.08 59.2632 583.08C62.0792 583.08 64.4472 583.704 66.3672 584.952C68.3192 586.2 69.7912 587.832 70.7832 589.848C71.8072 591.832 72.3192 593.976 72.3192 596.28C72.3192 598.584 71.8072 600.744 70.7832 602.76C69.7912 604.744 68.3192 606.36 66.3672 607.608C64.4472 608.856 62.0792 609.48 59.2632 609.48ZM59.2632 604.152C60.7032 604.152 61.9032 603.784 62.8632 603.048C63.8552 602.312 64.6072 601.352 65.1192 600.168C65.6312 598.952 65.8872 597.656 65.8872 596.28C65.8872 594.872 65.6312 593.576 65.1192 592.392C64.6072 591.208 63.8552 590.248 62.8632 589.512C61.9032 588.776 60.7032 588.408 59.2632 588.408C57.8552 588.408 56.6552 588.776 55.6632 589.512C54.6712 590.248 53.9192 591.208 53.4072 592.392C52.8952 593.576 52.6392 594.872 52.6392 596.28C52.6392 597.656 52.8952 598.952 53.4072 600.168C53.9192 601.352 54.6712 602.312 55.6632 603.048C56.6552 603.784 57.8552 604.152 59.2632 604.152ZM85.9677 609.48C83.3117 609.48 81.2957 608.664 79.9197 607.032C78.5757 605.4 77.9037 603.304 77.9037 600.744V583.56H84.2397V599.688C84.2397 601.064 84.6077 602.168 85.3437 603C86.0797 603.8 87.1197 604.2 88.4637 604.2C89.6477 604.2 90.6077 603.896 91.3437 603.288C92.0797 602.68 92.6077 601.896 92.9277 600.936C93.2797 599.976 93.4557 598.984 93.4557 597.96V583.56H99.8397V609H93.4557V605.352H93.1677C92.8477 605.928 92.3837 606.536 91.7757 607.176C91.1997 607.816 90.4317 608.36 89.4717 608.808C88.5437 609.256 87.3757 609.48 85.9677 609.48ZM105.794 609V583.56H112.13V587.064H112.37C112.818 586.072 113.554 585.16 114.578 584.328C115.602 583.496 117.138 583.08 119.186 583.08C119.826 583.08 120.354 583.128 120.77 583.224C121.186 583.288 121.394 583.32 121.394 583.32V589.512C121.394 589.512 121.154 589.48 120.674 589.416C120.226 589.352 119.666 589.32 118.994 589.32C116.754 589.32 115.058 589.944 113.906 591.192C112.754 592.44 112.178 594.456 112.178 597.24V609H105.794ZM149.45 609.48C147.274 609.48 145.37 609.112 143.738 608.376C142.106 607.608 140.746 606.6 139.658 605.352C138.57 604.072 137.754 602.648 137.21 601.08C136.698 599.512 136.442 597.912 136.442 596.28C136.442 594.648 136.698 593.048 137.21 591.48C137.754 589.912 138.554 588.504 139.61 587.256C140.698 585.976 142.058 584.968 143.69 584.232C145.322 583.464 147.242 583.08 149.45 583.08C151.626 583.08 153.434 583.4 154.874 584.04C156.314 584.68 157.45 585.48 158.282 586.44C159.146 587.4 159.786 588.36 160.202 589.32C160.618 590.248 160.89 591.032 161.018 591.672C161.146 592.312 161.21 592.632 161.21 592.632H155.21C155.21 592.632 155.146 592.424 155.018 592.008C154.89 591.56 154.634 591.048 154.25 590.472C153.866 589.896 153.29 589.384 152.522 588.936C151.786 588.488 150.794 588.264 149.546 588.264C148.074 588.264 146.826 588.648 145.802 589.416C144.81 590.152 144.058 591.128 143.546 592.344C143.034 593.56 142.778 594.872 142.778 596.28C142.778 597.688 143.034 599 143.546 600.216C144.058 601.432 144.81 602.424 145.802 603.192C146.826 603.928 148.074 604.296 149.546 604.296C150.794 604.296 151.786 604.072 152.522 603.624C153.29 603.176 153.866 602.664 154.25 602.088C154.634 601.512 154.89 601.016 155.018 600.6C155.146 600.152 155.21 599.928 155.21 599.928H161.21C161.21 599.928 161.146 600.248 161.018 600.888C160.89 601.528 160.618 602.328 160.202 603.288C159.786 604.216 159.146 605.16 158.282 606.12C157.45 607.08 156.314 607.88 154.874 608.52C153.434 609.16 151.626 609.48 149.45 609.48ZM177.487 583.08C179.119 583.08 180.463 583.352 181.519 583.896C182.575 584.408 183.407 584.984 184.015 585.624C184.623 586.232 185.039 586.728 185.263 587.112H185.551V583.56H191.935V609H185.551V605.448H185.263C185.039 605.832 184.623 606.344 184.015 606.984C183.407 607.624 182.575 608.2 181.519 608.712C180.463 609.224 179.119 609.48 177.487 609.48C175.599 609.48 173.951 609.112 172.543 608.376C171.135 607.608 169.951 606.6 168.991 605.352C168.063 604.072 167.359 602.648 166.879 601.08C166.431 599.512 166.207 597.912 166.207 596.28C166.207 594.648 166.431 593.048 166.879 591.48C167.359 589.912 168.063 588.504 168.991 587.256C169.951 585.976 171.135 584.968 172.543 584.232C173.951 583.464 175.599 583.08 177.487 583.08ZM179.167 588.312C177.727 588.312 176.511 588.712 175.519 589.512C174.559 590.28 173.839 591.272 173.359 592.488C172.879 593.704 172.639 594.968 172.639 596.28C172.639 597.592 172.879 598.856 173.359 600.072C173.839 601.288 174.559 602.296 175.519 603.096C176.511 603.864 177.727 604.248 179.167 604.248C180.607 604.248 181.807 603.864 182.767 603.096C183.727 602.296 184.447 601.288 184.927 600.072C185.407 598.856 185.647 597.592 185.647 596.28C185.647 594.968 185.407 593.704 184.927 592.488C184.447 591.272 183.727 590.28 182.767 589.512C181.807 588.712 180.607 588.312 179.167 588.312ZM197.904 609V583.56H204.24V587.064H204.48C204.928 586.072 205.664 585.16 206.688 584.328C207.712 583.496 209.248 583.08 211.296 583.08C211.936 583.08 212.464 583.128 212.88 583.224C213.296 583.288 213.504 583.32 213.504 583.32V589.512C213.504 589.512 213.264 589.48 212.784 589.416C212.336 589.352 211.776 589.32 211.104 589.32C208.864 589.32 207.168 589.944 206.016 591.192C204.864 592.44 204.288 594.456 204.288 597.24V609H197.904ZM229.532 609.48C227.804 609.48 226.38 609.224 225.26 608.712C224.14 608.2 223.26 607.528 222.62 606.696C222.012 605.864 221.58 604.952 221.324 603.96C221.068 602.968 220.94 601.992 220.94 601.032V588.696H216.572V583.56H220.94V577.224H227.324V583.56H233.036V588.696H227.324V600.888C227.324 603.16 228.604 604.296 231.164 604.296C231.772 604.296 232.332 604.264 232.844 604.2C233.388 604.104 233.66 604.056 233.66 604.056V609.048C233.66 609.048 233.244 609.112 232.412 609.24C231.612 609.4 230.652 609.48 229.532 609.48ZM253.775 579.624C252.655 579.624 251.727 579.256 250.991 578.52C250.287 577.784 249.935 576.904 249.935 575.88C249.935 574.856 250.287 573.976 250.991 573.24C251.727 572.504 252.655 572.136 253.775 572.136C254.895 572.136 255.823 572.504 256.559 573.24C257.295 573.976 257.663 574.856 257.663 575.88C257.663 576.904 257.295 577.784 256.559 578.52C255.823 579.256 254.895 579.624 253.775 579.624ZM250.607 609V583.56H256.991V609H250.607ZM273.894 609.48C271.814 609.48 270.102 609.208 268.758 608.664C267.414 608.088 266.342 607.384 265.542 606.552C264.774 605.688 264.198 604.84 263.814 604.008C263.43 603.176 263.174 602.488 263.046 601.944C262.95 601.368 262.902 601.08 262.902 601.08H268.95C268.95 601.08 268.998 601.256 269.094 601.608C269.222 601.96 269.446 602.376 269.766 602.856C270.118 603.304 270.646 603.704 271.35 604.056C272.054 604.408 272.982 604.584 274.134 604.584C275.51 604.584 276.502 604.296 277.11 603.72C277.718 603.112 278.022 602.44 278.022 601.704C278.022 601 277.75 600.44 277.206 600.024C276.694 599.576 275.926 599.24 274.902 599.016L271.398 598.296C269.99 598.008 268.678 597.592 267.462 597.048C266.246 596.472 265.254 595.704 264.486 594.744C263.718 593.752 263.334 592.488 263.334 590.952C263.334 588.68 264.198 586.808 265.926 585.336C267.654 583.832 270.006 583.08 272.982 583.08C274.87 583.08 276.422 583.336 277.638 583.848C278.886 584.36 279.878 585 280.614 585.768C281.382 586.536 281.942 587.304 282.294 588.072C282.678 588.84 282.918 589.496 283.014 590.04C283.142 590.552 283.206 590.808 283.206 590.808H277.35C277.35 590.808 277.302 590.664 277.206 590.376C277.11 590.056 276.902 589.704 276.582 589.32C276.294 588.936 275.846 588.6 275.238 588.312C274.662 587.992 273.878 587.832 272.886 587.832C271.542 587.832 270.582 588.12 270.006 588.696C269.462 589.272 269.19 589.88 269.19 590.52C269.19 591.224 269.494 591.768 270.102 592.152C270.71 592.536 271.494 592.824 272.454 593.016L275.766 593.736C278.134 594.216 280.07 595.048 281.574 596.232C283.11 597.416 283.878 599.128 283.878 601.368C283.878 602.872 283.478 604.248 282.678 605.496C281.91 606.712 280.774 607.688 279.27 608.424C277.798 609.128 276.006 609.48 273.894 609.48Z" fill="#080808"/>
<path d="M300.477 609V573.48H324.285V579.144H307.005V588.168H322.125V593.688H307.005V603.336H324.525V609H300.477ZM330.419 609V583.56H336.803V587.112H337.043C337.363 586.536 337.811 585.944 338.387 585.336C338.963 584.696 339.699 584.168 340.595 583.752C341.523 583.304 342.659 583.08 344.003 583.08C345.891 583.08 347.443 583.528 348.659 584.424C349.875 585.32 350.771 586.472 351.347 587.88H351.443C352.083 586.664 353.027 585.56 354.275 584.568C355.555 583.576 357.251 583.08 359.363 583.08C361.155 583.08 362.643 583.496 363.827 584.328C365.043 585.128 365.939 586.216 366.515 587.592C367.123 588.968 367.427 590.456 367.427 592.056V609H361.043V593.4C361.043 591.928 360.675 590.728 359.939 589.8C359.235 588.84 358.179 588.36 356.771 588.36C355.651 588.36 354.739 588.664 354.035 589.272C353.363 589.848 352.867 590.584 352.547 591.48C352.259 592.376 352.115 593.288 352.115 594.216V609H345.731V593.4C345.731 591.928 345.379 590.728 344.675 589.8C343.971 588.84 342.899 588.36 341.459 588.36C340.339 588.36 339.427 588.664 338.723 589.272C338.051 589.848 337.555 590.6 337.235 591.528C336.947 592.424 336.803 593.32 336.803 594.216V609H330.419ZM373.837 618.408V583.56H380.221V587.112H380.557C380.781 586.728 381.181 586.216 381.757 585.576C382.365 584.936 383.197 584.36 384.253 583.848C385.309 583.336 386.653 583.08 388.285 583.08C390.205 583.08 391.869 583.464 393.277 584.232C394.685 584.968 395.853 585.976 396.781 587.256C397.709 588.504 398.397 589.912 398.845 591.48C399.325 593.048 399.565 594.648 399.565 596.28C399.565 597.912 399.325 599.512 398.845 601.08C398.397 602.648 397.709 604.072 396.781 605.352C395.853 606.6 394.685 607.608 393.277 608.376C391.869 609.112 390.205 609.48 388.285 609.48C386.653 609.48 385.309 609.224 384.253 608.712C383.197 608.168 382.365 607.576 381.757 606.936C381.181 606.296 380.781 605.8 380.557 605.448H380.221V618.408H373.837ZM380.125 596.28C380.125 597.592 380.365 598.856 380.845 600.072C381.325 601.288 382.045 602.296 383.005 603.096C383.965 603.864 385.165 604.248 386.605 604.248C388.077 604.248 389.293 603.864 390.253 603.096C391.213 602.296 391.933 601.288 392.413 600.072C392.893 598.856 393.133 597.592 393.133 596.28C393.133 594.968 392.893 593.704 392.413 592.488C391.933 591.272 391.213 590.28 390.253 589.512C389.293 588.712 388.077 588.312 386.605 588.312C385.165 588.312 383.965 588.712 383.005 589.512C382.045 590.28 381.325 591.272 380.845 592.488C380.365 593.704 380.125 594.968 380.125 596.28ZM416.141 609.48C414.413 609.48 412.989 609.224 411.869 608.712C410.749 608.2 409.869 607.528 409.229 606.696C408.621 605.864 408.189 604.952 407.933 603.96C407.677 602.968 407.549 601.992 407.549 601.032V588.696H403.181V583.56H407.549V577.224H413.933V583.56H419.645V588.696H413.933V600.888C413.933 603.16 415.213 604.296 417.773 604.296C418.381 604.296 418.941 604.264 419.453 604.2C419.997 604.104 420.269 604.056 420.269 604.056V609.048C420.269 609.048 419.853 609.112 419.021 609.24C418.221 609.4 417.261 609.48 416.141 609.48ZM426.929 618.36C426.097 618.36 425.409 618.328 424.865 618.264C424.353 618.2 424.097 618.168 424.097 618.168V612.936C424.097 612.936 424.337 612.952 424.817 612.984C425.297 613.048 425.857 613.08 426.497 613.08C428.129 613.08 429.473 612.808 430.529 612.264C431.617 611.752 432.529 610.776 433.265 609.336L423.713 583.56H430.193L436.577 601.704L442.865 583.56H449.345L440.033 608.376C438.753 611.768 437.105 614.28 435.089 615.912C433.073 617.544 430.353 618.36 426.929 618.36Z" fill="#F5C518"/>
<path d="M45.9144 668L53.4504 651.08H55.5144L63.0744 668H60.5304L58.4664 663.2L59.5944 663.872H49.3704L50.4744 663.2L48.4344 668H45.9144ZM54.4584 653.84L50.8344 662.432L50.2344 661.856H58.7064L58.1544 662.432L54.5064 653.84H54.4584ZM69.3731 668.216C68.3491 668.216 67.4451 667.976 66.6611 667.496C65.8931 667 65.2931 666.296 64.8611 665.384C64.4291 664.456 64.2131 663.376 64.2131 662.144C64.2131 660.88 64.4291 659.8 64.8611 658.904C65.2931 658.008 65.8931 657.312 66.6611 656.816C67.4451 656.32 68.3491 656.072 69.3731 656.072C70.3971 656.072 71.2771 656.328 72.0131 656.84C72.7651 657.336 73.2691 658.008 73.5251 658.856H73.2611V651.08H75.6851V668H73.3091V665.36H73.5491C73.2931 666.224 72.7891 666.92 72.0371 667.448C71.3011 667.96 70.4131 668.216 69.3731 668.216ZM69.9971 666.344C70.9891 666.344 71.7891 665.984 72.3971 665.264C73.0051 664.544 73.3091 663.504 73.3091 662.144C73.3091 660.768 73.0051 659.728 72.3971 659.024C71.7891 658.32 70.9891 657.968 69.9971 657.968C68.9891 657.968 68.1811 658.32 67.5731 659.024C66.9651 659.728 66.6611 660.768 66.6611 662.144C66.6611 663.504 66.9651 664.544 67.5731 665.264C68.1811 665.984 68.9891 666.344 69.9971 666.344ZM83.5528 668.216C82.5288 668.216 81.6248 667.976 80.8408 667.496C80.0728 667 79.4728 666.296 79.0408 665.384C78.6088 664.456 78.3928 663.376 78.3928 662.144C78.3928 660.88 78.6088 659.8 79.0408 658.904C79.4728 658.008 80.0728 657.312 80.8408 656.816C81.6248 656.32 82.5288 656.072 83.5528 656.072C84.5768 656.072 85.4568 656.328 86.1928 656.84C86.9448 657.336 87.4488 658.008 87.7048 658.856H87.4408V651.08H89.8648V668H87.4888V665.36H87.7288C87.4728 666.224 86.9688 666.92 86.2168 667.448C85.4808 667.96 84.5928 668.216 83.5528 668.216ZM84.1768 666.344C85.1688 666.344 85.9688 665.984 86.5768 665.264C87.1848 664.544 87.4888 663.504 87.4888 662.144C87.4888 660.768 87.1848 659.728 86.5768 659.024C85.9688 658.32 85.1688 657.968 84.1768 657.968C83.1688 657.968 82.3608 658.32 81.7528 659.024C81.1448 659.728 80.8408 660.768 80.8408 662.144C80.8408 663.504 81.1448 664.544 81.7528 665.264C82.3608 665.984 83.1688 666.344 84.1768 666.344ZM105.477 668.216C104.597 668.216 103.757 668.144 102.957 668C102.173 667.84 101.445 667.616 100.773 667.328C100.117 667.024 99.5331 666.664 99.0211 666.248L99.8131 664.28C100.357 664.68 100.917 665.016 101.493 665.288C102.069 665.56 102.685 665.768 103.341 665.912C103.997 666.04 104.709 666.104 105.477 666.104C106.837 666.104 107.837 665.864 108.477 665.384C109.133 664.888 109.461 664.248 109.461 663.464C109.461 663.032 109.357 662.664 109.149 662.36C108.957 662.056 108.637 661.8 108.189 661.592C107.741 661.368 107.157 661.184 106.437 661.04L103.869 660.512C102.349 660.192 101.213 659.664 100.461 658.928C99.7251 658.192 99.3571 657.2 99.3571 655.952C99.3571 654.928 99.6291 654.032 100.173 653.264C100.717 652.496 101.461 651.904 102.405 651.488C103.365 651.072 104.469 650.864 105.717 650.864C106.485 650.864 107.213 650.944 107.901 651.104C108.605 651.248 109.253 651.472 109.845 651.776C110.453 652.08 110.981 652.448 111.429 652.88L110.613 654.776C109.925 654.168 109.181 653.72 108.381 653.432C107.581 653.128 106.685 652.976 105.693 652.976C104.909 652.976 104.221 653.096 103.629 653.336C103.053 653.576 102.605 653.912 102.285 654.344C101.981 654.776 101.829 655.288 101.829 655.88C101.829 656.552 102.045 657.088 102.477 657.488C102.909 657.888 103.629 658.192 104.637 658.4L107.181 658.928C108.781 659.264 109.973 659.784 110.757 660.488C111.541 661.192 111.933 662.128 111.933 663.296C111.933 664.272 111.669 665.136 111.141 665.888C110.613 666.624 109.869 667.2 108.909 667.616C107.949 668.016 106.805 668.216 105.477 668.216ZM119.999 668.216C118.719 668.216 117.615 667.976 116.687 667.496C115.775 667 115.063 666.304 114.551 665.408C114.055 664.496 113.807 663.416 113.807 662.168C113.807 660.952 114.055 659.888 114.551 658.976C115.047 658.064 115.727 657.352 116.591 656.84C117.455 656.328 118.439 656.072 119.543 656.072C120.631 656.072 121.559 656.312 122.327 656.792C123.111 657.256 123.711 657.92 124.127 658.784C124.543 659.648 124.751 660.68 124.751 661.88V662.696H115.727V661.208H123.119L122.711 661.544C122.711 660.344 122.447 659.416 121.919 658.76C121.391 658.104 120.631 657.776 119.639 657.776C118.887 657.776 118.247 657.952 117.719 658.304C117.207 658.656 116.815 659.144 116.543 659.768C116.271 660.392 116.135 661.12 116.135 661.952V662.096C116.135 663.024 116.279 663.808 116.567 664.448C116.871 665.072 117.311 665.544 117.887 665.864C118.463 666.184 119.175 666.344 120.023 666.344C120.695 666.344 121.351 666.24 121.991 666.032C122.647 665.808 123.263 665.464 123.839 665L124.559 666.68C124.031 667.16 123.351 667.536 122.519 667.808C121.687 668.08 120.847 668.216 119.999 668.216ZM127.393 668V656.288H129.745V659.096H129.505C129.761 658.136 130.217 657.408 130.873 656.912C131.545 656.416 132.433 656.128 133.537 656.048L134.329 656L134.497 658.064L133.033 658.208C131.993 658.304 131.201 658.632 130.657 659.192C130.113 659.752 129.841 660.52 129.841 661.496V668H127.393ZM140.505 668L135.465 656.288H138.081L141.993 666.008H141.321L145.329 656.288H147.801L142.689 668H140.505ZM149.326 653.576V651.056H152.158V653.576H149.326ZM149.542 668V656.288H151.966V668H149.542ZM160.538 668.216C159.338 668.216 158.298 667.968 157.418 667.472C156.554 666.96 155.882 666.248 155.402 665.336C154.922 664.408 154.682 663.32 154.682 662.072C154.682 660.84 154.922 659.776 155.402 658.88C155.882 657.984 156.554 657.296 157.418 656.816C158.298 656.32 159.338 656.072 160.538 656.072C161.274 656.072 162.002 656.2 162.722 656.456C163.442 656.696 164.034 657.048 164.498 657.512L163.73 659.216C163.298 658.8 162.81 658.496 162.266 658.304C161.722 658.096 161.21 657.992 160.73 657.992C159.594 657.992 158.714 658.352 158.09 659.072C157.482 659.776 157.178 660.784 157.178 662.096C157.178 663.408 157.482 664.44 158.09 665.192C158.714 665.928 159.594 666.296 160.73 666.296C161.21 666.296 161.722 666.2 162.266 666.008C162.81 665.8 163.298 665.488 163.73 665.072L164.498 666.8C164.034 667.232 163.434 667.576 162.698 667.832C161.978 668.088 161.258 668.216 160.538 668.216ZM171.843 668.216C170.563 668.216 169.459 667.976 168.531 667.496C167.619 667 166.907 666.304 166.395 665.408C165.899 664.496 165.651 663.416 165.651 662.168C165.651 660.952 165.899 659.888 166.395 658.976C166.891 658.064 167.571 657.352 168.435 656.84C169.299 656.328 170.283 656.072 171.387 656.072C172.475 656.072 173.403 656.312 174.171 656.792C174.955 657.256 175.555 657.92 175.971 658.784C176.387 659.648 176.595 660.68 176.595 661.88V662.696H167.571V661.208H174.963L174.555 661.544C174.555 660.344 174.291 659.416 173.763 658.76C173.235 658.104 172.475 657.776 171.483 657.776C170.731 657.776 170.091 657.952 169.563 658.304C169.051 658.656 168.659 659.144 168.387 659.768C168.115 660.392 167.979 661.12 167.979 661.952V662.096C167.979 663.024 168.123 663.808 168.411 664.448C168.715 665.072 169.155 665.544 169.731 665.864C170.307 666.184 171.019 666.344 171.867 666.344C172.539 666.344 173.195 666.24 173.835 666.032C174.491 665.808 175.107 665.464 175.683 665L176.403 666.68C175.875 667.16 175.195 667.536 174.363 667.808C173.531 668.08 172.691 668.216 171.843 668.216ZM183.341 668.216C182.717 668.216 182.109 668.16 181.517 668.048C180.925 667.936 180.381 667.776 179.885 667.568C179.389 667.36 178.949 667.104 178.565 666.8L179.261 665.168C179.661 665.44 180.085 665.68 180.533 665.888C180.981 666.08 181.445 666.224 181.925 666.32C182.421 666.416 182.901 666.464 183.365 666.464C184.213 666.464 184.853 666.312 185.285 666.008C185.717 665.704 185.933 665.296 185.933 664.784C185.933 664.368 185.789 664.048 185.501 663.824C185.213 663.584 184.781 663.4 184.205 663.272L181.925 662.816C180.933 662.608 180.181 662.24 179.669 661.712C179.157 661.184 178.901 660.512 178.901 659.696C178.901 658.96 179.101 658.32 179.501 657.776C179.901 657.232 180.461 656.816 181.181 656.528C181.901 656.224 182.733 656.072 183.677 656.072C184.221 656.072 184.749 656.128 185.261 656.24C185.773 656.352 186.253 656.512 186.701 656.72C187.165 656.928 187.557 657.192 187.877 657.512L187.181 659.144C186.877 658.872 186.525 658.64 186.125 658.448C185.741 658.256 185.341 658.112 184.925 658.016C184.509 657.904 184.093 657.848 183.677 657.848C182.829 657.848 182.189 658.008 181.757 658.328C181.341 658.632 181.133 659.048 181.133 659.576C181.133 659.976 181.261 660.304 181.517 660.56C181.773 660.816 182.173 661 182.717 661.112L184.997 661.568C186.037 661.776 186.821 662.128 187.349 662.624C187.893 663.12 188.165 663.792 188.165 664.64C188.165 665.376 187.965 666.016 187.565 666.56C187.165 667.104 186.597 667.52 185.861 667.808C185.141 668.08 184.301 668.216 183.341 668.216ZM202.159 668.216C200.703 668.216 199.607 667.84 198.871 667.088C198.151 666.336 197.791 665.248 197.791 663.824V658.16H195.511V656.288H197.791V652.76H200.215V656.288H203.839V658.16H200.215V663.632C200.215 664.48 200.391 665.12 200.743 665.552C201.111 665.984 201.703 666.2 202.519 666.2C202.759 666.2 202.999 666.168 203.239 666.104C203.495 666.04 203.743 665.976 203.983 665.912L204.367 667.736C204.127 667.88 203.791 667.992 203.359 668.072C202.943 668.168 202.543 668.216 202.159 668.216ZM210.903 668.216C209.719 668.216 208.695 667.968 207.831 667.472C206.983 666.976 206.319 666.272 205.839 665.36C205.359 664.448 205.119 663.376 205.119 662.144C205.119 660.896 205.359 659.824 205.839 658.928C206.319 658.016 206.983 657.312 207.831 656.816C208.695 656.32 209.719 656.072 210.903 656.072C212.071 656.072 213.079 656.32 213.927 656.816C214.791 657.312 215.463 658.016 215.943 658.928C216.423 659.84 216.663 660.912 216.663 662.144C216.663 663.376 216.423 664.448 215.943 665.36C215.463 666.272 214.791 666.976 213.927 667.472C213.079 667.968 212.071 668.216 210.903 668.216ZM210.879 666.344C211.887 666.344 212.695 665.984 213.303 665.264C213.911 664.544 214.215 663.504 214.215 662.144C214.215 660.768 213.911 659.728 213.303 659.024C212.695 658.32 211.887 657.968 210.879 657.968C209.887 657.968 209.087 658.32 208.479 659.024C207.871 659.728 207.567 660.768 207.567 662.144C207.567 663.504 207.871 664.544 208.479 665.264C209.087 665.984 209.887 666.344 210.879 666.344ZM231.594 668.216C230.714 668.216 229.874 668.144 229.074 668C228.29 667.84 227.562 667.616 226.89 667.328C226.234 667.024 225.65 666.664 225.138 666.248L225.93 664.28C226.474 664.68 227.034 665.016 227.61 665.288C228.186 665.56 228.802 665.768 229.458 665.912C230.114 666.04 230.826 666.104 231.594 666.104C232.954 666.104 233.954 665.864 234.594 665.384C235.25 664.888 235.578 664.248 235.578 663.464C235.578 663.032 235.474 662.664 235.266 662.36C235.074 662.056 234.754 661.8 234.306 661.592C233.858 661.368 233.274 661.184 232.554 661.04L229.986 660.512C228.466 660.192 227.33 659.664 226.578 658.928C225.842 658.192 225.474 657.2 225.474 655.952C225.474 654.928 225.746 654.032 226.29 653.264C226.834 652.496 227.578 651.904 228.522 651.488C229.482 651.072 230.586 650.864 231.834 650.864C232.602 650.864 233.33 650.944 234.018 651.104C234.722 651.248 235.37 651.472 235.962 651.776C236.57 652.08 237.098 652.448 237.546 652.88L236.73 654.776C236.042 654.168 235.298 653.72 234.498 653.432C233.698 653.128 232.802 652.976 231.81 652.976C231.026 652.976 230.338 653.096 229.746 653.336C229.17 653.576 228.722 653.912 228.402 654.344C228.098 654.776 227.946 655.288 227.946 655.88C227.946 656.552 228.162 657.088 228.594 657.488C229.026 657.888 229.746 658.192 230.754 658.4L233.298 658.928C234.898 659.264 236.09 659.784 236.874 660.488C237.658 661.192 238.05 662.128 238.05 663.296C238.05 664.272 237.786 665.136 237.258 665.888C236.73 666.624 235.986 667.2 235.026 667.616C234.066 668.016 232.922 668.216 231.594 668.216ZM245.78 668.216C244.58 668.216 243.54 667.968 242.66 667.472C241.796 666.96 241.124 666.248 240.644 665.336C240.164 664.408 239.924 663.32 239.924 662.072C239.924 660.84 240.164 659.776 240.644 658.88C241.124 657.984 241.796 657.296 242.66 656.816C243.54 656.32 244.58 656.072 245.78 656.072C246.516 656.072 247.244 656.2 247.964 656.456C248.684 656.696 249.276 657.048 249.74 657.512L248.972 659.216C248.54 658.8 248.052 658.496 247.508 658.304C246.964 658.096 246.452 657.992 245.972 657.992C244.836 657.992 243.956 658.352 243.332 659.072C242.724 659.776 242.42 660.784 242.42 662.096C242.42 663.408 242.724 664.44 243.332 665.192C243.956 665.928 244.836 666.296 245.972 666.296C246.452 666.296 246.964 666.2 247.508 666.008C248.052 665.8 248.54 665.488 248.972 665.072L249.74 666.8C249.276 667.232 248.676 667.576 247.94 667.832C247.22 668.088 246.5 668.216 245.78 668.216ZM251.823 668V651.08H254.247V658.784H253.911C254.263 657.888 254.815 657.216 255.567 656.768C256.319 656.304 257.183 656.072 258.159 656.072C259.087 656.072 259.855 656.248 260.463 656.6C261.087 656.936 261.551 657.456 261.855 658.16C262.159 658.848 262.311 659.72 262.311 660.776V668H259.887V660.92C259.887 660.248 259.799 659.704 259.623 659.288C259.447 658.856 259.183 658.536 258.831 658.328C258.479 658.12 258.023 658.016 257.463 658.016C256.823 658.016 256.255 658.152 255.759 658.424C255.279 658.696 254.903 659.088 254.631 659.6C254.375 660.112 254.247 660.704 254.247 661.376V668H251.823ZM271.147 668.216C269.867 668.216 268.763 667.976 267.835 667.496C266.923 667 266.211 666.304 265.699 665.408C265.203 664.496 264.955 663.416 264.955 662.168C264.955 660.952 265.203 659.888 265.699 658.976C266.195 658.064 266.875 657.352 267.739 656.84C268.603 656.328 269.587 656.072 270.691 656.072C271.779 656.072 272.707 656.312 273.475 656.792C274.259 657.256 274.859 657.92 275.275 658.784C275.691 659.648 275.899 660.68 275.899 661.88V662.696H266.875V661.208H274.267L273.859 661.544C273.859 660.344 273.595 659.416 273.067 658.76C272.539 658.104 271.779 657.776 270.787 657.776C270.035 657.776 269.395 657.952 268.867 658.304C268.355 658.656 267.963 659.144 267.691 659.768C267.419 660.392 267.283 661.12 267.283 661.952V662.096C267.283 663.024 267.427 663.808 267.715 664.448C268.019 665.072 268.459 665.544 269.035 665.864C269.611 666.184 270.323 666.344 271.171 666.344C271.843 666.344 272.499 666.24 273.139 666.032C273.795 665.808 274.411 665.464 274.987 665L275.707 666.68C275.179 667.16 274.499 667.536 273.667 667.808C272.835 668.08 271.995 668.216 271.147 668.216ZM283.006 668.216C281.982 668.216 281.078 667.976 280.294 667.496C279.526 667 278.926 666.296 278.494 665.384C278.062 664.456 277.846 663.376 277.846 662.144C277.846 660.88 278.062 659.8 278.494 658.904C278.926 658.008 279.526 657.312 280.294 656.816C281.078 656.32 281.982 656.072 283.006 656.072C284.03 656.072 284.91 656.328 285.646 656.84C286.398 657.336 286.902 658.008 287.158 658.856H286.894V651.08H289.318V668H286.942V665.36H287.182C286.926 666.224 286.422 666.92 285.67 667.448C284.934 667.96 284.046 668.216 283.006 668.216ZM283.63 666.344C284.622 666.344 285.422 665.984 286.03 665.264C286.638 664.544 286.942 663.504 286.942 662.144C286.942 660.768 286.638 659.728 286.03 659.024C285.422 658.32 284.622 657.968 283.63 657.968C282.622 657.968 281.814 658.32 281.206 659.024C280.598 659.728 280.294 660.768 280.294 662.144C280.294 663.504 280.598 664.544 281.206 665.264C281.814 665.984 282.622 666.344 283.63 666.344ZM296.898 668.216C295.954 668.216 295.162 668.04 294.522 667.688C293.898 667.336 293.426 666.816 293.106 666.128C292.802 665.424 292.65 664.544 292.65 663.488V656.288H295.074V663.512C295.074 664.136 295.154 664.656 295.314 665.072C295.49 665.488 295.754 665.792 296.106 665.984C296.474 666.176 296.93 666.272 297.474 666.272C298.082 666.272 298.618 666.136 299.082 665.864C299.546 665.592 299.906 665.2 300.162 664.688C300.418 664.176 300.546 663.584 300.546 662.912V656.288H302.97V668H300.618V665.432H300.93C300.61 666.328 300.098 667.016 299.394 667.496C298.69 667.976 297.858 668.216 296.898 668.216ZM310.202 668.216C308.922 668.216 307.962 667.856 307.322 667.136C306.698 666.4 306.386 665.344 306.386 663.968V651.08H308.81V663.824C308.81 664.336 308.882 664.776 309.026 665.144C309.17 665.496 309.386 665.76 309.674 665.936C309.962 666.112 310.322 666.2 310.754 666.2C310.946 666.2 311.13 666.192 311.306 666.176C311.482 666.16 311.65 666.128 311.81 666.08L311.762 668.024C311.49 668.088 311.226 668.136 310.97 668.168C310.714 668.2 310.458 668.216 310.202 668.216ZM319.1 668.216C317.82 668.216 316.716 667.976 315.788 667.496C314.876 667 314.164 666.304 313.652 665.408C313.156 664.496 312.908 663.416 312.908 662.168C312.908 660.952 313.156 659.888 313.652 658.976C314.148 658.064 314.828 657.352 315.692 656.84C316.556 656.328 317.54 656.072 318.644 656.072C319.732 656.072 320.66 656.312 321.428 656.792C322.212 657.256 322.812 657.92 323.228 658.784C323.644 659.648 323.852 660.68 323.852 661.88V662.696H314.828V661.208H322.22L321.812 661.544C321.812 660.344 321.548 659.416 321.02 658.76C320.492 658.104 319.732 657.776 318.74 657.776C317.988 657.776 317.348 657.952 316.82 658.304C316.308 658.656 315.916 659.144 315.644 659.768C315.372 660.392 315.236 661.12 315.236 661.952V662.096C315.236 663.024 315.38 663.808 315.668 664.448C315.972 665.072 316.412 665.544 316.988 665.864C317.564 666.184 318.276 666.344 319.124 666.344C319.796 666.344 320.452 666.24 321.092 666.032C321.748 665.808 322.364 665.464 322.94 665L323.66 666.68C323.132 667.16 322.452 667.536 321.62 667.808C320.788 668.08 319.948 668.216 319.1 668.216ZM333.112 668V651.08H335.2L341.848 663.464H341.104L347.704 651.08H349.744V668H347.512V654.608H348.04L342.208 665.408H340.696L334.792 654.584H335.368V668H333.112ZM358.968 668.216C357.688 668.216 356.584 667.976 355.656 667.496C354.744 667 354.032 666.304 353.52 665.408C353.024 664.496 352.776 663.416 352.776 662.168C352.776 660.952 353.024 659.888 353.52 658.976C354.016 658.064 354.696 657.352 355.56 656.84C356.424 656.328 357.408 656.072 358.512 656.072C359.6 656.072 360.528 656.312 361.296 656.792C362.08 657.256 362.68 657.92 363.096 658.784C363.512 659.648 363.72 660.68 363.72 661.88V662.696H354.696V661.208H362.088L361.68 661.544C361.68 660.344 361.416 659.416 360.888 658.76C360.36 658.104 359.6 657.776 358.608 657.776C357.856 657.776 357.216 657.952 356.688 658.304C356.176 658.656 355.784 659.144 355.512 659.768C355.24 660.392 355.104 661.12 355.104 661.952V662.096C355.104 663.024 355.248 663.808 355.536 664.448C355.84 665.072 356.28 665.544 356.856 665.864C357.432 666.184 358.144 666.344 358.992 666.344C359.664 666.344 360.32 666.24 360.96 666.032C361.616 665.808 362.232 665.464 362.808 665L363.528 666.68C363 667.16 362.32 667.536 361.488 667.808C360.656 668.08 359.816 668.216 358.968 668.216ZM371.858 668.216C370.578 668.216 369.474 667.976 368.546 667.496C367.634 667 366.922 666.304 366.41 665.408C365.914 664.496 365.666 663.416 365.666 662.168C365.666 660.952 365.914 659.888 366.41 658.976C366.906 658.064 367.586 657.352 368.45 656.84C369.314 656.328 370.298 656.072 371.402 656.072C372.49 656.072 373.418 656.312 374.186 656.792C374.97 657.256 375.57 657.92 375.986 658.784C376.402 659.648 376.61 660.68 376.61 661.88V662.696H367.586V661.208H374.978L374.57 661.544C374.57 660.344 374.306 659.416 373.778 658.76C373.25 658.104 372.49 657.776 371.498 657.776C370.746 657.776 370.106 657.952 369.578 658.304C369.066 658.656 368.674 659.144 368.402 659.768C368.13 660.392 367.994 661.12 367.994 661.952V662.096C367.994 663.024 368.138 663.808 368.426 664.448C368.73 665.072 369.17 665.544 369.746 665.864C370.322 666.184 371.034 666.344 371.882 666.344C372.554 666.344 373.21 666.24 373.85 666.032C374.506 665.808 375.122 665.464 375.698 665L376.418 666.68C375.89 667.16 375.21 667.536 374.378 667.808C373.546 668.08 372.706 668.216 371.858 668.216ZM384.221 668.216C382.765 668.216 381.669 667.84 380.933 667.088C380.213 666.336 379.853 665.248 379.853 663.824V658.16H377.573V656.288H379.853V652.76H382.277V656.288H385.901V658.16H382.277V663.632C382.277 664.48 382.453 665.12 382.805 665.552C383.173 665.984 383.765 666.2 384.581 666.2C384.821 666.2 385.061 666.168 385.301 666.104C385.557 666.04 385.805 665.976 386.045 665.912L386.429 667.736C386.189 667.88 385.853 667.992 385.421 668.072C385.005 668.168 384.605 668.216 384.221 668.216ZM387.779 653.576V651.056H390.611V653.576H387.779ZM387.995 668V656.288H390.419V668H387.995ZM393.831 668V656.288H396.183V658.784H395.919C396.271 657.888 396.823 657.216 397.575 656.768C398.327 656.304 399.191 656.072 400.167 656.072C401.095 656.072 401.863 656.248 402.471 656.6C403.095 656.936 403.559 657.456 403.863 658.16C404.167 658.848 404.319 659.72 404.319 660.776V668H401.895V660.92C401.895 660.248 401.807 659.704 401.631 659.288C401.455 658.856 401.191 658.536 400.839 658.328C400.487 658.12 400.031 658.016 399.471 658.016C398.831 658.016 398.263 658.152 397.767 658.424C397.287 658.696 396.911 659.088 396.639 659.6C396.383 660.112 396.255 660.704 396.255 661.376V668H393.831ZM412.963 672.536C411.907 672.536 410.923 672.408 410.011 672.152C409.099 671.896 408.291 671.512 407.587 671L408.331 669.272C408.795 669.576 409.267 669.832 409.747 670.04C410.243 670.264 410.739 670.424 411.235 670.52C411.747 670.616 412.267 670.664 412.795 670.664C413.915 670.664 414.755 670.376 415.315 669.8C415.875 669.24 416.155 668.408 416.155 667.304V664.856H416.371C416.131 665.736 415.627 666.432 414.859 666.944C414.091 667.456 413.203 667.712 412.195 667.712C411.139 667.712 410.219 667.472 409.435 666.992C408.651 666.496 408.043 665.816 407.611 664.952C407.179 664.072 406.963 663.048 406.963 661.88C406.963 660.712 407.179 659.696 407.611 658.832C408.043 657.968 408.651 657.296 409.435 656.816C410.219 656.32 411.139 656.072 412.195 656.072C413.219 656.072 414.107 656.328 414.859 656.84C415.627 657.352 416.123 658.048 416.347 658.928H416.155V656.288H418.507V667.016C418.507 668.232 418.299 669.248 417.883 670.064C417.467 670.896 416.843 671.512 416.011 671.912C415.195 672.328 414.179 672.536 412.963 672.536ZM412.771 665.816C413.811 665.816 414.627 665.464 415.219 664.76C415.827 664.056 416.131 663.096 416.131 661.88C416.131 660.68 415.827 659.728 415.219 659.024C414.627 658.32 413.811 657.968 412.771 657.968C411.747 657.968 410.931 658.32 410.323 659.024C409.715 659.728 409.411 660.68 409.411 661.88C409.411 663.096 409.715 664.056 410.323 664.76C410.931 665.464 411.747 665.816 412.771 665.816Z" fill="#3D3D3D"/>
</svg>
