<svg width="46" height="45" viewBox="0 0 46 45" fill="none" xmlns="http://www.w3.org/2000/svg">
<path d="M22.5789 0.420898C16.4516 0.420898 15.6811 0.448398 13.2736 0.552898C10.8661 0.662898 9.22632 1.0314 7.78974 1.5759C6.28286 2.12815 4.91795 2.99442 3.79044 4.11415C2.64195 5.21331 1.75299 6.54306 1.18539 8.0109C0.626566 9.4079 0.245546 11.0084 0.135474 13.3459C0.0282237 15.6971 0 16.4452 0 22.4236C0 28.3966 0.0282237 29.1446 0.135474 31.4904C0.248368 33.8334 0.626566 35.4311 1.18539 36.8309C1.76398 38.2774 2.53449 39.5039 3.79044 40.7276C5.04357 41.9514 6.30235 42.7049 7.78691 43.2659C9.22632 43.8104 10.8633 44.1816 13.268 44.2889C15.6783 44.3934 16.4459 44.4209 22.5789 44.4209C28.712 44.4209 29.4768 44.3934 31.8871 44.2889C34.289 44.1789 35.9344 43.8104 37.371 43.2659C38.8769 42.7134 40.2408 41.8471 41.3675 40.7276C42.6234 39.5039 43.3939 38.2774 43.9725 36.8309C44.5285 35.4311 44.9095 33.8334 45.0224 31.4904C45.1297 29.1446 45.1579 28.3966 45.1579 22.4209C45.1579 16.4451 45.1297 15.6971 45.0224 13.3486C44.9095 11.0084 44.5285 9.4079 43.9725 8.0109C43.405 6.54302 42.516 5.21326 41.3675 4.11415C40.2403 2.99401 38.8753 2.12767 37.3682 1.5759C35.9287 1.0314 34.2861 0.660148 31.8843 0.552898C29.474 0.448398 28.7091 0.420898 22.5733 0.420898H22.5818H22.5789ZM20.5553 4.3864H22.5818C28.6103 4.3864 29.3244 4.40565 31.7037 4.5129C33.9051 4.60915 35.1018 4.9694 35.8977 5.26915C36.9504 5.6679 37.704 6.1464 38.4943 6.9164C39.2845 7.6864 39.7728 8.4179 40.1821 9.4464C40.4925 10.2191 40.8594 11.3851 40.9582 13.5301C41.0683 15.8484 41.0909 16.5441 41.0909 22.4154C41.0909 28.2866 41.0683 28.9851 40.9582 31.3034C40.8594 33.4484 40.4897 34.6116 40.1821 35.3871C39.8201 36.3424 39.2423 37.2061 38.4915 37.9144C37.7012 38.6844 36.9504 39.1601 35.8949 39.5589C35.1046 39.8614 33.9079 40.2189 31.7037 40.3179C29.3244 40.4224 28.6103 40.4472 22.5818 40.4472C16.5532 40.4472 15.8363 40.4224 13.4571 40.3179C11.2556 40.2189 10.0617 39.8614 9.26584 39.5589C8.28506 39.2067 7.39778 38.6447 6.66926 37.9144C5.9178 37.205 5.33914 36.3405 4.97584 35.3844C4.6682 34.6116 4.29847 33.4456 4.19968 31.3006C4.09243 28.9824 4.06986 28.2866 4.06986 22.4099C4.06986 16.5359 4.09243 15.8429 4.19968 13.5246C4.30129 11.3796 4.6682 10.2136 4.97866 9.43815C5.3879 8.4124 5.87899 7.67815 6.66926 6.90815C7.45952 6.13815 8.21027 5.6624 9.26584 5.26365C10.0617 4.96115 11.2556 4.60365 13.4571 4.50465C15.54 4.41115 16.3472 4.38365 20.5553 4.3809V4.3864ZM34.6333 8.0384C34.2775 8.0384 33.9251 8.10668 33.5964 8.23936C33.2677 8.37203 32.969 8.56649 32.7174 8.81164C32.4658 9.05678 32.2662 9.34781 32.1301 9.66811C31.9939 9.98841 31.9238 10.3317 31.9238 10.6784C31.9238 11.0251 31.9939 11.3684 32.1301 11.6887C32.2662 12.009 32.4658 12.3 32.7174 12.5452C32.969 12.7903 33.2677 12.9848 33.5964 13.1174C33.9251 13.2501 34.2775 13.3184 34.6333 13.3184C35.3519 13.3184 36.041 13.0403 36.5492 12.5452C37.0573 12.0501 37.3428 11.3786 37.3428 10.6784C37.3428 9.97823 37.0573 9.30673 36.5492 8.81164C36.041 8.31654 35.3519 8.0384 34.6333 8.0384ZM22.5818 11.1239C21.0438 11.1005 19.5164 11.3755 18.0885 11.9328C16.6606 12.4901 15.3608 13.3186 14.2647 14.3701C13.1686 15.4215 12.2981 16.675 11.7039 18.0574C11.1097 19.4398 10.8037 20.9235 10.8037 22.4223C10.8037 23.921 11.1097 25.4048 11.7039 26.7872C12.2981 28.1696 13.1686 29.423 14.2647 30.4745C15.3608 31.526 16.6606 32.3545 18.0885 32.9118C19.5164 33.4691 21.0438 33.744 22.5818 33.7206C25.6258 33.6744 28.5291 32.4637 30.665 30.3498C32.8008 28.236 33.998 25.3886 33.998 22.4223C33.998 19.4559 32.8008 16.6085 30.665 14.4947C28.5291 12.3809 25.6258 11.1702 22.5818 11.1239ZM22.5818 15.0866C24.5781 15.0866 26.4927 15.8594 27.9043 17.2348C29.316 18.6102 30.109 20.4757 30.109 22.4209C30.109 24.3661 29.316 26.2316 27.9043 27.607C26.4927 28.9824 24.5781 29.7551 22.5818 29.7551C20.5854 29.7551 18.6708 28.9824 17.2592 27.607C15.8476 26.2316 15.0545 24.3661 15.0545 22.4209C15.0545 20.4757 15.8476 18.6102 17.2592 17.2348C18.6708 15.8594 20.5854 15.0866 22.5818 15.0866Z" fill="#080808"/>
</svg>
