<svg width="154" height="34" viewBox="0 0 154 34" fill="none" xmlns="http://www.w3.org/2000/svg">
<g clip-path="url(#clip0_4862_19869)">
<path d="M78.853 12.9302C78.8649 15.7613 78.8821 18.5923 78.8865 21.4235C78.8895 23.2808 78.6504 25.091 77.8462 26.7952C76.4809 29.691 74.1941 31.4556 71.1757 32.292C68.2346 33.1068 65.3172 32.999 62.4663 31.8689C61.5078 31.489 60.5938 31.0082 59.8028 30.3241C59.5078 30.069 59.4234 29.8077 59.6299 29.4951C60.1035 28.7797 60.6104 28.0863 61.1073 27.387C61.3136 27.0969 61.5777 27.104 61.83 27.2997C63.0228 28.2254 64.4289 28.542 65.8723 28.7193C67.6128 28.9338 69.3216 28.759 70.9305 28.0221C73.6639 26.7691 74.7001 24.7626 74.6063 21.8903C74.6016 21.7526 74.4808 21.5107 74.4012 21.5054C74.2186 21.4928 73.9868 21.5458 73.848 21.661C73.3415 22.0826 72.8845 22.5648 72.3736 22.9803C70.835 24.2311 69.054 24.7876 67.0907 24.754C65.1101 24.7206 63.2412 24.2482 61.5399 23.2077C58.6902 21.465 56.8821 18.9506 56.2678 15.6437C55.6937 12.553 56.183 9.61524 57.9333 6.9817C60.1687 3.61845 63.3187 1.85241 67.3599 1.82529C69.5132 1.81053 71.4101 2.56538 73.0478 3.97169C73.3898 4.2655 73.6939 4.60541 74.0409 4.89255C74.1671 4.99656 74.3793 5.06979 74.5301 5.04064C74.6356 5.02024 74.7545 4.81192 74.78 4.67148C74.8722 4.15631 74.9294 3.63464 74.9963 3.11514C75.0876 2.40008 75.2965 2.2088 76.0032 2.20393C76.6507 2.19931 77.2983 2.19437 77.9455 2.19577C78.6019 2.19839 78.8419 2.43973 78.845 3.10719C78.8608 6.38062 78.8746 9.65405 78.8863 12.9275L78.853 12.9302ZM61.6344 10.0944C61.7351 10.1178 61.8445 10.1233 61.9353 10.1676C63.4073 10.8862 64.9619 11.4509 66.2518 12.5143C66.3947 12.6322 66.5645 12.7176 66.7218 12.8183C66.7112 12.686 66.6643 12.6047 66.5949 12.5534C65.1614 11.4846 64.0383 10.104 62.8599 8.7803C62.7892 8.70108 62.5876 8.6145 62.5641 8.64025C62.4646 8.74901 62.3327 8.91241 62.353 9.03144C62.4013 9.31128 62.2983 9.48341 62.064 9.53951C61.7519 9.61622 61.6691 9.82437 61.6423 10.0969C61.5767 10.279 61.514 10.4621 61.4456 10.643C61.3847 10.8041 61.3201 10.9639 61.2521 11.1221C61.1898 11.2643 61.0647 11.4096 61.0787 11.5416C61.0873 11.6233 61.301 11.6883 61.4273 11.7505C61.4771 11.775 61.5399 11.7722 61.5969 11.7815C63.2392 12.0375 64.8738 12.3249 66.4095 13.0075C66.474 13.0364 66.552 13.0345 66.6237 13.0468C66.5506 12.9325 66.4548 12.8809 66.3581 12.831C65.4278 12.3464 64.4822 11.8885 63.5718 11.369C62.9013 10.9872 62.2781 10.5222 61.6344 10.0944ZM73.3721 9.84487C73.2633 9.69453 73.1841 9.46552 73.0399 9.41037C72.7565 9.30385 72.5533 9.21443 72.6251 8.85298C72.6395 8.77975 72.552 8.66163 72.4797 8.60681C72.4482 8.58414 72.3168 8.65564 72.2639 8.71447C71.9998 9.00766 71.7515 9.31504 71.489 9.60918C70.795 10.3863 70.1885 11.2464 69.331 11.8675C68.9951 12.1112 68.692 12.4008 68.3737 12.6698C68.4964 12.6755 68.6167 12.6349 68.7112 12.5559C69.6678 11.8182 70.6707 11.1563 71.7631 10.6373C72.3055 10.38 72.8397 10.1053 73.3774 9.83852C73.0292 10.1045 72.6859 10.3771 72.332 10.6349C71.3408 11.3588 70.3577 12.095 69.2044 12.5545C68.9747 12.646 68.7558 12.7661 68.5321 12.8741C68.5467 12.9165 68.5617 12.9592 68.5766 13.0006C70.2513 12.1943 72.0383 11.8101 73.8436 11.4835C72.9995 11.8593 72.1533 12.2319 71.2771 12.5081C70.41 12.7803 69.5129 12.9549 68.6289 13.1724L68.6396 13.2579C68.7591 13.2574 68.8786 13.261 68.9977 13.2564C69.8051 13.2194 70.613 13.1416 71.4194 13.1531C72.2732 13.165 73.1255 13.2685 73.9792 13.3124C74.115 13.3195 74.3677 13.2332 74.3731 13.1723C74.3876 13.0139 74.2932 12.8442 74.2453 12.6781C74.1975 12.5119 74.0832 12.3236 74.1269 12.1869C74.287 11.6857 74.1429 11.1924 73.7297 10.8672C73.63 10.7888 73.5562 10.5711 73.5887 10.45C73.6642 10.1731 73.5676 10.0012 73.3721 9.84487ZM70.796 7.40502C70.7729 7.51726 70.7703 7.63892 70.7233 7.73986C70.0435 9.19995 69.4891 10.7305 68.4599 12.0045C68.3292 12.1663 68.2354 12.3587 68.1245 12.5368C68.8472 11.8628 69.4822 11.1214 70.1728 10.4374C70.8688 9.74769 71.6193 9.11445 72.3703 8.43431C72.1532 8.24135 72.0288 8.04355 71.7178 8.10346C71.6157 8.12322 71.3902 7.9382 71.3614 7.81414C71.2836 7.47772 71.1024 7.37173 70.791 7.41106C70.7525 7.14543 70.5728 7.09076 70.3631 7.1645C70.0925 7.26067 69.9362 7.17485 69.7963 6.93658C69.6231 6.64396 68.9714 6.48482 68.6826 6.66533C68.4654 6.80088 68.3122 6.77207 68.132 6.60429C67.8287 6.32267 67.119 6.34561 66.8433 6.6436C66.6693 6.83282 66.4918 6.85955 66.2984 6.70767C66.0928 6.54602 65.9014 6.56266 65.697 6.70101C65.6442 6.73949 65.5808 6.76046 65.5156 6.76102C65.2933 6.74389 65.1792 6.83212 65.1311 7.05788C65.0793 7.30044 64.8851 7.38774 64.6825 7.27613C64.4037 7.12303 64.2287 7.21785 64.0661 7.43712C63.8528 7.46146 63.6814 7.53916 63.6687 7.78726C63.6515 8.12186 63.4904 8.22706 63.1639 8.17332C63.0619 8.15632 62.9014 8.25173 62.8373 8.3445C62.7998 8.39914 62.8729 8.5737 62.943 8.65196C63.0886 8.81513 63.2649 8.9503 63.429 9.0966C64.428 9.98859 65.5265 10.7753 66.3014 11.9039C66.4722 12.1529 66.6935 12.3667 66.8915 12.5968L67.0009 12.5219C65.7402 10.9838 64.9169 9.19805 64.0617 7.43016C64.3199 7.76709 64.6017 8.08807 64.8317 8.44349C65.3921 9.30851 65.9474 10.1783 66.4667 11.0685C66.72 11.5018 66.8877 11.9854 67.0943 12.4455L67.2126 12.4041C66.4218 10.6968 66.0174 8.88329 65.7082 7.04119C66.083 7.88512 66.4503 8.73322 66.7171 9.61245C66.9861 10.4983 67.1557 11.4147 67.3688 12.3176L67.4244 12.3114L67.4009 6.71728L67.5716 6.71435C67.786 8.58251 67.9017 10.4549 67.6924 12.3489C67.9517 10.4591 68.5339 8.6706 69.2017 6.90613C68.9581 8.77621 68.6786 10.6388 67.9294 12.3995C68.0498 12.2906 68.1413 12.1531 68.1958 11.9996C68.8172 10.3275 69.8331 8.8815 70.7973 7.40501L70.796 7.40502ZM61.8066 16.8853C63.3318 15.7537 64.827 14.5744 66.6215 13.8677C65.7364 14.1102 64.8899 14.4382 64.0218 14.6908C63.1602 14.9415 62.277 15.116 61.4033 15.324C61.3934 15.2873 61.3832 15.2503 61.373 15.2133C62.2204 14.8853 63.0538 14.5131 63.9184 14.2421C64.783 13.9711 65.67 13.8054 66.5477 13.5933L66.5332 13.4983C66.4213 13.4988 66.3071 13.486 66.1972 13.5016C64.5471 13.7354 62.8992 13.5592 61.2504 13.4841C61.123 13.4783 60.9103 13.5004 60.8814 13.5702C60.8275 13.7003 60.8297 13.9043 60.899 14.0248C61.0209 14.2362 60.9924 14.4112 60.9686 14.6416C60.9217 15.0941 60.968 15.5663 61.3633 15.8979C61.5182 16.0284 61.6011 16.1554 61.5225 16.3784C61.4318 16.6322 61.5046 16.8382 61.8138 16.8803C61.6772 17.1422 61.784 17.27 62.0464 17.3228C62.2915 17.3718 62.447 17.4915 62.3982 17.7794C62.3436 18.1015 62.8825 18.7049 63.2127 18.6687C63.5219 18.6357 63.6531 18.7482 63.7028 19.0534C63.759 19.4016 64.4552 19.7643 64.7589 19.6167C65.013 19.493 65.1493 19.6087 65.2608 19.8182C65.451 20.1773 66.0805 20.3828 66.4226 20.1767C66.6531 20.0383 66.8132 20.0636 66.9976 20.2605C67.2468 20.5265 68.0551 20.4841 68.2841 20.2069C68.4314 20.0286 68.5756 20.0191 68.7657 20.1387C69.0941 20.3454 69.8869 20.1159 70.0439 19.7658C70.1435 19.5436 70.2888 19.4797 70.5145 19.5395C70.9189 19.6487 71.4375 19.3272 71.5263 18.9163C71.5728 18.6991 71.6706 18.552 71.9228 18.5731C72.3228 18.6066 72.8324 18.0894 72.7898 17.6879C72.7663 17.4687 72.8349 17.3306 73.0512 17.2651C73.5026 17.1283 73.834 16.5361 73.7224 16.0753C73.6699 15.8595 73.7063 15.6952 73.9215 15.578C74.2037 15.4238 74.4088 14.7707 74.2373 14.511C74.0608 14.2431 74.0816 14.0508 74.3197 13.8454C74.3805 13.7929 74.4131 13.6404 74.3814 13.5683C74.3538 13.505 74.2168 13.4578 74.1295 13.4591C73.7837 13.4647 73.438 13.4896 73.0923 13.5119C71.9634 13.5851 70.8362 13.7327 69.7028 13.5598C69.3602 13.5074 69.0131 13.4838 68.6681 13.4469C68.6601 13.4919 68.6518 13.5369 68.6438 13.582C70.4728 13.7415 72.1779 14.3458 73.8768 14.9747C72.0601 14.7343 70.2505 14.4685 68.5488 13.7154C69.3537 14.1888 70.193 14.5702 70.99 15.0265C71.7869 15.4828 72.5344 16.0106 73.3045 16.5056C71.5627 15.8436 69.8743 15.0901 68.4278 13.874L68.3187 14.018C69.8185 15.1401 71.0328 16.5371 72.1995 17.9821C70.759 16.8407 69.3408 15.6768 68.289 14.1223L68.1549 14.2268C69.2551 15.6341 70.0761 17.1965 70.7689 18.8286C69.6732 17.425 68.6752 15.9622 67.9951 14.2899C68.7034 16.0086 69.1007 17.799 69.4296 19.6087C68.7068 17.9483 68.0584 16.2645 67.8549 14.4343L67.7195 14.4624L67.743 20.046L67.6261 20.0465C67.4079 18.1809 67.2332 16.3139 67.4767 14.4219C67.2035 16.2801 66.617 18.0344 65.9853 19.7756C66.2262 17.9372 66.5241 16.1128 67.2905 14.3967L67.128 14.3359C66.5018 16.1126 65.4677 17.6508 64.421 19.1822C64.783 18.3114 65.1295 17.4321 65.5692 16.6031C66.0034 15.7852 66.5317 15.018 67.0188 14.2284L66.9219 14.1436C65.8213 15.6891 64.3812 16.8771 62.96 18.0862C64.117 16.6384 65.2529 15.1735 66.7751 14.0707C66.6251 14.0984 66.4847 14.1644 66.3673 14.2625C65.4039 15.0357 64.3455 15.6525 63.2413 16.1938C62.7638 16.428 62.2857 16.6552 61.8066 16.8853ZM66.48 13.3212C66.4824 13.2936 66.4848 13.266 66.4875 13.2381C66.4704 13.2233 66.4559 13.199 66.4364 13.1949C66.3464 13.1754 66.2555 13.1612 66.1649 13.146C65.1315 12.9701 64.0947 12.8211 63.1039 12.4445C62.5116 12.2196 61.8963 12.0555 61.2886 11.8743C60.9927 11.7859 60.8411 11.9222 60.9517 12.202C61.0445 12.4377 61.0163 12.6057 60.8914 12.8153C60.7116 13.1154 60.8363 13.3145 61.1852 13.3032C61.6566 13.2882 62.128 13.2387 62.5994 13.219C63.3223 13.1884 64.0486 13.1422 64.7723 13.1573C65.3426 13.1691 65.911 13.2637 66.48 13.3212Z" fill="white"/>
<path d="M130.035 8.76543C130.09 8.39075 130.133 8.09469 130.178 7.79926C130.204 7.62713 130.22 7.45061 130.263 7.28412C130.423 6.65557 130.594 6.51071 131.229 6.51976C131.826 6.52834 132.431 6.52643 133.021 6.60727C133.533 6.67639 133.707 6.92941 133.709 7.45178C133.718 10.7014 133.722 13.9511 133.722 17.2009C133.724 19.216 133.71 21.2315 133.73 23.2462C133.738 23.9798 133.535 24.2142 132.778 24.2753C132.123 24.3281 131.461 24.3002 130.802 24.2937C130.417 24.29 130.168 24.0667 130.077 23.7057C130.006 23.4275 130.005 23.132 129.96 22.8458C129.939 22.7144 129.888 22.5876 129.85 22.4588C129.733 22.5163 129.594 22.5508 129.5 22.6351C128.631 23.4102 127.662 24.0066 126.542 24.3326C124.187 25.0175 121.973 24.5846 119.908 23.3702C117.446 21.9211 115.986 19.71 115.532 16.8893C114.773 12.1724 117.648 7.72996 122.208 6.53835C124.597 5.91373 126.839 6.1929 128.854 7.71421C129.248 8.00843 129.595 8.36908 130.035 8.76543ZM129.811 15.4107C129.827 14.7042 129.664 13.9823 129.362 13.2901C128.203 10.621 125.272 9.29675 122.71 10.2826C120.44 11.1557 119.019 13.6561 119.349 16.2001C119.657 18.5849 121.302 20.4663 123.448 20.8903C126.756 21.5439 129.827 18.9238 129.811 15.4107L129.811 15.4107Z" fill="white"/>
<path d="M31.7014 9.1954C31.7625 8.7887 31.8031 8.48123 31.8527 8.17501C31.8879 7.95722 31.9137 7.73568 31.9779 7.5257C32.1112 7.08385 32.3024 6.93542 32.7613 6.9335C33.3498 6.93102 33.9447 6.90191 34.525 6.97708C35.2258 7.06917 35.3723 7.29031 35.374 8.00434C35.3837 12.6402 35.3921 17.2759 35.3995 21.9113C35.4005 22.5401 35.4073 23.1692 35.4027 23.7981C35.3987 24.3366 35.2413 24.5907 34.7247 24.6341C33.9334 24.7008 33.1346 24.6889 32.3392 24.6818C32.0444 24.6796 31.8498 24.4621 31.7741 24.1868C31.7007 23.9201 31.6813 23.6385 31.6295 23.3654C31.5974 23.2004 31.5508 23.0388 31.5105 22.8758C31.3575 22.9636 31.2004 23.0453 31.0518 23.14C30.3717 23.5747 29.733 24.0994 29.0076 24.4329C27.0153 25.3495 24.9702 25.2387 22.972 24.4519C19.8573 23.2264 17.9567 20.9132 17.2717 17.6288C16.2849 12.8969 19.1772 8.08543 24.0547 6.89818C26.3723 6.33438 28.5552 6.63724 30.5041 8.10655C30.8173 8.34251 31.0892 8.63377 31.3801 8.89928L31.7014 9.1954ZM26.3326 21.4144C26.6292 21.3653 27.0997 21.3427 27.5348 21.2062C29.6118 20.5547 30.9268 19.1389 31.3617 17C31.8101 14.7951 31.0931 12.9335 29.3652 11.5298C27.2202 9.78731 24.2349 10.0349 22.437 12.0341C20.85 13.8009 20.4955 16.4415 21.6103 18.5505C22.5761 20.3765 24.091 21.355 26.3339 21.4153L26.3326 21.4144Z" fill="white"/>
<path d="M42.7612 9.14048C42.8843 9.02687 42.9492 8.9813 42.9958 8.92186C44.4343 7.1326 46.3563 6.5296 48.5505 6.68258C52.0506 6.92668 54.181 9.47136 54.6542 12.6227C54.7487 13.2675 54.7964 13.9185 54.7969 14.5703C54.8075 17.5412 54.7958 20.512 54.79 23.4829C54.7882 24.3883 54.5603 24.6171 53.6631 24.6237C53.0737 24.6277 52.484 24.634 51.8943 24.6289C51.1489 24.6225 50.9295 24.4011 50.9128 23.6415C50.9027 23.1876 50.9062 22.7329 50.903 22.2793C50.8854 19.5867 50.8744 16.8966 50.8467 14.2052C50.8299 12.602 49.7705 11.16 48.2729 10.6582C46.2299 9.97332 43.7612 11.3028 43.2196 13.4013C43.1249 13.7676 43.1124 14.162 43.1115 14.545C43.1059 17.3179 43.1153 20.0907 43.1151 22.8636C43.119 23.2246 43.0987 23.5855 43.0542 23.9438C42.9856 24.4468 42.7397 24.6585 42.2377 24.6676C41.5094 24.6811 40.7808 24.6873 40.0527 24.6749C39.4585 24.6644 39.2343 24.4318 39.2287 23.8411C39.1831 18.5752 39.14 13.3093 39.0994 8.04363C39.0943 7.34989 39.53 6.9112 40.2172 6.89849C40.6795 6.89043 41.1419 6.88848 41.6044 6.89266C42.1124 6.89686 42.3738 7.0852 42.5189 7.58068C42.5862 7.8126 42.6017 8.05996 42.6386 8.30056C42.6761 8.55796 42.714 8.81566 42.7612 9.14048Z" fill="white"/>
<path d="M141.082 8.72225C141.54 8.26954 141.886 7.85436 142.301 7.53044C143.668 6.46471 145.25 6.13271 146.942 6.27101C150.531 6.56416 152.556 9.22523 152.976 12.2013C153.092 13.027 153.121 13.8705 153.128 14.7061C153.148 17.3741 153.14 20.0424 153.14 22.7107C153.144 22.9552 153.133 23.1997 153.108 23.443C153.053 23.92 152.85 24.1616 152.383 24.1822C151.576 24.2173 150.765 24.2188 149.957 24.194C149.511 24.1804 149.349 23.9922 149.282 23.5433C149.255 23.3603 149.257 23.1718 149.255 22.9856C149.227 19.9214 149.206 16.8571 149.17 13.7933C149.159 13.0069 148.906 12.2431 148.447 11.6074C147.987 10.9717 147.343 10.4952 146.604 10.2437C144.586 9.56666 142.119 10.867 141.57 12.9151C141.477 13.2586 141.454 13.6287 141.452 13.9867C141.439 16.8062 141.439 19.6256 141.432 22.445C141.432 22.7827 141.435 23.1223 141.403 23.4589C141.356 23.9558 141.094 24.2332 140.634 24.2459C139.86 24.2675 139.085 24.2742 138.311 24.2556C137.767 24.2415 137.555 23.9956 137.543 23.4352C137.531 22.8064 137.534 22.177 137.53 21.5478C137.493 16.9575 137.454 12.3671 137.414 7.77654C137.409 7.30929 137.506 6.91511 137.926 6.67449C138.09 6.58098 138.284 6.50477 138.469 6.49385C138.941 6.46653 139.417 6.47656 139.891 6.47869C140.442 6.48081 140.702 6.66535 140.856 7.19533C140.917 7.40479 140.927 7.62935 140.958 7.84749C140.997 8.11533 141.036 8.38475 141.082 8.72225Z" fill="white"/>
<path d="M0.210261 13.2322C0.19537 9.69017 0.18048 6.1481 0.16559 2.60604C0.162042 1.76213 0.373018 1.54708 1.2029 1.54265C2.05825 1.53905 2.9139 1.53292 3.76957 1.53186C4.46273 1.53179 4.68717 1.75418 4.68914 2.44826C4.70615 8.23888 4.72233 14.0296 4.73766 19.8205C4.74068 20.5396 4.74068 20.5402 5.4684 20.5372C8.38139 20.5249 11.295 20.5142 14.2093 20.5052C14.412 20.5043 14.6585 20.5033 14.807 20.6129C14.97 20.7316 15.1332 20.9723 15.14 21.1659C15.1756 22.155 15.1688 23.146 15.1597 24.1363C15.156 24.5241 14.9469 24.7268 14.5582 24.7724C14.42 24.7849 14.2811 24.7896 14.1424 24.7865C9.87601 24.8045 5.60975 24.8224 1.34359 24.8403C1.26249 24.8407 1.1817 24.841 1.10059 24.8395C0.510485 24.8258 0.329024 24.6567 0.316481 24.066C0.301284 23.3672 0.303996 22.668 0.300742 21.9689C0.288499 19.0564 0.276254 16.1438 0.26401 13.231L0.210261 13.2322Z" fill="white"/>
<path d="M95.3802 6.2985C97.7554 6.26349 99.5295 7.36986 100.944 9.18356C101.256 9.58456 101.229 9.85332 100.853 10.1831C100.384 10.5969 99.9101 11.0082 99.4144 11.3895C98.9369 11.7574 98.7208 11.7256 98.3103 11.2851C97.8249 10.7638 97.3342 10.2476 96.6273 10.038C95.6399 9.74502 94.6812 9.76679 93.815 10.405C92.8974 11.081 92.8957 12.0983 93.873 12.6783C94.4601 13.0269 95.1381 13.2375 95.7954 13.4442C97.1099 13.8574 98.4224 14.2568 99.6028 15.0064C102.417 16.7958 102.342 20.3413 100.978 22.2234C100.161 23.3511 99.0429 24.0436 97.7197 24.4039C95.3415 25.0523 93.0482 24.8934 90.8948 23.6004C90.0849 23.1145 89.4155 22.4232 88.9534 21.5954C88.6456 21.0528 88.6983 20.7386 89.1755 20.3511C89.5624 20.0364 89.955 19.7291 90.3498 19.4246C90.9166 18.9876 91.1858 19.0093 91.6199 19.5967C92.1968 20.3786 92.9634 20.874 93.8659 21.1544C94.9172 21.4813 95.9535 21.3718 96.9268 20.8627C97.7765 20.4182 98.0694 19.7248 97.8363 18.8612C97.7118 18.3992 97.4014 18.0749 96.9895 17.8983C96.4152 17.6548 95.8264 17.4479 95.2265 17.2787C93.9562 16.9147 92.6972 16.5386 91.5762 15.7982C89.1445 14.1928 88.5039 10.9202 90.1924 8.60119C91.0128 7.47409 92.1765 6.87395 93.4965 6.57442C94.1143 6.43497 94.7519 6.38794 95.3802 6.2985Z" fill="white"/>
<path d="M110.248 14.3222C110.253 15.6961 110.251 17.0703 110.27 18.4445C110.276 18.8725 110.293 19.3114 110.391 19.7248C110.541 20.3555 111.007 20.6865 111.656 20.7233C112.382 20.7646 112.546 20.9328 112.552 21.6576C112.557 22.3098 112.563 22.9621 112.553 23.6144C112.547 24.069 112.329 24.3477 111.894 24.3569C109.899 24.3969 107.262 23.5964 106.436 20.9107C106.251 20.3095 106.191 19.6518 106.181 19.0186C106.137 16.0023 106.13 12.9856 106.109 9.96886C106.107 9.28999 106.107 9.2903 105.417 9.29225C105.071 9.29371 104.723 9.30468 104.376 9.29061C103.81 9.26733 103.555 9.00356 103.547 8.43623C103.537 7.76045 103.534 7.08465 103.538 6.40881C103.541 5.84872 103.774 5.59906 104.337 5.57325C104.787 5.55267 105.238 5.55141 105.688 5.56314C105.99 5.57106 106.094 5.44707 106.091 5.14962C106.081 4.31144 106.106 3.47247 106.09 2.634C106.081 2.14111 106.294 1.83483 106.744 1.6888C107.535 1.43205 108.321 1.15566 109.123 0.943209C109.902 0.737191 110.233 1.01426 110.247 1.83722C110.264 2.8854 110.253 3.9337 110.257 4.98194C110.259 5.53948 110.262 5.54043 110.825 5.53965C111.322 5.53756 111.82 5.52976 112.316 5.53686C112.906 5.54515 113.153 5.77157 113.168 6.35218C113.187 7.05052 113.188 7.74924 113.173 8.44835C113.16 9.00944 112.911 9.24427 112.348 9.25931C111.816 9.27327 111.285 9.266 110.753 9.27109C110.303 9.27551 110.276 9.29907 110.277 9.74479C110.281 11.2709 110.288 12.7967 110.297 14.3223L110.248 14.3222Z" fill="white"/>
<path d="M81.1158 15.6678C81.1052 13.1519 81.0947 10.6359 81.0841 8.11983C81.0833 7.94528 81.081 7.77137 81.0916 7.59583C81.1278 7.00233 81.3992 6.73414 81.992 6.72437C82.6622 6.71331 83.3327 6.7127 84.0039 6.71431C84.7363 6.7163 85.0839 7.063 85.0845 7.80904C85.0881 12.4101 85.0895 17.011 85.0885 21.6119C85.0889 22.2993 85.0971 22.9867 85.0906 23.6738C85.0856 24.22 84.8833 24.4635 84.3543 24.4819C83.5463 24.5096 82.7375 24.513 81.9278 24.4921C81.4018 24.4778 81.209 24.2303 81.2056 23.635C81.1906 20.9796 81.179 18.3239 81.1705 15.6679L81.1158 15.6678Z" fill="white"/>
<path d="M83.032 4.40562C82.6737 4.40712 82.3154 4.41685 81.9573 4.40791C81.3757 4.39293 81.1144 4.16436 81.0925 3.58979C81.0646 2.84545 81.0606 2.10028 81.0803 1.35427C81.0943 0.812814 81.3512 0.585233 81.8972 0.577869C82.66 0.567059 83.4229 0.563852 84.186 0.568247C84.7641 0.572469 85.0399 0.835189 85.0575 1.42149C85.0779 2.09648 85.0827 2.77313 85.066 3.44891C85.0507 4.07653 84.7242 4.38551 84.1068 4.40046C83.7491 4.40894 83.3904 4.40443 83.032 4.40562Z" fill="white"/>
</g>
<defs>
<clipPath id="clip0_4862_19869">
<rect width="152.91" height="32.1915" fill="white" transform="translate(0.161133 0.916504) rotate(-0.240863)"/>
</clipPath>
</defs>
</svg>
