<svg width="143" height="31" viewBox="0 0 143 31" fill="none" xmlns="http://www.w3.org/2000/svg">
<path d="M73.5845 11.7131C73.5956 14.3541 73.6117 16.9951 73.6157 19.6361C73.6186 21.3687 73.3955 23.0574 72.6453 24.6472C71.3716 27.3485 69.2384 28.9947 66.4227 29.7748C63.6791 30.5349 60.9576 30.4344 58.2981 29.3802C57.4039 29.0258 56.5513 28.5772 55.8135 27.9391C55.5383 27.7011 55.4596 27.4574 55.6522 27.1658C56.0939 26.4984 56.5669 25.8516 57.0304 25.1992C57.2228 24.9286 57.4692 24.9352 57.7045 25.1178C58.8172 25.9813 60.129 26.2767 61.4754 26.4421C63.0991 26.6421 64.6931 26.4791 66.194 25.7916C68.7438 24.6228 69.7104 22.751 69.6229 20.0716C69.6186 19.9431 69.5059 19.7175 69.4317 19.7125C69.2613 19.7008 69.045 19.7502 68.9156 19.8577C68.4431 20.251 68.0168 20.7008 67.5401 21.0884C66.1049 22.2552 64.4435 22.7744 62.612 22.7431C60.7644 22.7118 59.021 22.2711 57.4339 21.3005C54.7755 19.6748 53.0889 17.3293 52.5158 14.2444C51.9803 11.3613 52.4367 8.62077 54.0695 6.16406C56.1548 3.02664 59.0933 1.37919 62.8631 1.35388C64.8718 1.34012 66.6413 2.04428 68.1691 3.35617C68.4881 3.63025 68.7719 3.94733 69.0956 4.21519C69.2133 4.31222 69.4112 4.38053 69.5519 4.35334C69.6503 4.33431 69.7612 4.13998 69.785 4.00896C69.871 3.52838 69.9243 3.04175 69.9868 2.55713C70.072 1.89009 70.2668 1.71165 70.926 1.70711C71.5301 1.70279 72.1342 1.69818 72.738 1.69949C73.3503 1.70194 73.5741 1.92707 73.577 2.54972C73.5918 5.60334 73.6047 8.65697 73.6155 11.7106L73.5845 11.7131ZM57.5221 9.06779C57.616 9.08956 57.7181 9.09473 57.8027 9.13604C59.1759 9.80641 60.6262 10.3331 61.8294 11.3252C61.9627 11.4351 62.1211 11.5148 62.2679 11.6088C62.258 11.4853 62.2142 11.4095 62.1495 11.3616C60.8122 10.3646 59.7646 9.07667 58.6653 7.84189C58.5993 7.76799 58.4113 7.68722 58.3894 7.71125C58.2966 7.81271 58.1735 7.96513 58.1924 8.07617C58.2375 8.33721 58.1414 8.49779 57.9228 8.55013C57.6317 8.62169 57.5545 8.81586 57.5294 9.07011C57.4683 9.23999 57.4098 9.41076 57.346 9.57948C57.2891 9.72984 57.2289 9.87883 57.1654 10.0265C57.1073 10.1591 56.9906 10.2946 57.0037 10.4178C57.0117 10.494 57.2111 10.5547 57.3289 10.6127C57.3753 10.6355 57.434 10.6329 57.4871 10.6416C59.0191 10.8804 60.544 11.1485 61.9765 11.7853C62.0368 11.8122 62.1095 11.8104 62.1764 11.8219C62.1082 11.7153 62.0188 11.6672 61.9286 11.6206C61.0608 11.1685 60.1786 10.7414 59.3294 10.2567C58.7039 9.9006 58.1226 9.46687 57.5221 9.06779ZM68.4716 8.83498C68.3701 8.69474 68.2962 8.4811 68.1617 8.42966C67.8974 8.33029 67.7079 8.24687 67.7748 7.9097C67.7883 7.84137 67.7066 7.73119 67.6392 7.68006C67.6098 7.6589 67.4872 7.7256 67.4379 7.78048C67.1915 8.05398 66.9599 8.34073 66.715 8.61511C66.0676 9.34008 65.5018 10.1424 64.7019 10.7218C64.3885 10.9491 64.1058 11.2193 63.8089 11.4702C63.9233 11.4755 64.0355 11.4376 64.1237 11.364C65.0161 10.6758 65.9516 10.0584 66.9706 9.57418C67.4767 9.33416 67.975 9.07792 68.4766 8.82906C68.1518 9.07718 67.8315 9.33149 67.5014 9.57195C66.5767 10.2473 65.6597 10.934 64.5838 11.3626C64.3695 11.4481 64.1653 11.56 63.9566 11.6608C63.9703 11.7003 63.9842 11.7402 63.9982 11.7788C65.5604 11.0267 67.2274 10.6683 68.9115 10.3636C68.1241 10.7142 67.3347 11.0618 66.5173 11.3193C65.7084 11.5733 64.8716 11.7361 64.0469 11.9391L64.0569 12.0188C64.1684 12.0184 64.2798 12.0217 64.3909 12.0174C65.1441 11.9829 65.8978 11.9103 66.65 11.921C67.4465 11.9322 68.2416 12.0287 69.038 12.0697C69.1647 12.0763 69.4004 11.9958 69.4054 11.939C69.4189 11.7912 69.3309 11.6329 69.2862 11.4779C69.2416 11.323 69.135 11.1473 69.1758 11.0197C69.3251 10.5522 69.1907 10.0921 68.8052 9.7887C68.7123 9.71551 68.6434 9.51247 68.6737 9.39945C68.7441 9.14117 68.654 8.98079 68.4716 8.83498ZM66.0685 6.55896C66.047 6.66366 66.0445 6.77715 66.0006 6.87131C65.3665 8.23336 64.8494 9.66111 63.8893 10.8496C63.7673 11.0005 63.6798 11.18 63.5764 11.3462C64.2506 10.7175 64.843 10.0258 65.4872 9.38774C66.1364 8.74433 66.8365 8.1536 67.5371 7.51913C67.3345 7.33913 67.2185 7.15461 66.9284 7.2105C66.8332 7.22893 66.6228 7.05634 66.5959 6.94061C66.5234 6.62678 66.3543 6.52791 66.0639 6.56459C66.0279 6.3168 65.8603 6.2658 65.6647 6.33459C65.4123 6.4243 65.2665 6.34424 65.1359 6.12197C64.9744 5.849 64.3664 5.70054 64.0971 5.86894C63.8944 5.99539 63.7514 5.9685 63.5833 5.812C63.3004 5.54929 62.6384 5.57068 62.3812 5.84866C62.2189 6.02518 62.0533 6.05011 61.8729 5.90843C61.6811 5.75764 61.5026 5.77316 61.3119 5.90222C61.2626 5.93812 61.2035 5.95768 61.1427 5.9582C60.9353 5.94222 60.8289 6.02452 60.784 6.23512C60.7357 6.4614 60.5545 6.54284 60.3655 6.43872C60.1054 6.2959 59.9421 6.38435 59.7905 6.5889C59.5915 6.6116 59.4317 6.68409 59.4197 6.91553C59.4038 7.22766 59.2534 7.3258 58.9488 7.27566C58.8538 7.25981 58.704 7.34881 58.6442 7.43535C58.6093 7.48633 58.6774 7.64916 58.7428 7.72217C58.8786 7.87439 59.0431 8.00047 59.1961 8.13695C60.1281 8.96905 61.1528 9.70295 61.8757 10.7558C62.035 10.988 62.2415 11.1875 62.4262 11.4022L62.5283 11.3323C61.3522 9.89745 60.5842 8.23159 59.7864 6.58241C60.0273 6.89671 60.2901 7.19615 60.5047 7.5277C61.0274 8.33463 61.5455 9.14602 62.0299 9.97646C62.2662 10.3806 62.4227 10.8318 62.6154 11.261L62.7258 11.2224C61.988 9.6297 61.6108 7.93796 61.3224 6.21956C61.672 7.00682 62.0146 7.79797 62.2635 8.61817C62.5145 9.44456 62.6726 10.2994 62.8715 11.1417L62.9233 11.1359L62.9014 5.9174L63.0606 5.91467C63.2606 7.65738 63.3685 9.40403 63.1733 11.1709C63.4152 9.40797 63.9583 7.73956 64.5813 6.09356C64.354 7.83808 64.0933 9.57563 63.3943 11.2181C63.5067 11.1165 63.5921 10.9882 63.6429 10.845C64.2226 9.28519 65.1702 7.9363 66.0697 6.55895L66.0685 6.55896ZM57.6827 15.4027C59.1055 14.3471 60.5003 13.2469 62.1743 12.5876C61.3486 12.8139 60.559 13.1199 59.7492 13.3555C58.9455 13.5894 58.1215 13.7522 57.3065 13.9462C57.2973 13.912 57.2878 13.8774 57.2783 13.8429C58.0687 13.537 58.8461 13.1897 59.6527 12.9369C60.4592 12.6841 61.2867 12.5296 62.1055 12.3317L62.0919 12.2431C61.9875 12.2436 61.881 12.2316 61.7785 12.2462C60.2392 12.4643 58.7019 12.2999 57.1638 12.2298C57.0451 12.2244 56.8466 12.2451 56.8196 12.3102C56.7694 12.4316 56.7714 12.6219 56.8361 12.7342C56.9498 12.9314 56.9232 13.0947 56.9009 13.3096C56.8573 13.7318 56.9005 14.1722 57.2692 14.4815C57.4137 14.6033 57.491 14.7218 57.4177 14.9298C57.3331 15.1666 57.401 15.3587 57.6895 15.398C57.562 15.6423 57.6617 15.7616 57.9064 15.8108C58.1351 15.8565 58.2801 15.9682 58.2346 16.2367C58.1837 16.5372 58.6863 17.1001 58.9944 17.0663C59.2828 17.0355 59.4053 17.1405 59.4516 17.4252C59.504 17.75 60.1535 18.0883 60.4368 17.9506C60.6738 17.8353 60.801 17.9432 60.905 18.1387C61.0824 18.4736 61.6697 18.6653 61.9888 18.4731C62.2038 18.3439 62.3532 18.3675 62.5252 18.5512C62.7576 18.7993 63.5117 18.7598 63.7253 18.5012C63.8627 18.3349 63.9972 18.326 64.1745 18.4376C64.4809 18.6304 65.2205 18.4163 65.3669 18.0898C65.4598 17.8825 65.5954 17.8228 65.8059 17.8787C66.1831 17.9805 66.6669 17.6806 66.7497 17.2973C66.7932 17.0947 66.8844 16.9575 67.1196 16.9772C67.4928 17.0084 67.9682 16.5259 67.9285 16.1513C67.9065 15.9469 67.9705 15.8181 68.1723 15.757C68.5934 15.6293 68.9025 15.0769 68.7984 14.647C68.7494 14.4457 68.7834 14.2925 68.9841 14.1832C69.2474 14.0393 69.4387 13.4301 69.2787 13.1878C69.1141 12.9379 69.1335 12.7585 69.3556 12.5669C69.4123 12.5179 69.4428 12.3756 69.4132 12.3084C69.3874 12.2494 69.2597 12.2053 69.1781 12.2065C68.8556 12.2117 68.5331 12.235 68.2106 12.2558C67.1576 12.3241 66.106 12.4618 65.0487 12.3004C64.7292 12.2515 64.4053 12.2296 64.0835 12.1951C64.076 12.2371 64.0683 12.2791 64.0608 12.3211C65.767 12.47 67.3576 13.0337 68.9424 13.6204C67.2477 13.3961 65.5596 13.1482 63.9722 12.4456C64.723 12.8872 65.506 13.243 66.2495 13.6687C66.9929 14.0943 67.6902 14.5867 68.4086 15.0485C66.7837 14.4309 65.2087 13.728 63.8594 12.5936L63.7576 12.7279C65.1567 13.7746 66.2894 15.0778 67.3777 16.4258C66.034 15.3611 64.711 14.2753 63.7298 12.8252L63.6047 12.9227C64.6311 14.2355 65.397 15.693 66.0433 17.2154C65.0211 15.9062 64.0901 14.5415 63.4557 12.9815C64.1164 14.5849 64.4871 16.255 64.7939 17.9432C64.1196 16.3943 63.5148 14.8235 63.3249 13.1162L63.1986 13.1425L63.2205 18.3512L63.1114 18.3516C62.9079 16.6113 62.7449 14.8696 62.9721 13.1047C62.7172 14.8381 62.1701 16.4746 61.5808 18.0989C61.8055 16.3839 62.0834 14.6821 62.7984 13.0812L62.6468 13.0245C62.0626 14.6819 61.098 16.1168 60.1216 17.5453C60.4592 16.733 60.7825 15.9128 61.1927 15.1394C61.5977 14.3765 62.0906 13.6607 62.5449 12.9242L62.4546 12.845C61.4278 14.2868 60.0844 15.395 58.7587 16.5229C59.838 15.1723 60.8977 13.8058 62.3176 12.7771C62.1777 12.8029 62.0467 12.8645 61.9372 12.956C61.0385 13.6773 60.0512 14.2527 59.0211 14.7576C58.5756 14.9761 58.1296 15.1881 57.6827 15.4027ZM62.0423 12.0778C62.0445 12.0521 62.0468 12.0264 62.0493 12.0004C62.0334 11.9866 62.0198 11.9639 62.0016 11.9601C61.9177 11.9418 61.8329 11.9286 61.7483 11.9145C60.7843 11.7504 59.8172 11.6114 58.8929 11.2601C58.3404 11.0502 57.7664 10.8972 57.1995 10.7282C56.9235 10.6457 56.7821 10.7728 56.8852 11.0339C56.9718 11.2537 56.9455 11.4104 56.829 11.606C56.6612 11.8859 56.7776 12.0716 57.103 12.0611C57.5428 12.0471 57.9825 12.0009 58.4223 11.9825C59.0967 11.954 59.7742 11.9109 60.4493 11.9249C60.9813 11.936 61.5116 12.0242 62.0423 12.0778Z" fill="black"/>
<path d="M121.329 7.82805C121.38 7.47853 121.421 7.20235 121.462 6.92675C121.486 6.76618 121.501 6.60152 121.541 6.4462C121.691 5.85985 121.851 5.72472 122.442 5.73317C123 5.74117 123.564 5.73939 124.114 5.81479C124.591 5.87928 124.755 6.1153 124.756 6.60261C124.764 9.634 124.768 12.6655 124.768 15.6971C124.77 17.5769 124.757 19.457 124.776 21.3365C124.783 22.0208 124.593 22.2394 123.887 22.2965C123.276 22.3458 122.659 22.3197 122.044 22.3137C121.685 22.3102 121.452 22.1019 121.368 21.7651C121.302 21.5056 121.301 21.2299 121.259 20.9629C121.239 20.8404 121.192 20.7221 121.157 20.6019C121.047 20.6556 120.918 20.6878 120.83 20.7664C120.019 21.4894 119.116 22.0459 118.071 22.3499C115.874 22.9889 113.808 22.585 111.882 21.4521C109.585 20.1003 108.223 18.0377 107.799 15.4064C107.091 11.0062 109.774 6.8621 114.027 5.75051C116.256 5.16783 118.348 5.42826 120.227 6.84741C120.595 7.12188 120.918 7.45831 121.329 7.82805ZM121.12 14.0271C121.135 13.368 120.983 12.6946 120.701 12.0489C119.62 9.55898 116.886 8.32369 114.496 9.24334C112.378 10.0578 111.053 12.3903 111.36 14.7635C111.648 16.9881 113.182 18.7433 115.184 19.1388C118.27 19.7485 121.135 17.3043 121.12 14.0271L121.12 14.0271Z" fill="black"/>
<path d="M29.5978 8.22901C29.6549 7.84962 29.6927 7.5628 29.739 7.27714C29.7719 7.07398 29.7959 6.86731 29.8558 6.67142C29.9802 6.25924 30.1585 6.12079 30.5866 6.11899C31.1356 6.11668 31.6906 6.08952 32.2319 6.15965C32.8856 6.24555 33.0223 6.45184 33.0239 7.11793C33.0329 11.4425 33.0408 15.7669 33.0476 20.0911C33.0486 20.6777 33.0549 21.2645 33.0506 21.8512C33.0469 22.3536 32.9001 22.5906 32.4181 22.6311C31.68 22.6933 30.9348 22.6822 30.1929 22.6756C29.9178 22.6735 29.7363 22.4706 29.6657 22.2138C29.5972 21.965 29.5791 21.7023 29.5308 21.4475C29.5009 21.2937 29.4574 21.1429 29.4198 20.9908C29.2771 21.0727 29.1305 21.1489 28.9918 21.2373C28.3575 21.6428 27.7616 22.1323 27.0849 22.4433C25.2264 23.2984 23.3187 23.195 21.4546 22.4611C18.549 21.3179 16.7761 19.16 16.1371 16.0961C15.2165 11.682 17.9146 7.19357 22.4647 6.08605C24.6266 5.5601 26.663 5.84262 28.481 7.21328C28.7731 7.43339 29.0267 7.70509 29.2981 7.95278L29.5978 8.22901ZM24.5896 19.6275C24.8662 19.5817 25.3051 19.5607 25.711 19.4334C27.6486 18.8256 28.8753 17.5048 29.2809 15.5095C29.6993 13.4528 29.0304 11.7161 27.4185 10.4067C25.4176 8.78118 22.6327 9.01216 20.9555 10.8771C19.4751 12.5253 19.1444 14.9886 20.1843 16.9559C21.0853 18.6593 22.4985 19.5722 24.5907 19.6284L24.5896 19.6275Z" fill="black"/>
<path d="M39.9154 8.17806C40.0302 8.07207 40.0907 8.02956 40.1342 7.97411C41.4761 6.305 43.269 5.74249 45.3159 5.88519C48.581 6.1129 50.5683 8.48671 51.0097 11.4264C51.0979 12.028 51.1424 12.6352 51.1429 13.2433C51.1528 16.0146 51.1418 18.7861 51.1365 21.5575C51.1347 22.402 50.9222 22.6154 50.0853 22.6216C49.5354 22.6254 48.9853 22.6312 48.4352 22.6265C47.7398 22.6205 47.5352 22.4139 47.5196 21.7053C47.5102 21.2819 47.5134 20.8578 47.5104 20.4347C47.494 17.9228 47.4838 15.4133 47.458 12.9027C47.4423 11.4072 46.4539 10.062 45.057 9.59385C43.1511 8.95497 40.8482 10.1952 40.3429 12.1528C40.2546 12.4944 40.243 12.8624 40.2421 13.2197C40.2369 15.8064 40.2457 18.393 40.2454 20.9797C40.2492 21.3165 40.2302 21.6532 40.1887 21.9874C40.1247 22.4566 39.8953 22.6541 39.427 22.6626C38.7476 22.6752 38.0679 22.681 37.3887 22.6694C36.8344 22.6596 36.6253 22.4427 36.62 21.8915C36.5775 16.9792 36.5373 12.067 36.4994 7.15486C36.4947 6.50769 36.9011 6.09846 37.5421 6.08661C37.9734 6.07908 38.4047 6.07727 38.8362 6.08117C39.3101 6.08509 39.554 6.26078 39.6893 6.72299C39.7521 6.93934 39.7666 7.17009 39.8009 7.39454C39.836 7.63464 39.8713 7.87504 39.9154 8.17806Z" fill="black"/>
<path d="M131.635 7.78764C132.062 7.36533 132.385 6.97802 132.772 6.67585C134.047 5.68169 135.523 5.37198 137.102 5.50099C140.45 5.77446 142.338 8.25685 142.73 11.0331C142.839 11.8033 142.866 12.5902 142.872 13.3697C142.891 15.8585 142.884 18.3477 142.884 20.8368C142.887 21.0649 142.877 21.293 142.854 21.5199C142.802 21.9649 142.613 22.1903 142.177 22.2095C141.424 22.2422 140.668 22.2437 139.914 22.2205C139.498 22.2078 139.347 22.0323 139.284 21.6135C139.259 21.4428 139.261 21.267 139.259 21.0932C139.233 18.2348 139.213 15.3763 139.18 12.5182C139.17 11.7846 138.934 11.0721 138.505 10.4791C138.077 9.886 137.476 9.44155 136.786 9.20694C134.904 8.57536 132.602 9.78837 132.09 11.699C132.003 12.0194 131.982 12.3646 131.981 12.6986C131.968 15.3288 131.968 17.9589 131.962 20.589C131.961 20.904 131.965 21.2208 131.934 21.5348C131.891 21.9983 131.647 22.2571 131.217 22.2689C130.495 22.2891 129.772 22.2954 129.05 22.278C128.543 22.2648 128.345 22.0354 128.334 21.5127C128.323 20.9261 128.326 20.3389 128.321 19.752C128.287 15.4699 128.251 11.1877 128.213 6.90543C128.209 6.46956 128.299 6.10184 128.691 5.87738C128.844 5.79015 129.025 5.71906 129.198 5.70887C129.637 5.68338 130.082 5.69274 130.524 5.69473C131.038 5.6967 131.281 5.86886 131.424 6.36325C131.481 6.55864 131.49 6.76813 131.52 6.97162C131.556 7.22147 131.592 7.4728 131.635 7.78764Z" fill="black"/>
<path d="M0.22161 11.9944C0.20772 8.69018 0.193829 5.38596 0.179939 2.08173C0.176629 1.29448 0.373439 1.09388 1.1476 1.08974C1.94551 1.08638 2.74371 1.08066 3.54193 1.07967C4.18854 1.07961 4.39791 1.28707 4.39975 1.93454C4.41562 7.33635 4.43071 12.7383 4.44501 18.1403C4.44783 18.8111 4.44783 18.8117 5.12669 18.8088C7.84408 18.7974 10.5621 18.7875 13.2806 18.779C13.4698 18.7782 13.6997 18.7772 13.8382 18.8795C13.9903 18.9902 14.1426 19.2148 14.1489 19.3953C14.1821 20.3181 14.1757 21.2425 14.1673 22.1663C14.1638 22.5281 13.9687 22.7171 13.6062 22.7597C13.4772 22.7714 13.3477 22.7757 13.2182 22.7729C9.23834 22.7896 5.25854 22.8063 1.27884 22.8231C1.20318 22.8234 1.12782 22.8237 1.05216 22.8222C0.501675 22.8095 0.332399 22.6518 0.320698 22.1007C0.306521 21.4489 0.309052 20.7966 0.306017 20.1444C0.294595 17.4275 0.283173 14.7104 0.27175 11.9933L0.22161 11.9944Z" fill="black"/>
<path d="M89.0019 5.52643C91.2176 5.49377 92.8726 6.52586 94.1917 8.21777C94.4833 8.59185 94.4583 8.84255 94.1077 9.15018C93.6694 9.5362 93.2276 9.91987 92.7652 10.2755C92.3198 10.6187 92.1182 10.5892 91.7352 10.1782C91.2825 9.69193 90.8247 9.21038 90.1653 9.01486C89.2442 8.74153 88.3499 8.76184 87.5418 9.35716C86.6859 9.98785 86.6843 10.9368 87.5959 11.4779C88.1436 11.803 88.7761 11.9995 89.3892 12.1923C90.6154 12.5778 91.8398 12.9503 92.941 13.6496C95.5658 15.3189 95.4965 18.6263 94.2241 20.382C93.462 21.434 92.4187 22.08 91.1843 22.4162C88.9658 23.0209 86.8265 22.8727 84.8177 21.6666C84.0622 21.2133 83.4377 20.5684 83.0066 19.7962C82.7195 19.29 82.7687 18.9969 83.2138 18.6354C83.5747 18.3419 83.9409 18.0552 84.3092 17.7712C84.838 17.3635 85.0891 17.3837 85.4941 17.9317C86.0323 18.6611 86.7474 19.1232 87.5893 19.3848C88.57 19.6898 89.5367 19.5876 90.4447 19.1127C91.2373 18.698 91.5106 18.0512 91.2931 17.2456C91.1769 16.8146 90.8874 16.5121 90.5031 16.3473C89.9674 16.1202 89.4182 15.9272 88.8585 15.7694C87.6735 15.4298 86.4991 15.0789 85.4534 14.3883C83.1849 12.8907 82.5874 9.83782 84.1624 7.67451C84.9278 6.62309 86.0134 6.06324 87.2447 5.78383C87.821 5.65374 88.4158 5.60987 89.0019 5.52643Z" fill="black"/>
<path d="M102.871 13.012C102.877 14.2936 102.874 15.5756 102.892 16.8575C102.898 17.2567 102.914 17.6662 103.005 18.0518C103.146 18.6402 103.58 18.9489 104.185 18.9833C104.862 19.0218 105.016 19.1787 105.021 19.8548C105.026 20.4633 105.031 21.0717 105.022 21.6803C105.016 22.1043 104.813 22.3644 104.407 22.3729C102.546 22.4102 100.086 21.6635 99.3155 19.1581C99.1431 18.5973 99.0868 17.9837 99.0782 17.393C99.037 14.5793 99.0299 11.7651 99.011 8.95096C99.0084 8.31768 99.0084 8.31797 98.3647 8.31979C98.0421 8.32114 97.7172 8.33137 97.3943 8.31825C96.8664 8.29653 96.6281 8.05048 96.6203 7.52124C96.6112 6.89084 96.6086 6.26041 96.6124 5.62996C96.6149 5.10747 96.8321 4.87458 97.3572 4.8505C97.777 4.8313 98.1984 4.83013 98.6181 4.84107C98.8996 4.84846 98.9971 4.7328 98.9939 4.45532C98.9847 3.67342 99.0078 2.89078 98.9928 2.10861C98.9841 1.64882 99.1832 1.36311 99.6032 1.22688C100.341 0.987363 101.074 0.729539 101.822 0.531351C102.549 0.339166 102.858 0.597631 102.871 1.36533C102.887 2.34313 102.877 3.32105 102.88 4.2989C102.882 4.819 102.885 4.81988 103.41 4.81915C103.874 4.8172 104.338 4.80993 104.801 4.81655C105.352 4.82429 105.582 5.0355 105.596 5.57713C105.613 6.22857 105.614 6.88038 105.6 7.53255C105.588 8.05597 105.356 8.27503 104.83 8.28906C104.335 8.30207 103.839 8.2953 103.343 8.30004C102.923 8.30417 102.898 8.32615 102.899 8.74194C102.903 10.1655 102.909 11.5889 102.917 13.0121L102.871 13.012Z" fill="black"/>
<path d="M75.6953 14.2664C75.6854 11.9195 75.6756 9.57239 75.6657 7.22523C75.665 7.0624 75.6629 6.90017 75.6727 6.73641C75.7065 6.18277 75.9597 5.93259 76.5127 5.92347C77.1379 5.91316 77.7634 5.91259 78.3895 5.91409C79.0727 5.91595 79.397 6.23937 79.3975 6.93531C79.4009 11.2274 79.4022 15.5194 79.4012 19.8113C79.4016 20.4526 79.4093 21.0938 79.4032 21.7348C79.3986 22.2443 79.2098 22.4715 78.7163 22.4886C77.9626 22.5145 77.2081 22.5176 76.4528 22.4981C75.9621 22.4848 75.7823 22.2539 75.779 21.6986C75.7651 19.2215 75.7542 16.7441 75.7463 14.2665L75.6953 14.2664Z" fill="black"/>
<path d="M77.4837 3.76075C77.1494 3.76216 76.8151 3.77124 76.481 3.76289C75.9385 3.74892 75.6948 3.53569 75.6743 2.99971C75.6484 2.30535 75.6445 1.61022 75.6629 0.914291C75.6761 0.409196 75.9156 0.196896 76.425 0.190027C77.1365 0.179943 77.8483 0.176951 78.5601 0.181051C79.0994 0.18499 79.3567 0.430069 79.3731 0.977004C79.3922 1.60667 79.3966 2.23788 79.381 2.86829C79.3668 3.45377 79.0621 3.742 78.4863 3.75595C78.1526 3.76385 77.818 3.75964 77.4837 3.76075Z" fill="black"/>
</svg>
