<svg width="67" height="19" viewBox="0 0 67 19" fill="none" xmlns="http://www.w3.org/2000/svg">
<path d="M53.92 18V15.72L59.392 9.888C59.888 9.36 60.28 8.872 60.568 8.424C60.872 7.976 61.096 7.544 61.24 7.128C61.384 6.712 61.456 6.296 61.456 5.88C61.456 5.08 61.2 4.472 60.688 4.056C60.192 3.64 59.464 3.432 58.504 3.432C57.752 3.432 57.016 3.576 56.296 3.864C55.592 4.136 54.912 4.568 54.256 5.16L53.224 2.856C53.896 2.248 54.736 1.76 55.744 1.392C56.752 1.024 57.8 0.839999 58.888 0.839999C60.104 0.839999 61.128 1.024 61.96 1.392C62.792 1.76 63.424 2.296 63.856 3C64.288 3.704 64.504 4.56 64.504 5.568C64.504 6.08 64.44 6.584 64.312 7.08C64.2 7.56 64.016 8.04 63.76 8.52C63.52 9 63.208 9.496 62.824 10.008C62.456 10.504 62.008 11.024 61.48 11.568L56.968 16.272V15.456H65.152V18H53.92Z" fill="white"/>
<path d="M0 18H36" stroke="white"/>
</svg>
