<svg width="67" height="19" viewBox="0 0 67 19" fill="none" xmlns="http://www.w3.org/2000/svg">
<path d="M58.864 18.24C58.096 18.24 57.344 18.16 56.608 18C55.888 17.856 55.216 17.64 54.592 17.352C53.968 17.064 53.424 16.72 52.96 16.32L53.968 13.968C54.72 14.544 55.488 14.968 56.272 15.24C57.056 15.512 57.888 15.648 58.768 15.648C59.472 15.648 60.064 15.552 60.544 15.36C61.024 15.168 61.384 14.88 61.624 14.496C61.88 14.112 62.008 13.648 62.008 13.104C62.008 12.304 61.736 11.712 61.192 11.328C60.664 10.928 59.888 10.728 58.864 10.728H56.152V8.184H58.576C59.184 8.184 59.704 8.088 60.136 7.896C60.568 7.688 60.904 7.4 61.144 7.032C61.384 6.664 61.504 6.216 61.504 5.688C61.504 4.952 61.256 4.392 60.76 4.008C60.28 3.624 59.576 3.432 58.648 3.432C57.816 3.432 57.04 3.576 56.32 3.864C55.6 4.136 54.912 4.568 54.256 5.16L53.248 2.856C53.92 2.216 54.76 1.72 55.768 1.368C56.776 1.016 57.824 0.839999 58.912 0.839999C60.08 0.839999 61.08 1.024 61.912 1.392C62.744 1.744 63.376 2.256 63.808 2.928C64.256 3.584 64.48 4.384 64.48 5.328C64.48 6.336 64.2 7.208 63.64 7.944C63.08 8.664 62.312 9.144 61.336 9.384V9.096C62.104 9.224 62.76 9.48 63.304 9.864C63.848 10.248 64.264 10.736 64.552 11.328C64.84 11.92 64.984 12.6 64.984 13.368C64.984 14.36 64.736 15.224 64.24 15.96C63.744 16.696 63.04 17.264 62.128 17.664C61.216 18.048 60.128 18.24 58.864 18.24Z" fill="white"/>
<path d="M0 18H36" stroke="white"/>
</svg>
