<svg width="27" height="29" viewBox="0 0 27 29" fill="none" xmlns="http://www.w3.org/2000/svg">
<path d="M18.3158 0.387483C18.0448 0.498125 18.0226 0.608766 17.7848 2.89905C17.5358 5.33316 17.5413 5.34976 17.8899 5.52125C18.0337 5.58764 18.1277 5.59317 18.2771 5.55444C18.6754 5.45487 18.6754 5.4438 18.9244 3.02628C19.118 1.13985 19.1401 0.818985 19.0737 0.669619C18.9576 0.387483 18.6256 0.265777 18.3158 0.387483Z" fill="#080808"/>
<path d="M9.74109 4.12141C9.32066 4.23759 9.02746 4.39802 8.75638 4.67462C8.56276 4.86271 8.34701 5.25549 7.68869 6.59425C7.2406 7.51258 6.22823 9.56498 5.44267 11.1472L4.02093 14.0238L2.63238 14.9643C1.62001 15.6503 1.16084 15.9932 0.928497 16.2477C-0.23324 17.5146 -0.310689 19.3623 0.729342 20.8228C1.18297 21.4534 1.81916 21.9236 2.55493 22.1615C2.91451 22.2777 3.1192 22.3109 3.58389 22.3164C4.25327 22.3219 4.6018 22.25 5.1882 21.979C5.58097 21.8019 5.6031 21.7964 5.67502 21.8904C5.71374 21.9458 6.60994 23.2569 7.66103 24.8114C9.71897 27.854 9.91812 28.103 10.5488 28.3962C11.6441 28.9106 12.9829 28.4294 13.5084 27.3285C13.6689 26.991 13.6799 26.9246 13.6799 26.3604C13.6799 25.8182 13.6633 25.7186 13.5361 25.4476C13.4531 25.2816 12.5901 23.965 11.6165 22.5266C10.6428 21.0938 9.85727 19.9155 9.86833 19.9155C9.92365 19.9155 16.7945 19.3623 17.4971 19.3014C18.4043 19.224 18.6975 19.1133 19.129 18.715C19.7265 18.1618 20.0142 17.3707 20.0142 16.2643C20.0142 14.8702 19.6269 13.4208 18.7916 11.6838C17.1762 8.3092 14.4931 5.42145 12.048 4.40908C11.2071 4.06056 10.3607 3.95545 9.74109 4.12141ZM11.0245 5.28315C11.5446 5.41592 12.5182 5.9304 13.182 6.42276C15.5276 8.17089 17.923 11.6948 18.6035 14.3889C18.9133 15.6115 18.9133 16.5686 18.6035 17.2546C18.4265 17.6418 18.2384 17.841 17.8898 18.018C17.5358 18.195 17.2205 18.195 16.6562 18.0069C13.3535 16.9005 9.32066 11.2799 9.07725 7.44066C9.02192 6.47808 9.18789 5.87508 9.60833 5.52656C9.99557 5.20017 10.4105 5.12825 11.0245 5.28315ZM8.5351 10.2288C9.58066 13.1996 11.9539 16.4248 14.294 18.0457C14.6259 18.278 14.6868 18.3444 14.6093 18.372C14.554 18.3942 13.9731 18.4495 13.3203 18.4993C12.6676 18.5491 11.362 18.6486 10.416 18.7261C9.47556 18.798 8.59042 18.8644 8.46319 18.8755L8.21977 18.8865L6.68739 16.6239L5.14947 14.3613L6.361 11.8995C7.03038 10.5442 7.67763 9.21092 7.80487 8.94538L8.03168 8.45303L8.18105 9.05603C8.26403 9.38242 8.42446 9.9135 8.5351 10.2288ZM5.76353 17.3375C6.4827 18.3997 7.08017 19.2848 7.0857 19.3125C7.09123 19.3346 6.56015 19.7219 5.90737 20.1644C4.51328 21.1104 4.26434 21.2155 3.50091 21.1768C3.10813 21.1547 2.97536 21.1215 2.62131 20.95C1.52596 20.4023 0.9119 19.0857 1.25489 17.9848C1.49277 17.2214 1.72512 16.989 3.21878 15.9656C4.20349 15.2962 4.33072 15.2298 4.38604 15.3128C4.42477 15.3626 5.04436 16.2754 5.76353 17.3375ZM10.4437 22.853C11.4948 24.4075 12.402 25.7684 12.4573 25.8791C12.5846 26.128 12.5956 26.5761 12.4739 26.8085C12.3356 27.0795 12.0424 27.3285 11.7548 27.4115C11.2845 27.5498 10.842 27.3783 10.5101 26.9246C10.3939 26.7697 9.45896 25.3978 8.42999 23.8765C7.01378 21.7909 6.57675 21.1049 6.63207 21.0717C6.67632 21.0496 7.03591 20.8062 7.42869 20.5351C7.99296 20.1423 8.19211 20.0372 8.34148 20.0317H8.5351L10.4437 22.853Z" fill="#080808"/>
<path d="M12.6019 9.40451C12.2091 9.4543 11.9325 9.54281 11.5342 9.75303C11.0474 10.0075 10.9146 10.3892 11.1912 10.7211C11.418 10.9867 11.5895 10.9922 12.1151 10.7488C12.5189 10.5662 12.624 10.5386 12.9891 10.5386C13.6972 10.5386 14.2504 10.876 14.599 11.5178C14.7705 11.8386 14.7871 11.905 14.7871 12.3365C14.7871 12.9506 14.6377 13.2714 14.1232 13.7914C13.7581 14.151 13.7526 14.1732 13.7802 14.3889C13.8355 14.7928 14.1951 15.0196 14.5547 14.8868C14.7705 14.8038 15.296 14.3004 15.5062 13.9685C15.7884 13.5314 15.9267 13.0889 15.9599 12.5301C16.076 10.6492 14.4939 9.1777 12.6019 9.40451Z" fill="#080808"/>
<path d="M24.4676 4.4756C24.2242 4.57517 20.5343 7.03695 20.4292 7.16972C20.2632 7.37994 20.2854 7.70633 20.4734 7.89442C20.5952 8.02166 20.6726 8.04932 20.8884 8.04932C21.1318 8.04378 21.2535 7.9774 23.0293 6.81013C24.0638 6.12969 24.9766 5.51009 25.0595 5.43264C25.5187 5.00114 25.0485 4.24325 24.4676 4.4756Z" fill="#080808"/>
<path d="M21.5635 10.5719C21.226 10.7047 21.1154 11.197 21.3588 11.4847C21.4805 11.6285 21.5966 11.6562 23.7265 12.0379C24.9546 12.2647 26.0666 12.4473 26.1993 12.4473C26.393 12.4473 26.4704 12.4141 26.6032 12.2868C26.8576 12.0268 26.8023 11.5677 26.4925 11.4017C26.4151 11.3574 21.8179 10.5055 21.7294 10.5166C21.7128 10.5166 21.6409 10.5442 21.5635 10.5719Z" fill="#080808"/>
</svg>
