<svg width="76" height="62" viewBox="0 0 76 62" fill="none" xmlns="http://www.w3.org/2000/svg">
<path d="M69.2272 0H6.04797C2.32317 0 0.00283201 2.29404 0.00283201 6.0035C0.00283201 18.6518 0.00283201 31.2993 0.00283201 43.9461C-0.0149863 44.5744 0.0513392 45.2022 0.200033 45.8129C0.903363 48.4159 3.06594 49.9978 5.94061 49.9978H69.1987C72.9586 49.9978 75.2855 47.6906 75.2855 43.933C75.2855 31.3124 75.2855 18.6919 75.2855 6.07143C75.2855 2.28747 72.9958 0 69.2272 0ZM69.0804 46.617H6.22983C4.10231 46.617 3.3705 45.8918 3.3705 43.7861V6.17441C3.3705 4.09071 4.13737 3.32603 6.24517 3.32603H69.0125C71.1663 3.32603 71.9156 4.07537 71.9156 6.22261V43.7598C71.9156 45.8764 71.1816 46.617 69.0804 46.617Z" fill="#080808"/>
<path d="M62.2225 53.2319C61.2804 52.6425 60.2352 52.5308 59.155 52.5308C44.9511 52.5308 30.7457 52.5308 16.5389 52.5308C15.9659 52.5267 15.3932 52.5545 14.8233 52.614C14.2502 52.6718 13.6952 52.8478 13.1936 53.1311C12.692 53.4143 12.2547 53.7986 11.9092 54.2595C10.772 55.721 10.5485 57.3555 11.3351 59.0273C12.1217 60.699 13.5262 61.6565 15.4324 61.6565C22.8075 61.6712 30.1841 61.6712 37.5621 61.6565C44.9928 61.6565 52.4226 61.6565 59.8518 61.6565C60.8426 61.6604 61.807 61.3372 62.5954 60.737C63.3837 60.1368 63.952 59.2932 64.212 58.3371C64.4784 57.3855 64.4284 56.3731 64.0696 55.4524C63.7108 54.5316 63.0626 53.7524 62.2225 53.2319ZM60.1651 58.2473C59.8468 58.319 59.5205 58.3492 59.1945 58.3371H16.0897C15.9517 58.3371 15.8159 58.3371 15.68 58.3371C14.8036 58.3042 14.2361 57.8112 14.2493 57.0926C14.2624 56.3739 14.8145 55.916 15.7216 55.9138H59.2361C59.4815 55.9017 59.7275 55.9061 59.9723 55.9269C60.2511 55.9475 60.5123 56.0711 60.7051 56.2735C60.8978 56.476 61.0084 56.743 61.0152 57.0225C61.0543 57.2962 60.9883 57.5746 60.8307 57.8018C60.673 58.0289 60.4352 58.1881 60.1651 58.2473Z" fill="#080808"/>
<path d="M50.8137 20.721C45.5552 17.6382 40.2484 14.6145 34.9636 11.5624C34.2427 11.138 33.4304 10.893 32.595 10.8481C31.9431 10.831 31.2944 10.9454 30.6877 11.1845C30.0809 11.4236 29.5285 11.7825 29.0635 12.2397C28.5985 12.697 28.2304 13.2432 27.9811 13.8459C27.7318 14.4485 27.6065 15.0952 27.6126 15.7473C27.5775 21.8932 27.5666 28.0392 27.6126 34.1851C27.6432 38.129 31.5565 40.3442 34.9964 38.3832C40.274 35.3741 45.5362 32.338 50.783 29.2749C54.2383 27.2526 54.2581 22.739 50.8137 20.721ZM48.868 26.5164C43.7746 29.4582 38.6789 32.3979 33.581 35.3354C32.0363 36.225 30.9386 35.6027 30.9364 33.8345C30.9364 30.8854 30.9364 27.9362 30.9364 24.987C30.9364 22.0378 30.9364 19.0887 30.9364 16.1395C30.9364 14.4261 32.0517 13.7622 33.5197 14.6058C38.6394 17.5564 43.7585 20.5107 48.8768 23.4686C50.4281 24.3691 50.4193 25.6202 48.868 26.5164Z" fill="#080808"/>
</svg>
