<svg width="41" height="84" viewBox="0 0 41 84" fill="none" xmlns="http://www.w3.org/2000/svg">
<mask id="path-1-outside-1_6296_747" maskUnits="userSpaceOnUse" x="0" y="0" width="41" height="84" fill="black">
<rect fill="white" width="41" height="84"/>
<path d="M39.9927 33.4864C39.9927 32.7542 39.5658 32.8973 39.1773 32.9122C38.7888 32.9271 38.2531 32.6817 38.2765 33.4949C38.3278 35.2496 38.2936 37.0085 38.2936 38.7653C38.2936 40.1421 38.2936 40.1036 36.9467 40.157C36.2892 40.1848 36.1185 40.0183 36.1206 39.3459C36.149 31.8107 36.1526 24.2771 36.1313 16.7448C36.1057 9.54479 31.512 3.51028 24.6194 1.5614C23.7954 1.32873 22.9437 1.18571 22.1048 1H18.7429C17.9317 1.19211 17.1142 1.35648 16.3115 1.58061C13.0419 2.48185 10.1555 4.42523 8.09062 7.11578C6.02571 9.80633 4.895 13.0971 4.87012 16.4886C4.82743 23.8893 4.85945 31.2899 4.85731 38.6884C4.85731 40.1463 4.85731 40.1165 3.42927 40.1527C2.84866 40.1677 2.65867 40.0417 2.67148 39.4206C2.71844 37.4781 2.64374 35.5335 2.70991 33.5931C2.73766 32.8076 2.32568 32.9101 1.83685 32.8951C1.30534 32.8823 0.993693 32.8951 1.0001 33.623C1.03852 38.8933 1.01077 44.1637 1.02998 49.434C1.02615 50.393 1.09752 51.3508 1.24344 52.2986C2.75473 61.5328 9.81384 68.0626 19.1506 68.8716C19.5561 68.9079 19.6992 69.0103 19.6906 69.4287C19.6664 70.8148 19.6664 72.1994 19.6906 73.5826C19.6906 73.9903 19.5689 74.1248 19.157 74.1632C16.8961 74.3787 14.7378 75.2109 12.9175 76.5689C10.8092 78.1146 9.21697 80.2611 8.34951 82.7272H32.7031C30.6582 77.7899 27.1681 74.8186 21.8658 74.1611C21.4026 74.1035 21.3001 73.9476 21.3129 73.5207C21.3407 72.59 21.3129 71.6572 21.3129 70.7244C21.3129 68.9676 21.3129 68.9676 23.0056 68.7478C32.4811 67.5225 39.7323 59.569 39.9351 50.0103C40.0611 44.5094 39.9586 38.9958 39.9927 33.4864ZM6.52656 47.6345C6.58206 46.4391 6.57352 45.2395 6.52656 44.0441C6.50522 43.4656 6.70587 43.3418 7.24805 43.3461C9.96326 43.3717 12.6806 43.3205 15.3937 43.3802C16.2198 43.3995 16.0212 42.932 16.0533 42.488C16.0895 41.9864 16.0703 41.6854 15.3766 41.6982C12.6614 41.7494 9.94619 41.6982 7.23098 41.7323C6.67385 41.7323 6.50735 41.5872 6.52656 41.0279C6.56925 39.8304 6.56925 38.6308 6.52656 37.4354C6.50735 36.8868 6.64823 36.7139 7.2203 36.7225C9.93551 36.7523 12.6507 36.6968 15.3659 36.7566C16.2411 36.7758 16.0063 36.2656 16.0575 35.7982C16.1152 35.2389 15.9871 35.019 15.3424 35.0297C12.6294 35.0724 9.91417 35.0297 7.19896 35.0575C6.7016 35.0575 6.50735 34.9614 6.52656 34.4171C6.56925 33.1683 6.56925 31.9153 6.52656 30.6666C6.50948 30.1479 6.68666 30.0561 7.16694 30.0646C8.57791 30.0967 9.98888 30.0775 11.3998 30.0775C12.7574 30.0775 14.1151 30.0497 15.4705 30.0903C15.9871 30.1052 16.0831 29.9344 16.0725 29.4627C16.049 28.4253 16.0725 28.4253 15.0052 28.4253C12.4244 28.4253 9.84159 28.4125 7.26086 28.4359C6.72294 28.4359 6.50949 28.3228 6.53083 27.7401C6.57566 26.5169 6.57353 25.2917 6.53083 24.0686C6.51376 23.5221 6.7016 23.4026 7.2139 23.4068C9.92911 23.4282 12.6443 23.3834 15.3574 23.4389C16.1173 23.4559 16.0597 23.0931 16.0639 22.585C16.0682 22.077 16.0896 21.7312 15.3488 21.7461C12.6358 21.8016 9.92057 21.7461 7.20537 21.7781C6.71441 21.7781 6.50949 21.6949 6.53083 21.1378C6.57566 19.889 6.57139 18.636 6.53083 17.3852C6.51376 16.8729 6.68879 16.7768 7.17121 16.7811C9.91203 16.8024 12.655 16.7619 15.3958 16.8109C16.1024 16.8238 16.0981 16.4886 16.0639 16.0019C16.0341 15.5643 16.2539 15.067 15.4236 15.0819C12.7361 15.1353 10.0465 15.0819 7.35906 15.1139C6.75283 15.1139 6.61622 15.0179 6.71868 14.3711C7.25869 11.128 8.9216 8.17801 11.4166 6.03695C13.9116 3.89588 17.0798 2.70005 20.3673 2.65858C26.9525 2.52837 32.8141 7.27784 34.1995 13.8652C34.4577 15.1011 34.4577 15.1011 33.2133 15.1011C30.6838 15.1011 28.1543 15.1396 25.6269 15.0819C24.803 15.0627 24.9865 15.5387 24.9695 15.987C24.9524 16.4353 24.8926 16.8238 25.6227 16.8109C28.3379 16.7597 31.0531 16.8109 33.7683 16.7768C34.3211 16.7768 34.4919 16.9049 34.4706 17.4727C34.4108 18.6424 34.4108 19.8144 34.4706 20.9841C34.5132 21.6949 34.2571 21.7888 33.6167 21.7803C30.9826 21.7461 28.3464 21.7803 25.7187 21.7483C25.0783 21.7483 24.9076 21.9212 24.9481 22.5338C24.9823 23.0546 24.8862 23.4559 25.6888 23.4367C28.3763 23.377 31.0659 23.4367 33.7533 23.4026C34.3147 23.4026 34.4812 23.5541 34.462 24.1134C34.4215 25.3088 34.4087 26.5105 34.462 27.7059C34.4919 28.3463 34.2614 28.4424 33.6914 28.4359C31.004 28.4082 28.3144 28.4637 25.6269 28.3997C24.803 28.3805 24.9865 28.8266 24.9588 29.2855C24.931 29.7445 24.8884 30.1095 25.6141 30.0967C28.3293 30.0433 31.0445 30.0967 33.7597 30.0604C34.3083 30.0604 34.4834 30.1799 34.462 30.752C34.4129 31.9474 34.4044 33.1491 34.462 34.3424C34.494 34.9828 34.2592 35.0681 33.7 35.0617C31.0381 35.034 28.3763 35.0831 25.7166 35.0276C24.9567 35.0126 24.9609 35.3371 24.9396 35.9092C24.914 36.5495 25.0634 36.763 25.7529 36.763C28.387 36.7203 31.0232 36.763 33.6509 36.7331C34.2379 36.7331 34.4898 36.8228 34.4556 37.493C34.3937 38.6863 34.4108 39.8881 34.4556 41.0856C34.4748 41.6192 34.3041 41.7452 33.7875 41.7409C31.1 41.7153 28.4104 41.7622 25.723 41.7089C24.993 41.6939 24.9524 41.9672 24.9332 42.5627C24.9118 43.2308 25.0954 43.3952 25.7593 43.3845C28.4211 43.3418 31.0829 43.3845 33.7448 43.3525C34.2998 43.3525 34.4748 43.4913 34.4556 44.0569C34.4129 45.2808 34.4129 46.5046 34.4556 47.7284C34.477 48.2834 34.2678 48.3688 33.7747 48.3688C31.0872 48.3474 28.3976 48.3923 25.7102 48.3368C24.9417 48.3218 24.9353 48.657 24.9417 49.2269C24.9481 49.7968 24.9673 50.0679 25.6803 50.053C28.3677 50.0018 31.0573 50.053 33.7448 50.0188C34.3275 50.0188 34.4449 50.1747 34.3852 50.7275C33.7299 57.2679 28.0796 62.7218 21.5093 63.1253C14.6338 63.5522 8.44983 59.0439 6.9236 52.4992C6.74216 51.7223 6.28322 50.7403 6.67172 50.196C7.06021 49.6517 8.1083 50.0509 8.86821 50.0423C11.0498 50.0167 13.2335 50.0018 15.415 50.0423C16.0831 50.0573 16.0917 49.7371 16.0362 49.2781C15.9892 48.8704 16.2966 48.3176 15.4257 48.3325C12.7126 48.3795 9.99528 48.3325 7.28221 48.3624C6.72508 48.3752 6.49668 48.2663 6.52656 47.6345ZM29.9047 81.0964H11.1074C12.068 78.6907 15.8675 75.9029 19.8486 75.7599C24.137 75.5998 28.7755 78.0567 29.9047 81.0964ZM38.2296 50.6592C37.9072 58.5124 31.5718 65.6484 23.8211 66.9633C13.9251 68.6411 5.00246 62.5681 3.00235 52.7853C2.59464 50.7873 2.70563 48.7594 2.69069 46.738C2.69069 45.3014 2.70991 43.8648 2.68002 42.4282C2.68002 41.9415 2.81023 41.7878 3.30546 41.7878C4.85944 41.7878 4.8381 41.758 4.86585 43.3013C4.90854 45.8799 4.73137 48.4606 4.98966 51.037C5.65778 57.697 11.2163 63.5607 17.8292 64.5704C26.6601 65.9194 34.4791 60.3012 35.9434 51.5216C36.2807 49.4895 36.1078 47.4317 36.1291 45.3846C36.1291 44.3728 36.1483 43.361 36.1291 42.3492C36.1185 41.9522 36.2017 41.7238 36.65 41.7985C36.677 41.8007 36.7041 41.8007 36.7311 41.7985C38.2915 41.7558 38.2957 41.7558 38.2893 43.3077C38.2808 45.7625 38.3363 48.2151 38.236 50.6592H38.2296Z"/>
</mask>
<path d="M39.9927 33.4864C39.9927 32.7542 39.5658 32.8973 39.1773 32.9122C38.7888 32.9271 38.2531 32.6817 38.2765 33.4949C38.3278 35.2496 38.2936 37.0085 38.2936 38.7653C38.2936 40.1421 38.2936 40.1036 36.9467 40.157C36.2892 40.1848 36.1185 40.0183 36.1206 39.3459C36.149 31.8107 36.1526 24.2771 36.1313 16.7448C36.1057 9.54479 31.512 3.51028 24.6194 1.5614C23.7954 1.32873 22.9437 1.18571 22.1048 1H18.7429C17.9317 1.19211 17.1142 1.35648 16.3115 1.58061C13.0419 2.48185 10.1555 4.42523 8.09062 7.11578C6.02571 9.80633 4.895 13.0971 4.87012 16.4886C4.82743 23.8893 4.85945 31.2899 4.85731 38.6884C4.85731 40.1463 4.85731 40.1165 3.42927 40.1527C2.84866 40.1677 2.65867 40.0417 2.67148 39.4206C2.71844 37.4781 2.64374 35.5335 2.70991 33.5931C2.73766 32.8076 2.32568 32.9101 1.83685 32.8951C1.30534 32.8823 0.993693 32.8951 1.0001 33.623C1.03852 38.8933 1.01077 44.1637 1.02998 49.434C1.02615 50.393 1.09752 51.3508 1.24344 52.2986C2.75473 61.5328 9.81384 68.0626 19.1506 68.8716C19.5561 68.9079 19.6992 69.0103 19.6906 69.4287C19.6664 70.8148 19.6664 72.1994 19.6906 73.5826C19.6906 73.9903 19.5689 74.1248 19.157 74.1632C16.8961 74.3787 14.7378 75.2109 12.9175 76.5689C10.8092 78.1146 9.21697 80.2611 8.34951 82.7272H32.7031C30.6582 77.7899 27.1681 74.8186 21.8658 74.1611C21.4026 74.1035 21.3001 73.9476 21.3129 73.5207C21.3407 72.59 21.3129 71.6572 21.3129 70.7244C21.3129 68.9676 21.3129 68.9676 23.0056 68.7478C32.4811 67.5225 39.7323 59.569 39.9351 50.0103C40.0611 44.5094 39.9586 38.9958 39.9927 33.4864ZM6.52656 47.6345C6.58206 46.4391 6.57352 45.2395 6.52656 44.0441C6.50522 43.4656 6.70587 43.3418 7.24805 43.3461C9.96326 43.3717 12.6806 43.3205 15.3937 43.3802C16.2198 43.3995 16.0212 42.932 16.0533 42.488C16.0895 41.9864 16.0703 41.6854 15.3766 41.6982C12.6614 41.7494 9.94619 41.6982 7.23098 41.7323C6.67385 41.7323 6.50735 41.5872 6.52656 41.0279C6.56925 39.8304 6.56925 38.6308 6.52656 37.4354C6.50735 36.8868 6.64823 36.7139 7.2203 36.7225C9.93551 36.7523 12.6507 36.6968 15.3659 36.7566C16.2411 36.7758 16.0063 36.2656 16.0575 35.7982C16.1152 35.2389 15.9871 35.019 15.3424 35.0297C12.6294 35.0724 9.91417 35.0297 7.19896 35.0575C6.7016 35.0575 6.50735 34.9614 6.52656 34.4171C6.56925 33.1683 6.56925 31.9153 6.52656 30.6666C6.50948 30.1479 6.68666 30.0561 7.16694 30.0646C8.57791 30.0967 9.98888 30.0775 11.3998 30.0775C12.7574 30.0775 14.1151 30.0497 15.4705 30.0903C15.9871 30.1052 16.0831 29.9344 16.0725 29.4627C16.049 28.4253 16.0725 28.4253 15.0052 28.4253C12.4244 28.4253 9.84159 28.4125 7.26086 28.4359C6.72294 28.4359 6.50949 28.3228 6.53083 27.7401C6.57566 26.5169 6.57353 25.2917 6.53083 24.0686C6.51376 23.5221 6.7016 23.4026 7.2139 23.4068C9.92911 23.4282 12.6443 23.3834 15.3574 23.4389C16.1173 23.4559 16.0597 23.0931 16.0639 22.585C16.0682 22.077 16.0896 21.7312 15.3488 21.7461C12.6358 21.8016 9.92057 21.7461 7.20537 21.7781C6.71441 21.7781 6.50949 21.6949 6.53083 21.1378C6.57566 19.889 6.57139 18.636 6.53083 17.3852C6.51376 16.8729 6.68879 16.7768 7.17121 16.7811C9.91203 16.8024 12.655 16.7619 15.3958 16.8109C16.1024 16.8238 16.0981 16.4886 16.0639 16.0019C16.0341 15.5643 16.2539 15.067 15.4236 15.0819C12.7361 15.1353 10.0465 15.0819 7.35906 15.1139C6.75283 15.1139 6.61622 15.0179 6.71868 14.3711C7.25869 11.128 8.9216 8.17801 11.4166 6.03695C13.9116 3.89588 17.0798 2.70005 20.3673 2.65858C26.9525 2.52837 32.8141 7.27784 34.1995 13.8652C34.4577 15.1011 34.4577 15.1011 33.2133 15.1011C30.6838 15.1011 28.1543 15.1396 25.6269 15.0819C24.803 15.0627 24.9865 15.5387 24.9695 15.987C24.9524 16.4353 24.8926 16.8238 25.6227 16.8109C28.3379 16.7597 31.0531 16.8109 33.7683 16.7768C34.3211 16.7768 34.4919 16.9049 34.4706 17.4727C34.4108 18.6424 34.4108 19.8144 34.4706 20.9841C34.5132 21.6949 34.2571 21.7888 33.6167 21.7803C30.9826 21.7461 28.3464 21.7803 25.7187 21.7483C25.0783 21.7483 24.9076 21.9212 24.9481 22.5338C24.9823 23.0546 24.8862 23.4559 25.6888 23.4367C28.3763 23.377 31.0659 23.4367 33.7533 23.4026C34.3147 23.4026 34.4812 23.5541 34.462 24.1134C34.4215 25.3088 34.4087 26.5105 34.462 27.7059C34.4919 28.3463 34.2614 28.4424 33.6914 28.4359C31.004 28.4082 28.3144 28.4637 25.6269 28.3997C24.803 28.3805 24.9865 28.8266 24.9588 29.2855C24.931 29.7445 24.8884 30.1095 25.6141 30.0967C28.3293 30.0433 31.0445 30.0967 33.7597 30.0604C34.3083 30.0604 34.4834 30.1799 34.462 30.752C34.4129 31.9474 34.4044 33.1491 34.462 34.3424C34.494 34.9828 34.2592 35.0681 33.7 35.0617C31.0381 35.034 28.3763 35.0831 25.7166 35.0276C24.9567 35.0126 24.9609 35.3371 24.9396 35.9092C24.914 36.5495 25.0634 36.763 25.7529 36.763C28.387 36.7203 31.0232 36.763 33.6509 36.7331C34.2379 36.7331 34.4898 36.8228 34.4556 37.493C34.3937 38.6863 34.4108 39.8881 34.4556 41.0856C34.4748 41.6192 34.3041 41.7452 33.7875 41.7409C31.1 41.7153 28.4104 41.7622 25.723 41.7089C24.993 41.6939 24.9524 41.9672 24.9332 42.5627C24.9118 43.2308 25.0954 43.3952 25.7593 43.3845C28.4211 43.3418 31.0829 43.3845 33.7448 43.3525C34.2998 43.3525 34.4748 43.4913 34.4556 44.0569C34.4129 45.2808 34.4129 46.5046 34.4556 47.7284C34.477 48.2834 34.2678 48.3688 33.7747 48.3688C31.0872 48.3474 28.3976 48.3923 25.7102 48.3368C24.9417 48.3218 24.9353 48.657 24.9417 49.2269C24.9481 49.7968 24.9673 50.0679 25.6803 50.053C28.3677 50.0018 31.0573 50.053 33.7448 50.0188C34.3275 50.0188 34.4449 50.1747 34.3852 50.7275C33.7299 57.2679 28.0796 62.7218 21.5093 63.1253C14.6338 63.5522 8.44983 59.0439 6.9236 52.4992C6.74216 51.7223 6.28322 50.7403 6.67172 50.196C7.06021 49.6517 8.1083 50.0509 8.86821 50.0423C11.0498 50.0167 13.2335 50.0018 15.415 50.0423C16.0831 50.0573 16.0917 49.7371 16.0362 49.2781C15.9892 48.8704 16.2966 48.3176 15.4257 48.3325C12.7126 48.3795 9.99528 48.3325 7.28221 48.3624C6.72508 48.3752 6.49668 48.2663 6.52656 47.6345ZM29.9047 81.0964H11.1074C12.068 78.6907 15.8675 75.9029 19.8486 75.7599C24.137 75.5998 28.7755 78.0567 29.9047 81.0964ZM38.2296 50.6592C37.9072 58.5124 31.5718 65.6484 23.8211 66.9633C13.9251 68.6411 5.00246 62.5681 3.00235 52.7853C2.59464 50.7873 2.70563 48.7594 2.69069 46.738C2.69069 45.3014 2.70991 43.8648 2.68002 42.4282C2.68002 41.9415 2.81023 41.7878 3.30546 41.7878C4.85944 41.7878 4.8381 41.758 4.86585 43.3013C4.90854 45.8799 4.73137 48.4606 4.98966 51.037C5.65778 57.697 11.2163 63.5607 17.8292 64.5704C26.6601 65.9194 34.4791 60.3012 35.9434 51.5216C36.2807 49.4895 36.1078 47.4317 36.1291 45.3846C36.1291 44.3728 36.1483 43.361 36.1291 42.3492C36.1185 41.9522 36.2017 41.7238 36.65 41.7985C36.677 41.8007 36.7041 41.8007 36.7311 41.7985C38.2915 41.7558 38.2957 41.7558 38.2893 43.3077C38.2808 45.7625 38.3363 48.2151 38.236 50.6592H38.2296Z" fill="#080808"/>
<path d="M39.9927 33.4864C39.9927 32.7542 39.5658 32.8973 39.1773 32.9122C38.7888 32.9271 38.2531 32.6817 38.2765 33.4949C38.3278 35.2496 38.2936 37.0085 38.2936 38.7653C38.2936 40.1421 38.2936 40.1036 36.9467 40.157C36.2892 40.1848 36.1185 40.0183 36.1206 39.3459C36.149 31.8107 36.1526 24.2771 36.1313 16.7448C36.1057 9.54479 31.512 3.51028 24.6194 1.5614C23.7954 1.32873 22.9437 1.18571 22.1048 1H18.7429C17.9317 1.19211 17.1142 1.35648 16.3115 1.58061C13.0419 2.48185 10.1555 4.42523 8.09062 7.11578C6.02571 9.80633 4.895 13.0971 4.87012 16.4886C4.82743 23.8893 4.85945 31.2899 4.85731 38.6884C4.85731 40.1463 4.85731 40.1165 3.42927 40.1527C2.84866 40.1677 2.65867 40.0417 2.67148 39.4206C2.71844 37.4781 2.64374 35.5335 2.70991 33.5931C2.73766 32.8076 2.32568 32.9101 1.83685 32.8951C1.30534 32.8823 0.993693 32.8951 1.0001 33.623C1.03852 38.8933 1.01077 44.1637 1.02998 49.434C1.02615 50.393 1.09752 51.3508 1.24344 52.2986C2.75473 61.5328 9.81384 68.0626 19.1506 68.8716C19.5561 68.9079 19.6992 69.0103 19.6906 69.4287C19.6664 70.8148 19.6664 72.1994 19.6906 73.5826C19.6906 73.9903 19.5689 74.1248 19.157 74.1632C16.8961 74.3787 14.7378 75.2109 12.9175 76.5689C10.8092 78.1146 9.21697 80.2611 8.34951 82.7272H32.7031C30.6582 77.7899 27.1681 74.8186 21.8658 74.1611C21.4026 74.1035 21.3001 73.9476 21.3129 73.5207C21.3407 72.59 21.3129 71.6572 21.3129 70.7244C21.3129 68.9676 21.3129 68.9676 23.0056 68.7478C32.4811 67.5225 39.7323 59.569 39.9351 50.0103C40.0611 44.5094 39.9586 38.9958 39.9927 33.4864ZM6.52656 47.6345C6.58206 46.4391 6.57352 45.2395 6.52656 44.0441C6.50522 43.4656 6.70587 43.3418 7.24805 43.3461C9.96326 43.3717 12.6806 43.3205 15.3937 43.3802C16.2198 43.3995 16.0212 42.932 16.0533 42.488C16.0895 41.9864 16.0703 41.6854 15.3766 41.6982C12.6614 41.7494 9.94619 41.6982 7.23098 41.7323C6.67385 41.7323 6.50735 41.5872 6.52656 41.0279C6.56925 39.8304 6.56925 38.6308 6.52656 37.4354C6.50735 36.8868 6.64823 36.7139 7.2203 36.7225C9.93551 36.7523 12.6507 36.6968 15.3659 36.7566C16.2411 36.7758 16.0063 36.2656 16.0575 35.7982C16.1152 35.2389 15.9871 35.019 15.3424 35.0297C12.6294 35.0724 9.91417 35.0297 7.19896 35.0575C6.7016 35.0575 6.50735 34.9614 6.52656 34.4171C6.56925 33.1683 6.56925 31.9153 6.52656 30.6666C6.50948 30.1479 6.68666 30.0561 7.16694 30.0646C8.57791 30.0967 9.98888 30.0775 11.3998 30.0775C12.7574 30.0775 14.1151 30.0497 15.4705 30.0903C15.9871 30.1052 16.0831 29.9344 16.0725 29.4627C16.049 28.4253 16.0725 28.4253 15.0052 28.4253C12.4244 28.4253 9.84159 28.4125 7.26086 28.4359C6.72294 28.4359 6.50949 28.3228 6.53083 27.7401C6.57566 26.5169 6.57353 25.2917 6.53083 24.0686C6.51376 23.5221 6.7016 23.4026 7.2139 23.4068C9.92911 23.4282 12.6443 23.3834 15.3574 23.4389C16.1173 23.4559 16.0597 23.0931 16.0639 22.585C16.0682 22.077 16.0896 21.7312 15.3488 21.7461C12.6358 21.8016 9.92057 21.7461 7.20537 21.7781C6.71441 21.7781 6.50949 21.6949 6.53083 21.1378C6.57566 19.889 6.57139 18.636 6.53083 17.3852C6.51376 16.8729 6.68879 16.7768 7.17121 16.7811C9.91203 16.8024 12.655 16.7619 15.3958 16.8109C16.1024 16.8238 16.0981 16.4886 16.0639 16.0019C16.0341 15.5643 16.2539 15.067 15.4236 15.0819C12.7361 15.1353 10.0465 15.0819 7.35906 15.1139C6.75283 15.1139 6.61622 15.0179 6.71868 14.3711C7.25869 11.128 8.9216 8.17801 11.4166 6.03695C13.9116 3.89588 17.0798 2.70005 20.3673 2.65858C26.9525 2.52837 32.8141 7.27784 34.1995 13.8652C34.4577 15.1011 34.4577 15.1011 33.2133 15.1011C30.6838 15.1011 28.1543 15.1396 25.6269 15.0819C24.803 15.0627 24.9865 15.5387 24.9695 15.987C24.9524 16.4353 24.8926 16.8238 25.6227 16.8109C28.3379 16.7597 31.0531 16.8109 33.7683 16.7768C34.3211 16.7768 34.4919 16.9049 34.4706 17.4727C34.4108 18.6424 34.4108 19.8144 34.4706 20.9841C34.5132 21.6949 34.2571 21.7888 33.6167 21.7803C30.9826 21.7461 28.3464 21.7803 25.7187 21.7483C25.0783 21.7483 24.9076 21.9212 24.9481 22.5338C24.9823 23.0546 24.8862 23.4559 25.6888 23.4367C28.3763 23.377 31.0659 23.4367 33.7533 23.4026C34.3147 23.4026 34.4812 23.5541 34.462 24.1134C34.4215 25.3088 34.4087 26.5105 34.462 27.7059C34.4919 28.3463 34.2614 28.4424 33.6914 28.4359C31.004 28.4082 28.3144 28.4637 25.6269 28.3997C24.803 28.3805 24.9865 28.8266 24.9588 29.2855C24.931 29.7445 24.8884 30.1095 25.6141 30.0967C28.3293 30.0433 31.0445 30.0967 33.7597 30.0604C34.3083 30.0604 34.4834 30.1799 34.462 30.752C34.4129 31.9474 34.4044 33.1491 34.462 34.3424C34.494 34.9828 34.2592 35.0681 33.7 35.0617C31.0381 35.034 28.3763 35.0831 25.7166 35.0276C24.9567 35.0126 24.9609 35.3371 24.9396 35.9092C24.914 36.5495 25.0634 36.763 25.7529 36.763C28.387 36.7203 31.0232 36.763 33.6509 36.7331C34.2379 36.7331 34.4898 36.8228 34.4556 37.493C34.3937 38.6863 34.4108 39.8881 34.4556 41.0856C34.4748 41.6192 34.3041 41.7452 33.7875 41.7409C31.1 41.7153 28.4104 41.7622 25.723 41.7089C24.993 41.6939 24.9524 41.9672 24.9332 42.5627C24.9118 43.2308 25.0954 43.3952 25.7593 43.3845C28.4211 43.3418 31.0829 43.3845 33.7448 43.3525C34.2998 43.3525 34.4748 43.4913 34.4556 44.0569C34.4129 45.2808 34.4129 46.5046 34.4556 47.7284C34.477 48.2834 34.2678 48.3688 33.7747 48.3688C31.0872 48.3474 28.3976 48.3923 25.7102 48.3368C24.9417 48.3218 24.9353 48.657 24.9417 49.2269C24.9481 49.7968 24.9673 50.0679 25.6803 50.053C28.3677 50.0018 31.0573 50.053 33.7448 50.0188C34.3275 50.0188 34.4449 50.1747 34.3852 50.7275C33.7299 57.2679 28.0796 62.7218 21.5093 63.1253C14.6338 63.5522 8.44983 59.0439 6.9236 52.4992C6.74216 51.7223 6.28322 50.7403 6.67172 50.196C7.06021 49.6517 8.1083 50.0509 8.86821 50.0423C11.0498 50.0167 13.2335 50.0018 15.415 50.0423C16.0831 50.0573 16.0917 49.7371 16.0362 49.2781C15.9892 48.8704 16.2966 48.3176 15.4257 48.3325C12.7126 48.3795 9.99528 48.3325 7.28221 48.3624C6.72508 48.3752 6.49668 48.2663 6.52656 47.6345ZM29.9047 81.0964H11.1074C12.068 78.6907 15.8675 75.9029 19.8486 75.7599C24.137 75.5998 28.7755 78.0567 29.9047 81.0964ZM38.2296 50.6592C37.9072 58.5124 31.5718 65.6484 23.8211 66.9633C13.9251 68.6411 5.00246 62.5681 3.00235 52.7853C2.59464 50.7873 2.70563 48.7594 2.69069 46.738C2.69069 45.3014 2.70991 43.8648 2.68002 42.4282C2.68002 41.9415 2.81023 41.7878 3.30546 41.7878C4.85944 41.7878 4.8381 41.758 4.86585 43.3013C4.90854 45.8799 4.73137 48.4606 4.98966 51.037C5.65778 57.697 11.2163 63.5607 17.8292 64.5704C26.6601 65.9194 34.4791 60.3012 35.9434 51.5216C36.2807 49.4895 36.1078 47.4317 36.1291 45.3846C36.1291 44.3728 36.1483 43.361 36.1291 42.3492C36.1185 41.9522 36.2017 41.7238 36.65 41.7985C36.677 41.8007 36.7041 41.8007 36.7311 41.7985C38.2915 41.7558 38.2957 41.7558 38.2893 43.3077C38.2808 45.7625 38.3363 48.2151 38.236 50.6592H38.2296Z" stroke="#080808" stroke-width="0.6" mask="url(#path-1-outside-1_6296_747)"/>
</svg>
