<svg width="166" height="53" viewBox="0 0 166 53" fill="none" xmlns="http://www.w3.org/2000/svg">
<g clip-path="url(#clip0_4862_19783)">
<path d="M83.3742 52.0417C74.8238 52.0146 66.6423 50.2384 58.8481 46.6455C52.3381 43.6444 46.5415 39.5697 41.4002 34.5232C41.2973 34.4223 41.1785 34.3296 41.1043 34.2089C40.9996 34.0398 40.8898 33.8566 40.8533 33.6651C40.7367 33.033 41.2227 32.6159 41.824 32.8223C41.9844 32.8843 42.1371 32.9651 42.2791 33.0632C46.5745 35.7916 51.1207 38.0866 55.8532 39.9155C60.2189 41.6113 64.7202 42.9198 69.3068 43.8263C71.7346 44.3069 74.1782 44.6742 76.6377 44.9283C79.0561 45.1749 81.4813 45.31 83.9138 45.3196C86.0023 45.3275 88.0878 45.2759 90.1685 45.1054C94.4702 44.7547 98.7368 44.0479 102.926 42.9918C107.616 41.8143 112.19 40.2028 116.593 38.1774C116.85 38.0528 117.123 37.9666 117.405 37.9212C117.927 37.8504 118.369 38.0401 118.654 38.507C118.938 38.9739 118.901 39.4687 118.605 39.9059C118.431 40.1638 118.188 40.3868 117.944 40.5809C115.782 42.3146 113.467 43.811 111.033 45.1159C106.315 47.6457 101.33 49.4288 96.1282 50.5995C93.9663 51.0869 91.7803 51.4553 89.5796 51.7033C87.5191 51.9358 85.4473 52.0488 83.3742 52.0417Z" fill="white"/>
<path d="M44.6401 9.78411C44.8159 9.68051 44.9506 9.60619 45.0802 9.52182C46.1032 8.87177 47.1661 8.31134 48.3439 8.01102C49.4248 7.73518 50.5178 7.67223 51.6159 7.87638C52.6423 8.06741 53.4834 8.57582 54.096 9.45362C54.162 9.54761 54.2306 9.63941 54.3276 9.77318C54.4636 9.69318 54.5957 9.62062 54.7226 9.53931C55.6834 8.92729 56.6764 8.3861 57.7775 8.08141C58.9914 7.74567 60.2224 7.62414 61.4664 7.86283C63.1915 8.19507 64.3956 9.46587 64.6675 11.2385C64.7294 11.6413 64.7609 12.0483 64.7619 12.456C64.7687 16.1281 64.77 19.8001 64.7657 23.4722C64.7657 24.3518 64.6641 24.4567 63.8131 24.4571C62.9412 24.4571 62.069 24.4571 61.1966 24.4571C60.4566 24.4549 60.3005 24.2958 60.2958 23.5264C60.2906 22.827 60.2958 22.1275 60.2958 21.4281C60.2958 18.9369 60.2958 16.4451 60.2958 13.9528C60.2958 13.6179 60.2919 13.2813 60.2611 12.9473C60.1676 11.9327 59.5529 11.3032 58.571 11.2508C57.3765 11.1874 56.2496 11.489 55.1636 11.9777C54.9821 12.0595 54.9019 12.1863 54.9139 12.386C54.9212 12.5172 54.9139 12.6483 54.9139 12.7795C54.9139 16.2907 54.9139 19.8025 54.9139 23.3148C54.9139 23.4897 54.9169 23.6646 54.9054 23.8394C54.8766 24.274 54.7179 24.4436 54.2894 24.4514C53.4894 24.4637 52.6886 24.4571 51.8874 24.4576C51.63 24.4576 51.3726 24.4641 51.1153 24.4519C50.6675 24.4305 50.4963 24.2556 50.4719 23.8097C50.4646 23.6641 50.468 23.5181 50.468 23.3726C50.468 20.1528 50.467 16.9324 50.465 13.7115C50.4653 13.4058 50.4428 13.1005 50.3977 12.7983C50.2518 11.8475 49.6565 11.291 48.7132 11.2508C47.5045 11.1996 46.3627 11.4899 45.2736 12.0166C45.1119 12.0953 45.0274 12.2011 45.0377 12.3869C45.045 12.5181 45.0377 12.6492 45.0377 12.7804C45.0377 16.365 45.0377 19.9496 45.0377 23.5343C45.0377 24.3496 44.9215 24.4676 44.1219 24.4689C43.25 24.4707 42.3779 24.4707 41.5054 24.4689C41.3766 24.4717 41.2478 24.4679 41.1194 24.4576C40.7651 24.4204 40.6184 24.2713 40.5746 23.905C40.5631 23.7888 40.5586 23.672 40.5613 23.5553C40.5613 18.7615 40.5613 13.9674 40.5613 9.17297C40.5613 8.36949 40.6964 8.23659 41.487 8.23528C42.1304 8.23528 42.7738 8.23222 43.4172 8.23528C44.0293 8.23878 44.2283 8.39397 44.4037 8.98806C44.4775 9.24117 44.5517 9.4886 44.6401 9.78411Z" fill="white"/>
<path d="M125.336 9.08989V8.54782C125.336 6.36206 125.336 4.1763 125.336 1.99054C125.332 1.81549 125.338 1.64036 125.353 1.46595C125.392 1.10618 125.541 0.950988 125.892 0.897655C126.006 0.885286 126.12 0.881486 126.235 0.886289C127.121 0.886289 128.008 0.886289 128.894 0.886289C129.023 0.881506 129.152 0.888528 129.28 0.907272C129.61 0.967599 129.745 1.11973 129.782 1.4629C129.793 1.59377 129.796 1.72512 129.791 1.85633C129.791 9.06789 129.791 16.2794 129.791 23.491V23.5347C129.788 24.3185 129.663 24.4484 128.898 24.4501C128.132 24.4519 127.353 24.4545 126.581 24.4501C126.06 24.4457 125.865 24.2884 125.723 23.7804C125.661 23.5592 125.604 23.3367 125.525 23.042C125.361 23.1697 125.243 23.2606 125.125 23.3537C123.275 24.8291 121.201 25.181 118.978 24.5227C117.255 24.0121 116.109 22.7815 115.34 21.1667C114.763 19.9566 114.5 18.6609 114.421 17.3298C114.327 15.7503 114.441 14.1862 114.91 12.6654C115.281 11.4654 115.873 10.3922 116.739 9.49426C118.012 8.17231 119.59 7.67526 121.375 7.74565C122.708 7.79854 123.93 8.1828 125.023 8.97273C125.082 9.0125 125.143 9.0487 125.207 9.08115C125.215 9.08902 125.231 9.08508 125.336 9.08989ZM125.336 16.2592C125.336 14.9779 125.328 13.6962 125.341 12.4149C125.344 12.1089 125.235 11.9384 124.967 11.809C124.034 11.3569 123.005 11.1503 121.974 11.2079C120.724 11.2695 119.903 11.9392 119.426 13.0876C119.35 13.2758 119.286 13.469 119.236 13.666C118.875 15.0369 118.867 16.4292 119.022 17.8268C119.083 18.4361 119.243 19.031 119.494 19.5877C119.977 20.6368 120.771 21.2283 121.909 21.359C122.984 21.4823 123.973 21.2279 124.925 20.7352C125.237 20.5734 125.347 20.3667 125.342 20.0165C125.325 18.7623 125.336 17.5094 125.336 16.257V16.2592Z" fill="white"/>
<path d="M5.46878 23.3658V23.8947C5.46878 25.9639 5.46878 28.0331 5.46878 30.1023C5.46878 30.9622 5.34781 31.0828 4.49766 31.0837C3.64751 31.0846 2.81065 31.0837 1.96694 31.0837C1.85248 31.0867 1.73795 31.0838 1.62379 31.0749C1.18928 31.0312 1.0177 30.8489 0.985956 30.4052C0.979093 30.3038 0.982961 30.2011 0.982961 30.0992L0.972656 9.29077C0.972656 9.17405 0.97267 9.05733 0.975672 8.94105C0.996261 8.45537 1.17856 8.2521 1.66197 8.24161C2.43405 8.22674 3.20614 8.22806 3.97822 8.24161C4.45434 8.24948 4.66751 8.43876 4.80348 8.91351C4.87169 9.15045 4.93474 9.38913 5.00379 9.62563C5.01023 9.64792 5.04454 9.66147 5.10116 9.70781C5.21054 9.62038 5.32893 9.52421 5.44775 9.42978C7.3222 7.93866 9.42614 7.43069 11.7394 7.98981C13.4285 8.39767 14.5982 9.51547 15.4282 11.0293C16.024 12.1148 16.3127 13.2995 16.4431 14.5235C16.6078 16.0688 16.5606 17.6089 16.202 19.1267C15.8404 20.6567 15.1867 22.0342 14.0741 23.1485C12.7349 24.4919 11.1033 25.0029 9.25284 24.8385C7.92785 24.7209 6.71783 24.2847 5.66307 23.4396C5.63434 23.4169 5.58974 23.4112 5.46878 23.3658ZM5.46878 16.2459C5.46878 17.5573 5.47392 18.8662 5.46448 20.1763C5.46448 20.4224 5.53311 20.578 5.75401 20.6974C6.71054 21.2137 7.72711 21.465 8.80503 21.4086C10.0704 21.3426 11.0055 20.7459 11.5009 19.5289C11.6222 19.2184 11.7169 18.8978 11.784 18.5706C12.0366 17.4074 12.016 16.2275 11.9337 15.0503C11.8826 14.3241 11.7389 13.6076 11.4434 12.9371C11.0694 12.0855 10.4513 11.5198 9.55095 11.3196C8.24098 11.0276 7.00307 11.2759 5.81578 11.8783C5.55027 12.0129 5.45762 12.1895 5.46191 12.4903C5.47821 13.7419 5.46878 14.9939 5.46878 16.2459Z" fill="white"/>
<path d="M165.107 16.332C165.111 17.6068 164.985 18.8636 164.56 20.071C163.629 22.7114 161.807 24.2965 159.097 24.7922C157.557 25.0738 156.02 25.0287 154.518 24.5522C152.27 23.8392 150.791 22.304 150.01 20.0601C149.43 18.3919 149.388 16.6616 149.528 14.924C149.61 13.9045 149.842 12.9131 150.266 11.9762C151.32 9.65539 153.109 8.30678 155.565 7.88362C156.915 7.65149 158.271 7.6716 159.607 8.01214C162.166 8.66394 163.811 10.3155 164.631 12.844C164.977 13.9084 165.106 14.9725 165.107 16.332ZM160.554 16.3429C160.554 15.9792 160.579 15.6133 160.549 15.2523C160.494 14.5847 160.384 13.9255 160.145 13.2947C159.723 12.1765 158.985 11.4329 157.783 11.2764C156.464 11.105 155.195 11.5413 154.535 13.049C154.42 13.315 154.326 13.5901 154.255 13.8717C153.936 15.1137 153.937 16.3775 154.049 17.6439C154.108 18.3123 154.243 18.9654 154.505 19.5879C155.18 21.1927 156.521 21.6753 158.048 21.3772C159.021 21.1866 159.655 20.5396 160.047 19.633C160.5 18.5838 160.58 17.4691 160.554 16.3429Z" fill="white"/>
<path d="M71.6072 17.5479C71.6353 18.1945 71.7808 18.8302 72.0361 19.4228C72.4045 20.2858 73.0342 20.8654 73.9045 21.1714C74.9683 21.5474 76.0651 21.5587 77.1683 21.4722C78.1398 21.3961 79.0882 21.181 80.031 20.9384C80.7722 20.7478 80.9747 20.9061 80.9815 21.6816C80.9858 22.1336 80.9751 22.5856 80.9815 23.0368C80.9923 23.5823 80.7757 23.9272 80.2476 24.1218C78.3617 24.8241 76.3471 25.094 74.3472 24.9121C73.4584 24.8321 72.5937 24.656 71.7693 24.3058C69.9026 23.5137 68.6269 22.1279 68.023 20.1756C67.2402 17.6436 67.2582 15.0801 68.1564 12.5823C69.1515 9.81596 71.1525 8.25751 74.0156 7.86101C75.3024 7.68615 76.5845 7.69839 77.843 8.0538C79.3627 8.48264 80.5638 9.33946 81.2123 10.8516C81.73 12.0594 81.7699 13.3197 81.3925 14.5674C81.0377 15.7359 80.224 16.5096 79.1461 17.0102C77.9936 17.5457 76.7664 17.7271 75.5186 17.7839C74.3176 17.8386 73.1166 17.7953 71.9357 17.5308C71.8659 17.5156 71.7951 17.5054 71.7238 17.5002C71.7011 17.5002 71.6745 17.5208 71.6072 17.5479ZM71.6367 14.7138C71.7654 14.7501 71.8332 14.7741 71.901 14.7864C72.9163 14.9704 73.9406 15.0548 74.9679 14.9691C75.449 14.9305 75.9241 14.8345 76.3834 14.6832C77.0148 14.4712 77.375 13.979 77.4904 13.3057C77.6436 12.4157 77.2923 11.5685 76.5991 11.2135C75.6224 10.7126 73.8908 10.7729 72.9313 11.6747C72.0734 12.4835 71.7929 13.5466 71.6372 14.7138H71.6367Z" fill="white"/>
<path d="M137.166 17.4635C137.022 18.9253 137.926 20.4602 139.221 21.0018C139.962 21.3117 140.742 21.3909 141.53 21.3987C142.767 21.4114 143.975 21.1854 145.165 20.8663C145.33 20.8226 145.495 20.7675 145.663 20.7399C145.971 20.6888 146.153 20.8138 146.235 21.1251C146.259 21.2237 146.271 21.325 146.27 21.4267C146.274 21.9076 146.267 22.3884 146.273 22.8693C146.28 23.3777 146.081 23.7069 145.587 23.8927C144.494 24.3045 143.373 24.5821 142.215 24.6726C140.858 24.7788 139.505 24.7631 138.176 24.3858C135.855 23.727 134.308 22.2328 133.623 19.891C132.907 17.439 132.93 14.959 133.809 12.5551C134.801 9.8448 136.779 8.32133 139.597 7.95193C141.001 7.76745 142.397 7.80374 143.739 8.31127C145.416 8.94514 146.51 10.1237 146.835 11.9545C146.979 12.7308 146.956 13.5295 146.768 14.2959C146.477 15.4548 145.755 16.2631 144.743 16.8239C143.955 17.2611 143.101 17.4967 142.219 17.6156C140.901 17.7983 139.565 17.8019 138.246 17.6265C137.992 17.592 137.741 17.5334 137.487 17.4919C137.381 17.4744 137.271 17.4744 137.166 17.4635ZM137.163 14.7322C137.324 14.7759 137.431 14.8244 137.541 14.8327C138.451 14.8987 139.362 14.9984 140.274 15.0014C140.763 15.0014 141.271 14.8917 141.738 14.7317C142.572 14.4467 142.935 13.7827 142.886 12.8083C142.843 11.9427 142.396 11.3617 141.578 11.1257C141.386 11.0682 141.189 11.0298 140.99 11.0111C139.965 10.9268 139.014 11.1156 138.275 11.9064C137.553 12.678 137.296 13.655 137.163 14.7322Z" fill="white"/>
<path d="M96.6594 20.3095C96.755 20.0302 96.8219 19.8593 96.8738 19.6835C97.8864 16.1805 98.898 12.6774 99.9086 9.17439C99.9489 9.03494 99.9896 8.89505 100.042 8.76041C100.177 8.41069 100.435 8.22577 100.801 8.22402C101.901 8.2179 103.002 8.21353 104.104 8.22402C104.514 8.22839 104.673 8.43954 104.582 8.85483C104.51 9.1513 104.417 9.44215 104.304 9.7252C102.576 14.3476 100.846 18.9695 99.1137 23.5908C99.06 23.7416 98.9944 23.8878 98.9177 24.0279C98.7646 24.2972 98.5381 24.4599 98.2215 24.4603C97.1921 24.4623 96.1627 24.4632 95.1332 24.4629C94.6901 24.4629 94.419 24.2063 94.2633 23.8072C94.0789 23.3338 93.9017 22.8577 93.7237 22.3816C92.1272 18.1127 90.5314 13.8432 88.9364 9.57307C88.8473 9.34298 88.7718 9.10767 88.7103 8.86838C88.613 8.46664 88.7734 8.22927 89.1731 8.2249C90.3021 8.21222 91.4311 8.21615 92.5617 8.2249C93.0336 8.22796 93.2832 8.5274 93.4076 8.95581C93.5938 9.59755 93.7722 10.2415 93.9536 10.8841C94.7918 13.8474 95.6305 16.8107 96.4698 19.774C96.5097 19.9213 96.5706 20.063 96.6594 20.3095Z" fill="white"/>
<path d="M23.9744 10.6268C24.1138 10.486 24.2236 10.3776 24.3308 10.267C25.0673 9.50507 25.8518 8.81436 26.8534 8.42661C27.6315 8.12541 28.4366 8.05591 29.2554 8.11493C29.6844 8.14596 29.8452 8.31557 29.8517 8.75579C29.8645 9.70222 29.8663 10.6491 29.8517 11.5973C29.8435 12.0865 29.6372 12.2709 29.1491 12.2753C28.95 12.2753 28.7506 12.2425 28.5511 12.229C27.2078 12.1331 25.8595 12.323 24.592 12.7868C24.1854 12.9345 24.1841 12.9389 24.1837 13.3739C24.1837 16.7239 24.1837 20.0738 24.1837 23.4236C24.1891 23.598 24.1792 23.7725 24.1541 23.9451C24.0885 24.314 23.9444 24.4412 23.5742 24.4548C23.2173 24.4679 22.8596 24.4609 22.5018 24.4614C21.8447 24.4614 21.1876 24.4657 20.5287 24.4614C19.8901 24.4557 19.6992 24.2694 19.6988 23.6343C19.6968 18.7845 19.6968 13.9346 19.6988 9.08453C19.6988 8.43929 19.8853 8.25 20.5159 8.24476C21.2159 8.23864 21.9165 8.23864 22.6177 8.24476C23.192 8.24913 23.4138 8.42792 23.5506 8.99622C23.6596 9.4478 23.7522 9.90375 23.8573 10.3562C23.874 10.4314 23.9195 10.5026 23.9744 10.6268Z" fill="white"/>
<path d="M116.957 35.2624C115.55 35.3935 113.929 35.5404 112.309 35.6995C111.797 35.7494 111.289 35.8276 110.779 35.8927C110.75 35.8962 110.722 35.898 110.693 35.8997C110.417 35.9133 110.128 35.9334 109.99 35.6195C109.859 35.3214 110.021 35.077 110.201 34.8676C110.345 34.7067 110.508 34.5632 110.684 34.4401C112.267 33.2864 114.043 32.5918 115.934 32.1796C117.934 31.7393 119.991 31.6279 122.027 31.8495C122.908 31.9386 123.777 32.1247 124.619 32.4047C125.389 32.667 125.84 33.1238 125.901 33.9972C125.958 34.84 125.933 35.6864 125.825 36.524C125.511 39.055 124.797 41.5174 123.71 43.8153C122.871 45.5857 121.823 47.208 120.383 48.5404C120.217 48.6934 120.022 48.8403 119.815 48.9146C119.353 49.0799 119.045 48.7918 119.138 48.3026C119.176 48.1046 119.254 47.9131 119.324 47.7225C120.046 45.7453 120.746 43.7606 121.294 41.7239C121.618 40.5165 121.918 39.3021 121.969 38.0427C121.981 37.7374 121.972 37.4316 121.942 37.1277C121.879 36.4947 121.557 36.052 120.975 35.7996C120.429 35.5618 119.854 35.4499 119.272 35.394C118.577 35.3271 117.877 35.3118 116.957 35.2624Z" fill="white"/>
<path d="M36.6149 16.3739V23.3246C36.6149 23.4414 36.6149 23.5581 36.6149 23.6744C36.6004 24.2719 36.4279 24.449 35.836 24.4521C34.8638 24.4564 33.8915 24.4564 32.9193 24.4521C32.3239 24.449 32.1523 24.2737 32.1304 23.6783C32.127 23.5764 32.1304 23.4746 32.1304 23.3723C32.1304 18.6956 32.1304 14.019 32.1304 9.34232C32.1304 9.19675 32.1261 9.05031 32.1373 8.90517C32.1725 8.44004 32.3556 8.24944 32.809 8.22496C33.0664 8.21053 33.3237 8.21971 33.5811 8.21928C34.2957 8.21928 35.0103 8.21928 35.7258 8.21928C36.4412 8.21928 36.6158 8.3972 36.6162 9.11893C36.6165 11.537 36.6161 13.9553 36.6149 16.3739Z" fill="white"/>
<path d="M111.349 16.3965V23.3909C111.349 23.5077 111.352 23.6244 111.349 23.7407C111.329 24.2985 111.173 24.4624 110.617 24.4668C109.631 24.4738 108.645 24.4738 107.658 24.4668C107.057 24.462 106.901 24.3011 106.895 23.6799C106.887 22.7037 106.892 21.7276 106.892 20.751C106.892 17.0497 106.892 13.3485 106.892 9.6473C106.892 9.51615 106.892 9.38501 106.892 9.25386C106.896 8.37694 107.004 8.26153 107.847 8.2589C108.733 8.25584 109.62 8.25278 110.507 8.2589C111.221 8.26502 111.349 8.40317 111.35 9.13889C111.35 11.559 111.35 13.9782 111.349 16.3965Z" fill="white"/>
<path d="M34.3894 5.63397C33.6211 5.6261 32.9061 5.45605 32.3798 4.83485C31.7291 4.06678 31.6506 3.17367 31.956 2.24866C32.2438 1.37741 32.9134 0.944634 33.7747 0.780265C34.2544 0.688122 34.748 0.703036 35.2215 0.82398C36.5769 1.16714 37.1766 2.36975 36.9347 3.71662C36.7292 4.85977 35.87 5.55747 34.6467 5.63484C34.5609 5.63878 34.4751 5.63397 34.3894 5.63397Z" fill="white"/>
<path d="M109.102 0.677734C109.41 0.728444 109.727 0.749426 110.026 0.835108C111.164 1.15991 111.841 2.19028 111.661 3.54021C111.49 4.83243 110.589 5.59483 109.217 5.62149C108.846 5.62906 108.476 5.57652 108.122 5.46586C107.223 5.17822 106.675 4.5426 106.582 3.57562C106.54 3.17181 106.566 2.76353 106.659 2.36864C106.905 1.39729 107.743 0.791833 108.839 0.717517C108.925 0.711834 109.011 0.717517 109.096 0.717517L109.102 0.677734Z" fill="white"/>
</g>
<defs>
<clipPath id="clip0_4862_19783">
<rect width="164.123" height="51.3667" fill="white" transform="translate(0.972656 0.677246)"/>
</clipPath>
</defs>
</svg>
