<svg width="72" height="80" viewBox="0 0 72 80" fill="none" xmlns="http://www.w3.org/2000/svg">
<path d="M63.9249 39.9586C68.3489 37.9096 70.9112 34.4748 71.1624 29.6036C71.57 21.7161 64.6365 15.9195 56.7226 17.4287C56.7226 17.2083 56.7006 17.0806 56.6961 16.9462C56.4185 10.1162 49.5688 5.95659 43.4108 8.89126C42.8578 9.15564 42.7345 8.93532 42.4987 8.54315C39.3834 3.38766 34.8029 0.499262 28.8124 0.0476058C19.2109 -0.675044 10.8695 6.9216 10.5633 16.5716C10.5457 17.085 10.4179 17.2524 9.90234 17.3317C4.39433 18.1667 0.0760561 23.1614 0.00114728 28.7289C-0.0649488 33.7257 2.72871 37.9823 7.38187 39.9917C7.57355 40.0754 7.8798 40.0688 7.90624 40.3243C7.94149 40.646 7.6088 40.6636 7.3973 40.765C6.1591 41.3466 4.92531 41.9393 3.67609 42.4989C3.40575 42.6018 3.17171 42.782 3.00322 43.0171C2.83473 43.2522 2.73925 43.5318 2.72871 43.8208C2.60313 45.3826 2.60313 46.9519 2.72871 48.5136C2.73781 48.8031 2.83273 49.0833 3.00142 49.3186C3.1701 49.554 3.40494 49.7339 3.67609 49.8356C4.45382 50.1727 5.19189 50.6243 5.99165 50.8887C7.34883 51.3293 8.26756 52.0674 8.32925 53.6097C8.35862 53.9661 8.45741 54.3134 8.62008 54.6319C8.81176 55.0439 8.69719 55.337 8.44823 55.6784C7.65287 56.7624 6.90598 57.8816 6.11724 58.97C5.93205 59.193 5.81727 59.466 5.78746 59.7543C5.75765 60.0426 5.81414 60.3332 5.94979 60.5894C6.64124 61.9902 7.42587 63.3431 8.29841 64.6389C8.44209 64.8742 8.65162 65.0622 8.90107 65.1797C9.15051 65.2972 9.42891 65.3389 9.70184 65.2998C10.7396 65.2007 11.7883 65.1676 12.815 65.0002C13.8417 64.8327 14.734 64.9231 15.3839 65.8815C15.6869 66.2729 16.0411 66.622 16.437 66.9192C16.5893 67.031 16.7076 67.1829 16.7787 67.3579C16.8499 67.5329 16.8712 67.7243 16.8402 67.9106C16.6926 69.2744 16.6023 70.6448 16.4701 72.013C16.4062 72.6916 16.6904 73.1587 17.239 73.5266C18.4732 74.3482 19.7507 75.1028 21.066 75.7871C21.3383 75.9477 21.6535 76.0208 21.9688 75.9964C22.284 75.9719 22.5842 75.8512 22.8285 75.6505C23.6063 75.0865 24.4391 74.5907 25.1683 73.9716C26.076 73.1983 26.9794 72.87 28.1228 73.4385C28.53 73.6032 28.959 73.7079 29.3963 73.7491C29.5821 73.7714 29.7581 73.845 29.9045 73.9618C30.0508 74.0785 30.1617 74.2338 30.2247 74.4101C30.7358 75.591 31.3131 76.7433 31.833 77.9198C32.1393 78.6094 32.5887 79.0015 33.3752 79.0544C34.882 79.1628 36.3947 79.1576 37.9006 79.039C38.2023 79.0269 38.4938 78.9265 38.739 78.7503C38.9842 78.574 39.1722 78.3297 39.2798 78.0476C39.7205 77.0473 40.2647 76.0845 40.648 75.0622C40.9675 74.214 41.4147 73.6962 42.3709 73.6147C42.9424 73.5416 43.5008 73.3889 44.0299 73.1609C44.2015 73.0826 44.392 73.0558 44.5785 73.0835C44.765 73.1113 44.9395 73.1925 45.0809 73.3173C46.1626 74.1148 47.2841 74.8595 48.3724 75.6461C48.6065 75.839 48.8932 75.9573 49.1952 75.9856C49.4973 76.0138 49.8008 75.9508 50.0667 75.8047C51.4378 75.1204 52.7626 74.3468 54.0325 73.4891C54.2707 73.3488 54.4626 73.1417 54.5844 72.8934C54.7062 72.6451 54.7525 72.3666 54.7177 72.0923C54.6229 71.081 54.5965 70.0609 54.4312 69.0607C54.2506 67.9591 54.3123 67.0271 55.3566 66.3464C55.752 66.0485 56.101 65.6936 56.3921 65.2932C56.4993 65.1541 56.6428 65.0473 56.8069 64.9847C56.971 64.9221 57.1492 64.9061 57.3218 64.9385C58.6878 65.0773 60.0582 65.1742 61.4242 65.3064C61.7279 65.352 62.0383 65.3042 62.3142 65.1692C62.59 65.0342 62.8183 64.8185 62.9687 64.5507C63.7822 63.3151 64.5265 62.0353 65.1983 60.7172C65.3599 60.4461 65.435 60.1322 65.4138 59.8173C65.3925 59.5025 65.2759 59.2015 65.0793 58.9546C64.5307 58.2011 64.0681 57.3727 63.449 56.6831C62.5677 55.7071 62.3143 54.7002 62.9092 53.5061C63.0469 53.1761 63.128 52.8253 63.1493 52.4684C63.211 51.9462 63.493 51.6752 63.9689 51.4725C65.1014 50.99 66.203 50.4348 67.3332 49.9457C68.0647 49.6329 68.459 49.1482 68.5031 48.333C68.5846 46.8793 68.5846 45.4221 68.5031 43.9684C68.5031 43.6385 68.402 43.3165 68.2133 43.0458C68.0246 42.7751 67.7574 42.5689 67.4478 42.4548C66.2691 41.9371 65.1014 41.3929 63.9425 40.8377C63.7222 40.7275 63.3322 40.7143 63.3168 40.397C63.2903 40.0071 63.7023 40.0622 63.9249 39.9586ZM65.3459 44.365C65.5254 44.4218 65.6806 44.537 65.7868 44.6924C65.8931 44.8478 65.9442 45.0342 65.932 45.2221C66.0003 47.6456 66.062 47.7579 63.8191 48.5996C61.823 49.3486 60.457 50.4194 60.3755 52.6953C60.3623 53.0539 60.2681 53.4049 60.1001 53.722C59.3664 55.0814 59.7145 56.2138 60.6773 57.3132C61.2347 57.9478 61.6666 58.6946 62.1579 59.3886C62.235 59.501 62.3782 59.609 62.3936 59.7213C62.5985 60.7987 61.6489 61.3892 61.3119 62.2396C61.1576 62.634 60.8602 62.6163 60.5033 62.5767C59.1946 62.4313 57.8815 62.3255 56.5706 62.1911C56.3115 62.1525 56.047 62.1813 55.8023 62.2747C55.5576 62.3681 55.3412 62.5229 55.1737 62.7243C54.2549 63.783 53.2625 64.7754 52.2038 65.6942C51.983 65.8793 51.8149 66.1193 51.7163 66.3901C51.6177 66.6608 51.592 66.9527 51.642 67.2365C51.7896 68.5584 51.8998 69.8605 52.0254 71.1714C52.0401 71.2528 52.0475 71.3354 52.0474 71.4181C51.9681 72.0791 49.4873 73.1807 48.9387 72.7929C47.8833 72.0526 46.8236 71.319 45.7793 70.5633C45.5525 70.3859 45.2826 70.272 44.9972 70.2333C44.7119 70.1945 44.4214 70.2324 44.1555 70.343C42.8904 70.7963 41.5897 71.1434 40.2669 71.3807C39.9947 71.4175 39.7371 71.5255 39.5201 71.6938C39.303 71.862 39.1343 72.0846 39.0309 72.3391C38.4999 73.5112 37.9293 74.6656 37.4159 75.8444C37.3548 76.0496 37.2248 76.2274 37.0478 76.3478C36.8708 76.4682 36.6576 76.5239 36.4443 76.5053C34.1199 76.5428 33.9789 76.6133 33.1924 74.4519C32.4345 72.3677 31.2866 71.0304 28.9711 70.9268C28.6403 70.9126 28.3167 70.8253 28.0237 70.6712C26.6621 69.9222 25.5341 70.3099 24.4369 71.2595C23.7759 71.8301 22.985 72.2487 22.3042 72.8017C21.8834 73.141 21.5639 73.0904 21.1321 72.8524C19.0588 71.7067 19.0566 71.7178 19.3409 69.3493C19.429 68.6135 19.4863 67.8732 19.5612 67.1461C19.6004 66.9007 19.5765 66.6494 19.4917 66.4158C19.4069 66.1822 19.264 65.974 19.0765 65.811C17.9812 64.8522 16.9508 63.8218 15.992 62.7265C15.8187 62.5303 15.5984 62.3815 15.3517 62.294C15.105 62.2065 14.8401 62.1832 14.5819 62.2264C13.271 62.363 11.9557 62.4665 10.647 62.6185C10.4914 62.654 10.3284 62.6362 10.1841 62.5678C10.0399 62.4995 9.92278 62.3847 9.85167 62.2418C8.5011 60.173 8.39094 60.0959 9.93759 58.1967C11.2815 56.5421 11.9337 54.936 10.8651 52.9222C10.699 52.6041 10.6079 52.2521 10.5985 51.8933C10.5677 50.3379 9.6666 49.5646 8.30061 49.0843C7.41933 48.778 6.61296 48.2977 5.75811 47.9298C5.60565 47.8792 5.47449 47.779 5.38547 47.6453C5.29645 47.5116 5.25469 47.3519 5.2668 47.1917C5.15004 44.744 5.14122 44.7462 7.38187 43.7129C7.92827 43.4595 8.46145 43.1709 9.01886 42.9528C9.78998 42.6487 10.3518 42.2125 10.4267 41.3136C10.4443 41.0933 10.5104 40.8729 10.8784 40.8729C12.2774 40.9016 13.6764 40.884 15.0248 40.884C13.3019 50.6177 16.0757 58.5801 24.4589 63.8832C32.0159 68.6663 39.9827 68.5099 47.3722 63.4624C55.2685 58.0777 57.855 50.307 56.1321 40.8818C57.5091 40.8818 58.9236 40.8818 60.3402 40.8818C60.7699 40.8818 60.7478 41.2122 60.7809 41.4436C60.8712 42.1949 61.3273 42.5936 61.975 42.8778C63.1097 43.3427 64.2201 43.8759 65.3459 44.3738V44.365ZM35.682 40.884C41.2825 40.884 46.8853 40.884 52.4858 40.8685C53.1049 40.8685 53.3671 41.0029 53.5367 41.6374C56.2158 52.1555 48.7999 63.0085 38.0174 64.315C27.9311 65.5334 18.9575 58.8202 17.3426 48.8287C16.9874 46.4329 17.0989 43.991 17.6708 41.6374C17.8162 40.9919 18.1115 40.8641 18.7218 40.8685C24.3708 40.9038 30.0264 40.8928 35.682 40.8928V40.884ZM34.2852 15.8864C34.2717 15.6239 34.3368 15.3633 34.4721 15.138C34.6074 14.9126 34.8069 14.7328 35.0449 14.6213C35.283 14.5099 35.5489 14.472 35.8086 14.5124C36.0684 14.5528 36.3101 14.6697 36.5031 14.8483C36.696 15.0268 36.8314 15.2588 36.8918 15.5146C36.9523 15.7704 36.9351 16.0384 36.8425 16.2844C36.7498 16.5304 36.586 16.7432 36.3718 16.8956C36.1577 17.048 35.9029 17.1331 35.6401 17.14C35.2968 17.1492 34.9634 17.0244 34.7105 16.7921C34.4576 16.5597 34.3051 16.2381 34.2852 15.8952V15.8864ZM59.9723 38.2027C54.645 38.3437 49.3132 38.2445 43.9859 38.2599C43.6444 38.2599 43.4769 38.196 43.51 37.8193C43.5519 37.4643 43.5519 37.1057 43.51 36.7507C43.1729 34.5475 43.7017 32.7277 45.6184 31.419C46.0591 31.126 46.1891 30.6347 46.1582 30.0971C46.1384 29.7688 46.1825 29.4361 46.1582 29.11C46.0547 28.1164 46.2243 27.4114 47.24 26.7989C48.736 25.8956 49.1568 23.9678 48.5311 22.344C48.231 21.5484 47.6816 20.8711 46.965 20.4133C46.2483 19.9555 45.4029 19.7418 44.5548 19.804C43.7067 19.8662 42.9015 20.201 42.2593 20.7585C41.6172 21.3159 41.1725 22.0661 40.9917 22.897C40.8005 23.7018 40.8767 24.547 41.2086 25.3046C41.5405 26.0623 42.1102 26.6912 42.8314 27.0963C43.3646 27.3871 43.4924 27.6978 43.543 28.2772C43.6576 29.4031 43.3029 30.2425 42.4106 30.8858C41.1305 31.8046 40.67 33.0317 40.8529 34.596C40.9675 35.572 40.8331 36.5789 40.8904 37.5593C40.9256 38.1674 40.7119 38.2908 40.1567 38.2577C39.3063 38.206 38.4536 38.206 37.6032 38.2577C36.9951 38.2996 36.9004 38.0749 36.9048 37.5241C36.9334 34.6401 36.918 31.7561 36.918 28.8721C36.918 25.9881 36.918 23.1041 36.918 20.2179C36.918 19.7773 36.9885 19.5107 37.449 19.2705C38.2444 18.8769 38.8777 18.2181 39.2396 17.4078C39.6015 16.5974 39.6695 15.6862 39.4319 14.8311C39.2132 13.9811 38.717 13.2286 38.0219 12.6927C37.3269 12.1569 36.4728 11.8685 35.5952 11.8733C34.7176 11.8781 33.8667 12.1759 33.1776 12.7193C32.4884 13.2627 32.0005 14.0207 31.7911 14.8729C31.3373 16.6355 32.1172 18.3981 33.8093 19.297C33.9688 19.3564 34.1043 19.4667 34.1947 19.6109C34.2851 19.7551 34.3254 19.9251 34.3094 20.0945C34.2947 25.9462 34.2947 31.7979 34.3094 37.6497C34.3094 38.0903 34.2345 38.2776 33.7388 38.2555C32.806 38.2082 31.8713 38.2082 30.9385 38.2555C30.3811 38.2886 30.326 38.0594 30.3348 37.5946C30.3613 36.1405 30.3348 34.6819 30.3525 33.2278C30.3616 32.9679 30.3148 32.7091 30.2152 32.4689C30.1156 32.2286 29.9656 32.0126 29.7752 31.8354C28.7551 30.8351 27.7747 29.793 26.7304 28.8214C26.1774 28.3037 26.4462 27.6978 26.3977 27.1294C26.3492 26.5609 26.347 26.1181 27.0587 25.7612C28.667 24.9548 29.3544 23.0622 28.8675 21.3305C28.6321 20.4993 28.1304 19.7684 27.4393 19.25C26.7482 18.7317 25.906 18.4546 25.0421 18.4613C24.1782 18.4681 23.3405 18.7583 22.6576 19.2874C21.9747 19.8165 21.4844 20.5552 21.262 21.39C21.0252 22.2272 21.081 23.1202 21.4203 23.9213C21.7596 24.7225 22.3621 25.384 23.1282 25.7964C23.679 26.0828 23.7561 26.4023 23.7627 26.9333C23.7979 30.1191 23.2405 29.1894 25.653 31.3705C27.2592 32.8224 27.9774 34.3382 27.7461 36.4952C27.561 38.2159 27.7086 38.2313 25.9835 38.2313C21.2863 38.2313 16.5891 38.2599 11.883 38.2313C10.6307 38.2335 9.39106 37.9807 8.23961 37.4883C7.08816 36.9959 6.04902 36.2743 5.18552 35.3673C4.32201 34.4603 3.65222 33.3869 3.21696 32.2127C2.78171 31.0385 2.59009 29.7879 2.6538 28.5372C2.83447 23.9105 6.71431 20.0108 11.3366 19.7927C12.9934 19.7156 13.26 19.4226 13.2027 17.7393C12.9075 9.07192 20.0327 2.0415 28.6626 2.68043C34.2499 3.09463 38.3126 5.9632 40.8265 10.9865C41.0093 11.3522 41.1195 11.7598 41.4169 12.0595C41.9435 12.5882 42.6155 12.553 43.413 11.9647C45.9533 10.0854 49.1061 10.0325 51.4944 11.9317C53.6667 13.659 54.4621 15.9503 53.8804 18.6691C53.7438 19.3036 53.6601 19.8654 54.1911 20.3369C54.7221 20.8084 55.3368 20.674 55.9537 20.436C57.3887 19.8686 58.943 19.6701 60.4746 19.8587C62.0061 20.0474 63.4659 20.6171 64.7203 21.5157C65.9747 22.4144 66.9837 23.6134 67.655 25.0028C68.3262 26.3923 68.6383 27.9279 68.5626 29.4692C68.3775 34.0694 64.5616 38.0815 59.9723 38.2027ZM43.521 23.71C43.5275 23.4472 43.6121 23.1923 43.7642 22.9779C43.9162 22.7634 44.1287 22.5992 44.3746 22.5061C44.6204 22.4131 44.8884 22.3954 45.1443 22.4555C45.4003 22.5155 45.6325 22.6504 45.8113 22.8431C45.9902 23.0357 46.1075 23.2773 46.1484 23.537C46.1892 23.7967 46.1517 24.0626 46.0407 24.3009C45.9296 24.5392 45.7501 24.7389 45.525 24.8746C45.2998 25.0103 45.0394 25.0758 44.7768 25.0628C44.4316 25.0467 44.1064 24.8962 43.8709 24.6433C43.6353 24.3905 43.5082 24.0555 43.5166 23.71H43.521ZM25.0141 23.743C24.7514 23.7366 24.4966 23.652 24.2822 23.5001C24.0678 23.3482 23.9035 23.1358 23.8104 22.8901C23.7172 22.6443 23.6994 22.3764 23.7593 22.1206C23.8191 21.8647 23.9538 21.6324 24.1462 21.4535C24.3387 21.2745 24.5801 21.157 24.8396 21.1159C25.0991 21.0748 25.3651 21.1119 25.6034 21.2226C25.8417 21.3333 26.0416 21.5126 26.1776 21.7374C26.3136 21.9623 26.3795 22.2225 26.3669 22.485C26.3503 22.8302 26.1992 23.1552 25.9459 23.3903C25.6927 23.6255 25.3574 23.7521 25.0119 23.743H25.0141Z" fill="#080808"/>
<path d="M30.282 46.1673C29.0063 46.1673 29.0063 46.1673 29.0063 44.8872C29.0063 43.53 29.0063 43.53 30.3679 43.53C31.6436 43.53 31.6436 43.53 31.6436 44.8101C31.6436 46.1673 31.6436 46.1673 30.282 46.1673Z" fill="#080808"/>
<path d="M36.918 44.8916C36.918 46.1673 36.918 46.1673 35.6379 46.1673C34.2808 46.1673 34.2808 46.1673 34.2808 44.8057C34.2808 43.53 34.2808 43.53 35.5608 43.53C36.918 43.53 36.918 43.53 36.918 44.8916Z" fill="#080808"/>
<path d="M40.8154 46.1673C39.5574 46.1673 39.5574 46.1673 39.5574 44.8718C39.5574 43.53 39.5574 43.53 40.9344 43.53C42.1946 43.53 42.1946 43.53 42.1946 44.8255C42.1946 46.1672 42.1946 46.1673 40.8154 46.1673Z" fill="#080808"/>
</svg>
