<svg width="191" height="45" viewBox="0 0 191 45" fill="none" xmlns="http://www.w3.org/2000/svg">
<g clip-path="url(#clip0_4862_19827)">
<path d="M0.0274573 7.32829L2.06384 7.31973C3.94252 7.31183 5.82491 7.37377 7.69976 7.26601C8.76297 7.20381 9.2549 7.62203 9.69774 8.55022C11.7954 12.9613 13.9635 17.338 16.1106 21.7251C16.2771 22.0656 16.4715 22.3927 16.7417 22.8858C16.9854 22.4806 17.1716 22.2126 17.3132 21.9239C19.5147 17.4347 21.7395 12.957 23.8856 8.44034C24.337 7.48819 24.8833 7.15047 25.9082 7.1935C27.7446 7.27064 29.5877 7.20169 31.4276 7.19454L32.9386 7.18819C27.5366 17.3964 22.2601 27.3673 16.8751 37.5442C19.9252 37.8917 22.3962 37.2687 24.3831 35.1134C25.9518 33.4112 26.9833 31.3661 27.8443 29.238C30.0418 23.8084 32.168 18.3502 34.386 12.9304C35.5485 10.088 36.9723 7.37734 38.931 4.9929C41.8701 1.4122 45.7045 0.23916 50.143 0.682925C50.4016 0.708972 50.6526 0.817606 50.9871 0.9103L51.0123 6.90496C50.6007 6.90669 50.2655 6.91676 49.9307 6.90951C47.1681 6.83972 45.0708 8.07301 43.4661 10.2851C41.5331 12.9488 40.4365 16.0282 39.203 19.0423C37.1033 24.1742 35.0601 29.3323 32.8304 34.4059C31.5932 37.2208 29.8709 39.7613 27.3819 41.6648C25.3389 43.2257 22.9906 43.7893 20.499 43.9672C19.7523 44.0205 19.5168 43.5366 19.2351 43.0135C16.5149 37.9654 13.7903 32.9195 11.0611 27.8756C7.58017 21.4325 4.10101 14.9888 0.623533 8.54447C0.455447 8.24036 0.317472 7.92631 0.0274573 7.32829Z" fill="white"/>
<path d="M175.704 12.6197L175.679 6.60426L179.006 6.59027L179.084 25.1551C176.23 25.805 173.367 26.2927 170.604 24.8137C168.199 23.5266 167.505 21.2798 167.692 18.6944C167.88 16.0957 169.629 13.924 172.16 13.2062C173.253 12.8967 174.41 12.8255 175.704 12.6197ZM175.646 22.3459L175.619 16.0164C173.946 15.8722 172.537 16.1488 171.603 17.588C170.911 18.6531 171.001 20.3616 171.723 21.3354C172.541 22.4375 173.938 22.8155 175.646 22.3459Z" fill="white"/>
<path d="M74.1466 25.6819L74.1312 22.0155C74.8847 22.085 75.5586 22.1827 76.235 22.1995C76.8044 22.2138 77.3982 22.2211 77.9424 22.082C79.3403 21.7245 79.7841 20.4549 78.8912 19.2977C78.4767 18.7602 77.8745 18.3696 77.3483 17.9233C76.5278 17.2282 75.59 16.6404 74.8949 15.8356C72.7083 13.3047 73.4381 9.76269 76.4169 8.31844C78.3486 7.38143 80.398 7.35147 82.5629 7.72801L82.5781 11.3257C82.2405 11.3271 81.9142 11.317 81.5892 11.3299C80.942 11.3597 80.2752 11.3164 79.6513 11.4593C78.2601 11.7774 77.9315 12.9813 78.9786 13.9514C79.6255 14.5497 80.3977 15.0071 81.107 15.5359C82.4742 16.5554 83.5429 17.8002 83.8645 19.5481C84.414 22.538 82.9317 24.8864 79.944 25.717C78.0584 26.2439 76.1598 26.1099 74.1466 25.6819Z" fill="white"/>
<path d="M119.408 26.4589L113.335 13.458L117.026 13.4425L119.78 19.7092L123.662 12.607L127.707 19.9379C128.739 17.6117 129.681 15.4844 130.64 13.3304L133.862 13.3169C131.872 17.6834 129.945 21.9099 127.888 26.4227C126.408 23.8166 125.084 21.4846 123.637 18.9355L119.408 26.4589Z" fill="white"/>
<path d="M90.1313 25.7635L86.8066 25.7774L86.7275 6.96094L90.0443 6.94699L90.0728 13.7291C91.1579 13.4746 92.1321 13.0854 93.1186 13.0495C95.0181 12.9838 96.5792 14.2144 96.6891 16.1208C96.8732 19.2837 96.7619 22.464 96.7755 25.717L93.5732 25.7305C93.5464 25.293 93.5031 24.8845 93.4996 24.4758C93.4812 22.3796 93.5042 20.2827 93.451 18.1873C93.415 16.7881 92.8364 16.2178 91.6821 16.277C90.6007 16.3317 90.1013 16.8459 90.1019 17.9578C90.1019 20.5164 90.12 23.0744 90.1313 25.7635Z" fill="white"/>
<path d="M106.125 26.1491C102.334 26.1691 99.5164 23.3919 99.4976 19.617C99.478 15.7658 102.249 12.9779 106.12 12.9501C109.974 12.9252 112.822 15.7299 112.821 19.5489C112.82 23.3678 110.027 26.1327 106.125 26.1491ZM102.959 19.5695C102.956 21.4273 104.293 22.8159 106.104 22.8354C107.965 22.8559 109.373 21.4361 109.365 19.5472C109.357 17.6998 107.998 16.2992 106.197 16.2808C104.319 16.2616 102.961 17.6401 102.959 19.5701L102.959 19.5695Z" fill="white"/>
<path d="M155.657 25.2159C153.333 25.7349 151.069 26.1681 148.783 25.6264C147.928 25.4233 147.033 24.9733 146.38 24.3815C144.567 22.7391 144.96 19.8301 147.162 18.7205C148.2 18.1966 149.415 18.0287 150.556 17.7248C151.068 17.5905 151.591 17.5236 152.316 17.3872C150.94 15.0711 148.952 16.0972 147.122 16.0339L147.11 13.1584C149.453 12.6428 151.793 12.3622 153.978 13.8581C154.993 14.5518 155.548 15.6411 155.592 16.8244C155.696 19.5662 155.645 22.3161 155.657 25.2159ZM152.265 19.9328C151.274 20.2008 150.367 20.3506 149.549 20.7114C149.197 20.8671 148.808 21.4818 148.844 21.8465C148.881 22.2112 149.383 22.7535 149.753 22.8212C150.551 22.968 151.389 22.8605 152.277 22.8568L152.265 19.9328Z" fill="white"/>
<path d="M189.524 13.1695C189.526 13.7387 189.537 14.3535 189.527 14.9684C189.523 15.2299 189.472 15.4881 189.448 15.7151C188.583 15.7188 187.785 15.6598 187.004 15.7491C186.556 15.8006 186.135 16.0928 185.701 16.2741C185.975 16.6442 186.187 17.0965 186.536 17.3675C187.171 17.859 187.919 18.2011 188.566 18.6793C189.936 19.6942 190.467 21.1018 190.12 22.7717C189.785 24.3809 188.593 25.111 187.124 25.4681C185.679 25.8206 183.722 25.7347 182.424 25.2708L182.412 22.4871C183.389 22.5494 184.296 22.6853 185.192 22.6313C185.664 22.6033 186.117 22.2441 186.578 22.0349C186.285 21.587 186.072 21.0388 185.68 20.7137C185.094 20.2284 184.355 19.9376 183.728 19.4963C182.516 18.6441 181.772 17.4984 181.991 15.9428C182.212 14.3733 183.27 13.5323 184.678 13.0749C186.06 12.631 188.188 12.6601 189.524 13.1695Z" fill="white"/>
<path d="M72.226 13.5782L65.2787 26.6991C62.8648 22.2328 60.587 18.0194 58.1915 13.5865C59.5481 13.5807 60.6501 13.5253 61.7418 13.6079C62.0083 13.6281 62.3164 14.0598 62.4765 14.3703C63.2566 15.8853 63.9918 17.4237 64.7463 18.9515C64.9139 19.2914 65.0969 19.6232 65.3678 20.1388C66.1621 18.5334 66.8557 17.0785 67.5943 15.6483C68.9383 13.0448 68.0753 13.6026 70.9893 13.5211C71.3205 13.5116 71.6566 13.5506 72.226 13.5782Z" fill="white"/>
<path d="M143.078 25.4775C140.474 26.3481 137.213 25.3394 135.588 23.1998C134.122 21.2685 134.01 17.9823 135.34 15.9515C136.84 13.662 140.018 12.5229 142.964 13.2841L142.976 16.2802C139.094 16.6683 137.947 17.3983 137.963 19.4292C137.979 21.5109 139.25 22.2815 143.065 22.4675L143.078 25.4775Z" fill="white"/>
<path d="M162.05 13.2186C162.135 13.545 162.202 13.8005 162.298 14.1667C163.376 13.4082 164.465 12.8153 165.88 13.0663L165.893 16.2697C165.375 16.3521 164.818 16.4139 164.273 16.5323C162.715 16.8714 162.314 17.388 162.319 18.9964C162.328 21.1191 162.337 23.2424 162.346 25.4361L159.006 25.4502L158.955 13.2316L162.05 13.2186Z" fill="white"/>
<path d="M125.347 39.8791C125.343 39.0483 125.357 38.217 125.331 37.3869C125.309 36.7231 125.308 35.9368 124.414 35.9163C123.52 35.8958 123.32 36.62 123.298 37.3741C123.275 38.2251 123.279 39.0766 123.272 39.9276L122.816 39.9405C122.771 39.4419 122.712 38.9439 122.686 38.4441C122.657 37.9021 122.738 37.3383 122.617 36.8233C122.533 36.4721 122.21 35.9735 121.935 35.9308C121.629 35.8841 121.07 36.204 120.954 36.4989C120.721 37.0882 120.698 37.7701 120.62 38.4135C120.56 38.9155 120.549 39.4229 120.516 39.9276L120.196 39.918L120.178 35.5207C121.095 36.022 122.243 34.5306 123.075 35.9196C123.42 35.7126 123.688 35.4742 124 35.3811C124.732 35.1616 125.463 35.2797 125.722 36.0776C126.126 37.3252 125.938 38.6134 125.89 39.882L125.347 39.8791Z" fill="white"/>
<path d="M62.969 40.2741C62.7073 39.77 62.4456 39.2666 62.1408 38.679L59.7441 38.6891L58.9537 40.2835L58.6499 40.1791C58.6812 39.907 58.6697 39.6207 58.7506 39.3647C59.2635 37.7391 59.7805 36.1147 60.3396 34.5051C60.4358 34.2288 60.7418 34.0277 60.9509 33.7925C61.1329 34.014 61.3944 34.2074 61.4843 34.4628C62.0783 36.142 62.6411 37.8329 63.1953 39.5267C63.2587 39.7204 63.2051 39.9538 63.206 40.1686L62.969 40.2741ZM59.8751 37.897L61.9946 37.8881C61.6376 36.8083 61.3286 35.8703 61.0195 34.9358L60.7641 34.9906C60.4765 35.9293 60.1896 36.8681 59.8751 37.897Z" fill="white"/>
<path d="M172.799 37.5935L169.915 37.6056C169.825 39.0435 169.897 39.0882 172.501 39.3596C171.664 40.2955 169.833 39.977 169.347 38.7378C169.132 38.1897 169.081 37.5202 169.145 36.927C169.281 35.6437 170.194 34.9471 171.353 35.1108C172.432 35.265 172.94 36.0671 172.799 37.5935ZM172.243 36.9758C172.239 36.0735 171.798 35.6562 171.042 35.6727C170.302 35.689 169.856 36.1129 169.831 36.9859L172.243 36.9758Z" fill="white"/>
<path d="M141.045 37.603C141.061 39.0612 140.335 39.9648 139.119 39.9988C137.84 40.0348 137.04 39.1312 137.033 37.6406C137.025 36.15 137.823 35.2207 139.08 35.2333C140.277 35.2456 141.03 36.1528 141.045 37.603ZM140.419 37.575C140.396 36.4315 139.908 35.7921 139.059 35.794C138.17 35.7977 137.655 36.4926 137.674 37.6737C137.692 38.789 138.2 39.4502 139.042 39.453C139.929 39.455 140.439 38.7601 140.416 37.5744L140.419 37.575Z" fill="white"/>
<path d="M130.414 39.7907C128.412 40.2997 127.316 39.9873 127.139 38.9478C126.943 37.7911 127.573 37.3139 129.652 37.0448C129.723 36.2137 129.723 36.2137 127.508 35.6971C128.12 35.0705 128.849 35.1719 129.419 35.3941C129.832 35.554 130.255 36.0862 130.371 36.5337C130.545 37.19 130.452 37.9189 130.457 38.6169C130.46 38.9967 130.431 39.3767 130.414 39.7907ZM129.759 37.7994C129.056 37.6442 128.381 37.5495 127.888 38.1889C127.743 38.3766 127.717 38.838 127.846 39.0297C128.324 39.7406 129.025 39.4906 129.765 39.3864L129.759 37.7994Z" fill="white"/>
<path d="M167.268 39.7227C167.264 38.9387 167.279 38.1541 167.252 37.3714C167.227 36.6533 167.371 35.785 166.282 35.7267C165.51 35.6855 164.97 36.3626 164.898 37.4142C164.848 38.1447 164.83 38.878 164.784 39.6085C164.785 39.6558 164.671 39.6973 164.614 39.7402C164.196 39.1069 164.097 36.6399 164.391 35.5135C164.846 35.4377 165.235 35.443 165.568 35.3036C166.758 34.8056 167.703 35.2704 167.816 36.5516C167.909 37.5984 167.843 38.6598 167.847 39.7151L167.268 39.7227Z" fill="white"/>
<path d="M83.2976 39.7373C83.8349 38.2098 84.3058 36.8703 84.7767 35.5301L85.1186 35.6221C85.1195 35.8207 85.1711 36.037 85.1132 36.2162C84.5511 37.947 83.9891 39.6802 83.3798 41.395C83.0287 42.3831 82.6148 42.5165 81.7768 42.1234L83.0328 40.9243L81.1248 35.7227L81.5647 35.5372C82.4201 36.7102 82.4978 38.2622 83.2976 39.7373Z" fill="white"/>
<path d="M75.2485 37.9369C75.2375 39.3715 74.4778 40.2614 73.2544 40.2729C71.9832 40.2846 71.2216 39.3722 71.2368 37.8567C71.2513 36.4134 72.007 35.5206 73.2196 35.5097C74.4532 35.4982 75.26 36.4629 75.2485 37.9369ZM71.8649 37.8789C71.8522 39.0613 72.376 39.7501 73.2703 39.7285C74.1128 39.7082 74.6025 39.0457 74.6063 37.9211C74.611 36.7405 74.0769 36.0349 73.1997 36.0629C72.3595 36.0895 71.8766 36.7467 71.8672 37.8795L71.8649 37.8789Z" fill="white"/>
<path d="M85.8753 37.7922C85.886 36.3892 86.6842 35.4581 87.8837 35.449C89.1196 35.4398 89.9373 36.4149 89.9218 37.8837C89.9084 39.2935 89.1243 40.202 87.9089 40.2158C86.657 40.2291 85.864 39.284 85.8753 37.7922ZM89.276 37.8252C89.2667 36.6989 88.7823 36.0411 87.9396 36.0128C87.0582 35.9831 86.5191 36.6879 86.5241 37.8598C86.5288 38.9769 87.02 39.6382 87.865 39.6629C88.7589 39.6892 89.2855 39.004 89.2759 37.8229L89.276 37.8252Z" fill="white"/>
<path d="M115.665 37.7073C115.663 39.1852 114.855 40.1256 113.603 40.106C112.4 40.0874 111.644 39.1779 111.635 37.7381C111.625 36.2591 112.432 35.3158 113.686 35.3371C114.871 35.3581 115.667 36.3114 115.665 37.7073ZM115.022 37.7504C115.027 36.5542 114.508 35.8746 113.613 35.9037C112.759 35.9316 112.281 36.5738 112.278 37.7088C112.275 38.8998 112.793 39.5777 113.687 39.5503C114.548 39.5242 115.018 38.8918 115.022 37.751L115.022 37.7504Z" fill="white"/>
<path d="M162.985 37.5303C162.985 39.0146 162.182 39.9382 160.916 39.9124C159.723 39.888 158.968 38.9663 158.964 37.5276C158.958 36.0538 159.777 35.1082 161.027 35.1393C162.206 35.1684 162.985 36.124 162.985 37.5303ZM162.359 37.5844C162.368 36.4032 161.845 35.6947 160.97 35.7035C160.116 35.7118 159.621 36.3535 159.604 37.4822C159.585 38.6606 160.1 39.3558 160.989 39.3561C161.834 39.356 162.349 38.69 162.357 37.5844L162.359 37.5844Z" fill="white"/>
<path d="M91.7125 35.5823C91.7282 36.3142 91.7455 37.0462 91.7588 37.7787C91.7899 39.4892 92.2897 39.8779 94.183 39.4376L94.1668 35.5697L94.6479 35.5723C94.8247 37.0027 94.7334 38.4475 94.6977 40.112C93.8733 40.1154 93.1244 40.1844 92.3948 40.0922C92.0707 40.0515 91.7101 39.7441 91.4988 39.4575C90.9944 38.7767 90.9994 36.4472 91.4393 35.5944L91.7125 35.5823Z" fill="white"/>
<path d="M109.48 39.9691C108.824 38.6498 109.941 36.919 108.755 35.778C108.94 35.3685 109.183 34.9426 109.329 34.4842C109.65 33.472 110.365 33.1583 111.39 33.7279C110.651 34.0196 109.601 34.0004 110.003 35.2924L111.06 35.6228L111.065 35.8191L109.839 36.1707L109.855 39.9554L109.48 39.9691Z" fill="white"/>
<path d="M181.353 39.6514L181.335 35.4019C181.791 35.3272 182.265 35.3119 182.696 35.1652C183.801 34.7951 184.675 35.2487 184.771 36.4075C184.861 37.4844 184.799 38.5746 184.803 39.6588L184.379 39.6871C184.334 39.2786 184.268 38.8713 184.248 38.4615C184.222 37.9207 184.323 37.3539 184.196 36.8452C184.09 36.4185 183.707 35.7175 183.491 35.734C183.004 35.7713 182.374 36.0654 182.119 36.4637C181.836 36.9008 181.9 37.5702 181.841 38.1391C181.786 38.6462 181.769 39.1572 181.734 39.6659L181.353 39.6514Z" fill="white"/>
<path d="M142.49 39.8225L142.472 35.6001C142.876 35.5407 143.275 35.5604 143.606 35.4187C144.847 34.8881 145.786 35.3715 145.889 36.7173C145.966 37.7429 145.912 38.7782 145.916 39.8092L145.485 39.8422C145.438 39.5359 145.362 39.2308 145.348 38.9232C145.321 38.305 145.349 37.6843 145.313 37.0667C145.282 36.5184 145.223 35.9217 144.528 35.8322C143.832 35.7428 143.328 36.1259 143.128 36.7751C142.984 37.2439 142.976 37.7624 142.95 38.2607C142.924 38.7804 142.948 39.2998 142.951 39.8229L142.49 39.8225Z" fill="white"/>
<path d="M106.927 39.9676C106.924 39.2252 106.942 38.481 106.911 37.7393C106.88 36.9976 107.075 36.0644 105.933 35.9762C105.158 35.9166 104.611 36.6682 104.541 37.7856C104.499 38.4786 104.471 39.1674 104.424 39.8575C104.421 39.9037 104.316 39.9422 104.092 40.1036L104.074 35.7826C104.511 35.682 104.984 35.6056 105.435 35.4611C106.273 35.1897 107.194 35.4612 107.317 36.2435C107.512 37.4637 107.486 38.72 107.554 39.9604L106.927 39.9676Z" fill="white"/>
<path d="M154.99 39.7637C154.986 38.9255 154.999 38.0895 154.974 37.2496C154.955 36.584 154.959 35.8607 154.054 35.7675C153.374 35.6976 152.709 36.3019 152.636 37.1665C152.564 38.031 152.626 38.9025 152.517 39.7689C151.928 39.1998 151.806 36.9136 152.163 35.2743L152.721 35.7096C152.932 35.5898 153.175 35.4127 153.447 35.3024C154.526 34.8758 155.42 35.3691 155.519 36.5343C155.61 37.6071 155.546 38.6939 155.551 39.7746L154.99 39.7637Z" fill="white"/>
<path d="M131.596 35.4796L132.53 34.1386C132.633 34.5706 132.708 34.8844 132.785 35.2062L133.827 35.5003C133.831 35.5712 133.836 35.6422 133.842 35.7132C133.51 35.8156 133.179 35.9181 132.704 36.0644C132.708 36.9367 132.614 37.8712 132.762 38.7642C132.826 39.1432 133.398 39.4353 133.721 39.7485C132.958 40.2402 132.257 40.0053 132.132 39.0538C132.042 38.3672 132.141 37.6561 132.062 36.9665C132.008 36.513 131.79 36.0769 131.596 35.4796Z" fill="white"/>
<path d="M78.5422 35.9455L77.3038 36.3167L77.3198 40.1153L76.9942 40.1167C76.2195 38.8089 77.5594 36.987 76.2366 35.9575C76.4463 35.4745 76.6751 35.0464 76.8212 34.5909C77.1449 33.5844 77.8735 33.28 78.8643 33.8704C78.1185 34.1443 77.12 34.1635 77.4475 35.4305L78.5305 35.7388L78.5422 35.9455Z" fill="white"/>
<path d="M67.3211 33.5239C67.3619 34.1461 67.4093 34.5806 67.4156 35.0164C67.4312 36.1357 67.4188 37.2552 67.4377 38.3739C67.4485 39.0476 67.2214 39.8678 68.6104 39.836C67.4666 40.3794 66.9207 40.2472 66.8949 39.5176C66.83 37.6347 66.8904 35.7472 66.9098 33.8599C66.9085 33.8143 67.017 33.7665 67.3211 33.5239Z" fill="white"/>
<path d="M96.295 40.0343C96.1796 38.5915 96.2259 37.137 96.2575 35.7237L98.2643 35.5998C98.265 35.7637 98.2821 35.8958 98.2656 35.9011C96.9788 36.2725 96.75 37.2261 96.8495 38.4178C96.8945 38.9528 96.7971 39.4999 96.7647 40.0421L96.295 40.0343Z" fill="white"/>
<path d="M116.999 39.9549C116.846 38.4828 116.941 37.0021 116.932 35.6415L118.961 35.5221L119.025 35.7152C118.899 35.8168 118.786 35.9737 118.643 36.0113C117.783 36.2366 117.537 36.8519 117.545 37.6676C117.552 38.4342 117.533 39.2015 117.525 39.9688L116.999 39.9549Z" fill="white"/>
<path d="M65.8811 40.0188C65.1113 40.4059 64.4551 40.3088 64.4184 39.4511C64.3395 37.6069 64.4086 35.7564 64.4259 33.9089C64.4257 33.8546 64.5194 33.8017 64.733 33.5722C64.8236 33.9903 64.9335 34.2751 64.9393 34.5614C64.963 35.8729 64.9799 37.1857 64.9558 38.4968C64.9411 39.1989 64.983 39.8141 65.8811 40.0188Z" fill="white"/>
<path d="M176.957 33.257L176.966 35.393C176.969 36.2046 177.002 37.0174 176.97 37.8275C176.94 38.5873 176.948 39.2905 178.009 39.4811C176.995 39.9207 176.473 39.7884 176.449 39.0535C176.385 37.1689 176.446 35.2797 176.466 33.3924C176.466 33.3491 176.57 33.3071 176.626 33.2647L176.957 33.257Z" fill="white"/>
<path d="M150.305 35.3037L150.324 39.8003L149.982 39.826C149.862 38.3832 149.742 36.9375 149.609 35.3638L150.305 35.3037Z" fill="white"/>
<path d="M189.371 35.3334L188.002 37.2592C188.552 38.0047 189.103 38.7495 189.653 39.4934L189.337 39.769L187.206 37.4L188.996 35.0359L189.371 35.3334Z" fill="white"/>
<path d="M186.709 33.231L186.736 39.777C186.16 38.9326 186.104 34.1261 186.709 33.231Z" fill="white"/>
<path d="M134.523 35.4525L135.635 35.3664L135.654 39.8405C134.623 38.5724 135.79 36.8523 134.523 35.4525Z" fill="white"/>
<path d="M102.02 39.9899C101.359 38.6343 102.442 36.9556 101.176 35.5869L102.298 35.5822L102.316 39.9697L102.02 39.9899Z" fill="white"/>
<path d="M179.118 39.6715C179.115 38.9337 179.141 38.1947 179.1 37.4594C179.062 36.7777 178.95 36.0999 178.852 35.2482L179.579 35.1874L179.597 39.6562L179.118 39.6715Z" fill="white"/>
</g>
<defs>
<clipPath id="clip0_4862_19827">
<rect width="190.131" height="43.2574" fill="white" transform="translate(0 0.796875) rotate(-0.240863)"/>
</clipPath>
</defs>
</svg>
