<svg width="449" height="438" viewBox="0 0 449 438" fill="none" xmlns="http://www.w3.org/2000/svg">
<path d="M423.11 101.36C419.03 104.93 417.62 109.99 419.95 112.64C422.28 115.3 427.47 114.56 431.55 110.98C435.63 107.41 437.04 102.35 434.71 99.7002C432.38 97.0501 427.18 97.7901 423.11 101.36Z" fill="#F5C518"/>
<path d="M426.996 101.62C429.131 96.6343 428.226 91.4651 424.977 90.0742C421.728 88.6833 417.364 91.5975 415.229 96.5833C413.095 101.569 413.999 106.738 417.249 108.129C420.498 109.52 424.862 106.606 426.996 101.62Z" fill="#F5C518"/>
<path d="M408.75 96.4799C409.81 101.8 407.85 106.67 404.38 107.35C400.91 108.04 397.25 104.28 396.19 98.9699C395.14 93.6499 397.09 88.7799 400.56 88.0999C404.03 87.4099 407.69 91.1599 408.75 96.4799Z" fill="#F5C518"/>
<path d="M417.92 97.48C416.57 102.73 412.71 106.28 409.28 105.4C405.86 104.52 404.17 99.55 405.52 94.3C406.87 89.05 410.73 85.5 414.16 86.38C417.58 87.26 419.26 92.23 417.92 97.48Z" fill="#F5C518"/>
<path d="M370.669 185.76C370.409 185.76 370.149 185.66 369.959 185.46C369.569 185.07 369.579 184.43 369.969 184.05C370.239 183.78 397.249 156.78 409.069 115.64C409.219 115.11 409.779 114.8 410.309 114.96C410.839 115.11 411.149 115.67 410.989 116.2C399.019 157.87 371.649 185.21 371.369 185.48C371.179 185.67 370.929 185.76 370.669 185.76Z" fill="#B7B1C0"/>
<path d="M421.645 114.077C423.288 109.246 420.253 103.845 414.867 102.014C409.481 100.184 403.784 102.617 402.141 107.448C400.499 112.28 403.534 117.681 408.92 119.511C414.306 121.342 420.003 118.909 421.645 114.077Z" fill="#251641"/>
<path d="M397.489 105.86C395.849 110.69 400.969 116.8 408.929 119.51C416.889 122.22 424.669 120.49 426.309 115.66C427.949 110.83 418.969 116.09 411.009 113.38C403.049 110.68 399.129 101.03 397.489 105.86Z" fill="#251641"/>
<path d="M418.14 110.07C415.33 112.68 414.69 116.57 416.71 118.74C418.73 120.92 422.65 120.56 425.46 117.95C428.27 115.34 428.91 111.45 426.89 109.28C424.87 107.1 420.95 107.46 418.14 110.07Z" fill="#251641"/>
<path d="M407.5 106.46C408.14 110.25 406.28 113.71 403.34 114.21C400.41 114.7 397.52 112.03 396.88 108.25C396.24 104.46 398.1 101 401.04 100.5C403.97 100 406.86 102.67 407.5 106.46Z" fill="#251641"/>
<path d="M418.899 78.1701C418.559 79.1801 419.099 80.2801 420.109 80.6201C421.119 80.9601 422.219 80.4201 422.559 79.4101C422.899 78.4001 422.359 77.3001 421.349 76.9601C420.339 76.6201 419.239 77.1601 418.899 78.1701Z" fill="#251641"/>
<path d="M411.609 81.21C411.219 82.36 411.839 83.62 412.989 84.01C414.139 84.4 415.399 83.78 415.789 82.63C416.179 81.48 415.559 80.22 414.409 79.83C413.259 79.43 412.009 80.05 411.609 81.21Z" fill="#251641"/>
<path d="M426.28 86.1902C425.87 87.3902 426.51 88.6902 427.71 89.1002C428.91 89.5102 430.21 88.8702 430.62 87.6702C431.03 86.4702 430.39 85.1702 429.19 84.7602C427.99 84.3502 426.69 84.9902 426.28 86.1902Z" fill="#251641"/>
<path d="M403.46 135.48C403.46 135.48 410.86 123.82 392.88 117.09C390.65 135.97 403.46 135.48 403.46 135.48Z" fill="#B7B1C0"/>
<path d="M399.609 144.37C399.609 144.37 408.949 154.55 420.119 138.94C402.469 131.88 399.609 144.37 399.609 144.37Z" fill="#B7B1C0"/>
<path d="M100.32 200.89C100.32 200.89 89.1395 241.76 36.7695 214.85C75.0095 170.83 100.32 200.89 100.32 200.89Z" fill="#B7B1C0"/>
<path opacity="0.2" d="M100.32 200.89L36.7695 214.85C75.0095 170.83 100.32 200.89 100.32 200.89Z" fill="#492455"/>
<path d="M96.1603 182.03C96.1603 182.03 27.5403 184.2 44.2403 90.27C130.64 128.51 96.1603 182.03 96.1603 182.03Z" fill="#D9D6DE"/>
<path opacity="0.2" d="M96.1595 182.03C96.1595 182.03 67.7795 149.52 50.2695 103.39C81.6495 141.68 96.1595 182.03 96.1595 182.03Z" fill="#492455"/>
<path d="M81.3792 191.03C81.2592 191.03 81.1492 191.01 81.0292 190.97L20.9392 168.48C20.4192 168.29 20.1592 167.71 20.3492 167.19C20.5392 166.67 21.1192 166.41 21.6392 166.6L81.7292 189.09C82.2492 189.28 82.5092 189.86 82.3192 190.38C82.1592 190.78 81.7792 191.03 81.3792 191.03Z" fill="#B7B1C0"/>
<path d="M42.0001 174.53C42.0001 174.53 25.4301 174.71 29.9201 152.13C50.5901 161.79 42.0001 174.53 42.0001 174.53Z" fill="#B7B1C0"/>
<path d="M23.94 168.13C23.94 168.13 11.73 179.33 0 159.51C21.82 152.91 23.94 168.13 23.94 168.13Z" fill="#B7B1C0"/>
<path d="M41.4997 175.86C41.4997 175.86 29.1197 164.84 17.6797 184.83C39.6097 191.11 41.4997 175.86 41.4997 175.86Z" fill="#B7B1C0"/>
<path d="M60.4601 181.441C60.4601 181.441 43.8901 181.621 48.3901 159.041C69.0401 168.691 60.4601 181.441 60.4601 181.441Z" fill="#B7B1C0"/>
<path d="M59.9606 182.771C59.9606 182.771 47.5806 171.751 36.1406 191.741C58.0706 198.021 59.9606 182.771 59.9606 182.771Z" fill="#B7B1C0"/>
<path d="M78.919 188.35C78.919 188.35 62.349 188.53 66.849 165.95C87.499 175.6 78.919 188.35 78.919 188.35Z" fill="#B7B1C0"/>
<path d="M78.4196 189.68C78.4196 189.68 66.0396 178.66 54.5996 198.65C76.5296 204.93 78.4196 189.68 78.4196 189.68Z" fill="#B7B1C0"/>
<path d="M332.46 163.77C332.38 163.77 332.3 163.76 332.22 163.74C331.68 163.61 331.36 163.06 331.49 162.53L347.06 100.29C347.19 99.7502 347.74 99.4302 348.27 99.5602C348.81 99.6902 349.13 100.24 349 100.77L333.43 163.01C333.32 163.47 332.91 163.77 332.46 163.77Z" fill="#B7B1C0"/>
<path d="M343.42 121.9C343.42 121.9 341.37 105.46 364.32 107.38C357.05 128.99 343.42 121.9 343.42 121.9Z" fill="#B7B1C0"/>
<path d="M347.739 103.23C347.739 103.23 335.239 92.3602 353.599 78.4702C362.629 99.4102 347.739 103.23 347.739 103.23Z" fill="#B7B1C0"/>
<path d="M342.041 121.55C342.041 121.55 351.591 108.01 330.441 98.9004C326.671 121.39 342.041 121.55 342.041 121.55Z" fill="#B7B1C0"/>
<path d="M338.641 141.02C338.641 141.02 336.591 124.58 359.541 126.5C352.271 148.11 338.641 141.02 338.641 141.02Z" fill="#B7B1C0"/>
<path d="M337.26 140.67C337.26 140.67 346.81 127.13 325.66 118.02C321.89 140.51 337.26 140.67 337.26 140.67Z" fill="#B7B1C0"/>
<path d="M333.85 160.14C333.85 160.14 331.8 143.7 354.75 145.62C347.48 167.23 333.85 160.14 333.85 160.14Z" fill="#B7B1C0"/>
<path d="M332.47 159.79C332.47 159.79 342.02 146.25 320.87 137.14C317.11 159.63 332.47 159.79 332.47 159.79Z" fill="#B7B1C0"/>
<path d="M314.331 188.84C313.931 188.84 313.561 188.6 313.401 188.21L289.481 128.67C289.271 128.16 289.521 127.57 290.031 127.37C290.541 127.16 291.131 127.41 291.331 127.92L315.251 187.46C315.461 187.97 315.211 188.56 314.701 188.76C314.581 188.81 314.461 188.84 314.331 188.84Z" fill="#B7B1C0"/>
<path d="M299.22 148.311C299.22 148.311 287.91 136.201 307.62 124.291C314.42 146.061 299.22 148.311 299.22 148.311Z" fill="#B7B1C0"/>
<path d="M291.76 130.66C291.76 130.66 275.25 129.19 281.98 107.17C301.57 118.83 291.76 130.66 291.76 130.66Z" fill="#B7B1C0"/>
<path d="M297.901 148.84C297.901 148.84 297.691 132.27 275.221 137.3C285.361 157.73 297.901 148.84 297.901 148.84Z" fill="#B7B1C0"/>
<path d="M306.562 166.601C306.562 166.601 295.252 154.491 314.962 142.581C321.772 164.341 306.562 166.601 306.562 166.601Z" fill="#B7B1C0"/>
<path d="M305.25 167.13C305.25 167.13 305.04 150.56 282.57 155.59C292.71 176.02 305.25 167.13 305.25 167.13Z" fill="#B7B1C0"/>
<path d="M313.911 184.891C313.911 184.891 302.601 172.781 322.311 160.871C329.111 182.631 313.911 184.891 313.911 184.891Z" fill="#B7B1C0"/>
<path d="M312.59 185.42C312.59 185.42 312.38 168.85 289.91 173.88C300.06 194.31 312.59 185.42 312.59 185.42Z" fill="#B7B1C0"/>
<path d="M347.381 195.33C347.381 195.33 394.991 245.02 448.921 166.05C360.231 132.81 347.381 195.33 347.381 195.33Z" fill="#B7B1C0"/>
<path opacity="0.2" d="M347.381 195.33L448.921 166.05C360.231 132.81 347.381 195.33 347.381 195.33Z" fill="#492455"/>
<path d="M362.541 192.25C362.541 192.25 329.121 159.54 383.181 123.46C405.111 183.97 362.541 192.25 362.541 192.25Z" fill="#D9D6DE"/>
<path opacity="0.2" d="M362.541 192.25L383.181 123.46C405.111 183.97 362.541 192.25 362.541 192.25Z" fill="#492455"/>
<path d="M357.4 208.01C357.4 208.01 381.75 184.94 406.15 224.66C362.18 238.75 357.4 208.01 357.4 208.01Z" fill="#D9D6DE"/>
<path opacity="0.2" d="M357.4 208.01L406.15 224.66C362.18 238.75 357.4 208.01 357.4 208.01Z" fill="#492455"/>
<path d="M174.9 163.99C174.9 163.99 160.73 133.59 206.13 123.02C205.57 169.19 174.9 163.99 174.9 163.99Z" fill="#D9D6DE"/>
<path opacity="0.2" d="M174.9 163.99L206.13 123.02C205.57 169.19 174.9 163.99 174.9 163.99Z" fill="#492455"/>
<path d="M152.55 179.28C152.55 179.28 99.1698 163.22 136.29 95.2202C192.93 146.99 152.55 179.28 152.55 179.28Z" fill="#B7B1C0"/>
<path opacity="0.2" d="M152.549 179.28L136.289 95.2202C192.929 146.99 152.549 179.28 152.549 179.28Z" fill="#492455"/>
<path d="M102.189 78.2606C104.899 82.9606 104.619 88.1906 101.549 89.9606C98.4895 91.7306 93.8095 89.3506 91.0995 84.6606C88.3895 79.9606 88.6695 74.7306 91.7395 72.9606C94.7995 71.1906 99.4795 73.5606 102.189 78.2606Z" fill="#F5C518"/>
<path d="M111.189 76.2504C111.609 81.6604 109.089 86.2604 105.559 86.5304C102.039 86.8004 98.8388 82.6404 98.4188 77.2304C97.9988 71.8204 100.519 67.2204 104.049 66.9504C107.579 66.6804 110.769 70.8504 111.189 76.2504Z" fill="#F5C518"/>
<path d="M117.349 78.2606C114.639 82.9606 114.919 88.1906 117.989 89.9606C121.049 91.7306 125.729 89.3506 128.439 84.6606C131.149 79.9606 130.869 74.7306 127.799 72.9606C124.739 71.1906 120.059 73.5606 117.349 78.2606Z" fill="#F5C518"/>
<path d="M108.35 76.2504C107.93 81.6604 110.45 86.2604 113.98 86.5304C117.5 86.8004 120.7 82.6404 121.12 77.2304C121.54 71.8204 119.02 67.2204 115.49 66.9504C111.96 66.6804 108.77 70.8504 108.35 76.2504Z" fill="#F5C518"/>
<path d="M124.99 175.09C124.62 175.09 124.27 174.89 124.1 174.54C123.93 174.19 106.81 139.5 108.89 96.1902C108.92 95.6402 109.4 95.2402 109.94 95.2402C110.49 95.2702 110.92 95.7402 110.89 96.2902C108.84 139.05 125.72 173.3 125.89 173.65C126.14 174.14 125.94 174.74 125.44 174.99C125.3 175.06 125.14 175.09 124.99 175.09Z" fill="#B7B1C0"/>
<path d="M109.769 100C115.457 100 120.069 95.8631 120.069 90.76C120.069 85.6569 115.457 81.52 109.769 81.52C104.08 81.52 99.4688 85.6569 99.4688 90.76C99.4688 95.8631 104.08 100 109.769 100Z" fill="#251641"/>
<path d="M124.989 90.7604C124.989 95.8604 118.179 100 109.769 100C101.359 100 94.5488 95.8604 94.5488 90.7604C94.5488 85.6604 101.359 93.5304 109.769 93.5304C118.179 93.5304 124.989 85.6604 124.989 90.7604Z" fill="#251641"/>
<path d="M104.09 88.1002C105.91 91.4802 105.27 95.3602 102.65 96.7702C100.03 98.1802 96.4396 96.5802 94.6196 93.2002C92.7996 89.8202 93.4396 85.9402 96.0596 84.5302C98.6696 83.1302 102.27 84.7202 104.09 88.1002Z" fill="#251641"/>
<path d="M115.329 88.1002C113.509 91.4802 114.149 95.3602 116.769 96.7702C119.389 98.1802 122.979 96.5802 124.799 93.2002C126.619 89.8202 125.979 85.9402 123.359 84.5302C120.749 83.1302 117.149 84.7202 115.329 88.1002Z" fill="#251641"/>
<path d="M111.7 59.5802C112.765 59.5802 113.63 58.7161 113.63 57.6502C113.63 56.5843 112.765 55.7202 111.7 55.7202C110.634 55.7202 109.77 56.5843 109.77 57.6502C109.77 58.7161 110.634 59.5802 111.7 59.5802Z" fill="#251641"/>
<path d="M119.559 62.8702C119.559 64.0902 118.569 65.0802 117.349 65.0802C116.129 65.0802 115.139 64.0902 115.139 62.8702C115.139 61.6502 116.129 60.6602 117.349 60.6602C118.569 60.6602 119.559 61.6502 119.559 62.8702Z" fill="#251641"/>
<path d="M101.77 65.1601C103.035 65.1601 104.06 64.1348 104.06 62.8701C104.06 61.6053 103.035 60.5801 101.77 60.5801C100.506 60.5801 99.4805 61.6053 99.4805 62.8701C99.4805 64.1348 100.506 65.1601 101.77 65.1601Z" fill="#251641"/>
<path d="M109.809 116.89C109.809 116.89 106.549 103.46 125.739 102.88C121.779 121.47 109.809 116.89 109.809 116.89Z" fill="#B7B1C0"/>
<path d="M110.6 126.53C110.6 126.53 98.4797 133.17 92.9297 114.79C111.91 113.79 110.6 126.53 110.6 126.53Z" fill="#B7B1C0"/>
<path d="M263.76 166.25C263.76 166.25 232.11 154.88 256.64 115.1C289.11 148.08 263.76 166.25 263.76 166.25Z" fill="#B7B1C0"/>
<path opacity="0.2" d="M263.759 166.25C263.759 166.25 256.689 146.33 257.029 122.16C264.419 145.25 263.759 166.25 263.759 166.25Z" fill="#492455"/>
<path d="M252.81 165.04C252.81 165.04 226.91 167.45 231.05 131.55C264.61 144.01 252.81 165.04 252.81 165.04Z" fill="#D9D6DE"/>
<path opacity="0.2" d="M252.811 165.04C252.811 165.04 241.321 153.41 233.641 136.37C246.391 150.12 252.811 165.04 252.811 165.04Z" fill="#492455"/>
<path d="M350.119 314.83H97.1995C85.7295 314.83 76.4395 305.53 76.4395 294.07V171.01C76.4395 159.54 85.7395 150.25 97.1995 150.25H350.109C361.579 150.25 370.869 159.55 370.869 171.01V294.07C370.879 305.54 361.589 314.83 350.119 314.83Z" fill="#F5C518"/>
<path d="M347.259 306.59H100.059C92.4686 306.59 86.3086 300.44 86.3086 292.84V172.24C86.3086 164.65 92.4586 158.49 100.059 158.49H347.259C354.849 158.49 361.009 164.64 361.009 172.24V292.84C360.999 300.43 354.849 306.59 347.259 306.59Z" fill="#F5C518"/>
<path d="M347.259 308.09H100.059C91.6486 308.09 84.8086 301.25 84.8086 292.84V172.24C84.8086 163.83 91.6486 156.99 100.059 156.99H347.259C355.669 156.99 362.509 163.83 362.509 172.24V292.84C362.499 301.25 355.659 308.09 347.259 308.09ZM100.059 159.99C93.3086 159.99 87.8086 165.48 87.8086 172.24V292.84C87.8086 299.59 93.2986 305.09 100.059 305.09H347.259C354.009 305.09 359.509 299.6 359.509 292.84V172.24C359.509 165.49 354.019 159.99 347.259 159.99H100.059Z" fill="#251641"/>
<path d="M361.01 225.7H86.3203V267.77H361.01V225.7Z" fill="#251641"/>
<path d="M229.993 353.67C251.516 350.177 266.132 329.898 262.639 308.375C259.146 286.852 238.867 272.236 217.344 275.729C195.821 279.222 181.205 299.502 184.698 321.024C188.191 342.547 208.47 357.163 229.993 353.67Z" fill="#F5C518"/>
<path d="M223.66 355.68C201.06 355.68 182.68 337.3 182.68 314.7C182.68 292.1 201.07 273.72 223.66 273.72C246.26 273.72 264.64 292.1 264.64 314.7C264.64 337.3 246.26 355.68 223.66 355.68ZM223.66 276.71C202.72 276.71 185.68 293.75 185.68 314.69C185.68 335.63 202.72 352.67 223.66 352.67C244.6 352.67 261.64 335.63 261.64 314.69C261.64 293.75 244.6 276.71 223.66 276.71Z" fill="#251641"/>
<path d="M253.908 314.7C253.908 327.19 246.338 337.91 235.538 342.53C231.878 344.08 227.868 344.95 223.668 344.95C219.448 344.95 215.438 344.08 211.798 342.53C205.328 339.76 200.008 334.8 196.788 328.58C196.598 328.23 196.428 327.87 196.278 327.51C194.438 323.63 193.418 319.28 193.418 314.7C193.418 312.61 193.628 310.58 194.038 308.62C194.108 308.26 194.188 307.9 194.278 307.55C197.488 294.3 209.438 284.46 223.668 284.46C240.358 284.45 253.908 298 253.908 314.7Z" fill="#251641"/>
<path d="M243.94 314.91C243.94 313.17 242.53 311.76 240.79 311.76H239.86C241.57 311.76 242.96 310.35 242.96 308.61C242.96 306.87 241.57 305.46 239.86 305.46H224.73H222.63H221.87L226.42 298.88C227.71 297.02 227.19 294.44 225.24 293.23C223.41 292.1 220.98 292.77 219.76 294.54L218.51 296.35C216.64 299.05 214.27 301.44 211.35 302.95C209.27 304.03 207.83 306.14 207.66 308.61H194.05C193.64 310.57 193.43 312.61 193.43 314.69C193.43 319.27 194.45 323.62 196.29 327.5H206.06C207.98 327.5 209.85 328.1 211.4 329.22C212.65 330.12 214.18 330.65 215.83 330.65H220.75H223.03H237.89C239.63 330.65 241.04 329.24 241.04 327.5C241.04 325.76 239.63 324.35 237.89 324.35H239.88C241.59 324.35 242.98 322.94 242.98 321.2C242.98 319.46 241.59 318.05 239.88 318.05H240.81C242.53 318.06 243.94 316.65 243.94 314.91Z" fill="white"/>
<path d="M130.769 343.97C130.769 349.44 126.329 353.88 120.859 353.88C126.329 353.88 130.769 358.32 130.769 363.79C130.769 358.32 135.209 353.88 140.679 353.88C135.209 353.88 130.769 349.44 130.769 343.97Z" fill="#D9D6DE"/>
<path d="M384.93 387.2C384.93 392.67 380.49 397.11 375.02 397.11C380.49 397.11 384.93 401.55 384.93 407.02C384.93 401.55 389.37 397.11 394.84 397.11C389.36 397.1 384.93 392.67 384.93 387.2Z" fill="#D9D6DE"/>
<path d="M294.71 41.8403C294.71 50.8503 287.41 58.1503 278.4 58.1503C287.41 58.1503 294.71 65.4503 294.71 74.4603C294.71 65.4503 302.01 58.1503 311.02 58.1503C302.02 58.1603 294.71 50.8503 294.71 41.8403Z" fill="#D9D6DE"/>
<path d="M172.57 388.78C172.57 397.79 165.27 405.09 156.26 405.09C165.27 405.09 172.57 412.39 172.57 421.4C172.57 412.39 179.87 405.09 188.88 405.09C179.87 405.09 172.57 397.79 172.57 388.78Z" fill="#D9D6DE"/>
<path d="M224.65 26.1401C224.65 31.6101 220.21 36.0501 214.74 36.0501C220.21 36.0501 224.65 40.4901 224.65 45.9601C224.65 40.4901 229.09 36.0501 234.56 36.0501C229.09 36.0401 224.65 31.6101 224.65 26.1401Z" fill="#D9D6DE"/>
<path d="M289.649 333.66C289.649 336.58 287.279 338.95 284.359 338.95C287.279 338.95 289.649 341.32 289.649 344.24C289.649 341.32 292.019 338.95 294.939 338.95C292.019 338.95 289.649 336.58 289.649 333.66Z" fill="#D9D6DE"/>
<path d="M320.28 405.09C320.28 408.01 317.91 410.38 314.99 410.38C317.91 410.38 320.28 412.75 320.28 415.67C320.28 412.75 322.65 410.38 325.57 410.38C322.65 410.38 320.28 408.01 320.28 405.09Z" fill="#D9D6DE"/>
<path d="M438.759 219.25C438.759 222.17 436.389 224.54 433.469 224.54C436.389 224.54 438.759 226.91 438.759 229.83C438.759 226.91 441.129 224.54 444.049 224.54C441.129 224.54 438.759 222.17 438.759 219.25Z" fill="#D9D6DE"/>
<path d="M40.7197 379.65C40.7197 382.57 38.3497 384.94 35.4297 384.94C38.3497 384.94 40.7197 387.31 40.7197 390.23C40.7197 387.31 43.0897 384.94 46.0097 384.94C43.0897 384.94 40.7197 382.57 40.7197 379.65Z" fill="#D9D6DE"/>
<path d="M56.7802 27.54C56.7802 30.46 54.4102 32.83 51.4902 32.83C54.4102 32.83 56.7802 35.2 56.7802 38.12C56.7802 35.2 59.1502 32.83 62.0702 32.83C59.1502 32.83 56.7802 30.46 56.7802 27.54Z" fill="#D9D6DE"/>
<path d="M410.03 46.3604C410.03 49.2804 407.66 51.6504 404.74 51.6504C407.66 51.6504 410.03 54.0204 410.03 56.9404C410.03 54.0204 412.4 51.6504 415.32 51.6504C412.4 51.6504 410.03 49.2804 410.03 46.3604Z" fill="#D9D6DE"/>
<path d="M184.181 87.1899C184.181 90.1099 181.811 92.4799 178.891 92.4799C181.811 92.4799 184.181 94.8499 184.181 97.7699C184.181 94.8499 186.551 92.4799 189.471 92.4799C186.551 92.4799 184.181 90.1099 184.181 87.1899Z" fill="#D9D6DE"/>
<path d="M156.071 49.6198C152.941 49.6198 150.391 47.0698 150.391 43.9398C150.391 40.8098 152.941 38.2598 156.071 38.2598C159.201 38.2598 161.751 40.8098 161.751 43.9398C161.751 47.0698 159.201 49.6198 156.071 49.6198ZM156.071 40.2598C154.041 40.2598 152.391 41.9098 152.391 43.9398C152.391 45.9698 154.041 47.6198 156.071 47.6198C158.101 47.6198 159.751 45.9698 159.751 43.9398C159.751 41.9098 158.101 40.2598 156.071 40.2598Z" fill="#D9D6DE"/>
<path d="M29.1498 74.8402C24.1498 74.8402 20.0898 70.7702 20.0898 65.7702C20.0898 60.7702 24.1598 56.7002 29.1498 56.7002C34.1498 56.7002 38.2198 60.7702 38.2198 65.7702C38.2198 70.7802 34.1498 74.8402 29.1498 74.8402ZM29.1498 58.7102C25.2498 58.7102 22.0898 61.8802 22.0898 65.7802C22.0898 69.6802 25.2598 72.8502 29.1498 72.8502C33.0498 72.8502 36.2198 69.6802 36.2198 65.7802C36.2198 61.8802 33.0498 58.7102 29.1498 58.7102Z" fill="#D9D6DE"/>
<path d="M245.119 397.91C242.459 397.91 240.289 395.74 240.289 393.08C240.289 390.42 242.459 388.25 245.119 388.25C247.779 388.25 249.949 390.42 249.949 393.08C249.949 395.75 247.779 397.91 245.119 397.91ZM245.119 390.25C243.559 390.25 242.289 391.52 242.289 393.08C242.289 394.64 243.559 395.91 245.119 395.91C246.679 395.91 247.949 394.64 247.949 393.08C247.949 391.52 246.679 390.25 245.119 390.25Z" fill="#D9D6DE"/>
<path d="M320.279 9.66C317.619 9.66 315.449 7.49 315.449 4.83C315.449 2.17 317.619 0 320.279 0C322.939 0 325.109 2.17 325.109 4.83C325.119 7.49 322.949 9.66 320.279 9.66ZM320.279 2C318.719 2 317.449 3.27 317.449 4.83C317.449 6.39 318.719 7.66 320.279 7.66C321.839 7.66 323.109 6.39 323.109 4.83C323.119 3.27 321.849 2 320.279 2Z" fill="#D9D6DE"/>
<path d="M30.6091 363.74C25.3791 363.74 21.1191 359.48 21.1191 354.25C21.1191 349.02 25.3791 344.76 30.6091 344.76C35.8391 344.76 40.0991 349.02 40.0991 354.25C40.0991 359.48 35.8391 363.74 30.6091 363.74ZM30.6091 346.76C26.4791 346.76 23.1191 350.12 23.1191 354.25C23.1191 358.38 26.4791 361.74 30.6091 361.74C34.7391 361.74 38.0991 358.38 38.0991 354.25C38.0991 350.12 34.7391 346.76 30.6091 346.76Z" fill="#D9D6DE"/>
<path d="M338.89 370.54H325.58V383.85H338.89V370.54Z" fill="#F5C518"/>
<path d="M102.787 381.806L90.1562 386.001L94.3516 398.633L106.983 394.437L102.787 381.806Z" fill="#F5C518"/>
<path d="M378.834 18.1798L365.977 14.7378L362.535 27.5953L375.392 31.0372L378.834 18.1798Z" fill="#F5C518"/>
<path d="M277.659 431.428L271.75 428.356L268.678 434.265L274.587 437.338L277.659 431.428Z" fill="#F5C518"/>
<path d="M15.0168 228.426L9.10742 225.354L6.03517 231.263L11.9446 234.335L15.0168 228.426Z" fill="#F5C518"/>
<path d="M242.371 78.975L237.125 81.8042L239.954 87.0502L245.2 84.221L242.371 78.975Z" fill="#F5C518"/>
<path d="M131.976 11.9385L126.066 8.86621L122.994 14.7756L128.904 17.8479L131.976 11.9385Z" fill="#F5C518"/>
<path d="M106.98 265.27C106.98 271.22 102.15 276.04 96.1996 276.04H48.3696C43.7296 276.04 39.7796 273.11 38.2596 268.99C37.8296 267.83 37.5996 266.58 37.5996 265.27C37.5996 259.32 42.4196 254.5 48.3696 254.5H96.1996C102.15 254.5 106.98 259.32 106.98 265.27Z" fill="#FBA2A4"/>
<path d="M102.32 308.36C102.32 314.31 97.4996 319.13 91.5496 319.13H48.3696C47.7396 319.13 47.1196 319.08 46.5196 318.97C42.7096 318.31 39.5796 315.65 38.2696 312.11C37.8396 310.94 37.5996 309.68 37.5996 308.36C37.5996 302.41 42.4196 297.59 48.3696 297.59H91.5496C97.4996 297.59 102.32 302.41 102.32 308.36Z" fill="#FBA2A4"/>
<path d="M101.81 329.91C101.81 335.86 96.9805 340.68 91.0305 340.68H58.5005C57.8705 340.68 57.2505 340.63 56.6505 340.52C53.3205 339.95 50.5105 337.84 48.9905 334.96C48.1805 333.45 47.7305 331.73 47.7305 329.91C47.7305 323.96 52.5505 319.13 58.5005 319.13H91.0305C96.9805 319.13 101.81 323.96 101.81 329.91Z" fill="#FBA2A4"/>
<path d="M109.93 286.81C109.93 292.76 105.1 297.59 99.1502 297.59H40.7702C40.1402 297.59 39.5202 297.54 38.9202 297.43C35.0502 296.76 31.8802 294.02 30.6102 290.39C30.2102 289.27 29.9902 288.06 29.9902 286.81C29.9902 280.86 34.8202 276.04 40.7702 276.04H99.1502C105.1 276.04 109.93 280.86 109.93 286.81Z" fill="#FBA2A4"/>
<path d="M96.97 258.8H90.5V271.74H96.97C100.54 271.74 103.44 268.84 103.44 265.27C103.45 261.69 100.55 258.8 96.97 258.8Z" fill="white"/>
<path d="M99.4095 280.34H92.9395V293.28H99.4095C102.979 293.28 105.879 290.38 105.879 286.81C105.889 283.24 102.989 280.34 99.4095 280.34Z" fill="white"/>
<path d="M92.0911 301.89H85.6211V314.83H92.0911C95.6611 314.83 98.5611 311.93 98.5611 308.36C98.5611 304.79 95.6611 301.89 92.0911 301.89Z" fill="white"/>
<path d="M92.0911 323.44H85.6211V336.38H92.0911C95.6611 336.38 98.5611 333.48 98.5611 329.91C98.5611 326.33 95.6611 323.44 92.0911 323.44Z" fill="white"/>
<path d="M48.3711 254.5L76.4411 240.22V256.36L48.3711 254.5Z" fill="#FBA2A4"/>
<path d="M85.6198 276.04H48.3698C43.7298 276.04 39.7798 273.11 38.2598 268.99L85.6198 276.04Z" fill="#FA8F8F"/>
<path d="M87.5394 297.43H38.9194C35.0494 296.76 31.8794 294.02 30.6094 290.39L31.9194 289.15L87.5394 297.43Z" fill="#FA8F8F"/>
<path d="M84.3395 318.97H46.5195C42.7095 318.31 39.5795 315.65 38.2695 312.11L84.3395 318.97Z" fill="#FA8F8F"/>
<path d="M86.3202 340.52H56.6502C53.3202 339.95 50.5102 337.84 48.9902 334.96L86.3202 340.52Z" fill="#FA8F8F"/>
<path d="M340.35 265.27C340.35 271.22 345.18 276.04 351.13 276.04H398.96C403.6 276.04 407.55 273.11 409.07 268.99C409.5 267.83 409.73 266.58 409.73 265.27C409.73 259.32 404.91 254.5 398.96 254.5H351.13C345.18 254.5 340.35 259.32 340.35 265.27Z" fill="#FBA2A4"/>
<path d="M345.01 308.36C345.01 314.31 349.83 319.13 355.78 319.13H398.96C399.59 319.13 400.21 319.08 400.81 318.97C404.62 318.31 407.75 315.65 409.06 312.11C409.49 310.94 409.73 309.68 409.73 308.36C409.73 302.41 404.91 297.59 398.96 297.59H355.78C349.83 297.59 345.01 302.41 345.01 308.36Z" fill="#FBA2A4"/>
<path d="M345.52 329.91C345.52 335.86 350.35 340.68 356.3 340.68H388.83C389.46 340.68 390.08 340.63 390.68 340.52C394.01 339.95 396.82 337.84 398.34 334.96C399.15 333.45 399.6 331.73 399.6 329.91C399.6 323.96 394.78 319.13 388.83 319.13H356.3C350.35 319.13 345.52 323.96 345.52 329.91Z" fill="#FBA2A4"/>
<path d="M337.4 286.81C337.4 292.76 342.23 297.59 348.18 297.59H406.56C407.19 297.59 407.81 297.54 408.41 297.43C412.28 296.76 415.45 294.02 416.72 290.39C417.12 289.27 417.34 288.06 417.34 286.81C417.34 280.86 412.51 276.04 406.56 276.04H348.18C342.23 276.04 337.4 280.86 337.4 286.81Z" fill="#FBA2A4"/>
<path d="M350.361 258.8H356.831V271.74H350.361C346.791 271.74 343.891 268.84 343.891 265.27C343.891 261.69 346.781 258.8 350.361 258.8Z" fill="white"/>
<path d="M347.921 280.34H354.391V293.28H347.921C344.351 293.28 341.451 290.38 341.451 286.81C341.441 283.24 344.341 280.34 347.921 280.34Z" fill="white"/>
<path d="M355.24 301.89H361.71V314.83H355.24C351.67 314.83 348.77 311.93 348.77 308.36C348.77 304.79 351.67 301.89 355.24 301.89Z" fill="white"/>
<path d="M355.24 323.44H361.71V336.38H355.24C351.67 336.38 348.77 333.48 348.77 329.91C348.77 326.33 351.67 323.44 355.24 323.44Z" fill="white"/>
<path d="M398.961 254.5L370.891 240.22V256.36L398.961 254.5Z" fill="#FBA2A4"/>
<path d="M361.711 276.04H398.961C403.601 276.04 407.551 273.11 409.071 268.99L361.711 276.04Z" fill="#FA8F8F"/>
<path d="M359.791 297.43H408.411C412.281 296.76 415.451 294.02 416.721 290.39L415.411 289.15L359.791 297.43Z" fill="#FA8F8F"/>
<path d="M362.99 318.97H400.81C404.62 318.31 407.75 315.65 409.06 312.11L362.99 318.97Z" fill="#FA8F8F"/>
<path d="M361.01 340.52H390.68C394.01 339.95 396.82 337.84 398.34 334.96L361.01 340.52Z" fill="#FA8F8F"/>
<path d="M149.961 180.88V207.54H144.486V180.88H149.961ZM158.164 180.88V185.183H136.411V180.88H158.164ZM166.111 179.415V207.54H160.837V179.415H166.111ZM165.36 196.938H163.913C163.926 195.559 164.109 194.289 164.463 193.13C164.817 191.958 165.323 190.945 165.983 190.09C166.642 189.223 167.429 188.552 168.345 188.076C169.272 187.6 170.298 187.362 171.421 187.362C172.397 187.362 173.282 187.502 174.076 187.783C174.881 188.051 175.571 188.491 176.145 189.101C176.731 189.699 177.182 190.487 177.5 191.463C177.817 192.44 177.976 193.624 177.976 195.016V207.54H172.666V194.979C172.666 194.1 172.538 193.41 172.281 192.91C172.037 192.397 171.677 192.037 171.201 191.83C170.737 191.61 170.163 191.5 169.48 191.5C168.723 191.5 168.076 191.64 167.539 191.921C167.014 192.202 166.593 192.592 166.275 193.093C165.958 193.581 165.726 194.155 165.58 194.814C165.433 195.473 165.36 196.181 165.36 196.938ZM192.679 203.072V194.247C192.679 193.612 192.576 193.069 192.368 192.617C192.161 192.153 191.837 191.793 191.398 191.537C190.97 191.28 190.415 191.152 189.731 191.152C189.145 191.152 188.639 191.256 188.212 191.463C187.784 191.659 187.455 191.946 187.223 192.324C186.991 192.69 186.875 193.123 186.875 193.624H181.601C181.601 192.782 181.797 191.982 182.187 191.225C182.578 190.468 183.146 189.803 183.89 189.229C184.635 188.644 185.52 188.186 186.545 187.856C187.583 187.527 188.743 187.362 190.024 187.362C191.562 187.362 192.93 187.618 194.126 188.131C195.322 188.644 196.262 189.413 196.946 190.438C197.642 191.463 197.989 192.745 197.989 194.283V202.761C197.989 203.847 198.057 204.739 198.191 205.434C198.325 206.118 198.52 206.716 198.777 207.229V207.54H193.448C193.192 207.003 192.997 206.332 192.862 205.526C192.74 204.708 192.679 203.89 192.679 203.072ZM193.375 195.473L193.412 198.458H190.464C189.768 198.458 189.164 198.537 188.651 198.696C188.138 198.855 187.717 199.081 187.388 199.374C187.058 199.654 186.814 199.984 186.655 200.362C186.509 200.741 186.435 201.156 186.435 201.607C186.435 202.059 186.539 202.468 186.747 202.834C186.954 203.188 187.253 203.469 187.644 203.677C188.035 203.872 188.492 203.969 189.017 203.969C189.811 203.969 190.5 203.811 191.086 203.493C191.672 203.176 192.124 202.785 192.441 202.322C192.771 201.858 192.942 201.418 192.954 201.003L194.346 203.237C194.15 203.738 193.882 204.256 193.54 204.793C193.21 205.331 192.789 205.837 192.277 206.313C191.764 206.777 191.147 207.162 190.427 207.467C189.707 207.76 188.852 207.906 187.864 207.906C186.606 207.906 185.465 207.656 184.44 207.156C183.426 206.643 182.621 205.941 182.023 205.05C181.437 204.146 181.144 203.121 181.144 201.974C181.144 200.936 181.339 200.014 181.73 199.209C182.12 198.403 182.694 197.726 183.451 197.176C184.22 196.615 185.178 196.194 186.326 195.913C187.473 195.62 188.804 195.473 190.317 195.473H193.375ZM207.218 191.958V207.54H201.945V187.728H206.888L207.218 191.958ZM206.449 196.938H205.021C205.021 195.473 205.21 194.155 205.588 192.983C205.967 191.799 206.498 190.792 207.181 189.962C207.865 189.12 208.677 188.479 209.617 188.039C210.569 187.588 211.631 187.362 212.803 187.362C213.73 187.362 214.579 187.496 215.348 187.765C216.117 188.033 216.776 188.46 217.325 189.046C217.887 189.632 218.314 190.407 218.607 191.372C218.912 192.336 219.065 193.514 219.065 194.906V207.54H213.755V194.887C213.755 194.009 213.633 193.325 213.389 192.837C213.144 192.348 212.784 192.007 212.308 191.811C211.844 191.604 211.271 191.5 210.587 191.5C209.879 191.5 209.263 191.64 208.738 191.921C208.225 192.202 207.798 192.592 207.456 193.093C207.126 193.581 206.876 194.155 206.705 194.814C206.534 195.473 206.449 196.181 206.449 196.938ZM228.348 179.397V207.54H223.075V179.397H228.348ZM240.836 187.728L232.23 197.542L227.616 202.212L225.693 198.403L229.355 193.752L234.501 187.728H240.836ZM235.361 207.54L229.502 198.385L233.146 195.199L241.44 207.54H235.361ZM258.323 205.306L263.578 187.728H269.236L261.271 210.525C261.1 211.025 260.868 211.562 260.575 212.136C260.294 212.71 259.91 213.253 259.421 213.766C258.945 214.291 258.341 214.718 257.609 215.047C256.889 215.377 256.003 215.542 254.954 215.542C254.453 215.542 254.044 215.511 253.727 215.45C253.409 215.389 253.031 215.304 252.592 215.194V211.33C252.726 211.33 252.866 211.33 253.013 211.33C253.159 211.343 253.3 211.349 253.434 211.349C254.13 211.349 254.697 211.269 255.137 211.111C255.576 210.952 255.93 210.708 256.199 210.378C256.467 210.061 256.681 209.646 256.84 209.133L258.323 205.306ZM256.126 187.728L260.429 202.083L261.179 207.668L257.59 208.053L250.468 187.728H256.126ZM270.206 197.835V197.451C270.206 195.998 270.414 194.662 270.829 193.441C271.244 192.208 271.848 191.14 272.642 190.237C273.435 189.333 274.412 188.631 275.571 188.131C276.731 187.618 278.062 187.362 279.563 187.362C281.065 187.362 282.401 187.618 283.573 188.131C284.745 188.631 285.728 189.333 286.521 190.237C287.327 191.14 287.937 192.208 288.352 193.441C288.767 194.662 288.975 195.998 288.975 197.451V197.835C288.975 199.276 288.767 200.613 288.352 201.845C287.937 203.066 287.327 204.134 286.521 205.05C285.728 205.953 284.751 206.655 283.591 207.156C282.432 207.656 281.101 207.906 279.6 207.906C278.098 207.906 276.762 207.656 275.59 207.156C274.43 206.655 273.447 205.953 272.642 205.05C271.848 204.134 271.244 203.066 270.829 201.845C270.414 200.613 270.206 199.276 270.206 197.835ZM275.48 197.451V197.835C275.48 198.666 275.553 199.441 275.7 200.161C275.846 200.881 276.078 201.516 276.395 202.065C276.725 202.602 277.152 203.023 277.677 203.329C278.202 203.634 278.843 203.786 279.6 203.786C280.332 203.786 280.961 203.634 281.486 203.329C282.011 203.023 282.432 202.602 282.749 202.065C283.067 201.516 283.298 200.881 283.445 200.161C283.604 199.441 283.683 198.666 283.683 197.835V197.451C283.683 196.645 283.604 195.888 283.445 195.18C283.298 194.46 283.06 193.825 282.731 193.276C282.413 192.715 281.992 192.275 281.467 191.958C280.943 191.64 280.308 191.482 279.563 191.482C278.818 191.482 278.184 191.64 277.659 191.958C277.146 192.275 276.725 192.715 276.395 193.276C276.078 193.825 275.846 194.46 275.7 195.18C275.553 195.888 275.48 196.645 275.48 197.451ZM303.935 202.798V187.728H309.208V207.54H304.246L303.935 202.798ZM304.52 198.733L306.077 198.696C306.077 200.014 305.924 201.241 305.619 202.376C305.314 203.5 304.856 204.476 304.246 205.306C303.635 206.124 302.866 206.765 301.939 207.229C301.011 207.68 299.918 207.906 298.661 207.906C297.697 207.906 296.806 207.772 295.988 207.503C295.182 207.223 294.486 206.789 293.9 206.203C293.327 205.605 292.875 204.842 292.545 203.915C292.228 202.975 292.069 201.845 292.069 200.527V187.728H297.343V200.564C297.343 201.15 297.41 201.644 297.544 202.047C297.691 202.45 297.892 202.779 298.148 203.036C298.405 203.292 298.704 203.475 299.046 203.585C299.4 203.695 299.79 203.75 300.217 203.75C301.304 203.75 302.158 203.53 302.781 203.091C303.416 202.651 303.861 202.053 304.118 201.296C304.386 200.527 304.52 199.673 304.52 198.733Z" fill="#080808"/>
<path d="M146.431 253.382H143.606V241.909C143.606 241.111 143.762 240.439 144.074 239.893C144.392 239.341 144.837 238.926 145.408 238.647C145.986 238.361 146.671 238.218 147.463 238.218C147.723 238.218 147.973 238.238 148.213 238.277C148.453 238.309 148.687 238.351 148.914 238.403L148.885 240.517C148.762 240.484 148.632 240.461 148.495 240.448C148.359 240.435 148.2 240.429 148.018 240.429C147.68 240.429 147.392 240.487 147.151 240.604C146.918 240.715 146.739 240.88 146.616 241.101C146.492 241.322 146.431 241.591 146.431 241.909V253.382ZM148.534 242.844V244.831H142.038V242.844H148.534ZM149.557 248.22V248.016C149.557 247.243 149.667 246.532 149.888 245.883C150.109 245.227 150.43 244.659 150.852 244.178C151.274 243.698 151.794 243.325 152.41 243.058C153.027 242.786 153.735 242.649 154.534 242.649C155.332 242.649 156.043 242.786 156.666 243.058C157.29 243.325 157.812 243.698 158.234 244.178C158.663 244.659 158.988 245.227 159.208 245.883C159.429 246.532 159.539 247.243 159.539 248.016V248.22C159.539 248.986 159.429 249.697 159.208 250.353C158.988 251.002 158.663 251.57 158.234 252.057C157.812 252.538 157.293 252.911 156.676 253.177C156.059 253.444 155.352 253.577 154.553 253.577C153.754 253.577 153.043 253.444 152.42 253.177C151.803 252.911 151.281 252.538 150.852 252.057C150.43 251.57 150.109 251.002 149.888 250.353C149.667 249.697 149.557 248.986 149.557 248.22ZM152.362 248.016V248.22C152.362 248.662 152.401 249.074 152.479 249.457C152.557 249.84 152.68 250.178 152.849 250.47C153.024 250.756 153.251 250.98 153.53 251.142C153.81 251.304 154.15 251.385 154.553 251.385C154.943 251.385 155.277 251.304 155.556 251.142C155.835 250.98 156.059 250.756 156.228 250.47C156.397 250.178 156.52 249.84 156.598 249.457C156.683 249.074 156.725 248.662 156.725 248.22V248.016C156.725 247.587 156.683 247.185 156.598 246.808C156.52 246.425 156.394 246.087 156.218 245.795C156.05 245.496 155.826 245.263 155.546 245.094C155.267 244.925 154.93 244.841 154.534 244.841C154.137 244.841 153.8 244.925 153.521 245.094C153.248 245.263 153.024 245.496 152.849 245.795C152.68 246.087 152.557 246.425 152.479 246.808C152.401 247.185 152.362 247.587 152.362 248.016ZM164.068 245.143V253.382H161.263V242.844H163.903L164.068 245.143ZM167.243 242.776L167.194 245.376C167.058 245.357 166.892 245.341 166.698 245.328C166.509 245.308 166.337 245.298 166.181 245.298C165.785 245.298 165.441 245.35 165.149 245.454C164.863 245.552 164.623 245.698 164.428 245.892C164.24 246.087 164.097 246.324 164 246.603C163.909 246.883 163.857 247.201 163.844 247.558L163.279 247.383C163.279 246.701 163.347 246.074 163.484 245.503C163.62 244.925 163.818 244.422 164.078 243.993C164.344 243.565 164.669 243.234 165.052 243C165.435 242.766 165.873 242.649 166.366 242.649C166.522 242.649 166.681 242.662 166.844 242.688C167.006 242.708 167.139 242.737 167.243 242.776ZM176.661 252.194L179.456 242.844H182.465L178.229 254.969C178.138 255.236 178.014 255.521 177.859 255.826C177.709 256.131 177.505 256.42 177.245 256.693C176.992 256.972 176.67 257.2 176.281 257.375C175.898 257.55 175.427 257.638 174.869 257.638C174.602 257.638 174.385 257.622 174.216 257.589C174.047 257.557 173.846 257.511 173.612 257.453V255.398C173.684 255.398 173.758 255.398 173.836 255.398C173.914 255.404 173.989 255.408 174.06 255.408C174.43 255.408 174.732 255.365 174.966 255.281C175.2 255.197 175.388 255.067 175.531 254.891C175.674 254.723 175.787 254.502 175.872 254.229L176.661 252.194ZM175.492 242.844L177.781 250.48L178.18 253.45L176.271 253.655L172.483 242.844H175.492ZM182.981 248.22V248.016C182.981 247.243 183.092 246.532 183.312 245.883C183.533 245.227 183.855 244.659 184.277 244.178C184.699 243.698 185.218 243.325 185.835 243.058C186.452 242.786 187.159 242.649 187.958 242.649C188.757 242.649 189.468 242.786 190.091 243.058C190.714 243.325 191.237 243.698 191.659 244.178C192.087 244.659 192.412 245.227 192.633 245.883C192.853 246.532 192.964 247.243 192.964 248.016V248.22C192.964 248.986 192.853 249.697 192.633 250.353C192.412 251.002 192.087 251.57 191.659 252.057C191.237 252.538 190.717 252.911 190.101 253.177C189.484 253.444 188.776 253.577 187.977 253.577C187.179 253.577 186.468 253.444 185.845 253.177C185.228 252.911 184.705 252.538 184.277 252.057C183.855 251.57 183.533 251.002 183.312 250.353C183.092 249.697 182.981 248.986 182.981 248.22ZM185.786 248.016V248.22C185.786 248.662 185.825 249.074 185.903 249.457C185.981 249.84 186.104 250.178 186.273 250.47C186.448 250.756 186.676 250.98 186.955 251.142C187.234 251.304 187.575 251.385 187.977 251.385C188.367 251.385 188.701 251.304 188.981 251.142C189.26 250.98 189.484 250.756 189.653 250.47C189.821 250.178 189.945 249.84 190.023 249.457C190.107 249.074 190.149 248.662 190.149 248.22V248.016C190.149 247.587 190.107 247.185 190.023 246.808C189.945 246.425 189.818 246.087 189.643 245.795C189.474 245.496 189.25 245.263 188.971 245.094C188.692 244.925 188.354 244.841 187.958 244.841C187.562 244.841 187.224 244.925 186.945 245.094C186.672 245.263 186.448 245.496 186.273 245.795C186.104 246.087 185.981 246.425 185.903 246.808C185.825 247.185 185.786 247.587 185.786 248.016ZM200.921 250.859V242.844H203.726V253.382H201.086L200.921 250.859ZM201.232 248.697L202.06 248.678C202.06 249.379 201.979 250.032 201.817 250.635C201.654 251.233 201.411 251.752 201.086 252.194C200.762 252.629 200.353 252.97 199.859 253.216C199.366 253.457 198.785 253.577 198.116 253.577C197.603 253.577 197.129 253.505 196.694 253.362C196.265 253.213 195.895 252.983 195.584 252.671C195.279 252.353 195.038 251.947 194.863 251.454C194.694 250.954 194.61 250.353 194.61 249.652V242.844H197.415V249.671C197.415 249.983 197.45 250.246 197.522 250.46C197.6 250.674 197.707 250.85 197.843 250.986C197.979 251.122 198.139 251.22 198.32 251.278C198.509 251.337 198.716 251.366 198.944 251.366C199.522 251.366 199.976 251.249 200.307 251.015C200.645 250.782 200.882 250.463 201.018 250.061C201.161 249.652 201.232 249.197 201.232 248.697ZM208.673 245.143V253.382H205.868V242.844H208.507L208.673 245.143ZM211.848 242.776L211.799 245.376C211.663 245.357 211.497 245.341 211.303 245.328C211.114 245.308 210.942 245.298 210.786 245.298C210.39 245.298 210.046 245.35 209.754 245.454C209.468 245.552 209.228 245.698 209.033 245.892C208.845 246.087 208.702 246.324 208.605 246.603C208.514 246.883 208.462 247.201 208.449 247.558L207.884 247.383C207.884 246.701 207.952 246.074 208.089 245.503C208.225 244.925 208.423 244.422 208.683 243.993C208.949 243.565 209.274 243.234 209.657 243C210.04 242.766 210.478 242.649 210.971 242.649C211.127 242.649 211.286 242.662 211.449 242.688C211.611 242.708 211.744 242.737 211.848 242.776ZM223.827 251.006V246.311C223.827 245.974 223.772 245.685 223.661 245.444C223.551 245.198 223.379 245.006 223.145 244.87C222.918 244.734 222.623 244.665 222.259 244.665C221.947 244.665 221.678 244.721 221.451 244.831C221.223 244.935 221.048 245.087 220.925 245.289C220.801 245.483 220.74 245.714 220.74 245.98H217.935C217.935 245.532 218.039 245.107 218.246 244.704C218.454 244.302 218.756 243.948 219.152 243.643C219.548 243.331 220.019 243.088 220.564 242.912C221.116 242.737 221.733 242.649 222.415 242.649C223.233 242.649 223.96 242.786 224.596 243.058C225.233 243.331 225.733 243.74 226.096 244.286C226.466 244.831 226.651 245.513 226.651 246.331V250.84C226.651 251.418 226.687 251.892 226.758 252.262C226.83 252.625 226.934 252.944 227.07 253.216V253.382H224.236C224.1 253.096 223.996 252.739 223.924 252.311C223.859 251.876 223.827 251.441 223.827 251.006ZM224.197 246.964L224.217 248.551H222.649C222.278 248.551 221.957 248.593 221.684 248.678C221.412 248.762 221.188 248.882 221.012 249.038C220.837 249.188 220.707 249.363 220.623 249.564C220.545 249.765 220.506 249.986 220.506 250.226C220.506 250.467 220.561 250.684 220.672 250.879C220.782 251.067 220.941 251.217 221.149 251.327C221.356 251.431 221.6 251.483 221.879 251.483C222.301 251.483 222.668 251.398 222.98 251.23C223.291 251.061 223.532 250.853 223.7 250.606C223.876 250.359 223.967 250.126 223.973 249.905L224.713 251.093C224.609 251.359 224.466 251.635 224.285 251.921C224.109 252.207 223.885 252.476 223.613 252.729C223.34 252.976 223.012 253.181 222.629 253.343C222.246 253.499 221.791 253.577 221.266 253.577C220.597 253.577 219.99 253.444 219.444 253.177C218.905 252.905 218.477 252.531 218.159 252.057C217.847 251.577 217.691 251.031 217.691 250.421C217.691 249.869 217.795 249.379 218.003 248.951C218.211 248.522 218.516 248.162 218.918 247.87C219.328 247.571 219.837 247.347 220.448 247.198C221.058 247.042 221.766 246.964 222.571 246.964H224.197ZM233.975 242.844V244.831H227.839V242.844H233.975ZM229.359 240.244H232.164V250.207C232.164 250.512 232.203 250.746 232.28 250.908C232.365 251.07 232.488 251.184 232.651 251.249C232.813 251.307 233.017 251.337 233.264 251.337C233.439 251.337 233.595 251.33 233.732 251.317C233.874 251.298 233.995 251.278 234.092 251.259L234.102 253.323C233.861 253.401 233.602 253.463 233.323 253.508C233.043 253.554 232.735 253.577 232.397 253.577C231.781 253.577 231.242 253.476 230.781 253.275C230.326 253.067 229.976 252.736 229.729 252.281C229.482 251.827 229.359 251.23 229.359 250.489V240.244ZM240.734 242.844V244.831H234.598V242.844H240.734ZM236.118 240.244H238.923V250.207C238.923 250.512 238.961 250.746 239.039 250.908C239.124 251.07 239.247 251.184 239.409 251.249C239.572 251.307 239.776 251.337 240.023 251.337C240.198 251.337 240.354 251.33 240.491 251.317C240.633 251.298 240.753 251.278 240.851 251.259L240.861 253.323C240.62 253.401 240.361 253.463 240.081 253.508C239.802 253.554 239.494 253.577 239.156 253.577C238.539 253.577 238.001 253.476 237.54 253.275C237.085 253.067 236.734 252.736 236.488 252.281C236.241 251.827 236.118 251.23 236.118 250.489V240.244ZM247.181 253.577C246.363 253.577 245.629 253.447 244.98 253.187C244.331 252.921 243.779 252.554 243.325 252.087C242.877 251.619 242.532 251.077 242.292 250.46C242.052 249.837 241.932 249.175 241.932 248.473V248.084C241.932 247.285 242.046 246.555 242.273 245.892C242.5 245.23 242.825 244.656 243.247 244.169C243.675 243.682 244.195 243.308 244.805 243.049C245.415 242.782 246.103 242.649 246.87 242.649C247.616 242.649 248.279 242.773 248.856 243.019C249.434 243.266 249.918 243.617 250.307 244.071C250.704 244.526 251.002 245.071 251.203 245.707C251.405 246.337 251.505 247.038 251.505 247.811V248.98H243.13V247.11H248.749V246.896C248.749 246.506 248.678 246.159 248.535 245.854C248.399 245.542 248.191 245.295 247.912 245.113C247.632 244.932 247.275 244.841 246.84 244.841C246.47 244.841 246.152 244.922 245.886 245.084C245.62 245.246 245.402 245.474 245.233 245.766C245.071 246.058 244.948 246.402 244.863 246.798C244.785 247.188 244.746 247.616 244.746 248.084V248.473C244.746 248.895 244.805 249.285 244.922 249.642C245.045 249.999 245.217 250.308 245.438 250.567C245.665 250.827 245.938 251.028 246.256 251.171C246.581 251.314 246.948 251.385 247.357 251.385C247.863 251.385 248.334 251.288 248.769 251.093C249.21 250.892 249.59 250.59 249.908 250.187L251.272 251.668C251.051 251.986 250.749 252.291 250.366 252.583C249.989 252.875 249.535 253.116 249.002 253.304C248.47 253.486 247.863 253.577 247.181 253.577ZM255.849 245.094V253.382H253.044V242.844H255.674L255.849 245.094ZM255.44 247.743H254.68C254.68 246.964 254.781 246.263 254.982 245.639C255.183 245.009 255.466 244.474 255.83 244.032C256.193 243.584 256.625 243.243 257.125 243.01C257.631 242.77 258.196 242.649 258.819 242.649C259.313 242.649 259.764 242.721 260.173 242.864C260.582 243.006 260.933 243.234 261.225 243.545C261.524 243.857 261.751 244.269 261.907 244.782C262.069 245.295 262.15 245.922 262.15 246.662V253.382H259.326V246.652C259.326 246.185 259.261 245.821 259.131 245.561C259.001 245.302 258.81 245.12 258.556 245.016C258.31 244.906 258.005 244.85 257.641 244.85C257.264 244.85 256.937 244.925 256.657 245.074C256.385 245.224 256.157 245.432 255.976 245.698C255.8 245.957 255.667 246.263 255.576 246.613C255.485 246.964 255.44 247.34 255.44 247.743ZM269.445 242.844V244.831H263.309V242.844H269.445ZM264.828 240.244H267.633V250.207C267.633 250.512 267.672 250.746 267.75 250.908C267.835 251.07 267.958 251.184 268.12 251.249C268.283 251.307 268.487 251.337 268.734 251.337C268.909 251.337 269.065 251.33 269.201 251.317C269.344 251.298 269.464 251.278 269.562 251.259L269.571 253.323C269.331 253.401 269.071 253.463 268.792 253.508C268.513 253.554 268.205 253.577 267.867 253.577C267.25 253.577 266.711 253.476 266.25 253.275C265.796 253.067 265.445 252.736 265.199 252.281C264.952 251.827 264.828 251.23 264.828 250.489V240.244ZM274.003 242.844V253.382H271.188V242.844H274.003ZM271.013 240.098C271.013 239.689 271.156 239.351 271.441 239.085C271.727 238.819 272.11 238.686 272.59 238.686C273.064 238.686 273.444 238.819 273.73 239.085C274.022 239.351 274.168 239.689 274.168 240.098C274.168 240.507 274.022 240.844 273.73 241.111C273.444 241.377 273.064 241.51 272.59 241.51C272.11 241.51 271.727 241.377 271.441 241.111C271.156 240.844 271.013 240.507 271.013 240.098ZM275.873 248.22V248.016C275.873 247.243 275.983 246.532 276.204 245.883C276.424 245.227 276.746 244.659 277.168 244.178C277.59 243.698 278.109 243.325 278.726 243.058C279.343 242.786 280.051 242.649 280.849 242.649C281.648 242.649 282.359 242.786 282.982 243.058C283.605 243.325 284.128 243.698 284.55 244.178C284.979 244.659 285.303 245.227 285.524 245.883C285.745 246.532 285.855 247.243 285.855 248.016V248.22C285.855 248.986 285.745 249.697 285.524 250.353C285.303 251.002 284.979 251.57 284.55 252.057C284.128 252.538 283.609 252.911 282.992 253.177C282.375 253.444 281.667 253.577 280.869 253.577C280.07 253.577 279.359 253.444 278.736 253.177C278.119 252.911 277.596 252.538 277.168 252.057C276.746 251.57 276.424 251.002 276.204 250.353C275.983 249.697 275.873 248.986 275.873 248.22ZM278.677 248.016V248.22C278.677 248.662 278.716 249.074 278.794 249.457C278.872 249.84 278.996 250.178 279.164 250.47C279.34 250.756 279.567 250.98 279.846 251.142C280.125 251.304 280.466 251.385 280.869 251.385C281.258 251.385 281.593 251.304 281.872 251.142C282.151 250.98 282.375 250.756 282.544 250.47C282.713 250.178 282.836 249.84 282.914 249.457C282.998 249.074 283.04 248.662 283.04 248.22V248.016C283.04 247.587 282.998 247.185 282.914 246.808C282.836 246.425 282.709 246.087 282.534 245.795C282.365 245.496 282.141 245.263 281.862 245.094C281.583 244.925 281.245 244.841 280.849 244.841C280.453 244.841 280.115 244.925 279.836 245.094C279.564 245.263 279.34 245.496 279.164 245.795C278.996 246.087 278.872 246.425 278.794 246.808C278.716 247.185 278.677 247.587 278.677 248.016ZM290.325 245.094V253.382H287.52V242.844H290.15L290.325 245.094ZM289.916 247.743H289.157C289.157 246.964 289.257 246.263 289.459 245.639C289.66 245.009 289.942 244.474 290.306 244.032C290.669 243.584 291.101 243.243 291.601 243.01C292.108 242.77 292.672 242.649 293.296 242.649C293.789 242.649 294.24 242.721 294.649 242.864C295.058 243.006 295.409 243.234 295.701 243.545C296 243.857 296.227 244.269 296.383 244.782C296.545 245.295 296.626 245.922 296.626 246.662V253.382H293.802V246.652C293.802 246.185 293.737 245.821 293.607 245.561C293.477 245.302 293.286 245.12 293.033 245.016C292.786 244.906 292.481 244.85 292.117 244.85C291.741 244.85 291.413 244.925 291.134 245.074C290.861 245.224 290.634 245.432 290.452 245.698C290.277 245.957 290.143 246.263 290.053 246.613C289.962 246.964 289.916 247.34 289.916 247.743Z" fill="white"/>
</svg>
