<svg width="27" height="28" viewBox="0 0 27 28" fill="none" xmlns="http://www.w3.org/2000/svg">
<path d="M5.49321 8.65119C5.26309 8.58945 4.70759 8.42276 4.25861 8.27865C4.25845 8.2786 4.25828 8.27854 4.25811 8.27849L3.44594 8.02435L3.25428 7.96437L3.36619 7.79761L3.64832 7.37717L3.64834 7.37714C4.97698 5.39819 7.04388 3.77361 9.2704 2.966L9.27074 2.96588C9.4094 2.91596 9.53844 2.87017 9.63573 2.83612C9.72705 2.80416 9.80198 2.77835 9.82178 2.7734L9.83969 2.76892H9.85816C9.90048 2.76892 9.94482 2.78692 9.97561 2.82465C10.0009 2.85565 10.0069 2.88772 10.0088 2.90194C10.0124 2.92979 10.0074 2.95275 10.006 2.95918L10.006 2.95939C10.002 2.97755 9.99543 2.99534 9.9906 3.00765C9.97977 3.03521 9.96328 3.07103 9.9437 3.11089C9.90398 3.19179 9.84576 3.30104 9.77828 3.41913C9.14198 4.53952 8.55422 6.28695 8.17426 8.23083L8.17413 8.23147L8.01923 9.00596L7.99247 9.13979L7.85671 9.12575L7.69628 9.10915L7.69628 9.10917L7.69384 9.10888C7.40771 9.07454 5.92895 8.76849 5.49321 8.65119ZM5.49321 8.65119L5.53208 8.50632M5.49321 8.65119C5.49316 8.65118 5.49312 8.65117 5.49308 8.65116L5.53208 8.50632M5.53208 8.50632C5.30526 8.44547 4.75205 8.2795 4.30396 8.13567L7.71171 8.95995C7.43511 8.92676 5.96358 8.62249 5.53208 8.50632ZM18.6708 8.92676L18.5285 8.97419C18.5222 8.95548 18.5143 8.91858 18.507 8.88356C18.4985 8.843 18.4877 8.78889 18.4752 8.72544C18.4502 8.59841 18.4183 8.43205 18.3851 8.25778L18.385 8.25736C18.0384 6.40865 17.412 4.53962 16.7757 3.41913C16.709 3.30249 16.6488 3.19474 16.6065 3.11561C16.5854 3.07639 16.5678 3.04239 16.5559 3.0173C16.5503 3.0056 16.5439 2.99163 16.5392 2.97861L16.5392 2.97849C16.5375 2.9739 16.5322 2.95905 16.5298 2.94076L16.5297 2.94052C16.5288 2.93385 16.5252 2.90598 16.5359 2.87306C16.5421 2.85391 16.5557 2.82565 16.5846 2.8023C16.6153 2.77757 16.6501 2.76892 16.6792 2.76892C16.6947 2.76892 16.7073 2.77145 16.7095 2.7719L16.7097 2.77195C16.7142 2.77282 16.718 2.77376 16.7205 2.77439C16.7257 2.77569 16.731 2.77721 16.7356 2.77858C16.7452 2.78141 16.7574 2.78525 16.7713 2.78974C16.7994 2.7988 16.8381 2.81169 16.8843 2.82731C16.9768 2.85862 17.1017 2.90164 17.2373 2.9487L17.2382 2.949C19.4434 3.72898 21.5659 5.38712 22.9055 7.37698L22.9056 7.37717L23.1878 7.79761L23.299 7.9633L23.1089 8.02407L22.2957 8.28408L22.2955 8.28414C21.5603 8.51807 20.6707 8.75017 19.9595 8.9066C19.6042 8.98474 19.2905 9.04465 19.0615 9.07629C18.948 9.09199 18.8499 9.10151 18.7763 9.10177C18.7407 9.1019 18.702 9.09999 18.6673 9.09193C18.6502 9.08794 18.6256 9.08061 18.6012 9.06546C18.5761 9.04985 18.5409 9.01921 18.5263 8.9672L18.6708 8.92676ZM18.6708 8.92676C18.7095 9.06506 20.7895 8.6059 22.25 8.1412L16.906 3.34489C17.5533 4.4845 18.1839 6.37094 18.5325 8.22971C18.5988 8.57823 18.6597 8.89356 18.6708 8.92676ZM7.63427 10.8021L6.90403 10.6694C6.50019 10.5974 5.73676 10.4315 5.20568 10.2987M7.63427 10.8021L5.20568 10.2987M7.63427 10.8021L7.59554 11.383M7.63427 10.8021L7.59554 11.383M5.20568 10.2987L5.24206 10.1532C5.24218 10.1532 5.2423 10.1532 5.24242 10.1533L5.20568 10.2987ZM3.31957 18.1573L3.26946 18.016L3.31958 18.1573M3.31957 18.1573L6.6069 17.2835C5.42808 17.5204 4.18516 17.8505 3.31958 18.1573M3.31957 18.1573C3.31957 18.1573 3.31958 18.1573 3.31958 18.1573M3.31957 18.1573L3.31958 18.1573M7.59554 11.383C7.54575 12.0303 7.53469 15.4657 7.57894 16.3563M7.59554 11.383L7.57894 16.3563M7.57894 16.3563L7.60661 16.9317L7.57894 16.3563ZM9.29159 11.161C9.29951 11.1255 9.30955 11.0829 9.32634 11.046C9.34609 11.0026 9.37959 10.9567 9.43816 10.9292C9.48868 10.9054 9.54123 10.9037 9.58022 10.905C9.621 10.9063 9.66963 10.9121 9.72234 10.9189L9.72266 10.9189C9.84443 10.9348 10.3808 10.9787 10.9247 11.0176C11.4943 11.0531 12.6755 11.0629 13.8238 11.0511C14.9747 11.0394 16.0766 11.0061 16.4902 10.9574L16.4912 10.9573C16.6422 10.9405 16.7845 10.9278 16.8915 10.9214C16.9446 10.9182 16.9914 10.9164 17.0271 10.9167C17.0443 10.9169 17.0632 10.9175 17.0803 10.9196C17.0884 10.9206 17.1015 10.9225 17.116 10.9269C17.1233 10.9291 17.135 10.9331 17.1481 10.9403C17.1574 10.9455 17.1743 10.9559 17.1904 10.9744C17.2067 10.9928 17.2156 11.0111 17.2199 11.0206C17.2257 11.0334 17.2298 11.0459 17.2328 11.0561C17.2387 11.0767 17.2434 11.1 17.2473 11.1233C17.2551 11.1705 17.262 11.2324 17.2683 11.3048C17.281 11.4505 17.2919 11.6503 17.3011 11.8861C17.3196 12.3581 17.3316 12.9812 17.3361 13.6183C17.3406 14.2555 17.3376 14.908 17.3263 15.4391C17.3151 15.963 17.2956 16.3859 17.2635 16.5509L17.2635 16.5509L17.263 16.5534L17.2615 16.5606C17.2532 16.5998 17.2438 16.644 17.2304 16.6799C17.2141 16.7233 17.1836 16.7785 17.1186 16.8115C17.0632 16.8398 17.0041 16.8398 16.9633 16.8378C16.9208 16.8357 16.8681 16.8288 16.8093 16.8211L16.8042 16.8205C16.8041 16.8205 16.804 16.8205 16.804 16.8204C16.1807 16.7415 14.8176 16.6958 13.4422 16.6889C12.0667 16.682 10.6978 16.714 10.0635 16.7875L10.0628 16.7876C9.9118 16.8043 9.76946 16.817 9.66246 16.8235C9.6094 16.8267 9.56255 16.8284 9.52687 16.8281C9.50965 16.828 9.4908 16.8273 9.47366 16.8253C9.46559 16.8243 9.45242 16.8223 9.43795 16.818C9.4307 16.8158 9.41898 16.8117 9.40589 16.8045C9.39651 16.7994 9.37958 16.7889 9.36348 16.7704C9.34691 16.7516 9.33794 16.7329 9.33377 16.7235C9.32804 16.7107 9.32396 16.6981 9.32102 16.6877C9.31511 16.667 9.31047 16.6435 9.30659 16.6198C9.29873 16.5718 9.29174 16.5087 9.2854 16.4346C9.27263 16.2857 9.2615 16.0814 9.25205 15.8405C9.23312 15.3581 9.22066 14.7223 9.21581 14.0755C9.21096 13.4286 9.21373 12.7695 9.22535 12.2403C9.23116 11.9758 9.2392 11.7428 9.2497 11.5596C9.25981 11.3831 9.27276 11.2394 9.29159 11.161ZM9.29159 11.161C9.29149 11.1615 9.29139 11.1619 9.29129 11.1624L9.43772 11.1949L9.29201 11.1593C9.29187 11.1599 9.29173 11.1604 9.29159 11.161ZM14.8861 18.2311L14.8855 18.2311C14.3932 18.2173 13.8779 18.1997 13.6231 18.191C13.5724 18.1892 13.532 18.1879 13.5042 18.1869C13.5039 18.1869 13.5036 18.1869 13.5033 18.1869L13.4983 18.3368L14.8861 18.2311ZM14.8861 18.2311C15.4049 18.2478 15.8857 18.2728 16.2438 18.3M14.8861 18.2311L16.2438 18.3M3.64832 20.3677L3.64845 20.3679C4.9881 22.3577 7.11053 24.0159 9.32691 24.7959C9.45968 24.8429 9.58177 24.8859 9.67217 24.9172C9.7173 24.9328 9.75512 24.9457 9.78262 24.9548C9.79623 24.9593 9.80826 24.9632 9.81775 24.966C9.82234 24.9674 9.82767 24.969 9.83287 24.9703C9.83539 24.971 9.8393 24.9719 9.84385 24.9728L9.8441 24.9729C9.84648 24.9734 9.85915 24.9759 9.87476 24.9759C9.90386 24.9759 9.93869 24.9673 9.96936 24.9426C9.9983 24.9192 10.0119 24.891 10.0181 24.8718C10.0288 24.8389 10.0251 24.811 10.0242 24.8043L10.0242 24.8041C10.0218 24.7858 10.0164 24.771 10.0148 24.7664L10.0147 24.7662C10.01 24.7532 10.0037 24.7393 9.99808 24.7276C9.98613 24.7025 9.96852 24.6685 9.94751 24.6293C9.90512 24.5501 9.84494 24.4424 9.77831 24.3258C9.14204 23.2055 8.55427 21.4526 8.17428 19.5197L3.64832 20.3677ZM3.64832 20.3677L3.36619 19.9473L3.25428 19.7805M3.64832 20.3677L3.25428 19.7805M3.25428 19.7805L3.44594 19.7205M3.25428 19.7805L3.44594 19.7205M3.44594 19.7205L4.25811 19.4664C4.25828 19.4663 4.25845 19.4663 4.25861 19.4662C4.70853 19.3218 5.27461 19.1553 5.52027 19.0883L5.52052 19.0882M3.44594 19.7205L5.52052 19.0882M5.52052 19.0882C5.79092 19.015 6.34263 18.8925 6.83278 18.7909M5.52052 19.0882L6.83278 18.7909M22.4081 19.4946L22.407 19.4942C21.5 19.1993 20.6091 18.9654 19.6956 18.7871C19.5754 18.7634 19.4553 18.7395 19.3444 18.7175C19.1059 18.67 18.9103 18.6311 18.8493 18.6211C18.8475 18.6206 18.8454 18.6201 18.8432 18.6196C18.831 18.6166 18.8133 18.6123 18.801 18.61C18.7813 18.6062 18.7459 18.6007 18.7057 18.609C18.605 18.63 18.5618 18.7136 18.5407 18.7677C18.5182 18.8254 18.4984 18.9082 18.4756 19.018C18.4546 19.1195 18.4292 19.2537 18.3962 19.4286L18.3851 19.4873L18.385 19.4875C18.0384 21.3362 17.412 23.2053 16.7757 24.3258C16.7756 24.3258 16.7756 24.3259 16.7756 24.3259L16.906 24.4L22.4081 19.4946ZM22.4081 19.4946L23.1051 19.7269L23.2932 19.7896M22.4081 19.4946L23.2932 19.7896M23.2932 19.7896L23.1817 19.9535M23.2932 19.7896L23.1817 19.9535M23.1817 19.9535L22.9001 20.3676M23.1817 19.9535L22.9001 20.3676M16.2438 18.3C16.4226 18.3135 16.5726 18.3278 16.6821 18.342M16.2438 18.3L16.6821 18.342M16.6821 18.342C16.7365 18.3491 16.7837 18.3565 16.8205 18.3645M16.6821 18.342L16.8205 18.3645M16.8205 18.3645C16.8387 18.3684 16.8576 18.3731 16.8749 18.379M16.8205 18.3645L16.8749 18.379M16.8749 18.379L16.8756 18.3792M16.8749 18.379L16.8756 18.3792M16.8756 18.3792C16.8858 18.3827 16.919 18.3941 16.9475 18.4207M16.8756 18.3792L16.9475 18.4207M16.9475 18.4207C16.9723 18.4439 16.9832 18.4693 16.9875 18.481C16.9928 18.4953 16.9952 18.5078 16.9965 18.5157C16.9989 18.5315 16.9992 18.5464 16.9991 18.5567C16.9989 18.5785 16.9966 18.604 16.9937 18.63C16.9876 18.6831 16.9765 18.7547 16.9618 18.8384C16.9323 19.0066 16.8869 19.2329 16.8342 19.4782C16.7288 19.9682 16.5924 20.542 16.4914 20.8901C16.4914 20.8901 16.4913 20.8902 16.4913 20.8902L16.3473 20.8484C15.7 23.0833 14.754 24.7153 13.8247 25.1855L16.9475 18.4207ZM10.924 23.155C11.3786 24.0837 11.8545 24.7489 12.3469 25.1218C12.5948 25.3096 12.8513 25.4267 13.1144 25.4617C13.3788 25.4969 13.6399 25.4479 13.8927 25.3192L10.924 23.155ZM10.924 23.155C10.4641 22.2184 10.0567 21.006 9.79454 19.7958M10.924 23.155L9.79454 19.7958M9.79454 19.7958C9.79455 19.7959 9.79457 19.796 9.79458 19.796L9.94114 19.7641L9.79454 19.7958ZM9.79454 19.7958C9.77829 19.7213 9.76296 19.6511 9.74852 19.585M9.79454 19.7958L9.74852 19.585M9.74852 19.585C9.63905 19.0838 9.58091 18.8177 9.56586 18.6763M9.74852 19.585L9.56586 18.6763M9.56586 18.6763C9.56145 18.6349 9.5595 18.5946 9.56379 18.5578M9.56586 18.6763L9.56379 18.5578M9.56379 18.5578C9.56819 18.52 9.58057 18.4734 9.61587 18.433M9.56379 18.5578L9.61587 18.433M9.61587 18.433C9.65126 18.3926 9.6939 18.3768 9.71929 18.3694M9.61587 18.433L9.71929 18.3694M9.71929 18.3694C9.73572 18.3646 9.76728 18.3582 9.77374 18.3568L9.71929 18.3694ZM6.83278 18.7909C7.07851 18.7399 7.31048 18.6939 7.48598 18.6615M6.83278 18.7909L7.48598 18.6615M7.48598 18.6615C7.57354 18.6454 7.64817 18.6324 7.70381 18.624M7.48598 18.6615L7.70381 18.624M7.70381 18.624C7.73143 18.6198 7.75602 18.6165 7.77589 18.6145M7.70381 18.624L7.77589 18.6145M7.77589 18.6145C7.7857 18.6135 7.79621 18.6127 7.8063 18.6123M7.77589 18.6145L7.8063 18.6123M7.8063 18.6123L7.80678 18.6123M7.8063 18.6123L7.80678 18.6123M7.80678 18.6123C7.81277 18.6121 7.83207 18.6115 7.85349 18.6161M7.80678 18.6123L7.85349 18.6161M7.85349 18.6161C7.88788 18.6233 7.91109 18.6405 7.92244 18.6502C7.93495 18.6608 7.9436 18.6715 7.94873 18.6784C7.95894 18.6922 7.96611 18.7059 7.97053 18.715C7.97988 18.7341 7.98847 18.7568 7.99615 18.7791C8.01196 18.8249 8.03001 18.8872 8.04905 18.9599C8.08736 19.106 8.13228 19.3041 8.17423 19.5194L7.85349 18.6161ZM22.9001 20.3676C22.9001 20.3678 22.9 20.3679 22.8999 20.368L22.9001 20.3676ZM11.5544 0.832619L11.5543 0.832634C9.1862 1.14984 6.98166 2.0904 5.06028 3.59023C4.48393 4.04152 3.45258 5.07817 2.99458 5.65599C1.76834 7.22725 0.865923 9.09887 0.456213 10.9288C0.237534 11.9128 0.15 12.7372 0.15 13.8724C0.15 15.9967 0.55999 17.7943 1.45706 19.6432C3.39874 23.6249 7.17784 26.3378 11.598 26.9177C12.4371 27.0266 14.1113 27.0267 14.9561 26.9177C20.9074 26.1409 25.5455 21.5028 26.3222 15.5514C26.4312 14.7066 26.4312 13.0382 26.3222 12.1934C25.9448 9.29405 24.6541 6.66351 22.6028 4.60135C20.5077 2.49527 17.9051 1.2157 14.956 0.827177C14.1613 0.723764 12.3213 0.729275 11.5544 0.832619ZM16.4914 6.85476L16.4916 6.85574C16.5897 7.20309 16.726 7.77636 16.832 8.26645C16.8851 8.5117 16.931 8.73795 16.961 8.90608C16.9758 8.98973 16.9872 9.06133 16.9934 9.11446C16.9964 9.14043 16.9987 9.16595 16.999 9.18773C16.9991 9.19809 16.9989 9.21296 16.9965 9.22881C16.9953 9.23669 16.9929 9.24928 16.9876 9.26358C16.9833 9.27514 16.9728 9.29993 16.9489 9.32277C16.9234 9.34732 16.8946 9.35946 16.8814 9.36468C16.8638 9.37167 16.8451 9.37713 16.8274 9.38156C16.7917 9.39048 16.7474 9.39839 16.6975 9.40562C16.597 9.42021 16.461 9.43393 16.2988 9.44668C15.9737 9.47225 15.5345 9.49465 15.0448 9.51163C14.0657 9.54558 12.8783 9.55811 11.9889 9.53031L11.9887 9.53031C11.3844 9.5109 10.825 9.48316 10.4089 9.45324C10.2012 9.4383 10.0275 9.42271 9.90116 9.40712C9.83839 9.39937 9.78457 9.3913 9.74314 9.38277C9.7227 9.37856 9.70195 9.37358 9.6833 9.36742C9.67397 9.36434 9.66259 9.36013 9.65086 9.35439C9.6413 9.34971 9.62318 9.34008 9.6054 9.3231C9.58124 9.30016 9.57065 9.27519 9.56635 9.26358C9.56105 9.24928 9.55867 9.23669 9.55748 9.22881C9.55507 9.21296 9.55485 9.19809 9.55498 9.18773C9.55524 9.16595 9.55752 9.14043 9.56055 9.11446C9.56675 9.06133 9.57812 8.98973 9.59301 8.90608C9.62295 8.73795 9.66885 8.5117 9.72193 8.26645C9.82798 7.77636 9.96428 7.20309 10.0623 6.85574L10.0626 6.8548C10.3859 5.73701 10.7871 4.76123 11.2261 4.00146C11.6625 3.24609 12.1463 2.68685 12.6431 2.42647L12.644 2.42602C13.0409 2.22132 13.4957 2.22122 13.8928 2.4257C14.396 2.68049 14.8829 3.23606 15.3215 3.99077C15.7627 4.75006 16.1653 5.72876 16.4914 6.85476ZM2.41501 17.9957L2.41493 17.9955L2.55581 17.944L2.41512 17.996C2.41509 17.9959 2.41505 17.9958 2.41501 17.9957ZM24.2893 10.1724L24.2899 10.1742C24.7155 11.462 24.8784 12.4681 24.8784 13.8724C24.8784 15.4061 24.6705 16.5576 24.1446 17.9956L24.1439 17.9973L24.0388 18.2739L23.9879 18.4079L23.8517 18.3631L22.9776 18.0755L22.9768 18.0752C21.9438 17.729 21.0541 17.4983 19.8316 17.2615L19.8307 17.2613L18.9179 17.0788L18.7913 17.0534L18.7975 16.9245L18.8252 16.3491L18.8252 16.3489C18.8693 15.4623 18.858 12.0336 18.8089 11.3945L18.8088 11.393L18.77 10.8121L18.7611 10.6785L18.8929 10.6545L19.6231 10.5218L19.6236 10.5217C20.6736 10.3348 21.9885 10.0046 22.9655 9.67528L22.9656 9.67526C23.2383 9.58343 23.4607 9.51576 23.6192 9.47505C23.6978 9.45488 23.7647 9.44027 23.8158 9.43314C23.8404 9.4297 23.8679 9.42703 23.8937 9.42819C23.9064 9.42876 23.9255 9.43048 23.9463 9.43693C23.9637 9.44234 24.002 9.45704 24.0306 9.49643C24.0439 9.51443 24.0533 9.53452 24.0572 9.54292L24.0576 9.54366C24.0642 9.55795 24.0716 9.57523 24.0794 9.59417C24.095 9.6323 24.1143 9.68267 24.136 9.74101C24.1794 9.85801 24.2338 10.0113 24.2893 10.1724Z" fill="#080808" stroke="#F1F1F1" stroke-width="0.3"/>
</svg>
