<svg width="45" height="45" viewBox="0 0 45 45" fill="none" xmlns="http://www.w3.org/2000/svg">
<path d="M38.277 6.8949C36.2354 4.83439 33.8041 3.2008 31.1249 2.08934C28.4456 0.977872 25.5719 0.410755 22.6713 0.421036C10.5168 0.421036 0.611137 10.3239 0.600004 22.4812C0.600004 26.375 1.61868 30.163 3.54191 33.5168L0.421875 44.9532L12.1227 41.8861C15.3597 43.6476 18.986 44.571 22.6713 44.5719H22.6824C34.8397 44.5719 44.7425 34.6691 44.7537 22.5007C44.7565 19.6006 44.1854 16.7287 43.0733 14.0503C41.9613 11.372 40.3331 8.94013 38.277 6.8949ZM22.6713 40.8368C19.3842 40.8379 16.1576 39.9534 13.3306 38.2762L12.6627 37.8754L5.72121 39.6957L7.57486 32.924L7.14067 32.2254C5.30318 29.3039 4.33138 25.9214 4.33792 22.47C4.33792 12.3779 12.568 4.14504 22.6824 4.14504C25.092 4.14072 27.4786 4.61339 29.7046 5.53581C31.9307 6.45823 33.9521 7.81216 35.6524 9.51952C37.3586 11.2202 38.7113 13.2419 39.6323 15.468C40.5533 17.6941 41.0244 20.0805 41.0185 22.4895C41.0074 32.6178 32.7773 40.8368 22.6713 40.8368ZM32.7328 27.1042C32.1845 26.8286 29.4763 25.4954 28.967 25.3062C28.4605 25.1253 28.0903 25.0306 27.7285 25.5817C27.3583 26.13 26.3006 27.3797 25.9834 27.7388C25.6661 28.1089 25.3376 28.1507 24.7866 27.8779C24.2382 27.5996 22.4597 27.0207 20.3556 25.1364C18.7135 23.6752 17.6141 21.8661 17.2857 21.3178C16.9684 20.7667 17.255 20.4717 17.5306 20.1961C17.7727 19.9512 18.0789 19.5504 18.3544 19.2331C18.6328 18.9158 18.7246 18.682 18.9055 18.3146C19.0864 17.9417 19.0002 17.6244 18.8638 17.3488C18.7246 17.0733 17.6252 14.354 17.1604 13.2574C16.7151 12.1748 16.2614 12.325 15.9219 12.3111C15.6046 12.2916 15.2344 12.2916 14.8642 12.2916C14.5847 12.2986 14.3096 12.3633 14.0562 12.4816C13.8029 12.5999 13.5767 12.7693 13.3919 12.9791C12.8853 13.5302 11.4686 14.8634 11.4686 17.5826C11.4686 20.3019 13.4448 22.9154 13.7231 23.2855C13.9958 23.6557 17.603 29.2195 23.1389 31.6131C24.447 32.1836 25.4768 32.5204 26.2812 32.7765C27.6032 33.1995 28.7972 33.1355 29.7491 32.9991C30.8067 32.8377 33.0083 31.6632 33.4731 30.3745C33.9296 29.0831 33.9296 27.9809 33.7904 27.7499C33.654 27.5161 33.2839 27.3797 32.7328 27.1042Z" fill="#080808"/>
</svg>
