<svg width="50" height="35" viewBox="0 0 50 35" fill="none" xmlns="http://www.w3.org/2000/svg">
<path fill-rule="evenodd" clip-rule="evenodd" d="M46.1307 5.31696C44.8846 3.16773 43.5345 2.77278 40.7821 2.62276C38.0328 2.44213 31.1167 2.36865 25.1282 2.36865C19.1275 2.36865 12.2083 2.44213 9.46204 2.62276C6.7158 2.77584 5.36258 3.16773 4.10426 5.31696C2.82146 7.4662 2.16016 11.1615 2.16016 17.6705V17.695C2.16016 24.1763 2.82146 27.8992 4.10426 30.0209C5.35952 32.1671 6.71274 32.559 9.46204 32.7396C12.2083 32.8927 19.1244 32.9845 25.1282 32.9845C31.1167 32.9845 38.0328 32.8927 40.7852 32.7396C43.5375 32.559 44.8877 32.1671 46.1338 30.0209C47.4319 27.8962 48.087 24.1733 48.087 17.695V17.6705C48.084 11.1615 47.4319 7.4662 46.1307 5.31696Z" stroke="#080808" stroke-width="3.82105" stroke-miterlimit="10" stroke-linecap="round" stroke-linejoin="round"/>
<path fill-rule="evenodd" clip-rule="evenodd" d="M20.5273 25.3309V10.0229L32.7737 17.6769L20.5273 25.3309Z" stroke="#080808" stroke-width="3.82105" stroke-miterlimit="10" stroke-linecap="round" stroke-linejoin="round"/>
</svg>
